<svg width="42" height="39" viewBox="0 0 42 39" fill="none" xmlns="http://www.w3.org/2000/svg">
<mask id="mask0_639_44323" style="mask-type:luminance" maskUnits="userSpaceOnUse" x="0" y="0" width="38" height="31">
<path d="M0 0H38V30.526H0V0Z" fill="white"/>
</mask>
<g mask="url(#mask0_639_44323)">
<path d="M35.4896 29.276H2.98958C1.33854 29.276 0 27.9375 0 26.2865V2.98958C0 1.33854 1.33854 0 2.98958 0H10.7917C12.6406 0 14.0677 1.90104 14.8802 2.44792C15.3385 2.80208 15.8385 2.98437 16.2813 3.14063C16.8385 3.33333 17.901 3.3125 17.901 3.3125H35.4323C37.0833 3.3125 38.4219 4.65104 38.4219 6.29688L38.4792 26.2865C38.4792 27.9375 37.1406 29.276 35.4896 29.276Z" fill="#5F8D9D"/>
</g>
<mask id="mask1_639_44323" style="mask-type:luminance" maskUnits="userSpaceOnUse" x="0" y="5" width="38" height="30">
<path d="M0 5.19263H38V34.9999H0V5.19263Z" fill="white"/>
</mask>
<g mask="url(#mask1_639_44323)">
<path d="M2.98958 5.9895H35.4948C35.8906 5.9895 36.2708 6.06763 36.6354 6.21867C37 6.36971 37.3229 6.58846 37.6042 6.8645C37.8854 7.14575 38.099 7.46867 38.25 7.83325C38.401 8.20304 38.4792 8.58325 38.4792 8.97909V32.2812C38.4792 32.677 38.401 33.0572 38.25 33.4218C38.099 33.7864 37.8854 34.1093 37.6042 34.3905C37.3229 34.6718 37 34.8853 36.6354 35.0364C36.2708 35.1874 35.8906 35.2655 35.4948 35.2655H2.98958C2.59375 35.2655 2.20833 35.1874 1.84375 35.0364C1.47917 34.8853 1.15625 34.6718 0.875 34.3905C0.593749 34.1093 0.380209 33.7864 0.229167 33.4218C0.0781253 33.0572 0 32.677 0 32.2812V8.97909C0 8.58325 0.0781253 8.20304 0.229167 7.83325C0.380209 7.46867 0.593749 7.14575 0.875 6.8645C1.15625 6.58846 1.47917 6.36971 1.84375 6.21867C2.20833 6.06763 2.59375 5.9895 2.98958 5.9895Z" fill="#69A0B3"/>
</g>
<mask id="mask2_639_44323" style="mask-type:luminance" maskUnits="userSpaceOnUse" x="24" y="21" width="18" height="18">
<path d="M24.375 21.6926H41.375V38.6926H24.375V21.6926Z" fill="white"/>
</mask>
<g mask="url(#mask2_639_44323)">
<path d="M30.9323 28.3905V23.8853C30.9323 23.255 31.1094 22.7446 31.4531 22.3488C31.7969 21.9425 32.2865 21.7446 32.9271 21.7446C33.5677 21.7446 34.0625 21.9425 34.4063 22.3488C34.7604 22.7446 34.9375 23.255 34.9375 23.8853V28.3905H39.3854C40.0365 28.3905 40.5469 28.5675 40.9219 28.9217C41.3073 29.2655 41.5 29.755 41.5 30.3853C41.5 31.0259 41.3073 31.5207 40.9219 31.8748C40.5469 32.2342 40.0365 32.4113 39.3854 32.4113H34.9375V36.9009C34.9375 37.5415 34.7604 38.0571 34.4063 38.453C34.0521 38.8436 33.5573 39.0415 32.9271 39.0415C32.2969 39.0415 31.8073 38.8436 31.4531 38.453C31.1094 38.0571 30.9323 37.5415 30.9323 36.9009V32.4113H26.4896C25.8594 32.4113 25.3438 32.2186 24.9531 31.8332C24.5677 31.4373 24.375 30.9582 24.375 30.3853C24.375 29.755 24.5625 29.2655 24.9375 28.9217C25.3177 28.5675 25.8385 28.3905 26.4896 28.3905H30.9323Z" fill="#416571"/>
</g>
</svg>
