<svg width="119" height="99" viewBox="0 0 119 99" fill="none" xmlns="http://www.w3.org/2000/svg">
<mask id="mask0_621_43584" style="mask-type:luminance" maskUnits="userSpaceOnUse" x="6" y="2" width="112" height="97">
<path d="M6.66666 2.66675H117.333V98.6668H6.66666V2.66675Z" fill="white"/>
</mask>
<g mask="url(#mask0_621_43584)">
<mask id="mask1_621_43584" style="mask-type:luminance" maskUnits="userSpaceOnUse" x="5" y="2" width="114" height="98">
<path d="M118.151 95.8802L7.97396 99.0625L5.26562 5.35938L115.443 2.17188L118.151 95.8802Z" fill="white"/>
</mask>
<g mask="url(#mask1_621_43584)">
<mask id="mask2_621_43584" style="mask-type:luminance" maskUnits="userSpaceOnUse" x="7" y="3" width="110" height="96">
<path d="M60.2031 3.77074C39.0729 4.38012 20.5469 18.0364 13.7031 38.0312L8.8698 52.1457C5.18751 62.9114 7.01563 74.7968 13.7656 83.9582C20.5156 93.1197 31.3281 98.3905 42.6979 98.0572L83.125 96.8905C94.4948 96.5624 104.984 90.677 111.193 81.1405C117.401 71.6093 118.542 59.6353 114.24 49.0989L108.604 35.2864C100.615 15.7187 81.3281 3.16137 60.2031 3.77074Z" fill="white"/>
</mask>
<g mask="url(#mask2_621_43584)">
<mask id="mask3_621_43584" style="mask-type:luminance" maskUnits="userSpaceOnUse" x="6" y="2" width="112" height="97">
<path d="M117.333 2.6665H6.66666V98.6665H117.333V2.6665Z" fill="white"/>
</mask>
<g mask="url(#mask3_621_43584)">
<mask id="mask4_621_43584" style="mask-type:luminance" maskUnits="userSpaceOnUse" x="6" y="2" width="112" height="97">
<path d="M6.66666 2.88013H117.333V98.5624H6.66666V2.88013Z" fill="white"/>
</mask>
<g mask="url(#mask4_621_43584)">
<mask id="mask5_621_43584" style="mask-type:luminance" maskUnits="userSpaceOnUse" x="5" y="2" width="114" height="98">
<path d="M118.151 95.8802L7.97396 99.0625L5.26562 5.35938L115.443 2.17188L118.151 95.8802Z" fill="white"/>
</mask>
<g mask="url(#mask5_621_43584)">
<mask id="mask6_621_43584" style="mask-type:luminance" maskUnits="userSpaceOnUse" x="7" y="3" width="110" height="96">
<path d="M60.2031 3.77074C39.0729 4.38012 20.5469 18.0364 13.7031 38.0312L8.8698 52.1457C5.18751 62.9114 7.01563 74.7968 13.7656 83.9582C20.5156 93.1197 31.3281 98.3905 42.6979 98.0572L83.125 96.8905C94.4948 96.5624 104.984 90.677 111.193 81.1405C117.401 71.6093 118.542 59.6353 114.24 49.0989L108.604 35.2864C100.615 15.7187 81.3281 3.16137 60.2031 3.77074Z" fill="white"/>
</mask>
<g mask="url(#mask6_621_43584)">
<path d="M133.156 95.4426L-7.40104 99.5103L-10.1094 5.802L130.448 1.7395L133.156 95.4426Z" fill="#B5745A"/>
</g>
</g>
</g>
</g>
</g>
</g>
</g>
<mask id="mask7_621_43584" style="mask-type:luminance" maskUnits="userSpaceOnUse" x="0" y="4" width="32" height="31">
<path d="M0 4H32V34.6667H0V4Z" fill="white"/>
</mask>
<g mask="url(#mask7_621_43584)">
<mask id="mask8_621_43584" style="mask-type:luminance" maskUnits="userSpaceOnUse" x="0" y="4" width="32" height="31">
<path d="M0.34375 5.51034L30.8125 4.63013L31.6406 33.302L1.17708 34.1822L0.34375 5.51034Z" fill="white"/>
</mask>
<g mask="url(#mask8_621_43584)">
<mask id="mask9_621_43584" style="mask-type:luminance" maskUnits="userSpaceOnUse" x="0" y="5" width="32" height="29">
<path d="M15.5365 5.0729C7.14583 5.31248 0.531253 11.9323 0.760418 19.8489C0.989586 27.7656 7.97396 33.9896 16.3646 33.7448C24.75 33.5052 31.3646 26.8854 31.1354 18.9687C30.9063 11.0521 23.9219 4.82811 15.5365 5.0729Z" fill="white"/>
</mask>
<g mask="url(#mask9_621_43584)">
<mask id="mask10_621_43584" style="mask-type:luminance" maskUnits="userSpaceOnUse" x="0" y="4" width="32" height="31">
<path d="M32 4H0V34.6667H32V4Z" fill="white"/>
</mask>
<g mask="url(#mask10_621_43584)">
<mask id="mask11_621_43584" style="mask-type:luminance" maskUnits="userSpaceOnUse" x="0" y="4" width="32" height="31">
<path d="M0.317688 4.802H31.6823V34.2395H0.317688V4.802Z" fill="white"/>
</mask>
<g mask="url(#mask11_621_43584)">
<mask id="mask12_621_43584" style="mask-type:luminance" maskUnits="userSpaceOnUse" x="0" y="4" width="32" height="31">
<path d="M0.34375 5.51033L30.8125 4.63013L31.6406 33.302L1.17708 34.1822L0.34375 5.51033Z" fill="white"/>
</mask>
<g mask="url(#mask12_621_43584)">
<mask id="mask13_621_43584" style="mask-type:luminance" maskUnits="userSpaceOnUse" x="0" y="5" width="32" height="29">
<path d="M15.5365 5.0729C7.14584 5.31248 0.531253 11.9323 0.760418 19.8489C0.989586 27.7656 7.97396 33.9896 16.3646 33.7448C24.75 33.5052 31.3646 26.8854 31.1354 18.9687C30.9063 11.0521 23.9219 4.82811 15.5365 5.0729Z" fill="white"/>
</mask>
<g mask="url(#mask13_621_43584)">
<path d="M0.34375 5.5105L30.6979 4.6355L31.5313 33.3074L1.17708 34.1824L0.34375 5.5105Z" fill="#AD6747"/>
</g>
</g>
</g>
</g>
</g>
</g>
</g>
<mask id="mask14_621_43584" style="mask-type:luminance" maskUnits="userSpaceOnUse" x="86" y="0" width="33" height="30">
<path d="M86.6667 0H118.667V29.3333H86.6667V0Z" fill="white"/>
</mask>
<g mask="url(#mask14_621_43584)">
<mask id="mask15_621_43584" style="mask-type:luminance" maskUnits="userSpaceOnUse" x="87" y="-1" width="32" height="31">
<path d="M87.5104 0.791585L117.974 -0.088623L118.802 28.5833L88.3385 29.4635L87.5104 0.791585Z" fill="white"/>
</mask>
<g mask="url(#mask15_621_43584)">
<mask id="mask16_621_43584" style="mask-type:luminance" maskUnits="userSpaceOnUse" x="87" y="0" width="32" height="30">
<path d="M102.698 0.354148C94.3073 0.593731 87.6927 7.20832 87.9219 15.1302C88.151 23.0469 95.1406 29.2708 103.526 29.026C111.917 28.7812 118.531 22.1666 118.302 14.25C118.073 6.33332 111.089 0.109356 102.698 0.354148Z" fill="white"/>
</mask>
<g mask="url(#mask16_621_43584)">
<mask id="mask17_621_43584" style="mask-type:luminance" maskUnits="userSpaceOnUse" x="86" y="0" width="33" height="30">
<path d="M118.667 0H86.6667V29.3333H118.667V0Z" fill="white"/>
</mask>
<g mask="url(#mask17_621_43584)">
<mask id="mask18_621_43584" style="mask-type:luminance" maskUnits="userSpaceOnUse" x="87" y="0" width="32" height="30">
<path d="M87.6823 0H118.667V29.3333H87.6823V0Z" fill="white"/>
</mask>
<g mask="url(#mask18_621_43584)">
<mask id="mask19_621_43584" style="mask-type:luminance" maskUnits="userSpaceOnUse" x="87" y="-1" width="32" height="31">
<path d="M87.5104 0.791585L117.974 -0.088623L118.802 28.5833L88.3385 29.4635L87.5104 0.791585Z" fill="white"/>
</mask>
<g mask="url(#mask19_621_43584)">
<mask id="mask20_621_43584" style="mask-type:luminance" maskUnits="userSpaceOnUse" x="87" y="0" width="32" height="30">
<path d="M102.698 0.354148C94.3073 0.593731 87.6927 7.20832 87.9219 15.1302C88.151 23.0469 95.1406 29.2708 103.526 29.026C111.917 28.7812 118.531 22.1666 118.302 14.25C118.073 6.33332 111.089 0.109357 102.698 0.354148Z" fill="white"/>
</mask>
<g mask="url(#mask20_621_43584)">
<path d="M87.5104 0.791585L117.865 -0.088623L118.693 28.5885L88.3385 29.4635L87.5104 0.791585Z" fill="#AD6747"/>
</g>
</g>
</g>
</g>
</g>
</g>
</g>
<mask id="mask21_621_43584" style="mask-type:luminance" maskUnits="userSpaceOnUse" x="6" y="10" width="112" height="89">
<path d="M6.66666 10.6667H117.333V98.6668H6.66666V10.6667Z" fill="white"/>
</mask>
<g mask="url(#mask21_621_43584)">
<mask id="mask22_621_43584" style="mask-type:luminance" maskUnits="userSpaceOnUse" x="5" y="9" width="114" height="90">
<path d="M118.068 95.2917L7.86979 98.4792L5.39062 12.7344L115.589 9.54688L118.068 95.2917Z" fill="white"/>
</mask>
<g mask="url(#mask22_621_43584)">
<mask id="mask23_621_43584" style="mask-type:luminance" maskUnits="userSpaceOnUse" x="6" y="11" width="112" height="87">
<path d="M60.4166 11.1407C39.1719 11.7553 20.401 25.1511 12.9166 45.0417L8.96872 55.5365C5.31768 65.2397 6.74476 76.1251 12.7656 84.5626C18.7864 93.0001 28.6198 97.8803 38.9791 97.5782L86.8125 96.198C97.1719 95.8959 106.703 90.4532 112.229 81.6824C117.755 72.9115 118.547 61.9636 114.339 52.4896L109.792 42.2449C101.172 22.8126 81.6614 10.5261 60.4166 11.1407Z" fill="white"/>
</mask>
<g mask="url(#mask23_621_43584)">
<mask id="mask24_621_43584" style="mask-type:luminance" maskUnits="userSpaceOnUse" x="6" y="10" width="112" height="89">
<path d="M117.333 10.6667H6.66666V98.6667H117.333V10.6667Z" fill="white"/>
</mask>
<g mask="url(#mask24_621_43584)">
<mask id="mask25_621_43584" style="mask-type:luminance" maskUnits="userSpaceOnUse" x="6" y="10" width="112" height="88">
<path d="M6.66666 10.6667H117.333V97.922H6.66666V10.6667Z" fill="white"/>
</mask>
<g mask="url(#mask25_621_43584)">
<mask id="mask26_621_43584" style="mask-type:luminance" maskUnits="userSpaceOnUse" x="5" y="9" width="114" height="90">
<path d="M118.068 95.2917L7.86979 98.4792L5.39062 12.7344L115.589 9.54688L118.068 95.2917Z" fill="white"/>
</mask>
<g mask="url(#mask26_621_43584)">
<mask id="mask27_621_43584" style="mask-type:luminance" maskUnits="userSpaceOnUse" x="6" y="11" width="112" height="87">
<path d="M60.4166 11.1407C39.1719 11.7553 20.401 25.1511 12.9166 45.0417L8.96872 55.5365C5.31768 65.2397 6.74477 76.1251 12.7656 84.5626C18.7864 93.0001 28.6198 97.8803 38.9791 97.5782L86.8125 96.198C97.1719 95.8959 106.703 90.4532 112.229 81.6824C117.755 72.9115 118.547 61.9636 114.339 52.4896L109.792 42.2449C101.172 22.8126 81.6614 10.5261 60.4166 11.1407Z" fill="white"/>
</mask>
<g mask="url(#mask27_621_43584)">
<path d="M133.141 94.8594L-7.20315 98.9167L-9.68231 13.1667L130.661 9.10938L133.141 94.8594Z" fill="#AD6747"/>
</g>
</g>
</g>
</g>
</g>
</g>
</g>
<mask id="mask28_621_43584" style="mask-type:luminance" maskUnits="userSpaceOnUse" x="20" y="58" width="14" height="12">
<path d="M20 58.6667H33.3333V69.3334H20V58.6667Z" fill="white"/>
</mask>
<g mask="url(#mask28_621_43584)">
<mask id="mask29_621_43584" style="mask-type:luminance" maskUnits="userSpaceOnUse" x="20" y="58" width="14" height="11">
<path d="M32.8021 58.8281L33.0677 68.1094L20.599 68.4688L20.3281 59.1927L32.8021 58.8281Z" fill="white"/>
</mask>
<g mask="url(#mask29_621_43584)">
<mask id="mask30_621_43584" style="mask-type:luminance" maskUnits="userSpaceOnUse" x="20" y="59" width="13" height="10">
<path d="M32.9323 63.4687C32.8594 60.9062 30.0156 58.9114 26.5781 59.0104C23.1406 59.1093 20.4167 61.2656 20.4896 63.8281C20.5677 66.3906 23.4115 68.3906 26.849 68.2916C30.2813 68.1927 33.0104 66.0312 32.9323 63.4687Z" fill="white"/>
</mask>
<g mask="url(#mask30_621_43584)">
<mask id="mask31_621_43584" style="mask-type:luminance" maskUnits="userSpaceOnUse" x="20" y="58" width="14" height="12">
<path d="M33.3333 58.6665H20V69.3332H33.3333V58.6665Z" fill="white"/>
</mask>
<g mask="url(#mask31_621_43584)">
<mask id="mask32_621_43584" style="mask-type:luminance" maskUnits="userSpaceOnUse" x="20" y="58" width="14" height="11">
<path d="M20.1614 58.8801H33.2812V68.4791H20.1614V58.8801Z" fill="white"/>
</mask>
<g mask="url(#mask32_621_43584)">
<mask id="mask33_621_43584" style="mask-type:luminance" maskUnits="userSpaceOnUse" x="20" y="58" width="14" height="11">
<path d="M32.8021 58.8281L33.0677 68.1094L20.599 68.4687L20.3281 59.1927L32.8021 58.8281Z" fill="white"/>
</mask>
<g mask="url(#mask33_621_43584)">
<mask id="mask34_621_43584" style="mask-type:luminance" maskUnits="userSpaceOnUse" x="20" y="59" width="13" height="10">
<path d="M32.9323 63.4687C32.8594 60.9062 30.0156 58.9114 26.5781 59.0104C23.1406 59.1093 20.4167 61.2656 20.4896 63.8281C20.5677 66.3906 23.4115 68.3906 26.849 68.2916C30.2813 68.1927 33.0104 66.0312 32.9323 63.4687Z" fill="white"/>
</mask>
<g mask="url(#mask34_621_43584)">
<path d="M32.8021 58.8281L33.0677 68.1094L20.6354 68.4687L20.3646 59.1875L32.8021 58.8281Z" fill="#F6827C"/>
</g>
</g>
</g>
</g>
</g>
</g>
</g>
<mask id="mask35_621_43584" style="mask-type:luminance" maskUnits="userSpaceOnUse" x="25" y="48" width="14" height="18">
<path d="M25.3333 48H38.6666V65.3333H25.3333V48Z" fill="white"/>
</mask>
<g mask="url(#mask35_621_43584)">
<mask id="mask36_621_43584" style="mask-type:luminance" maskUnits="userSpaceOnUse" x="26" y="48" width="13" height="17">
<path d="M26.0364 48.8906L37.9635 48.5469L38.4271 64.5729L26.5 64.9167L26.0364 48.8906Z" fill="white"/>
</mask>
<g mask="url(#mask36_621_43584)">
<mask id="mask37_621_43584" style="mask-type:luminance" maskUnits="userSpaceOnUse" x="26" y="48" width="13" height="17">
<path d="M32 48.7188C28.7031 48.8126 26.1354 52.4688 26.2656 56.8855C26.3958 61.3022 29.1666 64.8022 32.4583 64.7084C35.7552 64.6147 38.3229 60.9584 38.1927 56.5418C38.0677 52.1251 35.2916 48.6199 32 48.7188Z" fill="white"/>
</mask>
<g mask="url(#mask37_621_43584)">
<mask id="mask38_621_43584" style="mask-type:luminance" maskUnits="userSpaceOnUse" x="25" y="48" width="14" height="18">
<path d="M38.6666 48H25.3333V65.3333H38.6666V48Z" fill="white"/>
</mask>
<g mask="url(#mask38_621_43584)">
<mask id="mask39_621_43584" style="mask-type:luminance" maskUnits="userSpaceOnUse" x="25" y="48" width="14" height="17">
<path d="M25.9219 48.3176H38.401V64.9583H25.9219V48.3176Z" fill="white"/>
</mask>
<g mask="url(#mask39_621_43584)">
<mask id="mask40_621_43584" style="mask-type:luminance" maskUnits="userSpaceOnUse" x="26" y="48" width="13" height="17">
<path d="M26.0364 48.8906L37.9635 48.5469L38.4271 64.5729L26.5 64.9167L26.0364 48.8906Z" fill="white"/>
</mask>
<g mask="url(#mask40_621_43584)">
<mask id="mask41_621_43584" style="mask-type:luminance" maskUnits="userSpaceOnUse" x="26" y="48" width="13" height="17">
<path d="M32 48.7188C28.7031 48.8126 26.1354 52.4688 26.2656 56.8855C26.3958 61.3022 29.1666 64.8022 32.4583 64.7084C35.7552 64.6147 38.3229 60.9584 38.1927 56.5418C38.0677 52.1251 35.2916 48.6199 32 48.7188Z" fill="white"/>
</mask>
<g mask="url(#mask41_621_43584)">
<path d="M26.0364 48.8906L37.9635 48.5469L38.4219 64.526L26.4948 64.8698L26.0364 48.8906Z" fill="#402300"/>
</g>
</g>
</g>
</g>
</g>
</g>
</g>
<mask id="mask42_621_43584" style="mask-type:luminance" maskUnits="userSpaceOnUse" x="89" y="56" width="15" height="11">
<path d="M89.3333 56H104V66.6667H89.3333V56Z" fill="white"/>
</mask>
<g mask="url(#mask42_621_43584)">
<mask id="mask43_621_43584" style="mask-type:luminance" maskUnits="userSpaceOnUse" x="90" y="56" width="14" height="11">
<path d="M102.922 56.802L103.188 66.0833L90.7188 66.4426L90.4531 57.1614L102.922 56.802Z" fill="white"/>
</mask>
<g mask="url(#mask43_621_43584)">
<mask id="mask44_621_43584" style="mask-type:luminance" maskUnits="userSpaceOnUse" x="90" y="56" width="14" height="11">
<path d="M103.057 61.4426C102.979 58.8801 100.135 56.8801 96.6979 56.9791C93.2656 57.0833 90.5365 59.2395 90.6146 61.802C90.6875 64.3645 93.5313 66.3593 96.9687 66.2604C100.406 66.1614 103.13 64.0051 103.057 61.4426Z" fill="white"/>
</mask>
<g mask="url(#mask44_621_43584)">
<mask id="mask45_621_43584" style="mask-type:luminance" maskUnits="userSpaceOnUse" x="89" y="56" width="15" height="11">
<path d="M104 56H89.3333V66.6667H104V56Z" fill="white"/>
</mask>
<g mask="url(#mask45_621_43584)">
<mask id="mask46_621_43584" style="mask-type:luminance" maskUnits="userSpaceOnUse" x="90" y="56" width="14" height="11">
<path d="M90.2396 56.6406H103.359V66.5625H90.2396V56.6406Z" fill="white"/>
</mask>
<g mask="url(#mask46_621_43584)">
<mask id="mask47_621_43584" style="mask-type:luminance" maskUnits="userSpaceOnUse" x="90" y="56" width="14" height="11">
<path d="M102.922 56.802L103.188 66.0833L90.7187 66.4426L90.4531 57.1614L102.922 56.802Z" fill="white"/>
</mask>
<g mask="url(#mask47_621_43584)">
<mask id="mask48_621_43584" style="mask-type:luminance" maskUnits="userSpaceOnUse" x="90" y="56" width="14" height="11">
<path d="M103.057 61.4426C102.979 58.8801 100.135 56.8801 96.6979 56.9791C93.2656 57.0833 90.5365 59.2395 90.6146 61.802C90.6875 64.3645 93.5312 66.3593 96.9687 66.2604C100.406 66.1614 103.13 64.0051 103.057 61.4426Z" fill="white"/>
</mask>
<g mask="url(#mask48_621_43584)">
<path d="M102.922 56.802L103.187 66.0833L90.7552 66.4426L90.4896 57.1614L102.922 56.802Z" fill="#F6827C"/>
</g>
</g>
</g>
</g>
</g>
</g>
</g>
<mask id="mask49_621_43584" style="mask-type:luminance" maskUnits="userSpaceOnUse" x="84" y="46" width="14" height="18">
<path d="M84 46.6667H97.3333V64.0001H84V46.6667Z" fill="white"/>
</mask>
<g mask="url(#mask49_621_43584)">
<mask id="mask50_621_43584" style="mask-type:luminance" maskUnits="userSpaceOnUse" x="84" y="46" width="14" height="18">
<path d="M84.7448 47.1929L96.6719 46.8491L97.1354 62.8752L85.2083 63.2189L84.7448 47.1929Z" fill="white"/>
</mask>
<g mask="url(#mask50_621_43584)">
<mask id="mask51_621_43584" style="mask-type:luminance" maskUnits="userSpaceOnUse" x="84" y="47" width="13" height="17">
<path d="M90.7083 47.0211C87.4166 47.1148 84.8489 50.7711 84.9739 55.1878C85.1041 59.6044 87.875 63.1044 91.1718 63.0107C94.4635 62.9169 97.0312 59.2607 96.901 54.844C96.776 50.4273 94 46.9221 90.7083 47.0211Z" fill="white"/>
</mask>
<g mask="url(#mask51_621_43584)">
<mask id="mask52_621_43584" style="mask-type:luminance" maskUnits="userSpaceOnUse" x="84" y="46" width="14" height="19">
<path d="M97.3333 46.667H84V64.0003H97.3333V46.667Z" fill="white"/>
</mask>
<g mask="url(#mask52_621_43584)">
<mask id="mask53_621_43584" style="mask-type:luminance" maskUnits="userSpaceOnUse" x="84" y="46" width="14" height="18">
<path d="M84.8021 46.719H97.2812V63.3596H84.8021V46.719Z" fill="white"/>
</mask>
<g mask="url(#mask53_621_43584)">
<mask id="mask54_621_43584" style="mask-type:luminance" maskUnits="userSpaceOnUse" x="84" y="46" width="14" height="18">
<path d="M84.7448 47.1929L96.6719 46.8491L97.1354 62.8752L85.2083 63.2189L84.7448 47.1929Z" fill="white"/>
</mask>
<g mask="url(#mask54_621_43584)">
<mask id="mask55_621_43584" style="mask-type:luminance" maskUnits="userSpaceOnUse" x="84" y="47" width="13" height="17">
<path d="M90.7083 47.0211C87.4166 47.1148 84.8489 50.7711 84.9739 55.1878C85.1041 59.6044 87.875 63.1044 91.1718 63.0107C94.4635 62.9169 97.0312 59.2607 96.901 54.844C96.776 50.4273 94 46.9221 90.7083 47.0211Z" fill="white"/>
</mask>
<g mask="url(#mask55_621_43584)">
<path d="M84.7448 47.1929L96.6719 46.8491L97.1354 62.8283L85.2083 63.172L84.7448 47.1929Z" fill="#402300"/>
</g>
</g>
</g>
</g>
</g>
</g>
</g>
<mask id="mask56_621_43584" style="mask-type:luminance" maskUnits="userSpaceOnUse" x="42" y="41" width="40" height="49">
<path d="M42.6667 41.3333H81.3333V89.3333H42.6667V41.3333Z" fill="white"/>
</mask>
<g mask="url(#mask56_621_43584)">
<mask id="mask57_621_43584" style="mask-type:luminance" maskUnits="userSpaceOnUse" x="42" y="42" width="40" height="48">
<path d="M42.0521 43.2083L80.3489 42.0989L81.6927 88.4739L43.3958 89.5833L42.0521 43.2083Z" fill="white"/>
</mask>
<g mask="url(#mask57_621_43584)">
<mask id="mask58_621_43584" style="mask-type:luminance" maskUnits="userSpaceOnUse" x="42" y="42" width="40" height="47">
<path d="M61.2031 42.6562C50.625 42.9583 42.3542 53.5625 42.724 66.3333C43.0938 79.1094 51.9636 89.2135 62.5417 88.9062C73.1146 88.6042 81.3906 78 81.0208 65.2292C80.6511 52.4531 71.7761 42.3489 61.2031 42.6562Z" fill="white"/>
</mask>
<g mask="url(#mask58_621_43584)">
<mask id="mask59_621_43584" style="mask-type:luminance" maskUnits="userSpaceOnUse" x="42" y="41" width="40" height="49">
<path d="M81.3333 41.3333H42.6667V89.3333H81.3333V41.3333Z" fill="white"/>
</mask>
<g mask="url(#mask59_621_43584)">
<mask id="mask60_621_43584" style="mask-type:luminance" maskUnits="userSpaceOnUse" x="42" y="42" width="40" height="48">
<path d="M42.6667 42.2395H81.3333V89.2812H42.6667V42.2395Z" fill="white"/>
</mask>
<g mask="url(#mask60_621_43584)">
<mask id="mask61_621_43584" style="mask-type:luminance" maskUnits="userSpaceOnUse" x="42" y="42" width="40" height="48">
<path d="M42.0521 43.2083L80.3489 42.0989L81.6927 88.4739L43.3958 89.5833L42.0521 43.2083Z" fill="white"/>
</mask>
<g mask="url(#mask61_621_43584)">
<mask id="mask62_621_43584" style="mask-type:luminance" maskUnits="userSpaceOnUse" x="42" y="42" width="40" height="47">
<path d="M61.2031 42.6562C50.625 42.9583 42.3542 53.5625 42.724 66.3333C43.0938 79.1094 51.9636 89.2135 62.5417 88.9062C73.1146 88.6042 81.3906 78 81.0208 65.2292C80.6511 52.4531 71.7761 42.3489 61.2031 42.6562Z" fill="white"/>
</mask>
<g mask="url(#mask62_621_43584)">
<path d="M42.0521 43.2083L80.3489 42.0989L81.6875 88.328L43.3906 89.4322L42.0521 43.2083Z" fill="#E2B282"/>
</g>
</g>
</g>
</g>
</g>
</g>
</g>
<mask id="mask63_621_43584" style="mask-type:luminance" maskUnits="userSpaceOnUse" x="53" y="50" width="17" height="16">
<path d="M53.3333 50.6667H69.3333V65.3334H53.3333V50.6667Z" fill="white"/>
</mask>
<g mask="url(#mask63_621_43584)">
<mask id="mask64_621_43584" style="mask-type:luminance" maskUnits="userSpaceOnUse" x="54" y="51" width="15" height="14">
<path d="M54.5833 51.5679L68.6041 51.1616L68.9739 63.8856L54.9531 64.2918L54.5833 51.5679Z" fill="white"/>
</mask>
<g mask="url(#mask64_621_43584)">
<mask id="mask65_621_43584" style="mask-type:luminance" maskUnits="userSpaceOnUse" x="54" y="51" width="15" height="14">
<path d="M63.4115 63.1303L68.4063 53.7709C68.6979 53.224 68.6771 52.5626 68.349 52.0365C68.026 51.5105 67.4427 51.1928 66.8229 51.2136L56.3438 51.5157C55.724 51.5313 55.1615 51.8803 54.8646 52.4272C54.5677 52.9688 54.5885 53.6355 54.9115 54.1615L60.4375 63.2188C60.7552 63.7449 61.3333 64.0574 61.9479 64.0365C62.5625 64.0209 63.125 63.6719 63.4115 63.1303Z" fill="white"/>
</mask>
<g mask="url(#mask65_621_43584)">
<mask id="mask66_621_43584" style="mask-type:luminance" maskUnits="userSpaceOnUse" x="53" y="50" width="17" height="16">
<path d="M69.3333 50.6667H53.3333V65.3334H69.3333V50.6667Z" fill="white"/>
</mask>
<g mask="url(#mask66_621_43584)">
<mask id="mask67_621_43584" style="mask-type:luminance" maskUnits="userSpaceOnUse" x="54" y="50" width="15" height="15">
<path d="M54.401 50.8804H68.8021V64.3179H54.401V50.8804Z" fill="white"/>
</mask>
<g mask="url(#mask67_621_43584)">
<mask id="mask68_621_43584" style="mask-type:luminance" maskUnits="userSpaceOnUse" x="54" y="51" width="15" height="14">
<path d="M54.5833 51.5679L68.6041 51.1616L68.9739 63.8856L54.9531 64.2918L54.5833 51.5679Z" fill="white"/>
</mask>
<g mask="url(#mask68_621_43584)">
<mask id="mask69_621_43584" style="mask-type:luminance" maskUnits="userSpaceOnUse" x="54" y="51" width="15" height="14">
<path d="M63.4115 63.1303L68.4063 53.7709C68.6979 53.224 68.6771 52.5626 68.349 52.0365C68.026 51.5105 67.4427 51.1928 66.8229 51.2136L56.3438 51.5157C55.724 51.5313 55.1615 51.8803 54.8646 52.4272C54.5677 52.9688 54.5885 53.6355 54.9115 54.1615L60.4375 63.2188C60.7552 63.7449 61.3333 64.0574 61.9479 64.0365C62.5625 64.0209 63.125 63.6719 63.4115 63.1303Z" fill="white"/>
</mask>
<g mask="url(#mask69_621_43584)">
<path d="M53.3489 51.6042L69.8437 51.125L70.2604 65.5365L53.7656 66.0156L53.3489 51.6042Z" fill="#402300"/>
</g>
</g>
</g>
</g>
</g>
</g>
</g>
<mask id="mask70_621_43584" style="mask-type:luminance" maskUnits="userSpaceOnUse" x="58" y="57" width="8" height="13">
<path d="M58.6667 57.3333H65.3333V69.3333H58.6667V57.3333Z" fill="white"/>
</mask>
<g mask="url(#mask70_621_43584)">
<mask id="mask71_621_43584" style="mask-type:luminance" maskUnits="userSpaceOnUse" x="59" y="57" width="6" height="12">
<path d="M59.3802 58.0676L64.1719 57.927L64.4739 68.4322L59.6823 68.5728L59.3802 58.0676Z" fill="white"/>
</mask>
<g mask="url(#mask71_621_43584)">
<mask id="mask72_621_43584" style="mask-type:luminance" maskUnits="userSpaceOnUse" x="58" y="57" width="8" height="13">
<path d="M65.3333 57.3333H58.6667V69.3333H65.3333V57.3333Z" fill="white"/>
</mask>
<g mask="url(#mask72_621_43584)">
<mask id="mask73_621_43584" style="mask-type:luminance" maskUnits="userSpaceOnUse" x="59" y="57" width="6" height="12">
<path d="M59.1979 57.9219H64.6406V68.8021H59.1979V57.9219Z" fill="white"/>
</mask>
<g mask="url(#mask73_621_43584)">
<mask id="mask74_621_43584" style="mask-type:luminance" maskUnits="userSpaceOnUse" x="59" y="57" width="6" height="12">
<path d="M59.3802 58.0676L64.1719 57.927L64.4739 68.4322L59.6823 68.5728L59.3802 58.0676Z" fill="white"/>
</mask>
<g mask="url(#mask74_621_43584)">
<path d="M59.3802 58.0676L64.1719 57.927L64.4739 68.4322L59.6823 68.5676L59.3802 58.0676Z" fill="#402300"/>
</g>
</g>
</g>
</g>
</g>
<mask id="mask75_621_43584" style="mask-type:luminance" maskUnits="userSpaceOnUse" x="6" y="10" width="18" height="18">
<path d="M6.66666 10.6667H24V28.0001H6.66666V10.6667Z" fill="white"/>
</mask>
<g mask="url(#mask75_621_43584)">
<mask id="mask76_621_43584" style="mask-type:luminance" maskUnits="userSpaceOnUse" x="6" y="11" width="18" height="17">
<path d="M6.54688 11.771L23.3385 11.2866L23.7969 27.0887L7.00521 27.5783L6.54688 11.771Z" fill="white"/>
</mask>
<g mask="url(#mask76_621_43584)">
<mask id="mask77_621_43584" style="mask-type:luminance" maskUnits="userSpaceOnUse" x="6" y="11" width="18" height="17">
<path d="M14.9218 11.5315C10.2968 11.6617 6.65101 15.3075 6.77601 19.6721C6.90101 24.0367 10.7552 27.469 15.375 27.3335C20 27.1981 23.6458 23.5523 23.5208 19.1877C23.3958 14.8231 19.5416 11.396 14.9218 11.5315Z" fill="white"/>
</mask>
<g mask="url(#mask77_621_43584)">
<mask id="mask78_621_43584" style="mask-type:luminance" maskUnits="userSpaceOnUse" x="6" y="10" width="18" height="19">
<path d="M24 10.667H6.66666V28.0003H24V10.667Z" fill="white"/>
</mask>
<g mask="url(#mask78_621_43584)">
<mask id="mask79_621_43584" style="mask-type:luminance" maskUnits="userSpaceOnUse" x="6" y="11" width="18" height="17">
<path d="M6.66666 11.1982H23.6823V27.5212H6.66666V11.1982Z" fill="white"/>
</mask>
<g mask="url(#mask79_621_43584)">
<mask id="mask80_621_43584" style="mask-type:luminance" maskUnits="userSpaceOnUse" x="6" y="11" width="18" height="17">
<path d="M6.54688 11.7712L23.3385 11.2869L23.7969 27.089L7.00521 27.5785L6.54688 11.7712Z" fill="white"/>
</mask>
<g mask="url(#mask80_621_43584)">
<mask id="mask81_621_43584" style="mask-type:luminance" maskUnits="userSpaceOnUse" x="6" y="11" width="18" height="17">
<path d="M14.9218 11.5317C10.2968 11.6619 6.65101 15.3078 6.77601 19.6723C6.90101 24.0369 10.7552 27.4692 15.375 27.3338C20 27.1984 23.6458 23.5525 23.5208 19.188C23.3958 14.8234 19.5416 11.3963 14.9218 11.5317Z" fill="white"/>
</mask>
<g mask="url(#mask81_621_43584)">
<path d="M6.54688 11.7712L23.276 11.2869L23.7344 27.0942L7.00521 27.5785L6.54688 11.7712Z" fill="#643E2D"/>
</g>
</g>
</g>
</g>
</g>
</g>
</g>
<mask id="mask82_621_43584" style="mask-type:luminance" maskUnits="userSpaceOnUse" x="94" y="6" width="18" height="17">
<path d="M94.6667 6.66675H112V22.6667H94.6667V6.66675Z" fill="white"/>
</mask>
<g mask="url(#mask82_621_43584)">
<mask id="mask83_621_43584" style="mask-type:luminance" maskUnits="userSpaceOnUse" x="94" y="6" width="18" height="17">
<path d="M94.5104 7.02612L111.302 6.54175L111.76 22.349L94.9687 22.8334L94.5104 7.02612Z" fill="white"/>
</mask>
<g mask="url(#mask83_621_43584)">
<mask id="mask84_621_43584" style="mask-type:luminance" maskUnits="userSpaceOnUse" x="94" y="6" width="18" height="17">
<path d="M102.885 6.78659C98.2604 6.922 94.6146 10.5678 94.7396 14.9324C94.8646 19.297 98.7187 22.7241 103.339 22.5939C107.964 22.4585 111.609 18.8126 111.484 14.448C111.359 10.0835 107.505 6.65117 102.885 6.78659Z" fill="white"/>
</mask>
<g mask="url(#mask84_621_43584)">
<mask id="mask85_621_43584" style="mask-type:luminance" maskUnits="userSpaceOnUse" x="94" y="6" width="18" height="17">
<path d="M112 6.66675H94.6667V22.6667H112V6.66675Z" fill="white"/>
</mask>
<g mask="url(#mask85_621_43584)">
<mask id="mask86_621_43584" style="mask-type:luminance" maskUnits="userSpaceOnUse" x="94" y="6" width="18" height="17">
<path d="M94.6667 6.66675H111.682V22.6667H94.6667V6.66675Z" fill="white"/>
</mask>
<g mask="url(#mask86_621_43584)">
<mask id="mask87_621_43584" style="mask-type:luminance" maskUnits="userSpaceOnUse" x="94" y="6" width="18" height="17">
<path d="M94.5104 7.02612L111.302 6.54175L111.76 22.349L94.9687 22.8334L94.5104 7.02612Z" fill="white"/>
</mask>
<g mask="url(#mask87_621_43584)">
<mask id="mask88_621_43584" style="mask-type:luminance" maskUnits="userSpaceOnUse" x="94" y="6" width="18" height="17">
<path d="M102.885 6.78659C98.2604 6.922 94.6146 10.5678 94.7396 14.9324C94.8646 19.297 98.7187 22.7241 103.339 22.5939C107.964 22.4585 111.609 18.8126 111.484 14.448C111.359 10.0835 107.505 6.65117 102.885 6.78659Z" fill="white"/>
</mask>
<g mask="url(#mask88_621_43584)">
<path d="M94.5104 7.02604L111.245 6.54688L111.698 22.349L94.9687 22.8333L94.5104 7.02604Z" fill="#643E2D"/>
</g>
</g>
</g>
</g>
</g>
</g>
</g>
</svg>
