<svg width="1199" height="864" viewBox="0 0 1199 864" fill="none" xmlns="http://www.w3.org/2000/svg">
<mask id="mask0_526_43433" style="mask-type:luminance" maskUnits="userSpaceOnUse" x="62" y="136" width="1043" height="549">
<path d="M62.8291 136.512H1104.47V684.387H62.8291V136.512Z" fill="white"/>
</mask>
<g mask="url(#mask0_526_43433)">
<path d="M63.4229 136.512H1103.57V684.123H63.4229V136.512Z" fill="white"/>
</g>
<mask id="mask1_526_43433" style="mask-type:luminance" maskUnits="userSpaceOnUse" x="62" y="136" width="1043" height="548">
<path d="M62.8291 136.512H1104.47V684H62.8291V136.512Z" fill="white"/>
</mask>
<g mask="url(#mask1_526_43433)">
<path d="M1086.37 136.512H63.4229V683.848H1103.29V136.512H1086.37ZM1086.37 667.148H80.8975V153.762H1086.37V667.148Z" fill="black"/>
</g>
<path d="M1069 154H81V667H98.4697V171.228H1069V154Z" fill="#74A7FF"/>
<mask id="mask2_526_43433" style="mask-type:luminance" maskUnits="userSpaceOnUse" x="96" y="152" width="992" height="517">
<path d="M1087.98 152H96V669H1087.98V152Z" fill="white"/>
</mask>
<g mask="url(#mask2_526_43433)">
<path d="M98.3618 667.15H1086.37V153.984H1068.9V649.917H98.3618V667.15Z" fill="black" fill-opacity="0.24"/>
</g>
<path d="M335.237 280.25L320.612 366.875L285.112 367.625L277.487 322.75L269.862 364.375L234.362 365.625L219.612 280.25L250.612 277.5L256.862 329.375L265.237 277.5H289.612L299.362 330L304.362 277.5L335.237 280.25ZM404.052 316.5C404.052 320.125 403.802 323.75 403.302 327.375C396.177 327.833 389.094 328.583 382.052 329.625C375.011 330.625 367.969 331.625 360.927 332.625C362.011 335.625 363.698 338.021 365.99 339.812C368.323 341.604 371.094 342.5 374.302 342.5C375.969 342.5 377.782 342.188 379.74 341.562C381.74 340.938 383.719 340.167 385.677 339.25C387.636 338.292 389.511 337.271 391.302 336.188C393.094 335.104 394.636 334.125 395.927 333.25L392.927 361.625C391.302 362.875 389.532 363.938 387.615 364.812C385.74 365.688 383.782 366.396 381.74 366.938C379.698 367.479 377.636 367.875 375.552 368.125C373.469 368.375 371.427 368.5 369.427 368.5C365.302 368.5 361.532 367.938 358.115 366.812C354.698 365.688 351.594 364.125 348.802 362.125C346.052 360.083 343.636 357.688 341.552 354.938C339.469 352.188 337.74 349.188 336.365 345.938C334.99 342.688 333.948 339.25 333.24 335.625C332.532 332 332.177 328.333 332.177 324.625C332.177 320.75 332.532 316.875 333.24 313C333.948 309.125 335.011 305.396 336.427 301.812C337.886 298.229 339.698 294.917 341.865 291.875C344.073 288.792 346.636 286.104 349.552 283.812C352.469 281.521 355.761 279.729 359.427 278.438C363.136 277.146 367.219 276.5 371.677 276.5C375.386 276.5 378.761 277.021 381.802 278.062C384.886 279.062 387.615 280.479 389.99 282.312C392.407 284.104 394.49 286.25 396.24 288.75C398.032 291.25 399.49 294 400.615 297C401.782 299.958 402.636 303.104 403.177 306.438C403.761 309.729 404.052 313.083 404.052 316.5ZM379.052 313.25C379.052 312.083 378.927 310.896 378.677 309.688C378.427 308.438 378.011 307.312 377.427 306.312C376.886 305.312 376.157 304.5 375.24 303.875C374.323 303.208 373.177 302.875 371.802 302.875C370.136 302.875 368.657 303.333 367.365 304.25C366.115 305.125 365.032 306.25 364.115 307.625C363.198 308.958 362.448 310.417 361.865 312C361.282 313.583 360.844 315.042 360.552 316.375L379.052 314.625V313.25ZM460.43 333.875L457.805 361.625L405.18 365.75L407.18 276.5H439.68L435.055 333.875H460.43ZM520.432 281.625L518.182 308C516.974 307.667 515.787 307.438 514.62 307.312C513.453 307.188 512.266 307.125 511.057 307.125C508.099 307.125 505.266 307.5 502.557 308.25C499.891 309 497.516 310.146 495.432 311.688C493.391 313.229 491.745 315.188 490.495 317.562C489.287 319.896 488.682 322.667 488.682 325.875C488.682 328.208 489.016 330.25 489.682 332C490.391 333.708 491.37 335.146 492.62 336.312C493.912 337.438 495.453 338.292 497.245 338.875C499.078 339.458 501.099 339.75 503.307 339.75C504.849 339.75 506.432 339.604 508.057 339.312C509.682 338.979 511.307 338.542 512.932 338C514.557 337.458 516.12 336.833 517.62 336.125C519.12 335.417 520.516 334.667 521.807 333.875L520.807 363.25C519.182 364.083 517.432 364.833 515.557 365.5C513.682 366.125 511.745 366.667 509.745 367.125C507.787 367.625 505.807 368 503.807 368.25C501.849 368.5 499.974 368.625 498.182 368.625C492.266 368.625 486.87 367.521 481.995 365.312C477.162 363.104 472.995 360.104 469.495 356.312C466.037 352.479 463.349 348.042 461.432 343C459.516 337.958 458.557 332.583 458.557 326.875C458.557 320.042 459.516 313.667 461.432 307.75C463.391 301.833 466.245 296.708 469.995 292.375C473.787 288 478.453 284.583 483.995 282.125C489.578 279.625 495.974 278.375 503.182 278.375C506.057 278.375 508.974 278.604 511.932 279.062C514.891 279.521 517.724 280.375 520.432 281.625ZM599.997 319.125C599.997 322.917 599.56 326.583 598.685 330.125C597.81 333.625 596.539 336.917 594.872 340C593.247 343.083 591.247 345.917 588.872 348.5C586.539 351.042 583.893 353.229 580.935 355.062C578.018 356.896 574.831 358.333 571.372 359.375C567.914 360.375 564.247 360.875 560.372 360.875C556.622 360.875 553.039 360.396 549.622 359.438C546.247 358.479 543.081 357.146 540.122 355.438C537.164 353.688 534.477 351.604 532.06 349.188C529.685 346.729 527.643 344.021 525.935 341.062C524.268 338.062 522.956 334.854 521.997 331.438C521.081 328.021 520.622 324.458 520.622 320.75C520.622 317.125 521.06 313.583 521.935 310.125C522.81 306.625 524.06 303.333 525.685 300.25C527.352 297.167 529.352 294.333 531.685 291.75C534.018 289.167 536.622 286.938 539.497 285.062C542.414 283.188 545.56 281.729 548.935 280.688C552.31 279.646 555.872 279.125 559.622 279.125C565.664 279.125 571.164 280.062 576.122 281.938C581.122 283.812 585.372 286.5 588.872 290C592.414 293.458 595.143 297.667 597.06 302.625C599.018 307.542 599.997 313.042 599.997 319.125ZM572.247 320.75C572.247 318.958 571.977 317.229 571.435 315.562C570.935 313.854 570.185 312.354 569.185 311.062C568.185 309.729 566.935 308.667 565.435 307.875C563.977 307.042 562.289 306.625 560.372 306.625C558.414 306.625 556.664 306.979 555.122 307.688C553.581 308.396 552.247 309.375 551.122 310.625C550.039 311.833 549.206 313.271 548.622 314.938C548.039 316.562 547.747 318.292 547.747 320.125C547.747 321.875 547.997 323.625 548.497 325.375C548.997 327.125 549.747 328.708 550.747 330.125C551.747 331.542 552.977 332.688 554.435 333.562C555.935 334.438 557.664 334.875 559.622 334.875C561.581 334.875 563.331 334.5 564.872 333.75C566.456 332.958 567.789 331.917 568.872 330.625C569.956 329.292 570.789 327.771 571.372 326.062C571.956 324.354 572.247 322.583 572.247 320.75ZM709.938 324.625C709.938 330.583 709.75 336.521 709.375 342.438C709 348.354 708.562 354.292 708.062 360.25L675.938 361.75C676.896 354.5 677.75 347.25 678.5 340C679.292 332.708 679.688 325.417 679.688 318.125C679.688 317.667 679.667 316.875 679.625 315.75C679.583 314.583 679.5 313.271 679.375 311.812C679.292 310.354 679.146 308.854 678.938 307.312C678.771 305.729 678.521 304.292 678.188 303C677.896 301.667 677.521 300.583 677.062 299.75C676.604 298.917 676.062 298.5 675.438 298.5C673.979 298.5 672.833 299.062 672 300.188C671.167 301.271 670.542 302.583 670.125 304.125C669.75 305.667 669.521 307.25 669.438 308.875C669.354 310.458 669.312 311.75 669.312 312.75C669.312 314.5 669.354 316.25 669.438 318C669.521 319.75 669.562 321.542 669.562 323.375C669.562 329.833 669.396 336.271 669.062 342.688C668.771 349.104 668.396 355.542 667.938 362L638.312 363.125C639.271 355.875 640.104 348.646 640.812 341.438C641.562 334.188 641.938 326.917 641.938 319.625C641.938 319.167 641.917 318.333 641.875 317.125C641.833 315.917 641.75 314.562 641.625 313.062C641.542 311.562 641.396 310 641.188 308.375C640.979 306.75 640.708 305.271 640.375 303.938C640.083 302.562 639.708 301.438 639.25 300.562C638.792 299.688 638.229 299.25 637.562 299.25C636.521 299.25 635.646 299.667 634.938 300.5C634.229 301.292 633.646 302.333 633.188 303.625C632.771 304.917 632.438 306.354 632.188 307.938C631.979 309.479 631.812 311 631.688 312.5C631.604 314 631.542 315.396 631.5 316.688C631.5 317.938 631.479 318.875 631.438 319.5L630.062 365.125H598.562C599.229 358.083 599.896 351.021 600.562 343.938C601.271 336.854 601.875 329.792 602.375 322.75C602.917 315.667 603.354 308.583 603.688 301.5C604.021 294.417 604.188 287.333 604.188 280.25L633.938 279L633.812 286.25C634.729 285.083 635.771 283.917 636.938 282.75C638.104 281.542 639.333 280.479 640.625 279.562C641.958 278.604 643.354 277.833 644.812 277.25C646.312 276.667 647.854 276.375 649.438 276.375C651.479 276.375 653.312 276.542 654.938 276.875C656.562 277.167 658.021 277.688 659.312 278.438C660.646 279.188 661.812 280.229 662.812 281.562C663.812 282.854 664.688 284.5 665.438 286.5C666.771 285.042 668.104 283.688 669.438 282.438C670.812 281.188 672.25 280.125 673.75 279.25C675.25 278.333 676.875 277.625 678.625 277.125C680.375 276.625 682.312 276.375 684.438 276.375C688.479 276.375 691.917 277.167 694.75 278.75C697.583 280.292 699.938 282.354 701.812 284.938C703.729 287.521 705.208 290.479 706.25 293.812C707.333 297.146 708.146 300.604 708.688 304.188C709.229 307.771 709.562 311.333 709.688 314.875C709.854 318.417 709.938 321.667 709.938 324.625ZM782.878 316.5C782.878 320.125 782.628 323.75 782.128 327.375C775.003 327.833 767.919 328.583 760.878 329.625C753.836 330.625 746.794 331.625 739.753 332.625C740.836 335.625 742.523 338.021 744.815 339.812C747.148 341.604 749.919 342.5 753.128 342.5C754.794 342.5 756.607 342.188 758.565 341.562C760.565 340.938 762.544 340.167 764.503 339.25C766.461 338.292 768.336 337.271 770.128 336.188C771.919 335.104 773.461 334.125 774.753 333.25L771.753 361.625C770.128 362.875 768.357 363.938 766.44 364.812C764.565 365.688 762.607 366.396 760.565 366.938C758.523 367.479 756.461 367.875 754.378 368.125C752.294 368.375 750.253 368.5 748.253 368.5C744.128 368.5 740.357 367.938 736.94 366.812C733.523 365.688 730.419 364.125 727.628 362.125C724.878 360.083 722.461 357.688 720.378 354.938C718.294 352.188 716.565 349.188 715.19 345.938C713.815 342.688 712.773 339.25 712.065 335.625C711.357 332 711.003 328.333 711.003 324.625C711.003 320.75 711.357 316.875 712.065 313C712.773 309.125 713.836 305.396 715.253 301.812C716.711 298.229 718.523 294.917 720.69 291.875C722.898 288.792 725.461 286.104 728.378 283.812C731.294 281.521 734.586 279.729 738.253 278.438C741.961 277.146 746.044 276.5 750.503 276.5C754.211 276.5 757.586 277.021 760.628 278.062C763.711 279.062 766.44 280.479 768.815 282.312C771.232 284.104 773.315 286.25 775.065 288.75C776.857 291.25 778.315 294 779.44 297C780.607 299.958 781.461 303.104 782.003 306.438C782.586 309.729 782.878 313.083 782.878 316.5ZM757.878 313.25C757.878 312.083 757.753 310.896 757.503 309.688C757.253 308.438 756.836 307.312 756.253 306.312C755.711 305.312 754.982 304.5 754.065 303.875C753.148 303.208 752.003 302.875 750.628 302.875C748.961 302.875 747.482 303.333 746.19 304.25C744.94 305.125 743.857 306.25 742.94 307.625C742.023 308.958 741.273 310.417 740.69 312C740.107 313.583 739.669 315.042 739.378 316.375L757.878 314.625V313.25ZM873.07 278.875L872.445 305.375L853.82 306.125L851.57 364.125L825.195 365.5L822.82 307.5L804.195 308.5L804.945 279L873.07 278.875ZM950.073 319.125C950.073 322.917 949.635 326.583 948.76 330.125C947.885 333.625 946.614 336.917 944.948 340C943.323 343.083 941.323 345.917 938.948 348.5C936.614 351.042 933.968 353.229 931.01 355.062C928.093 356.896 924.906 358.333 921.448 359.375C917.989 360.375 914.323 360.875 910.448 360.875C906.698 360.875 903.114 360.396 899.698 359.438C896.323 358.479 893.156 357.146 890.198 355.438C887.239 353.688 884.552 351.604 882.135 349.188C879.76 346.729 877.718 344.021 876.01 341.062C874.343 338.062 873.031 334.854 872.073 331.438C871.156 328.021 870.698 324.458 870.698 320.75C870.698 317.125 871.135 313.583 872.01 310.125C872.885 306.625 874.135 303.333 875.76 300.25C877.427 297.167 879.427 294.333 881.76 291.75C884.093 289.167 886.698 286.938 889.573 285.062C892.489 283.188 895.635 281.729 899.01 280.688C902.385 279.646 905.948 279.125 909.698 279.125C915.739 279.125 921.239 280.062 926.198 281.938C931.198 283.812 935.448 286.5 938.948 290C942.489 293.458 945.218 297.667 947.135 302.625C949.093 307.542 950.073 313.042 950.073 319.125ZM922.323 320.75C922.323 318.958 922.052 317.229 921.51 315.562C921.01 313.854 920.26 312.354 919.26 311.062C918.26 309.729 917.01 308.667 915.51 307.875C914.052 307.042 912.364 306.625 910.448 306.625C908.489 306.625 906.739 306.979 905.198 307.688C903.656 308.396 902.323 309.375 901.198 310.625C900.114 311.833 899.281 313.271 898.698 314.938C898.114 316.562 897.823 318.292 897.823 320.125C897.823 321.875 898.073 323.625 898.573 325.375C899.073 327.125 899.823 328.708 900.823 330.125C901.823 331.542 903.052 332.688 904.51 333.562C906.01 334.438 907.739 334.875 909.698 334.875C911.656 334.875 913.406 334.5 914.948 333.75C916.531 332.958 917.864 331.917 918.948 330.625C920.031 329.292 920.864 327.771 921.448 326.062C922.031 324.354 922.323 322.583 922.323 320.75ZM348.177 470.75C348.177 474.208 347.532 477.188 346.24 479.688C344.99 482.188 343.302 484.312 341.177 486.062C339.052 487.812 336.594 489.25 333.802 490.375C331.052 491.458 328.177 492.312 325.177 492.938C322.177 493.562 319.157 493.979 316.115 494.188C313.115 494.396 310.302 494.5 307.677 494.5C305.094 494.5 302.407 494.396 299.615 494.188C296.865 494.021 294.115 493.708 291.365 493.25C288.615 492.792 285.907 492.188 283.24 491.438C280.573 490.646 278.052 489.667 275.677 488.5L275.552 408C277.886 407.042 280.365 406.188 282.99 405.438C285.615 404.646 288.282 404 290.99 403.5C293.74 402.958 296.469 402.562 299.177 402.312C301.886 402.021 304.511 401.875 307.052 401.875C310.011 401.875 312.99 402.062 315.99 402.438C319.032 402.812 321.948 403.438 324.74 404.312C327.532 405.188 330.136 406.333 332.552 407.75C334.969 409.125 337.073 410.833 338.865 412.875C340.698 414.917 342.115 417.292 343.115 420C344.157 422.708 344.677 425.833 344.677 429.375C344.677 431.708 344.344 433.896 343.677 435.938C343.011 437.979 342.052 439.812 340.802 441.438C339.552 443.062 338.032 444.458 336.24 445.625C334.448 446.75 332.427 447.583 330.177 448.125C332.886 448.833 335.344 449.875 337.552 451.25C339.802 452.625 341.698 454.292 343.24 456.25C344.823 458.208 346.032 460.417 346.865 462.875C347.74 465.333 348.177 467.958 348.177 470.75ZM316.427 435.125C316.427 433.917 316.177 432.896 315.677 432.062C315.177 431.188 314.552 430.479 313.802 429.938C313.094 429.396 312.302 429 311.427 428.75C310.594 428.5 309.844 428.375 309.177 428.375C308.344 428.375 307.532 428.5 306.74 428.75C305.948 429 305.177 429.292 304.427 429.625L304.052 443.5C305.011 443.5 306.198 443.417 307.615 443.25C309.032 443.083 310.386 442.729 311.677 442.188C313.011 441.604 314.136 440.771 315.052 439.688C315.969 438.562 316.427 437.042 316.427 435.125ZM307.552 455.5C306.344 455.5 305.177 455.625 304.052 455.875L303.802 470.125C304.427 470.25 305.032 470.375 305.615 470.5C306.24 470.583 306.844 470.625 307.427 470.625C308.302 470.625 309.261 470.542 310.302 470.375C311.344 470.167 312.323 469.792 313.24 469.25C314.157 468.667 314.907 467.896 315.49 466.938C316.115 465.979 316.427 464.708 316.427 463.125C316.427 461.542 316.115 460.25 315.49 459.25C314.907 458.25 314.177 457.479 313.302 456.938C312.427 456.354 311.469 455.979 310.427 455.812C309.386 455.604 308.427 455.5 307.552 455.5ZM417.492 442.5C417.492 446.125 417.242 449.75 416.742 453.375C409.617 453.833 402.534 454.583 395.492 455.625C388.451 456.625 381.409 457.625 374.367 458.625C375.451 461.625 377.138 464.021 379.43 465.812C381.763 467.604 384.534 468.5 387.742 468.5C389.409 468.5 391.222 468.188 393.18 467.562C395.18 466.938 397.159 466.167 399.117 465.25C401.076 464.292 402.951 463.271 404.742 462.188C406.534 461.104 408.076 460.125 409.367 459.25L406.367 487.625C404.742 488.875 402.972 489.938 401.055 490.812C399.18 491.688 397.222 492.396 395.18 492.938C393.138 493.479 391.076 493.875 388.992 494.125C386.909 494.375 384.867 494.5 382.867 494.5C378.742 494.5 374.972 493.938 371.555 492.812C368.138 491.688 365.034 490.125 362.242 488.125C359.492 486.083 357.076 483.688 354.992 480.938C352.909 478.188 351.18 475.188 349.805 471.938C348.43 468.688 347.388 465.25 346.68 461.625C345.972 458 345.617 454.333 345.617 450.625C345.617 446.75 345.972 442.875 346.68 439C347.388 435.125 348.451 431.396 349.867 427.812C351.326 424.229 353.138 420.917 355.305 417.875C357.513 414.792 360.076 412.104 362.992 409.812C365.909 407.521 369.201 405.729 372.867 404.438C376.576 403.146 380.659 402.5 385.117 402.5C388.826 402.5 392.201 403.021 395.242 404.062C398.326 405.062 401.055 406.479 403.43 408.312C405.847 410.104 407.93 412.25 409.68 414.75C411.472 417.25 412.93 420 414.055 423C415.222 425.958 416.076 429.104 416.617 432.438C417.201 435.729 417.492 439.083 417.492 442.5ZM392.492 439.25C392.492 438.083 392.367 436.896 392.117 435.688C391.867 434.438 391.451 433.312 390.867 432.312C390.326 431.312 389.597 430.5 388.68 429.875C387.763 429.208 386.617 428.875 385.242 428.875C383.576 428.875 382.097 429.333 380.805 430.25C379.555 431.125 378.472 432.25 377.555 433.625C376.638 434.958 375.888 436.417 375.305 438C374.722 439.583 374.284 441.042 373.992 442.375L392.492 440.625V439.25ZM494.37 487.625L463.37 491.625L459.62 477.5H445.37L442.245 491.625L410.37 488.5L435.245 405.25L469.995 403.5L494.37 487.625ZM457.37 458.375L452.62 436.625L447.995 458.375H457.37ZM566.372 432.75C566.372 436 566.081 438.958 565.497 441.625C564.956 444.25 564.081 446.667 562.872 448.875C561.664 451.083 560.102 453.125 558.185 455C556.268 456.875 553.956 458.667 551.247 460.375L566.122 486.875L537.997 492.375L528.372 465.75L520.622 466L519.497 492H492.622C492.831 482.5 493.018 473.042 493.185 463.625C493.393 454.208 493.622 444.75 493.872 435.25C493.956 430.458 494.039 425.708 494.122 421C494.206 416.292 494.372 411.542 494.622 406.75C497.539 405.667 500.414 404.771 503.247 404.062C506.081 403.354 508.914 402.812 511.747 402.438C514.622 402.021 517.518 401.75 520.435 401.625C523.393 401.458 526.414 401.375 529.497 401.375C534.247 401.375 538.831 402.042 543.247 403.375C547.706 404.667 551.643 406.625 555.06 409.25C558.477 411.875 561.206 415.146 563.247 419.062C565.331 422.979 566.372 427.542 566.372 432.75ZM538.372 434.75C538.372 433 538.122 431.396 537.622 429.938C537.164 428.479 536.456 427.229 535.497 426.188C534.581 425.104 533.414 424.271 531.997 423.688C530.622 423.062 528.997 422.75 527.122 422.75C526.289 422.75 525.477 422.812 524.685 422.938C523.893 423.021 523.122 423.167 522.372 423.375L521.372 446.625H522.872C524.664 446.625 526.477 446.396 528.31 445.938C530.185 445.479 531.852 444.771 533.31 443.812C534.81 442.854 536.018 441.625 536.935 440.125C537.893 438.625 538.372 436.833 538.372 434.75ZM623 459.875L620.375 487.625L567.75 491.75L569.75 402.5H602.25L597.625 459.875H623ZM656.003 405L651.628 490.125L625.253 491.5L622.753 406.75L656.003 405ZM736.13 461.375C736.13 466.083 736.068 470.75 735.943 475.375C735.859 479.958 735.713 484.583 735.505 489.25L699.505 488.625C700.755 481.25 701.838 473.896 702.755 466.562C703.672 459.188 704.13 451.75 704.13 444.25C704.13 443.708 704.109 442.833 704.068 441.625C704.026 440.417 703.943 439.062 703.818 437.562C703.693 436.021 703.505 434.458 703.255 432.875C703.047 431.25 702.734 429.771 702.318 428.438C701.943 427.104 701.463 426.021 700.88 425.188C700.338 424.312 699.672 423.875 698.88 423.875C697.463 423.875 696.255 424.292 695.255 425.125C694.297 425.958 693.484 427.042 692.818 428.375C692.193 429.667 691.693 431.125 691.318 432.75C690.943 434.375 690.651 436 690.443 437.625C690.276 439.25 690.151 440.792 690.068 442.25C690.026 443.667 690.005 444.833 690.005 445.75C689.797 453.125 689.63 460.458 689.505 467.75C689.38 475 689.213 482.333 689.005 489.75L657.13 491.125C657.963 476.417 658.755 461.792 659.505 447.25C660.297 432.708 660.922 418.083 661.38 403.375L690.88 401.875L690.63 411.875C691.797 410.458 693.047 409.125 694.38 407.875C695.755 406.625 697.213 405.562 698.755 404.688C700.297 403.771 701.922 403.062 703.63 402.562C705.38 402.021 707.213 401.75 709.13 401.75C712.672 401.75 715.776 402.333 718.443 403.5C721.109 404.667 723.401 406.25 725.318 408.25C727.234 410.25 728.838 412.625 730.13 415.375C731.422 418.083 732.463 420.979 733.255 424.062C734.047 427.146 734.651 430.375 735.068 433.75C735.484 437.083 735.755 440.375 735.88 443.625C736.047 446.875 736.13 450.021 736.13 453.062C736.13 456.104 736.13 458.875 736.13 461.375ZM815.07 479C813.112 481.458 810.695 483.604 807.82 485.438C804.945 487.271 801.862 488.792 798.57 490C795.278 491.208 791.903 492.125 788.445 492.75C784.987 493.333 781.695 493.625 778.57 493.625C772.528 493.625 766.966 492.604 761.882 490.562C756.799 488.521 752.403 485.688 748.695 482.062C745.028 478.396 742.153 474.042 740.07 469C737.987 463.958 736.945 458.458 736.945 452.5C736.945 447.958 737.466 443.542 738.507 439.25C739.549 434.958 741.028 430.938 742.945 427.188C744.903 423.438 747.278 420 750.07 416.875C752.862 413.75 756.028 411.062 759.57 408.812C763.112 406.562 766.987 404.833 771.195 403.625C775.445 402.375 779.945 401.75 784.695 401.75C786.487 401.75 788.403 401.833 790.445 402C792.487 402.125 794.507 402.375 796.507 402.75C798.549 403.083 800.528 403.562 802.445 404.188C804.362 404.812 806.112 405.583 807.695 406.5L805.945 430.375C803.612 429.5 801.195 428.917 798.695 428.625C796.237 428.292 793.82 428.125 791.445 428.125C788.112 428.125 784.987 428.583 782.07 429.5C779.195 430.375 776.674 431.688 774.507 433.438C772.382 435.188 770.695 437.375 769.445 440C768.195 442.625 767.57 445.667 767.57 449.125C767.57 451.292 767.862 453.396 768.445 455.438C769.028 457.438 769.903 459.229 771.07 460.812C772.278 462.354 773.757 463.604 775.507 464.562C777.299 465.521 779.362 466 781.695 466C783.278 466 784.903 465.792 786.57 465.375C788.278 464.958 789.737 464.25 790.945 463.25L791.195 458.375L776.195 458.125L776.945 439.375C783.153 439.167 789.362 439 795.57 438.875C801.778 438.708 808.028 438.5 814.32 438.25L815.07 479ZM894.573 445.125C894.573 448.917 894.135 452.583 893.26 456.125C892.385 459.625 891.114 462.917 889.448 466C887.823 469.083 885.823 471.917 883.448 474.5C881.114 477.042 878.468 479.229 875.51 481.062C872.593 482.896 869.406 484.333 865.948 485.375C862.489 486.375 858.823 486.875 854.948 486.875C851.198 486.875 847.614 486.396 844.198 485.438C840.823 484.479 837.656 483.146 834.698 481.438C831.739 479.688 829.052 477.604 826.635 475.188C824.26 472.729 822.218 470.021 820.51 467.062C818.843 464.062 817.531 460.854 816.573 457.438C815.656 454.021 815.198 450.458 815.198 446.75C815.198 443.125 815.635 439.583 816.51 436.125C817.385 432.625 818.635 429.333 820.26 426.25C821.927 423.167 823.927 420.333 826.26 417.75C828.593 415.167 831.198 412.938 834.073 411.062C836.989 409.188 840.135 407.729 843.51 406.688C846.885 405.646 850.448 405.125 854.198 405.125C860.239 405.125 865.739 406.062 870.698 407.938C875.698 409.812 879.948 412.5 883.448 416C886.989 419.458 889.718 423.667 891.635 428.625C893.593 433.542 894.573 439.042 894.573 445.125ZM866.823 446.75C866.823 444.958 866.552 443.229 866.01 441.562C865.51 439.854 864.76 438.354 863.76 437.062C862.76 435.729 861.51 434.667 860.01 433.875C858.552 433.042 856.864 432.625 854.948 432.625C852.989 432.625 851.239 432.979 849.698 433.688C848.156 434.396 846.823 435.375 845.698 436.625C844.614 437.833 843.781 439.271 843.198 440.938C842.614 442.562 842.323 444.292 842.323 446.125C842.323 447.875 842.573 449.625 843.073 451.375C843.573 453.125 844.323 454.708 845.323 456.125C846.323 457.542 847.552 458.688 849.01 459.562C850.51 460.438 852.239 460.875 854.198 460.875C856.156 460.875 857.906 460.5 859.448 459.75C861.031 458.958 862.364 457.917 863.448 456.625C864.531 455.292 865.364 453.771 865.948 452.062C866.531 450.354 866.823 448.583 866.823 446.75Z" fill="black"/>
<g filter="url(#filter0_d_526_43433)">
<mask id="mask3_526_43433" style="mask-type:luminance" maskUnits="userSpaceOnUse" x="1014" y="472" width="140" height="144">
<path d="M1014.55 472.495H1153.93V615.719H1014.55V472.495Z" fill="white"/>
</mask>
<g mask="url(#mask3_526_43433)">
<mask id="mask4_526_43433" style="mask-type:luminance" maskUnits="userSpaceOnUse" x="1005" y="459" width="166" height="166">
<path d="M1034.6 459.318L1170.75 490.352L1141.79 624.499L1005.65 593.465L1034.6 459.318Z" fill="white"/>
</mask>
<g mask="url(#mask4_526_43433)">
<mask id="mask5_526_43433" style="mask-type:luminance" maskUnits="userSpaceOnUse" x="1015" y="473" width="139" height="142">
<path d="M1102.76 474.858C1128.75 480.782 1148.13 503.128 1150.88 530.331L1153.55 556.81C1155.24 573.496 1149.02 590.003 1136.83 601.166C1124.64 612.329 1107.97 616.792 1092.03 613.159L1055.58 604.846C1039.64 601.212 1026.37 589.931 1019.92 574.516C1013.47 559.101 1014.61 541.441 1023.01 527.053L1036.33 504.22C1050.02 480.762 1076.78 468.934 1102.76 474.858Z" fill="white"/>
</mask>
<g mask="url(#mask5_526_43433)">
<mask id="mask6_526_43433" style="mask-type:luminance" maskUnits="userSpaceOnUse" x="1014" y="472" width="140" height="144">
<path d="M1153.93 472.495H1014.55V615.719H1153.93V472.495Z" fill="white"/>
</mask>
<g mask="url(#mask6_526_43433)">
<mask id="mask7_526_43433" style="mask-type:luminance" maskUnits="userSpaceOnUse" x="1005" y="459" width="166" height="166">
<path d="M1034.6 459.318L1170.75 490.352L1141.79 624.5L1005.65 593.466L1034.6 459.318Z" fill="white"/>
</mask>
<g mask="url(#mask7_526_43433)">
<mask id="mask8_526_43433" style="mask-type:luminance" maskUnits="userSpaceOnUse" x="1015" y="473" width="139" height="142">
<path d="M1102.76 474.858C1128.75 480.782 1148.13 503.128 1150.88 530.331L1153.55 556.811C1155.24 573.496 1149.02 590.003 1136.83 601.166C1124.64 612.329 1107.97 616.792 1092.03 613.159L1055.58 604.846C1039.64 601.213 1026.37 589.931 1019.92 574.516C1013.47 559.101 1014.61 541.442 1023.01 527.053L1036.33 504.22C1050.02 480.762 1076.78 468.934 1102.76 474.858Z" fill="white"/>
</mask>
<g mask="url(#mask8_526_43433)">
<path d="M1015.74 455.02L1189.62 494.657L1160.66 628.804L986.778 589.168L1015.74 455.02Z" fill="#AD6747"/>
</g>
</g>
</g>
</g>
</g>
</g>
<mask id="mask9_526_43433" style="mask-type:luminance" maskUnits="userSpaceOnUse" x="1005" y="784" width="52" height="15">
<path d="M1005.49 784.369H1056.94V798.573H1005.49V784.369Z" fill="white"/>
</mask>
<g mask="url(#mask9_526_43433)">
<mask id="mask10_526_43433" style="mask-type:luminance" maskUnits="userSpaceOnUse" x="1005" y="784" width="52" height="15">
<path d="M1012.4 784.369H1050.03C1053.84 784.369 1056.94 787.548 1056.94 791.471C1056.94 795.394 1053.84 798.573 1050.03 798.573H1012.4C1008.58 798.573 1005.49 795.394 1005.49 791.471C1005.49 787.548 1008.58 784.369 1012.4 784.369Z" fill="white"/>
</mask>
<g mask="url(#mask10_526_43433)">
<mask id="mask11_526_43433" style="mask-type:luminance" maskUnits="userSpaceOnUse" x="1004" y="784" width="54" height="16">
<path d="M1057.18 784.217H1004.71V799.382H1057.18V784.217Z" fill="white"/>
</mask>
<g mask="url(#mask11_526_43433)">
<mask id="mask12_526_43433" style="mask-type:luminance" maskUnits="userSpaceOnUse" x="1005" y="784" width="52" height="15">
<path d="M1005.49 784.369H1056.94V798.573H1005.49V784.369Z" fill="white"/>
</mask>
<g mask="url(#mask12_526_43433)">
<mask id="mask13_526_43433" style="mask-type:luminance" maskUnits="userSpaceOnUse" x="1005" y="784" width="52" height="15">
<path d="M1012.4 784.369H1050.03C1053.84 784.369 1056.94 787.548 1056.94 791.471C1056.94 795.394 1053.84 798.573 1050.03 798.573H1012.4C1008.58 798.573 1005.49 795.394 1005.49 791.471C1005.49 787.548 1008.58 784.369 1012.4 784.369Z" fill="white"/>
</mask>
<g mask="url(#mask13_526_43433)">
<path d="M1005.49 784.369H1056.94V798.573H1005.49V784.369Z" fill="#AD6747"/>
</g>
</g>
</g>
</g>
</g>
<mask id="mask14_526_43433" style="mask-type:luminance" maskUnits="userSpaceOnUse" x="1100" y="784" width="53" height="15">
<path d="M1100.78 784.369H1152.23V798.573H1100.78V784.369Z" fill="white"/>
</mask>
<g mask="url(#mask14_526_43433)">
<mask id="mask15_526_43433" style="mask-type:luminance" maskUnits="userSpaceOnUse" x="1100" y="784" width="53" height="15">
<path d="M1107.69 784.369H1145.32C1149.14 784.369 1152.23 787.548 1152.23 791.471C1152.23 795.394 1149.14 798.573 1145.32 798.573H1107.69C1103.87 798.573 1100.78 795.394 1100.78 791.471C1100.78 787.548 1103.87 784.369 1107.69 784.369Z" fill="white"/>
</mask>
<g mask="url(#mask15_526_43433)">
<mask id="mask16_526_43433" style="mask-type:luminance" maskUnits="userSpaceOnUse" x="1099" y="784" width="54" height="16">
<path d="M1152.29 784.217H1099.82V799.382H1152.29V784.217Z" fill="white"/>
</mask>
<g mask="url(#mask16_526_43433)">
<mask id="mask17_526_43433" style="mask-type:luminance" maskUnits="userSpaceOnUse" x="1100" y="784" width="53" height="15">
<path d="M1100.78 784.369H1152.23V798.573H1100.78V784.369Z" fill="white"/>
</mask>
<g mask="url(#mask17_526_43433)">
<mask id="mask18_526_43433" style="mask-type:luminance" maskUnits="userSpaceOnUse" x="1100" y="784" width="53" height="15">
<path d="M1107.69 784.369H1145.32C1149.14 784.369 1152.23 787.548 1152.23 791.471C1152.23 795.394 1149.14 798.573 1145.32 798.573H1107.69C1103.87 798.573 1100.78 795.394 1100.78 791.471C1100.78 787.548 1103.87 784.369 1107.69 784.369Z" fill="white"/>
</mask>
<g mask="url(#mask18_526_43433)">
<path d="M1100.78 784.369H1152.23V798.573H1100.78V784.369Z" fill="#AD6747"/>
</g>
</g>
</g>
</g>
</g>
<mask id="mask19_526_43433" style="mask-type:luminance" maskUnits="userSpaceOnUse" x="997" y="547" width="160" height="215">
<path d="M997.258 547.483H1156.08V761.687H997.258V547.483Z" fill="white"/>
</mask>
<g mask="url(#mask19_526_43433)">
<mask id="mask20_526_43433" style="mask-type:luminance" maskUnits="userSpaceOnUse" x="997" y="547" width="160" height="215">
<path d="M1103.11 552.4C1094.97 549.51 1085.71 547.608 1076.62 547.608C1067.54 547.608 1058.8 549.234 1050.74 552.13C1050.57 552.222 1050.4 552.222 1050.23 552.308C1019.97 563.879 997.687 594.432 997.258 630.357V696.019C997.258 713.435 1003.99 730.14 1015.97 742.455C1027.96 754.769 1044.21 761.687 1061.16 761.687H1092.22C1127.49 761.687 1156.08 732.312 1156.08 696.071V630.449C1155.65 594.248 1133.71 563.701 1103.11 552.4Z" fill="white"/>
</mask>
<g mask="url(#mask20_526_43433)">
<mask id="mask21_526_43433" style="mask-type:luminance" maskUnits="userSpaceOnUse" x="996" y="546" width="162" height="217">
<path d="M1157.21 546.634H996.515V762.313H1157.21V546.634Z" fill="white"/>
</mask>
<g mask="url(#mask21_526_43433)">
<mask id="mask22_526_43433" style="mask-type:luminance" maskUnits="userSpaceOnUse" x="997" y="547" width="160" height="215">
<path d="M997.258 547.483H1156.08V761.687H997.258V547.483Z" fill="white"/>
</mask>
<g mask="url(#mask22_526_43433)">
<mask id="mask23_526_43433" style="mask-type:luminance" maskUnits="userSpaceOnUse" x="997" y="547" width="160" height="215">
<path d="M1103.11 552.4C1094.97 549.511 1085.71 547.608 1076.62 547.608C1067.54 547.608 1058.8 549.234 1050.74 552.13C1050.57 552.222 1050.4 552.222 1050.23 552.308C1019.97 563.879 997.687 594.433 997.258 630.357V696.019C997.258 713.435 1003.99 730.14 1015.97 742.455C1027.96 754.77 1044.21 761.687 1061.16 761.687H1092.22C1127.49 761.687 1156.08 732.312 1156.08 696.072V630.449C1155.65 594.248 1133.71 563.701 1103.11 552.4Z" fill="white"/>
</mask>
<g mask="url(#mask23_526_43433)">
<path d="M1156.08 761.687H997.258V547.483H1156.08V761.687Z" fill="#AD6747"/>
</g>
</g>
</g>
</g>
</g>
<mask id="mask24_526_43433" style="mask-type:luminance" maskUnits="userSpaceOnUse" x="981" y="685" width="97" height="114">
<path d="M981.232 685.343H1077.64V798.573H981.232V685.343Z" fill="white"/>
</mask>
<g mask="url(#mask24_526_43433)">
<mask id="mask25_526_43433" style="mask-type:luminance" maskUnits="userSpaceOnUse" x="981" y="685" width="97" height="114">
<path d="M1029.48 798.573C1045.87 798.573 1060.43 787.792 1065.61 771.817L1075.29 741.955C1079.54 728.843 1077.41 714.422 1069.54 703.207C1061.67 691.991 1049.04 685.343 1035.58 685.343H1023.38C1009.93 685.343 997.29 691.991 989.425 703.207C981.559 714.422 979.42 728.843 983.673 741.955L993.357 771.817C998.539 787.792 1013.09 798.573 1029.48 798.573Z" fill="white"/>
</mask>
<g mask="url(#mask25_526_43433)">
<mask id="mask26_526_43433" style="mask-type:luminance" maskUnits="userSpaceOnUse" x="980" y="684" width="99" height="116">
<path d="M1078.5 684.803H980.118V799.383H1078.5V684.803Z" fill="white"/>
</mask>
<g mask="url(#mask26_526_43433)">
<mask id="mask27_526_43433" style="mask-type:luminance" maskUnits="userSpaceOnUse" x="981" y="685" width="97" height="114">
<path d="M981.232 685.343H1077.64V798.573H981.232V685.343Z" fill="white"/>
</mask>
<g mask="url(#mask27_526_43433)">
<mask id="mask28_526_43433" style="mask-type:luminance" maskUnits="userSpaceOnUse" x="981" y="685" width="97" height="114">
<path d="M1029.48 798.573C1045.87 798.573 1060.43 787.792 1065.61 771.817L1075.29 741.955C1079.54 728.844 1077.41 714.422 1069.54 703.207C1061.67 691.991 1049.04 685.343 1035.58 685.343H1023.38C1009.93 685.343 997.29 691.991 989.425 703.207C981.559 714.422 979.42 728.844 983.673 741.955L993.357 771.817C998.539 787.792 1013.09 798.573 1029.48 798.573Z" fill="white"/>
</mask>
<g mask="url(#mask28_526_43433)">
<path d="M965.31 685.343H1093.57V798.573H965.31V685.343Z" fill="#AD6747"/>
</g>
</g>
</g>
</g>
</g>
<mask id="mask29_526_43433" style="mask-type:luminance" maskUnits="userSpaceOnUse" x="1077" y="686" width="94" height="114">
<path d="M1077.14 686.607H1170.11V799.836H1077.14V686.607Z" fill="white"/>
</mask>
<g mask="url(#mask29_526_43433)">
<mask id="mask30_526_43433" style="mask-type:luminance" maskUnits="userSpaceOnUse" x="1077" y="686" width="93" height="114">
<path d="M1123.58 799.836C1138.89 799.836 1152.48 789.766 1157.32 774.845L1167.58 743.218C1171.84 730.107 1169.7 715.686 1161.82 704.47C1153.96 693.254 1141.33 686.607 1127.87 686.607H1119.29C1105.84 686.607 1093.2 693.254 1085.33 704.47C1077.47 715.686 1075.33 730.107 1079.58 743.218L1089.84 774.845C1094.68 789.766 1108.27 799.836 1123.58 799.836Z" fill="white"/>
</mask>
<g mask="url(#mask30_526_43433)">
<mask id="mask31_526_43433" style="mask-type:luminance" maskUnits="userSpaceOnUse" x="1076" y="686" width="95" height="116">
<path d="M1170.32 686.488H1076.86V801.067H1170.32V686.488Z" fill="white"/>
</mask>
<g mask="url(#mask31_526_43433)">
<mask id="mask32_526_43433" style="mask-type:luminance" maskUnits="userSpaceOnUse" x="1077" y="686" width="94" height="114">
<path d="M1077.14 686.607H1170.11V799.836H1077.14V686.607Z" fill="white"/>
</mask>
<g mask="url(#mask32_526_43433)">
<mask id="mask33_526_43433" style="mask-type:luminance" maskUnits="userSpaceOnUse" x="1077" y="686" width="93" height="114">
<path d="M1123.58 799.836C1138.89 799.836 1152.48 789.766 1157.32 774.845L1167.58 743.218C1171.84 730.107 1169.7 715.686 1161.83 704.47C1153.96 693.254 1141.33 686.607 1127.87 686.607H1119.29C1105.84 686.607 1093.2 693.254 1085.34 704.47C1077.47 715.686 1075.33 730.107 1079.58 743.218L1089.84 774.845C1094.68 789.766 1108.27 799.836 1123.58 799.836Z" fill="white"/>
</mask>
<g mask="url(#mask33_526_43433)">
<path d="M1061.22 686.607H1186.04V799.836H1061.22V686.607Z" fill="#AD6747"/>
</g>
</g>
</g>
</g>
</g>
<mask id="mask34_526_43433" style="mask-type:luminance" maskUnits="userSpaceOnUse" x="967" y="560" width="64" height="112">
<path d="M967 560.114H1030.95V671.323H967V560.114Z" fill="white"/>
</mask>
<g mask="url(#mask34_526_43433)">
<mask id="mask35_526_43433" style="mask-type:luminance" maskUnits="userSpaceOnUse" x="954" y="552" width="90" height="128">
<path d="M1002.82 552.696L1043.92 572.139L995.746 679.696L954.645 660.259L1002.82 552.696Z" fill="white"/>
</mask>
<g mask="url(#mask35_526_43433)">
<mask id="mask36_526_43433" style="mask-type:luminance" maskUnits="userSpaceOnUse" x="967" y="561" width="64" height="110">
<path d="M1023.37 562.418C1012.02 557.054 992.044 576.767 978.747 606.451C965.45 636.136 963.875 664.551 975.224 669.915C986.574 675.286 1006.55 655.573 1019.85 625.888C1033.14 596.203 1034.72 567.789 1023.37 562.418Z" fill="white"/>
</mask>
<g mask="url(#mask36_526_43433)">
<mask id="mask37_526_43433" style="mask-type:luminance" maskUnits="userSpaceOnUse" x="967" y="560" width="64" height="112">
<path d="M1030.95 560.115H967V671.324H1030.95V560.115Z" fill="white"/>
</mask>
<g mask="url(#mask37_526_43433)">
<mask id="mask38_526_43433" style="mask-type:luminance" maskUnits="userSpaceOnUse" x="954" y="552" width="90" height="128">
<path d="M1002.82 552.696L1043.92 572.14L995.746 679.696L954.645 660.259L1002.82 552.696Z" fill="white"/>
</mask>
<g mask="url(#mask38_526_43433)">
<mask id="mask39_526_43433" style="mask-type:luminance" maskUnits="userSpaceOnUse" x="967" y="561" width="64" height="110">
<path d="M1023.37 562.418C1012.02 557.054 992.044 576.767 978.747 606.452C965.45 636.136 963.875 664.551 975.224 669.915C986.574 675.286 1006.55 655.573 1019.85 625.888C1033.14 596.203 1034.72 567.789 1023.37 562.418Z" fill="white"/>
</mask>
<g mask="url(#mask39_526_43433)">
<path d="M1002.82 552.697L1043.92 572.14L995.746 679.696L954.645 660.259L1002.82 552.697Z" fill="#865139"/>
</g>
</g>
</g>
</g>
</g>
</g>
<mask id="mask40_526_43433" style="mask-type:luminance" maskUnits="userSpaceOnUse" x="967" y="560" width="64" height="112">
<path d="M1030.28 560.781V670.656H967.667V560.781H1030.28Z" fill="white" stroke="white" stroke-width="1.33333"/>
</mask>
<g mask="url(#mask40_526_43433)">
<mask id="mask41_526_43433" style="mask-type:luminance" maskUnits="userSpaceOnUse" x="954" y="552" width="91" height="129">
<path d="M1043.28 572.574L995.492 679.269L955.366 660.283L1003.15 553.59L1043.28 572.574Z" fill="white" stroke="white" stroke-width="1.33333"/>
</mask>
<g mask="url(#mask41_526_43433)">
<mask id="mask42_526_43433" style="mask-type:luminance" maskUnits="userSpaceOnUse" x="954" y="552" width="91" height="129">
<path d="M1043.15 572.515L995.045 679.914L955.046 660.994L1003.15 553.596L1043.15 572.515Z" fill="white" stroke="white" stroke-width="1.33333"/>
</mask>
<g mask="url(#mask42_526_43433)">
<mask id="mask43_526_43433" style="mask-type:luminance" maskUnits="userSpaceOnUse" x="967" y="561" width="64" height="110">
<path d="M1013.74 563.473C1017.31 561.962 1020.47 561.788 1023.08 563.021H1023.08C1025.69 564.256 1027.63 566.847 1028.84 570.626C1030.04 574.403 1030.5 579.297 1030.18 584.992C1029.55 596.376 1025.85 610.819 1019.23 625.602C1012.61 640.386 1004.34 652.657 996.339 660.551C992.337 664.5 988.429 667.327 984.858 668.839C981.289 670.351 978.123 670.525 975.517 669.293H975.516C972.904 668.058 970.966 665.466 969.759 661.687C968.552 657.909 968.1 653.015 968.416 647.321C969.048 635.937 972.739 621.494 979.362 606.711C985.983 591.927 994.257 579.655 1002.26 571.761C1006.26 567.813 1010.17 564.986 1013.74 563.473Z" fill="white" stroke="white" stroke-width="1.33333"/>
</mask>
<g mask="url(#mask43_526_43433)">
<path d="M1023.37 562.418C1012.02 557.054 992.045 576.76 978.755 606.438C965.458 636.117 963.882 664.531 975.232 669.895C986.575 675.26 1006.55 655.553 1019.84 625.875C1033.13 596.197 1034.72 567.782 1023.37 562.418Z" stroke="#865139" stroke-width="8"/>
</g>
</g>
</g>
</g>
<mask id="mask44_526_43433" style="mask-type:luminance" maskUnits="userSpaceOnUse" x="981" y="600" width="141" height="151">
<path d="M981.758 600.554H1121.13V750.518H981.758V600.554Z" fill="white"/>
</mask>
<g mask="url(#mask44_526_43433)">
<mask id="mask45_526_43433" style="mask-type:luminance" maskUnits="userSpaceOnUse" x="941" y="573" width="188" height="187">
<path d="M941.988 632.536L1075.64 573.074L1129 699.718L995.343 759.18L941.988 632.536Z" fill="white"/>
</mask>
<g mask="url(#mask45_526_43433)">
<mask id="mask46_526_43433" style="mask-type:luminance" maskUnits="userSpaceOnUse" x="982" y="600" width="139" height="151">
<path d="M1035.32 606.089L1109.29 663.05C1117.03 669.006 1121.09 678.748 1119.96 688.614C1118.83 698.481 1112.67 706.984 1103.8 710.927L1020.29 748.082C1011.42 752.032 1001.17 750.82 993.395 744.923C985.619 739.019 981.494 729.304 982.558 719.431L992.761 625.019C993.818 615.232 999.896 606.78 1008.69 602.864C1017.48 598.954 1027.65 600.185 1035.32 606.089Z" fill="white"/>
</mask>
<g mask="url(#mask46_526_43433)">
<mask id="mask47_526_43433" style="mask-type:luminance" maskUnits="userSpaceOnUse" x="981" y="600" width="141" height="151">
<path d="M1121.13 600.554H981.757V750.518H1121.13V600.554Z" fill="white"/>
</mask>
<g mask="url(#mask47_526_43433)">
<mask id="mask48_526_43433" style="mask-type:luminance" maskUnits="userSpaceOnUse" x="941" y="573" width="188" height="187">
<path d="M941.987 632.536L1075.64 573.074L1129 699.718L995.342 759.18L941.987 632.536Z" fill="white"/>
</mask>
<g mask="url(#mask48_526_43433)">
<mask id="mask49_526_43433" style="mask-type:luminance" maskUnits="userSpaceOnUse" x="982" y="600" width="139" height="151">
<path d="M1035.32 606.09L1109.29 663.05C1117.03 669.007 1121.09 678.748 1119.96 688.614C1118.83 698.481 1112.67 706.985 1103.8 710.927L1020.29 748.083C1011.42 752.032 1001.17 750.821 993.394 744.923C985.618 739.019 981.493 729.304 982.557 719.431L992.76 625.019C993.817 615.232 999.895 606.781 1008.69 602.864C1017.48 598.955 1027.65 600.185 1035.32 606.09Z" fill="white"/>
</mask>
<g mask="url(#mask49_526_43433)">
<path d="M913.272 614.949L1082.81 539.526L1146.93 691.741L977.4 767.164L913.272 614.949Z" fill="#AD6747"/>
</g>
</g>
</g>
</g>
</g>
</g>
<mask id="mask50_526_43433" style="mask-type:luminance" maskUnits="userSpaceOnUse" x="1144" y="775" width="14" height="15">
<path d="M1144.8 775.457H1157.06V789.852H1144.8V775.457Z" fill="white"/>
</mask>
<g mask="url(#mask50_526_43433)">
<mask id="mask51_526_43433" style="mask-type:luminance" maskUnits="userSpaceOnUse" x="1144" y="775" width="14" height="15">
<path d="M1150.93 789.852C1153.02 789.852 1154.87 788.483 1155.53 786.449L1156.76 782.651C1157.29 780.986 1157.03 779.149 1156.03 777.728C1155.03 776.299 1153.42 775.457 1151.71 775.457H1150.16C1148.44 775.457 1146.84 776.299 1145.84 777.728C1144.84 779.149 1144.57 780.986 1145.11 782.651L1146.34 786.449C1147 788.483 1148.85 789.852 1150.93 789.852Z" fill="white"/>
</mask>
<g mask="url(#mask51_526_43433)">
<mask id="mask52_526_43433" style="mask-type:luminance" maskUnits="userSpaceOnUse" x="1144" y="774" width="14" height="17">
<path d="M1157.2 774.108H1144.09V790.958H1157.2V774.108Z" fill="white"/>
</mask>
<g mask="url(#mask52_526_43433)">
<mask id="mask53_526_43433" style="mask-type:luminance" maskUnits="userSpaceOnUse" x="1144" y="775" width="14" height="15">
<path d="M1144.8 775.457H1157.06V789.852H1144.8V775.457Z" fill="white"/>
</mask>
<g mask="url(#mask53_526_43433)">
<mask id="mask54_526_43433" style="mask-type:luminance" maskUnits="userSpaceOnUse" x="1144" y="775" width="14" height="15">
<path d="M1150.93 789.852C1153.02 789.852 1154.87 788.483 1155.53 786.449L1156.76 782.651C1157.29 780.986 1157.03 779.149 1156.03 777.728C1155.03 776.299 1153.42 775.457 1151.71 775.457H1150.16C1148.44 775.457 1146.84 776.299 1145.84 777.728C1144.84 779.149 1144.57 780.986 1145.11 782.651L1146.34 786.449C1147 788.483 1148.85 789.852 1150.93 789.852Z" fill="white"/>
</mask>
<g mask="url(#mask54_526_43433)">
<path d="M1142.77 775.457H1159.08V789.852H1142.77V775.457Z" fill="#AD6747"/>
</g>
</g>
</g>
</g>
</g>
<mask id="mask55_526_43433" style="mask-type:luminance" maskUnits="userSpaceOnUse" x="1047" y="612" width="122" height="132">
<path d="M1047.35 612.349H1168.68V743.778H1047.35V612.349Z" fill="white"/>
</mask>
<g mask="url(#mask55_526_43433)">
<mask id="mask56_526_43433" style="mask-type:luminance" maskUnits="userSpaceOnUse" x="1030" y="596" width="173" height="176">
<path d="M1202.16 699.579L1097.98 771.448L1030.86 668.703L1135.03 596.835L1202.16 699.579Z" fill="white"/>
</mask>
<g mask="url(#mask56_526_43433)">
<mask id="mask57_526_43433" style="mask-type:luminance" maskUnits="userSpaceOnUse" x="1047" y="613" width="121" height="130">
<path d="M1109.12 737.834L1070.38 718.088C1057.16 711.355 1048.43 697.895 1047.47 682.763C1046.5 667.631 1053.45 653.117 1065.7 644.666L1100.41 620.721C1112.67 612.263 1128.36 611.157 1141.63 617.799C1154.89 624.446 1163.71 637.847 1164.77 652.966L1167.88 697.296C1168.94 712.289 1162.09 726.711 1149.96 735.089C1137.81 743.462 1122.23 744.515 1109.12 737.834Z" fill="white"/>
</mask>
<g mask="url(#mask57_526_43433)">
<mask id="mask58_526_43433" style="mask-type:luminance" maskUnits="userSpaceOnUse" x="1047" y="612" width="122" height="132">
<path d="M1168.68 612.349H1047.35V743.778H1168.68V612.349Z" fill="white"/>
</mask>
<g mask="url(#mask58_526_43433)">
<mask id="mask59_526_43433" style="mask-type:luminance" maskUnits="userSpaceOnUse" x="1030" y="596" width="173" height="176">
<path d="M1202.16 699.579L1097.99 771.448L1030.86 668.703L1135.03 596.835L1202.16 699.579Z" fill="white"/>
</mask>
<g mask="url(#mask59_526_43433)">
<mask id="mask60_526_43433" style="mask-type:luminance" maskUnits="userSpaceOnUse" x="1047" y="613" width="121" height="130">
<path d="M1109.12 737.834L1070.38 718.088C1057.16 711.355 1048.43 697.895 1047.47 682.763C1046.5 667.631 1053.45 653.117 1065.7 644.666L1100.41 620.721C1112.67 612.263 1128.37 611.157 1141.63 617.799C1154.89 624.446 1163.71 637.847 1164.77 652.966L1167.88 697.296C1168.94 712.289 1162.09 726.711 1149.96 735.089C1137.81 743.462 1122.23 744.515 1109.12 737.834Z" fill="white"/>
</mask>
<g mask="url(#mask60_526_43433)">
<path d="M1249.6 717.568L1096.22 823.387L1006.26 685.678L1159.64 579.86L1249.6 717.568Z" fill="#AD6747"/>
</g>
</g>
</g>
</g>
</g>
</g>
<mask id="mask61_526_43433" style="mask-type:luminance" maskUnits="userSpaceOnUse" x="1129" y="555" width="61" height="113">
<path d="M1129.33 555.059H1190V667.953H1129.33V555.059Z" fill="white"/>
</mask>
<g mask="url(#mask61_526_43433)">
<mask id="mask62_526_43433" style="mask-type:luminance" maskUnits="userSpaceOnUse" x="1117" y="547" width="84" height="128">
<path d="M1200.95 657.942L1158.76 674.72L1117.18 564.294L1159.38 547.516L1200.95 657.942Z" fill="white"/>
</mask>
<g mask="url(#mask62_526_43433)">
<mask id="mask63_526_43433" style="mask-type:luminance" maskUnits="userSpaceOnUse" x="1129" y="555" width="60" height="112">
<path d="M1179.86 666.334C1191.51 661.701 1191.65 633.24 1180.18 602.766C1168.7 572.291 1149.96 551.341 1138.31 555.974C1126.65 560.601 1126.51 589.062 1137.98 619.543C1149.46 650.018 1168.21 670.968 1179.86 666.334Z" fill="white"/>
</mask>
<g mask="url(#mask63_526_43433)">
<mask id="mask64_526_43433" style="mask-type:luminance" maskUnits="userSpaceOnUse" x="1129" y="555" width="61" height="113">
<path d="M1190 555.059H1129.33V667.953H1190V555.059Z" fill="white"/>
</mask>
<g mask="url(#mask64_526_43433)">
<mask id="mask65_526_43433" style="mask-type:luminance" maskUnits="userSpaceOnUse" x="1117" y="547" width="84" height="128">
<path d="M1200.95 657.942L1158.76 674.72L1117.18 564.294L1159.38 547.517L1200.95 657.942Z" fill="white"/>
</mask>
<g mask="url(#mask65_526_43433)">
<mask id="mask66_526_43433" style="mask-type:luminance" maskUnits="userSpaceOnUse" x="1129" y="555" width="60" height="112">
<path d="M1179.86 666.335C1191.51 661.701 1191.65 633.24 1180.18 602.766C1168.7 572.291 1149.96 551.341 1138.31 555.975C1126.65 560.602 1126.51 589.062 1137.98 619.543C1149.46 650.018 1168.21 670.968 1179.86 666.335Z" fill="white"/>
</mask>
<g mask="url(#mask66_526_43433)">
<path d="M1200.95 657.942L1158.76 674.72L1117.18 564.294L1159.38 547.517L1200.95 657.942Z" fill="#865139"/>
</g>
</g>
</g>
</g>
</g>
</g>
<mask id="mask67_526_43433" style="mask-type:luminance" maskUnits="userSpaceOnUse" x="1129" y="555" width="61" height="113">
<path d="M1189.33 555.726V667.287H1130V555.726H1189.33Z" fill="white" stroke="white" stroke-width="1.33333"/>
</mask>
<g mask="url(#mask67_526_43433)">
<mask id="mask68_526_43433" style="mask-type:luminance" maskUnits="userSpaceOnUse" x="1116" y="547" width="85" height="128">
<path d="M1200.1 657.564L1158.9 673.948L1117.66 564.408L1158.85 548.03L1200.1 657.564Z" fill="white" stroke="white" stroke-width="1.33333"/>
</mask>
<g mask="url(#mask68_526_43433)">
<mask id="mask69_526_43433" style="mask-type:luminance" maskUnits="userSpaceOnUse" x="1116" y="546" width="85" height="129">
<path d="M1200.1 657.564L1159.04 673.894L1117.52 563.625L1158.58 547.299L1200.1 657.564Z" fill="white" stroke="white" stroke-width="1.33333"/>
</mask>
<g mask="url(#mask69_526_43433)">
<mask id="mask70_526_43433" style="mask-type:luminance" maskUnits="userSpaceOnUse" x="1129" y="555" width="60" height="112">
<path d="M1138.56 556.606C1141.23 555.541 1144.39 555.917 1147.86 557.654C1151.33 559.392 1155.06 562.463 1158.82 566.661C1166.33 575.051 1173.84 587.829 1179.56 603.006C1185.27 618.184 1188.08 632.835 1188.03 644.237C1188 649.94 1187.25 654.795 1185.82 658.488C1184.39 662.182 1182.3 664.643 1179.62 665.708C1176.94 666.772 1173.79 666.398 1170.32 664.662C1166.85 662.924 1163.12 659.853 1159.36 655.657C1151.85 647.267 1144.34 634.491 1138.62 619.314C1132.91 604.134 1130.1 589.484 1130.15 578.082C1130.18 572.378 1130.93 567.522 1132.36 563.829C1133.79 560.134 1135.88 557.673 1138.56 556.607L1138.56 556.606Z" fill="white" stroke="white" stroke-width="1.33333"/>
</mask>
<g mask="url(#mask70_526_43433)">
<path d="M1179.86 666.327C1191.51 661.7 1191.65 633.24 1180.18 602.772C1168.71 572.304 1149.96 551.353 1138.31 555.987C1126.67 560.621 1126.53 589.075 1138 619.549C1149.47 650.017 1168.22 670.961 1179.86 666.327Z" stroke="#865139" stroke-width="8"/>
</g>
</g>
</g>
</g>
<mask id="mask71_526_43433" style="mask-type:luminance" maskUnits="userSpaceOnUse" x="1021" y="531" width="147" height="161">
<path d="M1021.11 531.469H1167.04V691.543H1021.11V531.469Z" fill="white"/>
</mask>
<g mask="url(#mask71_526_43433)">
<mask id="mask72_526_43433" style="mask-type:luminance" maskUnits="userSpaceOnUse" x="1012" y="523" width="209" height="212">
<path d="M1220.1 640.769L1095.2 734.188L1012.46 617.371L1137.36 523.953L1220.1 640.769Z" fill="white"/>
</mask>
<g mask="url(#mask72_526_43433)">
<mask id="mask73_526_43433" style="mask-type:luminance" maskUnits="userSpaceOnUse" x="1021" y="532" width="146" height="160">
<path d="M1136.36 689.14L1034.1 641.901C1027.14 638.683 1022.37 631.903 1021.58 624.104C1020.8 616.304 1024.11 608.662 1030.28 604.049L1119.76 537.116C1125.93 532.496 1134.03 531.607 1141.01 534.773C1147.99 537.939 1152.81 544.692 1153.65 552.485L1165.96 666.999C1166.79 674.726 1163.52 682.321 1157.41 686.896C1151.29 691.47 1143.26 692.326 1136.36 689.14Z" fill="white"/>
</mask>
<g mask="url(#mask73_526_43433)">
<mask id="mask74_526_43433" style="mask-type:luminance" maskUnits="userSpaceOnUse" x="1021" y="531" width="147" height="161">
<path d="M1167.05 531.469H1021.11V691.543H1167.05V531.469Z" fill="white"/>
</mask>
<g mask="url(#mask74_526_43433)">
<mask id="mask75_526_43433" style="mask-type:luminance" maskUnits="userSpaceOnUse" x="1021" y="531" width="147" height="161">
<path d="M1021.11 531.535H1167.05V691.543H1021.11V531.535Z" fill="white"/>
</mask>
<g mask="url(#mask75_526_43433)">
<mask id="mask76_526_43433" style="mask-type:luminance" maskUnits="userSpaceOnUse" x="1012" y="523" width="209" height="212">
<path d="M1220.1 640.769L1095.21 734.187L1012.46 617.37L1137.36 523.952L1220.1 640.769Z" fill="white"/>
</mask>
<g mask="url(#mask76_526_43433)">
<mask id="mask77_526_43433" style="mask-type:luminance" maskUnits="userSpaceOnUse" x="1021" y="532" width="146" height="160">
<path d="M1136.36 689.14L1034.1 641.901C1027.14 638.683 1022.37 631.903 1021.58 624.104C1020.8 616.304 1024.11 608.662 1030.28 604.048L1119.76 537.116C1125.93 532.496 1134.03 531.607 1141.01 534.773C1147.99 537.939 1152.81 544.692 1153.65 552.485L1165.96 666.998C1166.79 674.726 1163.52 682.321 1157.41 686.896C1151.3 691.47 1143.26 692.326 1136.36 689.14Z" fill="white"/>
</mask>
<g mask="url(#mask77_526_43433)">
<path d="M1244.58 648.905L1095.22 760.621L1000.23 626.519L1149.59 514.803L1244.58 648.905Z" fill="#AD6747"/>
</g>
</g>
</g>
</g>
</g>
</g>
</g>
<mask id="mask78_526_43433" style="mask-type:luminance" maskUnits="userSpaceOnUse" x="993" y="526" width="135" height="139">
<path d="M993.235 526.414H1127.69V664.583H993.235V526.414Z" fill="white"/>
</mask>
<g mask="url(#mask78_526_43433)">
<mask id="mask79_526_43433" style="mask-type:luminance" maskUnits="userSpaceOnUse" x="955" y="512" width="187" height="192">
<path d="M1050.89 703.252L955.919 605.668L1046.42 512.665L1141.39 610.249L1050.89 703.252Z" fill="white"/>
</mask>
<g mask="url(#mask79_526_43433)">
<mask id="mask80_526_43433" style="mask-type:luminance" maskUnits="userSpaceOnUse" x="994" y="527" width="133" height="137">
<path d="M995.336 621.485L1014.14 552.736C1017.39 540.849 1026.53 531.621 1038.16 528.501C1049.79 525.375 1062.15 528.824 1070.65 537.558L1117.01 585.198C1125.51 593.932 1128.86 606.636 1125.83 618.589C1122.78 630.535 1113.81 639.927 1102.24 643.271L1035.34 662.589C1024.05 665.854 1011.92 662.596 1003.63 654.072C995.336 645.548 992.165 633.089 995.336 621.485Z" fill="white"/>
</mask>
<g mask="url(#mask80_526_43433)">
<mask id="mask81_526_43433" style="mask-type:luminance" maskUnits="userSpaceOnUse" x="993" y="526" width="135" height="139">
<path d="M1127.69 526.414H993.234V664.583H1127.69V526.414Z" fill="white"/>
</mask>
<g mask="url(#mask81_526_43433)">
<mask id="mask82_526_43433" style="mask-type:luminance" maskUnits="userSpaceOnUse" x="955" y="512" width="187" height="192">
<path d="M1050.89 703.253L955.918 605.668L1046.42 512.665L1141.38 610.249L1050.89 703.253Z" fill="white"/>
</mask>
<g mask="url(#mask82_526_43433)">
<mask id="mask83_526_43433" style="mask-type:luminance" maskUnits="userSpaceOnUse" x="994" y="527" width="133" height="137">
<path d="M995.335 621.485L1014.14 552.736C1017.39 540.849 1026.53 531.621 1038.16 528.501C1049.78 525.375 1062.15 528.824 1070.65 537.558L1117.01 585.198C1125.51 593.933 1128.86 606.636 1125.83 618.589C1122.78 630.535 1113.81 639.927 1102.24 643.271L1035.34 662.589C1024.05 665.854 1011.92 662.596 1003.63 654.072C995.335 645.549 992.164 633.089 995.335 621.485Z" fill="white"/>
</mask>
<g mask="url(#mask83_526_43433)">
<path d="M1043.75 744.482L915.796 612.994L1029.93 495.71L1157.88 627.198L1043.75 744.482Z" fill="#AD6747"/>
</g>
</g>
</g>
</g>
</g>
</g>
<mask id="mask84_526_43433" style="mask-type:luminance" maskUnits="userSpaceOnUse" x="1039" y="465" width="27" height="28">
<path d="M1039.15 465.755H1065.38V492.715H1039.15V465.755Z" fill="white"/>
</mask>
<g mask="url(#mask84_526_43433)">
<mask id="mask85_526_43433" style="mask-type:luminance" maskUnits="userSpaceOnUse" x="1036" y="463" width="32" height="32">
<path d="M1036.55 471.218L1060.16 463.385L1067.46 486.639L1043.85 494.472L1036.55 471.218Z" fill="white"/>
</mask>
<g mask="url(#mask85_526_43433)">
<mask id="mask86_526_43433" style="mask-type:luminance" maskUnits="userSpaceOnUse" x="1040" y="466" width="26" height="27">
<path d="M1048.36 467.295C1052.87 465.801 1057.81 467.433 1060.6 471.356L1063.33 475.167C1065.06 477.576 1065.55 480.682 1064.65 483.519C1063.76 486.363 1061.6 488.587 1058.84 489.502L1052.51 491.602C1049.75 492.517 1046.72 492.01 1044.39 490.246C1042.05 488.476 1040.68 485.658 1040.7 482.677L1040.75 477.944C1040.79 473.08 1043.86 468.789 1048.36 467.295Z" fill="white"/>
</mask>
<g mask="url(#mask86_526_43433)">
<mask id="mask87_526_43433" style="mask-type:luminance" maskUnits="userSpaceOnUse" x="1039" y="465" width="27" height="28">
<path d="M1065.38 465.755H1039.15V492.714H1065.38V465.755Z" fill="white"/>
</mask>
<g mask="url(#mask87_526_43433)">
<mask id="mask88_526_43433" style="mask-type:luminance" maskUnits="userSpaceOnUse" x="1040" y="465" width="26" height="28">
<path d="M1040.46 465.755H1065.38V492.714H1040.46V465.755Z" fill="white"/>
</mask>
<g mask="url(#mask88_526_43433)">
<mask id="mask89_526_43433" style="mask-type:luminance" maskUnits="userSpaceOnUse" x="1036" y="463" width="32" height="32">
<path d="M1036.55 471.217L1060.16 463.385L1067.46 486.639L1043.85 494.472L1036.55 471.217Z" fill="white"/>
</mask>
<g mask="url(#mask89_526_43433)">
<mask id="mask90_526_43433" style="mask-type:luminance" maskUnits="userSpaceOnUse" x="1040" y="466" width="26" height="27">
<path d="M1048.36 467.294C1052.87 465.8 1057.81 467.433 1060.6 471.356L1063.33 475.167C1065.06 477.576 1065.55 480.682 1064.65 483.519C1063.76 486.362 1061.6 488.587 1058.84 489.502L1052.51 491.602C1049.75 492.517 1046.72 492.01 1044.39 490.246C1042.05 488.475 1040.68 485.658 1040.7 482.677L1040.75 477.944C1040.79 473.08 1043.86 468.789 1048.36 467.294Z" fill="white"/>
</mask>
<g mask="url(#mask90_526_43433)">
<path d="M1033.28 472.297L1063.42 462.299L1070.73 485.553L1040.59 495.558L1033.28 472.297Z" fill="#865139"/>
</g>
</g>
</g>
</g>
</g>
</g>
</g>
<path d="M1165.84 666.051C1171.64 732.753 1165.3 776.872 1146.84 798.402" stroke="#AD6747" stroke-width="4"/>
<path d="M1150.94 517.568C1158.78 595.663 1163.77 645.324 1165.9 666.551" stroke="#AD6747" stroke-width="4"/>
<path d="M1045.23 490.812C1009.5 542.382 988.591 618.681 982.519 719.694" stroke="#AD6747" stroke-width="4"/>
<path d="M982.526 719.701C985.902 759.667 995.612 784.441 1011.66 794.025" stroke="#AD6747" stroke-width="4"/>
<mask id="mask91_526_43433" style="mask-type:luminance" maskUnits="userSpaceOnUse" x="1035" y="531" width="19" height="16">
<path d="M1035.87 531.469H1053.9V546.634H1035.87V531.469Z" fill="white"/>
</mask>
<g mask="url(#mask91_526_43433)">
<mask id="mask92_526_43433" style="mask-type:luminance" maskUnits="userSpaceOnUse" x="1036" y="531" width="18" height="16">
<path d="M1053.65 534.036L1052.03 546.154L1036.19 543.922L1037.81 531.798L1053.65 534.036Z" fill="white"/>
</mask>
<g mask="url(#mask92_526_43433)">
<mask id="mask93_526_43433" style="mask-type:luminance" maskUnits="userSpaceOnUse" x="1036" y="532" width="17" height="14">
<path d="M1052.84 540.098C1053.29 536.748 1050.11 533.536 1045.74 532.924C1041.38 532.305 1037.47 534.517 1037.03 537.867C1036.58 541.211 1039.76 544.423 1044.12 545.041C1048.49 545.66 1052.39 543.442 1052.84 540.098Z" fill="white"/>
</mask>
<g mask="url(#mask93_526_43433)">
<mask id="mask94_526_43433" style="mask-type:luminance" maskUnits="userSpaceOnUse" x="1035" y="531" width="19" height="16">
<path d="M1053.9 531.469H1035.87V546.634H1053.9V531.469Z" fill="white"/>
</mask>
<g mask="url(#mask94_526_43433)">
<mask id="mask95_526_43433" style="mask-type:luminance" maskUnits="userSpaceOnUse" x="1036" y="531" width="18" height="15">
<path d="M1036.52 531.943H1053.44V545.693H1036.52V531.943Z" fill="white"/>
</mask>
<g mask="url(#mask95_526_43433)">
<mask id="mask96_526_43433" style="mask-type:luminance" maskUnits="userSpaceOnUse" x="1036" y="531" width="18" height="16">
<path d="M1053.65 534.037L1052.03 546.154L1036.19 543.923L1037.81 531.799L1053.65 534.037Z" fill="white"/>
</mask>
<g mask="url(#mask96_526_43433)">
<mask id="mask97_526_43433" style="mask-type:luminance" maskUnits="userSpaceOnUse" x="1036" y="532" width="17" height="14">
<path d="M1052.84 540.099C1053.29 536.749 1050.11 533.537 1045.74 532.924C1041.38 532.306 1037.47 534.517 1037.03 537.867C1036.58 541.211 1039.76 544.423 1044.12 545.042C1048.49 545.661 1052.39 543.442 1052.84 540.099Z" fill="white"/>
</mask>
<g mask="url(#mask97_526_43433)">
<path d="M1053.65 534.037L1052.03 546.154L1036.23 543.93L1037.85 531.806L1053.65 534.037Z" fill="#F6827C"/>
</g>
</g>
</g>
</g>
</g>
</g>
</g>
<mask id="mask98_526_43433" style="mask-type:luminance" maskUnits="userSpaceOnUse" x="1044" y="519" width="19" height="25">
<path d="M1044.07 519.674H1062.1V543.264H1044.07V519.674Z" fill="white"/>
</mask>
<g mask="url(#mask98_526_43433)">
<mask id="mask99_526_43433" style="mask-type:luminance" maskUnits="userSpaceOnUse" x="1044" y="519" width="19" height="24">
<path d="M1047.2 519.648L1062.36 521.787L1059.56 542.718L1044.4 540.579L1047.2 519.648Z" fill="white"/>
</mask>
<g mask="url(#mask99_526_43433)">
<mask id="mask100_526_43433" style="mask-type:luminance" maskUnits="userSpaceOnUse" x="1045" y="520" width="17" height="22">
<path d="M1054.78 520.714C1050.59 520.129 1046.57 524.321 1045.8 530.087C1045.03 535.853 1047.8 541.013 1051.98 541.599C1056.17 542.191 1060.19 537.999 1060.96 532.226C1061.73 526.461 1058.96 521.307 1054.78 520.714Z" fill="white"/>
</mask>
<g mask="url(#mask100_526_43433)">
<mask id="mask101_526_43433" style="mask-type:luminance" maskUnits="userSpaceOnUse" x="1044" y="519" width="19" height="25">
<path d="M1062.1 519.674H1044.07V543.264H1062.1V519.674Z" fill="white"/>
</mask>
<g mask="url(#mask101_526_43433)">
<mask id="mask102_526_43433" style="mask-type:luminance" maskUnits="userSpaceOnUse" x="1044" y="519" width="19" height="24">
<path d="M1044.79 519.806H1062.1V542.455H1044.79V519.806Z" fill="white"/>
</mask>
<g mask="url(#mask102_526_43433)">
<mask id="mask103_526_43433" style="mask-type:luminance" maskUnits="userSpaceOnUse" x="1044" y="519" width="19" height="24">
<path d="M1047.2 519.648L1062.36 521.787L1059.56 542.718L1044.4 540.579L1047.2 519.648Z" fill="white"/>
</mask>
<g mask="url(#mask103_526_43433)">
<mask id="mask104_526_43433" style="mask-type:luminance" maskUnits="userSpaceOnUse" x="1045" y="520" width="17" height="22">
<path d="M1054.78 520.714C1050.59 520.129 1046.57 524.321 1045.8 530.087C1045.03 535.853 1047.8 541.013 1051.98 541.599C1056.17 542.191 1060.19 537.999 1060.96 532.226C1061.73 526.461 1058.96 521.307 1054.78 520.714Z" fill="white"/>
</mask>
<g mask="url(#mask104_526_43433)">
<path d="M1047.2 519.648L1062.36 521.787L1059.57 542.659L1044.41 540.52L1047.2 519.648Z" fill="#402300"/>
</g>
</g>
</g>
</g>
</g>
</g>
</g>
<mask id="mask105_526_43433" style="mask-type:luminance" maskUnits="userSpaceOnUse" x="1126" y="544" width="17" height="15">
<path d="M1126.05 544.949H1142.45V558.429H1126.05V544.949Z" fill="white"/>
</mask>
<g mask="url(#mask105_526_43433)">
<mask id="mask106_526_43433" style="mask-type:luminance" maskUnits="userSpaceOnUse" x="1125" y="544" width="18" height="15">
<path d="M1142.77 546.615L1141.15 558.739L1125.3 556.501L1126.92 544.377L1142.77 546.615Z" fill="white"/>
</mask>
<g mask="url(#mask106_526_43433)">
<mask id="mask107_526_43433" style="mask-type:luminance" maskUnits="userSpaceOnUse" x="1126" y="545" width="16" height="13">
<path d="M1141.96 552.677C1142.4 549.333 1139.23 546.114 1134.86 545.502C1130.49 544.884 1126.59 547.095 1126.14 550.445C1125.69 553.789 1128.87 557.001 1133.24 557.62C1137.61 558.238 1141.51 556.02 1141.96 552.677Z" fill="white"/>
</mask>
<g mask="url(#mask107_526_43433)">
<mask id="mask108_526_43433" style="mask-type:luminance" maskUnits="userSpaceOnUse" x="1126" y="544" width="17" height="15">
<path d="M1142.45 544.949H1126.05V558.429H1142.45V544.949Z" fill="white"/>
</mask>
<g mask="url(#mask108_526_43433)">
<mask id="mask109_526_43433" style="mask-type:luminance" maskUnits="userSpaceOnUse" x="1125" y="544" width="18" height="15">
<path d="M1142.77 546.615L1141.15 558.739L1125.3 556.501L1126.92 544.377L1142.77 546.615Z" fill="white"/>
</mask>
<g mask="url(#mask109_526_43433)">
<mask id="mask110_526_43433" style="mask-type:luminance" maskUnits="userSpaceOnUse" x="1126" y="545" width="16" height="13">
<path d="M1141.96 552.677C1142.4 549.333 1139.23 546.114 1134.86 545.502C1130.49 544.884 1126.59 547.095 1126.14 550.445C1125.69 553.789 1128.87 557.001 1133.24 557.62C1137.61 558.238 1141.51 556.02 1141.96 552.677Z" fill="white"/>
</mask>
<g mask="url(#mask110_526_43433)">
<path d="M1142.77 546.615L1141.15 558.739L1125.35 556.508L1126.97 544.384L1142.77 546.615Z" fill="#F6827C"/>
</g>
</g>
</g>
</g>
</g>
</g>
<mask id="mask111_526_43433" style="mask-type:luminance" maskUnits="userSpaceOnUse" x="1119" y="529" width="17" height="25">
<path d="M1119.49 529.784H1135.89V553.374H1119.49V529.784Z" fill="white"/>
</mask>
<g mask="url(#mask111_526_43433)">
<mask id="mask112_526_43433" style="mask-type:luminance" maskUnits="userSpaceOnUse" x="1119" y="530" width="18" height="24">
<path d="M1121.81 530.179L1136.97 532.318L1134.17 553.249L1119.01 551.11L1121.81 530.179Z" fill="white"/>
</mask>
<g mask="url(#mask112_526_43433)">
<mask id="mask113_526_43433" style="mask-type:luminance" maskUnits="userSpaceOnUse" x="1120" y="531" width="16" height="22">
<path d="M1129.39 531.252C1125.21 530.66 1121.18 534.853 1120.41 540.619C1119.64 546.391 1122.41 551.545 1126.59 552.137C1130.78 552.723 1134.8 548.53 1135.57 542.764C1136.34 536.992 1133.58 531.838 1129.39 531.252Z" fill="white"/>
</mask>
<g mask="url(#mask113_526_43433)">
<mask id="mask114_526_43433" style="mask-type:luminance" maskUnits="userSpaceOnUse" x="1119" y="529" width="17" height="25">
<path d="M1135.89 529.785H1119.49V553.375H1135.89V529.785Z" fill="white"/>
</mask>
<g mask="url(#mask114_526_43433)">
<mask id="mask115_526_43433" style="mask-type:luminance" maskUnits="userSpaceOnUse" x="1119" y="530" width="17" height="23">
<path d="M1119.56 530.324H1135.89V552.973H1119.56V530.324Z" fill="white"/>
</mask>
<g mask="url(#mask115_526_43433)">
<mask id="mask116_526_43433" style="mask-type:luminance" maskUnits="userSpaceOnUse" x="1119" y="530" width="18" height="24">
<path d="M1121.81 530.18L1136.97 532.319L1134.17 553.25L1119.01 551.11L1121.81 530.18Z" fill="white"/>
</mask>
<g mask="url(#mask116_526_43433)">
<mask id="mask117_526_43433" style="mask-type:luminance" maskUnits="userSpaceOnUse" x="1120" y="531" width="16" height="22">
<path d="M1129.39 531.252C1125.21 530.66 1121.18 534.853 1120.41 540.619C1119.64 546.391 1122.41 551.545 1126.59 552.137C1130.78 552.723 1134.8 548.53 1135.57 542.764C1136.34 536.992 1133.58 531.838 1129.39 531.252Z" fill="white"/>
</mask>
<g mask="url(#mask117_526_43433)">
<path d="M1121.81 530.18L1136.96 532.319L1134.18 553.19L1119.02 551.051L1121.81 530.18Z" fill="#402300"/>
</g>
</g>
</g>
</g>
</g>
</g>
</g>
<mask id="mask118_526_43433" style="mask-type:luminance" maskUnits="userSpaceOnUse" x="1063" y="517" width="52" height="64">
<path d="M1063.74 517.99H1114.57V580.334H1063.74V517.99Z" fill="white"/>
</mask>
<g mask="url(#mask118_526_43433)">
<mask id="mask119_526_43433" style="mask-type:luminance" maskUnits="userSpaceOnUse" x="1060" y="515" width="58" height="69">
<path d="M1068.66 515.739L1117.33 522.61L1109.23 583.171L1060.57 576.299L1068.66 515.739Z" fill="white"/>
</mask>
<g mask="url(#mask119_526_43433)">
<mask id="mask120_526_43433" style="mask-type:luminance" maskUnits="userSpaceOnUse" x="1064" y="518" width="50" height="62">
<path d="M1092.99 519.174C1079.55 517.279 1066.85 529.265 1064.62 545.943C1062.39 562.622 1071.48 577.682 1084.92 579.577C1098.36 581.479 1111.06 569.494 1113.29 552.815C1115.52 536.13 1106.43 521.07 1092.99 519.174Z" fill="white"/>
</mask>
<g mask="url(#mask120_526_43433)">
<mask id="mask121_526_43433" style="mask-type:luminance" maskUnits="userSpaceOnUse" x="1063" y="517" width="52" height="64">
<path d="M1114.57 517.99H1063.74V580.334H1114.57V517.99Z" fill="white"/>
</mask>
<g mask="url(#mask121_526_43433)">
<mask id="mask122_526_43433" style="mask-type:luminance" maskUnits="userSpaceOnUse" x="1060" y="515" width="58" height="69">
<path d="M1068.66 515.739L1117.33 522.61L1109.23 583.171L1060.57 576.299L1068.66 515.739Z" fill="white"/>
</mask>
<g mask="url(#mask122_526_43433)">
<mask id="mask123_526_43433" style="mask-type:luminance" maskUnits="userSpaceOnUse" x="1064" y="518" width="50" height="62">
<path d="M1092.99 519.174C1079.55 517.279 1066.85 529.265 1064.62 545.943C1062.39 562.622 1071.48 577.682 1084.92 579.577C1098.36 581.479 1111.06 569.494 1113.29 552.815C1115.52 536.13 1106.43 521.07 1092.99 519.174Z" fill="white"/>
</mask>
<g mask="url(#mask123_526_43433)">
<path d="M1068.65 515.738L1117.33 522.61L1109.26 582.98L1060.59 576.108L1068.65 515.738Z" fill="#E2B282"/>
</g>
</g>
</g>
</g>
</g>
</g>
<mask id="mask124_526_43433" style="mask-type:luminance" maskUnits="userSpaceOnUse" x="1081" y="528" width="21" height="21">
<path d="M1081.78 528.099H1101.46V548.319H1081.78V528.099Z" fill="white"/>
</mask>
<g mask="url(#mask124_526_43433)">
<mask id="mask125_526_43433" style="mask-type:luminance" maskUnits="userSpaceOnUse" x="1080" y="529" width="21" height="20">
<path d="M1082.67 529.31L1100.63 531.844L1098.4 548.536L1080.44 546.002L1082.67 529.31Z" fill="white"/>
</mask>
<g mask="url(#mask125_526_43433)">
<mask id="mask126_526_43433" style="mask-type:luminance" maskUnits="userSpaceOnUse" x="1082" y="529" width="19" height="19">
<path d="M1091.37 546.397L1099.85 535.056C1100.32 534.438 1100.42 533.608 1100.14 532.884C1099.85 532.154 1099.2 531.647 1098.44 531.535L1084.82 529.613C1084.07 529.508 1083.31 529.824 1082.84 530.443C1082.37 531.061 1082.26 531.891 1082.55 532.615L1087.74 545.884C1088.02 546.601 1088.66 547.115 1089.41 547.22C1090.16 547.325 1090.91 547.009 1091.37 546.397Z" fill="white"/>
</mask>
<g mask="url(#mask126_526_43433)">
<mask id="mask127_526_43433" style="mask-type:luminance" maskUnits="userSpaceOnUse" x="1081" y="528" width="21" height="21">
<path d="M1101.45 528.099H1081.78V548.319H1101.45V528.099Z" fill="white"/>
</mask>
<g mask="url(#mask127_526_43433)">
<mask id="mask128_526_43433" style="mask-type:luminance" maskUnits="userSpaceOnUse" x="1082" y="529" width="19" height="19">
<path d="M1082.17 529.113H1100.67V547.713H1082.17V529.113Z" fill="white"/>
</mask>
<g mask="url(#mask128_526_43433)">
<mask id="mask129_526_43433" style="mask-type:luminance" maskUnits="userSpaceOnUse" x="1080" y="529" width="21" height="20">
<path d="M1082.67 529.31L1100.63 531.844L1098.4 548.536L1080.44 546.002L1082.67 529.31Z" fill="white"/>
</mask>
<g mask="url(#mask129_526_43433)">
<mask id="mask130_526_43433" style="mask-type:luminance" maskUnits="userSpaceOnUse" x="1082" y="529" width="19" height="19">
<path d="M1091.37 546.397L1099.85 535.056C1100.32 534.437 1100.42 533.608 1100.13 532.884C1099.85 532.154 1099.2 531.647 1098.44 531.535L1084.82 529.613C1084.06 529.508 1083.31 529.824 1082.84 530.442C1082.37 531.061 1082.26 531.89 1082.55 532.614L1087.74 545.884C1088.02 546.601 1088.66 547.114 1089.41 547.22C1090.16 547.325 1090.91 547.009 1091.37 546.397Z" fill="white"/>
</mask>
<g mask="url(#mask130_526_43433)">
<path d="M1081.17 529.099L1102.13 532.055L1099.62 550.879L1078.65 547.924L1081.17 529.099Z" fill="#402300"/>
</g>
</g>
</g>
</g>
</g>
</g>
</g>
<mask id="mask131_526_43433" style="mask-type:luminance" maskUnits="userSpaceOnUse" x="1085" y="538" width="10" height="18">
<path d="M1085.06 538.209H1094.9V555.059H1085.06V538.209Z" fill="white"/>
</mask>
<g mask="url(#mask131_526_43433)">
<mask id="mask132_526_43433" style="mask-type:luminance" maskUnits="userSpaceOnUse" x="1085" y="538" width="9" height="16">
<path d="M1087.43 538.808L1093.53 539.664L1091.69 553.387L1085.6 552.525L1087.43 538.808Z" fill="white"/>
</mask>
<g mask="url(#mask132_526_43433)">
<mask id="mask133_526_43433" style="mask-type:luminance" maskUnits="userSpaceOnUse" x="1085" y="538" width="10" height="18">
<path d="M1094.9 538.209H1085.06V555.059H1094.9V538.209Z" fill="white"/>
</mask>
<g mask="url(#mask133_526_43433)">
<mask id="mask134_526_43433" style="mask-type:luminance" maskUnits="userSpaceOnUse" x="1085" y="538" width="9" height="16">
<path d="M1085.32 538.413H1093.58V553.775H1085.32V538.413Z" fill="white"/>
</mask>
<g mask="url(#mask134_526_43433)">
<mask id="mask135_526_43433" style="mask-type:luminance" maskUnits="userSpaceOnUse" x="1085" y="538" width="9" height="16">
<path d="M1087.43 538.808L1093.53 539.664L1091.69 553.387L1085.6 552.525L1087.43 538.808Z" fill="white"/>
</mask>
<g mask="url(#mask135_526_43433)">
<path d="M1087.43 538.808L1093.53 539.664L1091.69 553.387L1085.6 552.525L1087.43 538.808Z" fill="#402300"/>
</g>
</g>
</g>
</g>
</g>
<path d="M1064.93 478.913C1095.62 466.412 1120.8 473.797 1140.44 501.067" stroke="#AD6747" stroke-width="4"/>
<mask id="mask136_526_43433" style="mask-type:luminance" maskUnits="userSpaceOnUse" x="1137" y="494" width="27" height="30">
<path d="M1137.53 494.4H1163.76V523.044H1137.53V494.4Z" fill="white"/>
</mask>
<g mask="url(#mask136_526_43433)">
<mask id="mask137_526_43433" style="mask-type:luminance" maskUnits="userSpaceOnUse" x="1133" y="489" width="36" height="37">
<path d="M1151.28 489.996L1168.06 508.762L1150.55 525.295L1133.77 506.53L1151.28 489.996Z" fill="white"/>
</mask>
<g mask="url(#mask137_526_43433)">
<mask id="mask138_526_43433" style="mask-type:luminance" maskUnits="userSpaceOnUse" x="1137" y="495" width="26" height="27">
<path d="M1159.68 499.389C1162.89 502.976 1163.5 508.261 1161.2 512.513L1158.97 516.653C1157.56 519.266 1155.02 521.024 1152.14 521.373C1149.26 521.728 1146.38 520.635 1144.42 518.437L1139.92 513.415C1137.96 511.217 1137.14 508.182 1137.73 505.26C1138.32 502.337 1140.23 499.882 1142.88 498.658L1147.09 496.723C1151.41 494.735 1156.48 495.808 1159.68 499.389Z" fill="white"/>
</mask>
<g mask="url(#mask138_526_43433)">
<mask id="mask139_526_43433" style="mask-type:luminance" maskUnits="userSpaceOnUse" x="1137" y="494" width="27" height="30">
<path d="M1163.76 494.4H1137.53V523.045H1163.76V494.4Z" fill="white"/>
</mask>
<g mask="url(#mask139_526_43433)">
<mask id="mask140_526_43433" style="mask-type:luminance" maskUnits="userSpaceOnUse" x="1137" y="494" width="27" height="28">
<path d="M1137.53 494.4H1163.64V521.833H1137.53V494.4Z" fill="white"/>
</mask>
<g mask="url(#mask140_526_43433)">
<mask id="mask141_526_43433" style="mask-type:luminance" maskUnits="userSpaceOnUse" x="1133" y="489" width="36" height="37">
<path d="M1151.28 489.996L1168.06 508.762L1150.55 525.296L1133.77 506.53L1151.28 489.996Z" fill="white"/>
</mask>
<g mask="url(#mask141_526_43433)">
<mask id="mask142_526_43433" style="mask-type:luminance" maskUnits="userSpaceOnUse" x="1137" y="495" width="26" height="27">
<path d="M1159.68 499.389C1162.89 502.976 1163.5 508.261 1161.2 512.513L1158.97 516.653C1157.56 519.266 1155.02 521.024 1152.14 521.373C1149.26 521.728 1146.38 520.635 1144.42 518.437L1139.92 513.415C1137.96 511.217 1137.14 508.182 1137.73 505.26C1138.32 502.338 1140.23 499.883 1142.88 498.658L1147.09 496.723C1151.41 494.735 1156.48 495.808 1159.68 499.389Z" fill="white"/>
</mask>
<g mask="url(#mask142_526_43433)">
<path d="M1148.96 487.397L1170.39 511.368L1152.88 527.902L1131.44 503.93L1148.96 487.397Z" fill="#865139"/>
</g>
</g>
</g>
</g>
</g>
</g>
</g>
<path d="M1084.14 760.358C1090.5 772.784 1096.87 785.211 1103.25 797.638" stroke="#AD6747" stroke-width="4"/>
<path d="M1071.3 757.021C1065.58 769.908 1059.87 782.796 1054.15 795.683" stroke="#AD6747" stroke-width="4"/>
<mask id="mask143_526_43433" style="mask-type:luminance" maskUnits="userSpaceOnUse" x="1050" y="754" width="54" height="9">
<path d="M1102.43 755.43V761.725H1051.01V755.43H1102.43Z" fill="white" stroke="white" stroke-width="1.33333"/>
</mask>
<g mask="url(#mask143_526_43433)">
<mask id="mask144_526_43433" style="mask-type:luminance" maskUnits="userSpaceOnUse" x="1050" y="754" width="54" height="9">
<path d="M1053.04 755.452C1068.95 756.387 1080.1 756.137 1087.7 755.916C1091.53 755.805 1094.42 755.703 1096.58 755.762C1097.45 755.785 1098.19 755.837 1098.81 755.921C1098.7 755.992 1098.58 756.067 1098.47 756.145C1098.09 756.414 1097.73 756.731 1097.45 757.065C1097.21 757.344 1096.98 757.69 1096.89 758.072L1096.86 758.222C1096.8 758.648 1096.96 759.102 1097.13 759.454C1097.31 759.836 1097.57 760.235 1097.85 760.6C1098.01 760.81 1098.19 761.013 1098.37 761.202C1098.04 761.23 1097.7 761.256 1097.34 761.281L1095.02 761.443C1090.99 761.692 1081.54 761.817 1072.48 761.533C1067.96 761.391 1063.54 761.147 1059.96 760.766C1058.16 760.576 1056.59 760.353 1055.32 760.094C1054.03 759.831 1053.11 759.543 1052.59 759.251L1052.59 759.25L1052.37 759.12C1051.33 758.458 1051.01 757.625 1051.08 757.144L1051.09 757.099V757.054C1051.09 757.101 1051.08 757.012 1051.3 756.769C1051.49 756.561 1051.76 756.334 1052.05 756.116C1052.34 755.901 1052.63 755.71 1052.85 755.572C1052.92 755.525 1052.99 755.485 1053.04 755.452ZM1100.76 756.576L1100.8 756.582H1100.84C1100.85 756.582 1100.86 756.586 1100.89 756.595C1101.36 756.954 1101.75 757.479 1102 758.037C1102.25 758.58 1102.33 759.069 1102.3 759.39C1102.29 759.433 1102.28 759.477 1102.26 759.521C1102.23 759.594 1102.2 759.665 1102.17 759.735C1102.13 759.791 1102.08 759.858 1102.01 759.93C1101.83 760.113 1101.59 760.302 1101.33 760.469C1101.07 760.635 1100.79 760.769 1100.55 760.852C1100.35 760.923 1100.21 760.942 1100.13 760.943C1100.04 760.903 1099.88 760.803 1099.66 760.607C1099.41 760.388 1099.15 760.099 1098.91 759.787C1098.67 759.474 1098.46 759.156 1098.33 758.88C1098.27 758.742 1098.23 758.627 1098.2 758.537C1098.18 758.457 1098.18 758.418 1098.18 758.413L1098.18 758.405L1098.18 758.396C1098.19 758.336 1098.25 758.174 1098.46 757.928C1098.66 757.697 1098.93 757.454 1099.24 757.233C1099.55 757.013 1099.88 756.831 1100.17 756.714C1100.48 756.588 1100.68 756.566 1100.76 756.576Z" fill="white" stroke="white" stroke-width="1.33333"/>
</mask>
<g mask="url(#mask144_526_43433)">
<mask id="mask145_526_43433" style="mask-type:luminance" maskUnits="userSpaceOnUse" x="1048" y="753" width="56" height="11">
<path d="M1102.43 754.555V763.331H1049.65V754.555H1102.43Z" fill="white" stroke="white" stroke-width="1.33333"/>
</mask>
<g mask="url(#mask145_526_43433)">
<mask id="mask146_526_43433" style="mask-type:luminance" maskUnits="userSpaceOnUse" x="1050" y="754" width="54" height="9">
<path d="M1102.43 755.43V761.725H1051.01V755.43H1102.43Z" fill="white" stroke="white" stroke-width="1.33333"/>
</mask>
<g mask="url(#mask146_526_43433)">
<mask id="mask147_526_43433" style="mask-type:luminance" maskUnits="userSpaceOnUse" x="1050" y="754" width="54" height="9">
<path d="M1053.04 755.452C1068.95 756.387 1080.1 756.137 1087.7 755.916C1091.53 755.805 1094.42 755.703 1096.58 755.762C1097.45 755.786 1098.19 755.838 1098.81 755.921C1098.7 755.992 1098.58 756.067 1098.47 756.145C1098.09 756.415 1097.73 756.731 1097.45 757.065C1097.21 757.344 1096.98 757.69 1096.89 758.072L1096.86 758.222C1096.8 758.649 1096.96 759.102 1097.13 759.454C1097.31 759.836 1097.57 760.235 1097.85 760.601C1098.01 760.81 1098.19 761.013 1098.37 761.202C1098.04 761.23 1097.7 761.256 1097.34 761.281L1095.02 761.443C1090.99 761.692 1081.54 761.817 1072.48 761.533C1067.96 761.391 1063.54 761.147 1059.96 760.767C1058.16 760.576 1056.59 760.353 1055.32 760.094C1054.03 759.831 1053.11 759.543 1052.59 759.251L1052.59 759.25L1052.37 759.12C1051.33 758.459 1051.01 757.625 1051.08 757.144L1051.09 757.1V757.054C1051.09 757.101 1051.08 757.012 1051.3 756.769C1051.49 756.561 1051.76 756.334 1052.05 756.116C1052.34 755.901 1052.63 755.71 1052.85 755.572C1052.92 755.525 1052.99 755.485 1053.04 755.452ZM1100.76 756.576L1100.8 756.582H1100.84C1100.85 756.582 1100.86 756.586 1100.89 756.595C1101.36 756.954 1101.75 757.479 1102 758.037C1102.25 758.581 1102.33 759.069 1102.3 759.39C1102.29 759.433 1102.28 759.477 1102.26 759.521C1102.23 759.595 1102.2 759.665 1102.17 759.735C1102.13 759.791 1102.08 759.858 1102.01 759.93C1101.83 760.113 1101.59 760.302 1101.33 760.469C1101.07 760.635 1100.79 760.769 1100.55 760.852C1100.35 760.923 1100.21 760.942 1100.13 760.943C1100.04 760.903 1099.88 760.803 1099.66 760.607C1099.41 760.388 1099.15 760.099 1098.91 759.787C1098.67 759.474 1098.46 759.156 1098.33 758.88C1098.27 758.742 1098.23 758.627 1098.2 758.537C1098.18 758.457 1098.18 758.418 1098.18 758.413L1098.18 758.405L1098.18 758.396C1098.19 758.336 1098.25 758.174 1098.46 757.928C1098.66 757.697 1098.93 757.454 1099.24 757.233C1099.55 757.013 1099.88 756.832 1100.17 756.714C1100.48 756.588 1100.68 756.566 1100.76 756.576Z" fill="white" stroke="white" stroke-width="1.33333"/>
</mask>
<g mask="url(#mask147_526_43433)">
<path d="M1102.43 754.555V763.331H1049.65V754.555H1102.43Z" fill="#865139" stroke="#865139" stroke-width="1.33333"/>
</g>
</g>
</g>
</g>
</g>
<mask id="mask148_526_43433" style="mask-type:luminance" maskUnits="userSpaceOnUse" x="1100" y="794" width="53" height="9">
<path d="M1100.04 794.893H1152.81V802.522H1100.04V794.893Z" fill="white"/>
</mask>
<g mask="url(#mask148_526_43433)">
<mask id="mask149_526_43433" style="mask-type:luminance" maskUnits="userSpaceOnUse" x="1100" y="794" width="53" height="9">
<path d="M1102.58 794.907C1134.56 796.802 1147.35 793.893 1150.79 796.045C1152.14 796.927 1152.88 798.823 1152.63 799.837C1152.39 800.719 1150.54 801.857 1149.68 801.732C1148.82 801.475 1147.1 799.33 1147.22 798.448C1147.35 797.434 1149.56 795.92 1150.54 796.045C1151.4 796.045 1152.63 797.684 1152.75 798.573C1152.88 799.33 1152.51 800.468 1151.77 801.1C1150.54 801.982 1148.08 801.982 1144.76 802.239C1136.65 802.739 1106.89 802.739 1101.97 799.962C1100.62 799.205 1100 798.066 1100.12 797.184C1100.12 796.295 1102.58 794.907 1102.58 794.907Z" fill="white"/>
</mask>
<g mask="url(#mask149_526_43433)">
<mask id="mask150_526_43433" style="mask-type:luminance" maskUnits="userSpaceOnUse" x="1099" y="794" width="55" height="9">
<path d="M1153.93 794.328H1099.82V802.753H1153.93V794.328Z" fill="white"/>
</mask>
<g mask="url(#mask150_526_43433)">
<mask id="mask151_526_43433" style="mask-type:luminance" maskUnits="userSpaceOnUse" x="1100" y="794" width="53" height="9">
<path d="M1100.04 794.894H1152.81V802.522H1100.04V794.894Z" fill="white"/>
</mask>
<g mask="url(#mask151_526_43433)">
<mask id="mask152_526_43433" style="mask-type:luminance" maskUnits="userSpaceOnUse" x="1100" y="794" width="53" height="9">
<path d="M1102.58 794.907C1134.56 796.803 1147.35 793.894 1150.79 796.046C1152.14 796.928 1152.88 798.823 1152.63 799.837C1152.39 800.719 1150.54 801.858 1149.68 801.733C1148.82 801.476 1147.1 799.33 1147.22 798.448C1147.35 797.435 1149.56 795.921 1150.54 796.046C1151.4 796.046 1152.63 797.685 1152.75 798.573C1152.88 799.33 1152.51 800.469 1151.77 801.101C1150.54 801.983 1148.08 801.983 1144.76 802.239C1136.65 802.74 1106.89 802.74 1101.97 799.962C1100.62 799.205 1100 798.067 1100.12 797.185C1100.12 796.296 1102.58 794.907 1102.58 794.907Z" fill="white"/>
</mask>
<g mask="url(#mask152_526_43433)">
<path d="M1153.93 794.328H1099.82V802.753H1153.93V794.328Z" fill="#865139"/>
</g>
</g>
</g>
</g>
</g>
<mask id="mask153_526_43433" style="mask-type:luminance" maskUnits="userSpaceOnUse" x="1003" y="793" width="53" height="8">
<path d="M1003 793.317H1055.77V800.946H1003V793.317Z" fill="white"/>
</mask>
<g mask="url(#mask153_526_43433)">
<mask id="mask154_526_43433" style="mask-type:luminance" maskUnits="userSpaceOnUse" x="1003" y="793" width="53" height="8">
<path d="M1005.54 793.33C1037.52 795.226 1050.31 792.317 1053.75 794.469C1055.1 795.351 1055.84 797.247 1055.59 798.26C1055.35 799.142 1053.5 800.281 1052.64 800.156C1051.78 799.899 1050.06 797.754 1050.18 796.872C1050.31 795.858 1052.52 794.344 1053.5 794.469C1054.36 794.469 1055.59 796.108 1055.71 796.997C1055.84 797.754 1055.47 798.892 1054.73 799.524C1053.5 800.406 1051.04 800.406 1047.72 800.663C1039.61 801.163 1009.85 801.163 1004.93 798.385C1003.58 797.628 1002.96 796.49 1003.08 795.608C1003.08 794.719 1005.54 793.33 1005.54 793.33Z" fill="white"/>
</mask>
<g mask="url(#mask154_526_43433)">
<mask id="mask155_526_43433" style="mask-type:luminance" maskUnits="userSpaceOnUse" x="1002" y="792" width="55" height="10">
<path d="M1056.89 792.751H1002.78V801.176H1056.89V792.751Z" fill="white"/>
</mask>
<g mask="url(#mask155_526_43433)">
<mask id="mask156_526_43433" style="mask-type:luminance" maskUnits="userSpaceOnUse" x="1003" y="793" width="53" height="8">
<path d="M1003 793.318H1055.77V800.946H1003V793.318Z" fill="white"/>
</mask>
<g mask="url(#mask156_526_43433)">
<mask id="mask157_526_43433" style="mask-type:luminance" maskUnits="userSpaceOnUse" x="1003" y="793" width="53" height="8">
<path d="M1005.54 793.331C1037.52 795.227 1050.31 792.317 1053.75 794.47C1055.1 795.352 1055.84 797.247 1055.59 798.261C1055.35 799.143 1053.5 800.282 1052.64 800.157C1051.78 799.9 1050.06 797.754 1050.18 796.872C1050.31 795.858 1052.52 794.345 1053.5 794.47C1054.36 794.47 1055.59 796.109 1055.71 796.997C1055.84 797.754 1055.47 798.893 1054.73 799.525C1053.5 800.407 1051.04 800.407 1047.72 800.663C1039.61 801.164 1009.85 801.164 1004.93 798.386C1003.58 797.629 1002.96 796.49 1003.08 795.608C1003.08 794.72 1005.54 793.331 1005.54 793.331Z" fill="white"/>
</mask>
<g mask="url(#mask157_526_43433)">
<path d="M1056.89 792.752H1002.78V801.177H1056.89V792.752Z" fill="#865139"/>
</g>
</g>
</g>
</g>
</g>
</g>
<defs>
<filter id="filter0_d_526_43433" x="967.645" y="462.747" width="231.049" height="339.745" filterUnits="userSpaceOnUse" color-interpolation-filters="sRGB">
<feFlood flood-opacity="0" result="BackgroundImageFix"/>
<feColorMatrix in="SourceAlpha" type="matrix" values="0 0 0 0 0 0 0 0 0 0 0 0 0 0 0 0 0 0 127 0" result="hardAlpha"/>
<feOffset dx="10" dy="-4"/>
<feComposite in2="hardAlpha" operator="out"/>
<feColorMatrix type="matrix" values="0 0 0 0 0 0 0 0 0 0 0 0 0 0 0 0 0 0 0.08 0"/>
<feBlend mode="normal" in2="BackgroundImageFix" result="effect1_dropShadow_526_43433"/>
<feBlend mode="normal" in="SourceGraphic" in2="effect1_dropShadow_526_43433" result="shape"/>
</filter>
</defs>
</svg>
