<svg width="766" height="803" viewBox="0 0 766 803" fill="none" xmlns="http://www.w3.org/2000/svg">
<g clip-path="url(#clip0_517_22162)">
<rect x="4" y="-110" width="762" height="1026" fill="white"/>
<rect x="4" width="762" height="1024" fill="#4F9CF9"/>
<ellipse cx="411.5" cy="475.5" rx="286.5" ry="281.5" fill="#4F9CF9"/>
<ellipse cx="442.701" cy="419.913" rx="266.5" ry="288" fill="white" fill-opacity="0.7"/>
<ellipse cx="274.201" cy="504.413" rx="229" ry="249.5" fill="white" fill-opacity="0.7"/>
<g filter="url(#filter0_d_517_22162)">
<mask id="mask0_517_22162" style="mask-type:luminance" maskUnits="userSpaceOnUse" x="119" y="280" width="523" height="493">
<path d="M119.593 324.546L600.806 280.822L641.512 728.818L160.298 772.542L119.593 324.546Z" fill="white"/>
</mask>
<g mask="url(#mask0_517_22162)">
<mask id="mask1_517_22162" style="mask-type:luminance" maskUnits="userSpaceOnUse" x="123" y="277" width="541" height="484">
<path d="M185.067 277.039L663.977 331.399L602.123 760.089L123.235 705.727L185.067 277.039Z" fill="white"/>
</mask>
<g mask="url(#mask1_517_22162)">
<mask id="mask2_517_22162" style="mask-type:luminance" maskUnits="userSpaceOnUse" x="146" y="302" width="481" height="440">
<path d="M424.827 304.264C516.23 314.641 589.5 378.457 606.718 462.686L623.488 544.672C634.046 596.334 617.265 649.92 578.353 688.661C539.442 727.402 483.146 746.591 427.092 740.226L298.875 725.659C242.799 719.295 193.771 688.171 167.121 641.977C140.47 595.783 139.41 540.186 164.313 492.546L203.8 416.948C244.391 339.279 333.425 293.887 424.827 304.264Z" fill="white"/>
</mask>
<g mask="url(#mask2_517_22162)">
<mask id="mask3_517_22162" style="mask-type:luminance" maskUnits="userSpaceOnUse" x="119" y="280" width="523" height="493">
<path d="M600.807 280.822L119.593 324.546L160.299 772.543L641.513 728.819L600.807 280.822Z" fill="white"/>
</mask>
<g mask="url(#mask3_517_22162)">
<mask id="mask4_517_22162" style="mask-type:luminance" maskUnits="userSpaceOnUse" x="123" y="277" width="541" height="484">
<path d="M185.067 277.04L663.977 331.399L602.123 760.089L123.235 705.728L185.067 277.04Z" fill="white"/>
</mask>
<g mask="url(#mask4_517_22162)">
<mask id="mask5_517_22162" style="mask-type:luminance" maskUnits="userSpaceOnUse" x="146" y="302" width="481" height="440">
<path d="M424.827 304.264C516.23 314.642 589.5 378.458 606.718 462.686L623.488 544.672C634.046 596.334 617.265 649.92 578.353 688.662C539.442 727.403 483.146 746.592 427.092 740.227L298.875 725.659C242.799 719.296 193.772 688.171 167.121 641.978C140.47 595.784 139.41 540.186 164.313 492.546L203.8 416.949C244.392 339.279 333.425 293.887 424.827 304.264Z" fill="white"/>
</mask>
<g mask="url(#mask5_517_22162)">
<path d="M118.718 269.513L730.351 338.944L668.497 767.634L56.8641 698.203L118.718 269.513Z" fill="#AD6747"/>
</g>
</g>
</g>
</g>
</g>
</g>
<mask id="mask6_517_22162" style="mask-type:luminance" maskUnits="userSpaceOnUse" x="81" y="514" width="610" height="721">
<path d="M81.1956 564.53L629.549 514.706L690.429 1184.72L142.075 1234.55L81.1956 564.53Z" fill="white"/>
</mask>
<g mask="url(#mask6_517_22162)">
<mask id="mask7_517_22162" style="mask-type:luminance" maskUnits="userSpaceOnUse" x="103" y="538" width="570" height="678">
<path d="M448.059 546.703C419.13 540.218 386.634 537.172 355.253 540.023C323.895 542.872 294.171 550.701 267.173 562.287C266.603 562.63 266.028 562.682 265.455 563.004C164.274 608.69 96.021 711.25 104.749 823.755L123.411 1029.14C128.361 1083.62 156.351 1133.76 201.228 1168.52C246.104 1203.28 304.197 1219.82 362.712 1214.5L469.946 1204.76C591.709 1193.69 682.08 1092.84 671.78 979.481L653.13 774.218C641.359 661.119 556.913 572.453 448.059 546.703Z" fill="white"/>
</mask>
<g mask="url(#mask7_517_22162)">
<mask id="mask8_517_22162" style="mask-type:luminance" maskUnits="userSpaceOnUse" x="78" y="511" width="617" height="726">
<path d="M633.2 511.697L78.3886 562.108L139.687 1236.74L694.498 1186.33L633.2 511.697Z" fill="white"/>
</mask>
<g mask="url(#mask8_517_22162)">
<mask id="mask9_517_22162" style="mask-type:luminance" maskUnits="userSpaceOnUse" x="81" y="514" width="610" height="721">
<path d="M81.1956 564.531L629.549 514.706L690.429 1184.72L142.075 1234.55L81.1956 564.531Z" fill="white"/>
</mask>
<g mask="url(#mask9_517_22162)">
<mask id="mask10_517_22162" style="mask-type:luminance" maskUnits="userSpaceOnUse" x="103" y="538" width="570" height="678">
<path d="M448.059 546.703C419.13 540.219 386.634 537.173 355.253 540.024C323.895 542.873 294.171 550.701 267.173 562.288C266.603 562.63 266.028 562.683 265.455 563.004C164.274 608.691 96.021 711.251 104.749 823.755L123.411 1029.14C128.361 1083.62 156.351 1133.76 201.228 1168.52C246.104 1203.28 304.197 1219.82 362.712 1214.5L469.946 1204.76C591.709 1193.69 682.08 1092.84 671.78 979.482L653.13 774.219C641.359 661.119 556.913 572.454 448.059 546.703Z" fill="white"/>
</mask>
<g mask="url(#mask10_517_22162)">
<path d="M690.429 1184.73L142.075 1234.55L81.196 564.531L629.55 514.707L690.429 1184.73Z" fill="#AD6747"/>
</g>
</g>
</g>
</g>
</g>
<mask id="mask11_517_22162" style="mask-type:luminance" maskUnits="userSpaceOnUse" x="-20" y="593" width="253" height="369">
<path d="M-19.6832 613.531L201.109 593.47L232.716 941.326L11.9237 961.388L-19.6832 613.531Z" fill="white"/>
</mask>
<g mask="url(#mask11_517_22162)">
<mask id="mask12_517_22162" style="mask-type:luminance" maskUnits="userSpaceOnUse" x="-34" y="579" width="284" height="400">
<path d="M101.896 579.09L249.309 627.015L113.554 978.558L-33.88 930.655L101.896 579.09Z" fill="white"/>
</mask>
<g mask="url(#mask12_517_22162)">
<mask id="mask13_517_22162" style="mask-type:luminance" maskUnits="userSpaceOnUse" x="7" y="601" width="201" height="356">
<path d="M175.602 603.053C134.891 589.834 71.5179 657.763 34.0447 754.787C-3.42844 851.81 -0.792933 941.183 39.9188 954.402C80.6323 967.641 144.005 899.713 181.478 802.689C218.929 705.667 216.316 616.292 175.602 603.053Z" fill="white"/>
</mask>
<g mask="url(#mask13_517_22162)">
<mask id="mask14_517_22162" style="mask-type:luminance" maskUnits="userSpaceOnUse" x="-20" y="593" width="253" height="369">
<path d="M201.109 593.471L-19.683 613.532L11.9239 961.388L232.716 941.327L201.109 593.471Z" fill="white"/>
</mask>
<g mask="url(#mask14_517_22162)">
<mask id="mask15_517_22162" style="mask-type:luminance" maskUnits="userSpaceOnUse" x="-34" y="579" width="284" height="400">
<path d="M101.896 579.09L249.309 627.015L113.554 978.558L-33.8798 930.655L101.896 579.09Z" fill="white"/>
</mask>
<g mask="url(#mask15_517_22162)">
<mask id="mask16_517_22162" style="mask-type:luminance" maskUnits="userSpaceOnUse" x="7" y="601" width="201" height="356">
<path d="M175.603 603.053C134.891 589.834 71.5181 657.763 34.0449 754.787C-3.42825 851.81 -0.792751 941.183 39.9189 954.402C80.6325 967.641 144.005 899.713 181.478 802.689C218.93 705.667 216.316 616.292 175.603 603.053Z" fill="white"/>
</mask>
<g mask="url(#mask16_517_22162)">
<path d="M101.896 579.091L249.309 627.016L113.554 978.558L-33.8796 930.656L101.896 579.091Z" fill="#865139"/>
</g>
</g>
</g>
</g>
</g>
</g>
<mask id="mask17_517_22162" style="mask-type:luminance" maskUnits="userSpaceOnUse" x="-20" y="593" width="253" height="369">
<path d="M200.505 594.194L231.992 940.722L12.5276 960.663L-18.9586 614.135L200.505 594.194Z" fill="white" stroke="white" stroke-width="1.33333"/>
</mask>
<g mask="url(#mask17_517_22162)">
<mask id="mask18_517_22162" style="mask-type:luminance" maskUnits="userSpaceOnUse" x="-35" y="579" width="286" height="401">
<path d="M249.283 627.708L113.557 979.166L-33.4366 931.377L102.29 579.918L249.283 627.708Z" fill="white" stroke="white" stroke-width="1.33333"/>
</mask>
<g mask="url(#mask18_517_22162)">
<mask id="mask19_517_22162" style="mask-type:luminance" maskUnits="userSpaceOnUse" x="-36" y="579" width="286" height="404">
<path d="M248.824 627.562L112.192 981.324L-34.3403 933.701L102.269 579.941L248.824 627.562Z" fill="white" stroke="white" stroke-width="1.33333"/>
</mask>
<g mask="url(#mask19_517_22162)">
<mask id="mask20_517_22162" style="mask-type:luminance" maskUnits="userSpaceOnUse" x="7" y="601" width="201" height="355">
<path d="M141.864 608.137C154.017 602.161 165.421 600.456 175.374 603.689C185.325 606.92 193.002 614.817 198.334 626.455C203.669 638.1 206.633 653.446 207.162 671.453C208.219 707.464 199.534 753.969 180.831 802.409C162.128 850.849 136.961 891.998 111.42 919.372C98.6484 933.06 85.8053 943.282 73.6529 949.257C61.6897 955.14 50.4509 956.884 40.6089 953.852L40.1414 953.704C30.1911 950.474 22.5126 942.576 17.1785 930.938C11.8418 919.293 8.87603 903.947 8.34587 885.94C7.28569 849.929 15.9705 803.425 34.6848 754.983C53.3876 706.544 78.5543 665.395 104.096 638.021C116.867 624.332 129.711 614.112 141.864 608.137Z" fill="white" stroke="white" stroke-width="1.33333"/>
</mask>
<g mask="url(#mask20_517_22162)">
<path d="M175.58 603.055C134.891 589.835 71.516 657.743 34.0631 754.744C-3.41192 851.747 -0.776386 941.12 39.9353 954.338C80.6248 967.559 143.999 899.651 181.452 802.65C218.905 705.649 216.292 616.274 175.58 603.055Z" stroke="#865139" stroke-width="8"/>
</g>
</g>
</g>
</g>
<mask id="mask21_517_22162" style="mask-type:luminance" maskUnits="userSpaceOnUse" x="42" y="691" width="525" height="514">
<path d="M42.7622 735.395L523.976 691.671L566.598 1160.75L85.3837 1204.47L42.7622 735.395Z" fill="white"/>
</mask>
<g mask="url(#mask21_517_22162)">
<mask id="mask22_517_22162" style="mask-type:luminance" maskUnits="userSpaceOnUse" x="-86" y="619" width="666" height="609">
<path d="M-85.4581 847.909L359.108 619.986L579.316 999.383L134.75 1227.31L-85.4581 847.909Z" fill="white"/>
</mask>
<g mask="url(#mask22_517_22162)">
<mask id="mask23_517_22162" style="mask-type:luminance" maskUnits="userSpaceOnUse" x="79" y="723" width="467" height="473">
<path d="M229.257 735.907L500.847 890.87C529.255 907.075 546.066 936.269 544.956 967.487C543.846 998.704 525.011 1027.23 495.502 1042.35L217.732 1184.77C188.226 1199.9 152.498 1199.33 123.975 1183.32C95.4499 1167.29 78.447 1138.2 79.312 1106.99L87.7076 808.469C88.5748 777.523 107.16 749.181 136.41 734.172C165.662 719.184 201.108 719.845 229.257 735.907Z" fill="white"/>
</mask>
<g mask="url(#mask23_517_22162)">
<mask id="mask24_517_22162" style="mask-type:luminance" maskUnits="userSpaceOnUse" x="42" y="691" width="525" height="514">
<path d="M523.975 691.671L42.7614 735.396L85.3829 1204.47L566.597 1160.75L523.975 691.671Z" fill="white"/>
</mask>
<g mask="url(#mask24_517_22162)">
<mask id="mask25_517_22162" style="mask-type:luminance" maskUnits="userSpaceOnUse" x="-86" y="619" width="666" height="609">
<path d="M-85.459 847.909L359.107 619.987L579.315 999.384L134.749 1227.31L-85.459 847.909Z" fill="white"/>
</mask>
<g mask="url(#mask25_517_22162)">
<mask id="mask26_517_22162" style="mask-type:luminance" maskUnits="userSpaceOnUse" x="79" y="723" width="467" height="473">
<path d="M229.256 735.908L500.846 890.871C529.254 907.076 546.065 936.27 544.955 967.487C543.845 998.704 525.009 1027.24 495.501 1042.35L217.731 1184.77C188.225 1199.9 152.497 1199.33 123.974 1183.32C95.4487 1167.3 78.4457 1138.2 79.3107 1106.99L87.7064 808.469C88.5736 777.523 107.158 749.181 136.409 734.173C165.661 719.184 201.107 719.846 229.256 735.908Z" fill="white"/>
</mask>
<g mask="url(#mask26_517_22162)">
<path d="M-189.598 801.906L374.317 512.801L638.968 968.805L75.0745 1257.91L-189.598 801.906Z" fill="#AD6747"/>
</g>
</g>
</g>
</g>
</g>
</g>
<mask id="mask27_517_22162" style="mask-type:luminance" maskUnits="userSpaceOnUse" x="272" y="713" width="457" height="450">
<path d="M272.568 751.712L691.507 713.647L728.861 1124.75L309.921 1162.82L272.568 751.712Z" fill="white"/>
</mask>
<g mask="url(#mask27_517_22162)">
<mask id="mask28_517_22162" style="mask-type:luminance" maskUnits="userSpaceOnUse" x="231" y="675" width="601" height="559">
<path d="M831.87 975.999L492.624 1233.48L231.661 933.159L570.908 675.678L831.87 975.999Z" fill="white"/>
</mask>
<g mask="url(#mask28_517_22162)">
<mask id="mask29_517_22162" style="mask-type:luminance" maskUnits="userSpaceOnUse" x="291" y="730" width="424" height="404">
<path d="M521.528 1124.84L382.145 1075.23C334.586 1058.32 300.619 1018.96 293.001 971.926C285.361 924.897 305.23 877.32 345.111 847.043L458.167 761.253C498.069 730.954 551.957 722.57 599.644 739.182C647.311 755.816 681.571 794.967 689.539 841.924L712.886 979.608C720.796 1026.18 701.254 1073.43 661.729 1103.45C622.179 1133.45 568.673 1141.63 521.528 1124.84Z" fill="white"/>
</mask>
<g mask="url(#mask29_517_22162)">
<mask id="mask30_517_22162" style="mask-type:luminance" maskUnits="userSpaceOnUse" x="272" y="713" width="457" height="450">
<path d="M691.507 713.647L272.568 751.712L309.922 1162.82L728.861 1124.75L691.507 713.647Z" fill="white"/>
</mask>
<g mask="url(#mask30_517_22162)">
<mask id="mask31_517_22162" style="mask-type:luminance" maskUnits="userSpaceOnUse" x="231" y="675" width="601" height="559">
<path d="M831.87 975.999L492.624 1233.48L231.662 933.159L570.908 675.678L831.87 975.999Z" fill="white"/>
</mask>
<g mask="url(#mask31_517_22162)">
<mask id="mask32_517_22162" style="mask-type:luminance" maskUnits="userSpaceOnUse" x="291" y="730" width="424" height="404">
<path d="M521.528 1124.84L382.145 1075.23C334.587 1058.32 300.619 1018.96 293.001 971.926C285.361 924.897 305.231 877.32 345.112 847.043L458.168 761.253C498.069 730.954 551.958 722.57 599.644 739.182C647.311 755.816 681.572 794.967 689.54 841.924L712.886 979.608C720.797 1026.18 701.255 1073.43 661.729 1103.45C622.179 1133.45 568.674 1141.63 521.528 1124.84Z" fill="white"/>
</mask>
<g mask="url(#mask32_517_22162)">
<path d="M1000.79 1017.38L501.304 1396.49L151.544 993.975L651.025 614.864L1000.79 1017.38Z" fill="#AD6747"/>
</g>
</g>
</g>
</g>
</g>
</g>
<mask id="mask33_517_22162" style="mask-type:luminance" maskUnits="userSpaceOnUse" x="539" y="527" width="242" height="373">
<path d="M539.353 546.794L748.822 527.761L780.908 880.888L571.438 899.921L539.353 546.794Z" fill="white"/>
</mask>
<g mask="url(#mask33_517_22162)">
<mask id="mask34_517_22162" style="mask-type:luminance" maskUnits="userSpaceOnUse" x="500" y="513" width="316" height="399">
<path d="M815.879 846.138L674.979 911.852L500.026 579.491L640.949 513.774L815.879 846.138Z" fill="white"/>
</mask>
<g mask="url(#mask34_517_22162)">
<mask id="mask35_517_22162" style="mask-type:luminance" maskUnits="userSpaceOnUse" x="545" y="543" width="226" height="340">
<path d="M745.441 879.005C784.351 860.856 776.748 771.789 728.458 680.067C680.189 588.343 609.506 528.692 570.596 546.841C531.685 564.97 539.265 654.039 587.557 745.781C635.848 837.503 706.532 897.154 745.441 879.005Z" fill="white"/>
</mask>
<g mask="url(#mask35_517_22162)">
<mask id="mask36_517_22162" style="mask-type:luminance" maskUnits="userSpaceOnUse" x="539" y="527" width="242" height="373">
<path d="M748.823 527.762L539.353 546.794L571.439 899.921L780.908 880.888L748.823 527.762Z" fill="white"/>
</mask>
<g mask="url(#mask36_517_22162)">
<mask id="mask37_517_22162" style="mask-type:luminance" maskUnits="userSpaceOnUse" x="500" y="513" width="316" height="399">
<path d="M815.88 846.138L674.979 911.853L500.027 579.491L640.949 513.775L815.88 846.138Z" fill="white"/>
</mask>
<g mask="url(#mask37_517_22162)">
<mask id="mask38_517_22162" style="mask-type:luminance" maskUnits="userSpaceOnUse" x="545" y="543" width="226" height="340">
<path d="M745.442 879.005C784.351 860.856 776.749 771.789 728.458 680.067C680.19 588.343 609.506 528.693 570.597 546.842C531.685 564.97 539.265 654.039 587.558 745.782C635.848 837.504 706.532 897.154 745.442 879.005Z" fill="white"/>
</mask>
<g mask="url(#mask38_517_22162)">
<path d="M815.88 846.138L674.979 911.853L500.027 579.492L640.95 513.775L815.88 846.138Z" fill="#865139"/>
</g>
</g>
</g>
</g>
</g>
</g>
<mask id="mask39_517_22162" style="mask-type:luminance" maskUnits="userSpaceOnUse" x="539" y="527" width="242" height="373">
<path d="M748.219 528.486L780.184 880.285L572.042 899.197L540.077 547.398L748.219 528.486Z" fill="white" stroke="white" stroke-width="1.33333"/>
</mask>
<g mask="url(#mask39_517_22162)">
<mask id="mask40_517_22162" style="mask-type:luminance" maskUnits="userSpaceOnUse" x="498" y="512" width="318" height="401">
<path d="M814.963 845.829L674.46 911.364L499.562 579.095L640.066 513.579L814.963 845.829Z" fill="white" stroke="white" stroke-width="1.33333"/>
</mask>
<g mask="url(#mask40_517_22162)">
<mask id="mask41_517_22162" style="mask-type:luminance" maskUnits="userSpaceOnUse" x="497" y="510" width="319" height="403">
<path d="M814.963 845.829L674.91 911.158L498.852 576.688L638.93 511.378L814.963 845.829Z" fill="white" stroke="white" stroke-width="1.33333"/>
</mask>
<g mask="url(#mask41_517_22162)">
<mask id="mask42_517_22162" style="mask-type:luminance" maskUnits="userSpaceOnUse" x="545" y="543" width="226" height="340">
<path d="M570.903 547.483C580.422 543.043 591.945 543.332 604.695 547.77C617.446 552.207 631.367 560.776 645.612 572.797C674.101 596.837 703.789 634.601 727.891 680.395C751.994 726.189 765.927 771.295 768.988 807.18C770.518 825.125 769.327 840.727 765.358 852.946C761.454 864.969 754.88 873.671 745.602 878.168L745.157 878.379C735.643 882.818 724.126 882.53 711.378 878.094C698.631 873.659 684.712 865.093 670.468 853.075C641.983 829.039 612.295 791.28 588.193 745.486C564.089 699.682 550.157 654.576 547.093 618.69C545.562 600.746 546.751 585.143 550.716 572.923C554.679 560.709 561.397 551.92 570.904 547.484L570.903 547.483Z" fill="white" stroke="white" stroke-width="1.33333"/>
</mask>
<g mask="url(#mask42_517_22162)">
<path d="M745.439 878.982C784.35 860.854 776.748 771.786 728.481 680.083C680.214 588.38 609.53 528.729 570.621 546.878C531.734 565.025 539.334 654.072 587.603 745.796C635.869 837.499 706.551 897.129 745.439 878.982Z" stroke="#865139" stroke-width="8"/>
</g>
</g>
</g>
</g>
<mask id="mask43_517_22162" style="mask-type:luminance" maskUnits="userSpaceOnUse" x="158" y="461" width="551" height="547">
<path d="M159 506.957L662.859 461.175L708.354 961.877L204.495 1007.66L159 506.957Z" fill="white"/>
</mask>
<g mask="url(#mask43_517_22162)">
<mask id="mask44_517_22162" style="mask-type:luminance" maskUnits="userSpaceOnUse" x="153" y="446" width="725" height="672">
<path d="M877.099 786.417L472.436 1117.8L153.559 778.364L558.221 446.977L877.099 786.417Z" fill="white"/>
</mask>
<g mask="url(#mask44_517_22162)">
<mask id="mask45_517_22162" style="mask-type:luminance" maskUnits="userSpaceOnUse" x="185" y="476" width="514" height="492">
<path d="M601.72 963.989L235.234 848.308C210.281 840.424 191.879 820.716 186.942 796.566C182.027 772.414 191.288 747.473 211.274 731.105L501.214 493.672C521.197 477.284 548.897 471.965 573.902 479.678C598.907 487.39 617.456 507.003 622.568 531.116L697.618 885.445C702.689 909.354 693.57 934.138 673.75 950.365C653.953 966.591 626.443 971.789 601.72 963.989Z" fill="white"/>
</mask>
<g mask="url(#mask45_517_22162)">
<mask id="mask46_517_22162" style="mask-type:luminance" maskUnits="userSpaceOnUse" x="158" y="461" width="551" height="547">
<path d="M662.859 461.174L159 506.956L204.494 1007.66L708.354 961.876L662.859 461.174Z" fill="white"/>
</mask>
<g mask="url(#mask46_517_22162)">
<mask id="mask47_517_22162" style="mask-type:luminance" maskUnits="userSpaceOnUse" x="159" y="461" width="550" height="547">
<path d="M159.018 507.162L662.878 461.38L708.354 961.876L204.494 1007.66L159.018 507.162Z" fill="white"/>
</mask>
<g mask="url(#mask47_517_22162)">
<mask id="mask48_517_22162" style="mask-type:luminance" maskUnits="userSpaceOnUse" x="153" y="446" width="725" height="672">
<path d="M877.098 786.416L472.436 1117.8L153.559 778.364L558.221 446.976L877.098 786.416Z" fill="white"/>
</mask>
<g mask="url(#mask48_517_22162)">
<mask id="mask49_517_22162" style="mask-type:luminance" maskUnits="userSpaceOnUse" x="185" y="476" width="514" height="492">
<path d="M601.72 963.988L235.234 848.307C210.281 840.424 191.879 820.715 186.942 796.565C182.027 772.414 191.288 747.472 211.273 731.105L501.214 493.672C521.197 477.284 548.897 471.965 573.902 479.677C598.907 487.39 617.456 507.002 622.568 531.115L697.618 885.445C702.689 909.354 693.57 934.137 673.75 950.365C653.953 966.59 626.442 971.789 601.72 963.988Z" fill="white"/>
</mask>
<g mask="url(#mask49_517_22162)">
<path d="M963.932 804.183L479.993 1200.48L113.92 810.819L597.86 414.52L963.932 804.183Z" fill="#AD6747"/>
</g>
</g>
</g>
</g>
</g>
</g>
</g>
<mask id="mask50_517_22162" style="mask-type:luminance" maskUnits="userSpaceOnUse" x="61" y="457" width="504" height="476">
<path d="M61.3199 499.89L525.55 457.709L564.819 889.894L100.589 932.075L61.3199 499.89Z" fill="white"/>
</mask>
<g mask="url(#mask50_517_22162)">
<mask id="mask51_517_22162" style="mask-type:luminance" maskUnits="userSpaceOnUse" x="-45" y="440" width="642" height="595">
<path d="M310.633 1034.94L-44.9946 759.498L241.052 440.196L596.658 715.643L310.633 1034.94Z" fill="white"/>
</mask>
<g mask="url(#mask51_517_22162)">
<mask id="mask52_517_22162" style="mask-type:luminance" maskUnits="userSpaceOnUse" x="93" y="485" width="455" height="435">
<path d="M95.594 796.605L140.983 575.663C148.817 537.462 177.774 505.728 217.025 492.323C256.275 478.896 299.958 485.804 331.765 510.46L505.392 644.931C537.221 669.585 552.397 708.269 545.312 746.609C538.203 784.931 509.89 817.126 470.901 831.213L245.404 912.627C207.344 926.381 164.555 919.994 133.494 895.935C102.433 871.875 87.9452 833.897 95.594 796.605Z" fill="white"/>
</mask>
<g mask="url(#mask52_517_22162)">
<mask id="mask53_517_22162" style="mask-type:luminance" maskUnits="userSpaceOnUse" x="61" y="457" width="504" height="476">
<path d="M525.55 457.709L61.3201 499.89L100.589 932.075L564.819 889.894L525.55 457.709Z" fill="white"/>
</mask>
<g mask="url(#mask53_517_22162)">
<mask id="mask54_517_22162" style="mask-type:luminance" maskUnits="userSpaceOnUse" x="-45" y="440" width="642" height="595">
<path d="M310.633 1034.94L-44.9945 759.498L241.052 440.196L596.658 715.644L310.633 1034.94Z" fill="white"/>
</mask>
<g mask="url(#mask54_517_22162)">
<mask id="mask55_517_22162" style="mask-type:luminance" maskUnits="userSpaceOnUse" x="93" y="485" width="455" height="435">
<path d="M95.5941 796.606L140.983 575.664C148.817 537.463 177.774 505.729 217.025 492.323C256.275 478.897 299.958 485.805 331.765 510.461L505.392 644.931C537.221 669.585 552.397 708.269 545.312 746.61C538.203 784.932 509.89 817.126 470.901 831.214L245.404 912.628C207.344 926.382 164.555 919.994 133.494 895.935C102.433 871.876 87.9454 833.897 95.5941 796.606Z" fill="white"/>
</mask>
<g mask="url(#mask55_517_22162)">
<path d="M297.715 1166.15L-181.438 795L179.288 392.336L658.442 763.482L297.715 1166.15Z" fill="#AD6747"/>
</g>
</g>
</g>
</g>
</g>
</g>
<path d="M603.29 422.747C652.575 664.563 683.917 818.334 697.314 884.062" stroke="#AD6747" stroke-width="14"/>
<path d="M230.728 372.217C122.007 544.735 71.51 789.95 79.2546 1107.82" stroke="#AD6747" stroke-width="14" stroke-linecap="round" stroke-linejoin="round"/>
<mask id="mask56_517_22162" style="mask-type:luminance" maskUnits="userSpaceOnUse" x="202" y="287" width="99" height="94">
<path d="M202.597 295.747L293.179 287.517L300.841 371.846L210.26 380.076L202.597 295.747Z" fill="white"/>
</mask>
<g mask="url(#mask56_517_22162)">
<mask id="mask57_517_22162" style="mask-type:luminance" maskUnits="userSpaceOnUse" x="195" y="281" width="112" height="104">
<path d="M195.193 313.649L274.459 281.744L306.279 352.191L227.013 384.096L195.193 313.649Z" fill="white"/>
</mask>
<g mask="url(#mask57_517_22162)">
<mask id="mask58_517_22162" style="mask-type:luminance" maskUnits="userSpaceOnUse" x="211" y="294" width="86" height="81">
<path d="M234.858 297.673C250.002 291.585 267.494 295.143 278.273 306.536L288.777 317.6C295.411 324.595 297.996 334.158 295.707 343.312C293.441 352.486 286.598 360.124 277.327 363.851L256.097 372.402C246.803 376.132 236.221 375.495 227.648 370.711C219.073 365.906 213.54 357.525 212.781 348.19L211.59 333.373C210.363 318.145 219.736 303.759 234.858 297.673Z" fill="white"/>
</mask>
<g mask="url(#mask58_517_22162)">
<mask id="mask59_517_22162" style="mask-type:luminance" maskUnits="userSpaceOnUse" x="202" y="287" width="99" height="94">
<path d="M293.179 287.517L202.598 295.747L210.26 380.076L300.841 371.845L293.179 287.517Z" fill="white"/>
</mask>
<g mask="url(#mask59_517_22162)">
<mask id="mask60_517_22162" style="mask-type:luminance" maskUnits="userSpaceOnUse" x="207" y="287" width="94" height="93">
<path d="M207.13 295.335L293.178 287.516L300.84 371.845L214.793 379.664L207.13 295.335Z" fill="white"/>
</mask>
<g mask="url(#mask60_517_22162)">
<mask id="mask61_517_22162" style="mask-type:luminance" maskUnits="userSpaceOnUse" x="195" y="281" width="112" height="104">
<path d="M195.194 313.648L274.46 281.744L306.28 352.191L227.013 384.095L195.194 313.648Z" fill="white"/>
</mask>
<g mask="url(#mask61_517_22162)">
<mask id="mask62_517_22162" style="mask-type:luminance" maskUnits="userSpaceOnUse" x="211" y="294" width="86" height="81">
<path d="M234.858 297.672C250.002 291.584 267.495 295.143 278.274 306.535L288.778 317.599C295.411 324.594 297.997 334.157 295.707 343.312C293.441 352.485 286.599 360.123 277.327 363.851L256.097 372.402C246.804 376.132 236.221 375.495 227.648 370.71C219.073 365.906 213.54 357.524 212.781 348.19L211.591 333.373C210.363 318.144 219.736 303.758 234.858 297.672Z" fill="white"/>
</mask>
<g mask="url(#mask62_517_22162)">
<path d="M184.201 318.051L285.431 277.322L317.272 347.767L216.045 388.517L184.201 318.051Z" fill="#865139"/>
</g>
</g>
</g>
</g>
</g>
</g>
</g>
<mask id="mask63_517_22162" style="mask-type:luminance" maskUnits="userSpaceOnUse" x="209" y="496" width="68" height="54">
<path d="M209.952 502.327L272.227 496.668L276.537 544.103L214.262 549.762L209.952 502.327Z" fill="white"/>
</mask>
<g mask="url(#mask63_517_22162)">
<mask id="mask64_517_22162" style="mask-type:luminance" maskUnits="userSpaceOnUse" x="214" y="502" width="59" height="42">
<path d="M272.094 504.776L269.943 543.187L214.597 541.179L216.746 502.748L272.094 504.776Z" fill="white"/>
</mask>
<g mask="url(#mask64_517_22162)">
<mask id="mask65_517_22162" style="mask-type:luminance" maskUnits="userSpaceOnUse" x="215" y="503" width="57" height="40">
<path d="M271.008 523.993C271.604 513.373 259.722 504.323 244.466 503.779C229.23 503.212 216.369 511.355 215.773 521.975C215.198 532.572 227.079 541.623 242.315 542.19C257.573 542.754 270.411 534.593 271.008 523.993Z" fill="white"/>
</mask>
<g mask="url(#mask65_517_22162)">
<mask id="mask66_517_22162" style="mask-type:luminance" maskUnits="userSpaceOnUse" x="209" y="496" width="68" height="54">
<path d="M272.226 496.669L209.952 502.327L214.262 549.762L276.536 544.104L272.226 496.669Z" fill="white"/>
</mask>
<g mask="url(#mask66_517_22162)">
<mask id="mask67_517_22162" style="mask-type:luminance" maskUnits="userSpaceOnUse" x="212" y="498" width="63" height="49">
<path d="M212.342 503.605L270.769 498.296L274.677 541.305L216.25 546.613L212.342 503.605Z" fill="white"/>
</mask>
<g mask="url(#mask67_517_22162)">
<mask id="mask68_517_22162" style="mask-type:luminance" maskUnits="userSpaceOnUse" x="214" y="502" width="59" height="42">
<path d="M272.094 504.777L269.943 543.188L214.597 541.18L216.746 502.749L272.094 504.777Z" fill="white"/>
</mask>
<g mask="url(#mask68_517_22162)">
<mask id="mask69_517_22162" style="mask-type:luminance" maskUnits="userSpaceOnUse" x="215" y="503" width="57" height="40">
<path d="M271.008 523.994C271.604 513.374 259.722 504.324 244.466 503.78C229.23 503.213 216.369 511.356 215.773 521.976C215.197 532.574 227.079 541.624 242.315 542.191C257.573 542.756 270.41 534.594 271.008 523.994Z" fill="white"/>
</mask>
<g mask="url(#mask69_517_22162)">
<path d="M272.093 504.778L269.942 543.189L214.753 541.188L216.902 502.756L272.093 504.778Z" fill="#F6827C"/>
</g>
</g>
</g>
</g>
</g>
</g>
</g>
<mask id="mask70_517_22162" style="mask-type:luminance" maskUnits="userSpaceOnUse" x="234" y="457" width="70" height="80">
<path d="M234.906 462.862L297.18 457.203L303.885 530.991L241.61 536.649L234.906 462.862Z" fill="white"/>
</mask>
<g mask="url(#mask70_517_22162)">
<mask id="mask71_517_22162" style="mask-type:luminance" maskUnits="userSpaceOnUse" x="241" y="461" width="58" height="70">
<path d="M245.712 461.797L298.665 463.732L294.95 530.08L241.997 528.145L245.712 461.797Z" fill="white"/>
</mask>
<g mask="url(#mask71_517_22162)">
<mask id="mask72_517_22162" style="mask-type:luminance" maskUnits="userSpaceOnUse" x="243" y="462" width="54" height="67">
<path d="M272.177 462.755C257.569 462.235 244.873 476.611 243.858 494.888C242.843 513.164 253.863 528.437 268.47 528.957C283.102 529.496 295.776 515.121 296.811 496.822C297.826 478.546 286.808 463.294 272.177 462.755Z" fill="white"/>
</mask>
<g mask="url(#mask72_517_22162)">
<mask id="mask73_517_22162" style="mask-type:luminance" maskUnits="userSpaceOnUse" x="234" y="457" width="70" height="80">
<path d="M297.181 457.203L234.906 462.861L241.611 536.649L303.885 530.991L297.181 457.203Z" fill="white"/>
</mask>
<g mask="url(#mask73_517_22162)">
<mask id="mask74_517_22162" style="mask-type:luminance" maskUnits="userSpaceOnUse" x="237" y="457" width="67" height="77">
<path d="M237.443 463.046L297.219 457.615L303.656 528.458L243.88 533.889L237.443 463.046Z" fill="white"/>
</mask>
<g mask="url(#mask74_517_22162)">
<mask id="mask75_517_22162" style="mask-type:luminance" maskUnits="userSpaceOnUse" x="241" y="461" width="58" height="70">
<path d="M245.714 461.796L298.667 463.731L294.952 530.08L241.999 528.145L245.714 461.796Z" fill="white"/>
</mask>
<g mask="url(#mask75_517_22162)">
<mask id="mask76_517_22162" style="mask-type:luminance" maskUnits="userSpaceOnUse" x="243" y="462" width="54" height="67">
<path d="M272.179 462.755C257.571 462.234 244.875 476.611 243.86 494.887C242.845 513.164 253.865 528.437 268.472 528.957C283.104 529.496 295.778 515.121 296.813 496.822C297.828 478.546 286.81 463.294 272.179 462.755Z" fill="white"/>
</mask>
<g mask="url(#mask76_517_22162)">
<path d="M245.714 461.797L298.667 463.731L294.957 529.892L242.003 527.957L245.714 461.797Z" fill="#402300"/>
</g>
</g>
</g>
</g>
</g>
</g>
</g>
<mask id="mask77_517_22162" style="mask-type:luminance" maskUnits="userSpaceOnUse" x="525" y="511" width="61" height="48">
<path d="M525.156 516.2L581.77 511.056L585.601 553.22L528.988 558.364L525.156 516.2Z" fill="white"/>
</mask>
<g mask="url(#mask77_517_22162)">
<mask id="mask78_517_22162" style="mask-type:luminance" maskUnits="userSpaceOnUse" x="525" y="514" width="59" height="41">
<path d="M583.349 516.164L581.2 554.596L525.831 552.569L527.98 514.137L583.349 516.164Z" fill="white"/>
</mask>
<g mask="url(#mask78_517_22162)">
<mask id="mask79_517_22162" style="mask-type:luminance" maskUnits="userSpaceOnUse" x="527" y="515" width="56" height="39">
<path d="M582.264 535.381C582.862 524.782 570.978 515.711 555.722 515.166C540.464 514.602 527.625 522.743 527.029 533.363C526.432 543.962 538.313 553.013 553.571 553.577C568.829 554.142 581.667 545.98 582.264 535.381Z" fill="white"/>
</mask>
<g mask="url(#mask79_517_22162)">
<mask id="mask80_517_22162" style="mask-type:luminance" maskUnits="userSpaceOnUse" x="525" y="511" width="61" height="48">
<path d="M581.771 511.056L525.158 516.2L528.989 558.364L585.602 553.22L581.771 511.056Z" fill="white"/>
</mask>
<g mask="url(#mask80_517_22162)">
<mask id="mask81_517_22162" style="mask-type:luminance" maskUnits="userSpaceOnUse" x="525" y="514" width="59" height="41">
<path d="M583.35 516.164L581.201 554.596L525.831 552.569L527.981 514.137L583.35 516.164Z" fill="white"/>
</mask>
<g mask="url(#mask81_517_22162)">
<mask id="mask82_517_22162" style="mask-type:luminance" maskUnits="userSpaceOnUse" x="527" y="515" width="56" height="39">
<path d="M582.264 535.381C582.862 524.782 570.978 515.711 555.722 515.166C540.464 514.602 527.625 522.743 527.029 533.363C526.431 543.962 538.313 553.013 553.571 553.577C568.829 554.142 581.667 545.98 582.264 535.381Z" fill="white"/>
</mask>
<g mask="url(#mask82_517_22162)">
<path d="M583.35 516.165L581.2 554.596L526.01 552.574L528.159 514.143L583.35 516.165Z" fill="#F6827C"/>
</g>
</g>
</g>
</g>
</g>
</g>
<mask id="mask83_517_22162" style="mask-type:luminance" maskUnits="userSpaceOnUse" x="498" y="465" width="64" height="80">
<path d="M498.201 470.822L554.815 465.678L561.519 539.466L504.906 544.61L498.201 470.822Z" fill="white"/>
</mask>
<g mask="url(#mask83_517_22162)">
<mask id="mask84_517_22162" style="mask-type:luminance" maskUnits="userSpaceOnUse" x="502" y="471" width="58" height="69">
<path d="M506.319 471.33L559.25 473.267L555.535 539.615L502.604 537.678L506.319 471.33Z" fill="white"/>
</mask>
<g mask="url(#mask84_517_22162)">
<mask id="mask85_517_22162" style="mask-type:luminance" maskUnits="userSpaceOnUse" x="504" y="472" width="54" height="67">
<path d="M532.785 472.309C518.176 471.769 505.48 486.145 504.465 504.421C503.429 522.72 514.47 537.971 529.079 538.511C543.708 539.03 556.383 524.655 557.398 506.379C558.433 488.08 547.415 472.828 532.785 472.309Z" fill="white"/>
</mask>
<g mask="url(#mask85_517_22162)">
<mask id="mask86_517_22162" style="mask-type:luminance" maskUnits="userSpaceOnUse" x="498" y="465" width="64" height="80">
<path d="M554.815 465.679L498.202 470.823L504.906 544.611L561.52 539.467L554.815 465.679Z" fill="white"/>
</mask>
<g mask="url(#mask86_517_22162)">
<mask id="mask87_517_22162" style="mask-type:luminance" maskUnits="userSpaceOnUse" x="498" y="467" width="64" height="77">
<path d="M498.576 472.491L554.968 467.367L561.405 538.211L505.013 543.335L498.576 472.491Z" fill="white"/>
</mask>
<g mask="url(#mask87_517_22162)">
<mask id="mask88_517_22162" style="mask-type:luminance" maskUnits="userSpaceOnUse" x="502" y="471" width="58" height="69">
<path d="M506.319 471.331L559.25 473.268L555.535 539.616L502.604 537.68L506.319 471.331Z" fill="white"/>
</mask>
<g mask="url(#mask88_517_22162)">
<mask id="mask89_517_22162" style="mask-type:luminance" maskUnits="userSpaceOnUse" x="504" y="472" width="54" height="67">
<path d="M532.785 472.309C518.176 471.769 505.48 486.145 504.465 504.421C503.429 522.72 514.47 537.971 529.079 538.511C543.709 539.03 556.383 524.655 557.398 506.379C558.433 488.08 547.415 472.828 532.785 472.309Z" fill="white"/>
</mask>
<g mask="url(#mask89_517_22162)">
<path d="M506.319 471.331L559.25 473.268L555.562 539.427L502.609 537.492L506.319 471.331Z" fill="#402300"/>
</g>
</g>
</g>
</g>
</g>
</g>
</g>
<mask id="mask90_517_22162" style="mask-type:luminance" maskUnits="userSpaceOnUse" x="302" y="435" width="194" height="212">
<path d="M302.363 451.418L477.864 435.472L495.583 630.482L320.082 646.429L302.363 451.418Z" fill="white"/>
</mask>
<g mask="url(#mask90_517_22162)">
<mask id="mask91_517_22162" style="mask-type:luminance" maskUnits="userSpaceOnUse" x="307" y="442" width="182" height="200">
<path d="M318.685 442.836L488.687 449.061L477.946 641.032L307.967 634.805L318.685 442.836Z" fill="white"/>
</mask>
<g mask="url(#mask91_517_22162)">
<mask id="mask92_517_22162" style="mask-type:luminance" maskUnits="userSpaceOnUse" x="313" y="445" width="171" height="193">
<path d="M403.697 445.948C356.74 444.236 316.293 485.712 313.337 538.581C310.382 591.451 346.042 635.705 392.978 637.418C439.915 639.153 480.384 597.675 483.339 544.806C486.293 491.916 450.632 447.662 403.697 445.948Z" fill="white"/>
</mask>
<g mask="url(#mask92_517_22162)">
<mask id="mask93_517_22162" style="mask-type:luminance" maskUnits="userSpaceOnUse" x="302" y="435" width="194" height="212">
<path d="M477.864 435.472L302.363 451.418L320.082 646.429L495.583 630.482L477.864 435.472Z" fill="white"/>
</mask>
<g mask="url(#mask93_517_22162)">
<mask id="mask94_517_22162" style="mask-type:luminance" maskUnits="userSpaceOnUse" x="307" y="442" width="182" height="200">
<path d="M318.686 442.836L488.687 449.061L477.947 641.032L307.967 634.805L318.686 442.836Z" fill="white"/>
</mask>
<g mask="url(#mask94_517_22162)">
<mask id="mask95_517_22162" style="mask-type:luminance" maskUnits="userSpaceOnUse" x="313" y="445" width="171" height="193">
<path d="M403.697 445.948C356.74 444.236 316.293 485.712 313.337 538.581C310.382 591.451 346.043 635.705 392.978 637.418C439.915 639.153 480.384 597.675 483.339 544.806C486.293 491.916 450.632 447.662 403.697 445.948Z" fill="white"/>
</mask>
<g mask="url(#mask95_517_22162)">
<path d="M318.685 442.836L488.687 449.061L477.981 640.426L308.001 634.2L318.685 442.836Z" fill="#E2B282"/>
</g>
</g>
</g>
</g>
</g>
</g>
<mask id="mask96_517_22162" style="mask-type:luminance" maskUnits="userSpaceOnUse" x="367" y="471" width="75" height="70">
<path d="M367.511 477.383L435.447 471.21L441.194 534.457L373.258 540.63L367.511 477.383Z" fill="white"/>
</mask>
<g mask="url(#mask96_517_22162)">
<mask id="mask97_517_22162" style="mask-type:luminance" maskUnits="userSpaceOnUse" x="367" y="480" width="67" height="57">
<path d="M370.929 480.892L433.659 483.184L430.707 536.094L367.977 533.802L370.929 480.892Z" fill="white"/>
</mask>
<g mask="url(#mask97_517_22162)">
<mask id="mask98_517_22162" style="mask-type:luminance" maskUnits="userSpaceOnUse" x="370" y="481" width="64" height="54">
<path d="M405.817 531.61L431.896 493.474C433.334 491.392 433.452 488.766 432.251 486.592C431.049 484.397 428.671 483.014 426.03 482.902L378.446 481.164C375.806 481.071 373.286 482.297 371.848 484.379C370.409 486.461 370.247 489.091 371.448 491.265L393.154 531.141C394.331 533.297 396.666 534.704 399.284 534.798C401.901 534.892 404.399 533.669 405.817 531.61Z" fill="white"/>
</mask>
<g mask="url(#mask98_517_22162)">
<mask id="mask99_517_22162" style="mask-type:luminance" maskUnits="userSpaceOnUse" x="367" y="471" width="75" height="70">
<path d="M435.447 471.21L367.511 477.383L373.257 540.629L441.194 534.456L435.447 471.21Z" fill="white"/>
</mask>
<g mask="url(#mask99_517_22162)">
<mask id="mask100_517_22162" style="mask-type:luminance" maskUnits="userSpaceOnUse" x="369" y="474" width="70" height="65">
<path d="M369.147 480.43L433.014 474.627L438.301 532.809L374.434 538.612L369.147 480.43Z" fill="white"/>
</mask>
<g mask="url(#mask100_517_22162)">
<mask id="mask101_517_22162" style="mask-type:luminance" maskUnits="userSpaceOnUse" x="367" y="480" width="67" height="57">
<path d="M370.928 480.891L433.658 483.183L430.706 536.094L367.976 533.801L370.928 480.891Z" fill="white"/>
</mask>
<g mask="url(#mask101_517_22162)">
<mask id="mask102_517_22162" style="mask-type:luminance" maskUnits="userSpaceOnUse" x="370" y="481" width="64" height="54">
<path d="M405.816 531.609L431.895 493.473C433.333 491.391 433.451 488.765 432.25 486.591C431.047 484.396 428.67 483.014 426.028 482.901L378.444 481.163C375.805 481.071 373.285 482.296 371.847 484.378C370.408 486.46 370.246 489.09 371.447 491.265L393.153 531.14C394.33 533.296 396.665 534.703 399.283 534.797C401.9 534.892 404.398 533.668 405.816 531.609Z" fill="white"/>
</mask>
<g mask="url(#mask102_517_22162)">
<path d="M365.693 480.702L438.915 483.37L435.574 543.041L362.353 540.374L365.693 480.702Z" fill="#402300"/>
</g>
</g>
</g>
</g>
</g>
</g>
</g>
<mask id="mask103_517_22162" style="mask-type:luminance" maskUnits="userSpaceOnUse" x="381" y="504" width="40" height="57">
<path d="M381.708 507.978L415.676 504.891L420.465 557.597L386.497 560.683L381.708 507.978Z" fill="white"/>
</mask>
<g mask="url(#mask103_517_22162)">
<mask id="mask104_517_22162" style="mask-type:luminance" maskUnits="userSpaceOnUse" x="387" y="509" width="25" height="45">
<path d="M390.082 509.105L411.356 509.871L408.91 553.374L387.634 552.588L390.082 509.105Z" fill="white"/>
</mask>
<g mask="url(#mask104_517_22162)">
<mask id="mask105_517_22162" style="mask-type:luminance" maskUnits="userSpaceOnUse" x="381" y="504" width="40" height="57">
<path d="M415.675 504.891L381.707 507.978L386.496 560.683L420.464 557.597L415.675 504.891Z" fill="white"/>
</mask>
<g mask="url(#mask105_517_22162)">
<mask id="mask106_517_22162" style="mask-type:luminance" maskUnits="userSpaceOnUse" x="382" y="505" width="34" height="52">
<path d="M382.672 508.533L411.2 505.941L415.566 553.993L387.038 556.586L382.672 508.533Z" fill="white"/>
</mask>
<g mask="url(#mask106_517_22162)">
<mask id="mask107_517_22162" style="mask-type:luminance" maskUnits="userSpaceOnUse" x="387" y="509" width="25" height="45">
<path d="M390.082 509.105L411.356 509.871L408.91 553.374L387.633 552.587L390.082 509.105Z" fill="white"/>
</mask>
<g mask="url(#mask107_517_22162)">
<path d="M390.082 509.105L411.356 509.871L408.91 553.374L387.633 552.587L390.082 509.105Z" fill="#402300"/>
</g>
</g>
</g>
</g>
</g>
<path d="M295.348 328.816C397.784 280.086 486.793 295.288 562.376 374.423" stroke="#AD6747" stroke-width="12"/>
<mask id="mask108_517_22162" style="mask-type:luminance" maskUnits="userSpaceOnUse" x="550" y="346" width="100" height="99">
<path d="M550.419 354.482L641 346.252L649.141 435.851L558.56 444.082L550.419 354.482Z" fill="white"/>
</mask>
<g mask="url(#mask108_517_22162)">
<mask id="mask109_517_22162" style="mask-type:luminance" maskUnits="userSpaceOnUse" x="540" y="336" width="120" height="112">
<path d="M596.646 336.395L659.92 389.827L604.158 447.038L540.884 393.606L596.646 336.395Z" fill="white"/>
</mask>
<g mask="url(#mask109_517_22162)">
<mask id="mask110_517_22162" style="mask-type:luminance" maskUnits="userSpaceOnUse" x="553" y="354" width="88" height="81">
<path d="M628.331 363.138C640.407 373.353 644.033 389.693 637.302 403.714L630.783 417.363C626.66 425.979 618.38 432.273 608.528 434.269C598.677 436.285 588.437 433.769 581.045 427.508L564.094 413.21C556.68 406.95 553.009 397.714 554.19 388.39C555.394 379.064 561.309 370.784 570.116 366.123L584.074 358.752C598.436 351.178 616.256 352.942 628.331 363.138Z" fill="white"/>
</mask>
<g mask="url(#mask110_517_22162)">
<mask id="mask111_517_22162" style="mask-type:luminance" maskUnits="userSpaceOnUse" x="550" y="346" width="100" height="99">
<path d="M641 346.252L550.418 354.483L558.559 444.082L649.141 435.852L641 346.252Z" fill="white"/>
</mask>
<g mask="url(#mask111_517_22162)">
<mask id="mask112_517_22162" style="mask-type:luminance" maskUnits="userSpaceOnUse" x="550" y="346" width="99" height="95">
<path d="M550.418 354.483L640.557 346.293L648.354 432.104L558.215 440.294L550.418 354.483Z" fill="white"/>
</mask>
<g mask="url(#mask112_517_22162)">
<mask id="mask113_517_22162" style="mask-type:luminance" maskUnits="userSpaceOnUse" x="540" y="336" width="120" height="112">
<path d="M596.647 336.395L659.921 389.827L604.158 447.038L540.885 393.606L596.647 336.395Z" fill="white"/>
</mask>
<g mask="url(#mask113_517_22162)">
<mask id="mask114_517_22162" style="mask-type:luminance" maskUnits="userSpaceOnUse" x="553" y="354" width="88" height="81">
<path d="M628.331 363.138C640.408 373.354 644.033 389.693 637.303 403.714L630.783 417.363C626.661 425.979 618.381 432.274 608.528 434.269C598.678 436.285 588.438 433.77 581.046 427.508L564.094 413.21C556.68 406.95 553.009 397.715 554.191 388.391C555.395 379.065 561.31 370.784 570.117 366.123L584.074 358.752C598.437 351.178 616.256 352.943 628.331 363.138Z" fill="white"/>
</mask>
<g mask="url(#mask114_517_22162)">
<path d="M587.881 328.992L668.689 397.251L612.927 454.462L532.119 386.203L587.881 328.992Z" fill="#865139"/>
</g>
</g>
</g>
</g>
</g>
</g>
</g>
</g>
<mask id="mask115_517_22162" style="mask-type:luminance" maskUnits="userSpaceOnUse" x="532" y="14" width="174" height="160">
<path d="M621.131 14.1538L705.789 137.23L617.593 173.87L532.934 50.7934L621.131 14.1538Z" fill="white"/>
</mask>
<g mask="url(#mask115_517_22162)">
<path d="M695.148 141.394C695.492 141.19 695.652 140.896 695.63 140.516C695.492 133.309 694.419 126.095 692.421 118.882C691.975 117.278 689.132 117.72 689.568 119.294C691.195 125.175 692.175 131.062 692.519 136.955C686.883 131.597 680.883 126.542 674.52 121.794C667.318 116.434 659.754 111.503 651.826 107.006C643.928 102.538 635.761 98.5443 627.32 95.019C618.918 91.5024 610.333 88.5123 601.562 86.0388C592.933 83.5926 584.221 81.6911 575.424 80.3208C583.943 75.3659 592.453 70.4147 600.958 65.471C601.199 65.3605 601.383 65.1983 601.504 64.986C601.621 64.7756 601.661 64.5417 601.617 64.2919C601.574 64.0421 601.453 63.8094 601.248 63.6011C601.046 63.3968 600.798 63.247 600.507 63.1556L549.775 53.0804L541.145 51.3624C553.704 48.3133 565.917 44.6299 577.776 40.3043C581.586 38.9186 585.35 37.4661 589.077 35.9431C590.688 35.2735 589.125 33.0008 587.513 33.6704C574.444 38.9991 560.897 43.5201 546.877 47.2316C542.877 48.2766 538.849 49.2628 534.788 50.1865C534.474 50.241 534.219 50.3722 534.024 50.5746C533.832 50.7809 533.736 51.0228 533.738 51.3002C533.746 51.5798 533.856 51.8373 534.067 52.0785C534.279 52.314 534.547 52.4856 534.871 52.5836C551.776 55.9496 568.682 59.3098 585.591 62.6643L596.539 64.8546C587.939 69.8533 579.355 74.8505 570.779 79.8442C569.668 80.4879 570.041 82.0111 571.607 82.2302C580.42 83.4373 589.159 85.2009 597.822 87.5267C610.871 91.0286 623.49 95.6546 635.681 101.409C647.872 107.163 659.337 113.901 670.077 121.628C677.239 126.792 683.963 132.34 690.245 138.274L691.569 139.544L673.852 142.764C672.062 143.093 672.894 145.559 674.694 145.235L694.578 141.626C694.791 141.588 694.984 141.512 695.148 141.394Z" fill="white"/>
</g>
<mask id="mask116_517_22162" style="mask-type:luminance" maskUnits="userSpaceOnUse" x="64" y="89" width="113" height="101">
<path d="M64.1674 89.1774H176.149V189.758H64.1674V89.1774Z" fill="white"/>
</mask>
<g mask="url(#mask116_517_22162)">
<path d="M95.3096 89.5681C84.2014 93.7805 75.4553 101.574 70.2288 110.505C64.5109 120.274 61.4986 132.988 69.0239 142.684C72.3638 146.995 77.5903 150.379 83.8367 151.341C91.1454 152.461 98.4276 150.585 104.986 148.056C108.04 146.879 111.116 145.587 113.896 144.011C116.628 142.465 119.159 140.537 120.507 138.012C121.902 135.402 122.187 132.361 120.459 129.798C119.582 128.493 118.113 127.342 116.305 126.96C114.255 126.53 112.21 127.097 110.334 127.746C107.057 128.879 104.188 130.631 101.461 132.473C98.956 134.165 96.5991 136.007 94.4482 138.004C90.062 142.074 86.5002 146.755 84.455 151.925C82.3306 157.288 81.9184 163.183 83.6148 168.662C85.1737 173.691 88.6405 178.307 93.645 181.553C98.5333 184.722 104.637 186.71 110.963 186.491C118.197 186.237 124.771 183.442 130.785 180.385C136.477 177.495 142.163 174.365 146.703 170.307C151.21 166.279 155.243 160.826 154.386 155.167C154.143 153.565 153.705 151.431 151.469 150.92C149.498 150.473 147.844 151.611 146.396 152.513C143.801 154.132 141.281 155.858 139.172 157.906C137.037 159.971 135.288 162.299 134.4 164.918C133.565 167.379 133.57 169.976 134.252 172.458C135.6 177.362 139.589 181.639 144.562 184.529C150.19 187.8 157.267 189.132 164.068 189.518C167.371 189.707 170.679 189.66 173.976 189.492C175.012 189.436 176.011 188.788 175.964 187.878C175.916 187.049 175.086 186.207 173.976 186.268C170.748 186.431 167.508 186.478 164.279 186.306C163.455 186.259 162.63 186.203 161.811 186.126C161.642 186.109 161.473 186.096 161.304 186.079C161.225 186.07 160.786 186.023 161.114 186.057C160.643 186.006 160.168 185.946 159.697 185.881C158.154 185.671 156.627 185.392 155.126 185.035C154.344 184.851 153.573 184.644 152.812 184.417C152.495 184.318 152.183 184.219 151.866 184.116C151.253 183.919 152.199 184.241 151.591 184.022C151.342 183.936 151.094 183.846 150.851 183.751C149.514 183.245 148.219 182.665 147.004 181.991C146.708 181.828 146.422 181.656 146.137 181.488C145.667 181.209 146.428 181.686 145.979 181.385C145.836 181.295 145.698 181.205 145.561 181.115C145.011 180.741 144.483 180.355 143.976 179.947C143.511 179.573 143.061 179.187 142.633 178.788C142.396 178.569 142.174 178.341 141.946 178.118C141.587 177.761 142.079 178.268 141.878 178.045C141.751 177.907 141.629 177.774 141.508 177.637C140.683 176.705 139.959 175.713 139.357 174.678C139.294 174.571 139.235 174.459 139.172 174.352C139.135 174.279 138.982 173.987 139.13 174.283C138.998 174.021 138.871 173.755 138.755 173.489C138.522 172.961 138.326 172.42 138.163 171.874C138.078 171.599 138.009 171.329 137.946 171.054C137.914 170.917 137.888 170.779 137.856 170.642C137.793 170.328 137.846 170.59 137.856 170.655C137.761 170.054 137.713 169.453 137.713 168.847C137.719 168.332 137.761 167.821 137.83 167.31C137.888 166.846 137.745 167.64 137.851 167.181C137.883 167.044 137.909 166.902 137.946 166.765C138.009 166.481 138.094 166.202 138.184 165.923C138.358 165.382 138.58 164.862 138.823 164.338C139.035 163.879 138.659 164.618 138.908 164.171C138.982 164.034 139.061 163.896 139.14 163.763C139.325 163.445 139.526 163.136 139.737 162.831C140.07 162.346 140.43 161.878 140.816 161.427C141.011 161.195 141.212 160.972 141.418 160.749C141.629 160.517 141.127 161.036 141.508 160.659C141.661 160.5 141.82 160.341 141.983 160.186C143.896 158.327 146.153 156.717 148.505 155.235C148.198 155.429 148.69 155.119 148.705 155.111C148.859 155.016 149.007 154.922 149.16 154.832C149.408 154.677 149.657 154.522 149.916 154.376C150.074 154.286 150.238 154.213 150.402 154.127C150.772 153.921 150.19 154.11 150.618 154.046C151.062 153.981 150.508 154.046 150.418 154.029C150.175 153.986 150.011 153.878 149.916 153.715C150.011 153.861 150.032 153.883 149.984 153.78C149.852 153.595 150.074 154.003 150.074 154.003C150.132 154.162 150.185 154.316 150.233 154.475C150.328 154.793 150.407 155.111 150.46 155.433C150.407 155.102 150.481 155.626 150.481 155.643C150.492 155.751 150.502 155.858 150.508 155.965C150.534 156.343 150.534 156.721 150.513 157.095C150.497 157.421 150.465 157.743 150.412 158.065C150.455 157.803 150.407 158.078 150.397 158.121C150.36 158.28 150.328 158.443 150.291 158.602C150.132 159.25 149.921 159.886 149.662 160.513C149.181 161.68 148.594 162.681 147.717 163.87C147.347 164.377 146.951 164.875 146.533 165.356C146.312 165.622 146.079 165.88 145.846 166.138C145.841 166.138 145.45 166.554 145.677 166.318C145.556 166.442 145.434 166.567 145.307 166.692C144.319 167.688 143.246 168.628 142.121 169.521C141.032 170.384 139.891 171.2 138.718 171.982C138.411 172.188 138.099 172.39 137.787 172.591C137.787 172.587 137.275 172.918 137.56 172.737C137.402 172.836 137.243 172.931 137.085 173.029C136.45 173.42 135.8 173.802 135.15 174.18C132.561 175.674 129.882 177.079 127.16 178.41C125.77 179.092 124.354 179.749 122.901 180.351C122.182 180.651 121.453 180.939 120.713 181.214C120.554 181.269 120.39 181.325 120.232 181.385C119.603 181.613 120.565 181.278 119.931 181.488C119.476 181.643 119.022 181.785 118.562 181.922C117.061 182.369 115.523 182.734 113.954 182.978C113.547 183.043 113.135 183.103 112.722 183.146C113.103 183.107 112.421 183.172 112.427 183.172C112.252 183.189 112.078 183.202 111.903 183.215C111.111 183.27 110.307 183.288 109.509 183.275C108.859 183.262 108.22 183.215 107.57 183.163C106.989 183.116 107.977 183.219 107.401 183.146C107.226 183.124 107.052 183.103 106.878 183.077C106.534 183.03 106.185 182.974 105.842 182.91C104.468 182.665 103.115 182.317 101.815 181.871C102.153 181.987 101.868 181.888 101.804 181.866C101.641 181.802 101.482 181.746 101.318 181.686C101.001 181.566 100.684 181.437 100.367 181.304C99.7382 181.038 99.1199 180.75 98.5227 180.445C97.9678 180.162 97.4288 179.861 96.9003 179.548C96.7576 179.462 96.6149 179.376 96.4723 179.286C96.8105 179.5 96.3454 179.2 96.3137 179.183C95.9914 178.968 95.6743 178.749 95.3625 178.526C94.3373 177.787 93.3808 176.984 92.5035 176.13C92.3925 176.018 92.2763 175.906 92.1653 175.79C92.1389 175.765 91.7848 175.387 92.0385 175.662C91.8588 175.468 91.6844 175.271 91.51 175.073C91.0661 174.562 90.6486 174.034 90.2575 173.493C89.4966 172.432 88.8994 171.389 88.4661 170.449C87.9112 169.255 87.4778 168.023 87.1555 166.769C87.0815 166.477 87.0128 166.185 86.9494 165.889C86.9177 165.725 86.8807 165.566 86.8542 165.403C86.849 165.395 86.7591 164.862 86.812 165.184C86.7063 164.536 86.6376 163.883 86.59 163.231C86.5055 161.968 86.5213 160.706 86.6376 159.452C86.6693 159.121 86.7063 158.795 86.7486 158.464C86.7697 158.301 86.7961 158.138 86.8225 157.975C86.9018 157.438 86.7538 158.284 86.8595 157.752C86.9811 157.099 87.1185 156.446 87.2876 155.802C87.6152 154.565 88.0327 153.35 88.54 152.157C88.799 151.547 89.0791 150.95 89.3803 150.357C89.5283 150.057 89.4384 150.241 89.4067 150.306C89.4807 150.16 89.56 150.014 89.6392 149.868C89.8242 149.533 90.0145 149.198 90.2153 148.867C90.8653 147.777 91.584 146.712 92.3608 145.681C93.1747 144.604 94.0519 143.556 94.9873 142.542C95.1035 142.414 95.2198 142.289 95.3413 142.165C95.1617 142.353 95.3625 142.143 95.3889 142.113C95.632 141.864 95.8751 141.619 96.1235 141.374C96.6202 140.881 97.1275 140.4 97.6507 139.927C99.6906 138.068 101.915 136.342 104.272 134.749C104.574 134.547 104.875 134.345 105.181 134.148C105.34 134.04 105.509 133.937 105.667 133.83C106.196 133.491 105.535 133.916 105.847 133.718C106.534 133.289 107.242 132.872 107.966 132.477C109.287 131.76 110.677 131.09 112.152 130.597C111.829 130.704 112.464 130.502 112.448 130.507C112.643 130.446 112.839 130.386 113.04 130.335C113.367 130.24 113.705 130.159 114.049 130.099C114.054 130.094 114.72 130.017 114.345 130.047C114.551 130.03 114.757 130.034 114.963 130.03C115.455 130.03 114.783 129.94 115.254 130.069C115.37 130.094 115.486 130.124 115.603 130.159C115.407 130.09 115.418 130.099 115.624 130.18C115.751 130.249 115.883 130.305 116.01 130.373C116.274 130.524 115.729 130.124 116.11 130.446C116.237 130.554 116.369 130.665 116.501 130.768C116.892 131.082 116.348 130.541 116.649 130.914C116.85 131.168 117.024 131.421 117.199 131.687C117.236 131.735 117.347 131.971 117.22 131.705C117.304 131.885 117.384 132.07 117.452 132.254C117.553 132.533 117.627 132.821 117.679 133.109C117.611 132.735 117.685 133.212 117.69 133.259C117.695 133.358 117.701 133.456 117.706 133.555C117.716 133.851 117.701 134.148 117.669 134.44C117.664 134.483 117.579 134.964 117.653 134.603C117.611 134.8 117.568 134.998 117.51 135.191C117.442 135.436 117.362 135.681 117.267 135.917C117.214 136.063 117.151 136.205 117.088 136.346C117.077 136.372 116.839 136.831 117.008 136.522C116.707 137.076 116.342 137.604 115.925 138.102C115.819 138.227 115.708 138.352 115.592 138.472C115.819 138.231 115.423 138.639 115.418 138.644C115.212 138.845 114.995 139.043 114.768 139.232C114.186 139.73 113.552 140.181 112.902 140.619C112.87 140.644 112.611 140.808 112.844 140.662C112.691 140.76 112.532 140.855 112.374 140.949C112.057 141.138 111.734 141.319 111.407 141.495C110.751 141.851 110.08 142.19 109.398 142.512C103.733 145.209 97.952 147.549 91.3885 148.305C91.7689 148.262 91.0978 148.331 91.0978 148.331C90.8917 148.352 90.6856 148.369 90.4848 148.382C90.1413 148.408 89.7978 148.425 89.4596 148.442C88.6405 148.472 87.8213 148.472 87.0022 148.434C86.5953 148.412 86.1884 148.382 85.7815 148.344C85.1262 148.288 86.1514 148.404 85.5014 148.313C85.2953 148.283 85.0945 148.258 84.8937 148.228C84.0798 148.103 83.2713 147.936 82.4839 147.725C82.1668 147.644 81.855 147.553 81.5432 147.455C81.4058 147.412 81.2684 147.369 81.1363 147.322C81.5485 147.463 81.0147 147.274 80.9672 147.257C80.3383 147.021 79.72 146.755 79.1228 146.467C78.5257 146.175 77.9497 145.853 77.3895 145.518C77.083 145.333 77.3155 145.471 77.3736 145.51C77.2362 145.424 77.1041 145.333 76.9667 145.243C76.6549 145.033 76.3484 144.81 76.0525 144.586C75.5769 144.23 75.1277 143.856 74.6943 143.47C74.4618 143.26 74.2293 143.041 74.0073 142.822C73.8911 142.71 73.7854 142.598 73.6744 142.487C73.4102 142.22 73.8224 142.663 73.5529 142.358C72.7232 141.422 71.9622 140.46 71.3122 139.429C71.1801 139.215 71.0479 139 70.9211 138.781C70.8471 138.652 70.7731 138.523 70.7044 138.39C70.6833 138.356 70.4561 137.914 70.6199 138.244C70.3557 137.716 70.1073 137.175 69.8959 136.63C69.6581 136.029 69.452 135.419 69.2829 134.809C69.1878 134.487 69.1085 134.165 69.0292 133.839C68.9922 133.663 68.95 133.487 68.913 133.31C68.9024 133.242 68.7914 132.666 68.8231 132.851C68.5906 131.486 68.5166 130.099 68.543 128.725C68.5589 128.029 68.6012 127.338 68.6699 126.651C68.7386 125.933 68.8443 125.169 68.9394 124.65C69.4203 122.022 70.2288 119.432 71.2752 116.921C71.7244 115.856 72.2106 114.799 72.7496 113.76C72.5858 114.082 72.8183 113.636 72.8394 113.606C72.9081 113.468 72.9821 113.335 73.0561 113.202C73.1777 112.974 73.3045 112.751 73.4313 112.532C73.759 111.952 74.1077 111.377 74.4671 110.81C75.746 108.784 77.2098 106.83 78.8428 104.979C79.033 104.76 79.2285 104.541 79.4294 104.326C79.535 104.206 79.646 104.09 79.7517 103.974C79.7729 103.949 80.1428 103.566 79.8838 103.837C80.3277 103.373 80.7822 102.918 81.2473 102.471C82.1562 101.595 83.1075 100.75 84.101 99.938C85.0945 99.1264 86.125 98.3492 87.1925 97.6107C87.6945 97.2629 88.2071 96.928 88.7197 96.5973C89.1848 96.2967 88.4132 96.782 88.8888 96.4943C89.0315 96.4041 89.1742 96.3182 89.3169 96.2323C89.6022 96.0563 89.8929 95.8845 90.1888 95.7171C92.4348 94.4246 94.8235 93.2953 97.3178 92.3506C98.2637 91.9942 98.5755 90.8306 98.0312 90.1435C97.4023 89.3577 96.3243 89.186 95.3096 89.5681Z" fill="white"/>
</g>
</g>
<defs>
<filter id="filter0_d_517_22162" x="-47" y="238.933" width="876.154" height="1132.84" filterUnits="userSpaceOnUse" color-interpolation-filters="sRGB">
<feFlood flood-opacity="0" result="BackgroundImageFix"/>
<feColorMatrix in="SourceAlpha" type="matrix" values="0 0 0 0 0 0 0 0 0 0 0 0 0 0 0 0 0 0 127 0" result="hardAlpha"/>
<feOffset dx="10" dy="-4"/>
<feComposite in2="hardAlpha" operator="out"/>
<feColorMatrix type="matrix" values="0 0 0 0 0 0 0 0 0 0 0 0 0 0 0 0 0 0 0.08 0"/>
<feBlend mode="normal" in2="BackgroundImageFix" result="effect1_dropShadow_517_22162"/>
<feBlend mode="normal" in="SourceGraphic" in2="effect1_dropShadow_517_22162" result="shape"/>
</filter>
<clipPath id="clip0_517_22162">
<rect width="766" height="803" fill="white"/>
</clipPath>
</defs>
</svg>
