<svg width="719" height="776" viewBox="0 0 719 776" fill="none" xmlns="http://www.w3.org/2000/svg">
<mask id="mask0_898_32514" style="mask-type:luminance" maskUnits="userSpaceOnUse" x="444" y="645" width="23" height="10">
<path d="M444.715 645.325H466.906V654.469H444.715V645.325Z" fill="white"/>
</mask>
<g mask="url(#mask0_898_32514)">
<path d="M466.868 654.382H444.746V645.487H466.868V654.382Z" fill="#C77FFF"/>
</g>
<mask id="mask1_898_32514" style="mask-type:luminance" maskUnits="userSpaceOnUse" x="613" y="645" width="24" height="10">
<path d="M613.369 645.325H636.448V654.469H613.369V645.325Z" fill="white"/>
</mask>
<g mask="url(#mask1_898_32514)">
<path d="M635.956 654.382H613.83V645.487H635.956V654.382Z" fill="#C77FFF"/>
</g>
<path d="M434.469 648.065H646.223V401.418H434.469V648.065Z" fill="#C77FFF"/>
<path d="M440.471 625.105H640.235V415.354H440.471V625.105Z" fill="#C77FFF"/>
<path d="M444.746 465.402H635.956V419.483H444.746V465.402Z" fill="#C77FFF"/>
<path d="M565.738 445.544C565.738 445.966 565.339 446.314 564.839 446.314H515.859C515.367 446.314 514.968 445.966 514.968 445.544V439.347C514.968 438.919 515.367 438.575 515.859 438.575H564.839C565.339 438.575 565.738 438.919 565.738 439.347V445.544Z" fill="#C77FFF"/>
<path d="M635.956 517.001H444.746V471.082H635.956V517.001Z" fill="#C77FFF"/>
<path d="M565.738 497.137C565.738 497.565 565.339 497.912 564.839 497.912H515.859C515.367 497.912 514.968 497.565 514.968 497.137V490.949C514.968 490.524 515.367 490.173 515.859 490.173H564.839C565.339 490.173 565.738 490.524 565.738 490.949V497.137Z" fill="#C77FFF"/>
<path d="M635.956 568.602H444.746V522.68H635.956V568.602Z" fill="#C77FFF"/>
<path d="M565.738 548.736C565.738 549.164 565.339 549.511 564.839 549.511H515.859C515.367 549.511 514.968 549.164 514.968 548.736V542.547C514.968 542.119 515.367 541.772 515.859 541.772H564.839C565.339 541.772 565.738 542.119 565.738 542.547V548.736Z" fill="#C77FFF"/>
<path d="M635.956 620.201H444.746V574.279H635.956V620.201Z" fill="#C77FFF"/>
<path d="M565.738 600.334C565.738 600.762 565.339 601.11 564.839 601.11H515.859C515.367 601.11 514.968 600.762 514.968 600.334V594.146C514.968 593.718 515.367 593.371 515.859 593.371H564.839C565.339 593.371 565.738 593.718 565.738 594.146V600.334Z" fill="#C77FFF"/>
<mask id="mask2_898_32514" style="mask-type:luminance" maskUnits="userSpaceOnUse" x="426" y="387" width="228" height="24">
<path d="M426.962 387.808H653.612V410.035H426.962V387.808Z" fill="white"/>
</mask>
<g mask="url(#mask2_898_32514)">
<path d="M427.1 409.675H653.598V388.524H427.1V409.675Z" fill="#C77FFF"/>
</g>
<path d="M646.223 435.994L640.235 435.644V415.355H440.471V423.962L434.469 423.612V409.675H646.223V435.994Z" fill="#C77FFF"/>
<path d="M635.956 435.395L444.746 424.21V419.483H635.956V435.395Z" fill="#C77FFF"/>
<path d="M578.993 284.926C584.132 289.365 584.132 296.56 578.993 300.993C573.855 305.433 565.533 305.433 560.387 300.993C555.249 296.56 555.249 289.365 560.387 284.926C565.519 280.489 573.855 280.489 578.993 284.926Z" fill="#C77FFF"/>
<path d="M560.131 267.274L552.509 260.699C546.937 255.888 537.915 255.888 532.343 260.699C526.767 265.507 526.767 273.306 532.343 278.114L539.961 284.698C539.826 289.407 541.837 294.152 545.998 297.745L556.521 306.843L585.758 281.59L575.228 272.495C571.074 268.902 565.574 267.163 560.131 267.274Z" fill="#C77FFF"/>
<path d="M586.986 278.522C587.634 279.079 587.634 279.977 586.986 280.534L555.297 307.906C554.659 308.457 553.619 308.457 552.977 307.906C552.339 307.346 552.339 306.448 552.977 305.891L584.649 278.522C585.301 277.968 586.348 277.968 586.986 278.522Z" fill="#C77FFF"/>
<path d="M458.616 316.507L456.726 314.864L524.763 256.083L526.653 257.727L458.616 316.507Z" fill="#C77FFF"/>
<path d="M462.558 319.908L460.654 318.271L528.692 259.49L530.602 261.134L462.558 319.908Z" fill="#C77FFF"/>
<path d="M519.5 370.848L512.554 375.953L458.702 321.327L465.651 316.22L519.5 370.848Z" fill="#C77FFF"/>
<path d="M527.815 383.129V371.142C527.815 364.795 521.854 359.646 514.503 359.646C507.163 359.646 501.202 364.795 501.202 371.142V383.129H527.815Z" fill="#C77FFF"/>
<path d="M575.2 388.524V380.944C575.2 380.456 574.739 380.069 574.188 380.069H450.613C450.051 380.069 449.6 380.456 449.6 380.944V388.524H575.2Z" fill="#C77FFF"/>
<path d="M521.011 372.265C521.011 375.366 518.095 377.878 514.503 377.878C510.914 377.878 508.005 375.366 508.005 372.265C508.005 369.163 510.914 366.651 514.503 366.651C518.095 366.651 521.011 369.163 521.011 372.265Z" fill="#C77FFF"/>
<path d="M468.973 316.139C468.973 320.459 464.923 323.959 459.919 323.959C454.916 323.959 450.866 320.459 450.866 316.139C450.866 311.822 454.916 308.316 459.919 308.316C464.923 308.316 468.973 311.822 468.973 316.139Z" fill="#C77FFF"/>
<path d="M464.413 316.139C464.413 318.28 462.395 320.019 459.919 320.019C457.433 320.019 455.426 318.28 455.426 316.139C455.426 313.996 457.433 312.256 459.919 312.256C462.395 312.256 464.413 313.996 464.413 316.139Z" fill="#C77FFF"/>
<path d="M539.111 259.49C539.111 263.81 535.061 267.31 530.051 267.31C525.061 267.31 521.011 263.81 521.011 259.49C521.011 255.173 525.061 251.673 530.051 251.673C535.061 251.673 539.111 255.173 539.111 259.49Z" fill="#C77FFF"/>
<path d="M534.559 259.49C534.559 261.631 532.544 263.37 530.051 263.37C527.582 263.37 525.557 261.631 525.557 259.49C525.557 257.346 527.582 255.607 530.051 255.607C532.544 255.607 534.559 257.346 534.559 259.49Z" fill="#C77FFF"/>
<path d="M623.695 362.193H618.57V327.324L621.126 321.417L623.695 327.324V362.193Z" fill="#C77FFF"/>
<path d="M622.409 324.369L621.126 321.417L619.853 324.369H622.409Z" fill="#C77FFF"/>
<path d="M623.695 362.193V327.324C621.015 328.504 618.57 327.324 618.57 327.324V362.193H623.695Z" fill="#C77FFF"/>
<path d="M631.334 315.975C631.313 316.361 630.928 316.666 630.463 316.654C630.016 316.636 629.669 316.301 629.69 315.909L629.874 311.999C629.881 311.604 630.276 311.298 630.737 311.316C631.185 311.328 631.538 311.663 631.517 312.056L631.334 315.975Z" fill="#C77FFF"/>
<path d="M629.406 313.942L627.312 318.235L625.304 360.22L631.483 360.445L633.49 318.45L631.798 314.022L629.406 313.942Z" fill="#C77FFF"/>
<path d="M631.483 360.445L625.304 360.22L627.312 318.235L633.49 318.45L631.483 360.445Z" fill="#C77FFF"/>
<path d="M618.269 357.589L612.104 357.99L608.48 316.079L610.956 308.78L614.652 315.681L618.269 357.589Z" fill="#C77FFF"/>
<path d="M612.797 312.232L610.956 308.78L609.718 312.433L612.797 312.232Z" fill="#C77FFF"/>
<path d="M618.269 357.589L614.652 315.681C611.552 317.313 608.48 316.079 608.48 316.079L612.104 357.99L618.269 357.589Z" fill="#C77FFF"/>
<path d="M611.105 316.525L614.673 357.825L618.269 357.589L614.652 315.681C613.397 316.343 612.145 316.531 611.105 316.525Z" fill="#C77FFF"/>
<path d="M632.839 388.419H609.305L607.565 346.257H634.59L632.839 388.419Z" fill="#C77FFF"/>
<path d="M634.395 350.784L634.59 346.257H607.565L609.305 388.419H616.15L634.395 350.784Z" fill="#C77FFF"/>
<mask id="mask3_898_32514" style="mask-type:luminance" maskUnits="userSpaceOnUse" x="72" y="118" width="342" height="533">
<path d="M72.0421 118.029H413.647V650.69H72.0421V118.029Z" fill="white"/>
</mask>
<g mask="url(#mask3_898_32514)">
<path d="M72.0558 650.532H413.22V118.092H72.0558V650.532Z" fill="#C77FFF"/>
</g>
<path d="M88.8313 405.565H396.445V133.067H88.8313V405.565Z" fill="#C77FFF"/>
<path d="M104.338 405.448H88.8313V133.067H104.338V405.448Z" fill="#C77FFF"/>
<path d="M396.445 405.448H380.946V133.067H396.445V405.448Z" fill="#C77FFF"/>
<path d="M384.59 200.209H343.81V145.368H384.59V200.209Z" fill="#C77FFF"/>
<path d="M387.572 200.455H378.598V145.368H387.572V200.455Z" fill="#C77FFF"/>
<path d="M386.92 158.245H379.254V154.446H386.92V158.245Z" fill="#C77FFF"/>
<path d="M386.92 183.932H379.815V182.558H386.92V183.932Z" fill="#C77FFF"/>
<path d="M386.92 186.438H379.815V185.063H386.92V186.438Z" fill="#C77FFF"/>
<path d="M363.394 200.233H326.733V150.922H363.394V200.233Z" fill="#C77FFF"/>
<path d="M366.092 200.455H358.016V150.922H366.092V200.455Z" fill="#C77FFF"/>
<path d="M365.502 162.496H358.602V159.086H365.502V162.496Z" fill="#C77FFF"/>
<path d="M365.502 185.599H359.105V184.36H365.502V185.599Z" fill="#C77FFF"/>
<path d="M365.502 187.848H359.105V186.614H365.502V187.848Z" fill="#C77FFF"/>
<path d="M347.454 160.026H340.114V156.392H347.454V160.026Z" fill="#C77FFF"/>
<path d="M347.454 184.629H340.648V183.315H347.454V184.629Z" fill="#C77FFF"/>
<path d="M347.454 187.03H340.648V185.716H347.454V187.03Z" fill="#C77FFF"/>
<path d="M327.766 200.197H284.746V142.327H327.766V200.197Z" fill="#C77FFF"/>
<path d="M330.936 200.455H321.459V142.327H330.936V200.455Z" fill="#C77FFF"/>
<path d="M330.235 155.91H322.153V151.904H330.235V155.91Z" fill="#C77FFF"/>
<path d="M330.235 183.022H322.746V181.57H330.235V183.022Z" fill="#C77FFF"/>
<path d="M330.235 185.662H322.746V184.213H330.235V185.662Z" fill="#C77FFF"/>
<path d="M307.843 200.239H272.489V152.691H307.843V200.239Z" fill="#C77FFF"/>
<path d="M310.44 200.455H302.652V152.691H310.44V200.455Z" fill="#C77FFF"/>
<path d="M309.871 163.855H303.221V160.565H309.871V163.855Z" fill="#C77FFF"/>
<path d="M309.871 186.126H303.703V184.935H309.871V186.126Z" fill="#C77FFF"/>
<path d="M309.871 188.3H303.703V187.108H309.871V188.3Z" fill="#C77FFF"/>
<path d="M288.363 200.221H250.294V149.039H288.363V200.221Z" fill="#C77FFF"/>
<path d="M291.158 200.455H282.773V149.039H291.158V200.455Z" fill="#C77FFF"/>
<path d="M290.544 161.053H283.387V157.511H290.544V161.053Z" fill="#C77FFF"/>
<path d="M290.544 185.033H283.911V183.749H290.544V185.033Z" fill="#C77FFF"/>
<path d="M290.544 187.372H283.911V186.09H290.544V187.372Z" fill="#C77FFF"/>
<path d="M234.979 638.323H88.8313V413.962H234.979V638.323Z" fill="#C77FFF"/>
<path d="M396.445 638.323H250.294V413.962H396.445V638.323Z" fill="#C77FFF"/>
<path d="M250.294 405.565H234.979V133.067H250.294V405.565Z" fill="#C77FFF"/>
<path d="M396.445 210.843H88.8313V199.374H396.445V210.843Z" fill="#C77FFF"/>
<path d="M396.445 326.501H88.8313V315.041H396.445V326.501Z" fill="#C77FFF"/>
<path d="M217.142 534.671C217.142 537.045 219.365 538.97 222.118 538.97C224.864 538.97 227.094 537.045 227.094 534.671V495.011C227.094 492.637 224.864 490.712 222.118 490.712C219.365 490.712 217.142 492.637 217.142 495.011V534.671Z" fill="#C77FFF"/>
<path d="M261.102 534.671C261.102 537.045 263.332 538.97 266.085 538.97C268.831 538.97 271.057 537.045 271.057 534.671V495.011C271.057 492.637 268.831 490.712 266.085 490.712C263.332 490.712 261.102 492.637 261.102 495.011V534.671Z" fill="#C77FFF"/>
<path d="M135.346 199.374H120.149V139.994H135.346V199.374Z" fill="#C77FFF"/>
<path d="M133.287 156.074H121.785V149.685H133.287V156.074Z" fill="#C77FFF"/>
<path d="M148.419 199.374H135.346V146.443H148.419V199.374Z" fill="#C77FFF"/>
<path d="M146.831 160.778H136.931V155.08H146.831V160.778Z" fill="#C77FFF"/>
<path d="M161.491 199.374H148.419V151.817H161.491V199.374Z" fill="#C77FFF"/>
<path d="M159.896 164.694H150.01V159.58H159.896V164.694Z" fill="#C77FFF"/>
<path d="M174.563 199.374H161.491V137.845H174.563V199.374Z" fill="#C77FFF"/>
<path d="M172.971 154.505H163.082V147.886H172.971V154.505Z" fill="#C77FFF"/>
<path d="M187.635 199.374H174.563V141.875H187.635V199.374Z" fill="#C77FFF"/>
<path d="M186.043 157.448H176.154V151.257H186.043V157.448Z" fill="#C77FFF"/>
<path d="M200.707 199.374H187.635V144.428H200.707V199.374Z" fill="#C77FFF"/>
<path d="M199.115 159.308H189.219V153.395H199.115V159.308Z" fill="#C77FFF"/>
<path d="M213.772 199.374H200.707V138.92H213.772V199.374Z" fill="#C77FFF"/>
<path d="M212.181 155.293H202.298V148.784H212.181V155.293Z" fill="#C77FFF"/>
<path d="M213.772 313.894H102.489V294.635H213.772V313.894Z" fill="#C77FFF"/>
<path d="M227.864 292.667H119.393V279.243H227.864V292.667Z" fill="#C77FFF"/>
<path d="M121.557 290.701V280.893H232.031V280.252C232.031 279.288 230.766 278.51 229.209 278.51H114.012C112.455 278.51 111.189 279.288 111.189 280.252V291.722C111.189 292.686 112.455 293.464 114.012 293.464H229.209C230.766 293.464 232.031 292.686 232.031 291.722V290.701H121.557Z" fill="#C77FFF"/>
<path d="M227.864 285.051H121.557V280.893H227.864V285.051Z" fill="#C77FFF"/>
<path d="M205.634 277.797H113.595V266.289H205.634V277.797Z" fill="#C77FFF"/>
<path d="M205.634 271.268H115.416V267.705H205.634V271.268Z" fill="#C77FFF"/>
<path d="M212.604 264.903H120.565V253.395H212.604V264.903Z" fill="#C77FFF"/>
<path d="M122.385 263.217V254.808H216.144V254.263C216.144 253.433 215.062 252.766 213.751 252.766H115.988C114.663 252.766 113.595 253.433 113.595 254.263V264.092C113.595 264.915 114.663 265.582 115.988 265.582H213.751C215.062 265.582 216.144 264.915 216.144 264.092V263.217H122.385Z" fill="#C77FFF"/>
<path d="M212.604 258.373H122.385V254.808H212.604V258.373Z" fill="#C77FFF"/>
<path d="M383.924 313.466H332.506V302.855H383.924V313.466Z" fill="#C77FFF"/>
<path d="M331.147 301.281H260.967C259.205 301.281 257.773 302.514 257.773 304.035V312.286C257.773 313.807 259.205 315.04 260.967 315.04H331.147V301.281Z" fill="#C77FFF"/>
<path d="M383.924 307.176H335.239V304.427H383.924V307.176Z" fill="#C77FFF"/>
<path d="M379.07 299.613H327.652V288.997H379.07V299.613Z" fill="#C77FFF"/>
<path d="M278.058 298.628H272.78V290.177H278.058V298.628Z" fill="#C77FFF"/>
<path d="M285.787 301.182H281.702V287.422H285.787V301.182Z" fill="#C77FFF"/>
<path d="M377.409 285.854H326.001V275.243H377.409V285.854Z" fill="#C77FFF"/>
<path d="M328.734 284.282V276.812H379.92V276.417C379.92 274.902 378.491 273.669 376.736 273.669H275.835C274.081 273.669 272.645 274.902 272.645 276.417V284.674C272.645 286.195 274.081 287.422 275.835 287.422H376.736C378.491 287.422 379.92 286.195 379.92 284.674V284.282H328.734Z" fill="#C77FFF"/>
<path d="M377.409 279.567H328.734V276.812H377.409V279.567Z" fill="#C77FFF"/>
<path d="M311.629 405.466H297.007V399.517H311.629V405.466Z" fill="#C77FFF"/>
<path d="M341.431 405.466H326.809V399.517H341.431V405.466Z" fill="#C77FFF"/>
<path d="M329.881 400.61H307.246V373.046H329.881V400.61Z" fill="#C77FFF"/>
<path d="M324.843 387.497C324.843 390.65 321.889 393.197 318.238 393.197C314.594 393.197 311.629 390.65 311.629 387.497C311.629 384.345 314.594 381.788 318.238 381.788C321.889 381.788 324.843 384.345 324.843 387.497Z" fill="#C77FFF"/>
<path d="M319.406 383.369H317.579V373.046H319.406V383.369Z" fill="#C77FFF"/>
<path d="M333.075 359.164C333.075 366.088 326.577 371.702 318.564 371.702C310.551 371.702 304.049 366.088 304.049 359.164C304.049 352.233 310.551 346.619 318.564 346.619C326.577 346.619 333.075 352.233 333.075 359.164Z" fill="#C77FFF"/>
<path d="M306.248 359.163V358.945H305.058V359.376H306.248V359.163Z" fill="#C77FFF"/>
<path d="M318.564 348.511L318.813 348.523V347.497H318.311V348.523L318.564 348.511Z" fill="#C77FFF"/>
<path d="M327.454 351.787L328.297 351.065L327.936 350.76L327.094 351.481L327.454 351.787Z" fill="#C77FFF"/>
<path d="M327.094 366.84L327.936 367.561L328.297 367.256L327.454 366.528L327.094 366.84Z" fill="#C77FFF"/>
<path d="M330.88 358.945L330.887 359.163L330.88 359.376H332.069V358.945H330.88Z" fill="#C77FFF"/>
<path d="M318.564 369.809L318.311 369.803V370.824H318.813V369.803L318.564 369.809Z" fill="#C77FFF"/>
<path d="M309.68 366.528L308.838 367.256L309.195 367.561L310.034 366.84L309.68 366.528Z" fill="#C77FFF"/>
<path d="M327.694 359.822H317.94V349.715C317.94 349.41 318.217 349.17 318.564 349.17C318.918 349.17 319.195 349.41 319.195 349.715V358.735H327.694C328.04 358.735 328.325 358.975 328.325 359.274C328.325 359.58 328.04 359.822 327.694 359.822Z" fill="#C77FFF"/>
<path d="M320.88 359.169C320.88 360.151 319.965 360.948 318.827 360.948C317.687 360.948 316.768 360.151 316.768 359.169C316.768 358.187 317.687 357.391 318.827 357.391C319.965 357.391 320.88 358.187 320.88 359.169Z" fill="#C77FFF"/>
<path d="M319.691 359.17C319.691 359.58 319.306 359.915 318.827 359.915C318.352 359.915 317.964 359.58 317.964 359.17C317.964 358.759 318.352 358.424 318.827 358.424C319.306 358.424 319.691 358.759 319.691 359.17Z" fill="#C77FFF"/>
<mask id="mask4_898_32514" style="mask-type:luminance" maskUnits="userSpaceOnUse" x="187" y="313" width="116" height="140">
<path d="M187 313H303V453H187V313Z" fill="white"/>
</mask>
<g mask="url(#mask4_898_32514)">
<path d="M290.519 367.102V355.616C290.519 332.122 270.085 313 244.978 313C219.872 313 199.428 332.118 199.428 355.616V367.102C192.553 367.276 187.027 372.518 187.027 378.994V441.075C187.027 441.465 187.049 441.854 187.09 442.243C187.13 442.633 187.192 443.018 187.273 443.401C187.354 443.784 187.455 444.162 187.576 444.536C187.697 444.91 187.837 445.278 187.998 445.638C188.158 445.999 188.335 446.352 188.532 446.696C188.73 447.041 188.943 447.374 189.176 447.7C189.407 448.024 189.655 448.338 189.921 448.64C190.185 448.942 190.465 449.231 190.759 449.508C191.055 449.783 191.364 450.045 191.686 450.293C192.01 450.541 192.343 450.774 192.691 450.99C193.038 451.207 193.396 451.409 193.764 451.592C194.132 451.776 194.509 451.944 194.894 452.092C195.28 452.242 195.672 452.373 196.071 452.487C196.471 452.6 196.875 452.695 197.285 452.772C197.694 452.847 198.107 452.904 198.521 452.943C198.937 452.981 199.354 453 199.771 453H290.178C290.596 453 291.013 452.981 291.427 452.943C291.843 452.905 292.256 452.847 292.664 452.772C293.074 452.695 293.479 452.6 293.877 452.487C294.277 452.373 294.67 452.242 295.055 452.093C295.441 451.944 295.818 451.776 296.186 451.592C296.554 451.409 296.912 451.207 297.258 450.991C297.606 450.774 297.94 450.541 298.263 450.294C298.585 450.045 298.894 449.785 299.19 449.508C299.485 449.232 299.765 448.943 300.03 448.64C300.294 448.339 300.543 448.026 300.775 447.701C301.006 447.376 301.221 447.041 301.418 446.698C301.614 446.353 301.793 446.001 301.953 445.638C302.112 445.278 302.252 444.91 302.373 444.537C302.495 444.163 302.597 443.785 302.678 443.403C302.759 443.019 302.821 442.633 302.861 442.245C302.902 441.856 302.924 441.467 302.924 441.075V378.994C302.924 372.518 297.396 367.275 290.519 367.102ZM255.399 401.456C255.343 401.825 255.122 402.669 255.102 402.733C254.324 405.256 252.464 407.327 250.049 408.588L254.14 424.908C254.199 425.076 254.237 425.249 254.253 425.425C254.269 425.602 254.263 425.778 254.235 425.953C254.207 426.129 254.158 426.299 254.087 426.464C254.017 426.627 253.927 426.783 253.818 426.927C253.709 427.072 253.583 427.203 253.44 427.32C253.299 427.438 253.144 427.538 252.977 427.622C252.809 427.704 252.634 427.769 252.451 427.814C252.268 427.858 252.081 427.882 251.892 427.887H238.336C238.147 427.882 237.96 427.858 237.777 427.814C237.594 427.769 237.419 427.704 237.252 427.622C237.084 427.538 236.93 427.438 236.788 427.32C236.645 427.203 236.52 427.072 236.41 426.927C236.302 426.783 236.211 426.627 236.141 426.463C236.071 426.299 236.022 426.129 235.993 425.953C235.965 425.778 235.959 425.602 235.975 425.425C235.991 425.249 236.03 425.076 236.089 424.908L239.902 408.588C237.487 407.327 235.627 405.256 234.851 402.733C234.829 402.669 234.607 401.825 234.55 401.456C234.48 400.999 234.444 400.541 234.442 400.082C234.442 399.759 234.459 399.436 234.493 399.115C234.527 398.793 234.578 398.474 234.644 398.158C234.712 397.842 234.796 397.529 234.895 397.219C234.995 396.911 235.111 396.607 235.243 396.309C235.375 396.01 235.522 395.718 235.685 395.433C235.847 395.149 236.024 394.872 236.216 394.604C236.408 394.335 236.613 394.077 236.831 393.827C237.051 393.577 237.282 393.338 237.526 393.109C237.77 392.881 238.025 392.665 238.292 392.46C238.558 392.256 238.835 392.062 239.123 391.883C239.408 391.704 239.704 391.538 240.009 391.386C240.314 391.234 240.624 391.095 240.943 390.972C241.262 390.849 241.587 390.74 241.916 390.647C242.247 390.552 242.582 390.474 242.92 390.412C243.257 390.348 243.6 390.301 243.942 390.27C244.285 390.237 244.63 390.221 244.975 390.221C245.321 390.221 245.664 390.237 246.008 390.27C246.351 390.301 246.692 390.348 247.03 390.412C247.369 390.474 247.703 390.552 248.033 390.647C248.364 390.74 248.687 390.849 249.006 390.972C249.325 391.095 249.637 391.234 249.942 391.386C250.245 391.538 250.541 391.704 250.828 391.883C251.114 392.062 251.391 392.256 251.658 392.46C251.926 392.665 252.18 392.881 252.424 393.109C252.668 393.338 252.9 393.577 253.118 393.827C253.338 394.077 253.543 394.335 253.735 394.604C253.925 394.872 254.103 395.149 254.266 395.433C254.428 395.718 254.575 396.01 254.708 396.309C254.839 396.607 254.954 396.911 255.056 397.219C255.155 397.529 255.239 397.842 255.305 398.158C255.373 398.474 255.424 398.793 255.457 399.115C255.492 399.436 255.507 399.759 255.507 400.082C255.507 400.541 255.471 400.999 255.399 401.456ZM274.969 367.069H214.979V355.616C214.979 340.136 228.432 327.545 244.978 327.545C261.525 327.545 274.969 340.136 274.969 355.616V367.069Z" fill="#798996"/>
</g>
<mask id="mask5_898_32514" style="mask-type:luminance" maskUnits="userSpaceOnUse" x="183" y="314" width="116" height="140">
<path d="M183 314H299V454H183V314Z" fill="white"/>
</mask>
<g mask="url(#mask5_898_32514)">
<path d="M286.519 368.102V356.616C286.519 333.122 266.085 314 240.978 314C215.872 314 195.428 333.118 195.428 356.616V368.102C188.553 368.276 183.027 373.518 183.027 379.994V442.075C183.027 442.465 183.049 442.854 183.09 443.243C183.13 443.633 183.192 444.018 183.273 444.401C183.354 444.784 183.455 445.162 183.576 445.536C183.697 445.91 183.837 446.278 183.998 446.638C184.158 446.999 184.335 447.352 184.532 447.696C184.73 448.041 184.943 448.374 185.176 448.7C185.407 449.024 185.655 449.338 185.921 449.64C186.185 449.942 186.465 450.231 186.759 450.508C187.055 450.783 187.364 451.045 187.686 451.293C188.01 451.541 188.343 451.774 188.691 451.99C189.038 452.207 189.396 452.409 189.764 452.592C190.132 452.776 190.509 452.944 190.894 453.092C191.28 453.242 191.672 453.373 192.071 453.487C192.471 453.6 192.875 453.695 193.285 453.772C193.694 453.847 194.107 453.904 194.521 453.943C194.937 453.981 195.354 454 195.771 454H286.178C286.596 454 287.013 453.981 287.427 453.943C287.843 453.905 288.256 453.847 288.664 453.772C289.074 453.695 289.479 453.6 289.877 453.487C290.277 453.373 290.67 453.242 291.055 453.093C291.441 452.944 291.818 452.776 292.186 452.592C292.554 452.409 292.912 452.207 293.258 451.991C293.606 451.774 293.94 451.541 294.263 451.294C294.585 451.045 294.894 450.785 295.19 450.508C295.485 450.232 295.765 449.943 296.03 449.64C296.294 449.339 296.543 449.026 296.775 448.701C297.006 448.376 297.221 448.041 297.418 447.698C297.614 447.353 297.793 447.001 297.953 446.638C298.112 446.278 298.252 445.91 298.373 445.537C298.495 445.163 298.597 444.785 298.678 444.403C298.759 444.019 298.821 443.633 298.861 443.245C298.902 442.856 298.924 442.467 298.924 442.075V379.994C298.924 373.518 293.396 368.275 286.519 368.102ZM251.399 402.456C251.343 402.825 251.122 403.669 251.102 403.733C250.324 406.256 248.464 408.327 246.049 409.588L250.14 425.908C250.199 426.076 250.237 426.249 250.253 426.425C250.269 426.602 250.263 426.778 250.235 426.953C250.207 427.129 250.158 427.299 250.087 427.464C250.017 427.627 249.927 427.783 249.818 427.927C249.709 428.072 249.583 428.203 249.44 428.32C249.299 428.438 249.144 428.538 248.977 428.622C248.809 428.704 248.634 428.769 248.451 428.814C248.268 428.858 248.081 428.882 247.892 428.887H234.336C234.147 428.882 233.96 428.858 233.777 428.814C233.594 428.769 233.419 428.704 233.252 428.622C233.084 428.538 232.93 428.438 232.788 428.32C232.645 428.203 232.52 428.072 232.41 427.927C232.302 427.783 232.211 427.627 232.141 427.463C232.071 427.299 232.022 427.129 231.993 426.953C231.965 426.778 231.959 426.602 231.975 426.425C231.991 426.249 232.03 426.076 232.089 425.908L235.902 409.588C233.487 408.327 231.627 406.256 230.851 403.733C230.829 403.669 230.607 402.825 230.55 402.456C230.48 401.999 230.444 401.541 230.442 401.082C230.442 400.759 230.459 400.436 230.493 400.115C230.527 399.793 230.578 399.474 230.644 399.158C230.712 398.842 230.796 398.529 230.895 398.219C230.995 397.911 231.111 397.607 231.243 397.309C231.375 397.01 231.522 396.718 231.685 396.433C231.847 396.149 232.024 395.872 232.216 395.604C232.408 395.335 232.613 395.077 232.831 394.827C233.051 394.577 233.282 394.338 233.526 394.109C233.77 393.881 234.025 393.665 234.292 393.46C234.558 393.256 234.835 393.062 235.123 392.883C235.408 392.704 235.704 392.538 236.009 392.386C236.314 392.234 236.624 392.095 236.943 391.972C237.262 391.849 237.587 391.74 237.916 391.647C238.247 391.552 238.582 391.474 238.92 391.412C239.257 391.348 239.6 391.301 239.942 391.27C240.285 391.237 240.63 391.221 240.975 391.221C241.321 391.221 241.664 391.237 242.008 391.27C242.351 391.301 242.692 391.348 243.03 391.412C243.369 391.474 243.703 391.552 244.033 391.647C244.364 391.74 244.687 391.849 245.006 391.972C245.325 392.095 245.637 392.234 245.942 392.386C246.245 392.538 246.541 392.704 246.828 392.883C247.114 393.062 247.391 393.256 247.658 393.46C247.926 393.665 248.18 393.881 248.424 394.109C248.668 394.338 248.9 394.577 249.118 394.827C249.338 395.077 249.543 395.335 249.735 395.604C249.925 395.872 250.103 396.149 250.266 396.433C250.428 396.718 250.575 397.01 250.708 397.309C250.839 397.607 250.954 397.911 251.056 398.219C251.155 398.529 251.239 398.842 251.305 399.158C251.373 399.474 251.424 399.793 251.457 400.115C251.492 400.436 251.507 400.759 251.507 401.082C251.507 401.541 251.471 401.999 251.399 402.456ZM270.969 368.069H210.979V356.616C210.979 341.136 224.432 328.545 240.978 328.545C257.525 328.545 270.969 341.136 270.969 356.616V368.069Z" fill="#515C65" fill-opacity="0.64"/>
</g>
</svg>
