<svg width="719" height="776" viewBox="0 0 719 776" fill="none" xmlns="http://www.w3.org/2000/svg">
<mask id="mask0_724_27091" style="mask-type:luminance" maskUnits="userSpaceOnUse" x="444" y="645" width="23" height="10">
<path d="M444.715 645.325H466.906V654.469H444.715V645.325Z" fill="white"/>
</mask>
<g mask="url(#mask0_724_27091)">
<path d="M466.868 654.382H444.746V645.487H466.868V654.382Z" fill="#894629"/>
</g>
<mask id="mask1_724_27091" style="mask-type:luminance" maskUnits="userSpaceOnUse" x="613" y="645" width="24" height="10">
<path d="M613.369 645.325H636.448V654.469H613.369V645.325Z" fill="white"/>
</mask>
<g mask="url(#mask1_724_27091)">
<path d="M635.956 654.382H613.83V645.487H635.956V654.382Z" fill="#894629"/>
</g>
<path d="M434.469 648.065H646.223V401.418H434.469V648.065Z" fill="#EFA354"/>
<path d="M440.471 625.105H640.235V415.355H440.471V625.105Z" fill="#C57B3B"/>
<path d="M444.746 465.402H635.956V419.483H444.746V465.402Z" fill="#EFA354"/>
<path d="M565.737 445.544C565.737 445.966 565.339 446.314 564.839 446.314H515.859C515.367 446.314 514.968 445.966 514.968 445.544V439.347C514.968 438.919 515.367 438.575 515.859 438.575H564.839C565.339 438.575 565.737 438.919 565.737 439.347V445.544Z" fill="#C5DDE6"/>
<path d="M635.956 517.001H444.746V471.082H635.956V517.001Z" fill="#EFA354"/>
<path d="M565.737 497.137C565.737 497.565 565.339 497.912 564.839 497.912H515.859C515.367 497.912 514.968 497.565 514.968 497.137V490.949C514.968 490.524 515.367 490.173 515.859 490.173H564.839C565.339 490.173 565.737 490.524 565.737 490.949V497.137Z" fill="#C5DDE6"/>
<path d="M635.956 568.603H444.746V522.68H635.956V568.603Z" fill="#EFA354"/>
<path d="M565.737 548.736C565.737 549.164 565.339 549.511 564.839 549.511H515.859C515.367 549.511 514.968 549.164 514.968 548.736V542.547C514.968 542.119 515.367 541.772 515.859 541.772H564.839C565.339 541.772 565.737 542.119 565.737 542.547V548.736Z" fill="#C5DDE6"/>
<path d="M635.956 620.201H444.746V574.279H635.956V620.201Z" fill="#EFA354"/>
<path d="M565.737 600.334C565.737 600.762 565.339 601.11 564.839 601.11H515.859C515.367 601.11 514.968 600.762 514.968 600.334V594.146C514.968 593.718 515.367 593.371 515.859 593.371H564.839C565.339 593.371 565.737 593.718 565.737 594.146V600.334Z" fill="#C5DDE6"/>
<mask id="mask2_724_27091" style="mask-type:luminance" maskUnits="userSpaceOnUse" x="426" y="387" width="228" height="24">
<path d="M426.962 387.808H653.612V410.035H426.962V387.808Z" fill="white"/>
</mask>
<g mask="url(#mask2_724_27091)">
<path d="M427.101 409.675H653.598V388.524H427.101V409.675Z" fill="#C5DDE6"/>
</g>
<path d="M646.223 435.994L640.235 435.644V415.355H440.471V423.962L434.469 423.612V409.675H646.223V435.994Z" fill="#DA8440"/>
<path d="M640.235 435.644L635.956 435.395V419.483H444.746V424.21L440.471 423.962V415.355H640.235V435.644Z" fill="#B76734"/>
<path d="M635.956 435.395L444.746 424.21V419.483H635.956V435.395Z" fill="#DA8440"/>
<path d="M578.993 284.926C584.132 289.365 584.132 296.56 578.993 300.993C573.855 305.433 565.533 305.433 560.387 300.993C555.249 296.56 555.249 289.365 560.387 284.926C565.519 280.489 573.855 280.489 578.993 284.926Z" fill="#EA7B20"/>
<path d="M560.131 267.274L552.509 260.699C546.937 255.888 537.915 255.888 532.343 260.699C526.767 265.508 526.767 273.307 532.343 278.115L539.961 284.698C539.825 289.407 541.837 294.153 545.997 297.745L556.521 306.843L585.758 281.59L575.228 272.495C571.074 268.903 565.574 267.163 560.131 267.274Z" fill="#1B181A"/>
<path d="M586.986 278.522C587.634 279.079 587.634 279.977 586.986 280.534L555.297 307.906C554.659 308.457 553.619 308.457 552.978 307.906C552.34 307.346 552.34 306.448 552.978 305.891L584.649 278.522C585.301 277.968 586.348 277.968 586.986 278.522Z" fill="#2F2A2D"/>
<path d="M458.616 316.507L456.726 314.864L524.763 256.083L526.653 257.727L458.616 316.507Z" fill="#281E1F"/>
<path d="M462.558 319.908L460.654 318.271L528.692 259.49L530.602 261.134L462.558 319.908Z" fill="#281E1F"/>
<path d="M519.5 370.848L512.554 375.953L458.702 321.327L465.651 316.22L519.5 370.848Z" fill="#281E1F"/>
<path d="M527.814 383.129V371.142C527.814 364.795 521.854 359.645 514.503 359.645C507.163 359.645 501.202 364.795 501.202 371.142V383.129H527.814Z" fill="#6D97AA"/>
<path d="M575.2 388.524V380.944C575.2 380.456 574.739 380.069 574.188 380.069H450.613C450.051 380.069 449.601 380.456 449.601 380.944V388.524H575.2Z" fill="#281E1F"/>
<path d="M521.012 372.264C521.012 375.366 518.096 377.878 514.503 377.878C510.915 377.878 508.005 375.366 508.005 372.264C508.005 369.163 510.915 366.651 514.503 366.651C518.096 366.651 521.012 369.163 521.012 372.264Z" fill="#578296"/>
<path d="M468.973 316.139C468.973 320.459 464.923 323.959 459.92 323.959C454.916 323.959 450.866 320.459 450.866 316.139C450.866 311.822 454.916 308.316 459.92 308.316C464.923 308.316 468.973 311.822 468.973 316.139Z" fill="#6D97AA"/>
<path d="M464.413 316.139C464.413 318.28 462.395 320.019 459.92 320.019C457.433 320.019 455.426 318.28 455.426 316.139C455.426 313.996 457.433 312.256 459.92 312.256C462.395 312.256 464.413 313.996 464.413 316.139Z" fill="#578296"/>
<path d="M539.112 259.49C539.112 263.81 535.062 267.31 530.051 267.31C525.062 267.31 521.012 263.81 521.012 259.49C521.012 255.173 525.062 251.673 530.051 251.673C535.062 251.673 539.112 255.173 539.112 259.49Z" fill="#6D97AA"/>
<path d="M534.558 259.49C534.558 261.631 532.544 263.37 530.051 263.37C527.582 263.37 525.557 261.631 525.557 259.49C525.557 257.346 527.582 255.607 530.051 255.607C532.544 255.607 534.558 257.346 534.558 259.49Z" fill="#578296"/>
<path d="M623.695 362.193H618.57V327.324L621.126 321.417L623.695 327.324V362.193Z" fill="#EE9D2B"/>
<path d="M622.409 324.369L621.126 321.417L619.853 324.369H622.409Z" fill="#1D1E29"/>
<path d="M623.695 362.193V327.324C621.015 328.504 618.57 327.324 618.57 327.324V362.193H623.695Z" fill="#1D1E29"/>
<path d="M631.334 315.975C631.313 316.361 630.928 316.666 630.464 316.654C630.016 316.636 629.67 316.301 629.69 315.909L629.874 311.999C629.881 311.604 630.276 311.298 630.737 311.316C631.185 311.328 631.538 311.663 631.518 312.056L631.334 315.975Z" fill="white"/>
<path d="M629.406 313.942L627.311 318.235L625.304 360.22L631.483 360.445L633.49 318.45L631.798 314.023L629.406 313.942Z" fill="#32496C"/>
<path d="M631.483 360.445L625.304 360.22L627.311 318.235L633.49 318.45L631.483 360.445Z" fill="#39608F"/>
<path d="M618.268 357.589L612.103 357.99L608.48 316.079L610.956 308.78L614.652 315.681L618.268 357.589Z" fill="#C99D62"/>
<path d="M612.797 312.232L610.956 308.78L609.718 312.433L612.797 312.232Z" fill="#1D1E29"/>
<path d="M618.268 357.589L614.652 315.681C611.552 317.313 608.48 316.079 608.48 316.079L612.103 357.99L618.268 357.589Z" fill="#F36326"/>
<path d="M611.105 316.525L614.673 357.825L618.269 357.589L614.652 315.681C613.397 316.343 612.145 316.531 611.105 316.525Z" fill="#CE4B28"/>
<path d="M632.838 388.419H609.305L607.564 346.257H634.589L632.838 388.419Z" fill="#E73229"/>
<path d="M634.395 350.784L634.589 346.257H607.564L609.305 388.419H616.15L634.395 350.784Z" fill="#CB2C28"/>
<mask id="mask3_724_27091" style="mask-type:luminance" maskUnits="userSpaceOnUse" x="72" y="118" width="342" height="533">
<path d="M72.042 118.029H413.647V650.69H72.042V118.029Z" fill="white"/>
</mask>
<g mask="url(#mask3_724_27091)">
<path d="M72.0557 650.532H413.22V118.091H72.0557V650.532Z" fill="#EFA354"/>
</g>
<path d="M88.8315 405.565H396.445V133.067H88.8315V405.565Z" fill="#96735A"/>
<path d="M209.611 346.784C207.381 344.793 204.635 345.104 204.635 345.104C204.635 345.104 200.87 345.087 199.666 346.784C199.666 346.784 169.649 389.739 187.288 403.242C187.288 403.242 190.162 405.741 204.635 405.49C219.108 405.741 221.983 403.242 221.983 403.242C239.621 389.739 209.611 346.784 209.611 346.784Z" fill="#AF2829"/>
<path d="M187.288 403.242C187.288 403.242 190.162 405.741 204.635 405.49C219.108 405.741 221.983 403.242 221.983 403.242C228.449 398.296 228.508 389.398 226.001 380.108C218.293 382.629 210.686 399.077 196.362 393.805C181.924 388.488 196.934 357.894 203.963 345.134C202.815 345.218 200.558 345.539 199.666 346.784C199.666 346.784 169.649 389.739 187.288 403.242Z" fill="#8C2125"/>
<path d="M184.868 375.037C180.946 386.039 179.66 397.398 187.288 403.242C187.288 403.242 190.163 405.741 204.636 405.49C219.109 405.741 221.983 403.242 221.983 403.242C226.407 399.859 227.829 394.619 227.482 388.671C218.848 391.808 206.505 399.598 197.33 399.676C189.164 399.751 186.043 386.434 184.868 375.037Z" fill="#691B1E"/>
<path d="M216.803 377.519C208.994 377.519 205.534 351.182 207.94 350.544C207.94 350.544 226.272 375.049 217.791 377.384C217.451 377.48 217.122 377.519 216.803 377.519Z" fill="#C96D5B"/>
<path d="M104.338 405.448H88.8315V133.067H104.338V405.448Z" fill="#7E5649"/>
<path d="M178.907 393.88H99.4969C94.2091 399.883 103.998 405.631 103.998 405.631H174.407C174.407 405.631 184.195 399.883 178.907 393.88Z" fill="#E34227"/>
<path d="M174.407 405.631C174.407 405.631 179.778 402.466 180.409 398.389C169.119 402.975 117.472 402.43 115.464 401.131C113.155 399.628 117.212 397.461 122.032 396.628C124.119 396.269 125.267 395.095 125.891 393.88H99.4969C94.2091 399.883 103.998 405.631 103.998 405.631H174.407Z" fill="#BB3829"/>
<path d="M147.059 398.125C137.93 398.125 129.84 397.538 129.747 395.377C129.747 395.377 148.956 395.266 162.226 395.266C168.859 395.266 174.004 395.296 174.521 395.377C176.057 395.631 177.413 397.128 171.817 397.299C168.859 397.386 157.305 398.125 147.059 398.125Z" fill="#ED8562"/>
<path d="M396.445 405.448H380.946V133.067H396.445V405.448Z" fill="#7E5649"/>
<path d="M384.59 200.209H343.81V145.368H384.59V200.209Z" fill="#9C2727"/>
<path d="M387.572 200.455H378.599V145.368H387.572V200.455Z" fill="#CE312D"/>
<path d="M386.92 158.245H379.254V154.446H386.92V158.245Z" fill="#EE9D2B"/>
<path d="M386.92 183.932H379.815V182.558H386.92V183.932Z" fill="#EE9D2B"/>
<path d="M386.92 186.438H379.815V185.063H386.92V186.438Z" fill="#EE9D2B"/>
<path d="M363.394 200.233H326.733V150.922H363.394V200.233Z" fill="#2B2E4E"/>
<path d="M366.092 200.455H358.016V150.922H366.092V200.455Z" fill="#39487C"/>
<path d="M365.502 162.496H358.602V159.086H365.502V162.496Z" fill="#DB5528"/>
<path d="M365.502 185.599H359.104V184.36H365.502V185.599Z" fill="#DB5528"/>
<path d="M365.502 187.848H359.104V186.614H365.502V187.848Z" fill="#DB5528"/>
<path d="M345.218 200.221H306.165V147.7H345.218V200.221Z" fill="#462B66"/>
<path d="M348.085 200.455H339.486V147.7H348.085V200.455Z" fill="#702D98"/>
<path d="M347.454 160.026H340.114V156.392H347.454V160.026Z" fill="#AD4754"/>
<path d="M347.454 184.629H340.648V183.315H347.454V184.629Z" fill="#AD4754"/>
<path d="M347.454 187.03H340.648V185.716H347.454V187.03Z" fill="#AD4754"/>
<path d="M327.766 200.197H284.746V142.327H327.766V200.197Z" fill="#9C2727"/>
<path d="M330.935 200.455H321.459V142.327H330.935V200.455Z" fill="#CE312D"/>
<path d="M330.235 155.91H322.153V151.904H330.235V155.91Z" fill="#E9BD91"/>
<path d="M330.235 183.022H322.746V181.57H330.235V183.022Z" fill="#E9BD91"/>
<path d="M330.235 185.662H322.746V184.213H330.235V185.662Z" fill="#E9BD91"/>
<path d="M307.843 200.239H272.489V152.691H307.843V200.239Z" fill="#DB5528"/>
<path d="M310.44 200.455H302.652V152.691H310.44V200.455Z" fill="#EE9D2B"/>
<path d="M309.871 163.855H303.221V160.565H309.871V163.855Z" fill="white"/>
<path d="M309.871 186.126H303.703V184.935H309.871V186.126Z" fill="white"/>
<path d="M309.871 188.3H303.703V187.108H309.871V188.3Z" fill="white"/>
<path d="M288.363 200.221H250.294V149.039H288.363V200.221Z" fill="#601B1D"/>
<path d="M291.158 200.455H282.773V149.039H291.158V200.455Z" fill="#762021"/>
<path d="M290.544 161.053H283.387V157.511H290.544V161.053Z" fill="#AD4754"/>
<path d="M290.544 185.033H283.911V183.749H290.544V185.033Z" fill="#AD4754"/>
<path d="M290.544 187.372H283.911V186.09H290.544V187.372Z" fill="#AD4754"/>
<path d="M234.979 638.323H88.8315V413.963H234.979V638.323Z" fill="#C5DDE6"/>
<path d="M396.445 638.323H250.294V413.963H396.445V638.323Z" fill="#C5DDE6"/>
<path d="M250.294 405.565H234.979V133.067H250.294V405.565Z" fill="#EFA354"/>
<path d="M396.445 210.843H88.8315V199.374H396.445V210.843Z" fill="#EFA354"/>
<path d="M396.445 326.501H88.8315V315.04H396.445V326.501Z" fill="#EFA354"/>
<path d="M217.143 534.671C217.143 537.045 219.365 538.97 222.118 538.97C224.864 538.97 227.094 537.045 227.094 534.671V495.011C227.094 492.637 224.864 490.712 222.118 490.712C219.365 490.712 217.143 492.637 217.143 495.011V534.671Z" fill="#789AA3"/>
<path d="M261.102 534.671C261.102 537.045 263.332 538.97 266.085 538.97C268.831 538.97 271.057 537.045 271.057 534.671V495.011C271.057 492.637 268.831 490.712 266.085 490.712C263.332 490.712 261.102 492.637 261.102 495.011V534.671Z" fill="#789AA3"/>
<path d="M135.347 199.374H120.149V139.994H135.347V199.374Z" fill="#EA7B20"/>
<path d="M133.287 156.074H121.786V149.685H133.287V156.074Z" fill="#E9BD91"/>
<path d="M148.419 199.374H135.347V146.443H148.419V199.374Z" fill="#AF652D"/>
<path d="M146.831 160.778H136.931V155.08H146.831V160.778Z" fill="#E9BD91"/>
<path d="M161.491 199.374H148.418V151.817H161.491V199.374Z" fill="#CE312D"/>
<path d="M159.896 164.693H150.01V159.58H159.896V164.693Z" fill="#E9BD91"/>
<path d="M174.563 199.374H161.491V137.845H174.563V199.374Z" fill="#762021"/>
<path d="M172.971 154.505H163.082V147.886H172.971V154.505Z" fill="#E9BD91"/>
<path d="M187.635 199.374H174.562V141.875H187.635V199.374Z" fill="#A92D30"/>
<path d="M186.043 157.448H176.154V151.257H186.043V157.448Z" fill="#E9BD91"/>
<path d="M200.707 199.374H187.635V144.428H200.707V199.374Z" fill="#EA7B20"/>
<path d="M199.115 159.308H189.219V153.395H199.115V159.308Z" fill="#E9BD91"/>
<path d="M213.772 199.374H200.707V138.92H213.772V199.374Z" fill="#A92D30"/>
<path d="M212.18 155.293H202.298V148.784H212.18V155.293Z" fill="#E9BD91"/>
<path d="M213.772 313.894H102.489V294.635H213.772V313.894Z" fill="white"/>
<path d="M104.698 311.071V297H218.054V296.084C218.054 294.703 216.757 293.584 215.152 293.584H96.9692C95.3638 293.584 94.0601 294.703 94.0601 296.084V312.532C94.0601 313.918 95.3638 315.04 96.9692 315.04H215.152C216.757 315.04 218.054 313.918 218.054 312.532V311.071H104.698Z" fill="#D42432"/>
<path d="M213.772 302.96H104.698V297H213.772V302.96Z" fill="#BAC7D4"/>
<path d="M227.864 292.668H119.393V279.243H227.864V292.668Z" fill="white"/>
<path d="M121.556 290.701V280.893H232.031V280.252C232.031 279.288 230.766 278.51 229.209 278.51H114.011C112.455 278.51 111.189 279.288 111.189 280.252V291.722C111.189 292.686 112.455 293.464 114.011 293.464H229.209C230.766 293.464 232.031 292.686 232.031 291.722V290.701H121.556Z" fill="#EA7B20"/>
<path d="M227.864 285.051H121.557V280.893H227.864V285.051Z" fill="#BAC7D4"/>
<path d="M205.634 277.797H113.596V266.289H205.634V277.797Z" fill="white"/>
<path d="M115.416 276.112V267.705H209.178V267.157C209.178 266.331 208.103 265.66 206.785 265.66H109.029C107.701 265.66 106.629 266.331 106.629 267.157V276.989C106.629 277.809 107.701 278.486 109.029 278.486H206.785C208.103 278.486 209.178 277.809 209.178 276.989V276.112H115.416Z" fill="#612692"/>
<path d="M205.634 271.268H115.416V267.705H205.634V271.268Z" fill="#BAC7D4"/>
<path d="M212.604 264.903H120.565V253.395H212.604V264.903Z" fill="white"/>
<path d="M122.386 263.217V254.808H216.144V254.263C216.144 253.433 215.062 252.766 213.752 252.766H115.988C114.664 252.766 113.596 253.433 113.596 254.263V264.092C113.596 264.915 114.664 265.582 115.988 265.582H213.752C215.062 265.582 216.144 264.915 216.144 264.092V263.217H122.386Z" fill="#2B2E4E"/>
<path d="M212.604 258.373H122.385V254.808H212.604V258.373Z" fill="#BAC7D4"/>
<path d="M383.924 313.466H332.506V302.856H383.924V313.466Z" fill="white"/>
<path d="M335.239 311.891V304.427H386.431V304.035C386.431 302.514 385.003 301.281 383.238 301.281H260.967C259.205 301.281 257.773 302.514 257.773 304.035V312.286C257.773 313.807 259.205 315.04 260.967 315.04H383.238C385.003 315.04 386.431 313.807 386.431 312.286V311.891H335.239Z" fill="#395193"/>
<path d="M331.147 301.281H260.967C259.205 301.281 257.773 302.514 257.773 304.035V312.286C257.773 313.807 259.205 315.04 260.967 315.04H331.147V301.281Z" fill="#333968"/>
<path d="M276.664 315.04H272.565V301.281H276.664V315.04Z" fill="#6381AA"/>
<path d="M383.925 307.176H335.239V304.427H383.925V307.176Z" fill="#BAC7D4"/>
<path d="M379.07 299.613H327.652V288.997H379.07V299.613Z" fill="white"/>
<path d="M330.384 298.038V290.569H381.563V290.177C381.563 288.656 380.145 287.422 378.384 287.422H270.097C268.335 287.422 266.91 288.656 266.91 290.177V298.428C266.91 299.949 268.335 301.182 270.097 301.182H378.384C380.145 301.182 381.563 299.949 381.563 298.428V298.038H330.384Z" fill="#B8262C"/>
<path d="M326.286 287.422H270.097C268.335 287.422 266.91 288.656 266.91 290.177V298.428C266.91 299.949 268.335 301.182 270.097 301.182H326.286V287.422Z" fill="#952126"/>
<path d="M278.058 298.628H272.78V290.177H278.058V298.628Z" fill="#E8A751"/>
<path d="M285.787 301.182H281.702V287.422H285.787V301.182Z" fill="#E8A751"/>
<path d="M379.07 293.323H330.384V290.569H379.07V293.323Z" fill="#BAC7D4"/>
<path d="M377.409 285.854H326.001V275.244H377.409V285.854Z" fill="white"/>
<path d="M328.734 284.282V276.812H379.919V276.417C379.919 274.902 378.491 273.669 376.736 273.669H275.835C274.081 273.669 272.645 274.902 272.645 276.417V284.674C272.645 286.195 274.081 287.422 275.835 287.422H376.736C378.491 287.422 379.919 286.195 379.919 284.674V284.282H328.734Z" fill="#EE9D2B"/>
<path d="M324.635 273.669H275.835C274.081 273.669 272.645 274.902 272.645 276.417V284.674C272.645 286.195 274.081 287.422 275.835 287.422H324.635V273.669Z" fill="#E2382B"/>
<path d="M377.409 279.567H328.734V276.812H377.409V279.567Z" fill="#BAC7D4"/>
<path d="M311.629 405.466H297.007V399.517H311.629V405.466Z" fill="#231417"/>
<path d="M341.432 405.466H326.81V399.517H341.432V405.466Z" fill="#231417"/>
<path d="M345.318 402.918V366.28C345.318 353.52 333.335 343.173 318.564 343.173C303.793 343.173 291.816 353.52 291.816 366.28V402.918H345.318Z" fill="#4E1B1F"/>
<path d="M329.881 400.61H307.246V373.046H329.881V400.61Z" fill="#231417"/>
<path d="M324.843 387.497C324.843 390.65 321.889 393.197 318.238 393.197C314.594 393.197 311.629 390.65 311.629 387.497C311.629 384.345 314.594 381.788 318.238 381.788C321.889 381.788 324.843 384.345 324.843 387.497Z" fill="#EE9D2B"/>
<path d="M319.406 383.369H317.579V373.046H319.406V383.369Z" fill="#EE9D2B"/>
<path d="M333.075 359.164C333.075 366.088 326.577 371.702 318.564 371.702C310.551 371.702 304.049 366.088 304.049 359.164C304.049 352.233 310.551 346.619 318.564 346.619C326.577 346.619 333.075 352.233 333.075 359.164Z" fill="#FCDBC2"/>
<path d="M318.564 348.413C326.23 348.413 332.506 353.55 333.037 360.056C333.058 359.756 333.075 359.463 333.075 359.164C333.075 352.233 326.577 346.619 318.564 346.619C310.551 346.619 304.049 352.233 304.049 359.164C304.049 359.463 304.07 359.756 304.091 360.056C304.621 353.55 310.904 348.413 318.564 348.413Z" fill="#CBA284"/>
<path d="M306.248 359.163V358.945H305.059V359.376H306.248V359.163Z" fill="#281E1F"/>
<path d="M310.034 351.481L309.195 350.76L308.838 351.065L309.68 351.787L310.034 351.481Z" fill="#281E1F"/>
<path d="M318.563 348.511L318.813 348.523V347.497H318.311V348.523L318.563 348.511Z" fill="#281E1F"/>
<path d="M327.454 351.787L328.297 351.065L327.936 350.76L327.094 351.481L327.454 351.787Z" fill="#281E1F"/>
<path d="M327.094 366.84L327.936 367.561L328.297 367.256L327.454 366.528L327.094 366.84Z" fill="#281E1F"/>
<path d="M330.88 358.945L330.887 359.163L330.88 359.376H332.069V358.945H330.88Z" fill="#281E1F"/>
<path d="M318.563 369.81L318.311 369.804V370.824H318.813V369.804L318.563 369.81Z" fill="#281E1F"/>
<path d="M309.68 366.528L308.838 367.256L309.195 367.561L310.034 366.84L309.68 366.528Z" fill="#281E1F"/>
<path d="M327.694 359.822H317.94V349.715C317.94 349.41 318.217 349.17 318.564 349.17C318.918 349.17 319.195 349.41 319.195 349.715V358.735H327.694C328.04 358.735 328.325 358.975 328.325 359.274C328.325 359.58 328.04 359.822 327.694 359.822Z" fill="#281E1F"/>
<path d="M320.88 359.169C320.88 360.151 319.965 360.948 318.827 360.948C317.686 360.948 316.768 360.151 316.768 359.169C316.768 358.187 317.686 357.391 318.827 357.391C319.965 357.391 320.88 358.187 320.88 359.169Z" fill="#281E1F"/>
<path d="M319.691 359.169C319.691 359.58 319.306 359.915 318.827 359.915C318.352 359.915 317.964 359.58 317.964 359.169C317.964 358.759 318.352 358.424 318.827 358.424C319.306 358.424 319.691 358.759 319.691 359.169Z" fill="#FCDBC2"/>
</svg>
