<svg width="719" height="776" viewBox="0 0 719 776" fill="none" xmlns="http://www.w3.org/2000/svg">
<mask id="mask0_725_27273" style="mask-type:luminance" maskUnits="userSpaceOnUse" x="444" y="645" width="23" height="10">
<path d="M444.715 645.325H466.906V654.469H444.715V645.325Z" fill="white"/>
</mask>
<g mask="url(#mask0_725_27273)">
<path d="M466.868 654.382H444.746V645.487H466.868V654.382Z" fill="black"/>
</g>
<mask id="mask1_725_27273" style="mask-type:luminance" maskUnits="userSpaceOnUse" x="613" y="645" width="24" height="10">
<path d="M613.369 645.325H636.448V654.469H613.369V645.325Z" fill="white"/>
</mask>
<g mask="url(#mask1_725_27273)">
<path d="M635.956 654.382H613.83V645.487H635.956V654.382Z" fill="black"/>
</g>
<path d="M434.469 648.065H646.223V401.418H434.469V648.065Z" fill="black"/>
<path d="M440.471 625.105H640.235V415.355H440.471V625.105Z" fill="black"/>
<path d="M444.746 465.402H635.956V419.483H444.746V465.402Z" fill="black"/>
<path d="M565.737 445.544C565.737 445.966 565.339 446.314 564.839 446.314H515.859C515.367 446.314 514.968 445.966 514.968 445.544V439.347C514.968 438.919 515.367 438.575 515.859 438.575H564.839C565.339 438.575 565.737 438.919 565.737 439.347V445.544Z" fill="black"/>
<path d="M635.956 517.001H444.746V471.082H635.956V517.001Z" fill="black"/>
<path d="M565.737 497.137C565.737 497.565 565.339 497.912 564.839 497.912H515.859C515.367 497.912 514.968 497.565 514.968 497.137V490.949C514.968 490.524 515.367 490.173 515.859 490.173H564.839C565.339 490.173 565.737 490.524 565.737 490.949V497.137Z" fill="black"/>
<path d="M635.956 568.603H444.746V522.68H635.956V568.603Z" fill="black"/>
<path d="M565.737 548.736C565.737 549.164 565.339 549.511 564.839 549.511H515.859C515.367 549.511 514.968 549.164 514.968 548.736V542.547C514.968 542.119 515.367 541.772 515.859 541.772H564.839C565.339 541.772 565.737 542.119 565.737 542.547V548.736Z" fill="black"/>
<path d="M635.956 620.201H444.746V574.279H635.956V620.201Z" fill="black"/>
<path d="M565.737 600.334C565.737 600.762 565.339 601.11 564.839 601.11H515.859C515.367 601.11 514.968 600.762 514.968 600.334V594.146C514.968 593.718 515.367 593.371 515.859 593.371H564.839C565.339 593.371 565.737 593.718 565.737 594.146V600.334Z" fill="black"/>
<mask id="mask2_725_27273" style="mask-type:luminance" maskUnits="userSpaceOnUse" x="426" y="387" width="228" height="24">
<path d="M426.962 387.808H653.612V410.035H426.962V387.808Z" fill="white"/>
</mask>
<g mask="url(#mask2_725_27273)">
<path d="M427.101 409.675H653.598V388.524H427.101V409.675Z" fill="black"/>
</g>
<path d="M646.223 435.994L640.235 435.644V415.355H440.471V423.962L434.469 423.612V409.675H646.223V435.994Z" fill="black"/>
<path d="M635.956 435.395L444.746 424.21V419.483H635.956V435.395Z" fill="black"/>
<path d="M578.993 284.926C584.132 289.365 584.132 296.56 578.993 300.993C573.855 305.433 565.533 305.433 560.387 300.993C555.249 296.56 555.249 289.365 560.387 284.926C565.519 280.489 573.855 280.489 578.993 284.926Z" fill="black"/>
<path d="M560.131 267.274L552.509 260.699C546.937 255.888 537.915 255.888 532.343 260.699C526.767 265.508 526.767 273.307 532.343 278.115L539.961 284.698C539.825 289.407 541.837 294.153 545.997 297.745L556.521 306.843L585.758 281.59L575.228 272.495C571.074 268.903 565.574 267.163 560.131 267.274Z" fill="#040404"/>
<path d="M586.986 278.522C587.634 279.079 587.634 279.977 586.986 280.534L555.297 307.906C554.659 308.457 553.619 308.457 552.978 307.906C552.34 307.346 552.34 306.448 552.978 305.891L584.649 278.522C585.301 277.968 586.348 277.968 586.986 278.522Z" fill="black"/>
<path d="M458.616 316.507L456.726 314.864L524.763 256.083L526.653 257.727L458.616 316.507Z" fill="black"/>
<path d="M462.558 319.908L460.654 318.271L528.692 259.49L530.602 261.134L462.558 319.908Z" fill="black"/>
<path d="M519.5 370.848L512.554 375.953L458.702 321.327L465.651 316.22L519.5 370.848Z" fill="black"/>
<path d="M527.814 383.129V371.142C527.814 364.795 521.854 359.645 514.503 359.645C507.163 359.645 501.202 364.795 501.202 371.142V383.129H527.814Z" fill="black"/>
<path d="M575.2 388.524V380.944C575.2 380.456 574.739 380.069 574.188 380.069H450.613C450.051 380.069 449.601 380.456 449.601 380.944V388.524H575.2Z" fill="black"/>
<path d="M521.012 372.264C521.012 375.366 518.096 377.878 514.503 377.878C510.915 377.878 508.005 375.366 508.005 372.264C508.005 369.163 510.915 366.651 514.503 366.651C518.096 366.651 521.012 369.163 521.012 372.264Z" fill="black"/>
<path d="M468.973 316.139C468.973 320.459 464.923 323.959 459.92 323.959C454.916 323.959 450.866 320.459 450.866 316.139C450.866 311.822 454.916 308.316 459.92 308.316C464.923 308.316 468.973 311.822 468.973 316.139Z" fill="black"/>
<path d="M464.413 316.139C464.413 318.28 462.395 320.019 459.92 320.019C457.433 320.019 455.426 318.28 455.426 316.139C455.426 313.996 457.433 312.256 459.92 312.256C462.395 312.256 464.413 313.996 464.413 316.139Z" fill="black"/>
<path d="M539.112 259.49C539.112 263.81 535.062 267.31 530.051 267.31C525.062 267.31 521.012 263.81 521.012 259.49C521.012 255.173 525.062 251.673 530.051 251.673C535.062 251.673 539.112 255.173 539.112 259.49Z" fill="black"/>
<path d="M534.558 259.49C534.558 261.631 532.544 263.37 530.051 263.37C527.582 263.37 525.557 261.631 525.557 259.49C525.557 257.346 527.582 255.607 530.051 255.607C532.544 255.607 534.558 257.346 534.558 259.49Z" fill="black"/>
<path d="M623.695 362.193H618.57V327.324L621.126 321.417L623.695 327.324V362.193Z" fill="black"/>
<path d="M622.409 324.369L621.126 321.417L619.853 324.369H622.409Z" fill="black"/>
<path d="M623.695 362.193V327.324C621.015 328.504 618.57 327.324 618.57 327.324V362.193H623.695Z" fill="black"/>
<path d="M631.334 315.975C631.313 316.361 630.928 316.666 630.464 316.654C630.016 316.636 629.67 316.301 629.69 315.909L629.874 311.999C629.881 311.604 630.276 311.298 630.737 311.316C631.185 311.328 631.538 311.663 631.518 312.056L631.334 315.975Z" fill="black"/>
<path d="M629.406 313.942L627.311 318.235L625.304 360.22L631.483 360.445L633.49 318.45L631.798 314.023L629.406 313.942Z" fill="black"/>
<path d="M631.483 360.445L625.304 360.22L627.311 318.235L633.49 318.45L631.483 360.445Z" fill="black"/>
<path d="M618.268 357.589L612.103 357.99L608.48 316.079L610.956 308.78L614.652 315.681L618.268 357.589Z" fill="black"/>
<path d="M612.797 312.232L610.956 308.78L609.718 312.433L612.797 312.232Z" fill="black"/>
<path d="M618.268 357.589L614.652 315.681C611.552 317.313 608.48 316.079 608.48 316.079L612.103 357.99L618.268 357.589Z" fill="black"/>
<path d="M611.105 316.525L614.673 357.825L618.269 357.589L614.652 315.681C613.397 316.343 612.145 316.531 611.105 316.525Z" fill="black"/>
<path d="M632.838 388.419H609.305L607.564 346.257H634.589L632.838 388.419Z" fill="black"/>
<path d="M634.395 350.784L634.589 346.257H607.564L609.305 388.419H616.15L634.395 350.784Z" fill="black"/>
<mask id="mask3_725_27273" style="mask-type:luminance" maskUnits="userSpaceOnUse" x="72" y="118" width="342" height="533">
<path d="M72.042 118.029H413.647V650.69H72.042V118.029Z" fill="white"/>
</mask>
<g mask="url(#mask3_725_27273)">
<path d="M72.0557 650.532H413.22V118.091H72.0557V650.532Z" fill="black"/>
</g>
<path d="M88.8315 405.565H396.445V133.067H88.8315V405.565Z" fill="black"/>
<path d="M104.338 405.448H88.8315V133.067H104.338V405.448Z" fill="black"/>
<path d="M396.445 405.448H380.946V133.067H396.445V405.448Z" fill="black"/>
<path d="M384.59 200.209H343.81V145.368H384.59V200.209Z" fill="black"/>
<path d="M387.572 200.455H378.599V145.368H387.572V200.455Z" fill="black"/>
<path d="M386.92 158.245H379.254V154.446H386.92V158.245Z" fill="black"/>
<path d="M386.92 183.932H379.815V182.558H386.92V183.932Z" fill="black"/>
<path d="M386.92 186.438H379.815V185.063H386.92V186.438Z" fill="black"/>
<path d="M363.394 200.233H326.733V150.922H363.394V200.233Z" fill="black"/>
<path d="M366.092 200.455H358.016V150.922H366.092V200.455Z" fill="black"/>
<path d="M365.502 162.496H358.602V159.086H365.502V162.496Z" fill="black"/>
<path d="M365.502 185.599H359.104V184.36H365.502V185.599Z" fill="black"/>
<path d="M365.502 187.848H359.104V186.614H365.502V187.848Z" fill="black"/>
<path d="M347.454 160.026H340.114V156.392H347.454V160.026Z" fill="black"/>
<path d="M347.454 184.629H340.648V183.315H347.454V184.629Z" fill="black"/>
<path d="M347.454 187.03H340.648V185.716H347.454V187.03Z" fill="black"/>
<path d="M327.766 200.197H284.746V142.327H327.766V200.197Z" fill="black"/>
<path d="M330.935 200.455H321.459V142.327H330.935V200.455Z" fill="black"/>
<path d="M330.235 155.91H322.153V151.904H330.235V155.91Z" fill="black"/>
<path d="M330.235 183.022H322.746V181.57H330.235V183.022Z" fill="black"/>
<path d="M330.235 185.662H322.746V184.213H330.235V185.662Z" fill="black"/>
<path d="M307.843 200.239H272.489V152.691H307.843V200.239Z" fill="black"/>
<path d="M310.44 200.455H302.652V152.691H310.44V200.455Z" fill="black"/>
<path d="M309.871 163.855H303.221V160.565H309.871V163.855Z" fill="black"/>
<path d="M309.871 186.126H303.703V184.935H309.871V186.126Z" fill="black"/>
<path d="M309.871 188.3H303.703V187.108H309.871V188.3Z" fill="black"/>
<path d="M288.363 200.221H250.294V149.039H288.363V200.221Z" fill="black"/>
<path d="M291.158 200.455H282.773V149.039H291.158V200.455Z" fill="black"/>
<path d="M290.544 161.053H283.387V157.511H290.544V161.053Z" fill="black"/>
<path d="M290.544 185.033H283.911V183.749H290.544V185.033Z" fill="black"/>
<path d="M290.544 187.372H283.911V186.09H290.544V187.372Z" fill="black"/>
<path d="M234.979 638.323H88.8315V413.963H234.979V638.323Z" fill="black"/>
<path d="M396.445 638.323H250.294V413.963H396.445V638.323Z" fill="black"/>
<path d="M250.294 405.565H234.979V133.067H250.294V405.565Z" fill="black"/>
<path d="M396.445 210.843H88.8315V199.374H396.445V210.843Z" fill="black"/>
<path d="M396.445 326.501H88.8315V315.04H396.445V326.501Z" fill="black"/>
<path d="M217.143 534.671C217.143 537.045 219.365 538.97 222.118 538.97C224.864 538.97 227.094 537.045 227.094 534.671V495.011C227.094 492.637 224.864 490.712 222.118 490.712C219.365 490.712 217.143 492.637 217.143 495.011V534.671Z" fill="black"/>
<path d="M261.102 534.671C261.102 537.045 263.332 538.97 266.085 538.97C268.831 538.97 271.057 537.045 271.057 534.671V495.011C271.057 492.637 268.831 490.712 266.085 490.712C263.332 490.712 261.102 492.637 261.102 495.011V534.671Z" fill="black"/>
<path d="M135.347 199.374H120.149V139.994H135.347V199.374Z" fill="black"/>
<path d="M133.287 156.074H121.786V149.685H133.287V156.074Z" fill="black"/>
<path d="M148.419 199.374H135.347V146.443H148.419V199.374Z" fill="black"/>
<path d="M146.831 160.778H136.931V155.08H146.831V160.778Z" fill="black"/>
<path d="M161.491 199.374H148.418V151.817H161.491V199.374Z" fill="black"/>
<path d="M159.896 164.693H150.01V159.58H159.896V164.693Z" fill="black"/>
<path d="M174.563 199.374H161.491V137.845H174.563V199.374Z" fill="black"/>
<path d="M172.971 154.505H163.082V147.886H172.971V154.505Z" fill="black"/>
<path d="M187.635 199.374H174.562V141.875H187.635V199.374Z" fill="black"/>
<path d="M186.043 157.448H176.154V151.257H186.043V157.448Z" fill="black"/>
<path d="M200.707 199.374H187.635V144.428H200.707V199.374Z" fill="black"/>
<path d="M199.115 159.308H189.219V153.395H199.115V159.308Z" fill="black"/>
<path d="M213.772 199.374H200.707V138.92H213.772V199.374Z" fill="black"/>
<path d="M212.18 155.293H202.298V148.784H212.18V155.293Z" fill="black"/>
<path d="M213.772 313.894H102.489V294.635H213.772V313.894Z" fill="black"/>
<path d="M227.864 292.668H119.393V279.243H227.864V292.668Z" fill="black"/>
<path d="M121.556 290.701V280.893H232.031V280.252C232.031 279.288 230.766 278.51 229.209 278.51H114.011C112.455 278.51 111.189 279.288 111.189 280.252V291.722C111.189 292.686 112.455 293.464 114.011 293.464H229.209C230.766 293.464 232.031 292.686 232.031 291.722V290.701H121.556Z" fill="black"/>
<path d="M227.864 285.051H121.557V280.893H227.864V285.051Z" fill="black"/>
<path d="M205.634 277.797H113.596V266.289H205.634V277.797Z" fill="black"/>
<path d="M205.634 271.268H115.416V267.705H205.634V271.268Z" fill="black"/>
<path d="M212.604 264.903H120.565V253.395H212.604V264.903Z" fill="black"/>
<path d="M122.386 263.217V254.808H216.144V254.263C216.144 253.433 215.062 252.766 213.752 252.766H115.988C114.664 252.766 113.596 253.433 113.596 254.263V264.092C113.596 264.915 114.664 265.582 115.988 265.582H213.752C215.062 265.582 216.144 264.915 216.144 264.092V263.217H122.386Z" fill="black"/>
<path d="M212.604 258.373H122.385V254.808H212.604V258.373Z" fill="black"/>
<path d="M383.924 313.466H332.506V302.856H383.924V313.466Z" fill="black"/>
<path d="M331.147 301.281H260.967C259.205 301.281 257.773 302.514 257.773 304.035V312.286C257.773 313.807 259.205 315.04 260.967 315.04H331.147V301.281Z" fill="black"/>
<path d="M383.925 307.176H335.239V304.427H383.925V307.176Z" fill="black"/>
<path d="M379.07 299.613H327.652V288.997H379.07V299.613Z" fill="black"/>
<path d="M278.058 298.628H272.78V290.177H278.058V298.628Z" fill="black"/>
<path d="M285.787 301.182H281.702V287.422H285.787V301.182Z" fill="black"/>
<path d="M377.409 285.854H326.001V275.244H377.409V285.854Z" fill="black"/>
<path d="M328.734 284.282V276.812H379.919V276.417C379.919 274.902 378.491 273.669 376.736 273.669H275.835C274.081 273.669 272.645 274.902 272.645 276.417V284.674C272.645 286.195 274.081 287.422 275.835 287.422H376.736C378.491 287.422 379.919 286.195 379.919 284.674V284.282H328.734Z" fill="black"/>
<path d="M377.409 279.567H328.734V276.812H377.409V279.567Z" fill="black"/>
<path d="M311.629 405.466H297.007V399.517H311.629V405.466Z" fill="black"/>
<path d="M341.432 405.466H326.81V399.517H341.432V405.466Z" fill="black"/>
<path d="M329.881 400.61H307.246V373.046H329.881V400.61Z" fill="black"/>
<path d="M324.843 387.497C324.843 390.65 321.889 393.197 318.238 393.197C314.594 393.197 311.629 390.65 311.629 387.497C311.629 384.345 314.594 381.788 318.238 381.788C321.889 381.788 324.843 384.345 324.843 387.497Z" fill="black"/>
<path d="M319.406 383.369H317.579V373.046H319.406V383.369Z" fill="black"/>
<path d="M333.075 359.164C333.075 366.088 326.577 371.702 318.564 371.702C310.551 371.702 304.049 366.088 304.049 359.164C304.049 352.233 310.551 346.619 318.564 346.619C326.577 346.619 333.075 352.233 333.075 359.164Z" fill="black"/>
<path d="M306.248 359.163V358.945H305.059V359.376H306.248V359.163Z" fill="black"/>
<path d="M318.563 348.511L318.813 348.523V347.497H318.311V348.523L318.563 348.511Z" fill="black"/>
<path d="M327.454 351.787L328.297 351.065L327.936 350.76L327.094 351.481L327.454 351.787Z" fill="black"/>
<path d="M327.094 366.84L327.936 367.561L328.297 367.256L327.454 366.528L327.094 366.84Z" fill="black"/>
<path d="M330.88 358.945L330.887 359.163L330.88 359.376H332.069V358.945H330.88Z" fill="black"/>
<path d="M318.563 369.81L318.311 369.804V370.824H318.813V369.804L318.563 369.81Z" fill="black"/>
<path d="M309.68 366.528L308.838 367.256L309.195 367.561L310.034 366.84L309.68 366.528Z" fill="black"/>
<path d="M327.694 359.822H317.94V349.715C317.94 349.41 318.217 349.17 318.564 349.17C318.918 349.17 319.195 349.41 319.195 349.715V358.735H327.694C328.04 358.735 328.325 358.975 328.325 359.274C328.325 359.58 328.04 359.822 327.694 359.822Z" fill="black"/>
<path d="M320.88 359.169C320.88 360.151 319.965 360.948 318.827 360.948C317.686 360.948 316.768 360.151 316.768 359.169C316.768 358.187 317.686 357.391 318.827 357.391C319.965 357.391 320.88 358.187 320.88 359.169Z" fill="black"/>
<path d="M319.691 359.169C319.691 359.58 319.306 359.915 318.827 359.915C318.352 359.915 317.964 359.58 317.964 359.169C317.964 358.759 318.352 358.424 318.827 358.424C319.306 358.424 319.691 358.759 319.691 359.169Z" fill="black"/>
<mask id="mask4_725_27273" style="mask-type:luminance" maskUnits="userSpaceOnUse" x="176" y="314" width="116" height="140">
<path d="M176 314H292V454H176V314Z" fill="white"/>
</mask>
<g mask="url(#mask4_725_27273)">
<path d="M279.519 368.102V356.616C279.519 333.122 259.085 314 233.979 314C208.872 314 188.428 333.118 188.428 356.616V368.102C181.553 368.276 176.028 373.518 176.028 379.994V442.075C176.028 442.465 176.049 442.854 176.09 443.243C176.13 443.633 176.192 444.018 176.273 444.401C176.354 444.784 176.455 445.162 176.576 445.536C176.698 445.91 176.838 446.278 176.998 446.638C177.158 446.999 177.336 447.352 177.532 447.696C177.73 448.041 177.944 448.374 178.176 448.7C178.407 449.024 178.655 449.338 178.921 449.64C179.185 449.942 179.465 450.231 179.76 450.508C180.056 450.783 180.365 451.045 180.687 451.293C181.01 451.541 181.344 451.774 181.692 451.99C182.038 452.207 182.396 452.409 182.764 452.592C183.132 452.776 183.509 452.944 183.895 453.092C184.28 453.242 184.673 453.373 185.071 453.487C185.471 453.6 185.875 453.695 186.285 453.772C186.694 453.847 187.107 453.904 187.521 453.943C187.937 453.981 188.354 454 188.772 454H279.179C279.596 454 280.013 453.981 280.428 453.943C280.843 453.905 281.256 453.847 281.665 453.772C282.075 453.695 282.479 453.6 282.878 453.487C283.277 453.373 283.67 453.242 284.056 453.093C284.441 452.944 284.818 452.776 285.186 452.592C285.554 452.409 285.912 452.207 286.259 451.991C286.607 451.774 286.94 451.541 287.264 451.294C287.586 451.045 287.894 450.785 288.19 450.508C288.485 450.232 288.765 449.943 289.031 449.64C289.295 449.339 289.543 449.026 289.776 448.701C290.007 448.376 290.222 448.041 290.418 447.698C290.614 447.353 290.793 447.001 290.954 446.638C291.113 446.278 291.253 445.91 291.374 445.537C291.495 445.163 291.598 444.785 291.678 444.403C291.759 444.019 291.821 443.633 291.862 443.245C291.902 442.856 291.924 442.467 291.924 442.075V379.994C291.924 373.518 286.396 368.275 279.519 368.102ZM244.4 402.456C244.343 402.825 244.122 403.669 244.102 403.733C243.324 406.256 241.464 408.327 239.049 409.588L243.141 425.908C243.2 426.076 243.237 426.249 243.253 426.425C243.269 426.602 243.263 426.778 243.236 426.953C243.207 427.129 243.158 427.299 243.087 427.464C243.018 427.627 242.927 427.783 242.819 427.927C242.709 428.072 242.583 428.203 242.44 428.32C242.299 428.438 242.144 428.538 241.977 428.622C241.809 428.704 241.635 428.769 241.451 428.814C241.268 428.858 241.082 428.882 240.893 428.887H227.336C227.147 428.882 226.961 428.858 226.777 428.814C226.594 428.769 226.419 428.704 226.252 428.622C226.084 428.538 225.93 428.438 225.789 428.32C225.646 428.203 225.52 428.072 225.41 427.927C225.302 427.783 225.211 427.627 225.142 427.463C225.071 427.299 225.022 427.129 224.993 426.953C224.966 426.778 224.96 426.602 224.976 426.425C224.992 426.249 225.031 426.076 225.09 425.908L228.903 409.588C226.487 408.327 224.628 406.256 223.851 403.733C223.829 403.669 223.607 402.825 223.551 402.456C223.48 401.999 223.444 401.541 223.442 401.082C223.442 400.759 223.46 400.436 223.493 400.115C223.528 399.793 223.578 399.474 223.645 399.158C223.712 398.842 223.796 398.529 223.896 398.219C223.995 397.911 224.111 397.607 224.244 397.309C224.375 397.01 224.522 396.718 224.686 396.433C224.847 396.149 225.025 395.872 225.217 395.604C225.409 395.335 225.614 395.077 225.832 394.827C226.051 394.577 226.282 394.338 226.526 394.109C226.77 393.881 227.026 393.665 227.293 393.46C227.559 393.256 227.836 393.062 228.123 392.883C228.409 392.704 228.705 392.538 229.009 392.386C229.314 392.234 229.624 392.095 229.944 391.972C230.263 391.849 230.587 391.74 230.917 391.647C231.247 391.552 231.582 391.474 231.92 391.412C232.258 391.348 232.6 391.301 232.942 391.27C233.286 391.237 233.631 391.221 233.976 391.221C234.321 391.221 234.665 391.237 235.008 391.27C235.352 391.301 235.692 391.348 236.03 391.412C236.37 391.474 236.703 391.552 237.034 391.647C237.364 391.74 237.688 391.849 238.007 391.972C238.326 392.095 238.638 392.234 238.942 392.386C239.245 392.538 239.541 392.704 239.829 392.883C240.115 393.062 240.392 393.256 240.659 393.46C240.926 393.665 241.18 393.881 241.424 394.109C241.668 394.338 241.9 394.577 242.118 394.827C242.338 395.077 242.543 395.335 242.735 395.604C242.925 395.872 243.103 396.149 243.266 396.433C243.428 396.718 243.575 397.01 243.708 397.309C243.839 397.607 243.955 397.911 244.056 398.219C244.156 398.529 244.239 398.842 244.306 399.158C244.374 399.474 244.424 399.793 244.457 400.115C244.492 400.436 244.508 400.759 244.508 401.082C244.508 401.541 244.472 401.999 244.4 402.456ZM263.969 368.069H203.98V356.616C203.98 341.136 217.432 328.545 233.979 328.545C250.525 328.545 263.969 341.136 263.969 356.616V368.069Z" fill="#A6A6A6"/>
</g>
</svg>
