<svg width="115" height="242" viewBox="0 0 115 242" fill="none" xmlns="http://www.w3.org/2000/svg">
<mask id="mask0_419_113324" style="mask-type:luminance" maskUnits="userSpaceOnUse" x="4" y="4" width="111" height="238">
<path d="M4.1095 4.7793H115V242H4.1095V4.7793Z" fill="white"/>
</mask>
<g mask="url(#mask0_419_113324)">
<mask id="mask1_419_113324" style="mask-type:luminance" maskUnits="userSpaceOnUse" x="4" y="4" width="111" height="238">
<path d="M10.6829 4.95764H108.79C110.438 4.95764 112.016 5.62973 113.181 6.82454C114.347 8.01936 115 9.64149 115 11.33V235.283C115 236.974 114.347 238.594 113.181 239.789C112.016 240.984 110.438 241.656 108.79 241.656H10.6829C9.03548 241.656 7.45682 240.984 6.29253 239.789C5.12622 238.594 4.47333 236.974 4.47333 235.283V11.33C4.47333 9.64149 5.12622 8.01936 6.29253 6.82454C7.45682 5.62973 9.03548 4.95764 10.6829 4.95764Z" fill="white"/>
</mask>
<g mask="url(#mask1_419_113324)">
<mask id="mask2_419_113324" style="mask-type:luminance" maskUnits="userSpaceOnUse" x="4" y="4" width="112" height="239">
<path d="M115.364 4.7793H4.1095V242.149H115.364V4.7793Z" fill="white"/>
</mask>
<g mask="url(#mask2_419_113324)">
<mask id="mask3_419_113324" style="mask-type:luminance" maskUnits="userSpaceOnUse" x="4" y="4" width="111" height="238">
<path d="M4.37836 4.92859H115V241.618H4.37836V4.92859Z" fill="white"/>
</mask>
<g mask="url(#mask3_419_113324)">
<mask id="mask4_419_113324" style="mask-type:luminance" maskUnits="userSpaceOnUse" x="4" y="4" width="111" height="238">
<path d="M10.6829 4.95764H108.79C110.438 4.95764 112.017 5.62973 113.181 6.82454C114.347 8.01936 115 9.64149 115 11.33V235.283C115 236.974 114.347 238.594 113.181 239.789C112.017 240.984 110.438 241.656 108.79 241.656H10.6829C9.03554 241.656 7.45688 240.984 6.29259 239.789C5.12628 238.594 4.47339 236.974 4.47339 235.283V11.33C4.47339 9.64149 5.12628 8.01936 6.29259 6.82454C7.45688 5.62973 9.03554 4.95764 10.6829 4.95764Z" fill="white"/>
</mask>
<g mask="url(#mask4_419_113324)">
<path d="M4.47339 4.95764H115V241.556H4.47339V4.95764Z" fill="#92A8B5"/>
</g>
</g>
</g>
</g>
</g>
<mask id="mask5_419_113324" style="mask-type:luminance" maskUnits="userSpaceOnUse" x="0" y="0" width="111" height="238">
<path d="M0 0H110.959V237.287H0V0Z" fill="white"/>
</mask>
<g mask="url(#mask5_419_113324)">
<mask id="mask6_419_113324" style="mask-type:luminance" maskUnits="userSpaceOnUse" x="0" y="0" width="111" height="237">
<path d="M6.64009 0.246826H104.75C106.395 0.246826 107.976 0.916836 109.14 2.11165C110.304 3.30854 110.959 4.9286 110.959 6.61918V230.57C110.959 232.261 110.304 233.881 109.14 235.078C107.976 236.273 106.395 236.943 104.75 236.943H6.64009C4.9927 236.943 3.41403 236.273 2.24974 235.078C1.08545 233.881 0.430542 232.261 0.430542 230.57V6.61918C0.430542 4.9286 1.08545 3.30854 2.24974 2.11165C3.41403 0.916836 4.9927 0.246826 6.64009 0.246826Z" fill="white"/>
</mask>
<g mask="url(#mask6_419_113324)">
<mask id="mask7_419_113324" style="mask-type:luminance" maskUnits="userSpaceOnUse" x="-1" y="0" width="113" height="238">
<path d="M111.224 0H-0.0303345V237.37H111.224V0Z" fill="white"/>
</mask>
<g mask="url(#mask7_419_113324)">
<mask id="mask8_419_113324" style="mask-type:luminance" maskUnits="userSpaceOnUse" x="0" y="0" width="111" height="238">
<path d="M0.404236 0.211548H110.959V237.009H0.404236V0.211548Z" fill="white"/>
</mask>
<g mask="url(#mask8_419_113324)">
<mask id="mask9_419_113324" style="mask-type:luminance" maskUnits="userSpaceOnUse" x="0" y="0" width="111" height="237">
<path d="M6.64003 0.246826H104.75C106.395 0.246826 107.976 0.916835 109.14 2.11165C110.304 3.30854 110.959 4.9286 110.959 6.61918V230.57C110.959 232.261 110.304 233.881 109.14 235.078C107.976 236.273 106.395 236.943 104.75 236.943H6.64003C4.99264 236.943 3.41397 236.273 2.24968 235.078C1.08539 233.881 0.430481 232.261 0.430481 230.57V6.61918C0.430481 4.9286 1.08539 3.30854 2.24968 2.11165C3.41397 0.916835 4.99264 0.246826 6.64003 0.246826Z" fill="white"/>
</mask>
<g mask="url(#mask9_419_113324)">
<path d="M0.430481 0.246826H110.959V236.845H0.430481V0.246826Z" fill="#526E7A"/>
</g>
</g>
</g>
</g>
</g>
<mask id="mask10_419_113324" style="mask-type:luminance" maskUnits="userSpaceOnUse" x="13" y="137" width="88" height="53">
<path d="M13.3669 137.01H100.862V189.015H13.3669V137.01Z" fill="white"/>
</mask>
<g mask="url(#mask10_419_113324)">
<mask id="mask11_419_113324" style="mask-type:luminance" maskUnits="userSpaceOnUse" x="13" y="137" width="88" height="53">
<path d="M19.5765 137.01H94.6529C96.2983 137.01 97.879 137.682 99.0433 138.877C100.208 140.071 100.862 141.692 100.862 143.382V182.643C100.862 184.334 100.208 185.954 99.0433 187.148C97.879 188.345 96.2983 189.015 94.6529 189.015H19.5765C17.9291 189.015 16.3484 188.345 15.1841 187.148C14.0198 185.954 13.3669 184.334 13.3669 182.643V143.382C13.3669 141.692 14.0198 140.071 15.1841 138.877C16.3484 137.682 17.9291 137.01 19.5765 137.01Z" fill="white"/>
</mask>
<g mask="url(#mask11_419_113324)">
<mask id="mask12_419_113324" style="mask-type:luminance" maskUnits="userSpaceOnUse" x="12" y="137" width="89" height="53">
<path d="M100.875 137.006H12.9061V189.046H100.875V137.006Z" fill="white"/>
</mask>
<g mask="url(#mask12_419_113324)">
<mask id="mask13_419_113324" style="mask-type:luminance" maskUnits="userSpaceOnUse" x="13" y="137" width="88" height="53">
<path d="M13.3669 137.01H100.862V189.015H13.3669V137.01Z" fill="white"/>
</mask>
<g mask="url(#mask13_419_113324)">
<mask id="mask14_419_113324" style="mask-type:luminance" maskUnits="userSpaceOnUse" x="13" y="137" width="88" height="53">
<path d="M19.5765 137.01H94.6529C96.2983 137.01 97.879 137.682 99.0433 138.877C100.208 140.071 100.862 141.692 100.862 143.382V182.643C100.862 184.334 100.208 185.954 99.0433 187.148C97.879 188.345 96.2983 189.015 94.6529 189.015H19.5765C17.9291 189.015 16.3484 188.345 15.1841 187.148C14.0198 185.954 13.3669 184.334 13.3669 182.643V143.382C13.3669 141.692 14.0198 140.071 15.1841 138.877C16.3484 137.682 17.9291 137.01 19.5765 137.01Z" fill="white"/>
</mask>
<g mask="url(#mask14_419_113324)">
<path d="M13.3669 137.01H100.862V189.015H13.3669V137.01Z" fill="#EAEEF0"/>
</g>
</g>
</g>
</g>
</g>
<mask id="mask15_419_113324" style="mask-type:luminance" maskUnits="userSpaceOnUse" x="12" y="76" width="89" height="53">
<path d="M12.9789 76.993H100.474V128.999H12.9789V76.993Z" fill="white"/>
</mask>
<g mask="url(#mask15_419_113324)">
<mask id="mask16_419_113324" style="mask-type:luminance" maskUnits="userSpaceOnUse" x="12" y="76" width="89" height="53">
<path d="M19.1884 76.993H94.2649C95.9102 76.993 97.4909 77.6651 98.6552 78.8599C99.8195 80.0548 100.474 81.6748 100.474 83.3654V122.626C100.474 124.317 99.8195 125.937 98.6552 127.132C97.4909 128.327 95.9102 128.999 94.2649 128.999H19.1884C17.541 128.999 15.9604 128.327 14.7961 127.132C13.6318 125.937 12.9789 124.317 12.9789 122.626V83.3654C12.9789 81.6748 13.6318 80.0548 14.7961 78.8599C15.9604 77.6651 17.541 76.993 19.1884 76.993Z" fill="white"/>
</mask>
<g mask="url(#mask16_419_113324)">
<mask id="mask17_419_113324" style="mask-type:luminance" maskUnits="userSpaceOnUse" x="12" y="76" width="89" height="54">
<path d="M100.875 76.4683H12.9061V129.04H100.875V76.4683Z" fill="white"/>
</mask>
<g mask="url(#mask17_419_113324)">
<mask id="mask18_419_113324" style="mask-type:luminance" maskUnits="userSpaceOnUse" x="12" y="76" width="89" height="53">
<path d="M12.9789 76.993H100.474V128.999H12.9789V76.993Z" fill="white"/>
</mask>
<g mask="url(#mask18_419_113324)">
<mask id="mask19_419_113324" style="mask-type:luminance" maskUnits="userSpaceOnUse" x="12" y="76" width="89" height="53">
<path d="M19.1884 76.993H94.2649C95.9102 76.993 97.4909 77.6651 98.6552 78.8599C99.8195 80.0548 100.474 81.6748 100.474 83.3654V122.626C100.474 124.317 99.8195 125.937 98.6552 127.132C97.4909 128.327 95.9102 128.999 94.2649 128.999H19.1884C17.541 128.999 15.9604 128.327 14.7961 127.132C13.6318 125.937 12.9789 124.317 12.9789 122.626V83.3654C12.9789 81.6748 13.6318 80.0548 14.7961 78.8599C15.9604 77.6651 17.541 76.993 19.1884 76.993Z" fill="white"/>
</mask>
<g mask="url(#mask19_419_113324)">
<path d="M12.9789 76.993H100.474V128.999H12.9789V76.993Z" fill="#EAEEF0"/>
</g>
</g>
</g>
</g>
</g>
<mask id="mask20_419_113324" style="mask-type:luminance" maskUnits="userSpaceOnUse" x="13" y="17" width="88" height="53">
<path d="M13.3669 17.4203H100.862V69.4259H13.3669V17.4203Z" fill="white"/>
</mask>
<g mask="url(#mask20_419_113324)">
<mask id="mask21_419_113324" style="mask-type:luminance" maskUnits="userSpaceOnUse" x="13" y="17" width="88" height="53">
<path d="M19.5765 17.4203H94.6529C96.2983 17.4203 97.879 18.0924 99.0433 19.2872C100.208 20.482 100.862 22.1021 100.862 23.7926V63.0535C100.862 64.7441 100.208 66.3642 99.0433 67.559C97.879 68.7538 96.2983 69.4259 94.6529 69.4259H19.5765C17.9291 69.4259 16.3484 68.7538 15.1841 67.559C14.0198 66.3642 13.3669 64.7441 13.3669 63.0535V23.7926C13.3669 22.1021 14.0198 20.482 15.1841 19.2872C16.3484 18.0924 17.9291 17.4203 19.5765 17.4203Z" fill="white"/>
</mask>
<g mask="url(#mask21_419_113324)">
<mask id="mask22_419_113324" style="mask-type:luminance" maskUnits="userSpaceOnUse" x="12" y="16" width="89" height="54">
<path d="M100.875 16.9929H12.9061V69.5648H100.875V16.9929Z" fill="white"/>
</mask>
<g mask="url(#mask22_419_113324)">
<mask id="mask23_419_113324" style="mask-type:luminance" maskUnits="userSpaceOnUse" x="13" y="17" width="88" height="53">
<path d="M13.3669 17.4203H100.862V69.4259H13.3669V17.4203Z" fill="white"/>
</mask>
<g mask="url(#mask23_419_113324)">
<mask id="mask24_419_113324" style="mask-type:luminance" maskUnits="userSpaceOnUse" x="13" y="17" width="88" height="53">
<path d="M19.5765 17.4203H94.6529C96.2983 17.4203 97.879 18.0924 99.0433 19.2872C100.208 20.482 100.862 22.1021 100.862 23.7926V63.0535C100.862 64.7441 100.208 66.3642 99.0433 67.559C97.879 68.7538 96.2983 69.4259 94.6529 69.4259H19.5765C17.9291 69.4259 16.3484 68.7538 15.1841 67.559C14.0198 66.3642 13.3669 64.7441 13.3669 63.0535V23.7926C13.3669 22.1021 14.0198 20.482 15.1841 19.2872C16.3484 18.0924 17.9291 17.4203 19.5765 17.4203Z" fill="white"/>
</mask>
<g mask="url(#mask24_419_113324)">
<path d="M13.3669 17.4203H100.862V69.4259H13.3669V17.4203Z" fill="#EAEEF0"/>
</g>
</g>
</g>
</g>
</g>
<mask id="mask25_419_113324" style="mask-type:luminance" maskUnits="userSpaceOnUse" x="11" y="134" width="89" height="53">
<path d="M11.6873 134.62H99.1848V186.626H11.6873V134.62Z" fill="white"/>
</mask>
<g mask="url(#mask25_419_113324)">
<mask id="mask26_419_113324" style="mask-type:luminance" maskUnits="userSpaceOnUse" x="11" y="134" width="89" height="53">
<path d="M17.8968 134.62H92.9753C94.6206 134.62 96.2013 135.292 97.3656 136.487C98.5299 137.682 99.1848 139.302 99.1848 140.992V180.253C99.1848 181.944 98.5299 183.564 97.3656 184.759C96.2013 185.956 94.6206 186.626 92.9753 186.626H17.8968C16.2514 186.626 14.6707 185.956 13.5065 184.759C12.3422 183.564 11.6873 181.944 11.6873 180.253V140.992C11.6873 139.302 12.3422 137.682 13.5065 136.487C14.6707 135.292 16.2514 134.62 17.8968 134.62Z" fill="white"/>
</mask>
<g mask="url(#mask26_419_113324)">
<mask id="mask27_419_113324" style="mask-type:luminance" maskUnits="userSpaceOnUse" x="11" y="134" width="89" height="53">
<path d="M99.3223 134.35H11.3538V186.922H99.3223V134.35Z" fill="white"/>
</mask>
<g mask="url(#mask27_419_113324)">
<mask id="mask28_419_113324" style="mask-type:luminance" maskUnits="userSpaceOnUse" x="11" y="134" width="89" height="53">
<path d="M11.6873 134.62H99.1848V186.626H11.6873V134.62Z" fill="white"/>
</mask>
<g mask="url(#mask28_419_113324)">
<mask id="mask29_419_113324" style="mask-type:luminance" maskUnits="userSpaceOnUse" x="11" y="134" width="89" height="53">
<path d="M17.8968 134.62H92.9753C94.6207 134.62 96.2013 135.292 97.3656 136.487C98.5299 137.682 99.1848 139.302 99.1848 140.992V180.253C99.1848 181.944 98.5299 183.564 97.3656 184.759C96.2013 185.956 94.6207 186.626 92.9753 186.626H17.8968C16.2514 186.626 14.6707 185.956 13.5065 184.759C12.3422 183.564 11.6873 181.944 11.6873 180.253V140.992C11.6873 139.302 12.3422 137.682 13.5065 136.487C14.6707 135.292 16.2514 134.62 17.8968 134.62Z" fill="white"/>
</mask>
<g mask="url(#mask29_419_113324)">
<path d="M11.6873 134.62H99.1848V186.626H11.6873V134.62Z" fill="#78909C"/>
</g>
</g>
</g>
</g>
</g>
<mask id="mask30_419_113324" style="mask-type:luminance" maskUnits="userSpaceOnUse" x="36" y="161" width="52" height="17">
<path d="M36.1658 161.373H87.6856V177.98H36.1658V161.373Z" fill="white"/>
</mask>
<g mask="url(#mask30_419_113324)">
<mask id="mask31_419_113324" style="mask-type:luminance" maskUnits="userSpaceOnUse" x="36" y="161" width="52" height="17">
<path d="M44.2572 161.373H79.5639C81.7085 161.373 83.7662 162.248 85.2842 163.806C86.8023 165.362 87.6553 167.475 87.6553 169.676C87.6553 171.879 86.8023 173.991 85.2842 175.549C83.7662 177.107 81.7085 177.98 79.5639 177.98H44.2572C42.1105 177.98 40.0528 177.107 38.5348 175.549C37.0188 173.991 36.1658 171.879 36.1658 169.676C36.1658 167.475 37.0188 165.362 38.5348 163.806C40.0528 162.248 42.1105 161.373 44.2572 161.373Z" fill="white"/>
</mask>
<g mask="url(#mask31_419_113324)">
<mask id="mask32_419_113324" style="mask-type:luminance" maskUnits="userSpaceOnUse" x="35" y="160" width="53" height="19">
<path d="M87.9382 160.902H35.6746V178.426H87.9382V160.902Z" fill="white"/>
</mask>
<g mask="url(#mask32_419_113324)">
<mask id="mask33_419_113324" style="mask-type:luminance" maskUnits="userSpaceOnUse" x="36" y="161" width="52" height="17">
<path d="M36.1658 161.373H87.6856V177.98H36.1658V161.373Z" fill="white"/>
</mask>
<g mask="url(#mask33_419_113324)">
<mask id="mask34_419_113324" style="mask-type:luminance" maskUnits="userSpaceOnUse" x="36" y="161" width="52" height="17">
<path d="M44.2572 161.373H79.5639C81.7085 161.373 83.7662 162.248 85.2842 163.806C86.8023 165.362 87.6553 167.475 87.6553 169.676C87.6553 171.879 86.8023 173.991 85.2842 175.549C83.7662 177.107 81.7085 177.98 79.5639 177.98H44.2572C42.1105 177.98 40.0528 177.107 38.5348 175.549C37.0188 173.991 36.1658 171.879 36.1658 169.676C36.1658 167.475 37.0188 165.362 38.5348 163.806C40.0528 162.248 42.1105 161.373 44.2572 161.373Z" fill="white"/>
</mask>
<g mask="url(#mask34_419_113324)">
<path d="M36.1658 161.373H87.6856V177.98H36.1658V161.373Z" fill="#FF2828"/>
</g>
</g>
</g>
</g>
</g>
<mask id="mask35_419_113324" style="mask-type:luminance" maskUnits="userSpaceOnUse" x="36" y="161" width="52" height="18">
<path d="M36.1699 161.373H87.7827V178.1H36.1699V161.373Z" fill="white"/>
</mask>
<g mask="url(#mask35_419_113324)">
<mask id="mask36_419_113324" style="mask-type:luminance" maskUnits="userSpaceOnUse" x="36" y="161" width="52" height="17">
<path d="M44.2593 161.373H79.5559C81.7005 161.373 83.7582 162.248 85.2763 163.804C86.7923 165.362 87.6453 167.473 87.6453 169.674C87.6453 171.877 86.7923 173.989 85.2763 175.545C83.7582 177.102 81.7005 177.976 79.5559 177.976H44.2593C42.1126 177.976 40.0549 177.102 38.5389 175.545C37.0209 173.989 36.1699 171.877 36.1699 169.674C36.1699 167.473 37.0209 165.362 38.5389 163.804C40.0549 162.248 42.1126 161.373 44.2593 161.373Z" fill="white"/>
</mask>
<g mask="url(#mask36_419_113324)">
<path d="M44.2593 161.373H79.5559C81.7005 161.373 83.7582 162.248 85.2763 163.804C86.7923 165.362 87.6453 167.473 87.6453 169.674C87.6453 171.877 86.7923 173.989 85.2763 175.545C83.7582 177.102 81.7005 177.976 79.5559 177.976H44.2593C42.1126 177.976 40.0549 177.102 38.5389 175.545C37.0209 173.989 36.1699 171.877 36.1699 169.674C36.1699 167.473 37.0209 165.362 38.5389 163.804C40.0549 162.248 42.1126 161.373 44.2593 161.373Z" stroke="#FF5757" stroke-width="8"/>
</g>
</g>
<mask id="mask37_419_113324" style="mask-type:luminance" maskUnits="userSpaceOnUse" x="23" y="158" width="24" height="23">
<path d="M23.0087 158.838H46.8807V180.316H23.0087V158.838Z" fill="white"/>
</mask>
<g mask="url(#mask37_419_113324)">
<mask id="mask38_419_113324" style="mask-type:luminance" maskUnits="userSpaceOnUse" x="23" y="158" width="24" height="23">
<path d="M33.4732 158.838H36.3435C39.1188 158.838 41.7809 159.968 43.7416 161.983C45.7043 163.997 46.8079 166.729 46.8079 169.577C46.8079 172.425 45.7043 175.157 43.7416 177.171C41.7809 179.183 39.1188 180.316 36.3435 180.316H33.4732C30.6979 180.316 28.0358 179.183 26.0731 177.171C24.1104 175.157 23.0087 172.425 23.0087 169.577C23.0087 166.729 24.1104 163.997 26.0731 161.983C28.0358 159.968 30.6979 158.838 33.4732 158.838Z" fill="white"/>
</mask>
<g mask="url(#mask38_419_113324)">
<mask id="mask39_419_113324" style="mask-type:luminance" maskUnits="userSpaceOnUse" x="22" y="158" width="26" height="23">
<path d="M47.0586 158.778H22.7379V180.55H47.0586V158.778Z" fill="white"/>
</mask>
<g mask="url(#mask39_419_113324)">
<mask id="mask40_419_113324" style="mask-type:luminance" maskUnits="userSpaceOnUse" x="23" y="158" width="24" height="23">
<path d="M23.0088 158.838H46.8525V180.316H23.0088V158.838Z" fill="white"/>
</mask>
<g mask="url(#mask40_419_113324)">
<mask id="mask41_419_113324" style="mask-type:luminance" maskUnits="userSpaceOnUse" x="23" y="158" width="24" height="23">
<path d="M33.4732 158.838H36.3435C39.1188 158.838 41.7809 159.968 43.7416 161.983C45.7043 163.997 46.808 166.729 46.808 169.577C46.808 172.425 45.7043 175.157 43.7416 177.171C41.7809 179.183 39.1188 180.316 36.3435 180.316H33.4732C30.698 180.316 28.0359 179.183 26.0731 177.171C24.1104 175.157 23.0088 172.425 23.0088 169.577C23.0088 166.729 24.1104 163.997 26.0731 161.983C28.0359 159.968 30.698 158.838 33.4732 158.838Z" fill="white"/>
</mask>
<g mask="url(#mask41_419_113324)">
<path d="M23.0088 158.838H46.7999V180.316H23.0088V158.838Z" fill="#B0BEC5"/>
</g>
</g>
</g>
</g>
</g>
<mask id="mask42_419_113324" style="mask-type:luminance" maskUnits="userSpaceOnUse" x="22" y="158" width="22" height="23">
<path d="M22.8795 158.838H43.0282V180.55H22.8795V158.838Z" fill="white"/>
</mask>
<g mask="url(#mask42_419_113324)">
<mask id="mask43_419_113324" style="mask-type:luminance" maskUnits="userSpaceOnUse" x="22" y="158" width="22" height="23">
<path d="M32.9539 158.838C35.6261 158.838 38.1871 159.927 40.077 161.866C41.967 163.804 43.0282 166.434 43.0282 169.176V170.178C43.0282 172.918 41.967 175.549 40.077 177.488C38.1871 179.426 35.6261 180.517 32.9539 180.517C30.2816 180.517 27.7186 179.426 25.8307 177.488C23.9407 175.549 22.8795 172.918 22.8795 170.178V169.176C22.8795 166.434 23.9407 163.804 25.8307 161.866C27.7186 159.927 30.2816 158.838 32.9539 158.838Z" fill="white"/>
</mask>
<g mask="url(#mask43_419_113324)">
<mask id="mask44_419_113324" style="mask-type:luminance" maskUnits="userSpaceOnUse" x="22" y="158" width="22" height="23">
<path d="M43.4365 158.778H22.738V180.55H43.4365V158.778Z" fill="white"/>
</mask>
<g mask="url(#mask44_419_113324)">
<mask id="mask45_419_113324" style="mask-type:luminance" maskUnits="userSpaceOnUse" x="22" y="158" width="22" height="23">
<path d="M22.8795 158.838H43.0282V180.55H22.8795V158.838Z" fill="white"/>
</mask>
<g mask="url(#mask45_419_113324)">
<mask id="mask46_419_113324" style="mask-type:luminance" maskUnits="userSpaceOnUse" x="22" y="158" width="22" height="23">
<path d="M32.9539 158.838C35.6261 158.838 38.1871 159.927 40.077 161.866C41.967 163.804 43.0282 166.434 43.0282 169.176V170.178C43.0282 172.918 41.967 175.549 40.077 177.488C38.1871 179.426 35.6261 180.517 32.9539 180.517C30.2816 180.517 27.7186 179.426 25.8307 177.488C23.9407 175.549 22.8795 172.918 22.8795 170.178V169.176C22.8795 166.434 23.9407 163.804 25.8307 161.866C27.7186 159.927 30.2816 158.838 32.9539 158.838Z" fill="white"/>
</mask>
<g mask="url(#mask46_419_113324)">
<path d="M22.8795 158.838H43.0282V180.484H22.8795V158.838Z" fill="#EAEEF0"/>
</g>
</g>
</g>
</g>
</g>
<mask id="mask47_419_113324" style="mask-type:luminance" maskUnits="userSpaceOnUse" x="21" y="199" width="28" height="25">
<path d="M48.0938 199.136H21.1857V223.563H48.0938V199.136Z" fill="white"/>
</mask>
<g mask="url(#mask47_419_113324)">
<mask id="mask48_419_113324" style="mask-type:luminance" maskUnits="userSpaceOnUse" x="21" y="199" width="27" height="24">
<path d="M21.4849 199.194H47.7905V222.86H21.4849V199.194Z" fill="white"/>
</mask>
<g mask="url(#mask48_419_113324)">
<mask id="mask49_419_113324" style="mask-type:luminance" maskUnits="userSpaceOnUse" x="21" y="199" width="27" height="24">
<path d="M33.0166 199.194H36.18C39.2383 199.194 42.1712 200.441 44.334 202.66C46.4949 204.88 47.7097 207.89 47.7097 211.028C47.7097 214.167 46.4949 217.176 44.334 219.394C42.1712 221.613 39.2383 222.86 36.18 222.86H33.0166C29.9583 222.86 27.0253 221.613 24.8625 219.394C22.6997 217.176 21.4849 214.167 21.4849 211.028C21.4849 207.89 22.6997 204.88 24.8625 202.66C27.0253 200.441 29.9583 199.194 33.0166 199.194Z" fill="white"/>
</mask>
<g mask="url(#mask49_419_113324)">
<mask id="mask50_419_113324" style="mask-type:luminance" maskUnits="userSpaceOnUse" x="21" y="199" width="28" height="25">
<path d="M48.0938 199.136H21.1857V223.032H48.0938V199.136Z" fill="white"/>
</mask>
<g mask="url(#mask50_419_113324)">
<mask id="mask51_419_113324" style="mask-type:luminance" maskUnits="userSpaceOnUse" x="21" y="199" width="27" height="24">
<path d="M21.4849 199.194H47.7218V222.86H21.4849V199.194Z" fill="white"/>
</mask>
<g mask="url(#mask51_419_113324)">
<mask id="mask52_419_113324" style="mask-type:luminance" maskUnits="userSpaceOnUse" x="21" y="199" width="27" height="24">
<path d="M33.0166 199.194H36.18C39.2383 199.194 42.1712 200.441 44.334 202.66C46.4949 204.88 47.7097 207.89 47.7097 211.028C47.7097 214.167 46.4949 217.176 44.334 219.394C42.1712 221.613 39.2383 222.86 36.18 222.86H33.0166C29.9583 222.86 27.0253 221.613 24.8625 219.394C22.6997 217.176 21.4849 214.167 21.4849 211.028C21.4849 207.89 22.6997 204.88 24.8625 202.66C27.0253 200.441 29.9583 199.194 33.0166 199.194Z" fill="white"/>
</mask>
<g mask="url(#mask52_419_113324)">
<path d="M21.4849 199.194H47.7016V222.86H21.4849V199.194Z" fill="#B0BEC5"/>
</g>
</g>
</g>
</g>
</g>
<mask id="mask53_419_113324" style="mask-type:luminance" maskUnits="userSpaceOnUse" x="21" y="199" width="23" height="25">
<path d="M21.3434 199.194H43.5457V223.136H21.3434V199.194Z" fill="white"/>
</mask>
<g mask="url(#mask53_419_113324)">
<mask id="mask54_419_113324" style="mask-type:luminance" maskUnits="userSpaceOnUse" x="21" y="199" width="23" height="25">
<path d="M32.4446 199.194C35.3876 199.194 38.2114 200.393 40.2934 202.53C42.3754 204.666 43.5457 207.564 43.5457 210.586V211.69C43.5457 214.71 42.3754 217.608 40.2934 219.745C38.2114 221.881 35.3876 223.082 32.4446 223.082C29.4995 223.082 26.6757 221.881 24.5937 219.745C22.5117 217.608 21.3434 214.71 21.3434 211.69V210.586C21.3434 207.564 22.5117 204.666 24.5937 202.53C26.6757 200.393 29.4995 199.194 32.4446 199.194Z" fill="white"/>
</mask>
<g mask="url(#mask54_419_113324)">
<mask id="mask55_419_113324" style="mask-type:luminance" maskUnits="userSpaceOnUse" x="21" y="199" width="23" height="25">
<path d="M43.9541 199.136H21.1857V223.563H43.9541V199.136Z" fill="white"/>
</mask>
<g mask="url(#mask55_419_113324)">
<mask id="mask56_419_113324" style="mask-type:luminance" maskUnits="userSpaceOnUse" x="21" y="199" width="23" height="25">
<path d="M21.3434 199.194H43.5457V223.117H21.3434V199.194Z" fill="white"/>
</mask>
<g mask="url(#mask56_419_113324)">
<mask id="mask57_419_113324" style="mask-type:luminance" maskUnits="userSpaceOnUse" x="21" y="199" width="23" height="25">
<path d="M32.4446 199.194C35.3876 199.194 38.2114 200.393 40.2934 202.53C42.3754 204.666 43.5457 207.564 43.5457 210.586V211.69C43.5457 214.71 42.3754 217.608 40.2934 219.745C38.2114 221.881 35.3876 223.082 32.4446 223.082C29.4995 223.082 26.6757 221.881 24.5937 219.745C22.5117 217.608 21.3434 214.71 21.3434 211.69V210.586C21.3434 207.564 22.5117 204.666 24.5937 202.53C26.6757 200.393 29.4995 199.194 32.4446 199.194Z" fill="white"/>
</mask>
<g mask="url(#mask57_419_113324)">
<path d="M21.3434 199.194H43.5457V223.047H21.3434V199.194Z" fill="#EAEEF0"/>
</g>
</g>
</g>
</g>
</g>
</g>
<mask id="mask58_419_113324" style="mask-type:luminance" maskUnits="userSpaceOnUse" x="61" y="198" width="28" height="26">
<path d="M88.4556 198.605H61.0301V223.032H88.4556V198.605Z" fill="white"/>
</mask>
<g mask="url(#mask58_419_113324)">
<mask id="mask59_419_113324" style="mask-type:luminance" maskUnits="userSpaceOnUse" x="61" y="198" width="27" height="25">
<path d="M61.5718 198.972H87.8774V222.64H61.5718V198.972Z" fill="white"/>
</mask>
<g mask="url(#mask59_419_113324)">
<mask id="mask60_419_113324" style="mask-type:luminance" maskUnits="userSpaceOnUse" x="61" y="198" width="27" height="25">
<path d="M73.1035 198.972H76.2649C79.3231 198.972 82.2561 200.219 84.4189 202.438C86.5818 204.658 87.7966 207.668 87.7966 210.806C87.7966 213.945 86.5818 216.955 84.4189 219.174C82.2561 221.394 79.3231 222.64 76.2649 222.64H73.1035C70.0452 222.64 67.1123 221.394 64.9494 219.174C62.7866 216.955 61.5718 213.945 61.5718 210.806C61.5718 207.668 62.7866 204.658 64.9494 202.438C67.1123 200.219 70.0452 198.972 73.1035 198.972Z" fill="white"/>
</mask>
<g mask="url(#mask60_419_113324)">
<mask id="mask61_419_113324" style="mask-type:luminance" maskUnits="userSpaceOnUse" x="61" y="198" width="27" height="26">
<path d="M87.9381 198.605H61.5475V223.032H87.9381V198.605Z" fill="white"/>
</mask>
<g mask="url(#mask61_419_113324)">
<mask id="mask62_419_113324" style="mask-type:luminance" maskUnits="userSpaceOnUse" x="61" y="198" width="27" height="25">
<path d="M61.5718 198.972H87.8351V222.64H61.5718V198.972Z" fill="white"/>
</mask>
<g mask="url(#mask62_419_113324)">
<mask id="mask63_419_113324" style="mask-type:luminance" maskUnits="userSpaceOnUse" x="61" y="198" width="27" height="25">
<path d="M73.1036 198.972H76.2649C79.3232 198.972 82.2562 200.219 84.419 202.438C86.5818 204.658 87.7966 207.668 87.7966 210.806C87.7966 213.945 86.5818 216.955 84.419 219.174C82.2562 221.394 79.3232 222.64 76.2649 222.64H73.1036C70.0453 222.64 67.1123 221.394 64.9495 219.174C62.7867 216.955 61.5718 213.945 61.5718 210.806C61.5718 207.668 62.7867 204.658 64.9495 202.438C67.1123 200.219 70.0453 198.972 73.1036 198.972Z" fill="white"/>
</mask>
<g mask="url(#mask63_419_113324)">
<path d="M61.5718 198.972H87.7865V222.64H61.5718V198.972Z" fill="#B0BEC5"/>
</g>
</g>
</g>
</g>
</g>
<mask id="mask64_419_113324" style="mask-type:luminance" maskUnits="userSpaceOnUse" x="61" y="198" width="23" height="25">
<path d="M61.4283 198.972H83.6327V222.914H61.4283V198.972Z" fill="white"/>
</mask>
<g mask="url(#mask64_419_113324)">
<mask id="mask65_419_113324" style="mask-type:luminance" maskUnits="userSpaceOnUse" x="61" y="198" width="23" height="25">
<path d="M72.5315 198.972C75.4746 198.972 78.2984 200.173 80.3803 202.31C82.4623 204.446 83.6327 207.344 83.6327 210.364V211.468C83.6327 214.49 82.4623 217.388 80.3803 219.525C78.2984 221.661 75.4746 222.86 72.5315 222.86C69.5864 222.86 66.7626 221.661 64.6806 219.525C62.5986 217.388 61.4283 214.49 61.4283 211.468V210.364C61.4283 207.344 62.5986 204.446 64.6806 202.31C66.7626 200.173 69.5864 198.972 72.5315 198.972Z" fill="white"/>
</mask>
<g mask="url(#mask65_419_113324)">
<mask id="mask66_419_113324" style="mask-type:luminance" maskUnits="userSpaceOnUse" x="61" y="198" width="23" height="26">
<path d="M83.7984 198.605H61.0301V223.032H83.7984V198.605Z" fill="white"/>
</mask>
<g mask="url(#mask66_419_113324)">
<mask id="mask67_419_113324" style="mask-type:luminance" maskUnits="userSpaceOnUse" x="61" y="198" width="23" height="25">
<path d="M61.4283 198.972H83.6327V222.862H61.4283V198.972Z" fill="white"/>
</mask>
<g mask="url(#mask67_419_113324)">
<mask id="mask68_419_113324" style="mask-type:luminance" maskUnits="userSpaceOnUse" x="61" y="198" width="23" height="25">
<path d="M72.5315 198.972C75.4746 198.972 78.2984 200.173 80.3803 202.31C82.4623 204.446 83.6327 207.344 83.6327 210.364V211.468C83.6327 214.49 82.4623 217.388 80.3803 219.525C78.2984 221.661 75.4746 222.86 72.5315 222.86C69.5864 222.86 66.7626 221.661 64.6806 219.525C62.5986 217.388 61.4283 214.49 61.4283 211.468V210.364C61.4283 207.344 62.5986 204.446 64.6806 202.31C66.7626 200.173 69.5864 198.972 72.5315 198.972Z" fill="white"/>
</mask>
<g mask="url(#mask68_419_113324)">
<path d="M61.4283 198.972H83.6327V222.825H61.4283V198.972Z" fill="#EAEEF0"/>
</g>
</g>
</g>
</g>
</g>
</g>
<mask id="mask69_419_113324" style="mask-type:luminance" maskUnits="userSpaceOnUse" x="73" y="206" width="8" height="9">
<path d="M73.6917 206.039H80.3399V214.872H73.6917V206.039Z" fill="white"/>
</mask>
<g mask="url(#mask69_419_113324)">
<mask id="mask70_419_113324" style="mask-type:luminance" maskUnits="userSpaceOnUse" x="73" y="206" width="8" height="9">
<path d="M74.0374 211.117L79.3676 214.741C79.5596 214.872 79.8062 214.882 80.0104 214.77C80.2125 214.658 80.3399 214.443 80.3399 214.206V206.709C80.3399 206.473 80.2125 206.257 80.0104 206.145C79.8062 206.033 79.5596 206.044 79.3676 206.174L74.0374 209.798C73.8231 209.945 73.6917 210.192 73.6917 210.458C73.6917 210.723 73.8231 210.97 74.0374 211.117Z" fill="white"/>
</mask>
<g mask="url(#mask70_419_113324)">
<mask id="mask71_419_113324" style="mask-type:luminance" maskUnits="userSpaceOnUse" x="73" y="206" width="8" height="10">
<path d="M80.6936 206.039H73.4492V215.067H80.6936V206.039Z" fill="white"/>
</mask>
<g mask="url(#mask71_419_113324)">
<mask id="mask72_419_113324" style="mask-type:luminance" maskUnits="userSpaceOnUse" x="73" y="206" width="8" height="9">
<path d="M73.6917 206.039H80.3399V214.872H73.6917V206.039Z" fill="white"/>
</mask>
<g mask="url(#mask72_419_113324)">
<mask id="mask73_419_113324" style="mask-type:luminance" maskUnits="userSpaceOnUse" x="73" y="206" width="8" height="9">
<path d="M74.0374 211.117L79.3676 214.741C79.5596 214.872 79.8062 214.882 80.0104 214.77C80.2125 214.658 80.3399 214.443 80.3399 214.206V206.709C80.3399 206.473 80.2125 206.257 80.0104 206.145C79.8062 206.033 79.5596 206.044 79.3676 206.174L74.0374 209.798C73.8231 209.945 73.6917 210.192 73.6917 210.458C73.6917 210.723 73.8231 210.97 74.0374 211.117Z" fill="white"/>
</mask>
<g mask="url(#mask73_419_113324)">
<path d="M80.3399 205.515V215.397H73.0671V205.515H80.3399Z" fill="#526E7A"/>
</g>
</g>
</g>
</g>
</g>
<mask id="mask74_419_113324" style="mask-type:luminance" maskUnits="userSpaceOnUse" x="73" y="206" width="8" height="9">
<path d="M73.5685 206.039H80.338V214.934H73.5685V206.039Z" fill="white"/>
</mask>
<g mask="url(#mask74_419_113324)">
<mask id="mask75_419_113324" style="mask-type:luminance" maskUnits="userSpaceOnUse" x="73" y="206" width="8" height="9">
<path d="M74.0395 211.115L79.3677 214.737C79.5598 214.868 79.8064 214.88 80.0085 214.768C80.2127 214.656 80.338 214.438 80.338 214.202V206.709C80.338 206.473 80.2127 206.257 80.0085 206.145C79.8064 206.033 79.5598 206.044 79.3677 206.174L74.0395 209.796C73.8232 209.943 73.6938 210.19 73.6938 210.456C73.6938 210.721 73.8232 210.97 74.0395 211.115Z" fill="white"/>
</mask>
<g mask="url(#mask75_419_113324)">
<path d="M74.0395 211.115L79.3677 214.737C79.5597 214.868 79.8063 214.88 80.0085 214.768C80.2126 214.656 80.338 214.438 80.338 214.202V206.709C80.338 206.473 80.2126 206.257 80.0085 206.145C79.8063 206.033 79.5597 206.044 79.3677 206.174L74.0395 209.796C73.8232 209.943 73.6938 210.19 73.6938 210.456C73.6938 210.721 73.8232 210.97 74.0395 211.115Z" stroke="#526E7A" stroke-width="4"/>
</g>
</g>
<mask id="mask76_419_113324" style="mask-type:luminance" maskUnits="userSpaceOnUse" x="29" y="158" width="7" height="25">
<path d="M35.6746 158.247H29.465V182.143H35.6746V158.247Z" fill="white"/>
</mask>
<g mask="url(#mask76_419_113324)">
<path d="M33.3163 175.596C33.6659 175.596 33.9954 175.455 34.3027 175.173C34.6099 174.887 34.8363 174.441 34.9818 173.837C34.9919 173.733 35.002 173.335 35.0142 172.642C35.0344 171.277 35.0465 169.722 35.0465 167.979L35.0708 165.498C35.0708 165.007 35.0384 164.648 34.9737 164.42C34.9131 164.187 34.7837 163.98 34.5857 163.797C34.1753 163.449 33.7468 163.275 33.3001 163.275C32.8412 163.275 32.4127 163.461 32.0145 163.83C31.6204 164.202 31.1534 164.685 30.6157 165.282C30.2438 165.726 30.0579 166.137 30.0579 166.519C30.0579 166.89 30.1892 167.203 30.454 167.456C30.7168 167.705 31.0463 167.83 31.4405 167.83L31.4971 167.813C31.5334 167.813 31.5638 167.875 31.586 167.996C31.6547 168.257 31.6911 169.079 31.6911 170.46L31.6749 171.24C31.6749 171.622 31.685 171.976 31.7073 172.302C31.7335 172.63 31.7477 172.947 31.7477 173.256L31.7315 173.513C31.7315 174.183 31.8932 174.698 32.2166 175.057C32.5441 175.416 32.912 175.596 33.3163 175.596Z" fill="#526E7A"/>
</g>
<mask id="mask77_419_113324" style="mask-type:luminance" maskUnits="userSpaceOnUse" x="65" y="206" width="8" height="9">
<path d="M65.7964 206.039H72.4425V214.872H65.7964V206.039Z" fill="white"/>
</mask>
<g mask="url(#mask77_419_113324)">
<mask id="mask78_419_113324" style="mask-type:luminance" maskUnits="userSpaceOnUse" x="65" y="206" width="8" height="9">
<path d="M72.0969 209.796L66.7666 206.172C66.5746 206.042 66.328 206.029 66.1259 206.141C65.9237 206.253 65.7964 206.471 65.7964 206.707V214.202C65.7964 214.438 65.9237 214.656 66.1259 214.768C66.328 214.88 66.5746 214.868 66.7666 214.737L72.0969 211.115C72.3132 210.968 72.4425 210.721 72.4425 210.456C72.4425 210.19 72.3132 209.941 72.0969 209.796Z" fill="white"/>
</mask>
<g mask="url(#mask78_419_113324)">
<mask id="mask79_419_113324" style="mask-type:luminance" maskUnits="userSpaceOnUse" x="65" y="206" width="8" height="10">
<path d="M72.9317 206.04H65.6873V215.067H72.9317V206.04Z" fill="white"/>
</mask>
<g mask="url(#mask79_419_113324)">
<mask id="mask80_419_113324" style="mask-type:luminance" maskUnits="userSpaceOnUse" x="65" y="206" width="8" height="9">
<path d="M65.7964 206.04H72.4425V214.872H65.7964V206.04Z" fill="white"/>
</mask>
<g mask="url(#mask80_419_113324)">
<mask id="mask81_419_113324" style="mask-type:luminance" maskUnits="userSpaceOnUse" x="65" y="206" width="8" height="9">
<path d="M72.0969 209.796L66.7666 206.172C66.5746 206.042 66.328 206.029 66.1259 206.141C65.9237 206.253 65.7964 206.471 65.7964 206.707V214.202C65.7964 214.438 65.9237 214.656 66.1259 214.768C66.328 214.88 66.5746 214.868 66.7666 214.737L72.0969 211.115C72.3132 210.968 72.4425 210.721 72.4425 210.456C72.4425 210.19 72.3132 209.941 72.0969 209.796Z" fill="white"/>
</mask>
<g mask="url(#mask81_419_113324)">
<path d="M65.7964 215.397V205.515H73.0692V215.397H65.7964Z" fill="#526E7A"/>
</g>
</g>
</g>
</g>
</g>
<mask id="mask82_419_113324" style="mask-type:luminance" maskUnits="userSpaceOnUse" x="65" y="206" width="8" height="9">
<path d="M65.7964 206.039H72.5679V214.934H65.7964V206.039Z" fill="white"/>
</mask>
<g mask="url(#mask82_419_113324)">
<mask id="mask83_419_113324" style="mask-type:luminance" maskUnits="userSpaceOnUse" x="65" y="206" width="8" height="9">
<path d="M72.0969 209.796L66.7666 206.174C66.5766 206.044 66.33 206.033 66.1259 206.145C65.9237 206.257 65.7964 206.473 65.7964 206.709V214.202C65.7964 214.438 65.9237 214.656 66.1259 214.768C66.33 214.88 66.5766 214.868 66.7666 214.737L72.0969 211.115C72.3112 210.97 72.4425 210.721 72.4425 210.456C72.4425 210.19 72.3112 209.943 72.0969 209.796Z" fill="white"/>
</mask>
<g mask="url(#mask83_419_113324)">
<path d="M72.0969 209.796L66.7666 206.174C66.5766 206.044 66.33 206.033 66.1259 206.145C65.9237 206.257 65.7964 206.473 65.7964 206.71V214.202C65.7964 214.438 65.9237 214.656 66.1259 214.768C66.33 214.88 66.5766 214.868 66.7666 214.737L72.0969 211.115C72.3112 210.97 72.4425 210.721 72.4425 210.456C72.4425 210.19 72.3112 209.943 72.0969 209.796Z" stroke="#526E7A" stroke-width="4"/>
</g>
</g>
<mask id="mask84_419_113324" style="mask-type:luminance" maskUnits="userSpaceOnUse" x="24" y="206" width="7" height="10">
<path d="M24.0154 206.722H30.6615V215.554H24.0154V206.722Z" fill="white"/>
</mask>
<g mask="url(#mask84_419_113324)">
<mask id="mask85_419_113324" style="mask-type:luminance" maskUnits="userSpaceOnUse" x="24" y="206" width="7" height="10">
<path d="M24.361 211.798L29.6913 215.421C29.8833 215.552 30.1299 215.563 30.3321 215.453C30.5362 215.341 30.6615 215.123 30.6615 214.886V207.392C30.6615 207.155 30.5362 206.937 30.3321 206.825C30.1299 206.713 29.8833 206.726 29.6913 206.857L24.361 210.478C24.1447 210.626 24.0154 210.872 24.0154 211.138C24.0154 211.404 24.1447 211.652 24.361 211.798Z" fill="white"/>
</mask>
<g mask="url(#mask85_419_113324)">
<mask id="mask86_419_113324" style="mask-type:luminance" maskUnits="userSpaceOnUse" x="23" y="206" width="9" height="10">
<path d="M31.0173 206.57H23.7728V215.598H31.0173V206.57Z" fill="white"/>
</mask>
<g mask="url(#mask86_419_113324)">
<mask id="mask87_419_113324" style="mask-type:luminance" maskUnits="userSpaceOnUse" x="24" y="206" width="7" height="10">
<path d="M24.0154 206.722H30.6615V215.554H24.0154V206.722Z" fill="white"/>
</mask>
<g mask="url(#mask87_419_113324)">
<mask id="mask88_419_113324" style="mask-type:luminance" maskUnits="userSpaceOnUse" x="24" y="206" width="7" height="10">
<path d="M24.361 211.798L29.6913 215.421C29.8833 215.552 30.1299 215.562 30.3321 215.452C30.5362 215.34 30.6615 215.123 30.6615 214.886V207.392C30.6615 207.155 30.5362 206.937 30.3321 206.825C30.1299 206.713 29.8833 206.726 29.6913 206.856L24.361 210.478C24.1447 210.626 24.0154 210.872 24.0154 211.138C24.0154 211.403 24.1447 211.652 24.361 211.798Z" fill="white"/>
</mask>
<g mask="url(#mask88_419_113324)">
<path d="M30.6616 206.197V216.079H23.3908V206.197H30.6616Z" fill="#526E7A"/>
</g>
</g>
</g>
</g>
</g>
<mask id="mask89_419_113324" style="mask-type:luminance" maskUnits="userSpaceOnUse" x="23" y="206" width="8" height="10">
<path d="M23.8903 206.66H30.6618V215.598H23.8903V206.66Z" fill="white"/>
</mask>
<g mask="url(#mask89_419_113324)">
<mask id="mask90_419_113324" style="mask-type:luminance" maskUnits="userSpaceOnUse" x="24" y="206" width="7" height="10">
<path d="M24.3633 211.798L29.6915 215.419C29.8836 215.55 30.1302 215.56 30.3323 215.448C30.5344 215.336 30.6618 215.121 30.6618 214.884V207.39C30.6618 207.155 30.5344 206.937 30.3323 206.825C30.1302 206.713 29.8836 206.726 29.6915 206.857L24.3633 210.478C24.147 210.624 24.0176 210.872 24.0176 211.138C24.0176 211.404 24.147 211.65 24.3633 211.798Z" fill="white"/>
</mask>
<g mask="url(#mask90_419_113324)">
<path d="M24.3633 211.798L29.6915 215.419C29.8835 215.55 30.1301 215.56 30.3323 215.448C30.5344 215.336 30.6617 215.121 30.6617 214.884V207.39C30.6617 207.155 30.5344 206.937 30.3323 206.825C30.1301 206.713 29.8835 206.726 29.6915 206.857L24.3633 210.478C24.147 210.624 24.0176 210.872 24.0176 211.138C24.0176 211.404 24.147 211.65 24.3633 211.798Z" stroke="#526E7A" stroke-width="4"/>
</g>
</g>
<mask id="mask91_419_113324" style="mask-type:luminance" maskUnits="userSpaceOnUse" x="32" y="206" width="7" height="10">
<path d="M32.2927 206.722H38.9409V215.554H32.2927V206.722Z" fill="white"/>
</mask>
<g mask="url(#mask91_419_113324)">
<mask id="mask92_419_113324" style="mask-type:luminance" maskUnits="userSpaceOnUse" x="32" y="206" width="7" height="10">
<path d="M38.5932 210.476L33.263 206.852C33.0709 206.722 32.8264 206.711 32.6222 206.823C32.4201 206.935 32.2927 207.151 32.2927 207.388V214.884C32.2927 215.121 32.4201 215.337 32.6222 215.449C32.8264 215.561 33.0709 215.548 33.263 215.419L38.5932 211.796C38.8095 211.648 38.9389 211.401 38.9389 211.136C38.9389 210.87 38.8095 210.624 38.5932 210.476Z" fill="white"/>
</mask>
<g mask="url(#mask92_419_113324)">
<mask id="mask93_419_113324" style="mask-type:luminance" maskUnits="userSpaceOnUse" x="32" y="206" width="8" height="10">
<path d="M39.2967 206.57H32.0522V215.598H39.2967V206.57Z" fill="white"/>
</mask>
<g mask="url(#mask93_419_113324)">
<mask id="mask94_419_113324" style="mask-type:luminance" maskUnits="userSpaceOnUse" x="32" y="206" width="7" height="10">
<path d="M32.2927 206.722H38.9409V215.554H32.2927V206.722Z" fill="white"/>
</mask>
<g mask="url(#mask94_419_113324)">
<mask id="mask95_419_113324" style="mask-type:luminance" maskUnits="userSpaceOnUse" x="32" y="206" width="7" height="10">
<path d="M38.5932 210.476L33.263 206.852C33.0709 206.722 32.8264 206.711 32.6222 206.823C32.4201 206.935 32.2927 207.151 32.2927 207.388V214.884C32.2927 215.121 32.4201 215.336 32.6222 215.449C32.8264 215.561 33.0709 215.548 33.263 215.419L38.5932 211.796C38.8095 211.648 38.9389 211.401 38.9389 211.136C38.9389 210.87 38.8095 210.624 38.5932 210.476Z" fill="white"/>
</mask>
<g mask="url(#mask95_419_113324)">
<path d="M32.2927 216.079V206.197H39.5655V216.079H32.2927Z" fill="#526E7A"/>
</g>
</g>
</g>
</g>
</g>
<mask id="mask96_419_113324" style="mask-type:luminance" maskUnits="userSpaceOnUse" x="32" y="206" width="8" height="10">
<path d="M32.2927 206.66H39.0642V215.598H32.2927V206.66Z" fill="white"/>
</mask>
<g mask="url(#mask96_419_113324)">
<mask id="mask97_419_113324" style="mask-type:luminance" maskUnits="userSpaceOnUse" x="32" y="206" width="7" height="10">
<path d="M38.5932 210.478L33.265 206.857C33.073 206.726 32.8264 206.713 32.6222 206.825C32.4201 206.937 32.2927 207.155 32.2927 207.39V214.884C32.2927 215.121 32.4201 215.336 32.6222 215.448C32.8264 215.56 33.073 215.55 33.265 215.419L38.5932 211.798C38.8075 211.65 38.9389 211.404 38.9389 211.138C38.9389 210.872 38.8075 210.624 38.5932 210.478Z" fill="white"/>
</mask>
<g mask="url(#mask97_419_113324)">
<path d="M38.5932 210.478L33.265 206.857C33.073 206.726 32.8264 206.713 32.6222 206.825C32.4201 206.937 32.2927 207.155 32.2927 207.39V214.884C32.2927 215.121 32.4201 215.336 32.6222 215.448C32.8264 215.56 33.073 215.55 33.265 215.419L38.5932 211.798C38.8075 211.65 38.9389 211.403 38.9389 211.138C38.9389 210.872 38.8075 210.624 38.5932 210.478Z" stroke="#526E7A" stroke-width="4"/>
</g>
</g>
<path d="M52.465 151.442C52.9441 151.442 53.411 151.326 53.8638 151.094C54.3166 150.857 54.6905 150.505 54.9877 150.04C55.2828 149.575 55.4324 149.127 55.4324 148.696C55.4324 148.204 55.2221 147.854 54.8017 147.642C54.6016 147.559 54.4298 147.518 54.2842 147.518C54.068 147.518 53.8901 147.58 53.7506 147.7C53.6152 147.816 53.5 147.941 53.4029 148.074C53.3261 148.169 53.2574 148.248 53.1927 148.314C53.128 148.381 53.0573 148.42 52.9825 148.43C52.8693 148.43 52.7319 148.389 52.5701 148.306C52.4084 148.219 52.2649 148.08 52.1416 147.891C52.0224 147.704 51.9637 147.455 51.9637 147.144C51.9678 146.974 52.0042 146.792 52.0689 146.597C52.1335 146.398 52.2225 146.227 52.3357 146.082C52.4489 145.939 52.5782 145.867 52.7238 145.867C52.8087 145.867 52.8976 145.898 52.9906 145.958C53.1846 146.074 53.3807 146.132 53.5808 146.132C53.7304 146.132 53.9164 146.097 54.1387 146.024C54.3974 145.937 54.5874 145.79 54.7128 145.584C54.8361 145.375 54.8987 145.145 54.8987 144.896C54.8987 144.62 54.8179 144.352 54.6562 144.091C54.3752 143.639 54.0376 143.303 53.6455 143.087C53.2513 142.867 52.8451 142.755 52.4246 142.755C51.9658 142.755 51.5231 142.884 51.0986 143.137C50.6721 143.386 50.3164 143.763 50.0314 144.265C49.5179 145.161 49.2632 146.153 49.2632 147.236C49.2632 148.038 49.4088 148.808 49.6999 149.542C49.9687 150.173 50.3548 150.65 50.8561 150.969C51.3614 151.285 51.8991 151.442 52.465 151.442Z" fill="white"/>
<path d="M58.2059 151.268C58.4808 151.268 58.7173 151.189 58.9174 151.027C59.1216 150.862 59.3055 150.528 59.4672 150.024L60.4374 147.144C61.0519 145.282 61.3996 144.207 61.4804 143.925C61.5128 143.809 61.529 143.699 61.529 143.593C61.529 143.373 61.4602 143.174 61.3268 142.996C61.1914 142.819 60.9974 142.693 60.7447 142.614C60.6194 142.581 60.5062 142.564 60.4051 142.564C60.0979 142.564 59.8411 142.68 59.637 142.913C59.4308 143.145 59.2449 143.452 59.0791 143.834C58.9174 144.215 58.7577 144.643 58.6021 145.111L58.3353 145.867C58.313 145.912 58.2827 145.933 58.2463 145.933C58.214 145.933 58.1857 145.912 58.1655 145.867C58.0199 145.514 57.8865 145.165 57.7693 144.821C57.6278 144.406 57.4802 144.031 57.3246 143.693C57.173 143.357 56.9971 143.085 56.799 142.88C56.5989 142.676 56.3463 142.573 56.039 142.573C55.7904 142.573 55.6024 142.635 55.473 142.755C55.3437 142.871 55.2568 143.018 55.2143 143.195C55.1658 143.373 55.1415 143.55 55.1415 143.726C55.1415 144.02 55.1698 144.257 55.2224 144.439L55.9177 146.879C56.3483 148.406 56.6495 149.434 56.8233 149.965C57.1184 150.835 57.5793 151.268 58.2059 151.268Z" fill="white"/>
<mask id="mask98_419_113324" style="mask-type:luminance" maskUnits="userSpaceOnUse" x="11" y="75" width="89" height="53">
<path d="M11.6873 75.0017H99.1848V127.007H11.6873V75.0017Z" fill="white"/>
</mask>
<g mask="url(#mask98_419_113324)">
<mask id="mask99_419_113324" style="mask-type:luminance" maskUnits="userSpaceOnUse" x="11" y="75" width="89" height="53">
<path d="M17.8968 75.0017H92.9753C94.6206 75.0017 96.2013 75.6738 97.3656 76.8686C98.5299 78.0634 99.1848 79.6835 99.1848 81.3741V120.635C99.1848 122.326 98.5299 123.946 97.3656 125.14C96.2013 126.335 94.6206 127.007 92.9753 127.007H17.8968C16.2514 127.007 14.6707 126.335 13.5065 125.14C12.3422 123.946 11.6873 122.326 11.6873 120.635V81.3741C11.6873 79.6835 12.3422 78.0634 13.5065 76.8686C14.6707 75.6738 16.2514 75.0017 17.8968 75.0017Z" fill="white"/>
</mask>
<g mask="url(#mask99_419_113324)">
<mask id="mask100_419_113324" style="mask-type:luminance" maskUnits="userSpaceOnUse" x="11" y="74" width="89" height="54">
<path d="M99.3223 74.8752H11.3538V127.447H99.3223V74.8752Z" fill="white"/>
</mask>
<g mask="url(#mask100_419_113324)">
<mask id="mask101_419_113324" style="mask-type:luminance" maskUnits="userSpaceOnUse" x="11" y="75" width="89" height="53">
<path d="M11.6873 75.0017H99.1848V127.007H11.6873V75.0017Z" fill="white"/>
</mask>
<g mask="url(#mask101_419_113324)">
<mask id="mask102_419_113324" style="mask-type:luminance" maskUnits="userSpaceOnUse" x="11" y="75" width="89" height="53">
<path d="M17.8968 75.0017H92.9753C94.6207 75.0017 96.2013 75.6738 97.3656 76.8686C98.5299 78.0634 99.1848 79.6835 99.1848 81.3741V120.635C99.1848 122.326 98.5299 123.946 97.3656 125.14C96.2013 126.335 94.6207 127.007 92.9753 127.007H17.8968C16.2514 127.007 14.6707 126.335 13.5065 125.14C12.3422 123.946 11.6873 122.326 11.6873 120.635V81.3741C11.6873 79.6835 12.3422 78.0634 13.5065 76.8686C14.6707 75.6738 16.2514 75.0017 17.8968 75.0017Z" fill="white"/>
</mask>
<g mask="url(#mask102_419_113324)">
<path d="M11.6873 75.0017H99.1848V127.007H11.6873V75.0017Z" fill="#78909C"/>
</g>
</g>
</g>
</g>
</g>
<mask id="mask103_419_113324" style="mask-type:luminance" maskUnits="userSpaceOnUse" x="36" y="101" width="52" height="18">
<path d="M36.1658 101.754H87.6856V118.362H36.1658V101.754Z" fill="white"/>
</mask>
<g mask="url(#mask103_419_113324)">
<mask id="mask104_419_113324" style="mask-type:luminance" maskUnits="userSpaceOnUse" x="36" y="101" width="52" height="18">
<path d="M44.2572 101.754H79.5639C81.7085 101.754 83.7662 102.63 85.2842 104.186C86.8023 105.743 87.6553 107.855 87.6553 110.058C87.6553 112.261 86.8023 114.373 85.2842 115.928C83.7662 117.486 81.7085 118.362 79.5639 118.362H44.2572C42.1105 118.362 40.0528 117.486 38.5348 115.928C37.0188 114.373 36.1658 112.261 36.1658 110.058C36.1658 107.855 37.0188 105.743 38.5348 104.186C40.0528 102.63 42.1105 101.754 44.2572 101.754Z" fill="white"/>
</mask>
<g mask="url(#mask104_419_113324)">
<mask id="mask105_419_113324" style="mask-type:luminance" maskUnits="userSpaceOnUse" x="35" y="101" width="53" height="18">
<path d="M87.9382 101.427H35.6746V118.42H87.9382V101.427Z" fill="white"/>
</mask>
<g mask="url(#mask105_419_113324)">
<mask id="mask106_419_113324" style="mask-type:luminance" maskUnits="userSpaceOnUse" x="36" y="101" width="52" height="18">
<path d="M36.1658 101.754H87.6856V118.362H36.1658V101.754Z" fill="white"/>
</mask>
<g mask="url(#mask106_419_113324)">
<mask id="mask107_419_113324" style="mask-type:luminance" maskUnits="userSpaceOnUse" x="36" y="101" width="52" height="18">
<path d="M44.2572 101.754H79.5639C81.7085 101.754 83.7662 102.63 85.2842 104.186C86.8023 105.743 87.6553 107.855 87.6553 110.058C87.6553 112.261 86.8023 114.373 85.2842 115.928C83.7662 117.486 81.7085 118.362 79.5639 118.362H44.2572C42.1105 118.362 40.0528 117.486 38.5348 115.928C37.0188 114.373 36.1658 112.261 36.1658 110.058C36.1658 107.855 37.0188 105.743 38.5348 104.186C40.0528 102.63 42.1105 101.754 44.2572 101.754Z" fill="white"/>
</mask>
<g mask="url(#mask107_419_113324)">
<path d="M36.1658 101.754H87.6856V118.362H36.1658V101.754Z" fill="#FF2828"/>
</g>
</g>
</g>
</g>
</g>
<mask id="mask108_419_113324" style="mask-type:luminance" maskUnits="userSpaceOnUse" x="36" y="101" width="52" height="18">
<path d="M36.1699 101.754H87.7827V118.42H36.1699V101.754Z" fill="white"/>
</mask>
<g mask="url(#mask108_419_113324)">
<mask id="mask109_419_113324" style="mask-type:luminance" maskUnits="userSpaceOnUse" x="36" y="101" width="52" height="18">
<path d="M44.2593 101.754H79.5559C81.7005 101.754 83.7582 102.63 85.2763 104.186C86.7923 105.743 87.6453 107.853 87.6453 110.056C87.6453 112.257 86.7923 114.368 85.2763 115.926C83.7582 117.482 81.7005 118.357 79.5559 118.357H44.2593C42.1126 118.357 40.0549 117.482 38.5389 115.926C37.0209 114.368 36.1699 112.257 36.1699 110.056C36.1699 107.853 37.0209 105.743 38.5389 104.186C40.0549 102.63 42.1126 101.754 44.2593 101.754Z" fill="white"/>
</mask>
<g mask="url(#mask109_419_113324)">
<path d="M44.2593 101.754H79.5559C81.7005 101.754 83.7582 102.63 85.2763 104.186C86.7923 105.743 87.6453 107.853 87.6453 110.056C87.6453 112.257 86.7923 114.368 85.2763 115.926C83.7582 117.482 81.7005 118.357 79.5559 118.357H44.2593C42.1126 118.357 40.0549 117.482 38.5389 115.926C37.0209 114.368 36.1699 112.257 36.1699 110.056C36.1699 107.853 37.0209 105.743 38.5389 104.186C40.0549 102.63 42.1126 101.754 44.2593 101.754Z" stroke="#FF5757" stroke-width="8"/>
</g>
</g>
<mask id="mask110_419_113324" style="mask-type:luminance" maskUnits="userSpaceOnUse" x="11" y="15" width="89" height="53">
<path d="M11.6873 15.429H99.1848V67.4346H11.6873V15.429Z" fill="white"/>
</mask>
<g mask="url(#mask110_419_113324)">
<mask id="mask111_419_113324" style="mask-type:luminance" maskUnits="userSpaceOnUse" x="11" y="15" width="89" height="53">
<path d="M17.8968 15.429H92.9753C94.6206 15.429 96.2013 16.101 97.3656 17.2959C98.5299 18.4907 99.1848 20.1107 99.1848 21.8013V61.0622C99.1848 62.7528 98.5299 64.3728 97.3656 65.5677C96.2013 66.7625 94.6206 67.4346 92.9753 67.4346H17.8968C16.2514 67.4346 14.6707 66.7625 13.5065 65.5677C12.3422 64.3728 11.6873 62.7528 11.6873 61.0622V21.8013C11.6873 20.1107 12.3422 18.4907 13.5065 17.2959C14.6707 16.101 16.2514 15.429 17.8968 15.429Z" fill="white"/>
</mask>
<g mask="url(#mask111_419_113324)">
<mask id="mask112_419_113324" style="mask-type:luminance" maskUnits="userSpaceOnUse" x="11" y="15" width="89" height="53">
<path d="M99.3223 15.3999H11.3538V67.4408H99.3223V15.3999Z" fill="white"/>
</mask>
<g mask="url(#mask112_419_113324)">
<mask id="mask113_419_113324" style="mask-type:luminance" maskUnits="userSpaceOnUse" x="11" y="15" width="89" height="53">
<path d="M11.6873 15.429H99.1848V67.4346H11.6873V15.429Z" fill="white"/>
</mask>
<g mask="url(#mask113_419_113324)">
<mask id="mask114_419_113324" style="mask-type:luminance" maskUnits="userSpaceOnUse" x="11" y="15" width="89" height="53">
<path d="M17.8968 15.429H92.9753C94.6207 15.429 96.2013 16.101 97.3656 17.2959C98.5299 18.4907 99.1848 20.1107 99.1848 21.8013V61.0622C99.1848 62.7528 98.5299 64.3728 97.3656 65.5677C96.2013 66.7625 94.6207 67.4346 92.9753 67.4346H17.8968C16.2514 67.4346 14.6707 66.7625 13.5065 65.5677C12.3422 64.3728 11.6873 62.7528 11.6873 61.0622V21.8013C11.6873 20.1107 12.3422 18.4907 13.5065 17.2959C14.6707 16.101 16.2514 15.429 17.8968 15.429Z" fill="white"/>
</mask>
<g mask="url(#mask114_419_113324)">
<path d="M11.6873 15.429H99.1848V67.4346H11.6873V15.429Z" fill="#78909C"/>
</g>
</g>
</g>
</g>
</g>
<mask id="mask115_419_113324" style="mask-type:luminance" maskUnits="userSpaceOnUse" x="36" y="42" width="52" height="17">
<path d="M36.1658 42.1815H87.6856V58.7886H36.1658V42.1815Z" fill="white"/>
</mask>
<g mask="url(#mask115_419_113324)">
<mask id="mask116_419_113324" style="mask-type:luminance" maskUnits="userSpaceOnUse" x="36" y="42" width="52" height="17">
<path d="M44.2572 42.1815H79.5639C81.7085 42.1815 83.7662 43.0569 85.2842 44.6126C86.8023 46.1705 87.6553 48.2821 87.6553 50.4851C87.6553 52.688 86.8023 54.7997 85.2842 56.3554C83.7662 57.9133 81.7085 58.7886 79.5639 58.7886H44.2572C42.1105 58.7886 40.0528 57.9133 38.5348 56.3554C37.0188 54.7997 36.1658 52.688 36.1658 50.4851C36.1658 48.2821 37.0188 46.1705 38.5348 44.6126C40.0528 43.0569 42.1105 42.1815 44.2572 42.1815Z" fill="white"/>
</mask>
<g mask="url(#mask116_419_113324)">
<mask id="mask117_419_113324" style="mask-type:luminance" maskUnits="userSpaceOnUse" x="35" y="41" width="53" height="18">
<path d="M87.9382 41.9513H35.6746V58.9442H87.9382V41.9513Z" fill="white"/>
</mask>
<g mask="url(#mask117_419_113324)">
<mask id="mask118_419_113324" style="mask-type:luminance" maskUnits="userSpaceOnUse" x="36" y="42" width="52" height="17">
<path d="M36.1658 42.1815H87.6856V58.7886H36.1658V42.1815Z" fill="white"/>
</mask>
<g mask="url(#mask118_419_113324)">
<mask id="mask119_419_113324" style="mask-type:luminance" maskUnits="userSpaceOnUse" x="36" y="42" width="52" height="17">
<path d="M44.2572 42.1815H79.5639C81.7085 42.1815 83.7662 43.0569 85.2842 44.6126C86.8023 46.1705 87.6553 48.2821 87.6553 50.4851C87.6553 52.688 86.8023 54.7997 85.2842 56.3554C83.7662 57.9133 81.7085 58.7886 79.5639 58.7886H44.2572C42.1105 58.7886 40.0528 57.9133 38.5348 56.3554C37.0188 54.7997 36.1658 52.688 36.1658 50.4851C36.1658 48.2821 37.0188 46.1705 38.5348 44.6126C40.0528 43.0569 42.1105 42.1815 44.2572 42.1815Z" fill="white"/>
</mask>
<g mask="url(#mask119_419_113324)">
<path d="M36.1658 42.1815H87.6856V58.7886H36.1658V42.1815Z" fill="#FF2828"/>
</g>
</g>
</g>
</g>
</g>
<mask id="mask120_419_113324" style="mask-type:luminance" maskUnits="userSpaceOnUse" x="36" y="42" width="52" height="17">
<path d="M36.1699 42.1815H87.7827V58.9089H36.1699V42.1815Z" fill="white"/>
</mask>
<g mask="url(#mask120_419_113324)">
<mask id="mask121_419_113324" style="mask-type:luminance" maskUnits="userSpaceOnUse" x="36" y="42" width="52" height="17">
<path d="M44.2593 42.1815H79.5559C81.7005 42.1815 83.7582 43.0569 85.2763 44.6126C86.7923 46.1705 87.6453 48.2821 87.6453 50.483C87.6453 52.6839 86.7923 54.7955 85.2763 56.3534C83.7582 57.9091 81.7005 58.7845 79.5559 58.7845H44.2593C42.1126 58.7845 40.0549 57.9091 38.5389 56.3534C37.0209 54.7955 36.1699 52.6839 36.1699 50.483C36.1699 48.2821 37.0209 46.1705 38.5389 44.6126C40.0549 43.0569 42.1126 42.1815 44.2593 42.1815Z" fill="white"/>
</mask>
<g mask="url(#mask121_419_113324)">
<path d="M44.2593 42.1815H79.5559C81.7005 42.1815 83.7582 43.0569 85.2763 44.6126C86.7923 46.1705 87.6453 48.2821 87.6453 50.483C87.6453 52.6839 86.7923 54.7955 85.2763 56.3534C83.7582 57.9091 81.7005 58.7845 79.5559 58.7845H44.2593C42.1126 58.7845 40.0549 57.9091 38.5389 56.3534C37.0209 54.7955 36.1699 52.6839 36.1699 50.483C36.1699 48.2821 37.0209 46.1705 38.5389 44.6126C40.0549 43.0569 42.1126 42.1815 44.2593 42.1815Z" stroke="#FF5757" stroke-width="8"/>
</g>
</g>
<path d="M28.9262 32.4142C29.1627 32.4142 29.3891 32.3665 29.6053 32.2732C29.8196 32.1736 29.9955 31.9973 30.1309 31.7421C30.2643 31.4891 30.333 31.1261 30.333 30.6552C30.3593 29.9209 30.3734 29.1119 30.3734 28.2324C30.3734 26.6517 30.3573 25.5316 30.3249 24.8719C30.2926 24.5359 30.1511 24.2559 29.9045 24.0339C29.6619 23.8078 29.3628 23.6937 29.007 23.6937C28.6452 23.6937 28.3521 23.814 28.1257 24.0505C27.8993 24.2828 27.7659 24.5878 27.7295 24.9632C27.7174 25.069 27.7073 25.1748 27.6972 25.2785C27.6911 25.3781 27.6851 25.5067 27.681 25.6602C27.681 25.8158 27.681 26.0419 27.681 26.3406L27.7134 30.4229L27.6972 30.7133C27.6972 31.2236 27.7821 31.6343 27.9559 31.9496C28.1277 32.2607 28.4512 32.4142 28.9262 32.4142Z" fill="white"/>
<path d="M37.3659 32.5469C37.7419 32.5469 38.0229 32.439 38.2068 32.2233C38.3887 32.0076 38.51 31.6425 38.5706 31.1281C38.6353 30.6136 38.6677 29.9146 38.6677 29.0288C38.6677 27.834 38.6636 27.0271 38.6596 26.606L38.6677 25.0212C38.6677 24.735 38.5383 24.457 38.2796 24.1915C38.0208 23.926 37.7055 23.7932 37.3336 23.7932C36.6585 23.7932 36.2218 24.1417 36.0238 24.8387C35.9146 25.2369 35.8499 25.963 35.8297 27.0126C35.8297 27.2013 35.7772 27.3071 35.6761 27.3279C35.6276 27.3279 35.5669 27.2843 35.4982 27.1951L35.2152 26.7968C34.1095 25.1872 33.4142 24.2641 33.1292 24.0255C32.9129 23.872 32.6704 23.7932 32.4015 23.7932C32.2277 23.7932 32.0619 23.8388 31.9002 23.926C31.7426 24.0152 31.6132 24.1624 31.5121 24.3657C31.409 24.5711 31.3524 24.8511 31.3423 25.2038C31.3363 25.2038 31.3302 25.4651 31.3262 25.9837C31.3262 26.4981 31.3221 27.1038 31.3181 27.8008C31.312 28.4978 31.31 29.1242 31.31 29.676C31.31 30.456 31.314 30.8459 31.3262 30.8459C31.3262 31.0513 31.3545 31.2899 31.4151 31.5595C31.5647 32.2192 31.9811 32.5469 32.6603 32.5469C33.0847 32.5469 33.4041 32.41 33.6143 32.1403C33.8245 31.8707 33.9296 31.5595 33.9296 31.211C33.9296 30.9082 33.9478 30.4518 33.9862 29.842V29.7839C33.9862 29.7507 33.9964 29.7092 34.0186 29.6594C34.0449 29.6096 34.0752 29.5848 34.1075 29.5848C34.1338 29.5848 34.1641 29.5993 34.1965 29.6262C34.4552 29.9083 34.6937 30.2216 34.9161 30.5638L35.2314 30.9953C35.4416 31.3106 35.7347 31.6404 36.1127 31.9827C36.4887 32.3249 36.9071 32.5137 37.3659 32.5469Z" fill="white"/>
<path d="M42.3626 32.4142C42.7386 32.4142 43.0499 32.2897 43.2925 32.0408C43.5391 31.7878 43.6745 31.433 43.6967 30.9788L43.7048 29.2612L43.6967 27.7013C43.6967 27.1765 43.7068 26.8384 43.7291 26.689C43.7331 26.6019 43.7614 26.5397 43.8099 26.5065C43.8584 26.4733 43.8948 26.4567 43.9231 26.4567C44.1212 26.4567 44.3395 26.4463 44.578 26.4235C44.8206 26.4028 45.0308 26.3447 45.2087 26.2493C45.6231 26.0004 45.8312 25.5648 45.8312 24.9383C45.8312 24.5794 45.7362 24.3056 45.5483 24.1169C45.3643 23.9302 45.1561 23.8057 44.9257 23.7435C44.6993 23.6771 44.5154 23.6439 44.3759 23.6439H40.7779C40.41 23.6439 40.0583 23.7227 39.7187 23.8762C39.2053 24.1086 38.9506 24.5131 38.9506 25.0877C38.9506 25.3926 39.0476 25.6581 39.2417 25.8842C39.4357 26.1124 39.6318 26.2638 39.8319 26.3406C39.933 26.3862 40.0462 26.4152 40.1715 26.4318C40.2948 26.4484 40.4889 26.4567 40.7537 26.4567C40.8224 26.4567 40.8931 26.4692 40.9639 26.4899C41.0387 26.5127 41.0791 26.5646 41.0852 26.6476C41.1337 27.61 41.1579 28.9335 41.1579 30.6137V31.0783C41.1579 31.0908 41.17 31.1655 41.1983 31.3024C41.2246 31.4413 41.2792 31.5969 41.3601 31.767C41.445 31.933 41.5662 32.0823 41.7239 32.2151C41.8856 32.3478 42.0978 32.4142 42.3626 32.4142Z" fill="white"/>
<path d="M48.0803 32.547C48.3754 32.547 48.7271 32.5408 49.1314 32.5304C49.4224 32.518 49.7418 32.5097 50.0935 32.5055C50.4432 32.5055 50.7484 32.3977 51.0072 32.1819C51.2659 31.9662 51.3953 31.6633 51.3953 31.2692C51.3953 30.8834 51.2942 30.5598 51.0961 30.2984C50.9021 30.0329 50.6534 29.8815 50.3523 29.8421C49.7216 29.8421 49.2284 29.8379 48.8726 29.8255C48.8241 29.8213 48.7938 29.7985 48.7837 29.7591C48.7716 29.7155 48.7675 29.6575 48.7675 29.5849C48.7675 29.5143 48.7716 29.4645 48.7837 29.4355C48.7999 29.4085 48.8363 29.3919 48.8969 29.3857C48.9616 29.3753 49.0667 29.3671 49.2122 29.3608L49.6893 29.3359C49.7802 29.3359 49.9076 29.3359 50.0693 29.3359C50.231 29.3359 50.3947 29.311 50.5625 29.2613C50.9344 29.1513 51.1204 28.753 51.1204 28.0664C51.1204 27.7677 51.0638 27.5479 50.9506 27.4027C50.7666 27.1766 50.4654 27.0625 50.045 27.0625C49.5862 27.0625 49.285 27.0583 49.1395 27.0459C48.9939 27.0355 48.907 27.0127 48.8807 26.9795C48.8524 26.9463 48.8403 26.8944 48.8403 26.8218V26.7804L48.8322 26.6061C48.8322 26.5563 48.8605 26.5273 48.9211 26.5148C49.0606 26.5148 49.2648 26.5045 49.5356 26.4817C49.8853 26.4547 50.1946 26.4402 50.4654 26.4402C50.7767 26.4402 51.0092 26.3572 51.1608 26.1912C51.3912 25.9382 51.5085 25.6084 51.5085 25.2039C51.5085 24.8284 51.4296 24.5359 51.274 24.3243C50.9708 23.9427 50.4897 23.7518 49.8267 23.7518H47.3364C46.6734 23.7912 46.3055 24.0713 46.2368 24.5899C46.2247 24.7019 46.2206 25.0587 46.2206 25.6602C46.2206 25.988 46.2206 26.3219 46.2206 26.6642C46.2247 27.0023 46.2287 27.2906 46.2287 27.5271C46.2328 27.7594 46.2409 27.8756 46.253 27.8756L46.2368 30.0412C46.2368 30.7714 46.2732 31.3169 46.35 31.6758C46.4309 32.0305 46.6007 32.2628 46.8594 32.3728C47.1222 32.4889 47.5305 32.547 48.0803 32.547Z" fill="white"/>
<path d="M53.3973 32.3976C53.6277 32.3976 53.85 32.3333 54.0603 32.2068C54.2705 32.074 54.4362 31.8728 54.5615 31.6011C54.6747 31.2754 54.7313 30.9746 54.7313 30.6967V30.5722C54.7313 30.4685 54.7334 30.3793 54.7394 30.3067L54.7879 30.2818C54.8688 30.4208 55.0729 30.7029 55.4024 31.1281C55.7521 31.5886 56.0189 31.8977 56.2029 32.0574C56.4717 32.2628 56.7365 32.3644 56.9952 32.3644C57.3025 32.3644 57.5713 32.2545 57.8038 32.0325C58.0342 31.8126 58.1514 31.5513 58.1514 31.2526C58.1514 31.0763 58.0969 30.8916 57.9897 30.6967C57.638 30.1884 57.3752 29.8234 57.1974 29.6014C56.9973 29.3587 56.8982 29.1948 56.8982 29.1119C56.8982 29.0621 56.9589 28.9853 57.0842 28.8795C57.2135 28.7758 57.3914 28.5871 57.6178 28.3153C57.9897 27.8133 58.1757 27.2574 58.1757 26.6476C58.1757 26.017 57.9695 25.4237 57.5612 24.8636C57.1509 24.2994 56.5263 23.9302 55.6854 23.7518C55.2751 23.6854 54.8647 23.6522 54.4564 23.6522C54.2078 23.6522 53.9592 23.6605 53.7126 23.6771C53.4215 23.6896 53.1567 23.7559 52.9202 23.8762C52.6817 23.9986 52.4877 24.1708 52.3381 24.3907C52.1925 24.6126 52.1198 24.8947 52.1198 25.237L52.0955 28.7468C52.0955 28.9625 52.0975 29.1202 52.1036 29.2197C52.1076 29.3152 52.1117 29.3919 52.1117 29.4521C52.1117 29.5143 52.1117 29.591 52.1117 29.6844C52.1157 29.7798 52.1198 30.2133 52.1198 30.9871C52.1198 31.0368 52.1299 31.1032 52.1521 31.1862C52.1723 31.265 52.1885 31.3356 52.2006 31.4019C52.2855 31.74 52.4432 31.991 52.6696 32.157C52.896 32.3167 53.1385 32.3976 53.3973 32.3976ZM54.9901 27.6681C54.9193 27.6578 54.885 27.4835 54.885 27.1454C54.885 26.6372 54.9213 26.382 54.9982 26.382H55.0224C55.1194 26.382 55.2043 26.4609 55.2811 26.6144C55.3559 26.7637 55.3943 26.9006 55.3943 27.0209C55.3943 27.1869 55.3559 27.3342 55.2811 27.4607C55.2104 27.5893 55.1134 27.6578 54.9901 27.6681Z" fill="white"/>
<path d="M61.4691 32.3064C61.744 32.3064 61.9805 32.2276 62.1806 32.0658C62.3787 31.8999 62.5626 31.5659 62.7304 31.0618L63.6925 28.1827C64.307 26.3199 64.6567 25.2454 64.7436 24.9633C64.776 24.8471 64.7921 24.7372 64.7921 24.6314C64.7921 24.4115 64.7234 24.2124 64.59 24.034C64.4546 23.8577 64.2605 23.7311 64.0079 23.6523C63.8825 23.6191 63.7673 23.6025 63.6602 23.6025C63.357 23.6025 63.1023 23.7187 62.8921 23.951C62.6859 24.1834 62.504 24.4904 62.3423 24.872C62.1806 25.2537 62.0209 25.681 61.8653 26.1498L61.5903 26.9049C61.5681 26.9505 61.5418 26.9713 61.5095 26.9713C61.4772 26.9713 61.4489 26.9505 61.4286 26.9049C61.2831 26.5522 61.1497 26.2038 61.0325 25.8594C60.8869 25.4445 60.7373 25.0691 60.5878 24.731C60.4362 24.3949 60.2603 24.1232 60.0622 23.9178C59.8621 23.7146 59.6094 23.6108 59.3022 23.6108C59.0536 23.6108 58.8615 23.6731 58.7281 23.7934C58.5988 23.9095 58.5119 24.0568 58.4694 24.2331C58.4249 24.4115 58.4047 24.5878 58.4047 24.7642C58.4047 25.0587 58.431 25.2952 58.4856 25.4777L59.1809 27.9172C59.6054 29.4439 59.9046 30.4727 60.0784 31.0038C60.3735 31.8729 60.8384 32.3064 61.4691 32.3064Z" fill="white"/>
<path d="M66.3843 32.4142C66.6269 32.4142 66.8533 32.3665 67.0635 32.2732C67.2777 32.1736 67.4536 31.9973 67.589 31.7421C67.7224 31.4891 67.7912 31.1261 67.7912 30.6552C67.8174 29.9209 67.8316 29.1119 67.8316 28.2324C67.8316 26.6517 67.8154 25.5316 67.7831 24.8719C67.7548 24.5359 67.6173 24.2559 67.3707 24.0339C67.1282 23.8078 66.825 23.6937 66.4652 23.6937C66.1094 23.6937 65.8143 23.814 65.5839 24.0505C65.3575 24.2828 65.2281 24.5878 65.1958 24.9632C65.1796 25.069 65.1675 25.1748 65.1634 25.2785C65.1574 25.3781 65.1513 25.5067 65.1472 25.6602C65.1412 25.8158 65.1392 26.0419 65.1392 26.3406L65.1715 30.4229L65.1634 30.7133C65.1634 31.2236 65.2483 31.6343 65.4221 31.9496C65.594 32.2607 65.9154 32.4142 66.3843 32.4142Z" fill="white"/>
<path d="M70.6043 32.547C70.8994 32.547 71.2511 32.5408 71.6554 32.5304C71.9464 32.518 72.2658 32.5097 72.6175 32.5055C72.9672 32.5055 73.2724 32.3977 73.5312 32.1819C73.7899 31.9662 73.9193 31.6633 73.9193 31.2692C73.9193 30.8834 73.8182 30.5598 73.6201 30.2984C73.426 30.0329 73.1774 29.8815 72.8762 29.8421C72.2456 29.8421 71.7524 29.8379 71.3966 29.8255C71.3481 29.8213 71.3178 29.7985 71.3077 29.7591C71.2956 29.7155 71.2915 29.6575 71.2915 29.5849C71.2915 29.5143 71.2956 29.4645 71.3077 29.4355C71.3239 29.4085 71.3602 29.3919 71.4209 29.3857C71.4856 29.3753 71.5907 29.3671 71.7362 29.3608L72.2132 29.3359C72.3042 29.3359 72.4315 29.3359 72.5933 29.3359C72.755 29.3359 72.9187 29.311 73.0865 29.2613C73.4584 29.1513 73.6444 28.753 73.6444 28.0664C73.6444 27.7677 73.5878 27.5479 73.4746 27.4027C73.2906 27.1766 72.9894 27.0625 72.569 27.0625C72.1102 27.0625 71.809 27.0583 71.6634 27.0459C71.5179 27.0355 71.431 27.0127 71.4047 26.9795C71.3764 26.9463 71.3643 26.8944 71.3643 26.8218V26.7804L71.3562 26.6061C71.3562 26.5563 71.3845 26.5273 71.4451 26.5148C71.5846 26.5148 71.7888 26.5045 72.0596 26.4817C72.4093 26.4547 72.7186 26.4402 72.9894 26.4402C73.3007 26.4402 73.5332 26.3572 73.6848 26.1912C73.9152 25.9382 74.0324 25.6084 74.0324 25.2039C74.0324 24.8284 73.9536 24.5359 73.798 24.3243C73.4948 23.9427 73.0137 23.7518 72.3507 23.7518H69.8604C69.1974 23.7912 68.8295 24.0713 68.7608 24.5899C68.7487 24.7019 68.7446 25.0587 68.7446 25.6602C68.7446 25.988 68.7446 26.3219 68.7446 26.6642C68.7487 27.0023 68.7527 27.2906 68.7527 27.5271C68.7568 27.7594 68.7648 27.8756 68.777 27.8756L68.7608 30.0412C68.7608 30.7714 68.7972 31.3169 68.874 31.6758C68.9548 32.0305 69.1246 32.2628 69.3834 32.3728C69.6461 32.4889 70.0545 32.547 70.6043 32.547Z" fill="white"/>
<path d="M77.0184 32.4723C77.2549 32.4723 77.4833 32.3831 77.7057 32.2068C77.926 32.0243 78.0938 31.8085 78.207 31.5596L78.7568 30.3233C78.7831 30.286 78.8134 30.2652 78.8457 30.2652C78.8882 30.2652 78.9205 30.2943 78.9428 30.3482C78.969 30.398 78.9933 30.4561 79.0155 30.5225C79.1974 31.0825 79.343 31.4642 79.4521 31.6675C79.7109 32.1819 80.0464 32.4391 80.4628 32.4391C80.8024 32.4391 81.0894 32.2607 81.3279 31.8998C81.4411 31.7069 81.809 30.5453 82.4356 28.4149C83.0056 26.4298 83.321 25.3034 83.3816 25.0379L83.4059 24.8222C83.4059 24.5027 83.2805 24.2476 83.0339 24.0588C82.7914 23.8659 82.5367 23.7684 82.2739 23.7684C81.9707 23.7684 81.716 23.8908 81.5058 24.1335C81.2996 24.3783 81.1218 24.6936 80.9722 25.0794C80.8206 25.4611 80.6771 25.8635 80.5437 26.2825C80.4082 26.6974 80.2688 27.0853 80.1232 27.4441C80.1172 27.4607 80.107 27.469 80.0909 27.469C80.0686 27.469 80.0525 27.4587 80.0424 27.4358C79.9979 27.3321 79.9292 27.1786 79.8321 26.9795C79.5613 26.4609 79.2763 26.1995 78.9751 26.1995C78.7912 26.1995 78.6153 26.2804 78.4495 26.4402C78.2878 26.602 78.1463 26.7762 78.0291 26.9629C77.9099 27.1517 77.8229 27.301 77.7704 27.411L77.73 27.4358C77.7077 27.4358 77.6915 27.4234 77.6814 27.3944C77.6693 27.3674 77.546 26.9048 77.3095 26.0087C76.98 24.8471 76.5839 24.1501 76.121 23.9178C75.931 23.8141 75.7511 23.7601 75.5793 23.7601C74.7485 23.7601 74.3341 24.1065 74.3341 24.7973C74.3341 24.8865 74.3563 25.0213 74.3988 25.2039C74.4473 25.3864 74.5706 25.8511 74.7707 26.5978C75.0133 27.4836 75.4438 29.0912 76.0644 31.4186C76.1614 31.8065 76.2948 32.0803 76.4686 32.24C76.6405 32.3935 76.8244 32.4723 77.0184 32.4723Z" fill="white"/>
<path d="M29.3336 91.7436C29.7096 91.7436 29.9905 91.6357 30.1745 91.42C30.3564 91.2042 30.4777 90.8392 30.5383 90.3247C30.603 89.8103 30.6353 89.1112 30.6353 88.2255C30.6353 87.0307 30.6313 86.2238 30.6273 85.8027L30.6353 84.2179C30.6353 83.9316 30.506 83.6537 30.2472 83.3881C29.9885 83.1226 29.6732 82.9899 29.3013 82.9899C28.6322 82.9899 28.1976 83.3384 27.9995 84.0353C27.8863 84.4336 27.8176 85.1596 27.7974 86.2092C27.7974 86.398 27.7448 86.5038 27.6438 86.5245C27.5953 86.5245 27.5346 86.481 27.4659 86.3918L27.191 85.9935C26.0853 84.3838 25.388 83.4607 25.0969 83.2222C24.8806 83.0687 24.638 82.9899 24.3692 82.9899C24.1954 82.9899 24.0296 83.0355 23.8679 83.1226C23.7102 83.2118 23.5809 83.3591 23.4798 83.5624C23.3767 83.7677 23.3222 84.0478 23.3181 84.4004C23.306 84.4004 23.2979 84.6618 23.2939 85.1804C23.2939 85.6948 23.2898 86.3005 23.2858 86.9975C23.2858 87.6945 23.2858 88.3209 23.2858 88.8727C23.2858 89.6526 23.2878 90.0426 23.2939 90.0426C23.2939 90.248 23.3262 90.4865 23.3909 90.7562C23.5405 91.4158 23.9528 91.7436 24.6279 91.7436C25.0585 91.7436 25.3799 91.6067 25.5901 91.337C25.8003 91.0673 25.9054 90.7562 25.9054 90.4077C25.9054 90.1048 25.9216 89.6485 25.9539 89.0386V88.9805C25.9539 88.9474 25.964 88.9059 25.9863 88.8561C26.0125 88.8063 26.0449 88.7814 26.0833 88.7814C26.1096 88.7814 26.1358 88.7959 26.1641 88.8229C26.4269 89.105 26.6695 89.4182 26.8918 89.7605L27.1991 90.192C27.4133 90.5073 27.7084 90.8371 28.0804 91.1793C28.4563 91.5216 28.8748 91.7104 29.3336 91.7436Z" fill="white"/>
<path d="M33.4163 91.7437C33.7114 91.7437 34.0632 91.7374 34.4674 91.7271C34.7585 91.7146 35.0779 91.7063 35.4296 91.7022C35.7793 91.7022 36.0845 91.5943 36.3432 91.3786C36.602 91.1628 36.7313 90.86 36.7313 90.4659C36.7313 90.08 36.6303 89.7564 36.4322 89.4951C36.2381 89.2296 35.9895 89.0781 35.6883 89.0387C35.0577 89.0387 34.5644 89.0346 34.2087 89.0221C34.1602 89.018 34.1299 88.9952 34.1198 88.9558C34.1076 88.9122 34.1036 88.8541 34.1036 88.7815C34.1036 88.711 34.1076 88.6612 34.1198 88.6322C34.1359 88.6052 34.1723 88.5886 34.233 88.5824C34.2976 88.572 34.4027 88.5637 34.5483 88.5575L35.0253 88.5326C35.1163 88.5326 35.2436 88.5326 35.4053 88.5326C35.567 88.5326 35.7308 88.5077 35.8985 88.4579C36.2705 88.348 36.4564 87.9497 36.4564 87.2631C36.4564 86.9644 36.3998 86.7445 36.2866 86.5993C36.1027 86.3732 35.8015 86.2591 35.3811 86.2591C34.9222 86.2591 34.621 86.255 34.4755 86.2425C34.33 86.2322 34.2431 86.2093 34.2168 86.1761C34.1885 86.143 34.1764 86.0911 34.1764 86.0185V85.977L34.1683 85.8028C34.1683 85.753 34.1966 85.7239 34.2572 85.7115C34.3967 85.7115 34.6008 85.7011 34.8717 85.6783C35.2214 85.6513 35.5306 85.6368 35.8015 85.6368C36.1128 85.6368 36.3452 85.5538 36.4968 85.3879C36.7273 85.1348 36.8445 84.805 36.8445 84.4005C36.8445 84.0251 36.7657 83.7326 36.61 83.521C36.3068 83.1393 35.8258 82.9485 35.1628 82.9485H32.6725C32.0095 82.9879 31.6416 83.2679 31.5729 83.7865C31.5607 83.8985 31.5567 84.2553 31.5567 84.8569C31.5567 85.1846 31.5567 85.5186 31.5567 85.8608C31.5607 86.199 31.5648 86.4873 31.5648 86.7238C31.5688 86.9561 31.5769 87.0723 31.589 87.0723L31.5729 89.2379C31.5729 89.968 31.6093 90.5136 31.6861 90.8724C31.7669 91.2271 31.9367 91.4595 32.1954 91.5694C32.4582 91.6856 32.8665 91.7437 33.4163 91.7437Z" fill="white"/>
<path d="M40.5658 91.6109C40.9418 91.6109 41.2531 91.4864 41.4956 91.2375C41.7422 90.9844 41.8777 90.6297 41.8999 90.1754L41.908 88.4579L41.8999 86.898C41.8999 86.3732 41.91 86.0351 41.9322 85.8857C41.9363 85.7986 41.9646 85.7363 42.0131 85.7032C42.0616 85.67 42.098 85.6534 42.1263 85.6534C42.3244 85.6534 42.5427 85.643 42.7812 85.6202C43.0238 85.5994 43.234 85.5414 43.4119 85.4459C43.8262 85.197 44.0344 84.7614 44.0344 84.135C44.0344 83.7761 43.9394 83.5023 43.7514 83.3135C43.5675 83.1268 43.3593 83.0024 43.1289 82.9401C42.9025 82.8738 42.7185 82.8406 42.5791 82.8406H38.9811C38.6132 82.8406 38.2615 82.9194 37.9219 83.0729C37.4085 83.3052 37.1538 83.7097 37.1538 84.2843C37.1538 84.5892 37.2508 84.8548 37.4449 85.0809C37.6389 85.309 37.835 85.4605 38.0351 85.5372C38.1362 85.5828 38.2494 85.6119 38.3747 85.6285C38.498 85.6451 38.692 85.6534 38.9568 85.6534C39.0256 85.6534 39.0963 85.6658 39.1671 85.6866C39.2418 85.7094 39.2823 85.7612 39.2883 85.8442C39.3369 86.8067 39.3611 88.1301 39.3611 89.8103V90.275C39.3611 90.2874 39.3732 90.3621 39.4015 90.499C39.4278 90.638 39.4824 90.7936 39.5632 90.9637C39.6481 91.1296 39.7694 91.279 39.9271 91.4117C40.0888 91.5445 40.301 91.6109 40.5658 91.6109Z" fill="white"/>
<path d="M47.0244 91.6691C47.2609 91.6691 47.4893 91.5799 47.7116 91.4036C47.9319 91.2211 48.0997 91.0053 48.2129 90.7564L48.7627 89.5201C48.789 89.4828 48.8193 89.462 48.8516 89.462C48.8941 89.462 48.9264 89.4911 48.9487 89.545C48.975 89.5948 48.9992 89.6529 49.0214 89.7192C49.2034 90.2793 49.3489 90.661 49.4581 90.8643C49.7168 91.3787 50.0523 91.6359 50.4687 91.6359C50.8083 91.6359 51.0953 91.4575 51.3339 91.0966C51.447 90.9037 51.8149 89.7421 52.4415 87.6117C53.0116 85.6266 53.3269 84.5002 53.3875 84.2347L53.4118 84.019C53.4118 83.6995 53.2865 83.4444 53.0399 83.2556C52.7973 83.0627 52.5426 82.9652 52.2798 82.9652C51.9766 82.9652 51.7219 83.0876 51.5117 83.3303C51.3056 83.5751 51.1277 83.8904 50.9781 84.2762C50.8265 84.6579 50.683 85.0603 50.5496 85.4793C50.4141 85.8942 50.2747 86.2821 50.1291 86.6409C50.1231 86.6575 50.113 86.6658 50.0968 86.6658C50.0746 86.6658 50.0584 86.6554 50.0483 86.6326C50.0038 86.5289 49.9351 86.3754 49.8381 86.1763C49.5672 85.6577 49.2822 85.3963 48.981 85.3963C48.7971 85.3963 48.6212 85.4772 48.4555 85.6369C48.2938 85.7987 48.1523 85.973 48.035 86.1597C47.9158 86.3484 47.8289 86.4978 47.7763 86.6077L47.7359 86.6326C47.7136 86.6326 47.6975 86.6202 47.6874 86.5911C47.6752 86.5642 47.5519 86.1016 47.3154 85.2055C46.986 84.0439 46.5898 83.3469 46.1269 83.1146C45.9369 83.0108 45.757 82.9569 45.5852 82.9569C44.7544 82.9569 44.34 83.3033 44.34 83.9941C44.34 84.0833 44.3623 84.2181 44.4047 84.4006C44.4532 84.5832 44.5765 85.0478 44.7766 85.7946C45.0192 86.6803 45.4497 88.2879 46.0703 90.6154C46.1673 91.0033 46.3007 91.2771 46.4746 91.4368C46.6464 91.5903 46.8303 91.6691 47.0244 91.6691Z" fill="white"/>
<path d="M56.3999 91.7354C55.834 91.7354 55.3165 91.5383 54.8476 91.1463C54.3826 90.7542 54.0107 90.2253 53.7318 89.5615C53.4508 88.8977 53.3113 88.1634 53.3113 87.3544C53.3113 86.5537 53.4508 85.8194 53.7318 85.1556C54.0107 84.4918 54.3826 83.9649 54.8476 83.5708C55.3165 83.1725 55.834 82.9734 56.3999 82.9734C56.9659 82.9734 57.4793 83.1725 57.9442 83.5708C58.4132 83.9649 58.7851 84.4918 59.06 85.1556C59.3349 85.8194 59.4724 86.5537 59.4724 87.3544C59.4724 88.1634 59.3349 88.8977 59.06 89.5615C58.7851 90.2253 58.4132 90.7542 57.9442 91.1463C57.4793 91.5383 56.9659 91.7354 56.3999 91.7354ZM56.4242 88.2671C56.5253 88.2671 56.6102 88.1841 56.6748 88.0182C56.7436 87.8522 56.78 87.651 56.78 87.4125C56.78 87.176 56.7436 86.9727 56.6748 86.8068C56.6102 86.6367 56.5253 86.5495 56.4242 86.5495C56.3272 86.5495 56.2403 86.6367 56.1655 86.8068C56.0947 86.9727 56.0604 87.176 56.0604 87.4125C56.0604 87.651 56.0947 87.8522 56.1655 88.0182C56.2403 88.1841 56.3272 88.2671 56.4242 88.2671Z" fill="white"/>
<path d="M61.3821 91.5943C61.6125 91.5943 61.8348 91.53 62.0451 91.4034C62.2553 91.2707 62.421 91.0695 62.5464 90.7977C62.6595 90.4721 62.7161 90.1713 62.7161 89.8933V89.7689C62.7161 89.6651 62.7182 89.5759 62.7242 89.5033L62.7727 89.4784C62.8536 89.6174 63.0577 89.8995 63.3872 90.3248C63.7369 90.7853 64.0037 91.0944 64.1877 91.2541C64.4565 91.4594 64.7213 91.5611 64.98 91.5611C65.2873 91.5611 65.5561 91.4511 65.7886 91.2292C66.019 91.0093 66.1362 90.7479 66.1362 90.4492C66.1362 90.2729 66.0817 90.0883 65.9745 89.8933C65.6228 89.3851 65.36 89.02 65.1822 88.7981C64.9821 88.5554 64.883 88.3915 64.883 88.3085C64.883 88.2587 64.9437 88.182 65.069 88.0762C65.1983 87.9725 65.3762 87.7837 65.6026 87.512C65.9745 87.01 66.1605 86.4541 66.1605 85.8442C66.1605 85.2136 65.9543 84.6204 65.546 84.0603C65.1357 83.4961 64.5111 83.1268 63.6702 82.9484C63.2599 82.8821 62.8496 82.8489 62.4412 82.8489C62.1926 82.8489 61.944 82.8572 61.6974 82.8738C61.4063 82.8862 61.1415 82.9526 60.905 83.0729C60.6665 83.1953 60.4725 83.3675 60.3229 83.5873C60.1773 83.8093 60.1046 84.0914 60.1046 84.4337L60.0803 87.9434C60.0803 88.1592 60.0823 88.3168 60.0884 88.4164C60.0925 88.5118 60.0965 88.5886 60.0965 88.6487C60.0965 88.7109 60.0965 88.7877 60.0965 88.881C60.1005 88.9765 60.1046 89.41 60.1046 90.1837C60.1046 90.2335 60.1147 90.2999 60.1369 90.3829C60.1571 90.4617 60.1733 90.5322 60.1854 90.5986C60.2703 90.9367 60.428 91.1877 60.6544 91.3536C60.8808 91.5134 61.1233 91.5943 61.3821 91.5943ZM62.9749 86.8648C62.9041 86.8544 62.8698 86.6802 62.8698 86.3421C62.8698 85.8338 62.9061 85.5787 62.983 85.5787H63.0072C63.1042 85.5787 63.1891 85.6575 63.2659 85.811C63.3407 85.9604 63.3791 86.0973 63.3791 86.2176C63.3791 86.3835 63.3407 86.5308 63.2659 86.6574C63.1952 86.786 63.0982 86.8544 62.9749 86.8648Z" fill="white"/>
<path d="M71.9363 91.5778C72.2213 91.5778 72.472 91.4845 72.6883 91.2957C72.9086 91.1028 73.0198 90.8456 73.0198 90.524C73.0198 90.1424 72.85 89.7441 72.5104 89.3292C72.09 88.9206 71.7443 88.5783 71.4755 88.3004L71.0874 87.9187C70.8772 87.7154 70.772 87.5847 70.772 87.5287C70.7761 87.4851 70.7923 87.4457 70.8206 87.4125L71.8555 86.2924C72.47 85.6908 72.8742 85.1702 73.0683 84.7325C73.137 84.5396 73.1734 84.3508 73.1734 84.1683C73.1734 83.8032 73.0602 83.4941 72.8338 83.239C72.6115 82.9859 72.3588 82.8573 72.0738 82.8573C71.8676 82.8573 71.6695 82.9382 71.4755 83.0979C71.2855 83.2597 71.0025 83.5294 70.6265 83.9111L69.3086 85.2718C69.3086 85.1391 69.3046 85.0105 69.3005 84.8818V84.691C69.3005 84.4919 69.2924 84.2678 69.2763 84.0189C69.2763 83.7368 69.1489 83.4796 68.8962 83.2473C68.6476 83.0108 68.3586 82.8863 68.0311 82.8739C67.7825 82.8739 67.5541 82.9714 67.3439 83.1643C67.1336 83.3531 66.9901 83.5792 66.9153 83.8447C66.8123 84.3093 66.7617 85.3278 66.7617 86.8981C66.7617 87.5743 66.7637 88.2008 66.7698 88.7816L66.7779 89.9266C66.8466 91.0177 67.2468 91.5612 67.9745 91.5612L68.1362 91.5778C68.4051 91.5778 68.6456 91.4782 68.8558 91.2791C69.066 91.0758 69.1712 90.7896 69.1712 90.4245C69.1712 90.3415 69.1671 90.2585 69.1631 90.1755C69.157 90.0884 69.155 89.9992 69.155 89.91L69.1631 89.7026L69.1873 89.6943L71.1278 91.2791C71.3966 91.4782 71.6655 91.5778 71.9363 91.5778Z" fill="white"/>
<path d="M74.8557 91.6109C75.0983 91.6109 75.3247 91.5632 75.5349 91.4698C75.7492 91.3703 75.925 91.1939 76.0605 90.9388C76.1939 90.6857 76.2626 90.3227 76.2626 89.8518C76.2889 89.1175 76.303 88.3085 76.303 87.429C76.303 85.8484 76.2868 84.7282 76.2545 84.0686C76.2262 83.7326 76.0888 83.4525 75.8422 83.2306C75.5996 83.0045 75.2964 82.8904 74.9366 82.8904C74.5808 82.8904 74.2857 83.0107 74.0553 83.2472C73.8289 83.4795 73.6995 83.7844 73.6672 84.1599C73.651 84.2657 73.6389 84.3715 73.6349 84.4752C73.6288 84.5747 73.6227 84.7033 73.6187 84.8568C73.6126 85.0124 73.6106 85.2385 73.6106 85.5372L73.6429 89.6195L73.6349 89.9099C73.6349 90.4202 73.7197 90.8309 73.8936 91.1462C74.0654 91.4574 74.3868 91.6109 74.8557 91.6109Z" fill="white"/>
<path d="M83.2883 91.7436C83.6643 91.7436 83.9452 91.6357 84.1292 91.42C84.3111 91.2042 84.4324 90.8392 84.493 90.3247C84.5577 89.8103 84.59 89.1112 84.59 88.2255C84.59 87.0307 84.586 86.2238 84.5819 85.8027L84.59 84.2179C84.59 83.9316 84.4607 83.6537 84.2019 83.3881C83.9432 83.1226 83.6279 82.9899 83.2559 82.9899C82.5808 82.9899 82.1442 83.3384 81.9461 84.0353C81.837 84.4336 81.7723 85.1596 81.7521 86.2092C81.7521 86.398 81.6995 86.5038 81.5984 86.5245C81.5499 86.5245 81.4893 86.481 81.4206 86.3918L81.1376 85.9935C80.0319 84.3838 79.3366 83.4607 79.0516 83.2222C78.8353 83.0687 78.5927 82.9899 78.3239 82.9899C78.15 82.9899 77.9843 83.0355 77.8226 83.1226C77.6649 83.2118 77.5356 83.3591 77.4345 83.5624C77.3314 83.7677 77.2748 84.0478 77.2647 84.4004C77.2586 84.4004 77.2526 84.6618 77.2485 85.1804C77.2485 85.6948 77.2445 86.3005 77.2404 86.9975C77.2344 87.6945 77.2324 88.3209 77.2324 88.8727C77.2324 89.6526 77.2364 90.0426 77.2485 90.0426C77.2485 90.248 77.2768 90.4865 77.3375 90.7562C77.487 91.4158 77.9034 91.7436 78.5826 91.7436C79.0071 91.7436 79.3265 91.6067 79.5367 91.337C79.7469 91.0673 79.852 90.7562 79.852 90.4077C79.852 90.1048 79.8702 89.6485 79.9086 89.0386V88.9805C79.9086 88.9474 79.9187 88.9059 79.941 88.8561C79.9672 88.8063 79.9975 88.7814 80.0299 88.7814C80.0562 88.7814 80.0865 88.7959 80.1188 88.8229C80.3776 89.105 80.6161 89.4182 80.8384 89.7605L81.1538 90.192C81.364 90.5073 81.6571 90.8371 82.0351 91.1793C82.411 91.5216 82.8294 91.7104 83.2883 91.7436Z" fill="white"/>
<path d="M88.2947 91.5861C88.79 91.5861 89.269 91.4617 89.7339 91.2127C90.2029 90.9597 90.5849 90.5863 90.882 90.0926C91.1832 89.601 91.3348 88.9891 91.3348 88.2589C91.3348 88.039 91.2964 87.8337 91.2216 87.6449C91.0923 87.3586 90.9164 87.1802 90.6961 87.1139C90.4737 87.0475 90.2554 87.0143 90.0412 87.0143H89.8148L89.4348 87.0475C89.1538 87.0765 88.9375 87.1097 88.7879 87.147C88.6101 87.2031 88.4585 87.3171 88.3352 87.4872C88.2159 87.6532 88.1573 87.8399 88.1573 88.0432C88.1573 88.2817 88.2583 88.4995 88.4645 88.6987C88.5009 88.7277 88.5373 88.7733 88.5696 88.8397C88.606 88.9019 88.6262 88.9621 88.6262 89.0222C88.6262 89.0783 88.6101 89.1197 88.5777 89.1467C88.5494 89.1695 88.507 89.1882 88.4484 89.2048C88.323 89.2048 88.1856 89.0928 88.036 88.8646C87.8905 88.6115 87.8177 88.2713 87.8177 87.844C87.8177 87.5453 87.85 87.2383 87.9147 86.923C87.9794 86.6077 88.0886 86.3422 88.2462 86.1265C88.4079 85.9066 88.6262 85.7946 88.9011 85.7946C89.1114 85.7946 89.3539 85.89 89.6288 86.0767C89.7299 86.1431 89.8431 86.1763 89.9684 86.1763C90.1786 86.1763 90.3686 86.0995 90.5425 85.9439C90.7688 85.7407 90.882 85.4523 90.882 85.081C90.882 84.5002 90.6233 83.9982 90.1059 83.5709C89.5924 83.1457 89.0062 82.932 88.3432 82.932C87.9006 82.932 87.4619 83.0565 87.0253 83.3054C86.5928 83.5502 86.2168 83.9505 85.8934 84.5085C85.386 85.4108 85.1334 86.3712 85.1334 87.3877C85.1334 88.1012 85.2486 88.765 85.481 89.379C85.7175 89.9889 86.0329 90.4826 86.427 90.8643C86.6857 91.1028 86.9728 91.2833 87.2921 91.4036C87.6156 91.5239 87.9491 91.5861 88.2947 91.5861Z" fill="white"/>
<mask id="mask122_419_113324" style="mask-type:luminance" maskUnits="userSpaceOnUse" x="23" y="99" width="24" height="22">
<path d="M23.0087 99.2195H46.8807V120.695H23.0087V99.2195Z" fill="white"/>
</mask>
<g mask="url(#mask122_419_113324)">
<mask id="mask123_419_113324" style="mask-type:luminance" maskUnits="userSpaceOnUse" x="23" y="99" width="24" height="22">
<path d="M33.4732 99.2195H36.3435C39.1188 99.2195 41.7809 100.35 43.7416 102.364C45.7043 104.378 46.8079 107.11 46.8079 109.958C46.8079 112.806 45.7043 115.536 43.7416 117.55C41.7809 119.565 39.1188 120.695 36.3435 120.695H33.4732C30.6979 120.695 28.0358 119.565 26.0731 117.55C24.1104 115.536 23.0087 112.806 23.0087 109.958C23.0087 107.11 24.1104 104.378 26.0731 102.364C28.0358 100.35 30.6979 99.2195 33.4732 99.2195Z" fill="white"/>
</mask>
<g mask="url(#mask123_419_113324)">
<mask id="mask124_419_113324" style="mask-type:luminance" maskUnits="userSpaceOnUse" x="22" y="98" width="26" height="24">
<path d="M47.0586 98.7715H22.7379V121.075H47.0586V98.7715Z" fill="white"/>
</mask>
<g mask="url(#mask124_419_113324)">
<mask id="mask125_419_113324" style="mask-type:luminance" maskUnits="userSpaceOnUse" x="23" y="99" width="24" height="22">
<path d="M23.0088 99.2195H46.8525V120.695H23.0088V99.2195Z" fill="white"/>
</mask>
<g mask="url(#mask125_419_113324)">
<mask id="mask126_419_113324" style="mask-type:luminance" maskUnits="userSpaceOnUse" x="23" y="99" width="24" height="22">
<path d="M33.4732 99.2195H36.3435C39.1188 99.2195 41.7809 100.35 43.7416 102.364C45.7043 104.378 46.808 107.11 46.808 109.958C46.808 112.806 45.7043 115.536 43.7416 117.55C41.7809 119.565 39.1188 120.695 36.3435 120.695H33.4732C30.698 120.695 28.0359 119.565 26.0731 117.55C24.1104 115.536 23.0088 112.806 23.0088 109.958C23.0088 107.11 24.1104 104.378 26.0731 102.364C28.0359 100.35 30.698 99.2195 33.4732 99.2195Z" fill="white"/>
</mask>
<g mask="url(#mask126_419_113324)">
<path d="M23.0088 99.2195H46.7999V120.695H23.0088V99.2195Z" fill="#B0BEC5"/>
</g>
</g>
</g>
</g>
</g>
<mask id="mask127_419_113324" style="mask-type:luminance" maskUnits="userSpaceOnUse" x="23" y="99" width="21" height="22">
<path d="M23.0087 99.2195H43.1574V120.946H23.0087V99.2195Z" fill="white"/>
</mask>
<g mask="url(#mask127_419_113324)">
<mask id="mask128_419_113324" style="mask-type:luminance" maskUnits="userSpaceOnUse" x="23" y="99" width="21" height="22">
<path d="M33.0831 99.2195C35.7553 99.2195 38.3163 100.309 40.2063 102.246C42.0962 104.185 43.1574 106.816 43.1574 109.556V110.558C43.1574 113.3 42.0962 115.93 40.2063 117.868C38.3163 119.807 35.7553 120.896 33.0831 120.896C30.4109 120.896 27.8478 119.807 25.9599 117.868C24.0699 115.93 23.0087 113.3 23.0087 110.558V109.556C23.0087 106.816 24.0699 104.185 25.9599 102.246C27.8478 100.309 30.4109 99.2195 33.0831 99.2195Z" fill="white"/>
</mask>
<g mask="url(#mask128_419_113324)">
<mask id="mask129_419_113324" style="mask-type:luminance" maskUnits="userSpaceOnUse" x="22" y="98" width="22" height="24">
<path d="M43.4364 98.7715H22.7379V121.075H43.4364V98.7715Z" fill="white"/>
</mask>
<g mask="url(#mask129_419_113324)">
<mask id="mask130_419_113324" style="mask-type:luminance" maskUnits="userSpaceOnUse" x="23" y="99" width="21" height="22">
<path d="M23.0088 99.2195H43.1575V120.905H23.0088V99.2195Z" fill="white"/>
</mask>
<g mask="url(#mask130_419_113324)">
<mask id="mask131_419_113324" style="mask-type:luminance" maskUnits="userSpaceOnUse" x="23" y="99" width="21" height="22">
<path d="M33.0831 99.2195C35.7553 99.2195 38.3164 100.309 40.2063 102.246C42.0963 104.185 43.1575 106.816 43.1575 109.556V110.558C43.1575 113.3 42.0963 115.93 40.2063 117.868C38.3164 119.807 35.7553 120.896 33.0831 120.896C30.4109 120.896 27.8479 119.807 25.9599 117.868C24.07 115.93 23.0088 113.3 23.0088 110.558V109.556C23.0088 106.816 24.07 104.185 25.9599 102.246C27.8479 100.309 30.4109 99.2195 33.0831 99.2195Z" fill="white"/>
</mask>
<g mask="url(#mask131_419_113324)">
<path d="M23.0088 99.2195H43.1575V120.865H23.0088V99.2195Z" fill="#EAEEF0"/>
</g>
</g>
</g>
</g>
</g>
<path d="M32.3088 115.264C32.7494 115.264 33.2345 115.256 33.7641 115.239L34.9608 115.214C35.6601 115.191 36.21 115.032 36.6102 114.733C37.0084 114.434 37.2085 114.053 37.2085 113.588C37.2085 113.096 37.1196 112.74 36.9417 112.518C36.7638 112.292 36.5475 112.148 36.2948 112.086C36.0402 112.02 35.7875 111.987 35.5348 111.987H35.0335C34.7202 111.987 34.5646 111.926 34.5646 111.804C34.5646 111.711 34.6232 111.605 34.7425 111.489C34.8597 111.373 34.9729 111.271 35.082 111.182C35.1952 111.095 35.268 111.03 35.3004 110.991C35.9633 110.472 36.4566 109.916 36.78 109.323C37.1034 108.732 37.2651 108.132 37.2651 107.523C37.2651 106.473 36.7961 105.49 35.8582 104.577C35.2862 104.058 34.6091 103.797 33.8288 103.797C33.1699 103.797 32.5271 103.961 31.8964 104.287C31.2698 104.614 30.7483 105.017 30.3279 105.498C29.9115 105.975 29.677 106.458 29.6244 106.95L29.6083 107.149C29.6083 107.604 29.774 108.037 30.1096 108.452C30.4491 108.867 30.8575 109.074 31.3385 109.074C31.8237 109.074 32.2926 108.838 32.7454 108.361L33.0445 108.087C33.4326 107.751 33.6792 107.581 33.7884 107.581C33.8086 107.581 33.8228 107.595 33.8288 107.622V107.639C33.9198 107.711 33.9663 107.805 33.9663 107.921C33.9663 108.226 33.7237 108.624 33.2386 109.116C32.7535 109.603 32.2299 110.091 31.67 110.576C31.2435 110.947 30.8858 111.281 30.5947 111.58C29.8225 112.101 29.4385 112.789 29.4385 113.646C29.4385 113.758 29.4466 113.868 29.4627 113.978C29.5274 114.509 29.8023 114.855 30.2874 115.015C30.7726 115.181 31.4457 115.264 32.3088 115.264Z" fill="#526E7A"/>
<mask id="mask132_419_113324" style="mask-type:luminance" maskUnits="userSpaceOnUse" x="22" y="40" width="25" height="22">
<path d="M22.6915 40.1798H46.5413V61.6575H22.6915V40.1798Z" fill="white"/>
</mask>
<g mask="url(#mask132_419_113324)">
<mask id="mask133_419_113324" style="mask-type:luminance" maskUnits="userSpaceOnUse" x="22" y="40" width="25" height="22">
<path d="M33.156 40.1798H36.0263C38.8016 40.1798 41.4637 41.3124 43.4264 43.3245C45.3891 45.3387 46.4907 48.0706 46.4907 50.9186C46.4907 53.7667 45.3891 56.4986 43.4264 58.5128C41.4637 60.5269 38.8016 61.6575 36.0263 61.6575H33.156C30.3807 61.6575 27.7186 60.5269 25.7579 58.5128C23.7952 56.4986 22.6915 53.7667 22.6915 50.9186C22.6915 48.0706 23.7952 45.3387 25.7579 43.3245C27.7186 41.3124 30.3807 40.1798 33.156 40.1798Z" fill="white"/>
</mask>
<g mask="url(#mask133_419_113324)">
<mask id="mask134_419_113324" style="mask-type:luminance" maskUnits="userSpaceOnUse" x="22" y="39" width="25" height="24">
<path d="M46.5412 39.8271H22.2205V62.1304H46.5412V39.8271Z" fill="white"/>
</mask>
<g mask="url(#mask134_419_113324)">
<mask id="mask135_419_113324" style="mask-type:luminance" maskUnits="userSpaceOnUse" x="22" y="40" width="25" height="22">
<path d="M22.6915 40.1798H46.5413V61.6575H22.6915V40.1798Z" fill="white"/>
</mask>
<g mask="url(#mask135_419_113324)">
<mask id="mask136_419_113324" style="mask-type:luminance" maskUnits="userSpaceOnUse" x="22" y="40" width="25" height="22">
<path d="M33.156 40.1798H36.0263C38.8016 40.1798 41.4637 41.3124 43.4264 43.3245C45.3891 45.3387 46.4907 48.0706 46.4907 50.9186C46.4907 53.7667 45.3891 56.4986 43.4264 58.5128C41.4637 60.5269 38.8016 61.6575 36.0263 61.6575H33.156C30.3807 61.6575 27.7186 60.5269 25.7579 58.5128C23.7952 56.4986 22.6915 53.7667 22.6915 50.9186C22.6915 48.0706 23.7952 45.3387 25.7579 43.3245C27.7186 41.3124 30.3807 40.1798 33.156 40.1798Z" fill="white"/>
</mask>
<g mask="url(#mask136_419_113324)">
<path d="M22.6915 40.1798H46.4827V61.6575H22.6915V40.1798Z" fill="#B0BEC5"/>
</g>
</g>
</g>
</g>
</g>
<mask id="mask137_419_113324" style="mask-type:luminance" maskUnits="userSpaceOnUse" x="22" y="40" width="21" height="22">
<path d="M22.5623 40.1798H42.7109V61.9064H22.5623V40.1798Z" fill="white"/>
</mask>
<g mask="url(#mask137_419_113324)">
<mask id="mask138_419_113324" style="mask-type:luminance" maskUnits="userSpaceOnUse" x="22" y="40" width="21" height="22">
<path d="M32.6366 40.1798C35.3088 40.1798 37.8719 41.2688 39.7598 43.2083C41.6497 45.1478 42.7109 47.776 42.7109 50.5183V51.5202C42.7109 54.2625 41.6497 56.8906 39.7598 58.8301C37.8719 60.7696 35.3088 61.8587 32.6366 61.8587C29.9644 61.8587 27.4034 60.7696 25.5134 58.8301C23.6235 56.8906 22.5623 54.2625 22.5623 51.5202V50.5183C22.5623 47.776 23.6235 45.1478 25.5134 43.2083C27.4034 41.2688 29.9644 40.1798 32.6366 40.1798Z" fill="white"/>
</mask>
<g mask="url(#mask138_419_113324)">
<mask id="mask139_419_113324" style="mask-type:luminance" maskUnits="userSpaceOnUse" x="22" y="39" width="21" height="24">
<path d="M42.9191 39.8271H22.2206V62.1304H42.9191V39.8271Z" fill="white"/>
</mask>
<g mask="url(#mask139_419_113324)">
<mask id="mask140_419_113324" style="mask-type:luminance" maskUnits="userSpaceOnUse" x="22" y="40" width="21" height="22">
<path d="M22.5623 40.1798H42.7109V61.896H22.5623V40.1798Z" fill="white"/>
</mask>
<g mask="url(#mask140_419_113324)">
<mask id="mask141_419_113324" style="mask-type:luminance" maskUnits="userSpaceOnUse" x="22" y="40" width="21" height="22">
<path d="M32.6366 40.1798C35.3088 40.1798 37.8719 41.2688 39.7598 43.2083C41.6497 45.1478 42.7109 47.776 42.7109 50.5183V51.5202C42.7109 54.2625 41.6497 56.8906 39.7598 58.8301C37.8719 60.7696 35.3088 61.8587 32.6366 61.8587C29.9644 61.8587 27.4034 60.7696 25.5134 58.8301C23.6235 56.8906 22.5623 54.2625 22.5623 51.5202V50.5183C22.5623 47.776 23.6235 45.1478 25.5134 43.2083C27.4034 41.2688 29.9644 40.1798 32.6366 40.1798Z" fill="white"/>
</mask>
<g mask="url(#mask141_419_113324)">
<path d="M22.5623 40.1798H42.7109V61.8255H22.5623V40.1798Z" fill="#EAEEF0"/>
</g>
</g>
</g>
</g>
</g>
<path d="M33.5655 56.8488C34.2063 56.8488 34.7864 56.7347 35.3039 56.5086C35.8214 56.2887 36.2337 55.961 36.541 55.5295C36.8522 55.098 37.0099 54.5753 37.0099 53.9613C37.0099 53.7746 36.9958 53.5775 36.9695 53.3722C36.7956 52.5321 36.3813 51.8247 35.7243 51.2481C35.692 51.2211 35.6758 51.1941 35.6758 51.1651C35.6758 51.1381 35.7041 51.0863 35.7648 51.0074C36.4924 50.1611 36.8563 49.2546 36.8563 48.2859C36.8563 47.7176 36.6885 47.1886 36.355 46.7011C36.0255 46.2095 35.4939 45.8382 34.7622 45.5893C34.4064 45.4793 34.0527 45.4233 33.703 45.4233C33.0178 45.4233 32.3649 45.5976 31.7463 45.9461C31.1319 46.2946 30.6306 46.7488 30.2425 47.3068C29.9938 47.701 29.8705 48.0536 29.8705 48.3689C29.8705 48.9663 30.1657 49.3625 30.7599 49.5554C31.0672 49.6508 31.3138 49.6965 31.5038 49.6965C31.6756 49.6965 31.8312 49.6591 31.9727 49.5803C32.1183 49.4973 32.2982 49.3791 32.5145 49.2235C32.5791 49.1737 32.6398 49.1322 32.7004 49.0991C32.759 49.0617 32.8156 49.041 32.8702 49.041C32.9349 49.041 32.9935 49.0659 33.0481 49.1157C33.1006 49.1613 33.131 49.2235 33.137 49.3065C33.137 49.3791 33.0804 49.4558 32.9672 49.5388C32.854 49.6176 32.6559 49.738 32.377 49.9039C32.2416 49.9869 32.0859 50.0698 31.9081 50.1528C31.7302 50.2316 31.5806 50.3105 31.4634 50.3934C31.1824 50.6486 31.0429 50.9618 31.0429 51.331C31.0429 51.6588 31.1339 51.9762 31.3178 52.2852C31.5058 52.5902 31.7585 52.7893 32.0778 52.8826C32.2113 52.9221 32.3447 52.9469 32.474 52.9573C32.6074 52.9635 32.7186 52.9781 32.8055 52.9988C32.8904 53.0154 32.9369 53.0465 32.943 53.0901C32.947 53.1295 32.9511 53.1627 32.9511 53.1896C32.9511 53.2187 32.943 53.2519 32.9268 53.2892C32.8945 53.3618 32.7894 53.3971 32.6115 53.3971L32.4336 53.3805C31.9687 53.2436 31.5462 53.173 31.1642 53.173C30.5497 53.173 30.1576 53.4531 29.9918 54.0111C29.9595 54.1231 29.9433 54.2579 29.9433 54.4176C29.9433 54.7288 30.0262 55.0648 30.194 55.4299C30.3597 55.7909 30.6548 56.0813 31.0753 56.3011C31.9424 56.6662 32.7732 56.8488 33.5655 56.8488Z" fill="#526E7A"/>
</svg>
