<svg width="742" height="605" viewBox="0 0 742 605" fill="none" xmlns="http://www.w3.org/2000/svg">
<mask id="mask0_697_26417" style="mask-type:luminance" maskUnits="userSpaceOnUse" x="78" y="257" width="111" height="133">
<path d="M78.3523 257.616H188.118V389.264H78.3523V257.616Z" fill="white"/>
</mask>
<g mask="url(#mask0_697_26417)">
<mask id="mask1_697_26417" style="mask-type:luminance" maskUnits="userSpaceOnUse" x="70" y="257" width="126" height="300">
<path d="M70.3242 264.651V549.55C70.3242 553.434 74.2001 556.585 78.9899 556.585H186.408C191.193 556.585 195.074 553.434 195.074 549.55V264.651C195.074 260.762 191.193 257.616 186.408 257.616H78.9899C74.2001 257.616 70.3242 260.762 70.3242 264.651Z" fill="white"/>
</mask>
<g mask="url(#mask1_697_26417)">
<path d="M78.3806 297.499C78.3806 293.606 81.0492 290.216 84.9871 288.476V276.889C81.0492 275.148 78.3806 271.759 78.3806 267.866C78.3806 262.196 84.0223 257.611 90.9955 257.611H174.318C181.291 257.611 186.944 262.196 186.944 267.866C186.944 271.759 184.265 275.148 180.332 276.889V288.476C184.265 290.216 186.944 293.606 186.944 297.499C186.944 301.401 184.265 304.79 180.332 306.526V344.173C184.265 345.9 186.944 349.294 186.944 353.191C186.944 357.089 184.265 360.474 180.332 362.214V369.249C184.265 370.985 186.944 374.378 186.944 378.271C186.944 383.937 181.291 388.526 174.324 388.526H90.9955C84.0223 388.526 78.3806 383.937 78.3806 378.271C78.3806 374.378 81.0492 370.985 84.9871 369.249V362.214C81.0492 360.474 78.3806 357.089 78.3806 353.191C78.3806 349.294 81.0492 345.9 84.9871 344.173V306.526C81.0492 304.79 78.3806 301.401 78.3806 297.499Z" fill="#98DCDC"/>
</g>
</g>
<mask id="mask2_697_26417" style="mask-type:luminance" maskUnits="userSpaceOnUse" x="81" y="317" width="103" height="72">
<path d="M81.241 317.742H183.785V388.091H81.241V317.742Z" fill="white"/>
</mask>
<g mask="url(#mask2_697_26417)">
<mask id="mask3_697_26417" style="mask-type:luminance" maskUnits="userSpaceOnUse" x="70" y="257" width="126" height="300">
<path d="M70.3242 264.651V549.55C70.3242 553.434 74.2001 556.585 78.9899 556.585H186.408C191.193 556.585 195.074 553.434 195.074 549.55V264.651C195.074 260.762 191.193 257.616 186.408 257.616H78.9899C74.2001 257.616 70.3242 260.762 70.3242 264.651Z" fill="white"/>
</mask>
<g mask="url(#mask3_697_26417)">
<path d="M81.5852 353.828C81.5852 350.1 84.0958 347.842 87.8024 346.184V318.837H177.511V346.184C181.218 347.842 183.74 350.1 183.74 353.828C183.74 357.552 181.218 358.839 177.511 360.496V371.118C181.218 372.785 183.74 374.067 183.74 377.791C183.74 383.209 178.42 387.592 171.864 387.592H93.4554C86.8997 387.592 81.5852 383.209 81.5852 377.791C81.5852 374.067 84.0958 372.785 87.8024 371.127V360.496C84.0958 358.839 81.5852 357.552 81.5852 353.828Z" fill="#5DBCCB"/>
</g>
</g>
<mask id="mask4_697_26417" style="mask-type:luminance" maskUnits="userSpaceOnUse" x="81" y="269" width="103" height="8">
<path d="M81.241 269.671H183.785V276.706H81.241V269.671Z" fill="white"/>
</mask>
<g mask="url(#mask4_697_26417)">
<mask id="mask5_697_26417" style="mask-type:luminance" maskUnits="userSpaceOnUse" x="70" y="257" width="126" height="300">
<path d="M70.3242 264.651V549.55C70.3242 553.434 74.2001 556.585 78.9899 556.585H186.408C191.193 556.585 195.074 553.434 195.074 549.55V264.651C195.074 260.763 191.193 257.616 186.408 257.616H78.9899C74.2001 257.616 70.3242 260.763 70.3242 264.651Z" fill="white"/>
</mask>
<g mask="url(#mask5_697_26417)">
<path d="M182.561 269.9C182.623 270.179 182.668 270.468 182.668 270.774C182.668 273.413 180.033 275.547 176.795 275.547H87.4582C84.2086 275.547 81.5852 273.413 81.5852 270.774C81.5852 270.468 81.6303 270.179 81.6868 269.9H182.561Z" fill="#6EB8B3"/>
</g>
</g>
<mask id="mask6_697_26417" style="mask-type:luminance" maskUnits="userSpaceOnUse" x="81" y="298" width="103" height="9">
<path d="M81.241 298.983H183.785V306.017H81.241V298.983Z" fill="white"/>
</mask>
<g mask="url(#mask6_697_26417)">
<mask id="mask7_697_26417" style="mask-type:luminance" maskUnits="userSpaceOnUse" x="70" y="257" width="126" height="300">
<path d="M70.3242 264.651V549.55C70.3242 553.434 74.2001 556.585 78.9899 556.585H186.408C191.193 556.585 195.074 553.434 195.074 549.55V264.651C195.074 260.762 191.193 257.616 186.408 257.616H78.9899C74.2001 257.616 70.3242 260.762 70.3242 264.651Z" fill="white"/>
</mask>
<g mask="url(#mask7_697_26417)">
<path d="M182.561 299.212C182.623 299.496 182.668 299.784 182.668 300.082C182.668 302.72 180.033 304.863 176.795 304.863H87.4582C84.2086 304.863 81.5852 302.72 81.5852 300.082C81.5852 299.784 81.6303 299.496 81.6868 299.212H182.561Z" fill="#6EB8B3"/>
</g>
</g>
<mask id="mask8_697_26417" style="mask-type:luminance" maskUnits="userSpaceOnUse" x="85" y="354" width="96" height="8">
<path d="M85.5737 354.089H180.896V361.124H85.5737V354.089Z" fill="white"/>
</mask>
<g mask="url(#mask8_697_26417)">
<mask id="mask9_697_26417" style="mask-type:luminance" maskUnits="userSpaceOnUse" x="70" y="257" width="126" height="300">
<path d="M70.3242 264.651V549.55C70.3242 553.434 74.2001 556.585 78.9899 556.585H186.408C191.193 556.585 195.074 553.434 195.074 549.55V264.651C195.074 260.763 191.193 257.616 186.408 257.616H78.9899C74.2001 257.616 70.3242 260.763 70.3242 264.651Z" fill="white"/>
</mask>
<g mask="url(#mask9_697_26417)">
<path d="M174.245 360.552H91.1141C88.0901 360.552 85.6416 358.413 85.6416 355.775C85.6416 355.468 85.6811 355.188 85.7432 354.9H179.61C179.667 355.188 179.712 355.468 179.712 355.775C179.712 358.413 177.263 360.552 174.245 360.552Z" fill="#81D0D4"/>
</g>
</g>
<mask id="mask10_697_26417" style="mask-type:luminance" maskUnits="userSpaceOnUse" x="85" y="379" width="96" height="8">
<path d="M85.5737 379.884H180.896V386.919H85.5737V379.884Z" fill="white"/>
</mask>
<g mask="url(#mask10_697_26417)">
<mask id="mask11_697_26417" style="mask-type:luminance" maskUnits="userSpaceOnUse" x="70" y="257" width="126" height="300">
<path d="M70.3242 264.651V549.55C70.3242 553.434 74.2001 556.585 78.9899 556.585H186.408C191.193 556.585 195.074 553.434 195.074 549.55V264.651C195.074 260.762 191.193 257.616 186.408 257.616H78.9899C74.2001 257.616 70.3242 260.762 70.3242 264.651Z" fill="white"/>
</mask>
<g mask="url(#mask11_697_26417)">
<path d="M174.741 386.199H91.6048C88.5865 386.199 86.1379 384.061 86.1379 381.418C86.1379 381.116 86.1774 380.832 86.2395 380.548H180.101C180.169 380.832 180.208 381.116 180.208 381.418C180.208 384.061 177.754 386.199 174.741 386.199Z" fill="#81D0D4"/>
</g>
</g>
<mask id="mask12_697_26417" style="mask-type:luminance" maskUnits="userSpaceOnUse" x="85" y="259" width="8" height="5">
<path d="M85.5737 259.118H92.7951V263.808H85.5737V259.118Z" fill="white"/>
</mask>
<g mask="url(#mask12_697_26417)">
<mask id="mask13_697_26417" style="mask-type:luminance" maskUnits="userSpaceOnUse" x="70" y="257" width="126" height="300">
<path d="M70.3242 264.651V549.55C70.3242 553.434 74.2001 556.585 78.9899 556.585H186.408C191.193 556.585 195.074 553.434 195.074 549.55V264.651C195.074 260.763 191.193 257.616 186.408 257.616H78.9899C74.2001 257.616 70.3242 260.763 70.3242 264.651Z" fill="white"/>
</mask>
<g mask="url(#mask13_697_26417)">
<path d="M85.9856 261.349C85.9856 262.521 87.4242 263.469 89.1901 263.469C90.9616 263.469 92.4002 262.521 92.4002 261.349C92.4002 260.181 90.9616 259.237 89.1901 259.237C87.4242 259.237 85.9856 260.181 85.9856 261.349Z" fill="white"/>
</g>
</g>
<mask id="mask14_697_26417" style="mask-type:luminance" maskUnits="userSpaceOnUse" x="87" y="277" width="53" height="4">
<path d="M87.0181 277.878H139.012V280.223H87.0181V277.878Z" fill="white"/>
</mask>
<g mask="url(#mask14_697_26417)">
<mask id="mask15_697_26417" style="mask-type:luminance" maskUnits="userSpaceOnUse" x="70" y="257" width="126" height="300">
<path d="M70.3242 264.651V549.55C70.3242 553.434 74.2001 556.585 78.9899 556.585H186.408C191.193 556.585 195.074 553.434 195.074 549.55V264.651C195.074 260.762 191.193 257.616 186.408 257.616H78.9899C74.2001 257.616 70.3242 260.762 70.3242 264.651Z" fill="white"/>
</mask>
<g mask="url(#mask15_697_26417)">
<path d="M87.791 279.266C87.791 278.817 88.2367 278.45 88.7896 278.45H137.67C138.222 278.45 138.668 278.817 138.668 279.266C138.668 279.715 138.222 280.072 137.67 280.072H88.7896C88.2367 280.072 87.791 279.715 87.791 279.266Z" fill="white"/>
</g>
</g>
<mask id="mask16_697_26417" style="mask-type:luminance" maskUnits="userSpaceOnUse" x="81" y="289" width="76" height="6">
<path d="M81.241 289.603H156.344V294.293H81.241V289.603Z" fill="white"/>
</mask>
<g mask="url(#mask16_697_26417)">
<mask id="mask17_697_26417" style="mask-type:luminance" maskUnits="userSpaceOnUse" x="70" y="257" width="126" height="300">
<path d="M70.3242 264.651V549.55C70.3242 553.434 74.2001 556.585 78.9899 556.585H186.408C191.193 556.585 195.074 553.434 195.074 549.55V264.651C195.074 260.762 191.193 257.616 186.408 257.616H78.9899C74.2001 257.616 70.3242 260.762 70.3242 264.651Z" fill="white"/>
</mask>
<g mask="url(#mask17_697_26417)">
<path d="M152.789 293.917H84.4117C83.1479 293.917 82.1099 293.079 82.1099 292.044C82.1099 291.013 83.1479 290.171 84.4117 290.171H152.789C154.064 290.171 155.091 291.013 155.091 292.044C155.091 293.079 154.064 293.917 152.789 293.917Z" fill="#BCE9E7"/>
</g>
</g>
<mask id="mask18_697_26417" style="mask-type:luminance" maskUnits="userSpaceOnUse" x="88" y="306" width="33" height="4">
<path d="M88.4624 306.017H120.237V309.535H88.4624V306.017Z" fill="white"/>
</mask>
<g mask="url(#mask18_697_26417)">
<mask id="mask19_697_26417" style="mask-type:luminance" maskUnits="userSpaceOnUse" x="70" y="257" width="126" height="300">
<path d="M70.3242 264.651V549.55C70.3242 553.434 74.2001 556.585 78.9899 556.585H186.408C191.193 556.585 195.074 553.434 195.074 549.55V264.651C195.074 260.762 191.193 257.616 186.408 257.616H78.9899C74.2001 257.616 70.3242 260.762 70.3242 264.651Z" fill="white"/>
</mask>
<g mask="url(#mask19_697_26417)">
<path d="M89.1902 307.272C89.1902 307.9 89.8164 308.413 90.595 308.413H118.239C119.012 308.413 119.639 307.9 119.639 307.272C119.639 306.645 119.012 306.137 118.239 306.137H90.595C89.8164 306.137 89.1902 306.645 89.1902 307.272Z" fill="white"/>
</g>
</g>
<mask id="mask20_697_26417" style="mask-type:luminance" maskUnits="userSpaceOnUse" x="84" y="371" width="64" height="6">
<path d="M84.1294 371.677H147.678V376.366H84.1294V371.677Z" fill="white"/>
</mask>
<g mask="url(#mask20_697_26417)">
<mask id="mask21_697_26417" style="mask-type:luminance" maskUnits="userSpaceOnUse" x="70" y="257" width="126" height="300">
<path d="M70.324 264.651V549.55C70.324 553.434 74.1998 556.585 78.9897 556.585H186.408C191.192 556.585 195.074 553.434 195.074 549.55V264.651C195.074 260.763 191.192 257.616 186.408 257.616H78.9897C74.1998 257.616 70.324 260.763 70.324 264.651Z" fill="white"/>
</mask>
<g mask="url(#mask21_697_26417)">
<path d="M145.472 375.34H87.1872C86.1942 375.34 85.3875 374.681 85.3875 373.875C85.3875 373.06 86.1942 372.405 87.1872 372.405H145.472C146.47 372.405 147.283 373.06 147.283 373.875C147.283 374.681 146.47 375.34 145.472 375.34Z" fill="#91D8DC"/>
</g>
</g>
<mask id="mask22_697_26417" style="mask-type:luminance" maskUnits="userSpaceOnUse" x="150" y="323" width="10" height="7">
<path d="M150.566 323.605H159.232V329.467H150.566V323.605Z" fill="white"/>
</mask>
<g mask="url(#mask22_697_26417)">
<mask id="mask23_697_26417" style="mask-type:luminance" maskUnits="userSpaceOnUse" x="70" y="257" width="126" height="300">
<path d="M70.3242 264.651V549.55C70.3242 553.434 74.2001 556.585 78.9899 556.585H186.408C191.193 556.585 195.074 553.434 195.074 549.55V264.651C195.074 260.762 191.193 257.616 186.408 257.616H78.9899C74.2001 257.616 70.3242 260.762 70.3242 264.651Z" fill="white"/>
</mask>
<g mask="url(#mask23_697_26417)">
<path d="M150.589 326.815C150.589 328.157 152.4 329.252 154.634 329.252C156.88 329.252 158.691 328.157 158.691 326.815C158.691 325.464 156.88 324.37 154.634 324.37C152.4 324.37 150.589 325.464 150.589 326.815Z" fill="white"/>
</g>
</g>
<mask id="mask24_697_26417" style="mask-type:luminance" maskUnits="userSpaceOnUse" x="143" y="325" width="5" height="5">
<path d="M143.345 325.95H147.678V329.467H143.345V325.95Z" fill="white"/>
</mask>
<g mask="url(#mask24_697_26417)">
<mask id="mask25_697_26417" style="mask-type:luminance" maskUnits="userSpaceOnUse" x="70" y="257" width="126" height="300">
<path d="M70.3242 264.651V549.55C70.3242 553.434 74.2001 556.585 78.9899 556.585H186.408C191.193 556.585 195.074 553.434 195.074 549.55V264.651C195.074 260.763 191.193 257.616 186.408 257.616H78.9899C74.2001 257.616 70.3242 260.763 70.3242 264.651Z" fill="white"/>
</mask>
<g mask="url(#mask25_697_26417)">
<path d="M143.373 328.029C143.373 328.707 144.248 329.252 145.331 329.252C146.403 329.252 147.283 328.707 147.283 328.029C147.283 327.36 146.403 326.815 145.331 326.815C144.248 326.815 143.373 327.36 143.373 328.029Z" fill="white"/>
</g>
</g>
<mask id="mask26_697_26417" style="mask-type:luminance" maskUnits="userSpaceOnUse" x="94" y="260" width="8" height="4">
<path d="M94.2395 260.291H101.461V263.808H94.2395V260.291Z" fill="white"/>
</mask>
<g mask="url(#mask26_697_26417)">
<mask id="mask27_697_26417" style="mask-type:luminance" maskUnits="userSpaceOnUse" x="70" y="257" width="126" height="300">
<path d="M70.3242 264.651V549.55C70.3242 553.434 74.2001 556.585 78.9899 556.585H186.408C191.193 556.585 195.074 553.434 195.074 549.55V264.651C195.074 260.762 191.193 257.616 186.408 257.616H78.9899C74.2001 257.616 70.3242 260.762 70.3242 264.651Z" fill="white"/>
</mask>
<g mask="url(#mask27_697_26417)">
<path d="M94.9956 262.407C94.9956 262.997 96.344 263.469 98.0026 263.469C99.667 263.469 101.01 262.997 101.01 262.407C101.01 261.82 99.667 261.349 98.0026 261.349C96.344 261.349 94.9956 261.82 94.9956 262.407Z" fill="white"/>
</g>
</g>
<mask id="mask28_697_26417" style="mask-type:luminance" maskUnits="userSpaceOnUse" x="123" y="341" width="56" height="4">
<path d="M123.125 341.192H178.008V344.709H123.125V341.192Z" fill="white"/>
</mask>
<g mask="url(#mask28_697_26417)">
<mask id="mask29_697_26417" style="mask-type:luminance" maskUnits="userSpaceOnUse" x="70" y="257" width="126" height="300">
<path d="M70.324 264.651V549.55C70.324 553.434 74.1998 556.585 78.9897 556.585H186.408C191.192 556.585 195.074 553.434 195.074 549.55V264.651C195.074 260.762 191.192 257.616 186.408 257.616H78.9897C74.1998 257.616 70.324 260.762 70.324 264.651Z" fill="white"/>
</mask>
<g mask="url(#mask29_697_26417)">
<path d="M175.418 344.073H125.748C124.975 344.073 124.344 343.564 124.344 342.928C124.344 342.305 124.975 341.792 125.748 341.792H175.418C176.197 341.792 176.823 342.305 176.823 342.928C176.823 343.564 176.197 344.073 175.418 344.073Z" fill="#4C8FA3"/>
</g>
</g>
<mask id="mask30_697_26417" style="mask-type:luminance" maskUnits="userSpaceOnUse" x="123" y="368" width="56" height="4">
<path d="M123.125 368.159H178.008V371.676H123.125V368.159Z" fill="white"/>
</mask>
<g mask="url(#mask30_697_26417)">
<mask id="mask31_697_26417" style="mask-type:luminance" maskUnits="userSpaceOnUse" x="70" y="257" width="126" height="300">
<path d="M70.324 264.651V549.55C70.324 553.434 74.1998 556.585 78.9897 556.585H186.408C191.192 556.585 195.074 553.434 195.074 549.55V264.651C195.074 260.762 191.192 257.616 186.408 257.616H78.9897C74.1998 257.616 70.324 260.762 70.324 264.651Z" fill="white"/>
</mask>
<g mask="url(#mask31_697_26417)">
<path d="M175.418 370.774H125.748C124.975 370.774 124.344 370.266 124.344 369.638C124.344 369.011 124.975 368.498 125.748 368.498H175.418C176.197 368.498 176.823 369.011 176.823 369.638C176.823 370.266 176.197 370.774 175.418 370.774Z" fill="#4C8FA3"/>
</g>
</g>
<mask id="mask32_697_26417" style="mask-type:luminance" maskUnits="userSpaceOnUse" x="130" y="284" width="49" height="5">
<path d="M130.346 284.913H178.008V288.43H130.346V284.913Z" fill="white"/>
</mask>
<g mask="url(#mask32_697_26417)">
<mask id="mask33_697_26417" style="mask-type:luminance" maskUnits="userSpaceOnUse" x="70" y="257" width="126" height="300">
<path d="M70.3242 264.651V549.55C70.3242 553.434 74.2001 556.585 78.9899 556.585H186.408C191.193 556.585 195.074 553.434 195.074 549.55V264.651C195.074 260.762 191.193 257.616 186.408 257.616H78.9899C74.2001 257.616 70.3242 260.762 70.3242 264.651Z" fill="white"/>
</mask>
<g mask="url(#mask33_697_26417)">
<path d="M175.604 287.894H132.282C131.599 287.894 131.057 287.386 131.057 286.749C131.057 286.127 131.599 285.614 132.282 285.614H175.604C176.281 285.614 176.823 286.127 176.823 286.749C176.823 287.386 176.281 287.894 175.604 287.894Z" fill="#609BA9"/>
</g>
</g>
<mask id="mask34_697_26417" style="mask-type:luminance" maskUnits="userSpaceOnUse" x="70" y="388" width="125" height="169">
<path d="M70.3242 388.091H194.894V556.599H70.3242V388.091Z" fill="white"/>
</mask>
<g mask="url(#mask34_697_26417)">
<mask id="mask35_697_26417" style="mask-type:luminance" maskUnits="userSpaceOnUse" x="70" y="257" width="126" height="300">
<path d="M70.3242 264.651V549.55C70.3242 553.434 74.2001 556.585 78.9899 556.585H186.408C191.193 556.585 195.074 553.434 195.074 549.55V264.651C195.074 260.762 191.193 257.616 186.408 257.616H78.9899C74.2001 257.616 70.3242 260.762 70.3242 264.651Z" fill="white"/>
</mask>
<g mask="url(#mask35_697_26417)">
<path d="M70.5669 556.576H194.753V388.572H70.5669V556.576Z" fill="#BCC6CA"/>
</g>
</g>
<mask id="mask36_697_26417" style="mask-type:luminance" maskUnits="userSpaceOnUse" x="70" y="388" width="125" height="12">
<path d="M70.3242 388.091H194.894V399.816H70.3242V388.091Z" fill="white"/>
</mask>
<g mask="url(#mask36_697_26417)">
<mask id="mask37_697_26417" style="mask-type:luminance" maskUnits="userSpaceOnUse" x="70" y="257" width="126" height="300">
<path d="M70.3242 264.651V549.55C70.3242 553.434 74.2001 556.585 78.9899 556.585H186.408C191.193 556.585 195.074 553.434 195.074 549.55V264.651C195.074 260.762 191.193 257.616 186.408 257.616H78.9899C74.2001 257.616 70.3242 260.762 70.3242 264.651Z" fill="white"/>
</mask>
<g mask="url(#mask37_697_26417)">
<path d="M70.5669 399.601V388.572H194.753V399.601H70.5669Z" fill="#DDE3E4"/>
</g>
</g>
<mask id="mask38_697_26417" style="mask-type:luminance" maskUnits="userSpaceOnUse" x="179" y="398" width="4" height="159">
<path d="M179.452 398.643H182.341V556.598H179.452V398.643Z" fill="white"/>
</mask>
<g mask="url(#mask38_697_26417)">
<mask id="mask39_697_26417" style="mask-type:luminance" maskUnits="userSpaceOnUse" x="70" y="257" width="126" height="300">
<path d="M70.3242 264.651V549.55C70.3242 553.434 74.2001 556.585 78.9899 556.585H186.408C191.193 556.585 195.074 553.434 195.074 549.55V264.651C195.074 260.762 191.193 257.616 186.408 257.616H78.9899C74.2001 257.616 70.3242 260.762 70.3242 264.651Z" fill="white"/>
</mask>
<g mask="url(#mask39_697_26417)">
<path d="M179.751 556.576H181.5V399.601H179.751V556.576Z" fill="#797F82"/>
</g>
</g>
<mask id="mask40_697_26417" style="mask-type:luminance" maskUnits="userSpaceOnUse" x="82" y="398" width="4" height="159">
<path d="M82.6851 398.643H85.5736V556.598H82.6851V398.643Z" fill="white"/>
</mask>
<g mask="url(#mask40_697_26417)">
<mask id="mask41_697_26417" style="mask-type:luminance" maskUnits="userSpaceOnUse" x="70" y="257" width="126" height="300">
<path d="M70.324 264.651V549.55C70.324 553.434 74.1998 556.585 78.9897 556.585H186.408C191.192 556.585 195.074 553.434 195.074 549.55V264.651C195.074 260.762 191.192 257.616 186.408 257.616H78.9897C74.1998 257.616 70.324 260.762 70.324 264.651Z" fill="white"/>
</mask>
<g mask="url(#mask41_697_26417)">
<path d="M83.8132 556.576H85.5678V399.601H83.8132V556.576Z" fill="#797F82"/>
</g>
</g>
<mask id="mask42_697_26417" style="mask-type:luminance" maskUnits="userSpaceOnUse" x="97" y="416" width="73" height="23">
<path d="M97.1279 416.23H169.342V438.508H97.1279V416.23Z" fill="white"/>
</mask>
<g mask="url(#mask42_697_26417)">
<mask id="mask43_697_26417" style="mask-type:luminance" maskUnits="userSpaceOnUse" x="70" y="257" width="126" height="300">
<path d="M70.324 264.651V549.55C70.324 553.434 74.1998 556.585 78.9897 556.585H186.408C191.192 556.585 195.074 553.434 195.074 549.55V264.651C195.074 260.762 191.192 257.616 186.408 257.616H78.9897C74.1998 257.616 70.324 260.762 70.324 264.651Z" fill="white"/>
</mask>
<g mask="url(#mask43_697_26417)">
<path d="M97.3027 437.702H168.011V416.693H97.3027V437.702Z" fill="#23282E"/>
</g>
</g>
<mask id="mask44_697_26417" style="mask-type:luminance" maskUnits="userSpaceOnUse" x="108" y="419" width="50" height="16">
<path d="M108.682 419.748H157.788V434.99H108.682V419.748Z" fill="white"/>
</mask>
<g mask="url(#mask44_697_26417)">
<mask id="mask45_697_26417" style="mask-type:luminance" maskUnits="userSpaceOnUse" x="70" y="257" width="126" height="300">
<path d="M70.324 264.651V549.55C70.324 553.434 74.1998 556.585 78.9897 556.585H186.408C191.192 556.585 195.074 553.434 195.074 549.55V264.651C195.074 260.762 191.192 257.616 186.408 257.616H78.9897C74.1998 257.616 70.324 260.762 70.324 264.651Z" fill="white"/>
</mask>
<g mask="url(#mask45_697_26417)">
<path d="M108.817 434.28H156.501V420.119H108.817V434.28Z" fill="#141619"/>
</g>
</g>
<mask id="mask46_697_26417" style="mask-type:luminance" maskUnits="userSpaceOnUse" x="110" y="422" width="45" height="11">
<path d="M110.126 422.093H154.899V432.645H110.126V422.093Z" fill="white"/>
</mask>
<g mask="url(#mask46_697_26417)">
<mask id="mask47_697_26417" style="mask-type:luminance" maskUnits="userSpaceOnUse" x="70" y="257" width="126" height="300">
<path d="M70.324 264.651V549.55C70.324 553.434 74.1998 556.585 78.9897 556.585H186.408C191.192 556.585 195.074 553.434 195.074 549.55V264.651C195.074 260.762 191.192 257.616 186.408 257.616H78.9897C74.1998 257.616 70.324 260.762 70.324 264.651Z" fill="white"/>
</mask>
<g mask="url(#mask47_697_26417)">
<path d="M110.679 431.775H154.634V422.629H110.679V431.775Z" fill="#468BB9"/>
</g>
</g>
<mask id="mask48_697_26417" style="mask-type:luminance" maskUnits="userSpaceOnUse" x="159" y="420" width="7" height="5">
<path d="M159.232 420.921H165.009V424.438H159.232V420.921Z" fill="white"/>
</mask>
<g mask="url(#mask48_697_26417)">
<mask id="mask49_697_26417" style="mask-type:luminance" maskUnits="userSpaceOnUse" x="70" y="257" width="126" height="300">
<path d="M70.3242 264.651V549.55C70.3242 553.434 74.2001 556.585 78.9899 556.585H186.408C191.193 556.585 195.074 553.434 195.074 549.55V264.651C195.074 260.762 191.193 257.616 186.408 257.616H78.9899C74.2001 257.616 70.3242 260.762 70.3242 264.651Z" fill="white"/>
</mask>
<g mask="url(#mask49_697_26417)">
<path d="M160.304 422.597C160.304 423.522 161.213 424.269 162.352 424.269C163.486 424.269 164.406 423.522 164.406 422.597C164.406 421.681 163.486 420.93 162.352 420.93C161.213 420.93 160.304 421.681 160.304 422.597Z" fill="#BCC6CA"/>
</g>
</g>
<mask id="mask50_697_26417" style="mask-type:luminance" maskUnits="userSpaceOnUse" x="159" y="424" width="7" height="6">
<path d="M159.232 424.438H165.009V429.128H159.232V424.438Z" fill="white"/>
</mask>
<g mask="url(#mask50_697_26417)">
<mask id="mask51_697_26417" style="mask-type:luminance" maskUnits="userSpaceOnUse" x="70" y="257" width="126" height="300">
<path d="M70.3242 264.651V549.55C70.3242 553.434 74.2001 556.585 78.9899 556.585H186.408C191.193 556.585 195.074 553.434 195.074 549.55V264.651C195.074 260.762 191.193 257.616 186.408 257.616H78.9899C74.2001 257.616 70.3242 260.762 70.3242 264.651Z" fill="white"/>
</mask>
<g mask="url(#mask51_697_26417)">
<path d="M160.304 427.2C160.304 428.12 161.213 428.871 162.352 428.871C163.486 428.871 164.406 428.12 164.406 427.2C164.406 426.279 163.486 425.528 162.352 425.528C161.213 425.528 160.304 426.279 160.304 427.2Z" fill="#BCC6CA"/>
</g>
</g>
<mask id="mask52_697_26417" style="mask-type:luminance" maskUnits="userSpaceOnUse" x="159" y="429" width="7" height="5">
<path d="M159.232 429.128H165.009V433.818H159.232V429.128Z" fill="white"/>
</mask>
<g mask="url(#mask52_697_26417)">
<mask id="mask53_697_26417" style="mask-type:luminance" maskUnits="userSpaceOnUse" x="70" y="257" width="126" height="300">
<path d="M70.3242 264.651V549.55C70.3242 553.434 74.2001 556.585 78.9899 556.585H186.408C191.193 556.585 195.074 553.434 195.074 549.55V264.651C195.074 260.763 191.193 257.616 186.408 257.616H78.9899C74.2001 257.616 70.3242 260.763 70.3242 264.651Z" fill="white"/>
</mask>
<g mask="url(#mask53_697_26417)">
<path d="M160.304 431.798C160.304 432.723 161.213 433.47 162.352 433.47C163.486 433.47 164.406 432.723 164.406 431.798C164.406 430.882 163.486 430.131 162.352 430.131C161.213 430.131 160.304 430.882 160.304 431.798Z" fill="#BCC6CA"/>
</g>
</g>
<mask id="mask54_697_26417" style="mask-type:luminance" maskUnits="userSpaceOnUse" x="101" y="420" width="7" height="5">
<path d="M101.461 420.921H107.238V424.438H101.461V420.921Z" fill="white"/>
</mask>
<g mask="url(#mask54_697_26417)">
<mask id="mask55_697_26417" style="mask-type:luminance" maskUnits="userSpaceOnUse" x="70" y="257" width="126" height="300">
<path d="M70.324 264.651V549.55C70.324 553.434 74.1998 556.585 78.9897 556.585H186.408C191.192 556.585 195.074 553.434 195.074 549.55V264.651C195.074 260.762 191.192 257.616 186.408 257.616H78.9897C74.1998 257.616 70.324 260.762 70.324 264.651Z" fill="white"/>
</mask>
<g mask="url(#mask55_697_26417)">
<path d="M102.211 422.597C102.211 423.522 103.125 424.269 104.259 424.269C105.393 424.269 106.318 423.522 106.318 422.597C106.318 421.681 105.393 420.93 104.259 420.93C103.125 420.93 102.211 421.681 102.211 422.597Z" fill="#BCC6CA"/>
</g>
</g>
<mask id="mask56_697_26417" style="mask-type:luminance" maskUnits="userSpaceOnUse" x="101" y="424" width="7" height="6">
<path d="M101.461 424.438H107.238V429.128H101.461V424.438Z" fill="white"/>
</mask>
<g mask="url(#mask56_697_26417)">
<mask id="mask57_697_26417" style="mask-type:luminance" maskUnits="userSpaceOnUse" x="70" y="257" width="126" height="300">
<path d="M70.324 264.651V549.55C70.324 553.434 74.1998 556.585 78.9897 556.585H186.408C191.192 556.585 195.074 553.434 195.074 549.55V264.651C195.074 260.762 191.192 257.616 186.408 257.616H78.9897C74.1998 257.616 70.324 260.762 70.324 264.651Z" fill="white"/>
</mask>
<g mask="url(#mask57_697_26417)">
<path d="M102.211 427.2C102.211 428.12 103.125 428.871 104.259 428.871C105.393 428.871 106.318 428.12 106.318 427.2C106.318 426.279 105.393 425.528 104.259 425.528C103.125 425.528 102.211 426.279 102.211 427.2Z" fill="#BCC6CA"/>
</g>
</g>
<mask id="mask58_697_26417" style="mask-type:luminance" maskUnits="userSpaceOnUse" x="101" y="429" width="7" height="5">
<path d="M101.461 429.128H107.238V433.818H101.461V429.128Z" fill="white"/>
</mask>
<g mask="url(#mask58_697_26417)">
<mask id="mask59_697_26417" style="mask-type:luminance" maskUnits="userSpaceOnUse" x="70" y="257" width="126" height="300">
<path d="M70.324 264.651V549.55C70.324 553.434 74.1998 556.585 78.9897 556.585H186.408C191.192 556.585 195.074 553.434 195.074 549.55V264.651C195.074 260.763 191.192 257.616 186.408 257.616H78.9897C74.1998 257.616 70.324 260.763 70.324 264.651Z" fill="white"/>
</mask>
<g mask="url(#mask59_697_26417)">
<path d="M102.211 431.798C102.211 432.723 103.125 433.47 104.259 433.47C105.393 433.47 106.318 432.723 106.318 431.798C106.318 430.882 105.393 430.131 104.259 430.131C103.125 430.131 102.211 430.882 102.211 431.798Z" fill="#BCC6CA"/>
</g>
</g>
<mask id="mask60_697_26417" style="mask-type:luminance" maskUnits="userSpaceOnUse" x="97" y="442" width="73" height="57">
<path d="M97.1279 442.025H169.342V498.304H97.1279V442.025Z" fill="white"/>
</mask>
<g mask="url(#mask60_697_26417)">
<mask id="mask61_697_26417" style="mask-type:luminance" maskUnits="userSpaceOnUse" x="70" y="257" width="126" height="300">
<path d="M70.324 264.651V549.55C70.324 553.434 74.1998 556.585 78.9897 556.585H186.408C191.192 556.585 195.074 553.434 195.074 549.55V264.651C195.074 260.762 191.192 257.616 186.408 257.616H78.9897C74.1998 257.616 70.324 260.762 70.324 264.651Z" fill="white"/>
</mask>
<g mask="url(#mask61_697_26417)">
<path d="M97.3027 497.466H168.011V442.099H97.3027V497.466Z" fill="#646E75"/>
</g>
</g>
<mask id="mask62_697_26417" style="mask-type:luminance" maskUnits="userSpaceOnUse" x="97" y="442" width="11" height="57">
<path d="M97.1279 442.025H107.238V498.304H97.1279V442.025Z" fill="white"/>
</mask>
<g mask="url(#mask62_697_26417)">
<mask id="mask63_697_26417" style="mask-type:luminance" maskUnits="userSpaceOnUse" x="70" y="257" width="126" height="300">
<path d="M70.324 264.651V549.55C70.324 553.434 74.1998 556.585 78.9897 556.585H186.408C191.192 556.585 195.074 553.434 195.074 549.55V264.651C195.074 260.762 191.192 257.616 186.408 257.616H78.9897C74.1998 257.616 70.324 260.762 70.324 264.651Z" fill="white"/>
</mask>
<g mask="url(#mask63_697_26417)">
<path d="M97.3027 497.466H106.318V442.099H97.3027V497.466Z" fill="#8B989F"/>
</g>
</g>
<mask id="mask64_697_26417" style="mask-type:luminance" maskUnits="userSpaceOnUse" x="159" y="442" width="11" height="57">
<path d="M159.232 442.025H169.342V498.304H159.232V442.025Z" fill="white"/>
</mask>
<g mask="url(#mask64_697_26417)">
<mask id="mask65_697_26417" style="mask-type:luminance" maskUnits="userSpaceOnUse" x="70" y="257" width="126" height="300">
<path d="M70.3242 264.651V549.55C70.3242 553.434 74.2001 556.585 78.9899 556.585H186.408C191.193 556.585 195.074 553.434 195.074 549.55V264.651C195.074 260.762 191.193 257.616 186.408 257.616H78.9899C74.2001 257.616 70.3242 260.762 70.3242 264.651Z" fill="white"/>
</mask>
<g mask="url(#mask65_697_26417)">
<path d="M160.304 497.466H168.011V442.099H160.304V497.466Z" fill="#8B989F"/>
</g>
</g>
<mask id="mask66_697_26417" style="mask-type:luminance" maskUnits="userSpaceOnUse" x="97" y="488" width="73" height="11">
<path d="M97.1279 488.924H169.342V498.304H97.1279V488.924Z" fill="white"/>
</mask>
<g mask="url(#mask66_697_26417)">
<mask id="mask67_697_26417" style="mask-type:luminance" maskUnits="userSpaceOnUse" x="70" y="257" width="126" height="300">
<path d="M70.324 264.651V549.55C70.324 553.434 74.1998 556.585 78.9897 556.585H186.408C191.192 556.585 195.074 553.434 195.074 549.55V264.651C195.074 260.762 191.192 257.616 186.408 257.616H78.9897C74.1998 257.616 70.324 260.762 70.324 264.651Z" fill="white"/>
</mask>
<g mask="url(#mask67_697_26417)">
<path d="M97.3027 497.466H168.011L160.304 489.653H106.318L97.3027 497.466Z" fill="#354047"/>
</g>
</g>
<mask id="mask68_697_26417" style="mask-type:luminance" maskUnits="userSpaceOnUse" x="136" y="442" width="21" height="8">
<path d="M136.124 442.025H156.343V449.06H136.124V442.025Z" fill="white"/>
</mask>
<g mask="url(#mask68_697_26417)">
<mask id="mask69_697_26417" style="mask-type:luminance" maskUnits="userSpaceOnUse" x="70" y="257" width="126" height="300">
<path d="M70.324 264.651V549.55C70.324 553.434 74.1998 556.585 78.9897 556.585H186.408C191.192 556.585 195.074 553.434 195.074 549.55V264.651C195.074 260.762 191.192 257.616 186.408 257.616H78.9897C74.1998 257.616 70.324 260.762 70.324 264.651Z" fill="white"/>
</mask>
<g mask="url(#mask69_697_26417)">
<path d="M136.535 447.956H155.966V442.099H136.535V447.956Z" fill="#354047"/>
</g>
</g>
<mask id="mask70_697_26417" style="mask-type:luminance" maskUnits="userSpaceOnUse" x="108" y="442" width="21" height="8">
<path d="M108.682 442.025H128.902V449.06H108.682V442.025Z" fill="white"/>
</mask>
<g mask="url(#mask70_697_26417)">
<mask id="mask71_697_26417" style="mask-type:luminance" maskUnits="userSpaceOnUse" x="70" y="257" width="126" height="300">
<path d="M70.324 264.651V549.55C70.324 553.434 74.1998 556.585 78.9897 556.585H186.408C191.192 556.585 195.074 553.434 195.074 549.55V264.651C195.074 260.762 191.192 257.616 186.408 257.616H78.9897C74.1998 257.616 70.324 260.762 70.324 264.651Z" fill="white"/>
</mask>
<g mask="url(#mask71_697_26417)">
<path d="M109.348 447.956H128.778V442.099H109.348V447.956Z" fill="#354047"/>
</g>
</g>
<mask id="mask72_697_26417" style="mask-type:luminance" maskUnits="userSpaceOnUse" x="139" y="447" width="15" height="7">
<path d="M139.012 447.887H153.455V453.75H139.012V447.887Z" fill="white"/>
</mask>
<g mask="url(#mask72_697_26417)">
<mask id="mask73_697_26417" style="mask-type:luminance" maskUnits="userSpaceOnUse" x="70" y="257" width="126" height="300">
<path d="M70.3242 264.651V549.55C70.3242 553.434 74.2001 556.585 78.9899 556.585H186.408C191.193 556.585 195.074 553.434 195.074 549.55V264.651C195.074 260.762 191.193 257.616 186.408 257.616H78.9899C74.2001 257.616 70.3242 260.762 70.3242 264.651Z" fill="white"/>
</mask>
<g mask="url(#mask73_697_26417)">
<path d="M141.167 453.416H151.339L152.236 447.956H140.265L141.167 453.416Z" fill="#51ABE3"/>
</g>
</g>
<mask id="mask74_697_26417" style="mask-type:luminance" maskUnits="userSpaceOnUse" x="111" y="447" width="16" height="7">
<path d="M111.571 447.887H126.014V453.75H111.571V447.887Z" fill="white"/>
</mask>
<g mask="url(#mask74_697_26417)">
<mask id="mask75_697_26417" style="mask-type:luminance" maskUnits="userSpaceOnUse" x="70" y="257" width="126" height="300">
<path d="M70.3242 264.651V549.55C70.3242 553.434 74.2001 556.585 78.9899 556.585H186.408C191.193 556.585 195.074 553.434 195.074 549.55V264.651C195.074 260.762 191.193 257.616 186.408 257.616H78.9899C74.2001 257.616 70.3242 260.762 70.3242 264.651Z" fill="white"/>
</mask>
<g mask="url(#mask75_697_26417)">
<path d="M113.596 453.416H123.774L124.665 447.956H112.699L113.596 453.416Z" fill="#BE1C2E"/>
</g>
</g>
<mask id="mask76_697_26417" style="mask-type:luminance" maskUnits="userSpaceOnUse" x="137" y="473" width="20" height="20">
<path d="M137.568 473.682H156.344V492.442H137.568V473.682Z" fill="white"/>
</mask>
<g mask="url(#mask76_697_26417)">
<mask id="mask77_697_26417" style="mask-type:luminance" maskUnits="userSpaceOnUse" x="70" y="257" width="126" height="300">
<path d="M70.3242 264.651V549.55C70.3242 553.434 74.2001 556.585 78.9899 556.585H186.408C191.193 556.585 195.074 553.434 195.074 549.55V264.651C195.074 260.763 191.193 257.616 186.408 257.616H78.9899C74.2001 257.616 70.3242 260.763 70.3242 264.651Z" fill="white"/>
</mask>
<g mask="url(#mask77_697_26417)">
<path d="M140.079 492.071H152.976L155.181 474.14H137.861L140.079 492.071Z" fill="white"/>
</g>
</g>
<mask id="mask78_697_26417" style="mask-type:luminance" maskUnits="userSpaceOnUse" x="110" y="473" width="19" height="20">
<path d="M110.126 473.682H128.902V492.442H110.126V473.682Z" fill="white"/>
</mask>
<g mask="url(#mask78_697_26417)">
<mask id="mask79_697_26417" style="mask-type:luminance" maskUnits="userSpaceOnUse" x="70" y="257" width="126" height="300">
<path d="M70.324 264.651V549.55C70.324 553.434 74.1998 556.585 78.9897 556.585H186.408C191.192 556.585 195.074 553.434 195.074 549.55V264.651C195.074 260.763 191.192 257.616 186.408 257.616H78.9897C74.1998 257.616 70.324 260.763 70.324 264.651Z" fill="white"/>
</mask>
<g mask="url(#mask79_697_26417)">
<path d="M113.675 492.071H126.566L128.778 474.14H111.463L113.675 492.071Z" fill="white"/>
</g>
</g>
<mask id="mask80_697_26417" style="mask-type:luminance" maskUnits="userSpaceOnUse" x="199" y="160" width="349" height="389">
<path d="M199.407 160.63H547.118V548.721H199.407V160.63Z" fill="white"/>
</mask>
<g mask="url(#mask80_697_26417)">
<path d="M547.146 548.639H199.379V161.67H547.146V548.639Z" fill="#CB6032"/>
</g>
<path d="M364.913 255.289H209.5V170.097H364.913V255.289Z" fill="#A6411D"/>
<path d="M316.422 212.695C316.422 214.711 313.985 216.341 310.966 216.341H263.446C260.428 216.341 257.985 214.711 257.985 212.695C257.985 210.676 260.428 209.036 263.446 209.036H310.966C313.985 209.036 316.422 210.676 316.422 212.695Z" fill="#45515E"/>
<path d="M310.002 201.653H264.4V195.397H310.002V201.653Z" fill="white"/>
<path d="M364.913 346.578H209.5V261.381H364.913V346.578Z" fill="#A6411D"/>
<path d="M316.422 303.979C316.422 305.999 313.985 307.634 310.966 307.634H263.446C260.428 307.634 257.985 305.999 257.985 303.979C257.985 301.96 260.428 300.329 263.446 300.329H310.966C313.985 300.329 316.422 301.96 316.422 303.979Z" fill="#45515E"/>
<path d="M310.002 292.946H264.4V286.685H310.002V292.946Z" fill="white"/>
<path d="M364.913 437.862H209.5V352.669H364.913V437.862Z" fill="#A6411D"/>
<path d="M316.422 395.268C316.422 397.288 313.985 398.923 310.966 398.923H263.446C260.428 398.923 257.985 397.288 257.985 395.268C257.985 393.253 260.428 391.618 263.446 391.618H310.966C313.985 391.618 316.422 393.253 316.422 395.268Z" fill="#45515E"/>
<path d="M310.002 384.235H264.4V377.974H310.002V384.235Z" fill="white"/>
<path d="M364.913 529.151H209.5V443.963H364.913V529.151Z" fill="#A6411D"/>
<path d="M316.422 486.557C316.422 488.572 313.985 490.207 310.966 490.207H263.446C260.428 490.207 257.985 488.572 257.985 486.557C257.985 484.541 260.428 482.906 263.446 482.906H310.966C313.985 482.906 316.422 484.541 316.422 486.557Z" fill="#45515E"/>
<path d="M310.002 475.523H264.4V469.262H310.002V475.523Z" fill="white"/>
<path d="M537.025 255.289H381.612V170.097H537.025V255.289Z" fill="#A6411D"/>
<path d="M488.54 212.695C488.54 214.711 486.091 216.341 483.079 216.341H435.558C432.546 216.341 430.097 214.711 430.097 212.695C430.097 210.676 432.546 209.036 435.558 209.036H483.079C486.091 209.036 488.54 210.676 488.54 212.695Z" fill="#45515E"/>
<path d="M482.114 201.653H436.523V195.397H482.114V201.653Z" fill="white"/>
<path d="M537.025 346.578H381.612V261.381H537.025V346.578Z" fill="#A6411D"/>
<path d="M488.54 303.979C488.54 305.999 486.091 307.634 483.079 307.634H435.558C432.546 307.634 430.097 305.999 430.097 303.979C430.097 301.96 432.546 300.329 435.558 300.329H483.079C486.091 300.329 488.54 301.96 488.54 303.979Z" fill="#45515E"/>
<path d="M482.114 292.946H436.523V286.685H482.114V292.946Z" fill="white"/>
<path d="M537.025 437.862H381.612V352.669H537.025V437.862Z" fill="#A6411D"/>
<path d="M488.54 395.268C488.54 397.288 486.091 398.923 483.079 398.923H435.558C432.546 398.923 430.097 397.288 430.097 395.268C430.097 393.253 432.546 391.618 435.558 391.618H483.079C486.091 391.618 488.54 393.253 488.54 395.268Z" fill="#45515E"/>
<path d="M482.114 384.235H436.523V377.974H482.114V384.235Z" fill="white"/>
<path d="M537.025 529.151H381.612V443.963H537.025V529.151Z" fill="#A6411D"/>
<path d="M488.54 486.557C488.54 488.572 486.091 490.207 483.079 490.207H435.558C432.546 490.207 430.097 488.572 430.097 486.557C430.097 484.541 432.546 482.906 435.558 482.906H483.079C486.091 482.906 488.54 484.541 488.54 486.557Z" fill="#45515E"/>
<path d="M482.114 475.523H436.523V469.262H482.114V475.523Z" fill="white"/>
<path d="M293.381 159.586H283.215V147.65H293.381V159.586Z" fill="#B1DEE3"/>
<path d="M283.119 145.356H212.044C210.284 145.356 208.84 146.533 208.84 147.962V158.816C208.84 160.25 210.284 161.418 212.044 161.418H283.119V145.356Z" fill="#9747FF"/>
<path d="M283.119 145.356H212.044C210.284 145.356 208.84 146.533 208.84 147.962V148.726H283.119V145.356Z" fill="#892DFF"/>
<path d="M296.394 148.039V145.356H279.824V161.418H296.394V158.816L283.215 158.894V148.039H296.394Z" fill="#892DFF"/>
<path d="M224.09 159.201H216.93V147.577H224.09V159.201Z" fill="white"/>
<path d="M295.367 143.523H285.189V131.593H295.367V143.523Z" fill="#B1DEE3"/>
<path d="M285.105 129.303H214.019C212.259 129.303 210.814 130.471 210.814 131.9V142.754C210.814 144.188 212.259 145.356 214.019 145.356H285.105V129.303Z" fill="#DF2A24"/>
<path d="M285.105 129.303H214.019C212.259 129.303 210.814 130.471 210.814 131.9V132.664H285.105V129.303Z" fill="#C72525"/>
<path d="M298.38 131.982V129.303H281.804V145.356H298.38V142.759L285.189 142.837V131.982H298.38Z" fill="#C72525"/>
<path d="M226.075 143.144H218.916V131.515H226.075V143.144Z" fill="white"/>
<path d="M293.381 127.466H283.215V115.531H293.381V127.466Z" fill="#B1DEE3"/>
<path d="M283.119 113.245H212.044C210.284 113.245 208.84 114.413 208.84 115.842V126.697C208.84 128.135 210.284 129.303 212.044 129.303H283.119V113.245Z" fill="#B489FF"/>
<path d="M283.119 113.245H212.044C210.284 113.245 208.84 114.413 208.84 115.842V116.607H283.119V113.245Z" fill="#A16BFF"/>
<path d="M296.394 115.92V113.245H279.824V129.303H296.394V126.697L283.215 126.779V115.92H296.394Z" fill="#A16BFF"/>
<path d="M224.09 127.086H216.93V115.462H224.09V127.086Z" fill="white"/>
<path d="M297.968 111.409H287.802V99.4777H297.968V111.409Z" fill="#B1DEE3"/>
<path d="M287.706 97.1831H216.625C214.865 97.1831 213.427 98.351 213.427 99.7891V110.644C213.427 112.073 214.865 113.245 216.625 113.245H287.706V97.1831Z" fill="#F48517"/>
<path d="M287.706 97.1831H216.625C214.865 97.1831 213.427 98.351 213.427 99.7891V100.549H287.706V97.1831Z" fill="#CB701B"/>
<path d="M300.981 99.8578V97.1831H284.405V113.245H300.981V110.644L287.802 110.722V99.8578H300.981Z" fill="#CB701B"/>
<path d="M228.682 111.024H221.522V99.3997H228.682V111.024Z" fill="white"/>
<path d="M293.381 95.2915H283.215V83.3606H293.381V95.2915Z" fill="#B1DEE3"/>
<path d="M283.119 81.066H212.044C210.284 81.066 208.84 82.2339 208.84 83.6629V94.5267C208.84 95.9556 210.284 97.1235 212.044 97.1235H283.119V81.066Z" fill="#212E45"/>
<path d="M283.119 81.066H212.044C210.284 81.066 208.84 82.2339 208.84 83.6629V84.4278H283.119V81.066Z" fill="#131C29"/>
<path d="M296.394 83.7408V81.066H279.824V97.1235H296.394V94.5267L283.215 94.5954V83.7408H296.394Z" fill="#131C29"/>
<path d="M224.09 94.9022H216.93V83.2827H224.09V94.9022Z" fill="white"/>
<path d="M478.633 63.4375L478.65 63.4238C478.774 63.3047 479.423 62.7185 480.337 62.1734C481.251 61.6284 482.407 61.1613 483.473 61.1658C484.292 61.175 485.087 61.3948 485.984 62.1597C486.853 62.9246 487.761 64.2711 488.512 66.442C489.403 69.048 489.657 71.0083 489.657 72.5563C489.662 74.6768 489.172 75.9959 489.16 77.2829C489.143 78.0477 489.397 78.8446 490.102 79.55C490.796 80.2507 491.851 80.8919 493.476 81.643L494.323 80.4339C492.782 79.7286 491.897 79.1561 491.44 78.6843C490.988 78.2126 490.875 77.8599 490.864 77.2829C490.853 76.3211 491.361 74.8417 491.366 72.5563C491.366 70.8892 491.09 68.7824 490.153 66.071V66.0619C489.358 63.7627 488.376 62.2192 487.231 61.2116C486.091 60.204 484.737 59.7735 483.473 59.7827C481.708 59.7873 480.207 60.5155 479.118 61.1842C478.035 61.8666 477.352 62.5261 477.324 62.5536L478.633 63.4375Z" fill="#22272B"/>
<path d="M524.669 105.056L521.16 107.657L479.225 70.4312L482.723 67.8252L524.669 105.056Z" fill="#4B6270"/>
<path d="M504.139 151.85L501.945 151.245L520.737 106.348L522.932 106.952L504.139 151.85Z" fill="#4B6270"/>
<path d="M508.686 153.105L506.492 152.496L525.279 107.602L527.473 108.212L508.686 153.105Z" fill="#4B6270"/>
<path d="M530.289 106.824C530.289 110.126 526.994 112.801 522.932 112.801C518.875 112.801 515.581 110.126 515.581 106.824C515.581 103.526 518.875 100.852 522.932 100.852C526.994 100.852 530.289 103.526 530.289 106.824Z" fill="#678093"/>
<path d="M527.287 106.824C527.287 108.775 525.341 110.364 522.932 110.364C520.534 110.364 518.582 108.775 518.582 106.824C518.582 104.878 520.534 103.293 522.932 103.293C525.341 103.293 527.287 104.878 527.287 106.824Z" fill="#22272B"/>
<path d="M536.788 161.418H477.324V155.958H536.788V161.418Z" fill="#3A4E5B"/>
<path d="M536.788 157.516H477.324V155.958H536.788V157.516Z" fill="#464E55"/>
<path d="M533.228 155.958H480.89V150.755H533.228V155.958Z" fill="#464E55"/>
<path d="M533.228 155.958H480.89V152.01H533.228V155.958Z" fill="#678093"/>
<path d="M520.212 150.755H493.899V146.862H520.212V150.755Z" fill="#678093"/>
<path d="M468.884 87.2444C464.658 90.5787 457.916 90.5054 453.815 87.0795C449.708 83.6537 449.798 78.176 454.018 74.8418C458.227 71.503 464.974 71.5808 469.081 75.0067C473.183 78.4325 473.093 83.9102 468.884 87.2444Z" fill="white"/>
<path d="M482.915 72.8357C485.99 70.4129 486.052 66.4283 483.062 63.9413C480.083 61.4544 475.174 61.3994 472.111 63.8268L464.077 70.1884L474.875 79.2019L482.915 72.8357Z" fill="#485F6E"/>
<path d="M482.915 72.8358C485.99 70.413 486.052 66.4284 483.062 63.9415C482.616 63.5705 482.125 63.259 481.606 62.9934L470.689 71.6313L475.366 78.8127L482.915 72.8358Z" fill="#485F6E"/>
<path d="M473.144 95.8731C481.555 89.2229 481.73 78.2996 473.55 71.4754C465.358 64.6466 451.908 64.4955 443.508 71.1457L473.144 95.8731Z" fill="#485F6E"/>
<path d="M473.144 95.8732C481.555 89.223 481.73 78.2997 473.55 71.4755C473.115 71.1091 472.658 70.7702 472.19 70.445C472.427 74.6723 471.553 82.4584 463.169 87.5467L473.144 95.8732Z" fill="#485F6E"/>
<path d="M450.198 73.9578L446.458 70.8388C446.458 70.8388 451.468 67.8115 458.543 67.8115C461.843 67.8115 465.595 68.471 469.493 70.3992C469.493 70.3992 467.485 70.0969 464.624 70.0969C460.438 70.0969 454.418 70.7472 450.198 73.9578Z" fill="#485F6E"/>
<path d="M400.015 63.7262C400.015 63.7262 412.625 60.2821 416.106 57.2639C416.106 57.2639 419.327 60.2317 418.464 63.7262H400.015Z" fill="#C1ACDB"/>
<path d="M403.846 63.7262C403.846 63.7262 419.886 61.6423 423.367 58.6241C423.367 58.6241 425.183 61.8392 422.3 63.7262H403.846Z" fill="#E0D8EE"/>
<mask id="mask81_697_26417" style="mask-type:luminance" maskUnits="userSpaceOnUse" x="318" y="46" width="54" height="20">
<path d="M318.103 46.6519H371.542V65.6589H318.103V46.6519Z" fill="white"/>
</mask>
<g mask="url(#mask81_697_26417)">
<path d="M322.87 64.7609C322.87 64.7609 314.854 56.265 322.87 46.6379C322.87 46.6379 339.948 62.4984 370.272 64.7609H322.87Z" fill="#C1ACDB"/>
</g>
<path d="M319.31 64.7612C319.31 64.7612 316.247 63.062 314.854 55.702C314.854 55.702 333.257 63.3506 344.794 64.7612H319.31Z" fill="#DCD0EC"/>
<path d="M426.486 161.092V62.7781H332.98V161.092H426.486Z" fill="#B1DEE3"/>
<path d="M408.354 161.092V62.7781H314.854V161.092H408.354Z" fill="#D8F3FB"/>
<path d="M314.854 107.506V113.36L338.949 104.987L314.854 107.506Z" fill="#B2ACC6"/>
<path d="M407.57 76.4631L402.34 80.5164L365.928 74.3197L407.57 76.4631Z" fill="#B2ACC6"/>
<path d="M374.475 114.642L399.987 127.897L416.106 117.134L374.475 114.642Z" fill="#B2ACC6"/>
<path d="M368.275 113.36H422.3C422.3 113.36 411.615 120.532 408.354 124.681C408.354 124.681 393.589 121.507 368.275 113.36Z" fill="#E0D8EE"/>
<path d="M362.086 73.7289H416.105C416.105 73.7289 405.414 77.1914 402.165 79.1928C402.165 79.1928 387.395 77.6677 362.086 73.7289Z" fill="#E0D8EE"/>
<path d="M394.142 91.0917H416.8L408.354 92.6489L394.142 91.0917Z" fill="#B2ACC6"/>
<path d="M394.142 141.554H416.8L408.354 143.107L394.142 141.554Z" fill="#B2ACC6"/>
<path d="M387.355 155.99H410.001L401.561 157.547L387.355 155.99Z" fill="#B2ACC6"/>
<path d="M314.853 104.397L307.841 110.616L342.216 104.397H314.853Z" fill="#E0D8EE"/>
</svg>
