<svg width="742" height="605" viewBox="0 0 742 605" fill="none" xmlns="http://www.w3.org/2000/svg">
<mask id="mask0_898_32669" style="mask-type:luminance" maskUnits="userSpaceOnUse" x="78" y="257" width="111" height="133">
<path d="M78.3523 257.616H188.118V389.264H78.3523V257.616Z" fill="white"/>
</mask>
<g mask="url(#mask0_898_32669)">
<mask id="mask1_898_32669" style="mask-type:luminance" maskUnits="userSpaceOnUse" x="70" y="257" width="126" height="300">
<path d="M70.3242 264.651V549.55C70.3242 553.434 74.2 556.585 78.9899 556.585H186.408C191.193 556.585 195.074 553.434 195.074 549.55V264.651C195.074 260.762 191.193 257.616 186.408 257.616H78.9899C74.2 257.616 70.3242 260.762 70.3242 264.651Z" fill="white"/>
</mask>
<g mask="url(#mask1_898_32669)">
<path d="M78.3806 297.499C78.3806 293.606 81.0491 290.216 84.987 288.476V276.889C81.0491 275.148 78.3806 271.759 78.3806 267.866C78.3806 262.196 84.0223 257.611 90.9955 257.611H174.318C181.291 257.611 186.944 262.196 186.944 267.866C186.944 271.759 184.264 275.148 180.332 276.889V288.476C184.264 290.216 186.944 293.606 186.944 297.499C186.944 301.401 184.264 304.79 180.332 306.526V344.173C184.264 345.9 186.944 349.294 186.944 353.191C186.944 357.089 184.264 360.474 180.332 362.214V369.249C184.264 370.985 186.944 374.379 186.944 378.272C186.944 383.937 181.291 388.526 174.324 388.526H90.9955C84.0223 388.526 78.3806 383.937 78.3806 378.272C78.3806 374.379 81.0491 370.985 84.987 369.249V362.214C81.0491 360.474 78.3806 357.089 78.3806 353.191C78.3806 349.294 81.0491 345.9 84.987 344.173V306.526C81.0491 304.79 78.3806 301.401 78.3806 297.499Z" fill="#AF46FF"/>
</g>
</g>
<mask id="mask2_898_32669" style="mask-type:luminance" maskUnits="userSpaceOnUse" x="81" y="317" width="103" height="72">
<path d="M81.2409 317.742H183.785V388.091H81.2409V317.742Z" fill="white"/>
</mask>
<g mask="url(#mask2_898_32669)">
<mask id="mask3_898_32669" style="mask-type:luminance" maskUnits="userSpaceOnUse" x="70" y="257" width="126" height="300">
<path d="M70.3242 264.651V549.55C70.3242 553.434 74.2 556.585 78.9899 556.585H186.408C191.193 556.585 195.074 553.434 195.074 549.55V264.651C195.074 260.762 191.193 257.616 186.408 257.616H78.9899C74.2 257.616 70.3242 260.762 70.3242 264.651Z" fill="white"/>
</mask>
<g mask="url(#mask3_898_32669)">
<path d="M81.585 353.828C81.585 350.1 84.0956 347.842 87.8022 346.184V318.837H177.511V346.184C181.218 347.842 183.74 350.1 183.74 353.828C183.74 357.552 181.218 358.839 177.511 360.497V371.118C181.218 372.785 183.74 374.067 183.74 377.791C183.74 383.209 178.42 387.592 171.864 387.592H93.4552C86.8995 387.592 81.585 383.209 81.585 377.791C81.585 374.067 84.0956 372.785 87.8022 371.127V360.497C84.0956 358.839 81.585 357.552 81.585 353.828Z" fill="#AF46FF"/>
</g>
</g>
<mask id="mask4_898_32669" style="mask-type:luminance" maskUnits="userSpaceOnUse" x="81" y="269" width="103" height="8">
<path d="M81.2409 269.671H183.785V276.706H81.2409V269.671Z" fill="white"/>
</mask>
<g mask="url(#mask4_898_32669)">
<mask id="mask5_898_32669" style="mask-type:luminance" maskUnits="userSpaceOnUse" x="70" y="257" width="126" height="300">
<path d="M70.3242 264.651V549.55C70.3242 553.434 74.2 556.585 78.9899 556.585H186.408C191.193 556.585 195.074 553.434 195.074 549.55V264.651C195.074 260.762 191.193 257.616 186.408 257.616H78.9899C74.2 257.616 70.3242 260.762 70.3242 264.651Z" fill="white"/>
</mask>
<g mask="url(#mask5_898_32669)">
<path d="M182.561 269.899C182.623 270.179 182.668 270.467 182.668 270.774C182.668 273.412 180.033 275.547 176.795 275.547H87.4581C84.2084 275.547 81.585 273.412 81.585 270.774C81.585 270.467 81.6302 270.179 81.6866 269.899H182.561Z" fill="#AF46FF"/>
</g>
</g>
<mask id="mask6_898_32669" style="mask-type:luminance" maskUnits="userSpaceOnUse" x="81" y="298" width="103" height="9">
<path d="M81.2409 298.982H183.785V306.017H81.2409V298.982Z" fill="white"/>
</mask>
<g mask="url(#mask6_898_32669)">
<mask id="mask7_898_32669" style="mask-type:luminance" maskUnits="userSpaceOnUse" x="70" y="257" width="126" height="300">
<path d="M70.3242 264.651V549.55C70.3242 553.434 74.2 556.585 78.9899 556.585H186.408C191.193 556.585 195.074 553.434 195.074 549.55V264.651C195.074 260.762 191.193 257.616 186.408 257.616H78.9899C74.2 257.616 70.3242 260.762 70.3242 264.651Z" fill="white"/>
</mask>
<g mask="url(#mask7_898_32669)">
<path d="M182.561 299.212C182.623 299.496 182.668 299.784 182.668 300.082C182.668 302.72 180.033 304.863 176.795 304.863H87.4581C84.2084 304.863 81.585 302.72 81.585 300.082C81.585 299.784 81.6302 299.496 81.6866 299.212H182.561Z" fill="#AF46FF"/>
</g>
</g>
<mask id="mask8_898_32669" style="mask-type:luminance" maskUnits="userSpaceOnUse" x="85" y="354" width="96" height="8">
<path d="M85.5737 354.089H180.896V361.124H85.5737V354.089Z" fill="white"/>
</mask>
<g mask="url(#mask8_898_32669)">
<mask id="mask9_898_32669" style="mask-type:luminance" maskUnits="userSpaceOnUse" x="70" y="257" width="126" height="300">
<path d="M70.3242 264.651V549.55C70.3242 553.434 74.2 556.585 78.9899 556.585H186.408C191.193 556.585 195.074 553.434 195.074 549.55V264.651C195.074 260.762 191.193 257.616 186.408 257.616H78.9899C74.2 257.616 70.3242 260.762 70.3242 264.651Z" fill="white"/>
</mask>
<g mask="url(#mask9_898_32669)">
<path d="M174.245 360.552H91.114C88.09 360.552 85.6415 358.413 85.6415 355.775C85.6415 355.468 85.681 355.188 85.743 354.9H179.61C179.667 355.188 179.712 355.468 179.712 355.775C179.712 358.413 177.263 360.552 174.245 360.552Z" fill="#AF46FF"/>
</g>
</g>
<mask id="mask10_898_32669" style="mask-type:luminance" maskUnits="userSpaceOnUse" x="85" y="379" width="96" height="8">
<path d="M85.5737 379.884H180.896V386.919H85.5737V379.884Z" fill="white"/>
</mask>
<g mask="url(#mask10_898_32669)">
<mask id="mask11_898_32669" style="mask-type:luminance" maskUnits="userSpaceOnUse" x="70" y="257" width="126" height="300">
<path d="M70.3242 264.651V549.55C70.3242 553.434 74.2 556.585 78.9899 556.585H186.408C191.193 556.585 195.074 553.434 195.074 549.55V264.651C195.074 260.763 191.193 257.616 186.408 257.616H78.9899C74.2 257.616 70.3242 260.763 70.3242 264.651Z" fill="white"/>
</mask>
<g mask="url(#mask11_898_32669)">
<path d="M174.741 386.2H91.6047C88.5864 386.2 86.1379 384.061 86.1379 381.418C86.1379 381.116 86.1774 380.832 86.2394 380.548H180.101C180.169 380.832 180.208 381.116 180.208 381.418C180.208 384.061 177.754 386.2 174.741 386.2Z" fill="#AF46FF"/>
</g>
</g>
<mask id="mask12_898_32669" style="mask-type:luminance" maskUnits="userSpaceOnUse" x="85" y="259" width="8" height="5">
<path d="M85.5737 259.118H92.7951V263.808H85.5737V259.118Z" fill="white"/>
</mask>
<g mask="url(#mask12_898_32669)">
<mask id="mask13_898_32669" style="mask-type:luminance" maskUnits="userSpaceOnUse" x="70" y="257" width="126" height="300">
<path d="M70.3242 264.651V549.55C70.3242 553.434 74.2 556.585 78.9899 556.585H186.408C191.193 556.585 195.074 553.434 195.074 549.55V264.651C195.074 260.762 191.193 257.616 186.408 257.616H78.9899C74.2 257.616 70.3242 260.762 70.3242 264.651Z" fill="white"/>
</mask>
<g mask="url(#mask13_898_32669)">
<path d="M85.9856 261.349C85.9856 262.521 87.4242 263.469 89.1901 263.469C90.9616 263.469 92.4002 262.521 92.4002 261.349C92.4002 260.181 90.9616 259.237 89.1901 259.237C87.4242 259.237 85.9856 260.181 85.9856 261.349Z" fill="#AF46FF"/>
</g>
</g>
<mask id="mask14_898_32669" style="mask-type:luminance" maskUnits="userSpaceOnUse" x="87" y="277" width="53" height="4">
<path d="M87.018 277.878H139.012V280.223H87.018V277.878Z" fill="white"/>
</mask>
<g mask="url(#mask14_898_32669)">
<mask id="mask15_898_32669" style="mask-type:luminance" maskUnits="userSpaceOnUse" x="70" y="257" width="126" height="300">
<path d="M70.3242 264.651V549.55C70.3242 553.434 74.2 556.585 78.9899 556.585H186.408C191.193 556.585 195.074 553.434 195.074 549.55V264.651C195.074 260.762 191.193 257.616 186.408 257.616H78.9899C74.2 257.616 70.3242 260.762 70.3242 264.651Z" fill="white"/>
</mask>
<g mask="url(#mask15_898_32669)">
<path d="M87.791 279.266C87.791 278.817 88.2367 278.45 88.7895 278.45H137.669C138.222 278.45 138.668 278.817 138.668 279.266C138.668 279.715 138.222 280.072 137.669 280.072H88.7895C88.2367 280.072 87.791 279.715 87.791 279.266Z" fill="#AF46FF"/>
</g>
</g>
<mask id="mask16_898_32669" style="mask-type:luminance" maskUnits="userSpaceOnUse" x="81" y="289" width="76" height="6">
<path d="M81.2409 289.603H156.344V294.292H81.2409V289.603Z" fill="white"/>
</mask>
<g mask="url(#mask16_898_32669)">
<mask id="mask17_898_32669" style="mask-type:luminance" maskUnits="userSpaceOnUse" x="70" y="257" width="126" height="300">
<path d="M70.3242 264.651V549.55C70.3242 553.434 74.2 556.585 78.9899 556.585H186.408C191.193 556.585 195.074 553.434 195.074 549.55V264.651C195.074 260.762 191.193 257.616 186.408 257.616H78.9899C74.2 257.616 70.3242 260.762 70.3242 264.651Z" fill="white"/>
</mask>
<g mask="url(#mask17_898_32669)">
<path d="M152.789 293.917H84.4115C83.1478 293.917 82.1097 293.079 82.1097 292.044C82.1097 291.013 83.1478 290.17 84.4115 290.17H152.789C154.064 290.17 155.091 291.013 155.091 292.044C155.091 293.079 154.064 293.917 152.789 293.917Z" fill="#AF46FF"/>
</g>
</g>
<mask id="mask18_898_32669" style="mask-type:luminance" maskUnits="userSpaceOnUse" x="88" y="306" width="33" height="4">
<path d="M88.4623 306.018H120.236V309.535H88.4623V306.018Z" fill="white"/>
</mask>
<g mask="url(#mask18_898_32669)">
<mask id="mask19_898_32669" style="mask-type:luminance" maskUnits="userSpaceOnUse" x="70" y="257" width="126" height="300">
<path d="M70.3242 264.651V549.55C70.3242 553.434 74.2 556.585 78.9899 556.585H186.408C191.193 556.585 195.074 553.434 195.074 549.55V264.651C195.074 260.763 191.193 257.616 186.408 257.616H78.9899C74.2 257.616 70.3242 260.763 70.3242 264.651Z" fill="white"/>
</mask>
<g mask="url(#mask19_898_32669)">
<path d="M89.1901 307.273C89.1901 307.9 89.8163 308.413 90.5949 308.413H118.239C119.012 308.413 119.638 307.9 119.638 307.273C119.638 306.645 119.012 306.137 118.239 306.137H90.5949C89.8163 306.137 89.1901 306.645 89.1901 307.273Z" fill="#AF46FF"/>
</g>
</g>
<mask id="mask20_898_32669" style="mask-type:luminance" maskUnits="userSpaceOnUse" x="84" y="371" width="64" height="6">
<path d="M84.1295 371.677H147.678V376.366H84.1295V371.677Z" fill="white"/>
</mask>
<g mask="url(#mask20_898_32669)">
<mask id="mask21_898_32669" style="mask-type:luminance" maskUnits="userSpaceOnUse" x="70" y="257" width="126" height="300">
<path d="M70.3242 264.651V549.55C70.3242 553.434 74.2 556.585 78.9899 556.585H186.408C191.193 556.585 195.074 553.434 195.074 549.55V264.651C195.074 260.763 191.193 257.616 186.408 257.616H78.9899C74.2 257.616 70.3242 260.763 70.3242 264.651Z" fill="white"/>
</mask>
<g mask="url(#mask21_898_32669)">
<path d="M145.472 375.341H87.1873C86.1943 375.341 85.3876 374.681 85.3876 373.875C85.3876 373.06 86.1943 372.405 87.1873 372.405H145.472C146.471 372.405 147.283 373.06 147.283 373.875C147.283 374.681 146.471 375.341 145.472 375.341Z" fill="#AF46FF"/>
</g>
</g>
<mask id="mask22_898_32669" style="mask-type:luminance" maskUnits="userSpaceOnUse" x="150" y="323" width="10" height="7">
<path d="M150.566 323.605H159.232V329.467H150.566V323.605Z" fill="white"/>
</mask>
<g mask="url(#mask22_898_32669)">
<mask id="mask23_898_32669" style="mask-type:luminance" maskUnits="userSpaceOnUse" x="70" y="257" width="126" height="300">
<path d="M70.3241 264.651V549.55C70.3241 553.434 74.2 556.585 78.9898 556.585H186.408C191.192 556.585 195.074 553.434 195.074 549.55V264.651C195.074 260.762 191.192 257.616 186.408 257.616H78.9898C74.2 257.616 70.3241 260.762 70.3241 264.651Z" fill="white"/>
</mask>
<g mask="url(#mask23_898_32669)">
<path d="M150.589 326.815C150.589 328.157 152.4 329.252 154.634 329.252C156.879 329.252 158.69 328.157 158.69 326.815C158.69 325.464 156.879 324.37 154.634 324.37C152.4 324.37 150.589 325.464 150.589 326.815Z" fill="#AF46FF"/>
</g>
</g>
<mask id="mask24_898_32669" style="mask-type:luminance" maskUnits="userSpaceOnUse" x="143" y="325" width="5" height="5">
<path d="M143.345 325.95H147.678V329.467H143.345V325.95Z" fill="white"/>
</mask>
<g mask="url(#mask24_898_32669)">
<mask id="mask25_898_32669" style="mask-type:luminance" maskUnits="userSpaceOnUse" x="70" y="257" width="126" height="300">
<path d="M70.3242 264.651V549.55C70.3242 553.434 74.2 556.585 78.9899 556.585H186.408C191.193 556.585 195.074 553.434 195.074 549.55V264.651C195.074 260.762 191.193 257.616 186.408 257.616H78.9899C74.2 257.616 70.3242 260.762 70.3242 264.651Z" fill="white"/>
</mask>
<g mask="url(#mask25_898_32669)">
<path d="M143.373 328.029C143.373 328.707 144.248 329.252 145.331 329.252C146.403 329.252 147.283 328.707 147.283 328.029C147.283 327.36 146.403 326.815 145.331 326.815C144.248 326.815 143.373 327.36 143.373 328.029Z" fill="#AF46FF"/>
</g>
</g>
<mask id="mask26_898_32669" style="mask-type:luminance" maskUnits="userSpaceOnUse" x="94" y="260" width="8" height="4">
<path d="M94.2394 260.291H101.461V263.808H94.2394V260.291Z" fill="white"/>
</mask>
<g mask="url(#mask26_898_32669)">
<mask id="mask27_898_32669" style="mask-type:luminance" maskUnits="userSpaceOnUse" x="70" y="257" width="126" height="300">
<path d="M70.3241 264.651V549.55C70.3241 553.434 74.2 556.585 78.9898 556.585H186.408C191.192 556.585 195.074 553.434 195.074 549.55V264.651C195.074 260.762 191.192 257.616 186.408 257.616H78.9898C74.2 257.616 70.3241 260.762 70.3241 264.651Z" fill="white"/>
</mask>
<g mask="url(#mask27_898_32669)">
<path d="M94.9954 262.407C94.9954 262.997 96.3437 263.469 98.0024 263.469C99.6667 263.469 101.009 262.997 101.009 262.407C101.009 261.82 99.6667 261.349 98.0024 261.349C96.3437 261.349 94.9954 261.82 94.9954 262.407Z" fill="#AF46FF"/>
</g>
</g>
<mask id="mask28_898_32669" style="mask-type:luminance" maskUnits="userSpaceOnUse" x="123" y="341" width="56" height="4">
<path d="M123.125 341.192H178.008V344.709H123.125V341.192Z" fill="white"/>
</mask>
<g mask="url(#mask28_898_32669)">
<mask id="mask29_898_32669" style="mask-type:luminance" maskUnits="userSpaceOnUse" x="70" y="257" width="126" height="300">
<path d="M70.3242 264.651V549.55C70.3242 553.434 74.2 556.585 78.9899 556.585H186.408C191.193 556.585 195.074 553.434 195.074 549.55V264.651C195.074 260.762 191.193 257.616 186.408 257.616H78.9899C74.2 257.616 70.3242 260.762 70.3242 264.651Z" fill="white"/>
</mask>
<g mask="url(#mask29_898_32669)">
<path d="M175.418 344.073H125.748C124.976 344.073 124.344 343.564 124.344 342.928C124.344 342.305 124.976 341.792 125.748 341.792H175.418C176.197 341.792 176.823 342.305 176.823 342.928C176.823 343.564 176.197 344.073 175.418 344.073Z" fill="#AF46FF"/>
</g>
</g>
<mask id="mask30_898_32669" style="mask-type:luminance" maskUnits="userSpaceOnUse" x="123" y="368" width="56" height="4">
<path d="M123.125 368.159H178.008V371.676H123.125V368.159Z" fill="white"/>
</mask>
<g mask="url(#mask30_898_32669)">
<mask id="mask31_898_32669" style="mask-type:luminance" maskUnits="userSpaceOnUse" x="70" y="257" width="126" height="300">
<path d="M70.3242 264.651V549.55C70.3242 553.434 74.2 556.585 78.9899 556.585H186.408C191.193 556.585 195.074 553.434 195.074 549.55V264.651C195.074 260.762 191.193 257.616 186.408 257.616H78.9899C74.2 257.616 70.3242 260.762 70.3242 264.651Z" fill="white"/>
</mask>
<g mask="url(#mask31_898_32669)">
<path d="M175.418 370.774H125.748C124.976 370.774 124.344 370.266 124.344 369.638C124.344 369.011 124.976 368.498 125.748 368.498H175.418C176.197 368.498 176.823 369.011 176.823 369.638C176.823 370.266 176.197 370.774 175.418 370.774Z" fill="#AF46FF"/>
</g>
</g>
<mask id="mask32_898_32669" style="mask-type:luminance" maskUnits="userSpaceOnUse" x="130" y="284" width="49" height="5">
<path d="M130.346 284.913H178.008V288.43H130.346V284.913Z" fill="white"/>
</mask>
<g mask="url(#mask32_898_32669)">
<mask id="mask33_898_32669" style="mask-type:luminance" maskUnits="userSpaceOnUse" x="70" y="257" width="126" height="300">
<path d="M70.3241 264.651V549.55C70.3241 553.434 74.2 556.585 78.9898 556.585H186.408C191.192 556.585 195.074 553.434 195.074 549.55V264.651C195.074 260.762 191.192 257.616 186.408 257.616H78.9898C74.2 257.616 70.3241 260.762 70.3241 264.651Z" fill="white"/>
</mask>
<g mask="url(#mask33_898_32669)">
<path d="M175.604 287.894H132.282C131.599 287.894 131.057 287.386 131.057 286.749C131.057 286.126 131.599 285.614 132.282 285.614H175.604C176.281 285.614 176.823 286.126 176.823 286.749C176.823 287.386 176.281 287.894 175.604 287.894Z" fill="#AF46FF"/>
</g>
</g>
<mask id="mask34_898_32669" style="mask-type:luminance" maskUnits="userSpaceOnUse" x="70" y="388" width="125" height="169">
<path d="M70.3242 388.091H194.893V556.599H70.3242V388.091Z" fill="white"/>
</mask>
<g mask="url(#mask34_898_32669)">
<mask id="mask35_898_32669" style="mask-type:luminance" maskUnits="userSpaceOnUse" x="70" y="257" width="126" height="300">
<path d="M70.3242 264.651V549.55C70.3242 553.434 74.2 556.585 78.9899 556.585H186.408C191.193 556.585 195.074 553.434 195.074 549.55V264.651C195.074 260.762 191.193 257.616 186.408 257.616H78.9899C74.2 257.616 70.3242 260.762 70.3242 264.651Z" fill="white"/>
</mask>
<g mask="url(#mask35_898_32669)">
<path d="M70.5667 556.576H194.752V388.572H70.5667V556.576Z" fill="#AF46FF"/>
</g>
</g>
<mask id="mask36_898_32669" style="mask-type:luminance" maskUnits="userSpaceOnUse" x="70" y="388" width="125" height="12">
<path d="M70.3242 388.091H194.893V399.816H70.3242V388.091Z" fill="white"/>
</mask>
<g mask="url(#mask36_898_32669)">
<mask id="mask37_898_32669" style="mask-type:luminance" maskUnits="userSpaceOnUse" x="70" y="257" width="126" height="300">
<path d="M70.3242 264.651V549.55C70.3242 553.434 74.2 556.585 78.9899 556.585H186.408C191.193 556.585 195.074 553.434 195.074 549.55V264.651C195.074 260.762 191.193 257.616 186.408 257.616H78.9899C74.2 257.616 70.3242 260.762 70.3242 264.651Z" fill="white"/>
</mask>
<g mask="url(#mask37_898_32669)">
<path d="M70.5667 399.601V388.572H194.752V399.601H70.5667Z" fill="#AF46FF"/>
</g>
</g>
<mask id="mask38_898_32669" style="mask-type:luminance" maskUnits="userSpaceOnUse" x="179" y="398" width="4" height="159">
<path d="M179.452 398.643H182.341V556.598H179.452V398.643Z" fill="white"/>
</mask>
<g mask="url(#mask38_898_32669)">
<mask id="mask39_898_32669" style="mask-type:luminance" maskUnits="userSpaceOnUse" x="70" y="257" width="126" height="300">
<path d="M70.3242 264.651V549.55C70.3242 553.434 74.2 556.585 78.9899 556.585H186.408C191.193 556.585 195.074 553.434 195.074 549.55V264.651C195.074 260.762 191.193 257.616 186.408 257.616H78.9899C74.2 257.616 70.3242 260.762 70.3242 264.651Z" fill="white"/>
</mask>
<g mask="url(#mask39_898_32669)">
<path d="M179.751 556.576H181.5V399.601H179.751V556.576Z" fill="#AF46FF"/>
</g>
</g>
<mask id="mask40_898_32669" style="mask-type:luminance" maskUnits="userSpaceOnUse" x="82" y="398" width="4" height="159">
<path d="M82.6851 398.643H85.5737V556.598H82.6851V398.643Z" fill="white"/>
</mask>
<g mask="url(#mask40_898_32669)">
<mask id="mask41_898_32669" style="mask-type:luminance" maskUnits="userSpaceOnUse" x="70" y="257" width="126" height="300">
<path d="M70.3241 264.651V549.55C70.3241 553.434 74.2 556.585 78.9898 556.585H186.408C191.192 556.585 195.074 553.434 195.074 549.55V264.651C195.074 260.762 191.192 257.616 186.408 257.616H78.9898C74.2 257.616 70.3241 260.762 70.3241 264.651Z" fill="white"/>
</mask>
<g mask="url(#mask41_898_32669)">
<path d="M83.8135 556.576H85.5681V399.601H83.8135V556.576Z" fill="#AF46FF"/>
</g>
</g>
<mask id="mask42_898_32669" style="mask-type:luminance" maskUnits="userSpaceOnUse" x="97" y="416" width="73" height="23">
<path d="M97.128 416.23H169.342V438.508H97.128V416.23Z" fill="white"/>
</mask>
<g mask="url(#mask42_898_32669)">
<mask id="mask43_898_32669" style="mask-type:luminance" maskUnits="userSpaceOnUse" x="70" y="257" width="126" height="300">
<path d="M70.3242 264.651V549.55C70.3242 553.434 74.2 556.585 78.9899 556.585H186.408C191.193 556.585 195.074 553.434 195.074 549.55V264.651C195.074 260.762 191.193 257.616 186.408 257.616H78.9899C74.2 257.616 70.3242 260.762 70.3242 264.651Z" fill="white"/>
</mask>
<g mask="url(#mask43_898_32669)">
<path d="M97.3029 437.702H168.011V416.693H97.3029V437.702Z" fill="#AF46FF"/>
</g>
</g>
<mask id="mask44_898_32669" style="mask-type:luminance" maskUnits="userSpaceOnUse" x="108" y="419" width="50" height="16">
<path d="M108.682 419.748H157.788V434.99H108.682V419.748Z" fill="white"/>
</mask>
<g mask="url(#mask44_898_32669)">
<mask id="mask45_898_32669" style="mask-type:luminance" maskUnits="userSpaceOnUse" x="70" y="257" width="126" height="300">
<path d="M70.3242 264.651V549.55C70.3242 553.434 74.2 556.585 78.9899 556.585H186.408C191.193 556.585 195.074 553.434 195.074 549.55V264.651C195.074 260.762 191.193 257.616 186.408 257.616H78.9899C74.2 257.616 70.3242 260.762 70.3242 264.651Z" fill="white"/>
</mask>
<g mask="url(#mask45_898_32669)">
<path d="M108.818 434.28H156.502V420.119H108.818V434.28Z" fill="#AF46FF"/>
</g>
</g>
<mask id="mask46_898_32669" style="mask-type:luminance" maskUnits="userSpaceOnUse" x="110" y="422" width="45" height="11">
<path d="M110.127 422.093H154.899V432.645H110.127V422.093Z" fill="white"/>
</mask>
<g mask="url(#mask46_898_32669)">
<mask id="mask47_898_32669" style="mask-type:luminance" maskUnits="userSpaceOnUse" x="70" y="257" width="126" height="300">
<path d="M70.3242 264.651V549.55C70.3242 553.434 74.2 556.585 78.9899 556.585H186.408C191.193 556.585 195.074 553.434 195.074 549.55V264.651C195.074 260.762 191.193 257.616 186.408 257.616H78.9899C74.2 257.616 70.3242 260.762 70.3242 264.651Z" fill="white"/>
</mask>
<g mask="url(#mask47_898_32669)">
<path d="M110.679 431.775H154.634V422.629H110.679V431.775Z" fill="#AF46FF"/>
</g>
</g>
<mask id="mask48_898_32669" style="mask-type:luminance" maskUnits="userSpaceOnUse" x="159" y="420" width="7" height="5">
<path d="M159.232 420.921H165.009V424.438H159.232V420.921Z" fill="white"/>
</mask>
<g mask="url(#mask48_898_32669)">
<mask id="mask49_898_32669" style="mask-type:luminance" maskUnits="userSpaceOnUse" x="70" y="257" width="126" height="300">
<path d="M70.3242 264.651V549.55C70.3242 553.434 74.2 556.585 78.9899 556.585H186.408C191.193 556.585 195.074 553.434 195.074 549.55V264.651C195.074 260.762 191.193 257.616 186.408 257.616H78.9899C74.2 257.616 70.3242 260.762 70.3242 264.651Z" fill="white"/>
</mask>
<g mask="url(#mask49_898_32669)">
<path d="M160.304 422.597C160.304 423.522 161.212 424.269 162.352 424.269C163.486 424.269 164.406 423.522 164.406 422.597C164.406 421.681 163.486 420.93 162.352 420.93C161.212 420.93 160.304 421.681 160.304 422.597Z" fill="#AF46FF"/>
</g>
</g>
<mask id="mask50_898_32669" style="mask-type:luminance" maskUnits="userSpaceOnUse" x="159" y="424" width="7" height="6">
<path d="M159.232 424.438H165.009V429.128H159.232V424.438Z" fill="white"/>
</mask>
<g mask="url(#mask50_898_32669)">
<mask id="mask51_898_32669" style="mask-type:luminance" maskUnits="userSpaceOnUse" x="70" y="257" width="126" height="300">
<path d="M70.3242 264.651V549.55C70.3242 553.434 74.2 556.585 78.9899 556.585H186.408C191.193 556.585 195.074 553.434 195.074 549.55V264.651C195.074 260.762 191.193 257.616 186.408 257.616H78.9899C74.2 257.616 70.3242 260.762 70.3242 264.651Z" fill="white"/>
</mask>
<g mask="url(#mask51_898_32669)">
<path d="M160.304 427.2C160.304 428.12 161.212 428.871 162.352 428.871C163.486 428.871 164.406 428.12 164.406 427.2C164.406 426.279 163.486 425.528 162.352 425.528C161.212 425.528 160.304 426.279 160.304 427.2Z" fill="#AF46FF"/>
</g>
</g>
<mask id="mask52_898_32669" style="mask-type:luminance" maskUnits="userSpaceOnUse" x="159" y="429" width="7" height="5">
<path d="M159.232 429.128H165.009V433.818H159.232V429.128Z" fill="white"/>
</mask>
<g mask="url(#mask52_898_32669)">
<mask id="mask53_898_32669" style="mask-type:luminance" maskUnits="userSpaceOnUse" x="70" y="257" width="126" height="300">
<path d="M70.3242 264.651V549.55C70.3242 553.434 74.2 556.585 78.9899 556.585H186.408C191.193 556.585 195.074 553.434 195.074 549.55V264.651C195.074 260.762 191.193 257.616 186.408 257.616H78.9899C74.2 257.616 70.3242 260.762 70.3242 264.651Z" fill="white"/>
</mask>
<g mask="url(#mask53_898_32669)">
<path d="M160.304 431.798C160.304 432.723 161.212 433.47 162.352 433.47C163.486 433.47 164.406 432.723 164.406 431.798C164.406 430.882 163.486 430.131 162.352 430.131C161.212 430.131 160.304 430.882 160.304 431.798Z" fill="#AF46FF"/>
</g>
</g>
<mask id="mask54_898_32669" style="mask-type:luminance" maskUnits="userSpaceOnUse" x="101" y="420" width="7" height="5">
<path d="M101.461 420.921H107.238V424.438H101.461V420.921Z" fill="white"/>
</mask>
<g mask="url(#mask54_898_32669)">
<mask id="mask55_898_32669" style="mask-type:luminance" maskUnits="userSpaceOnUse" x="70" y="257" width="126" height="300">
<path d="M70.3242 264.651V549.55C70.3242 553.434 74.2 556.585 78.9899 556.585H186.408C191.193 556.585 195.074 553.434 195.074 549.55V264.651C195.074 260.762 191.193 257.616 186.408 257.616H78.9899C74.2 257.616 70.3242 260.762 70.3242 264.651Z" fill="white"/>
</mask>
<g mask="url(#mask55_898_32669)">
<path d="M102.211 422.597C102.211 423.522 103.125 424.269 104.259 424.269C105.393 424.269 106.318 423.522 106.318 422.597C106.318 421.681 105.393 420.93 104.259 420.93C103.125 420.93 102.211 421.681 102.211 422.597Z" fill="#AF46FF"/>
</g>
</g>
<mask id="mask56_898_32669" style="mask-type:luminance" maskUnits="userSpaceOnUse" x="101" y="424" width="7" height="6">
<path d="M101.461 424.438H107.238V429.128H101.461V424.438Z" fill="white"/>
</mask>
<g mask="url(#mask56_898_32669)">
<mask id="mask57_898_32669" style="mask-type:luminance" maskUnits="userSpaceOnUse" x="70" y="257" width="126" height="300">
<path d="M70.3242 264.651V549.55C70.3242 553.434 74.2 556.585 78.9899 556.585H186.408C191.193 556.585 195.074 553.434 195.074 549.55V264.651C195.074 260.762 191.193 257.616 186.408 257.616H78.9899C74.2 257.616 70.3242 260.762 70.3242 264.651Z" fill="white"/>
</mask>
<g mask="url(#mask57_898_32669)">
<path d="M102.211 427.2C102.211 428.12 103.125 428.871 104.259 428.871C105.393 428.871 106.318 428.12 106.318 427.2C106.318 426.279 105.393 425.528 104.259 425.528C103.125 425.528 102.211 426.279 102.211 427.2Z" fill="#AF46FF"/>
</g>
</g>
<mask id="mask58_898_32669" style="mask-type:luminance" maskUnits="userSpaceOnUse" x="101" y="429" width="7" height="5">
<path d="M101.461 429.128H107.238V433.818H101.461V429.128Z" fill="white"/>
</mask>
<g mask="url(#mask58_898_32669)">
<mask id="mask59_898_32669" style="mask-type:luminance" maskUnits="userSpaceOnUse" x="70" y="257" width="126" height="300">
<path d="M70.3242 264.651V549.55C70.3242 553.434 74.2 556.585 78.9899 556.585H186.408C191.193 556.585 195.074 553.434 195.074 549.55V264.651C195.074 260.762 191.193 257.616 186.408 257.616H78.9899C74.2 257.616 70.3242 260.762 70.3242 264.651Z" fill="white"/>
</mask>
<g mask="url(#mask59_898_32669)">
<path d="M102.211 431.798C102.211 432.723 103.125 433.47 104.259 433.47C105.393 433.47 106.318 432.723 106.318 431.798C106.318 430.882 105.393 430.131 104.259 430.131C103.125 430.131 102.211 430.882 102.211 431.798Z" fill="#AF46FF"/>
</g>
</g>
<mask id="mask60_898_32669" style="mask-type:luminance" maskUnits="userSpaceOnUse" x="97" y="442" width="73" height="57">
<path d="M97.128 442.025H169.342V498.304H97.128V442.025Z" fill="white"/>
</mask>
<g mask="url(#mask60_898_32669)">
<mask id="mask61_898_32669" style="mask-type:luminance" maskUnits="userSpaceOnUse" x="70" y="257" width="126" height="300">
<path d="M70.3242 264.651V549.55C70.3242 553.434 74.2 556.585 78.9899 556.585H186.408C191.193 556.585 195.074 553.434 195.074 549.55V264.651C195.074 260.763 191.193 257.616 186.408 257.616H78.9899C74.2 257.616 70.3242 260.763 70.3242 264.651Z" fill="white"/>
</mask>
<g mask="url(#mask61_898_32669)">
<path d="M97.3029 497.466H168.011V442.099H97.3029V497.466Z" fill="#AF46FF"/>
</g>
</g>
<mask id="mask62_898_32669" style="mask-type:luminance" maskUnits="userSpaceOnUse" x="97" y="442" width="11" height="57">
<path d="M97.128 442.025H107.238V498.304H97.128V442.025Z" fill="white"/>
</mask>
<g mask="url(#mask62_898_32669)">
<mask id="mask63_898_32669" style="mask-type:luminance" maskUnits="userSpaceOnUse" x="70" y="257" width="126" height="300">
<path d="M70.3242 264.651V549.55C70.3242 553.434 74.2 556.585 78.9899 556.585H186.408C191.193 556.585 195.074 553.434 195.074 549.55V264.651C195.074 260.763 191.193 257.616 186.408 257.616H78.9899C74.2 257.616 70.3242 260.763 70.3242 264.651Z" fill="white"/>
</mask>
<g mask="url(#mask63_898_32669)">
<path d="M97.3029 497.466H106.318V442.099H97.3029V497.466Z" fill="#AF46FF"/>
</g>
</g>
<mask id="mask64_898_32669" style="mask-type:luminance" maskUnits="userSpaceOnUse" x="159" y="442" width="11" height="57">
<path d="M159.232 442.025H169.342V498.304H159.232V442.025Z" fill="white"/>
</mask>
<g mask="url(#mask64_898_32669)">
<mask id="mask65_898_32669" style="mask-type:luminance" maskUnits="userSpaceOnUse" x="70" y="257" width="126" height="300">
<path d="M70.3242 264.651V549.55C70.3242 553.434 74.2 556.585 78.9899 556.585H186.408C191.193 556.585 195.074 553.434 195.074 549.55V264.651C195.074 260.763 191.193 257.616 186.408 257.616H78.9899C74.2 257.616 70.3242 260.763 70.3242 264.651Z" fill="white"/>
</mask>
<g mask="url(#mask65_898_32669)">
<path d="M160.304 497.466H168.011V442.099H160.304V497.466Z" fill="#AF46FF"/>
</g>
</g>
<mask id="mask66_898_32669" style="mask-type:luminance" maskUnits="userSpaceOnUse" x="97" y="488" width="73" height="11">
<path d="M97.128 488.924H169.342V498.304H97.128V488.924Z" fill="white"/>
</mask>
<g mask="url(#mask66_898_32669)">
<mask id="mask67_898_32669" style="mask-type:luminance" maskUnits="userSpaceOnUse" x="70" y="257" width="126" height="300">
<path d="M70.3242 264.651V549.55C70.3242 553.434 74.2 556.585 78.9899 556.585H186.408C191.193 556.585 195.074 553.434 195.074 549.55V264.651C195.074 260.762 191.193 257.616 186.408 257.616H78.9899C74.2 257.616 70.3242 260.762 70.3242 264.651Z" fill="white"/>
</mask>
<g mask="url(#mask67_898_32669)">
<path d="M97.3029 497.466H168.011L160.304 489.653H106.318L97.3029 497.466Z" fill="#AF46FF"/>
</g>
</g>
<mask id="mask68_898_32669" style="mask-type:luminance" maskUnits="userSpaceOnUse" x="136" y="442" width="21" height="8">
<path d="M136.124 442.025H156.344V449.06H136.124V442.025Z" fill="white"/>
</mask>
<g mask="url(#mask68_898_32669)">
<mask id="mask69_898_32669" style="mask-type:luminance" maskUnits="userSpaceOnUse" x="70" y="257" width="126" height="300">
<path d="M70.3241 264.651V549.55C70.3241 553.434 74.2 556.585 78.9898 556.585H186.408C191.192 556.585 195.074 553.434 195.074 549.55V264.651C195.074 260.763 191.192 257.616 186.408 257.616H78.9898C74.2 257.616 70.3241 260.763 70.3241 264.651Z" fill="white"/>
</mask>
<g mask="url(#mask69_898_32669)">
<path d="M136.535 447.956H155.966V442.099H136.535V447.956Z" fill="#AF46FF"/>
</g>
</g>
<mask id="mask70_898_32669" style="mask-type:luminance" maskUnits="userSpaceOnUse" x="108" y="442" width="21" height="8">
<path d="M108.682 442.025H128.902V449.06H108.682V442.025Z" fill="white"/>
</mask>
<g mask="url(#mask70_898_32669)">
<mask id="mask71_898_32669" style="mask-type:luminance" maskUnits="userSpaceOnUse" x="70" y="257" width="126" height="300">
<path d="M70.3242 264.651V549.55C70.3242 553.434 74.2 556.585 78.9899 556.585H186.408C191.193 556.585 195.074 553.434 195.074 549.55V264.651C195.074 260.763 191.193 257.616 186.408 257.616H78.9899C74.2 257.616 70.3242 260.763 70.3242 264.651Z" fill="white"/>
</mask>
<g mask="url(#mask71_898_32669)">
<path d="M109.348 447.956H128.778V442.099H109.348V447.956Z" fill="#AF46FF"/>
</g>
</g>
<mask id="mask72_898_32669" style="mask-type:luminance" maskUnits="userSpaceOnUse" x="139" y="447" width="15" height="7">
<path d="M139.012 447.887H153.455V453.75H139.012V447.887Z" fill="white"/>
</mask>
<g mask="url(#mask72_898_32669)">
<mask id="mask73_898_32669" style="mask-type:luminance" maskUnits="userSpaceOnUse" x="70" y="257" width="126" height="300">
<path d="M70.3242 264.651V549.55C70.3242 553.434 74.2 556.585 78.9899 556.585H186.408C191.193 556.585 195.074 553.434 195.074 549.55V264.651C195.074 260.762 191.193 257.616 186.408 257.616H78.9899C74.2 257.616 70.3242 260.762 70.3242 264.651Z" fill="white"/>
</mask>
<g mask="url(#mask73_898_32669)">
<path d="M141.167 453.416H151.339L152.236 447.956H140.265L141.167 453.416Z" fill="#AF46FF"/>
</g>
</g>
<mask id="mask74_898_32669" style="mask-type:luminance" maskUnits="userSpaceOnUse" x="111" y="447" width="16" height="7">
<path d="M111.571 447.887H126.014V453.75H111.571V447.887Z" fill="white"/>
</mask>
<g mask="url(#mask74_898_32669)">
<mask id="mask75_898_32669" style="mask-type:luminance" maskUnits="userSpaceOnUse" x="70" y="257" width="126" height="300">
<path d="M70.3242 264.651V549.55C70.3242 553.434 74.2 556.585 78.9899 556.585H186.408C191.193 556.585 195.074 553.434 195.074 549.55V264.651C195.074 260.762 191.193 257.616 186.408 257.616H78.9899C74.2 257.616 70.3242 260.762 70.3242 264.651Z" fill="white"/>
</mask>
<g mask="url(#mask75_898_32669)">
<path d="M113.596 453.416H123.774L124.665 447.956H112.699L113.596 453.416Z" fill="#AF46FF"/>
</g>
</g>
<mask id="mask76_898_32669" style="mask-type:luminance" maskUnits="userSpaceOnUse" x="137" y="473" width="20" height="20">
<path d="M137.568 473.682H156.344V492.442H137.568V473.682Z" fill="white"/>
</mask>
<g mask="url(#mask76_898_32669)">
<mask id="mask77_898_32669" style="mask-type:luminance" maskUnits="userSpaceOnUse" x="70" y="257" width="126" height="300">
<path d="M70.3241 264.651V549.55C70.3241 553.434 74.2 556.585 78.9898 556.585H186.408C191.192 556.585 195.074 553.434 195.074 549.55V264.651C195.074 260.762 191.192 257.616 186.408 257.616H78.9898C74.2 257.616 70.3241 260.762 70.3241 264.651Z" fill="white"/>
</mask>
<g mask="url(#mask77_898_32669)">
<path d="M140.078 492.071H152.975L155.181 474.14H137.861L140.078 492.071Z" fill="#AF46FF"/>
</g>
</g>
<mask id="mask78_898_32669" style="mask-type:luminance" maskUnits="userSpaceOnUse" x="110" y="473" width="19" height="20">
<path d="M110.127 473.682H128.902V492.442H110.127V473.682Z" fill="white"/>
</mask>
<g mask="url(#mask78_898_32669)">
<mask id="mask79_898_32669" style="mask-type:luminance" maskUnits="userSpaceOnUse" x="70" y="257" width="126" height="300">
<path d="M70.3242 264.651V549.55C70.3242 553.434 74.2 556.585 78.9899 556.585H186.408C191.193 556.585 195.074 553.434 195.074 549.55V264.651C195.074 260.762 191.193 257.616 186.408 257.616H78.9899C74.2 257.616 70.3242 260.762 70.3242 264.651Z" fill="white"/>
</mask>
<g mask="url(#mask79_898_32669)">
<path d="M113.675 492.071H126.567L128.778 474.14H111.464L113.675 492.071Z" fill="#AF46FF"/>
</g>
</g>
<mask id="mask80_898_32669" style="mask-type:luminance" maskUnits="userSpaceOnUse" x="199" y="160" width="349" height="389">
<path d="M199.407 160.63H547.118V548.721H199.407V160.63Z" fill="white"/>
</mask>
<g mask="url(#mask80_898_32669)">
<path d="M547.146 548.638H199.379V161.669H547.146V548.638Z" fill="#AF46FF"/>
</g>
<path d="M364.913 255.289H209.5V170.097H364.913V255.289Z" fill="#AF46FF"/>
<path d="M353.968 249.289V248.506H221.404V176.88H353.003V249.289H353.968H354.932V175.313H219.48V250.073H354.932V249.289H353.968Z" fill="#AF46FF"/>
<path d="M316.422 212.695C316.422 214.711 313.985 216.341 310.966 216.341H263.446C260.428 216.341 257.985 214.711 257.985 212.695C257.985 210.676 260.428 209.036 263.446 209.036H310.966C313.985 209.036 316.422 210.676 316.422 212.695Z" fill="#AF46FF"/>
<path d="M310.002 201.653H264.4V195.397H310.002V201.653Z" fill="#AF46FF"/>
<path d="M364.913 346.578H209.5V261.381H364.913V346.578Z" fill="#AF46FF"/>
<path d="M353.968 340.573V339.795H221.404V268.164H353.003V340.573H353.968H354.932V266.602H219.48V341.361H354.932V340.573H353.968Z" fill="#AF46FF"/>
<path d="M316.422 303.979C316.422 305.999 313.985 307.634 310.966 307.634H263.446C260.428 307.634 257.985 305.999 257.985 303.979C257.985 301.96 260.428 300.329 263.446 300.329H310.966C313.985 300.329 316.422 301.96 316.422 303.979Z" fill="#AF46FF"/>
<path d="M310.002 292.946H264.4V286.685H310.002V292.946Z" fill="#AF46FF"/>
<path d="M364.913 437.862H209.5V352.669H364.913V437.862Z" fill="#AF46FF"/>
<path d="M353.968 431.867V431.084H221.404V359.457H353.003V431.867H353.968H354.932V357.886H219.48V432.645H354.932V431.867H353.968Z" fill="#AF46FF"/>
<path d="M316.422 395.268C316.422 397.288 313.985 398.923 310.966 398.923H263.446C260.428 398.923 257.985 397.288 257.985 395.268C257.985 393.253 260.428 391.618 263.446 391.618H310.966C313.985 391.618 316.422 393.253 316.422 395.268Z" fill="#AF46FF"/>
<path d="M310.002 384.235H264.4V377.974H310.002V384.235Z" fill="#AF46FF"/>
<path d="M364.913 529.151H209.5V443.963H364.913V529.151Z" fill="#AF46FF"/>
<path d="M353.968 523.155V522.368H221.404V450.746H353.003V523.155H353.968H354.932V449.179H219.48V523.934H354.932V523.155H353.968Z" fill="#AF46FF"/>
<path d="M316.422 486.557C316.422 488.572 313.985 490.207 310.966 490.207H263.446C260.428 490.207 257.985 488.572 257.985 486.557C257.985 484.541 260.428 482.906 263.446 482.906H310.966C313.985 482.906 316.422 484.541 316.422 486.557Z" fill="#AF46FF"/>
<path d="M310.002 475.523H264.4V469.262H310.002V475.523Z" fill="#AF46FF"/>
<path d="M537.025 255.289H381.612V170.097H537.025V255.289Z" fill="#AF46FF"/>
<path d="M526.074 249.289V248.506H393.516V176.88H525.115V249.289H526.074H527.045V175.313H391.592V250.073H527.045V249.289H526.074Z" fill="#AF46FF"/>
<path d="M488.54 212.695C488.54 214.711 486.091 216.341 483.079 216.341H435.558C432.546 216.341 430.097 214.711 430.097 212.695C430.097 210.676 432.546 209.036 435.558 209.036H483.079C486.091 209.036 488.54 210.676 488.54 212.695Z" fill="#AF46FF"/>
<path d="M482.114 201.653H436.523V195.397H482.114V201.653Z" fill="#AF46FF"/>
<path d="M537.025 346.578H381.612V261.381H537.025V346.578Z" fill="#AF46FF"/>
<path d="M526.074 340.573V339.795H393.516V268.164H525.115V340.573H526.074H527.045V266.602H391.592V341.361H527.045V340.573H526.074Z" fill="#AF46FF"/>
<path d="M488.54 303.979C488.54 305.999 486.091 307.634 483.079 307.634H435.558C432.546 307.634 430.097 305.999 430.097 303.979C430.097 301.96 432.546 300.329 435.558 300.329H483.079C486.091 300.329 488.54 301.96 488.54 303.979Z" fill="#AF46FF"/>
<path d="M482.114 292.946H436.523V286.685H482.114V292.946Z" fill="#AF46FF"/>
<path d="M537.025 437.862H381.612V352.669H537.025V437.862Z" fill="#AF46FF"/>
<path d="M526.074 431.867V431.084H393.516V359.457H525.115V431.867H526.074H527.045V357.886H391.592V432.645H527.045V431.867H526.074Z" fill="#AF46FF"/>
<path d="M488.54 395.268C488.54 397.288 486.091 398.923 483.079 398.923H435.558C432.546 398.923 430.097 397.288 430.097 395.268C430.097 393.253 432.546 391.618 435.558 391.618H483.079C486.091 391.618 488.54 393.253 488.54 395.268Z" fill="#AF46FF"/>
<path d="M482.114 384.235H436.523V377.974H482.114V384.235Z" fill="#AF46FF"/>
<path d="M537.025 529.151H381.612V443.963H537.025V529.151Z" fill="#AF46FF"/>
<path d="M526.074 523.155V522.368H393.516V450.746H525.115V523.155H526.074H527.045V449.179H391.592V523.934H527.045V523.155H526.074Z" fill="#AF46FF"/>
<path d="M488.54 486.557C488.54 488.572 486.091 490.207 483.079 490.207H435.558C432.546 490.207 430.097 488.572 430.097 486.557C430.097 484.541 432.546 482.906 435.558 482.906H483.079C486.091 482.906 488.54 484.541 488.54 486.557Z" fill="#AF46FF"/>
<path d="M482.114 475.523H436.523V469.262H482.114V475.523Z" fill="#AF46FF"/>
<path d="M293.381 159.586H283.215V147.65H293.381V159.586Z" fill="#AF46FF"/>
<path d="M283.119 145.355H212.044C210.284 145.355 208.84 146.533 208.84 147.961V158.816C208.84 160.25 210.284 161.418 212.044 161.418H283.119V145.355Z" fill="#AF46FF"/>
<path d="M283.119 145.355H212.044C210.284 145.355 208.84 146.533 208.84 147.961V148.726H283.119V145.355Z" fill="#AF46FF"/>
<path d="M296.394 148.039V145.355H279.824V161.418H296.394V158.816L283.215 158.894V148.039H296.394Z" fill="#AF46FF"/>
<path d="M224.089 159.201H216.93V147.577H224.089V159.201Z" fill="#AF46FF"/>
<path d="M295.367 143.523H285.189V131.593H295.367V143.523Z" fill="#AF46FF"/>
<path d="M285.105 129.303H214.019C212.259 129.303 210.814 130.471 210.814 131.9V142.754C210.814 144.188 212.259 145.356 214.019 145.356H285.105V129.303Z" fill="#AF46FF"/>
<path d="M285.105 129.303H214.019C212.259 129.303 210.814 130.471 210.814 131.9V132.664H285.105V129.303Z" fill="#AF46FF"/>
<path d="M298.38 131.982V129.303H281.804V145.356H298.38V142.759L285.189 142.837V131.982H298.38Z" fill="#AF46FF"/>
<path d="M226.075 143.144H218.916V131.515H226.075V143.144Z" fill="#AF46FF"/>
<path d="M293.381 127.466H283.215V115.531H293.381V127.466Z" fill="#AF46FF"/>
<path d="M283.119 113.245H212.044C210.284 113.245 208.84 114.413 208.84 115.842V126.697C208.84 128.135 210.284 129.303 212.044 129.303H283.119V113.245Z" fill="#AF46FF"/>
<path d="M283.119 113.245H212.044C210.284 113.245 208.84 114.413 208.84 115.842V116.607H283.119V113.245Z" fill="#AF46FF"/>
<path d="M296.394 115.92V113.245H279.824V129.303H296.394V126.697L283.215 126.779V115.92H296.394Z" fill="#AF46FF"/>
<path d="M224.089 127.086H216.93V115.462H224.089V127.086Z" fill="#AF46FF"/>
<path d="M297.968 111.408H287.801V99.4775H297.968V111.408Z" fill="#AF46FF"/>
<path d="M287.706 97.1831H216.625C214.865 97.1831 213.427 98.351 213.427 99.7891V110.644C213.427 112.073 214.865 113.245 216.625 113.245H287.706V97.1831Z" fill="#AF46FF"/>
<path d="M287.706 97.1831H216.625C214.865 97.1831 213.427 98.351 213.427 99.7891V100.549H287.706V97.1831Z" fill="#AF46FF"/>
<path d="M300.981 99.8578V97.1831H284.405V113.245H300.981V110.644L287.801 110.722V99.8578H300.981Z" fill="#AF46FF"/>
<path d="M228.682 111.024H221.522V99.3997H228.682V111.024Z" fill="#AF46FF"/>
<path d="M293.381 95.2915H283.215V83.3606H293.381V95.2915Z" fill="#AF46FF"/>
<path d="M283.119 81.0659H212.044C210.284 81.0659 208.84 82.2338 208.84 83.6628V94.5265C208.84 95.9555 210.284 97.1234 212.044 97.1234H283.119V81.0659Z" fill="#AF46FF"/>
<path d="M283.119 81.0659H212.044C210.284 81.0659 208.84 82.2338 208.84 83.6628V84.4276H283.119V81.0659Z" fill="#AF46FF"/>
<path d="M296.394 83.7406V81.0659H279.824V97.1234H296.394V94.5265L283.215 94.5952V83.7406H296.394Z" fill="#AF46FF"/>
<path d="M224.089 94.9022H216.93V83.2827H224.089V94.9022Z" fill="#AF46FF"/>
<path d="M478.633 63.4375L478.65 63.4237C478.774 63.3046 479.423 62.7184 480.337 62.1734C481.251 61.6284 482.407 61.1612 483.473 61.1658C484.292 61.1749 485.087 61.3948 485.984 62.1596C486.853 62.9245 487.761 64.271 488.512 66.4419C489.403 69.048 489.657 71.0082 489.657 72.5562C489.662 74.6768 489.172 75.9958 489.16 77.2828C489.143 78.0477 489.397 78.8446 490.102 79.5499C490.796 80.2506 491.851 80.8918 493.476 81.643L494.323 80.4338C492.782 79.7285 491.897 79.156 491.44 78.6843C490.988 78.2125 490.875 77.8599 490.864 77.2828C490.853 76.321 491.361 74.8417 491.366 72.5562C491.366 70.8891 491.09 68.7823 490.153 66.071V66.0618C489.358 63.7626 488.376 62.2192 487.231 61.2116C486.091 60.204 484.737 59.7735 483.473 59.7826C481.708 59.7872 480.207 60.5154 479.118 61.1841C478.035 61.8665 477.352 62.526 477.324 62.5535L478.633 63.4375Z" fill="#AF46FF"/>
<path d="M524.669 105.056L521.16 107.657L479.225 70.4312L482.723 67.8252L524.669 105.056Z" fill="#AF46FF"/>
<path d="M504.139 151.85L501.945 151.245L520.737 106.348L522.932 106.952L504.139 151.85Z" fill="#AF46FF"/>
<path d="M508.686 153.105L506.492 152.496L525.279 107.603L527.473 108.212L508.686 153.105Z" fill="#AF46FF"/>
<path d="M530.289 106.824C530.289 110.126 526.994 112.801 522.932 112.801C518.875 112.801 515.581 110.126 515.581 106.824C515.581 103.526 518.875 100.852 522.932 100.852C526.994 100.852 530.289 103.526 530.289 106.824Z" fill="#AF46FF"/>
<path d="M527.287 106.824C527.287 108.775 525.341 110.364 522.932 110.364C520.534 110.364 518.582 108.775 518.582 106.824C518.582 104.878 520.534 103.293 522.932 103.293C525.341 103.293 527.287 104.878 527.287 106.824Z" fill="#AF46FF"/>
<path d="M536.788 161.418H477.324V155.958H536.788V161.418Z" fill="#AF46FF"/>
<path d="M536.788 157.515H477.324V155.958H536.788V157.515Z" fill="#AF46FF"/>
<path d="M533.228 155.958H480.89V150.755H533.228V155.958Z" fill="#AF46FF"/>
<path d="M533.228 155.958H480.89V152.01H533.228V155.958Z" fill="#AF46FF"/>
<path d="M520.212 150.755H493.899V146.862H520.212V150.755Z" fill="#AF46FF"/>
<path d="M468.884 87.2445C464.658 90.5787 457.916 90.5055 453.815 87.0796C449.708 83.6538 449.798 78.1761 454.018 74.8418C458.227 71.503 464.974 71.5809 469.081 75.0067C473.183 78.4326 473.093 83.9102 468.884 87.2445Z" fill="#AF46FF"/>
<path d="M482.915 72.8356C485.99 70.4127 486.052 66.4281 483.062 63.9412C480.083 61.4543 475.174 61.3993 472.111 63.8267L464.077 70.1883L474.875 79.2018L482.915 72.8356Z" fill="#AF46FF"/>
<path d="M482.915 72.8358C485.99 70.413 486.052 66.4284 483.062 63.9415C482.616 63.5705 482.125 63.259 481.606 62.9934L470.689 71.6313L475.366 78.8127L482.915 72.8358Z" fill="#AF46FF"/>
<path d="M473.143 95.8732C481.555 89.223 481.73 78.2997 473.55 71.4755C465.358 64.6467 451.908 64.4956 443.507 71.1457L473.143 95.8732Z" fill="#AF46FF"/>
<path d="M473.144 95.8732C481.555 89.2231 481.73 78.2998 473.55 71.4756C473.115 71.1092 472.658 70.7702 472.19 70.4451C472.427 74.6724 471.553 82.4584 463.169 87.5468L473.144 95.8732Z" fill="#AF46FF"/>
<path d="M450.198 73.9579L446.458 70.8389C446.458 70.8389 451.468 67.8115 458.543 67.8115C461.843 67.8115 465.595 68.471 469.493 70.3992C469.493 70.3992 467.485 70.0969 464.624 70.0969C460.438 70.0969 454.418 70.7473 450.198 73.9579Z" fill="#AF46FF"/>
<path d="M400.015 63.7263C400.015 63.7263 412.625 60.2821 416.106 57.2639C416.106 57.2639 419.327 60.2318 418.464 63.7263H400.015Z" fill="#AF46FF"/>
<path d="M403.846 63.7261C403.846 63.7261 419.886 61.6422 423.367 58.624C423.367 58.624 425.183 61.8392 422.3 63.7261H403.846Z" fill="#AF46FF"/>
<mask id="mask81_898_32669" style="mask-type:luminance" maskUnits="userSpaceOnUse" x="318" y="46" width="54" height="20">
<path d="M318.103 46.6519H371.542V65.6589H318.103V46.6519Z" fill="white"/>
</mask>
<g mask="url(#mask81_898_32669)">
<path d="M322.87 64.761C322.87 64.761 314.854 56.2651 322.87 46.6379C322.87 46.6379 339.948 62.4985 370.272 64.761H322.87Z" fill="#AF46FF"/>
</g>
<path d="M319.31 64.7611C319.31 64.7611 316.247 63.062 314.854 55.7019C314.854 55.7019 333.257 63.3505 344.794 64.7611H319.31Z" fill="#AF46FF"/>
<path d="M426.486 161.092V62.7781H332.98V161.092H426.486Z" fill="#AF46FF"/>
<path d="M408.354 161.092V62.7781H314.854V161.092H408.354Z" fill="#AF46FF"/>
<path d="M314.854 107.506V113.36L338.949 104.987L314.854 107.506Z" fill="#AF46FF"/>
<path d="M407.57 76.4633L402.34 80.5166L365.928 74.3198L407.57 76.4633Z" fill="#AF46FF"/>
<path d="M374.475 114.642L399.987 127.897L416.106 117.134L374.475 114.642Z" fill="#AF46FF"/>
<path d="M368.275 113.36H422.3C422.3 113.36 411.615 120.532 408.354 124.681C408.354 124.681 393.589 121.507 368.275 113.36Z" fill="#AF46FF"/>
<path d="M362.086 73.729H416.106C416.106 73.729 405.415 77.1915 402.165 79.1929C402.165 79.1929 387.395 77.6678 362.086 73.729Z" fill="#AF46FF"/>
<path d="M394.142 91.0918H416.8L408.354 92.649L394.142 91.0918Z" fill="#AF46FF"/>
<path d="M394.142 141.554H416.8L408.354 143.107L394.142 141.554Z" fill="#AF46FF"/>
<path d="M387.355 155.99H410.001L401.561 157.547L387.355 155.99Z" fill="#AF46FF"/>
<path d="M314.853 104.396L307.841 110.616L342.216 104.396H314.853Z" fill="#AF46FF"/>
<mask id="mask82_898_32669" style="mask-type:luminance" maskUnits="userSpaceOnUse" x="314" y="275" width="116" height="140">
<path d="M314 275H430V415H314V275Z" fill="white"/>
</mask>
<g mask="url(#mask82_898_32669)">
<path d="M417.519 329.102V317.616C417.519 294.122 397.085 275 371.978 275C346.872 275 326.428 294.118 326.428 317.616V329.102C319.553 329.276 314.027 334.518 314.027 340.994V403.075C314.027 403.465 314.049 403.854 314.09 404.243C314.13 404.633 314.192 405.018 314.273 405.401C314.354 405.784 314.455 406.162 314.576 406.536C314.697 406.91 314.837 407.278 314.998 407.638C315.158 407.999 315.335 408.352 315.532 408.696C315.73 409.041 315.943 409.374 316.176 409.7C316.407 410.024 316.655 410.338 316.921 410.64C317.185 410.942 317.465 411.231 317.759 411.508C318.055 411.783 318.364 412.045 318.686 412.293C319.01 412.541 319.343 412.774 319.691 412.99C320.038 413.207 320.396 413.409 320.764 413.592C321.132 413.776 321.509 413.944 321.894 414.092C322.28 414.242 322.672 414.373 323.071 414.487C323.471 414.6 323.875 414.695 324.285 414.772C324.694 414.847 325.107 414.904 325.521 414.943C325.937 414.981 326.354 415 326.771 415H417.178C417.596 415 418.013 414.981 418.427 414.943C418.843 414.905 419.256 414.847 419.664 414.772C420.074 414.695 420.479 414.6 420.877 414.487C421.277 414.373 421.67 414.242 422.055 414.093C422.441 413.944 422.818 413.776 423.186 413.592C423.554 413.409 423.912 413.207 424.258 412.991C424.606 412.774 424.94 412.541 425.263 412.294C425.585 412.045 425.894 411.785 426.19 411.508C426.485 411.232 426.765 410.943 427.03 410.64C427.295 410.339 427.543 410.026 427.775 409.701C428.006 409.376 428.221 409.041 428.418 408.698C428.614 408.353 428.793 408.001 428.953 407.638C429.112 407.278 429.252 406.91 429.373 406.537C429.495 406.163 429.597 405.785 429.678 405.403C429.759 405.019 429.821 404.633 429.861 404.245C429.902 403.856 429.924 403.467 429.924 403.075V340.994C429.924 334.518 424.396 329.275 417.519 329.102ZM382.399 363.456C382.343 363.825 382.122 364.669 382.102 364.733C381.324 367.256 379.464 369.327 377.049 370.588L381.14 386.908C381.199 387.076 381.237 387.249 381.253 387.425C381.269 387.602 381.263 387.778 381.236 387.953C381.207 388.129 381.158 388.299 381.087 388.464C381.018 388.627 380.927 388.783 380.818 388.927C380.709 389.072 380.583 389.203 380.44 389.32C380.299 389.438 380.144 389.538 379.977 389.622C379.809 389.704 379.634 389.769 379.451 389.814C379.268 389.858 379.081 389.882 378.892 389.887H365.336C365.147 389.882 364.96 389.858 364.777 389.814C364.594 389.769 364.419 389.704 364.252 389.622C364.084 389.538 363.93 389.438 363.788 389.32C363.645 389.203 363.52 389.072 363.41 388.927C363.302 388.783 363.211 388.627 363.141 388.463C363.071 388.299 363.022 388.129 362.993 387.953C362.965 387.778 362.959 387.602 362.975 387.425C362.991 387.249 363.03 387.076 363.089 386.908L366.902 370.588C364.487 369.327 362.627 367.256 361.851 364.733C361.829 364.669 361.607 363.825 361.55 363.456C361.48 362.999 361.444 362.541 361.442 362.082C361.442 361.759 361.459 361.436 361.493 361.115C361.527 360.793 361.578 360.474 361.644 360.158C361.712 359.842 361.796 359.529 361.895 359.219C361.995 358.911 362.111 358.607 362.243 358.309C362.375 358.01 362.522 357.718 362.685 357.433C362.847 357.149 363.024 356.872 363.216 356.604C363.408 356.335 363.613 356.077 363.831 355.827C364.051 355.577 364.282 355.338 364.526 355.109C364.77 354.881 365.025 354.665 365.293 354.46C365.558 354.256 365.835 354.062 366.123 353.883C366.409 353.704 366.704 353.538 367.009 353.386C367.314 353.234 367.624 353.095 367.943 352.972C368.262 352.849 368.587 352.74 368.916 352.647C369.247 352.552 369.582 352.474 369.92 352.412C370.257 352.348 370.6 352.301 370.942 352.27C371.285 352.237 371.63 352.221 371.975 352.221C372.321 352.221 372.664 352.237 373.008 352.27C373.351 352.301 373.692 352.348 374.03 352.412C374.369 352.474 374.703 352.552 375.033 352.647C375.364 352.74 375.687 352.849 376.006 352.972C376.325 353.095 376.637 353.234 376.942 353.386C377.245 353.538 377.541 353.704 377.828 353.883C378.114 354.062 378.391 354.256 378.658 354.46C378.926 354.665 379.18 354.881 379.424 355.109C379.668 355.338 379.9 355.577 380.118 355.827C380.338 356.077 380.543 356.335 380.735 356.604C380.925 356.872 381.103 357.149 381.266 357.433C381.428 357.718 381.575 358.01 381.708 358.309C381.839 358.607 381.954 358.911 382.056 359.219C382.155 359.529 382.239 359.842 382.305 360.158C382.373 360.474 382.424 360.793 382.457 361.115C382.492 361.436 382.507 361.759 382.507 362.082C382.507 362.541 382.471 362.999 382.399 363.456ZM401.969 329.069H341.979V317.616C341.979 302.136 355.432 289.545 371.978 289.545C388.525 289.545 401.969 302.136 401.969 317.616V329.069Z" fill="#798996"/>
</g>
<mask id="mask83_898_32669" style="mask-type:luminance" maskUnits="userSpaceOnUse" x="310" y="276" width="116" height="140">
<path d="M310 276H426V416H310V276Z" fill="white"/>
</mask>
<g mask="url(#mask83_898_32669)">
<path d="M413.519 330.102V318.616C413.519 295.122 393.085 276 367.978 276C342.872 276 322.428 295.118 322.428 318.616V330.102C315.553 330.276 310.027 335.518 310.027 341.994V404.075C310.027 404.465 310.049 404.854 310.09 405.243C310.13 405.633 310.192 406.018 310.273 406.401C310.354 406.784 310.455 407.162 310.576 407.536C310.697 407.91 310.837 408.278 310.998 408.638C311.158 408.999 311.335 409.352 311.532 409.696C311.73 410.041 311.943 410.374 312.176 410.7C312.407 411.024 312.655 411.338 312.921 411.64C313.185 411.942 313.465 412.231 313.759 412.508C314.055 412.783 314.364 413.045 314.686 413.293C315.01 413.541 315.343 413.774 315.691 413.99C316.038 414.207 316.396 414.409 316.764 414.592C317.132 414.776 317.509 414.944 317.894 415.092C318.28 415.242 318.672 415.373 319.071 415.487C319.471 415.6 319.875 415.695 320.285 415.772C320.694 415.847 321.107 415.904 321.521 415.943C321.937 415.981 322.354 416 322.771 416H413.178C413.596 416 414.013 415.981 414.427 415.943C414.843 415.905 415.256 415.847 415.664 415.772C416.074 415.695 416.479 415.6 416.877 415.487C417.277 415.373 417.67 415.242 418.055 415.093C418.441 414.944 418.818 414.776 419.186 414.592C419.554 414.409 419.912 414.207 420.258 413.991C420.606 413.774 420.94 413.541 421.263 413.294C421.585 413.045 421.894 412.785 422.19 412.508C422.485 412.232 422.765 411.943 423.03 411.64C423.295 411.339 423.543 411.026 423.775 410.701C424.006 410.376 424.221 410.041 424.418 409.698C424.614 409.353 424.793 409.001 424.953 408.638C425.112 408.278 425.252 407.91 425.373 407.537C425.495 407.163 425.597 406.785 425.678 406.403C425.759 406.019 425.821 405.633 425.861 405.245C425.902 404.856 425.924 404.467 425.924 404.075V341.994C425.924 335.518 420.396 330.275 413.519 330.102ZM378.399 364.456C378.343 364.825 378.122 365.669 378.102 365.733C377.324 368.256 375.464 370.327 373.049 371.588L377.14 387.908C377.199 388.076 377.237 388.249 377.253 388.425C377.269 388.602 377.263 388.778 377.236 388.953C377.207 389.129 377.158 389.299 377.087 389.464C377.018 389.627 376.927 389.783 376.818 389.927C376.709 390.072 376.583 390.203 376.44 390.32C376.299 390.438 376.144 390.538 375.977 390.622C375.809 390.704 375.634 390.769 375.451 390.814C375.268 390.858 375.081 390.882 374.892 390.887H361.336C361.147 390.882 360.96 390.858 360.777 390.814C360.594 390.769 360.419 390.704 360.252 390.622C360.084 390.538 359.93 390.438 359.788 390.32C359.645 390.203 359.52 390.072 359.41 389.927C359.302 389.783 359.211 389.627 359.141 389.463C359.071 389.299 359.022 389.129 358.993 388.953C358.965 388.778 358.959 388.602 358.975 388.425C358.991 388.249 359.03 388.076 359.089 387.908L362.902 371.588C360.487 370.327 358.627 368.256 357.851 365.733C357.829 365.669 357.607 364.825 357.55 364.456C357.48 363.999 357.444 363.541 357.442 363.082C357.442 362.759 357.459 362.436 357.493 362.115C357.527 361.793 357.578 361.474 357.644 361.158C357.712 360.842 357.796 360.529 357.895 360.219C357.995 359.911 358.111 359.607 358.243 359.309C358.375 359.01 358.522 358.718 358.685 358.433C358.847 358.149 359.024 357.872 359.216 357.604C359.408 357.335 359.613 357.077 359.831 356.827C360.051 356.577 360.282 356.338 360.526 356.109C360.77 355.881 361.025 355.665 361.293 355.46C361.558 355.256 361.835 355.062 362.123 354.883C362.409 354.704 362.704 354.538 363.009 354.386C363.314 354.234 363.624 354.095 363.943 353.972C364.262 353.849 364.587 353.74 364.916 353.647C365.247 353.552 365.582 353.474 365.92 353.412C366.257 353.348 366.6 353.301 366.942 353.27C367.285 353.237 367.63 353.221 367.975 353.221C368.321 353.221 368.664 353.237 369.008 353.27C369.351 353.301 369.692 353.348 370.03 353.412C370.369 353.474 370.703 353.552 371.033 353.647C371.364 353.74 371.687 353.849 372.006 353.972C372.325 354.095 372.637 354.234 372.942 354.386C373.245 354.538 373.541 354.704 373.828 354.883C374.114 355.062 374.391 355.256 374.658 355.46C374.926 355.665 375.18 355.881 375.424 356.109C375.668 356.338 375.9 356.577 376.118 356.827C376.338 357.077 376.543 357.335 376.735 357.604C376.925 357.872 377.103 358.149 377.266 358.433C377.428 358.718 377.575 359.01 377.708 359.309C377.839 359.607 377.954 359.911 378.056 360.219C378.155 360.529 378.239 360.842 378.305 361.158C378.373 361.474 378.424 361.793 378.457 362.115C378.492 362.436 378.507 362.759 378.507 363.082C378.507 363.541 378.471 363.999 378.399 364.456ZM397.969 330.069H337.979V318.616C337.979 303.136 351.432 290.545 367.978 290.545C384.525 290.545 397.969 303.136 397.969 318.616V330.069Z" fill="#515C65" fill-opacity="0.64"/>
</g>
</svg>
