<svg width="1155" height="215" viewBox="0 0 1155 215" fill="none" xmlns="http://www.w3.org/2000/svg">
<mask id="mask0_731_27851" style="mask-type:luminance" maskUnits="userSpaceOnUse" x="68" y="169" width="47" height="46">
<path d="M68.2656 169.333H114.932V214.995H68.2656V169.333Z" fill="white"/>
</mask>
<g mask="url(#mask0_731_27851)">
<path d="M69.2917 192.521C69.2917 204.937 79.3542 215 91.7657 215C104.182 215 114.245 204.937 114.245 192.521C114.245 180.109 104.182 170.042 91.7657 170.042C79.3542 170.042 69.2917 180.109 69.2917 192.521Z" fill="#F8C28D"/>
</g>
<path d="M94.0781 0H89.4531V133.573H94.0781V0Z" fill="#976FDE"/>
<path d="M104.161 128.479C104.161 131.292 101.885 133.573 99.0677 133.573H86.7188C83.9063 133.573 81.625 131.292 81.625 128.479V120.443C81.625 117.63 83.9063 115.349 86.7188 115.349H99.0677C101.885 115.349 104.161 117.63 104.161 120.443V128.479Z" fill="#976FDE"/>
<mask id="mask1_731_27851" style="mask-type:luminance" maskUnits="userSpaceOnUse" x="0" y="124" width="183" height="70">
<path d="M0 124H182.932V193.333H0V124Z" fill="white"/>
</mask>
<g mask="url(#mask1_731_27851)">
<path d="M182.844 192.521C170.963 153.766 135.109 125.406 92.4218 125C49.0937 124.589 12.2343 153.094 0.161377 192.521H182.844Z" fill="#B389FF"/>
</g>
<mask id="mask2_731_27851" style="mask-type:luminance" maskUnits="userSpaceOnUse" x="0" y="144" width="183" height="50">
<path d="M0 144H182.932V193.333H0V144Z" fill="white"/>
</mask>
<g mask="url(#mask2_731_27851)">
<path d="M34.1405 144.156C18.2135 156.135 6.14054 172.984 0.161377 192.521H182.844C181.62 188.542 180.135 184.677 178.427 180.932C80.7083 187.661 46.1666 161.198 34.1405 144.156Z" fill="#976FDE"/>
</g>
<mask id="mask3_731_27851" style="mask-type:luminance" maskUnits="userSpaceOnUse" x="392" y="169" width="47" height="46">
<path d="M392.266 169.333H438.932V214.995H392.266V169.333Z" fill="white"/>
</mask>
<g mask="url(#mask3_731_27851)">
<path d="M393.245 192.521C393.245 204.937 403.307 215 415.724 215C428.135 215 438.198 204.937 438.198 192.521C438.198 180.109 428.135 170.042 415.724 170.042C403.307 170.042 393.245 180.109 393.245 192.521Z" fill="#F8C28D"/>
</g>
<path d="M418.031 0H413.412V133.573H418.031V0Z" fill="#976FDE"/>
<path d="M428.115 128.479C428.115 131.292 425.839 133.573 423.026 133.573H410.672C407.859 133.573 405.578 131.292 405.578 128.479V120.443C405.578 117.63 407.859 115.349 410.672 115.349H423.026C425.839 115.349 428.115 117.63 428.115 120.443V128.479Z" fill="#976FDE"/>
<mask id="mask4_731_27851" style="mask-type:luminance" maskUnits="userSpaceOnUse" x="323" y="124" width="184" height="70">
<path d="M323.953 124H506.932V193.333H323.953V124Z" fill="white"/>
</mask>
<g mask="url(#mask4_731_27851)">
<path d="M506.797 192.521C494.917 153.766 459.063 125.406 416.375 125C373.047 124.589 336.188 153.094 324.115 192.521H506.797Z" fill="#B389FF"/>
</g>
<mask id="mask5_731_27851" style="mask-type:luminance" maskUnits="userSpaceOnUse" x="323" y="144" width="184" height="50">
<path d="M323.953 144H506.932V193.333H323.953V144Z" fill="white"/>
</mask>
<g mask="url(#mask5_731_27851)">
<path d="M358.094 144.156C342.167 156.135 330.094 172.984 324.115 192.521H506.797C505.578 188.542 504.089 184.677 502.385 180.932C404.667 187.661 370.12 161.198 358.094 144.156Z" fill="#976FDE"/>
</g>
<mask id="mask6_731_27851" style="mask-type:luminance" maskUnits="userSpaceOnUse" x="716" y="169" width="47" height="46">
<path d="M716.266 169.333H762.932V214.995H716.266V169.333Z" fill="white"/>
</mask>
<g mask="url(#mask6_731_27851)">
<path d="M717.198 192.521C717.198 204.937 727.26 215 739.677 215C752.089 215 762.151 204.937 762.151 192.521C762.151 180.109 752.089 170.042 739.677 170.042C727.26 170.042 717.198 180.109 717.198 192.521Z" fill="#F8C28D"/>
</g>
<path d="M741.985 0H737.365V133.573H741.985V0Z" fill="#976FDE"/>
<path d="M752.068 128.479C752.068 131.292 749.792 133.573 746.979 133.573H734.625C731.813 133.573 729.531 131.292 729.531 128.479V120.443C729.531 117.63 731.813 115.349 734.625 115.349H746.979C749.792 115.349 752.068 117.63 752.068 120.443V128.479Z" fill="#976FDE"/>
<mask id="mask7_731_27851" style="mask-type:luminance" maskUnits="userSpaceOnUse" x="647" y="124" width="184" height="70">
<path d="M647.906 124H830.906V193.333H647.906V124Z" fill="white"/>
</mask>
<g mask="url(#mask7_731_27851)">
<path d="M830.75 192.521C818.875 153.766 783.016 125.406 740.328 125C697 124.589 660.141 153.094 648.068 192.521H830.75Z" fill="#B389FF"/>
</g>
<mask id="mask8_731_27851" style="mask-type:luminance" maskUnits="userSpaceOnUse" x="647" y="144" width="184" height="50">
<path d="M647.906 144H830.906V193.333H647.906V144Z" fill="white"/>
</mask>
<g mask="url(#mask8_731_27851)">
<path d="M682.047 144.156C666.125 156.135 654.052 172.984 648.068 192.521H830.75C829.531 188.542 828.047 184.677 826.338 180.932C728.62 187.661 694.073 161.198 682.047 144.156Z" fill="#976FDE"/>
</g>
<mask id="mask9_731_27851" style="mask-type:luminance" maskUnits="userSpaceOnUse" x="1040" y="169" width="47" height="46">
<path d="M1040.27 169.333H1086.93V214.995H1040.27V169.333Z" fill="white"/>
</mask>
<g mask="url(#mask9_731_27851)">
<path d="M1041.15 192.521C1041.15 204.937 1051.22 215 1063.63 215C1076.04 215 1086.1 204.937 1086.1 192.521C1086.1 180.109 1076.04 170.042 1063.63 170.042C1051.22 170.042 1041.15 180.109 1041.15 192.521Z" fill="#F8C28D"/>
</g>
<path d="M1065.94 0H1061.32V133.573H1065.94V0Z" fill="#976FDE"/>
<path d="M1076.03 128.479C1076.03 131.292 1073.74 133.573 1070.93 133.573H1058.58C1055.77 133.573 1053.49 131.292 1053.49 128.479V120.443C1053.49 117.63 1055.77 115.349 1058.58 115.349H1070.93C1073.74 115.349 1076.03 117.63 1076.03 120.443V128.479Z" fill="#976FDE"/>
<mask id="mask10_731_27851" style="mask-type:luminance" maskUnits="userSpaceOnUse" x="971" y="124" width="184" height="70">
<path d="M971.859 124H1154.86V193.333H971.859V124Z" fill="white"/>
</mask>
<g mask="url(#mask10_731_27851)">
<path d="M1154.7 192.521C1142.83 153.766 1106.97 125.406 1064.28 125C1020.95 124.589 984.094 153.094 972.021 192.521H1154.7Z" fill="#B389FF"/>
</g>
<mask id="mask11_731_27851" style="mask-type:luminance" maskUnits="userSpaceOnUse" x="971" y="144" width="184" height="50">
<path d="M971.859 144H1154.86V193.333H971.859V144Z" fill="white"/>
</mask>
<g mask="url(#mask11_731_27851)">
<path d="M1006 144.156C990.078 156.135 978.005 172.984 972.021 192.521H1154.7C1153.48 188.542 1152 184.677 1150.29 180.932C1052.57 187.661 1018.03 161.198 1006 144.156Z" fill="#976FDE"/>
</g>
</svg>
