<svg width="576" height="201" viewBox="0 0 576 201" fill="none" xmlns="http://www.w3.org/2000/svg">
<path d="M60.6711 3.61719L57.3898 28.3438C56.257 28.0312 55.1242 27.8164 53.9914 27.6992C52.8586 27.582 51.7258 27.5234 50.593 27.5234C47.7023 27.5234 44.9484 27.9141 42.3312 28.6953C39.7141 29.4375 37.3898 30.5898 35.3586 32.1523C33.3664 33.7148 31.7648 35.668 30.5539 38.0117C29.382 40.3555 28.7961 43.1094 28.7961 46.2734C28.7961 48.3047 29.1086 50.0625 29.7336 51.5469C30.3976 53.0312 31.3156 54.2617 32.4875 55.2383C33.6594 56.2148 35.0461 56.9375 36.6476 57.4062C38.2492 57.875 40.007 58.1094 41.9211 58.1094C43.3664 58.1094 44.8703 57.9531 46.4328 57.6406C47.9953 57.3281 49.5383 56.918 51.0617 56.4102C52.5851 55.9023 54.0695 55.3164 55.5148 54.6523C56.9601 53.9883 58.2883 53.3047 59.4992 52.6016L57.1555 80.1406C55.632 80.9219 53.9719 81.625 52.175 82.25C50.4172 82.8359 48.6008 83.3633 46.7258 83.832C44.8508 84.2617 42.9758 84.5938 41.1008 84.8281C39.2258 85.0625 37.4289 85.1797 35.7101 85.1797C30.7492 85.1797 26.1203 84.2617 21.8234 82.4258C17.5266 80.5898 13.7961 78.0703 10.632 74.8672C7.46796 71.6641 4.96796 67.8945 3.13202 63.5586C1.33514 59.1836 0.436707 54.4766 0.436707 49.4375C0.436707 42.7578 1.39374 36.4688 3.3078 30.5703C5.22186 24.6328 8.03436 19.4375 11.7453 14.9844C15.4562 10.5312 20.0461 7.01562 25.5148 4.4375C31.0226 1.85938 37.3508 0.570312 44.4992 0.570312C47.1945 0.570312 49.9484 0.785156 52.7609 1.21484C55.6125 1.64453 58.2492 2.44531 60.6711 3.61719ZM133.623 3.85156L112.177 85.4141L83.1148 87.0547L56.7476 4.67188L84.5211 2.09375L95.7711 50.1406L106.67 2.09375L133.623 3.85156ZM244.78 0.570312L239.389 86.5859L212.67 87.7578L212.905 42.4062L200.834 78.9688H190.522L181.264 46.2734L181.147 84.2422L154.077 85.0625L155.248 4.08594L185.366 2.91406L197.319 41.7031L213.256 0.570312H244.78ZM318.434 41.1172C318.434 44.6719 318.024 48.1094 317.204 51.4297C316.384 54.7109 315.192 57.7969 313.63 60.6875C312.106 63.5781 310.231 66.2344 308.005 68.6562C305.817 71.0391 303.337 73.0898 300.563 74.8086C297.829 76.5273 294.841 77.875 291.598 78.8516C288.356 79.7891 284.919 80.2578 281.286 80.2578C277.77 80.2578 274.411 79.8086 271.208 78.9102C268.044 78.0117 265.075 76.7617 262.302 75.1602C259.528 73.5195 257.009 71.5664 254.743 69.3008C252.516 66.9961 250.602 64.457 249.001 61.6836C247.438 58.8711 246.208 55.8633 245.309 52.6602C244.45 49.457 244.02 46.1172 244.02 42.6406C244.02 39.2422 244.43 35.9219 245.251 32.6797C246.071 29.3984 247.243 26.3125 248.766 23.4219C250.329 20.5313 252.204 17.875 254.391 15.4531C256.579 13.0313 259.02 10.9414 261.716 9.18359C264.45 7.42578 267.399 6.05859 270.563 5.08203C273.727 4.10547 277.067 3.61719 280.583 3.61719C286.247 3.61719 291.403 4.49609 296.052 6.25391C300.739 8.01172 304.723 10.5312 308.005 13.8125C311.325 17.0547 313.884 21 315.68 25.6484C317.516 30.2578 318.434 35.4141 318.434 41.1172ZM292.419 42.6406C292.419 40.9609 292.165 39.3398 291.657 37.7773C291.188 36.1758 290.485 34.7695 289.548 33.5586C288.61 32.3086 287.438 31.3125 286.032 30.5703C284.665 29.7891 283.083 29.3984 281.286 29.3984C279.45 29.3984 277.809 29.7305 276.364 30.3945C274.919 31.0586 273.669 31.9766 272.614 33.1484C271.598 34.2812 270.817 35.6289 270.27 37.1914C269.723 38.7148 269.45 40.3359 269.45 42.0547C269.45 43.6953 269.684 45.3359 270.153 46.9766C270.622 48.6172 271.325 50.1016 272.262 51.4297C273.2 52.7578 274.352 53.832 275.72 54.6523C277.126 55.4727 278.747 55.8828 280.583 55.8828C282.419 55.8828 284.059 55.5312 285.505 54.8281C286.989 54.0859 288.239 53.1094 289.255 51.8984C290.27 50.6484 291.052 49.2227 291.598 47.6211C292.145 46.0195 292.419 44.3594 292.419 42.6406ZM386.523 39.4766C386.523 44.9453 385.82 49.8477 384.413 54.1836C383.007 58.5195 381.034 62.3672 378.495 65.7266C375.995 69.0469 373.007 71.8789 369.53 74.2227C366.054 76.5664 362.245 78.5 358.105 80.0234C353.964 81.5078 349.55 82.6016 344.862 83.3047C340.214 84.0078 335.429 84.3594 330.507 84.3594C328.671 84.3594 326.874 84.3203 325.116 84.2422C323.359 84.125 321.562 83.9688 319.726 83.7734L321.366 7.48438C325.663 6.11719 330.077 5.16016 334.609 4.61328C339.179 4.02734 343.71 3.73438 348.202 3.73438C353.788 3.73438 358.925 4.51562 363.612 6.07812C368.3 7.64063 372.343 9.94531 375.741 12.9922C379.14 16 381.777 19.7305 383.652 24.1836C385.566 28.5977 386.523 33.6953 386.523 39.4766ZM346.679 61.9766C349.023 61.625 351.152 60.9219 353.066 59.8672C355.019 58.7734 356.698 57.4453 358.105 55.8828C359.511 54.2812 360.585 52.4844 361.327 50.4922C362.109 48.4609 362.499 46.3125 362.499 44.0469C362.499 41.8203 362.265 39.75 361.796 37.8359C361.327 35.8828 360.566 34.2031 359.511 32.7969C358.456 31.3516 357.07 30.2188 355.351 29.3984C353.632 28.5391 351.523 28.0703 349.023 27.9922L346.679 61.9766ZM457.658 3.5C455.9 17.25 454.396 30.9414 453.146 44.5742C451.896 58.168 450.705 71.8594 449.572 85.6484L425.548 87.4062L426.603 78.3828C425.822 79.2812 424.904 80.0625 423.849 80.7266C422.834 81.3906 421.74 81.9375 420.568 82.3672C419.396 82.7578 418.185 83.0508 416.935 83.2461C415.685 83.4023 414.494 83.4609 413.361 83.4219C410.705 83.3828 408.205 82.875 405.861 81.8984C403.517 80.8828 401.369 79.5547 399.416 77.9141C397.462 76.2344 395.705 74.3008 394.142 72.1133C392.58 69.8867 391.252 67.5625 390.158 65.1406C389.103 62.6797 388.283 60.1797 387.697 57.6406C387.15 55.1016 386.877 52.6406 386.877 50.2578C386.877 46.7422 386.935 43.1094 387.052 39.3594C387.209 35.5703 387.462 31.7812 387.814 27.9922C388.166 24.2031 388.615 20.4531 389.162 16.7422C389.748 13.0313 390.47 9.47656 391.33 6.07812C396.095 6.3125 400.88 6.52734 405.685 6.72266C410.49 6.91797 415.275 6.97656 420.041 6.89844C419.142 10.2969 418.244 13.7148 417.345 17.1523C416.486 20.5508 415.705 23.9883 415.002 27.4648C414.298 30.9023 413.732 34.3594 413.302 37.8359C412.873 41.3125 412.658 44.8281 412.658 48.3828C412.658 49.2031 412.697 50.375 412.775 51.8984C412.853 53.4219 413.048 54.9258 413.361 56.4102C413.712 57.8945 414.22 59.2031 414.884 60.3359C415.587 61.4297 416.564 61.9766 417.814 61.9766C419.298 61.9766 420.627 61.3516 421.798 60.1016C422.97 58.8125 424.005 57.0938 424.904 54.9453C425.802 52.7969 426.564 50.3164 427.189 47.5039C427.853 44.6914 428.4 41.7617 428.83 38.7148C429.298 35.6289 429.67 32.5234 429.943 29.3984C430.216 26.2734 430.412 23.3438 430.529 20.6094C430.685 17.8359 430.783 15.3555 430.822 13.168C430.9 10.9805 430.939 9.28125 430.939 8.07031C430.939 7.28906 430.92 6.52734 430.88 5.78516C430.841 5.04297 430.783 4.28125 430.705 3.5C433.244 3.57812 435.763 3.63672 438.263 3.67578C440.763 3.71484 443.283 3.73438 445.822 3.73438C447.775 3.73438 449.728 3.73438 451.681 3.73438C453.673 3.69531 455.666 3.61719 457.658 3.5ZM510.16 54.9453L507.699 80.9609L458.363 84.8281L460.238 1.15625H490.707L486.371 54.9453H510.16ZM575.905 38.6562C575.905 42.0547 575.67 45.4531 575.202 48.8516C568.522 49.2812 561.881 49.9844 555.28 50.9609C548.678 51.8984 542.077 52.8359 535.475 53.7734C536.491 56.5859 538.073 58.832 540.221 60.5117C542.409 62.1914 545.006 63.0312 548.014 63.0312C549.577 63.0312 551.276 62.7383 553.112 62.1523C554.987 61.5664 556.842 60.8438 558.678 59.9844C560.514 59.0859 562.272 58.1289 563.952 57.1133C565.631 56.0977 567.077 55.1797 568.287 54.3594L565.475 80.9609C563.952 82.1328 562.291 83.1289 560.495 83.9492C558.737 84.7695 556.901 85.4336 554.987 85.9414C553.073 86.4492 551.139 86.8203 549.186 87.0547C547.233 87.2891 545.319 87.4062 543.444 87.4062C539.577 87.4062 536.041 86.8789 532.838 85.8242C529.635 84.7695 526.725 83.3047 524.108 81.4297C521.53 79.5156 519.264 77.2695 517.311 74.6914C515.358 72.1133 513.737 69.3008 512.448 66.2539C511.159 63.207 510.182 59.9844 509.518 56.5859C508.854 53.1875 508.522 49.75 508.522 46.2734C508.522 42.6406 508.854 39.0078 509.518 35.375C510.182 31.7422 511.178 28.2461 512.506 24.8867C513.873 21.5273 515.573 18.4219 517.604 15.5703C519.674 12.6797 522.077 10.1602 524.811 8.01172C527.545 5.86328 530.631 4.18359 534.069 2.97266C537.545 1.76172 541.373 1.15625 545.553 1.15625C549.03 1.15625 552.194 1.64453 555.045 2.62109C557.936 3.55859 560.495 4.88672 562.721 6.60547C564.987 8.28516 566.94 10.2969 568.58 12.6406C570.26 14.9844 571.627 17.5625 572.682 20.375C573.776 23.1484 574.577 26.0977 575.084 29.2227C575.631 32.3086 575.905 35.4531 575.905 38.6562ZM552.467 35.6094C552.467 34.5156 552.35 33.4023 552.116 32.2695C551.881 31.0977 551.491 30.043 550.944 29.1055C550.436 28.168 549.752 27.4062 548.893 26.8203C548.034 26.1953 546.959 25.8828 545.67 25.8828C544.108 25.8828 542.721 26.3125 541.51 27.1719C540.338 27.9922 539.323 29.0469 538.463 30.3359C537.604 31.5859 536.901 32.9531 536.354 34.4375C535.807 35.9219 535.397 37.2891 535.123 38.5391L552.467 36.8984V35.6094ZM160.344 144.977C160.344 148.766 159.777 152.125 158.645 155.055C157.512 157.984 155.949 160.562 153.957 162.789C152.004 164.977 149.699 166.832 147.043 168.355C144.387 169.84 141.535 171.07 138.488 172.047C135.48 172.984 132.355 173.688 129.113 174.156C125.871 174.586 122.688 174.82 119.562 174.859V199.82H92.2578C92.2578 195.367 92.2578 191.031 92.2578 186.812C92.2969 182.594 92.3164 178.414 92.3164 174.273C92.3555 170.094 92.375 165.895 92.375 161.676C92.4141 157.457 92.4531 153.102 92.4922 148.609C92.5703 143.844 92.5898 139.078 92.5508 134.312C92.5117 129.547 92.6094 124.742 92.8438 119.898C97.8438 118.414 102.844 117.301 107.844 116.559C112.844 115.816 118 115.445 123.312 115.445C126.32 115.445 129.328 115.699 132.336 116.207C135.344 116.676 138.215 117.438 140.949 118.492C143.723 119.547 146.281 120.875 148.625 122.477C151.008 124.039 153.059 125.914 154.777 128.102C156.496 130.289 157.844 132.789 158.82 135.602C159.836 138.414 160.344 141.539 160.344 144.977ZM134.328 146.969C134.328 144.43 133.547 142.457 131.984 141.051C130.461 139.605 128.469 138.883 126.008 138.883C125.188 138.883 124.328 138.961 123.43 139.117C122.57 139.234 121.75 139.391 120.969 139.586L120.266 156.695C120.812 156.773 121.34 156.812 121.848 156.812C122.355 156.812 122.883 156.812 123.43 156.812C124.836 156.812 126.184 156.578 127.473 156.109C128.801 155.641 129.973 154.977 130.988 154.117C132.004 153.219 132.805 152.184 133.391 151.012C134.016 149.801 134.328 148.453 134.328 146.969ZM229.78 193.961L200.717 197.711L197.202 184.469H183.842L180.913 197.711L151.03 194.781L174.35 116.734L206.928 115.094L229.78 193.961ZM195.092 166.539L190.639 146.148L186.303 166.539H195.092ZM288.669 169C288.669 174.352 287.731 178.98 285.856 182.887C284.02 186.754 281.481 189.957 278.239 192.496C275.036 194.996 271.266 196.852 266.93 198.062C262.634 199.234 258.005 199.82 253.044 199.82C251.13 199.82 249.02 199.566 246.716 199.059C244.45 198.551 242.145 197.926 239.802 197.184C237.458 196.402 235.192 195.582 233.005 194.723C230.856 193.824 228.942 192.984 227.263 192.203L229.841 169.234C233.161 171.227 236.833 172.75 240.856 173.805C244.919 174.82 248.903 175.328 252.809 175.328C253.552 175.328 254.45 175.309 255.505 175.27C256.559 175.191 257.555 175.016 258.493 174.742C259.47 174.43 260.29 173.98 260.954 173.395C261.618 172.809 261.95 171.969 261.95 170.875C261.95 170.133 261.716 169.508 261.247 169C260.778 168.453 260.173 168.023 259.43 167.711C258.688 167.359 257.848 167.105 256.911 166.949C255.973 166.754 255.055 166.617 254.157 166.539C253.259 166.461 252.419 166.422 251.638 166.422C250.856 166.422 250.231 166.422 249.763 166.422C246.403 166.422 243.337 165.895 240.563 164.84C237.829 163.785 235.466 162.301 233.473 160.387C231.52 158.434 229.997 156.09 228.903 153.355C227.809 150.582 227.263 147.516 227.263 144.156C227.263 139.547 228.18 135.426 230.016 131.793C231.891 128.121 234.372 125.016 237.458 122.477C240.583 119.898 244.157 117.926 248.18 116.559C252.204 115.191 256.364 114.508 260.661 114.508C262.575 114.508 264.548 114.586 266.579 114.742C268.61 114.859 270.622 115.094 272.614 115.445C274.645 115.797 276.618 116.246 278.532 116.793C280.446 117.34 282.263 118.023 283.981 118.844L281.755 142.633C279.098 141.734 276.305 140.992 273.376 140.406C270.485 139.781 267.653 139.469 264.88 139.469C264.372 139.469 263.708 139.488 262.888 139.527C262.106 139.527 261.266 139.586 260.368 139.703C259.509 139.781 258.63 139.918 257.731 140.113C256.833 140.309 256.032 140.582 255.329 140.934C254.626 141.246 254.059 141.676 253.63 142.223C253.2 142.77 253.005 143.414 253.044 144.156C253.083 145.016 253.395 145.68 253.981 146.148C254.606 146.617 255.388 146.969 256.325 147.203C257.302 147.398 258.356 147.496 259.489 147.496C260.661 147.496 261.813 147.477 262.946 147.438C264.079 147.359 265.134 147.301 266.11 147.262C267.087 147.184 267.888 147.164 268.513 147.203C271.638 147.398 274.45 148.062 276.95 149.195C279.45 150.328 281.559 151.832 283.278 153.707C285.036 155.582 286.364 157.828 287.263 160.445C288.2 163.023 288.669 165.875 288.669 169ZM349.55 169C349.55 174.352 348.612 178.98 346.737 182.887C344.902 186.754 342.362 189.957 339.12 192.496C335.917 194.996 332.148 196.852 327.812 198.062C323.515 199.234 318.886 199.82 313.925 199.82C312.011 199.82 309.902 199.566 307.597 199.059C305.331 198.551 303.027 197.926 300.683 197.184C298.339 196.402 296.073 195.582 293.886 194.723C291.737 193.824 289.823 192.984 288.144 192.203L290.722 169.234C294.042 171.227 297.714 172.75 301.737 173.805C305.8 174.82 309.784 175.328 313.691 175.328C314.433 175.328 315.331 175.309 316.386 175.27C317.441 175.191 318.437 175.016 319.374 174.742C320.351 174.43 321.171 173.98 321.835 173.395C322.499 172.809 322.831 171.969 322.831 170.875C322.831 170.133 322.597 169.508 322.128 169C321.659 168.453 321.054 168.023 320.312 167.711C319.57 167.359 318.73 167.105 317.792 166.949C316.855 166.754 315.937 166.617 315.038 166.539C314.14 166.461 313.3 166.422 312.519 166.422C311.737 166.422 311.112 166.422 310.644 166.422C307.284 166.422 304.218 165.895 301.445 164.84C298.71 163.785 296.347 162.301 294.355 160.387C292.402 158.434 290.878 156.09 289.784 153.355C288.691 150.582 288.144 147.516 288.144 144.156C288.144 139.547 289.062 135.426 290.898 131.793C292.773 128.121 295.253 125.016 298.339 122.477C301.464 119.898 305.038 117.926 309.062 116.559C313.085 115.191 317.245 114.508 321.542 114.508C323.456 114.508 325.429 114.586 327.46 114.742C329.491 114.859 331.503 115.094 333.495 115.445C335.527 115.797 337.499 116.246 339.413 116.793C341.327 117.34 343.144 118.023 344.862 118.844L342.636 142.633C339.98 141.734 337.187 140.992 334.257 140.406C331.366 139.781 328.534 139.469 325.761 139.469C325.253 139.469 324.589 139.488 323.769 139.527C322.987 139.527 322.148 139.586 321.249 139.703C320.39 139.781 319.511 139.918 318.612 140.113C317.714 140.309 316.913 140.582 316.21 140.934C315.507 141.246 314.941 141.676 314.511 142.223C314.081 142.77 313.886 143.414 313.925 144.156C313.964 145.016 314.277 145.68 314.862 146.148C315.487 146.617 316.269 146.969 317.206 147.203C318.183 147.398 319.237 147.496 320.37 147.496C321.542 147.496 322.695 147.477 323.827 147.438C324.96 147.359 326.015 147.301 326.991 147.262C327.968 147.184 328.769 147.164 329.394 147.203C332.519 147.398 335.331 148.062 337.831 149.195C340.331 150.328 342.441 151.832 344.159 153.707C345.917 155.582 347.245 157.828 348.144 160.445C349.081 163.023 349.55 165.875 349.55 169ZM416.349 151.656C416.349 155.055 416.115 158.453 415.646 161.852C408.966 162.281 402.326 162.984 395.724 163.961C389.123 164.898 382.521 165.836 375.92 166.773C376.935 169.586 378.517 171.832 380.666 173.512C382.853 175.191 385.451 176.031 388.459 176.031C390.021 176.031 391.72 175.738 393.556 175.152C395.431 174.566 397.287 173.844 399.123 172.984C400.959 172.086 402.716 171.129 404.396 170.113C406.076 169.098 407.521 168.18 408.732 167.359L405.92 193.961C404.396 195.133 402.736 196.129 400.939 196.949C399.181 197.77 397.345 198.434 395.431 198.941C393.517 199.449 391.584 199.82 389.63 200.055C387.677 200.289 385.763 200.406 383.888 200.406C380.021 200.406 376.486 199.879 373.283 198.824C370.08 197.77 367.17 196.305 364.552 194.43C361.974 192.516 359.709 190.27 357.755 187.691C355.802 185.113 354.181 182.301 352.892 179.254C351.603 176.207 350.627 172.984 349.962 169.586C349.298 166.188 348.966 162.75 348.966 159.273C348.966 155.641 349.298 152.008 349.962 148.375C350.627 144.742 351.623 141.246 352.951 137.887C354.318 134.527 356.017 131.422 358.048 128.57C360.119 125.68 362.521 123.16 365.255 121.012C367.99 118.863 371.076 117.184 374.513 115.973C377.99 114.762 381.818 114.156 385.998 114.156C389.474 114.156 392.638 114.645 395.49 115.621C398.38 116.559 400.939 117.887 403.166 119.605C405.431 121.285 407.384 123.297 409.025 125.641C410.705 127.984 412.072 130.562 413.127 133.375C414.22 136.148 415.021 139.098 415.529 142.223C416.076 145.309 416.349 148.453 416.349 151.656ZM392.912 148.609C392.912 147.516 392.795 146.402 392.56 145.27C392.326 144.098 391.935 143.043 391.388 142.105C390.88 141.168 390.197 140.406 389.337 139.82C388.478 139.195 387.404 138.883 386.115 138.883C384.552 138.883 383.166 139.312 381.955 140.172C380.783 140.992 379.767 142.047 378.908 143.336C378.048 144.586 377.345 145.953 376.798 147.438C376.252 148.922 375.841 150.289 375.568 151.539L392.912 149.898V148.609ZM484.203 152.477C484.203 157.945 483.5 162.848 482.094 167.184C480.688 171.52 478.715 175.367 476.176 178.727C473.676 182.047 470.688 184.879 467.211 187.223C463.734 189.566 459.926 191.5 455.785 193.023C451.645 194.508 447.23 195.602 442.543 196.305C437.895 197.008 433.109 197.359 428.188 197.359C426.352 197.359 424.555 197.32 422.797 197.242C421.039 197.125 419.242 196.969 417.406 196.773L419.047 120.484C423.344 119.117 427.758 118.16 432.289 117.613C436.859 117.027 441.391 116.734 445.883 116.734C451.469 116.734 456.605 117.516 461.293 119.078C465.98 120.641 470.023 122.945 473.422 125.992C476.82 129 479.457 132.73 481.332 137.184C483.246 141.598 484.203 146.695 484.203 152.477ZM444.359 174.977C446.703 174.625 448.832 173.922 450.746 172.867C452.699 171.773 454.379 170.445 455.785 168.883C457.191 167.281 458.266 165.484 459.008 163.492C459.789 161.461 460.18 159.312 460.18 157.047C460.18 154.82 459.945 152.75 459.477 150.836C459.008 148.883 458.246 147.203 457.191 145.797C456.137 144.352 454.75 143.219 453.031 142.398C451.312 141.539 449.203 141.07 446.703 140.992L444.359 174.977Z" fill="black"/>
</svg>
