<svg width="102" height="94" viewBox="0 0 102 94" fill="none" xmlns="http://www.w3.org/2000/svg">
<mask id="mask0_637_44304" style="mask-type:luminance" maskUnits="userSpaceOnUse" x="0" y="0" width="102" height="80">
<path d="M0 0.713501H102V79.3333H0V0.713501Z" fill="white"/>
</mask>
<g mask="url(#mask0_637_44304)">
<path d="M94.0833 78.302H7.93229C3.55729 78.302 0.015625 74.7552 0.015625 70.3854V8.63017C0.015625 4.26038 3.5625 0.713501 7.93229 0.713501H28.6146C33.5208 0.713501 37.3021 5.73954 39.4479 7.19788C40.6615 8.13017 41.9948 8.61975 43.1719 9.03121C44.6406 9.54163 47.4531 9.48954 47.4531 9.48954H93.9323C98.3021 9.48954 101.844 13.0312 101.844 17.401L102 70.3802C102 74.7552 98.4531 78.2968 94.0833 78.2968V78.302Z" fill="#FFDE59"/>
</g>
<mask id="mask1_637_44304" style="mask-type:luminance" maskUnits="userSpaceOnUse" x="0" y="15" width="102" height="79">
<path d="M0 15.3334H102V93.7136H0V15.3334Z" fill="white"/>
</mask>
<g mask="url(#mask1_637_44304)">
<path d="M7.93229 16.5886H94.0885C94.6042 16.5886 95.1198 16.6407 95.6302 16.7397C96.1406 16.8438 96.6354 16.9949 97.1146 17.1928C97.5938 17.3907 98.0521 17.6355 98.4844 17.922C98.9167 18.2136 99.3125 18.5417 99.6823 18.9063C100.052 19.2761 100.38 19.6772 100.667 20.1095C100.953 20.5417 101.198 20.9949 101.396 21.474C101.599 21.9584 101.745 22.4532 101.849 22.9584C101.948 23.4688 102 23.9845 102 24.5053V86.2605C102 86.7813 101.948 87.297 101.849 87.8074C101.745 88.3126 101.599 88.8074 101.396 89.2918C101.198 89.7709 100.953 90.224 100.667 90.6563C100.38 91.0886 100.052 91.4897 99.6823 91.8595C99.3125 92.224 98.9167 92.5522 98.4844 92.8438C98.0521 93.1303 97.5938 93.3751 97.1146 93.573C96.6354 93.7709 96.1406 93.922 95.6302 94.0209C95.1198 94.1251 94.6042 94.1772 94.0885 94.1772H7.93229C7.41146 94.1772 6.89583 94.1251 6.39063 94.0209C5.88021 93.922 5.38542 93.7709 4.90104 93.573C4.42188 93.3751 3.96875 93.1303 3.53646 92.8438C3.10417 92.5522 2.70313 92.224 2.33333 91.8595C1.96875 91.4897 1.64063 91.0886 1.35417 90.6563C1.0625 90.224 0.817708 89.7709 0.619792 89.2918C0.421874 88.8074 0.270834 88.3126 0.171875 87.8074C0.0677083 87.297 0.015625 86.7813 0.015625 86.2605V24.5053C0.015625 23.9845 0.0677083 23.4688 0.171875 22.9584C0.270834 22.4532 0.421874 21.9584 0.619792 21.474C0.817708 20.9949 1.0625 20.5417 1.35417 20.1095C1.64063 19.6772 1.96875 19.2761 2.33333 18.9063C2.70313 18.5417 3.10417 18.2136 3.53646 17.922C3.96875 17.6355 4.42188 17.3907 4.90104 17.1928C5.38542 16.9949 5.88021 16.8438 6.39063 16.7397C6.89583 16.6407 7.41146 16.5886 7.93229 16.5886Z" fill="#FEE88F"/>
</g>
</svg>
