<svg width="102" height="94" viewBox="0 0 102 94" fill="none" xmlns="http://www.w3.org/2000/svg">
<mask id="mask0_637_44303" style="mask-type:luminance" maskUnits="userSpaceOnUse" x="0" y="0" width="102" height="79">
<path d="M0 0.359375H102V79H0V0.359375Z" fill="white"/>
</mask>
<g mask="url(#mask0_637_44303)">
<path d="M94.0833 77.9427H7.93229C3.55729 77.9427 0.015625 74.3958 0.015625 70.026V8.27083C0.015625 3.90104 3.5625 0.359375 7.93229 0.359375H28.6146C33.5208 0.359375 37.3021 5.38542 39.4479 6.83854C40.6615 7.77604 41.9948 8.26563 43.1719 8.67188C44.6406 9.1875 47.4531 9.13021 47.4531 9.13021H93.9323C98.3021 9.13021 101.844 12.6771 101.844 17.0469L102 70.026C102 74.3958 98.4531 77.9427 94.0833 77.9427Z" fill="#FF66C4"/>
</g>
<mask id="mask1_637_44303" style="mask-type:luminance" maskUnits="userSpaceOnUse" x="0" y="15" width="102" height="79">
<path d="M0 15H102V93.3594H0V15Z" fill="white"/>
</mask>
<g mask="url(#mask1_637_44303)">
<path d="M7.93229 16.2344H94.0885C94.6042 16.2344 95.1198 16.2813 95.6302 16.3854C96.1406 16.4844 96.6354 16.6354 97.1146 16.8333C97.5938 17.0365 98.0521 17.276 98.4844 17.5677C98.9167 17.8542 99.3125 18.1823 99.6823 18.5521C100.052 18.9167 100.38 19.3177 100.667 19.75C100.953 20.1823 101.198 20.6406 101.396 21.1198C101.599 21.599 101.745 22.0937 101.849 22.6042C101.948 23.1146 102 23.6302 102 24.1458V85.9063C102 86.4219 101.948 86.9375 101.849 87.4479C101.745 87.9583 101.599 88.4531 101.396 88.9323C101.198 89.4115 100.953 89.8698 100.667 90.3021C100.38 90.7344 100.052 91.1354 99.6823 91.5C99.3125 91.8698 98.9167 92.1979 98.4844 92.4844C98.0521 92.7708 97.5938 93.0156 97.1146 93.2135C96.6354 93.4167 96.1406 93.5625 95.6302 93.6667C95.1198 93.7656 94.6042 93.8177 94.0885 93.8177H7.93229C7.41146 93.8177 6.89583 93.7656 6.39063 93.6667C5.88021 93.5625 5.38542 93.4167 4.90104 93.2135C4.42188 93.0156 3.96875 92.7708 3.53646 92.4844C3.10417 92.1979 2.70313 91.8698 2.33333 91.5C1.96875 91.1354 1.64063 90.7344 1.35417 90.3021C1.0625 89.8698 0.817708 89.4115 0.619792 88.9323C0.421874 88.4531 0.270834 87.9583 0.171875 87.4479C0.0677083 86.9375 0.015625 86.4219 0.015625 85.9063V24.1458C0.015625 23.6302 0.0677083 23.1146 0.171875 22.6042C0.270834 22.0937 0.421874 21.599 0.619792 21.1198C0.817708 20.6406 1.0625 20.1823 1.35417 19.75C1.64063 19.3177 1.96875 18.9167 2.33333 18.5521C2.70313 18.1823 3.10417 17.8542 3.53646 17.5677C3.96875 17.276 4.42188 17.0365 4.90104 16.8333C5.38542 16.6354 5.88021 16.4844 6.39063 16.3854C6.89583 16.2813 7.41146 16.2344 7.93229 16.2344Z" fill="#FFA7DD"/>
</g>
</svg>
