<svg width="102" height="94" viewBox="0 0 102 94" fill="none" xmlns="http://www.w3.org/2000/svg">
<mask id="mask0_637_44305" style="mask-type:luminance" maskUnits="userSpaceOnUse" x="0" y="0" width="102" height="79">
<path d="M0 0.375H102V78.3333H0V0.375Z" fill="white"/>
</mask>
<g mask="url(#mask0_637_44305)">
<path d="M94.0833 77.9583H7.93229C3.55729 77.9583 0.015625 74.4167 0.015625 70.0469V8.28646C0.015625 3.91667 3.5625 0.375 7.93229 0.375H28.6146C33.5208 0.375 37.3021 5.40104 39.4479 6.85417C40.6615 7.79167 41.9948 8.28125 43.1719 8.69271C44.6406 9.20313 47.4531 9.14583 47.4531 9.14583H93.9323C98.3021 9.14583 101.844 12.6927 101.844 17.0625L102 70.0417C102 74.4167 98.4531 77.9583 94.0833 77.9583Z" fill="#5CE1E6"/>
</g>
<mask id="mask1_637_44305" style="mask-type:luminance" maskUnits="userSpaceOnUse" x="0" y="15" width="102" height="79">
<path d="M0 15.6666H102V93.375H0V15.6666Z" fill="white"/>
</mask>
<g mask="url(#mask1_637_44305)">
<path d="M7.93229 16.25H94.0885C94.6042 16.25 95.1198 16.3021 95.6302 16.401C96.1406 16.5052 96.6354 16.651 97.1146 16.8542C97.5938 17.0521 98.0521 17.2969 98.4844 17.5833C98.9167 17.8698 99.3125 18.1979 99.6823 18.5677C100.052 18.9375 100.38 19.3333 100.667 19.7656C100.953 20.1979 101.198 20.6563 101.396 21.1354C101.599 21.6146 101.745 22.1094 101.849 22.6198C101.948 23.1302 102 23.6458 102 24.1667V85.9219C102 86.4427 101.948 86.9531 101.849 87.4635C101.745 87.974 101.599 88.4688 101.396 88.9479C101.198 89.4271 100.953 89.8854 100.667 90.3177C100.38 90.75 100.052 91.151 99.6823 91.5156C99.3125 91.8854 98.9167 92.2135 98.4844 92.5C98.0521 92.7917 97.5938 93.0313 97.1146 93.2344C96.6354 93.4323 96.1406 93.5833 95.6302 93.6823C95.1198 93.7865 94.6042 93.8333 94.0885 93.8333H7.93229C7.41146 93.8333 6.89583 93.7865 6.39063 93.6823C5.88021 93.5833 5.38542 93.4323 4.90104 93.2344C4.42188 93.0313 3.96875 92.7917 3.53646 92.5C3.10417 92.2135 2.70313 91.8854 2.33333 91.5156C1.96875 91.151 1.64063 90.75 1.35417 90.3177C1.0625 89.8854 0.817708 89.4271 0.619792 88.9479C0.421874 88.4688 0.270834 87.974 0.171875 87.4635C0.0677083 86.9531 0.015625 86.4427 0.015625 85.9219V24.1667C0.015625 23.6458 0.0677083 23.1302 0.171875 22.6198C0.270834 22.1094 0.421874 21.6146 0.619792 21.1354C0.817708 20.6563 1.0625 20.1979 1.35417 19.7656C1.64063 19.3333 1.96875 18.9375 2.33333 18.5677C2.70313 18.1979 3.10417 17.8698 3.53646 17.5833C3.96875 17.2969 4.42188 17.0521 4.90104 16.8542C5.38542 16.651 5.88021 16.5052 6.39063 16.401C6.89583 16.3021 7.41146 16.25 7.93229 16.25Z" fill="#93E2E5"/>
</g>
</svg>
