<svg width="709" height="491" viewBox="0 0 709 491" fill="none" xmlns="http://www.w3.org/2000/svg">
<path d="M15.4951 97.2606H5.44824V82.7397H15.4951V97.2606Z" fill="black"/>
<path d="M236.354 111.349L226.984 170.661H245.646V92.9739L236.354 111.349Z" fill="black"/>
<path d="M231.229 39.5103L224.068 122.307C224.068 122.307 274.24 91.354 231.229 39.5103Z" fill="black"/>
<path d="M99.2812 457.078H82.0469V443.161H99.2812V457.078Z" fill="black"/>
<path d="M99.2812 326.896V400.036H82.0469V326.896H99.2812Z" fill="black"/>
<path d="M90.6564 334.24H77.6616V347.016H103.656V334.24H90.6564Z" fill="black"/>
<path d="M90.6564 312.521H73.4272V341.266H107.891V312.521H90.6564Z" fill="black"/>
<path d="M90.6564 372.573H77.6616V415.375H103.656V372.573H90.6564Z" fill="black"/>
<path d="M161.49 428.776L103.656 415.375H77.6616L19.8387 428.776C19.8387 428.776 9.30225 434.531 7.55225 449.234H19.8387L25.5783 439.646L77.6616 427.5V444.755H103.656V427.5L155.75 439.646L161.49 449.234H173.771C172.011 434.531 161.49 428.776 161.49 428.776Z" fill="black"/>
<path d="M29.9844 459.76C29.9844 468.057 23.2813 474.776 14.9948 474.776C6.70312 474.776 0 468.057 0 459.76C0 451.474 6.70312 444.755 14.9948 444.755C23.2813 444.755 29.9844 451.474 29.9844 459.76Z" fill="black"/>
<path d="M26.1562 459.76C26.1562 465.943 21.1667 470.938 14.9948 470.938C8.82292 470.938 3.82812 465.943 3.82812 459.76C3.82812 453.589 8.82292 448.589 14.9948 448.589C21.1667 448.589 26.1562 453.589 26.1562 459.76Z" fill="black"/>
<path d="M151.287 461.365C151.287 469.646 157.99 476.375 166.276 476.375C174.552 476.375 181.261 469.646 181.261 461.365C181.261 453.068 174.552 446.354 166.276 446.354C157.99 446.354 151.287 453.068 151.287 461.365Z" fill="black"/>
<path d="M177.438 461.365C177.438 467.531 172.448 472.547 166.276 472.547C160.104 472.547 155.109 467.531 155.109 461.365C155.109 455.193 160.104 450.188 166.276 450.188C172.448 450.188 177.438 455.193 177.438 461.365Z" fill="black"/>
<path d="M21.5003 301.359H14.3232V289.385H21.5003V301.359Z" fill="black"/>
<path d="M0.849121 146.516H7.0835C7.0835 146.516 25.8075 259.552 21.8075 290.214H13.0418L0.849121 146.516Z" fill="black"/>
<path d="M13.042 66.3438C13.042 66.3438 68.7972 66.3438 37.5368 255.958L29.2972 257.828L13.042 66.3438Z" fill="black"/>
<path d="M21.8076 258.719L35.6305 257.073C35.6305 257.073 51.8909 80.4896 15.5159 66.6562C15.5159 66.6562 -12.1091 47.7916 21.8076 258.719Z" fill="black"/>
<path d="M173.927 307.729L98.318 305.5L22.7086 307.729C22.7086 307.729 21.745 323.063 28.1253 325.615H168.505C174.891 323.063 173.927 307.729 173.927 307.729Z" fill="black"/>
<path d="M21.8072 290.214C21.8072 290.214 116.807 274.651 170.49 290.214C170.49 290.214 182.578 301.958 176.255 314.734H22.3697C22.3697 314.734 14.052 305.318 21.8072 290.214Z" fill="black"/>
<path d="M396.485 464.255H114.808V218.75H396.485V464.255Z" fill="black"/>
<path d="M396.485 464.255H114.808V436.469H396.485V464.255Z" fill="black"/>
<mask id="mask0_736_45553" style="mask-type:luminance" maskUnits="userSpaceOnUse" x="100" y="190" width="17" height="301">
<path d="M100.224 190.63H116.224V491H100.224V190.63Z" fill="white"/>
</mask>
<g mask="url(#mask0_736_45553)">
<path d="M115.615 490.646H100.308V191.745H115.615V490.646Z" fill="black"/>
</g>
<mask id="mask1_736_45553" style="mask-type:luminance" maskUnits="userSpaceOnUse" x="389" y="190" width="18" height="301">
<path d="M389.558 190.63H406.891V491H389.558V190.63Z" fill="white"/>
</mask>
<g mask="url(#mask1_736_45553)">
<path d="M405.943 490.646H390.636V191.745H405.943V490.646Z" fill="black"/>
</g>
<path d="M437.854 221.391H63.9375V188.417H437.854V221.391Z" fill="black"/>
<path d="M437.854 210.214H63.9375V197.464H437.854V210.214Z" fill="black"/>
<mask id="mask2_736_45553" style="mask-type:luminance" maskUnits="userSpaceOnUse" x="53" y="177" width="396" height="23">
<path d="M53.5576 177.297H448.875V199.964H53.5576V177.297Z" fill="white"/>
</mask>
<g mask="url(#mask2_736_45553)">
<path d="M448.969 199.005H54.2295V177.833H448.969V199.005Z" fill="black"/>
</g>
<mask id="mask3_736_45553" style="mask-type:luminance" maskUnits="userSpaceOnUse" x="53" y="187" width="396" height="13">
<path d="M53.5576 187.964H448.875V199.964H53.5576V187.964Z" fill="white"/>
</mask>
<g mask="url(#mask3_736_45553)">
<path d="M54.2295 188.417V199.005H448.969V188.417H54.2295Z" fill="black"/>
</g>
<path d="M110.693 177.833V175.297L114.807 170.552H197.787V177.833H110.693Z" fill="black"/>
<path d="M261.438 177.833H211.011V169.245H261.438V177.833Z" fill="black"/>
<mask id="mask4_736_45553" style="mask-type:luminance" maskUnits="userSpaceOnUse" x="205" y="0" width="30" height="152">
<path d="M205.558 0H234.891V151.964H205.558V0Z" fill="white"/>
</mask>
<g mask="url(#mask4_736_45553)">
<path d="M222 146.021C221.74 149.016 219.099 151.229 216.131 150.974L210.604 150.49C207.631 150.234 205.412 147.589 205.667 144.609L217.719 5.58333C217.979 2.60416 220.625 0.374999 223.594 0.640623L229.11 1.11979C232.089 1.375 234.313 4.01562 234.052 7.00521L222 146.021Z" fill="black"/>
</g>
<mask id="mask5_736_45553" style="mask-type:luminance" maskUnits="userSpaceOnUse" x="205" y="0" width="20" height="151">
<path d="M205.558 0H224.224V150.63H205.558V0Z" fill="white"/>
</mask>
<g mask="url(#mask5_736_45553)">
<path d="M224.068 0.671873L223.594 0.640623C220.625 0.374999 217.979 2.60416 217.719 5.58333L205.667 144.609C205.412 147.589 207.631 150.234 210.604 150.49L211.74 150.594L224.068 0.671873Z" fill="black"/>
</g>
<path d="M423.099 163.057H335.813C332.307 163.057 329.443 165.917 329.443 169.422V171.531C329.443 175.031 332.307 177.891 335.813 177.891H423.099V176.24H420.245V164.703H423.099V163.057Z" fill="black"/>
<path d="M420.245 164.703H337.49C334.776 164.703 332.552 166.932 332.552 169.656V171.297C332.552 174.021 334.776 176.24 337.49 176.24H420.245V164.703Z" fill="black"/>
<path d="M423.094 148.229H335.813C332.302 148.229 329.443 151.089 329.443 154.589V156.703C329.443 160.193 332.302 163.057 335.813 163.057H423.094V161.406H420.245V149.875H423.094V148.229Z" fill="black"/>
<path d="M420.245 149.875H337.49C334.776 149.875 332.542 152.099 332.542 154.828V156.458C332.542 159.188 334.776 161.406 337.49 161.406H420.245V149.875Z" fill="black"/>
<path d="M423.094 133.391H335.813C332.302 133.391 329.443 136.26 329.443 139.75V141.859C329.443 145.359 332.302 148.229 335.813 148.229H423.094V146.578L420.245 146.573V135.042H423.094V133.391Z" fill="black"/>
<path d="M420.245 135.042H337.49C334.776 135.042 332.542 137.266 332.542 139.984V141.63C332.542 144.349 334.776 146.573 337.49 146.573H420.245V135.042Z" fill="black"/>
<path d="M423.099 118.562H335.813C332.307 118.562 329.443 121.411 329.443 124.922V127.031C329.443 130.526 332.307 133.391 335.813 133.391H423.099V131.745H420.245V120.214H423.099V118.562Z" fill="black"/>
<path d="M420.245 120.214H337.49C334.776 120.214 332.552 122.432 332.552 125.156V126.802C332.552 129.526 334.776 131.745 337.49 131.745H420.245V120.214Z" fill="black"/>
<path d="M423.099 103.729H335.813C332.307 103.729 329.443 106.583 329.443 110.083V112.193C329.443 115.698 332.307 118.563 335.813 118.563H423.099V116.912H420.245V105.375H423.099V103.729Z" fill="black"/>
<path d="M420.245 105.375H337.49C334.776 105.375 332.552 107.599 332.552 110.318V111.958C332.552 114.688 334.776 116.911 337.49 116.911H420.245V105.375Z" fill="black"/>
<path d="M363.36 84.2918L358.646 88.6095L302.162 26.8283L306.88 22.5054L363.36 84.2918Z" fill="black"/>
<path d="M335.714 161.953L332.761 160.943L358.058 86.4375L361.021 87.4427L335.714 161.953Z" fill="black"/>
<path d="M341.839 164.036L338.88 163.021L364.177 88.5312L367.141 89.526L341.839 164.036Z" fill="black"/>
<path d="M370.927 87.2293C370.927 92.7085 366.484 97.146 361.021 97.146C355.547 97.146 351.125 92.7085 351.125 87.2293C351.125 81.7554 355.547 77.3179 361.021 77.3179C366.484 77.3179 370.927 81.7554 370.927 87.2293Z" fill="black"/>
<path d="M366.881 87.2293C366.881 90.4637 364.256 93.0991 361.021 93.0991C357.782 93.0991 355.167 90.4637 355.167 87.2293C355.167 83.9793 357.782 81.3647 361.021 81.3647C364.256 81.3647 366.881 83.9793 366.881 87.2293Z" fill="black"/>
<path d="M379.677 177.833H299.594V168.76H379.677V177.833Z" fill="black"/>
<path d="M379.677 171.349H299.594V168.76H379.677V171.349Z" fill="black"/>
<path d="M374.875 168.76H304.406V160.141H374.875V168.76Z" fill="black"/>
<path d="M374.875 168.76H304.406V162.224H374.875V168.76Z" fill="black"/>
<path d="M357.36 160.141H321.933V153.677H357.36V160.141Z" fill="black"/>
<path d="M288.245 54.7187C282.563 60.2604 273.49 60.1406 267.953 54.4531C262.422 48.776 262.542 39.6822 268.224 34.1458C273.906 28.6145 282.985 28.7343 288.516 34.4114C294.037 40.0989 293.922 49.1874 288.245 54.7187Z" fill="black"/>
<path d="M307.146 30.8178C311.281 26.797 311.359 20.1876 307.333 16.0574C303.318 11.9272 296.734 11.8438 292.594 15.8595L281.766 26.422L296.318 41.3803L307.146 30.8178Z" fill="black"/>
<path d="M293.99 69.0417C305.297 58.0104 305.547 39.8854 294.526 28.5521C283.495 17.2239 265.391 16.9739 254.078 28.0156L293.99 69.0417Z" fill="black"/>
<mask id="mask6_736_45553" style="mask-type:luminance" maskUnits="userSpaceOnUse" x="497" y="155" width="212" height="323">
<path d="M497.599 155.062H708.599V477.062H497.599V155.062Z" fill="white"/>
</mask>
<g mask="url(#mask6_736_45553)">
<mask id="mask7_736_45553" style="mask-type:luminance" maskUnits="userSpaceOnUse" x="497" y="154" width="213" height="324">
<path d="M709.558 154.63H497.558V477.297H709.558V154.63Z" fill="white"/>
</mask>
<g mask="url(#mask7_736_45553)">
<path d="M679.745 325.516C680.161 325.552 680.583 325.547 681 325.505C681.417 325.458 681.828 325.37 682.229 325.245C682.63 325.12 683.016 324.953 683.38 324.75C683.75 324.552 684.099 324.312 684.417 324.042C684.74 323.771 685.031 323.474 685.297 323.146C685.562 322.818 685.786 322.469 685.984 322.094C686.177 321.724 686.333 321.333 686.453 320.932C686.568 320.526 686.646 320.115 686.682 319.698L694.87 226.151C694.906 225.734 694.901 225.318 694.854 224.896C694.812 224.479 694.724 224.068 694.599 223.667C694.474 223.266 694.307 222.885 694.104 222.516C693.901 222.146 693.667 221.802 693.396 221.479C693.125 221.156 692.828 220.865 692.5 220.599C692.172 220.338 691.818 220.109 691.448 219.917C691.073 219.719 690.687 219.568 690.281 219.448C689.88 219.328 689.469 219.255 689.047 219.219C688.63 219.177 688.208 219.182 687.792 219.229C687.375 219.276 686.964 219.359 686.562 219.49C686.161 219.615 685.776 219.781 685.406 219.979C685.042 220.182 684.693 220.422 684.37 220.687C684.052 220.958 683.755 221.26 683.495 221.588C683.229 221.917 683 222.266 682.807 222.635C682.615 223.01 682.458 223.401 682.339 223.802C682.224 224.208 682.146 224.62 682.109 225.036L673.922 318.583C673.885 319 673.891 319.417 673.932 319.838C673.979 320.255 674.068 320.661 674.193 321.062C674.318 321.463 674.484 321.849 674.687 322.219C674.891 322.588 675.125 322.932 675.396 323.255C675.667 323.578 675.964 323.87 676.292 324.13C676.62 324.396 676.969 324.625 677.344 324.818C677.719 325.01 678.104 325.167 678.51 325.286C678.911 325.401 679.323 325.479 679.745 325.516Z" fill="black"/>
<path d="M660.344 268.219C662.844 232.948 667.683 200.521 675.766 166.094C677.448 158.937 685.24 155.052 692.037 157.87L692.266 157.963C697.73 160.224 700.657 166.109 699.282 171.859C691.396 204.844 686.771 235.849 684.511 269.687C684.12 275.588 679.573 280.338 673.683 280.88C673.605 280.885 673.521 280.896 673.438 280.901C666.115 281.573 659.823 275.552 660.344 268.219Z" fill="black"/>
<mask id="mask8_736_45553" style="mask-type:luminance" maskUnits="userSpaceOnUse" x="497" y="305" width="186" height="41">
<path d="M497.599 305.297H682.891V345.297H497.599V305.297Z" fill="white"/>
</mask>
<g mask="url(#mask8_736_45553)">
<path d="M662.87 306.333H517.682C516.422 306.333 515.172 306.458 513.938 306.703C512.698 306.948 511.495 307.312 510.328 307.797C509.167 308.281 508.057 308.869 507.01 309.573C505.958 310.271 504.99 311.067 504.094 311.958C503.203 312.854 502.406 313.823 501.708 314.869C501.005 315.922 500.411 317.026 499.932 318.192C499.448 319.354 499.083 320.557 498.839 321.797C498.594 323.031 498.469 324.281 498.469 325.541C498.469 326.802 498.594 328.052 498.839 329.291C499.083 330.526 499.448 331.729 499.932 332.89C500.411 334.057 501.005 335.166 501.708 336.213C502.406 337.26 503.203 338.234 504.094 339.125C504.99 340.015 505.958 340.812 507.01 341.51C508.057 342.213 509.167 342.802 510.328 343.286C511.495 343.771 512.698 344.135 513.938 344.38C515.172 344.625 516.422 344.75 517.682 344.75H662.87C664.13 344.75 665.38 344.625 666.62 344.38C667.854 344.135 669.057 343.771 670.224 343.286C671.391 342.802 672.495 342.213 673.547 341.51C674.594 340.812 675.562 340.015 676.458 339.125C677.349 338.234 678.146 337.26 678.844 336.213C679.547 335.166 680.141 334.057 680.62 332.89C681.104 331.729 681.469 330.526 681.714 329.291C681.964 328.052 682.083 326.802 682.083 325.541C682.083 324.281 681.964 323.031 681.714 321.797C681.469 320.557 681.104 319.354 680.62 318.192C680.141 317.026 679.547 315.922 678.844 314.869C678.146 313.823 677.349 312.854 676.458 311.958C675.562 311.067 674.594 310.271 673.547 309.573C672.495 308.869 671.391 308.281 670.224 307.797C669.057 307.312 667.854 306.948 666.62 306.703C665.38 306.458 664.13 306.333 662.87 306.333Z" fill="black"/>
</g>
<mask id="mask9_736_45553" style="mask-type:luminance" maskUnits="userSpaceOnUse" x="497" y="305" width="212" height="173">
<path d="M497.599 305.297H708.224V477.062H497.599V305.297Z" fill="white"/>
</mask>
<g mask="url(#mask9_736_45553)">
<path d="M498.641 469.208L532.792 322.828C535.047 313.166 543.662 306.333 553.583 306.333H652.589C662.511 306.333 671.125 313.166 673.38 322.828L707.537 469.208C708.474 473.224 705.422 477.067 701.297 477.067C698.318 477.067 695.734 475.015 695.057 472.119L662.063 330.687C660.484 323.922 654.453 319.14 647.505 319.14H558.667C551.719 319.14 545.693 323.922 544.115 330.687L511.115 472.119C510.438 475.015 507.854 477.067 504.88 477.067H504.875C500.75 477.067 497.703 473.224 498.641 469.208Z" fill="black"/>
</g>
</g>
</g>
<mask id="mask10_736_45553" style="mask-type:luminance" maskUnits="userSpaceOnUse" x="198" y="249" width="97" height="115">
<path d="M198 249H295V364H198V249Z" fill="white"/>
</mask>
<g mask="url(#mask10_736_45553)">
<path d="M284.563 293.441V284.006C284.563 264.707 267.476 249 246.482 249C225.488 249 208.392 264.704 208.392 284.006V293.441C202.643 293.584 198.023 297.89 198.023 303.21V354.204C198.023 354.525 198.041 354.845 198.075 355.164C198.109 355.484 198.161 355.8 198.228 356.115C198.296 356.429 198.38 356.74 198.482 357.047C198.583 357.355 198.7 357.657 198.834 357.953C198.968 358.249 199.117 358.539 199.281 358.822C199.446 359.105 199.625 359.379 199.819 359.646C200.012 359.913 200.22 360.17 200.442 360.419C200.663 360.666 200.897 360.904 201.144 361.131C201.391 361.358 201.65 361.573 201.919 361.776C202.189 361.98 202.468 362.171 202.759 362.349C203.049 362.527 203.348 362.693 203.656 362.844C203.964 362.995 204.279 363.132 204.601 363.254C204.924 363.377 205.252 363.485 205.585 363.578C205.92 363.672 206.258 363.749 206.6 363.812C206.942 363.875 207.287 363.921 207.634 363.953C207.982 363.984 208.33 364 208.679 364H284.278C284.627 364 284.976 363.984 285.323 363.953C285.67 363.922 286.016 363.875 286.357 363.812C286.7 363.749 287.038 363.672 287.371 363.578C287.706 363.485 288.034 363.377 288.357 363.255C288.679 363.132 288.994 362.995 289.302 362.844C289.61 362.693 289.909 362.527 290.199 362.35C290.49 362.171 290.769 361.98 291.039 361.777C291.308 361.573 291.567 361.359 291.814 361.131C292.06 360.905 292.295 360.667 292.517 360.419C292.738 360.171 292.945 359.914 293.14 359.648C293.333 359.38 293.513 359.105 293.677 358.823C293.841 358.54 293.991 358.25 294.125 357.953C294.258 357.657 294.375 357.355 294.476 357.049C294.577 356.741 294.663 356.43 294.731 356.116C294.798 355.801 294.85 355.484 294.884 355.165C294.918 354.846 294.936 354.526 294.936 354.204V303.21C294.936 297.89 290.313 293.583 284.563 293.441ZM255.196 321.66C255.149 321.963 254.964 322.657 254.947 322.709C254.296 324.782 252.741 326.483 250.722 327.518L254.143 340.924C254.193 341.063 254.224 341.205 254.237 341.349C254.251 341.494 254.246 341.639 254.223 341.783C254.199 341.927 254.158 342.067 254.098 342.203C254.04 342.337 253.964 342.464 253.874 342.583C253.782 342.702 253.677 342.81 253.558 342.906C253.439 343.003 253.31 343.085 253.17 343.154C253.03 343.221 252.884 343.275 252.731 343.311C252.577 343.348 252.422 343.368 252.263 343.371H240.927C240.769 343.368 240.613 343.348 240.46 343.311C240.307 343.275 240.161 343.221 240.021 343.154C239.881 343.085 239.751 343.003 239.633 342.906C239.514 342.81 239.409 342.702 239.317 342.583C239.226 342.464 239.15 342.337 239.092 342.201C239.033 342.067 238.992 341.927 238.968 341.783C238.945 341.639 238.94 341.494 238.953 341.349C238.967 341.205 238.999 341.063 239.049 340.924L242.237 327.518C240.217 326.483 238.663 324.782 238.013 322.709C237.995 322.657 237.809 321.963 237.762 321.66C237.703 321.285 237.673 320.909 237.671 320.532C237.671 320.266 237.686 320.001 237.714 319.737C237.743 319.473 237.785 319.211 237.84 318.951C237.897 318.692 237.967 318.434 238.05 318.18C238.134 317.927 238.23 317.677 238.341 317.432C238.451 317.187 238.574 316.947 238.711 316.713C238.846 316.48 238.995 316.252 239.155 316.032C239.316 315.811 239.487 315.599 239.669 315.393C239.853 315.188 240.046 314.992 240.25 314.804C240.454 314.617 240.668 314.439 240.891 314.27C241.113 314.103 241.345 313.944 241.585 313.797C241.824 313.65 242.072 313.514 242.327 313.388C242.581 313.264 242.841 313.15 243.108 313.049C243.374 312.948 243.646 312.858 243.921 312.781C244.198 312.703 244.478 312.639 244.76 312.588C245.043 312.536 245.329 312.497 245.615 312.472C245.902 312.445 246.191 312.432 246.479 312.432C246.768 312.432 247.055 312.445 247.343 312.472C247.63 312.497 247.915 312.536 248.197 312.588C248.481 312.639 248.76 312.703 249.036 312.781C249.313 312.858 249.583 312.948 249.85 313.049C250.117 313.15 250.378 313.264 250.632 313.388C250.886 313.514 251.133 313.65 251.374 313.797C251.613 313.944 251.844 314.103 252.068 314.27C252.291 314.439 252.504 314.617 252.708 314.804C252.912 314.992 253.106 315.188 253.288 315.393C253.472 315.599 253.643 315.811 253.804 316.032C253.963 316.252 254.112 316.48 254.248 316.713C254.383 316.947 254.506 317.187 254.618 317.432C254.727 317.677 254.824 317.927 254.908 318.18C254.992 318.434 255.062 318.692 255.117 318.951C255.174 319.211 255.216 319.473 255.244 319.737C255.273 320.001 255.286 320.266 255.286 320.532C255.286 320.909 255.256 321.285 255.196 321.66ZM271.56 293.414H221.396V284.006C221.396 271.29 232.646 260.947 246.482 260.947C260.318 260.947 271.56 271.29 271.56 284.006V293.414Z" fill="#A6A6A6"/>
</g>
</svg>
