<svg width="709" height="491" viewBox="0 0 709 491" fill="none" xmlns="http://www.w3.org/2000/svg">
<path d="M15.4951 97.2606H5.44824V82.7397H15.4951V97.2606Z" fill="#ADE970"/>
<path d="M236.354 111.349L226.984 170.661H245.646V92.9739L236.354 111.349Z" fill="#ADE970"/>
<path d="M231.229 39.5103L224.068 122.307C224.068 122.307 274.24 91.354 231.229 39.5103Z" fill="#ADE970"/>
<path d="M99.2813 457.078H82.0469V443.161H99.2813V457.078Z" fill="#ADE970"/>
<path d="M99.2813 326.896V400.036H82.0469V326.896H99.2813Z" fill="#ADE970"/>
<path d="M90.6564 334.24H77.6616V347.016H103.656V334.24H90.6564Z" fill="#ADE970"/>
<path d="M90.6564 312.521H73.4272V341.266H107.891V312.521H90.6564Z" fill="#ADE970"/>
<path d="M90.6564 372.573H77.6616V415.375H103.656V372.573H90.6564Z" fill="#ADE970"/>
<path d="M161.49 428.776L103.656 415.375H77.6616L19.8387 428.776C19.8387 428.776 9.30225 434.531 7.55225 449.234H19.8387L25.5783 439.646L77.6616 427.5V444.755H103.656V427.5L155.75 439.646L161.49 449.234H173.771C172.011 434.531 161.49 428.776 161.49 428.776Z" fill="#ADE970"/>
<path d="M29.9844 459.76C29.9844 468.057 23.2813 474.776 14.9948 474.776C6.70313 474.776 0 468.057 0 459.76C0 451.474 6.70313 444.755 14.9948 444.755C23.2813 444.755 29.9844 451.474 29.9844 459.76Z" fill="#ADE970"/>
<path d="M26.1563 459.76C26.1563 465.943 21.1667 470.938 14.9948 470.938C8.82292 470.938 3.82812 465.943 3.82812 459.76C3.82812 453.589 8.82292 448.589 14.9948 448.589C21.1667 448.589 26.1563 453.589 26.1563 459.76Z" fill="#ADE970"/>
<path d="M151.287 461.365C151.287 469.646 157.99 476.375 166.276 476.375C174.552 476.375 181.261 469.646 181.261 461.365C181.261 453.068 174.552 446.354 166.276 446.354C157.99 446.354 151.287 453.068 151.287 461.365Z" fill="#ADE970"/>
<path d="M177.438 461.365C177.438 467.531 172.448 472.547 166.276 472.547C160.104 472.547 155.109 467.531 155.109 461.365C155.109 455.193 160.104 450.188 166.276 450.188C172.448 450.188 177.438 455.193 177.438 461.365Z" fill="#ADE970"/>
<path d="M21.5003 301.359H14.3232V289.385H21.5003V301.359Z" fill="#ADE970"/>
<path d="M0.849121 146.516H7.0835C7.0835 146.516 25.8075 259.552 21.8075 290.214H13.0418L0.849121 146.516Z" fill="#ADE970"/>
<path d="M13.042 66.3438C13.042 66.3438 68.7972 66.3438 37.5368 255.958L29.2972 257.828L13.042 66.3438Z" fill="#ADE970"/>
<path d="M21.8076 258.719L35.6305 257.073C35.6305 257.073 51.8909 80.4896 15.5159 66.6562C15.5159 66.6562 -12.1091 47.7916 21.8076 258.719Z" fill="#ADE970"/>
<path d="M173.927 307.729L98.318 305.5L22.7086 307.729C22.7086 307.729 21.745 323.063 28.1253 325.615H168.505C174.891 323.063 173.927 307.729 173.927 307.729Z" fill="#ADE970"/>
<path d="M21.8072 290.214C21.8072 290.214 116.807 274.651 170.49 290.214C170.49 290.214 182.578 301.958 176.255 314.734H22.3697C22.3697 314.734 14.052 305.318 21.8072 290.214Z" fill="#ADE970"/>
<path d="M396.485 464.255H114.808V218.75H396.485V464.255Z" fill="#ADE970"/>
<path d="M396.485 464.255H114.808V436.469H396.485V464.255Z" fill="#ADE970"/>
<mask id="mask0_900_29063" style="mask-type:luminance" maskUnits="userSpaceOnUse" x="100" y="190" width="17" height="301">
<path d="M100.224 190.63H116.224V491H100.224V190.63Z" fill="white"/>
</mask>
<g mask="url(#mask0_900_29063)">
<path d="M115.615 490.646H100.307V191.745H115.615V490.646Z" fill="#ADE970"/>
</g>
<mask id="mask1_900_29063" style="mask-type:luminance" maskUnits="userSpaceOnUse" x="389" y="190" width="18" height="301">
<path d="M389.558 190.63H406.891V491H389.558V190.63Z" fill="white"/>
</mask>
<g mask="url(#mask1_900_29063)">
<path d="M405.943 490.646H390.636V191.745H405.943V490.646Z" fill="#ADE970"/>
</g>
<path d="M437.854 221.391H63.9375V188.417H437.854V221.391Z" fill="#ADE970"/>
<path d="M437.854 210.214H63.9375V197.464H437.854V210.214Z" fill="#ADE970"/>
<mask id="mask2_900_29063" style="mask-type:luminance" maskUnits="userSpaceOnUse" x="53" y="177" width="396" height="23">
<path d="M53.5576 177.297H448.875V199.964H53.5576V177.297Z" fill="white"/>
</mask>
<g mask="url(#mask2_900_29063)">
<path d="M448.969 199.005H54.2295V177.833H448.969V199.005Z" fill="#ADE970"/>
</g>
<mask id="mask3_900_29063" style="mask-type:luminance" maskUnits="userSpaceOnUse" x="53" y="187" width="396" height="13">
<path d="M53.5576 187.964H448.875V199.964H53.5576V187.964Z" fill="white"/>
</mask>
<g mask="url(#mask3_900_29063)">
<path d="M54.2295 188.417V199.005H448.969V188.417H54.2295Z" fill="#ADE970"/>
</g>
<path d="M110.693 177.833V175.297L114.807 170.552H197.787V177.833H110.693Z" fill="#ADE970"/>
<path d="M261.438 177.833H211.011V169.245H261.438V177.833Z" fill="#ADE970"/>
<mask id="mask4_900_29063" style="mask-type:luminance" maskUnits="userSpaceOnUse" x="205" y="0" width="30" height="152">
<path d="M205.558 0H234.891V151.964H205.558V0Z" fill="white"/>
</mask>
<g mask="url(#mask4_900_29063)">
<path d="M222 146.021C221.74 149.016 219.099 151.229 216.131 150.974L210.605 150.49C207.631 150.234 205.412 147.589 205.667 144.609L217.719 5.58333C217.98 2.60416 220.625 0.374999 223.594 0.640623L229.11 1.11979C232.089 1.375 234.313 4.01562 234.052 7.00521L222 146.021Z" fill="#ADE970"/>
</g>
<mask id="mask5_900_29063" style="mask-type:luminance" maskUnits="userSpaceOnUse" x="205" y="0" width="20" height="151">
<path d="M205.558 0H224.224V150.63H205.558V0Z" fill="white"/>
</mask>
<g mask="url(#mask5_900_29063)">
<path d="M224.068 0.671873L223.594 0.640623C220.625 0.374999 217.98 2.60416 217.719 5.58333L205.667 144.609C205.412 147.589 207.631 150.234 210.605 150.49L211.74 150.594L224.068 0.671873Z" fill="#ADE970"/>
</g>
<path d="M423.099 163.057H335.813C332.307 163.057 329.443 165.917 329.443 169.422V171.531C329.443 175.031 332.307 177.891 335.813 177.891H423.099V176.24H420.245V164.703H423.099V163.057Z" fill="#ADE970"/>
<path d="M420.245 164.703H337.49C334.776 164.703 332.552 166.932 332.552 169.656V171.297C332.552 174.021 334.776 176.24 337.49 176.24H420.245V164.703Z" fill="#ADE970"/>
<path d="M423.094 148.229H335.813C332.302 148.229 329.443 151.089 329.443 154.589V156.703C329.443 160.193 332.302 163.057 335.813 163.057H423.094V161.406H420.245V149.875H423.094V148.229Z" fill="#ADE970"/>
<path d="M420.245 149.875H337.49C334.776 149.875 332.542 152.099 332.542 154.828V156.458C332.542 159.188 334.776 161.406 337.49 161.406H420.245V149.875Z" fill="#ADE970"/>
<path d="M423.094 133.391H335.813C332.302 133.391 329.443 136.26 329.443 139.75V141.859C329.443 145.359 332.302 148.229 335.813 148.229H423.094V146.578L420.245 146.573V135.042H423.094V133.391Z" fill="#ADE970"/>
<path d="M420.245 135.042H337.49C334.776 135.042 332.542 137.266 332.542 139.984V141.63C332.542 144.349 334.776 146.573 337.49 146.573H420.245V135.042Z" fill="#ADE970"/>
<path d="M423.099 118.562H335.813C332.307 118.562 329.443 121.411 329.443 124.922V127.031C329.443 130.526 332.307 133.391 335.813 133.391H423.099V131.745H420.245V120.214H423.099V118.562Z" fill="#ADE970"/>
<path d="M420.245 120.214H337.49C334.776 120.214 332.552 122.432 332.552 125.156V126.802C332.552 129.526 334.776 131.745 337.49 131.745H420.245V120.214Z" fill="#ADE970"/>
<path d="M423.099 103.729H335.813C332.307 103.729 329.443 106.583 329.443 110.083V112.193C329.443 115.698 332.307 118.563 335.813 118.563H423.099V116.912H420.245V105.375H423.099V103.729Z" fill="#ADE970"/>
<path d="M420.245 105.375H337.49C334.776 105.375 332.552 107.599 332.552 110.318V111.958C332.552 114.688 334.776 116.911 337.49 116.911H420.245V105.375Z" fill="#ADE970"/>
<path d="M363.36 84.2918L358.646 88.6095L302.162 26.8283L306.88 22.5054L363.36 84.2918Z" fill="#ADE970"/>
<path d="M335.714 161.953L332.761 160.943L358.058 86.4375L361.021 87.4427L335.714 161.953Z" fill="#ADE970"/>
<path d="M341.839 164.036L338.88 163.021L364.177 88.5312L367.141 89.526L341.839 164.036Z" fill="#ADE970"/>
<path d="M370.927 87.2293C370.927 92.7085 366.484 97.146 361.021 97.146C355.547 97.146 351.125 92.7085 351.125 87.2293C351.125 81.7554 355.547 77.3179 361.021 77.3179C366.484 77.3179 370.927 81.7554 370.927 87.2293Z" fill="#ADE970"/>
<path d="M366.881 87.2293C366.881 90.4637 364.256 93.0991 361.021 93.0991C357.782 93.0991 355.167 90.4637 355.167 87.2293C355.167 83.9793 357.782 81.3647 361.021 81.3647C364.256 81.3647 366.881 83.9793 366.881 87.2293Z" fill="#ADE970"/>
<path d="M379.677 177.833H299.594V168.76H379.677V177.833Z" fill="#ADE970"/>
<path d="M379.677 171.349H299.594V168.76H379.677V171.349Z" fill="#ADE970"/>
<path d="M374.875 168.76H304.406V160.141H374.875V168.76Z" fill="#ADE970"/>
<path d="M374.875 168.76H304.406V162.224H374.875V168.76Z" fill="#ADE970"/>
<path d="M357.36 160.141H321.933V153.677H357.36V160.141Z" fill="#ADE970"/>
<path d="M288.245 54.7187C282.563 60.2604 273.49 60.1406 267.953 54.4531C262.422 48.776 262.542 39.6822 268.224 34.1458C273.906 28.6145 282.985 28.7343 288.516 34.4114C294.037 40.0989 293.922 49.1874 288.245 54.7187Z" fill="#ADE970"/>
<path d="M307.146 30.8178C311.281 26.797 311.359 20.1876 307.333 16.0574C303.318 11.9272 296.734 11.8438 292.594 15.8595L281.766 26.422L296.318 41.3803L307.146 30.8178Z" fill="#ADE970"/>
<path d="M293.99 69.0417C305.297 58.0104 305.547 39.8854 294.526 28.5521C283.495 17.2239 265.391 16.9739 254.078 28.0156L293.99 69.0417Z" fill="#ADE970"/>
<mask id="mask6_900_29063" style="mask-type:luminance" maskUnits="userSpaceOnUse" x="497" y="155" width="212" height="323">
<path d="M497.599 155.062H708.599V477.063H497.599V155.062Z" fill="white"/>
</mask>
<g mask="url(#mask6_900_29063)">
<mask id="mask7_900_29063" style="mask-type:luminance" maskUnits="userSpaceOnUse" x="497" y="154" width="213" height="324">
<path d="M709.557 154.63H497.557V477.297H709.557V154.63Z" fill="white"/>
</mask>
<g mask="url(#mask7_900_29063)">
<path d="M679.745 325.516C680.162 325.552 680.583 325.547 681 325.505C681.417 325.458 681.828 325.37 682.229 325.245C682.63 325.12 683.016 324.953 683.38 324.75C683.75 324.552 684.099 324.312 684.417 324.042C684.74 323.771 685.031 323.474 685.297 323.146C685.563 322.818 685.787 322.469 685.985 322.094C686.177 321.724 686.333 321.333 686.453 320.932C686.568 320.526 686.646 320.115 686.682 319.698L694.87 226.151C694.906 225.734 694.901 225.318 694.854 224.896C694.813 224.479 694.724 224.068 694.599 223.667C694.474 223.266 694.307 222.885 694.104 222.516C693.901 222.146 693.667 221.802 693.396 221.479C693.125 221.156 692.828 220.865 692.5 220.599C692.172 220.338 691.818 220.109 691.448 219.917C691.073 219.719 690.688 219.568 690.281 219.448C689.88 219.328 689.469 219.255 689.047 219.219C688.63 219.177 688.208 219.182 687.792 219.229C687.375 219.276 686.964 219.359 686.563 219.49C686.162 219.615 685.776 219.781 685.406 219.979C685.042 220.182 684.693 220.422 684.37 220.687C684.052 220.958 683.755 221.26 683.495 221.588C683.229 221.917 683 222.266 682.807 222.635C682.615 223.01 682.458 223.401 682.339 223.802C682.224 224.208 682.146 224.62 682.11 225.036L673.922 318.583C673.886 319 673.891 319.417 673.932 319.838C673.979 320.255 674.068 320.661 674.193 321.062C674.318 321.463 674.485 321.849 674.688 322.219C674.891 322.588 675.125 322.932 675.396 323.255C675.667 323.578 675.964 323.87 676.292 324.13C676.62 324.396 676.969 324.625 677.344 324.818C677.719 325.01 678.104 325.167 678.511 325.286C678.912 325.401 679.323 325.479 679.745 325.516Z" fill="#ADE970"/>
<path d="M660.344 268.219C662.844 232.948 667.682 200.521 675.766 166.094C677.448 158.937 685.24 155.052 692.037 157.87L692.266 157.963C697.729 160.224 700.656 166.109 699.281 171.859C691.396 204.844 686.771 235.849 684.511 269.687C684.12 275.588 679.573 280.338 673.682 280.88C673.604 280.885 673.521 280.896 673.438 280.901C666.115 281.573 659.823 275.552 660.344 268.219Z" fill="#ADE970"/>
<mask id="mask8_900_29063" style="mask-type:luminance" maskUnits="userSpaceOnUse" x="497" y="305" width="186" height="41">
<path d="M497.599 305.297H682.891V345.297H497.599V305.297Z" fill="white"/>
</mask>
<g mask="url(#mask8_900_29063)">
<path d="M662.87 306.333H517.682C516.422 306.333 515.172 306.458 513.938 306.703C512.698 306.948 511.495 307.312 510.328 307.797C509.167 308.281 508.057 308.869 507.011 309.573C505.959 310.271 504.99 311.067 504.094 311.958C503.203 312.854 502.406 313.823 501.709 314.869C501.005 315.922 500.412 317.026 499.932 318.192C499.448 319.354 499.084 320.557 498.839 321.797C498.594 323.031 498.469 324.281 498.469 325.541C498.469 326.802 498.594 328.052 498.839 329.291C499.084 330.526 499.448 331.729 499.932 332.89C500.412 334.057 501.005 335.166 501.709 336.213C502.406 337.26 503.203 338.234 504.094 339.125C504.99 340.015 505.959 340.812 507.011 341.51C508.057 342.213 509.167 342.802 510.328 343.286C511.495 343.771 512.698 344.135 513.938 344.38C515.172 344.625 516.422 344.75 517.682 344.75H662.87C664.13 344.75 665.38 344.625 666.62 344.38C667.854 344.135 669.057 343.771 670.224 343.286C671.391 342.802 672.495 342.213 673.547 341.51C674.594 340.812 675.563 340.015 676.459 339.125C677.349 338.234 678.146 337.26 678.844 336.213C679.547 335.166 680.141 334.057 680.62 332.89C681.104 331.729 681.469 330.526 681.714 329.291C681.964 328.052 682.084 326.802 682.084 325.541C682.084 324.281 681.964 323.031 681.714 321.797C681.469 320.557 681.104 319.354 680.62 318.192C680.141 317.026 679.547 315.922 678.844 314.869C678.146 313.823 677.349 312.854 676.459 311.958C675.563 311.067 674.594 310.271 673.547 309.573C672.495 308.869 671.391 308.281 670.224 307.797C669.057 307.312 667.854 306.948 666.62 306.703C665.38 306.458 664.13 306.333 662.87 306.333Z" fill="#ADE970"/>
</g>
<mask id="mask9_900_29063" style="mask-type:luminance" maskUnits="userSpaceOnUse" x="497" y="305" width="212" height="173">
<path d="M497.599 305.297H708.224V477.062H497.599V305.297Z" fill="white"/>
</mask>
<g mask="url(#mask9_900_29063)">
<path d="M498.641 469.208L532.792 322.828C535.047 313.166 543.662 306.333 553.584 306.333H652.589C662.511 306.333 671.125 313.166 673.38 322.828L707.537 469.208C708.474 473.224 705.422 477.067 701.297 477.067C698.318 477.067 695.735 475.015 695.057 472.119L662.063 330.687C660.485 323.922 654.453 319.14 647.505 319.14H558.667C551.719 319.14 545.693 323.922 544.115 330.687L511.115 472.119C510.438 475.015 507.854 477.067 504.88 477.067H504.875C500.75 477.067 497.703 473.224 498.641 469.208Z" fill="#ADE970"/>
</g>
</g>
</g>
<mask id="mask10_900_29063" style="mask-type:luminance" maskUnits="userSpaceOnUse" x="181" y="241" width="118" height="136">
<path d="M181 241H299V377H181V241Z" fill="white"/>
</mask>
<g mask="url(#mask10_900_29063)">
<path d="M286.304 293.556V282.398C286.304 259.576 265.517 241 239.978 241C214.439 241 193.642 259.572 193.642 282.398V293.556C186.648 293.725 181.028 298.817 181.028 305.109V365.416C181.028 365.795 181.05 366.173 181.091 366.551C181.132 366.929 181.195 367.303 181.278 367.675C181.36 368.047 181.463 368.414 181.586 368.778C181.709 369.141 181.852 369.498 182.015 369.849C182.178 370.199 182.359 370.542 182.558 370.876C182.76 371.211 182.977 371.535 183.213 371.852C183.448 372.166 183.701 372.471 183.971 372.765C184.24 373.058 184.525 373.338 184.824 373.607C185.125 373.875 185.44 374.13 185.767 374.37C186.096 374.611 186.435 374.837 186.789 375.047C187.142 375.258 187.506 375.454 187.881 375.632C188.255 375.811 188.638 375.974 189.03 376.118C189.423 376.264 189.822 376.391 190.227 376.501C190.634 376.612 191.045 376.703 191.463 376.778C191.878 376.852 192.298 376.907 192.72 376.945C193.143 376.982 193.567 377 193.991 377H285.957C286.382 377 286.806 376.982 287.228 376.945C287.651 376.908 288.071 376.852 288.486 376.778C288.903 376.703 289.315 376.612 289.72 376.501C290.127 376.391 290.526 376.264 290.918 376.119C291.31 375.974 291.694 375.811 292.068 375.632C292.443 375.454 292.807 375.258 293.159 375.048C293.513 374.837 293.853 374.611 294.182 374.371C294.509 374.13 294.823 373.877 295.124 373.607C295.424 373.34 295.709 373.059 295.979 372.765C296.248 372.472 296.501 372.168 296.737 371.853C296.972 371.537 297.191 371.211 297.391 370.878C297.59 370.543 297.772 370.201 297.935 369.849C298.097 369.498 298.239 369.141 298.363 368.779C298.486 368.416 298.59 368.048 298.673 367.677C298.755 367.304 298.818 366.929 298.859 366.552C298.9 366.174 298.922 365.796 298.922 365.416V305.109C298.922 298.817 293.299 293.724 286.304 293.556ZM250.579 326.929C250.521 327.287 250.297 328.107 250.276 328.169C249.484 330.62 247.593 332.632 245.136 333.857L249.298 349.71C249.358 349.874 249.396 350.042 249.412 350.213C249.429 350.385 249.423 350.555 249.395 350.726C249.365 350.897 249.316 351.062 249.244 351.222C249.173 351.381 249.081 351.532 248.97 351.672C248.859 351.813 248.731 351.94 248.586 352.054C248.442 352.168 248.285 352.265 248.114 352.347C247.944 352.427 247.766 352.49 247.58 352.533C247.393 352.576 247.204 352.6 247.011 352.604H233.221C233.029 352.6 232.839 352.576 232.653 352.533C232.466 352.49 232.288 352.427 232.118 352.347C231.948 352.265 231.791 352.168 231.647 352.054C231.501 351.94 231.373 351.813 231.262 351.672C231.152 351.532 231.059 351.381 230.989 351.221C230.917 351.062 230.867 350.897 230.837 350.726C230.81 350.555 230.804 350.385 230.82 350.213C230.836 350.042 230.876 349.874 230.936 349.71L234.814 333.857C232.357 332.632 230.466 330.62 229.676 328.169C229.654 328.107 229.428 327.287 229.37 326.929C229.298 326.485 229.262 326.04 229.26 325.594C229.26 325.28 229.278 324.966 229.312 324.654C229.347 324.342 229.398 324.032 229.466 323.725C229.535 323.418 229.62 323.113 229.721 322.813C229.823 322.514 229.94 322.218 230.075 321.928C230.209 321.638 230.359 321.355 230.525 321.078C230.689 320.802 230.87 320.533 231.065 320.272C231.26 320.011 231.469 319.76 231.691 319.517C231.914 319.275 232.149 319.042 232.397 318.821C232.645 318.599 232.905 318.389 233.177 318.189C233.447 317.991 233.729 317.803 234.021 317.629C234.312 317.456 234.613 317.294 234.923 317.146C235.233 316.999 235.549 316.864 235.873 316.744C236.198 316.625 236.528 316.519 236.863 316.428C237.199 316.336 237.54 316.26 237.884 316.2C238.227 316.138 238.576 316.092 238.924 316.062C239.273 316.03 239.624 316.015 239.975 316.015C240.326 316.015 240.676 316.03 241.025 316.062C241.375 316.092 241.721 316.138 242.065 316.2C242.41 316.26 242.749 316.336 243.086 316.428C243.422 316.519 243.751 316.625 244.076 316.744C244.4 316.864 244.717 316.999 245.027 317.146C245.336 317.294 245.637 317.456 245.929 317.629C246.22 317.803 246.502 317.991 246.773 318.189C247.045 318.389 247.304 318.599 247.552 318.821C247.8 319.042 248.036 319.275 248.258 319.517C248.481 319.76 248.69 320.011 248.885 320.272C249.079 320.533 249.26 320.802 249.426 321.078C249.59 321.355 249.74 321.638 249.875 321.928C250.009 322.218 250.126 322.514 250.229 322.813C250.33 323.113 250.416 323.418 250.483 323.725C250.552 324.032 250.603 324.342 250.637 324.654C250.673 324.966 250.689 325.28 250.689 325.594C250.689 326.04 250.652 326.485 250.579 326.929ZM270.486 293.524H209.462V282.398C209.462 267.361 223.146 255.129 239.978 255.129C256.81 255.129 270.486 267.361 270.486 282.398V293.524Z" fill="#346E00"/>
</g>
</svg>
