<svg width="710" height="492" viewBox="0 0 710 492" fill="none" xmlns="http://www.w3.org/2000/svg">
<path d="M16.271 97.9636H6.22412V83.4427H16.271V97.9636Z" fill="#B1DEE3"/>
<path d="M237.13 112.052L227.76 171.365H246.422V93.677L237.13 112.052Z" fill="#546169"/>
<path d="M232.005 40.2135L224.844 123.01C224.844 123.01 275.016 92.0573 232.005 40.2135Z" fill="#697A84"/>
<path d="M100.057 457.781H82.8228V443.865H100.057V457.781Z" fill="#323335"/>
<path d="M100.057 327.599V400.74H82.8228V327.599H100.057Z" fill="#37383D"/>
<path d="M91.4323 334.943H78.4375V347.719H104.432V334.943H91.4323Z" fill="#0F1011"/>
<path d="M91.4323 313.224H74.2031V341.969H108.667V313.224H91.4323Z" fill="#121315"/>
<path d="M91.4323 373.276H78.4375V416.078H104.432V373.276H91.4323Z" fill="#121315"/>
<path d="M162.266 429.479L104.432 416.078H78.4375L20.6146 429.479C20.6146 429.479 10.0781 435.234 8.32812 449.938H20.6146L26.3542 440.349L78.4375 428.203V445.458H104.432V428.203L156.526 440.349L162.266 449.938H174.547C172.786 435.234 162.266 429.479 162.266 429.479Z" fill="#121315"/>
<path d="M30.7603 460.463C30.7603 468.76 24.0571 475.479 15.7707 475.479C7.479 475.479 0.775879 468.76 0.775879 460.463C0.775879 452.177 7.479 445.458 15.7707 445.458C24.0571 445.458 30.7603 452.177 30.7603 460.463Z" fill="#323335"/>
<path d="M26.9321 460.464C26.9321 466.646 21.9425 471.641 15.7707 471.641C9.5988 471.641 4.604 466.646 4.604 460.464C4.604 454.292 9.5988 449.292 15.7707 449.292C21.9425 449.292 26.9321 454.292 26.9321 460.464Z" fill="#1F2021"/>
<path d="M152.062 462.068C152.062 470.349 158.766 477.078 167.052 477.078C175.328 477.078 182.036 470.349 182.036 462.068C182.036 453.771 175.328 447.057 167.052 447.057C158.766 447.057 152.062 453.771 152.062 462.068Z" fill="#323335"/>
<path d="M178.213 462.068C178.213 468.234 173.224 473.25 167.052 473.25C160.88 473.25 155.885 468.234 155.885 462.068C155.885 455.896 160.88 450.891 167.052 450.891C173.224 450.891 178.213 455.896 178.213 462.068Z" fill="#1F2021"/>
<path d="M22.2762 302.063H15.0991V290.089H22.2762V302.063Z" fill="#0F1113"/>
<path d="M1.625 147.219H7.85938C7.85938 147.219 26.5833 260.255 22.5833 290.917H13.8177L1.625 147.219Z" fill="#191C20"/>
<path d="M13.8179 67.0469C13.8179 67.0469 69.5731 67.0469 38.3127 256.661L30.0731 258.531L13.8179 67.0469Z" fill="#242D37"/>
<path d="M22.5835 259.422L36.4064 257.776C36.4064 257.776 52.6668 81.1927 16.2918 67.3594C16.2918 67.3594 -11.3332 48.4948 22.5835 259.422Z" fill="#313A48"/>
<path d="M174.703 308.432L99.0938 306.203L23.4845 308.432C23.4845 308.432 22.5209 323.766 28.9011 326.318H169.281C175.667 323.766 174.703 308.432 174.703 308.432Z" fill="#191C20"/>
<path d="M22.5831 290.917C22.5831 290.917 117.583 275.354 171.265 290.917C171.265 290.917 183.354 302.661 177.031 315.438H23.1456C23.1456 315.438 14.8279 306.021 22.5831 290.917Z" fill="#313A48"/>
<path d="M397.261 464.958H115.583V219.453H397.261V464.958Z" fill="#A6411D"/>
<path d="M397.261 464.958H115.583V437.172H397.261V464.958Z" fill="#CC6334"/>
<mask id="mask0_736_45552" style="mask-type:luminance" maskUnits="userSpaceOnUse" x="101" y="191" width="16" height="301">
<path d="M101 191.333H117V491.703H101V191.333Z" fill="white"/>
</mask>
<g mask="url(#mask0_736_45552)">
<path d="M116.391 491.349H101.083V192.448H116.391V491.349Z" fill="#CC6334"/>
</g>
<mask id="mask1_736_45552" style="mask-type:luminance" maskUnits="userSpaceOnUse" x="390" y="191" width="18" height="301">
<path d="M390.333 191.333H407.667V491.703H390.333V191.333Z" fill="white"/>
</mask>
<g mask="url(#mask1_736_45552)">
<path d="M406.719 491.349H391.412V192.448H406.719V491.349Z" fill="#CC6334"/>
</g>
<path d="M438.63 222.094H64.7134V189.12H438.63V222.094Z" fill="#D57245"/>
<path d="M438.63 210.917H64.7134V198.167H438.63V210.917Z" fill="#CC6334"/>
<mask id="mask2_736_45552" style="mask-type:luminance" maskUnits="userSpaceOnUse" x="54" y="178" width="396" height="23">
<path d="M54.3335 178H449.651V200.667H54.3335V178Z" fill="white"/>
</mask>
<g mask="url(#mask2_736_45552)">
<path d="M449.745 199.708H55.0054V178.536H449.745V199.708Z" fill="#9F2C03"/>
</g>
<mask id="mask3_736_45552" style="mask-type:luminance" maskUnits="userSpaceOnUse" x="54" y="188" width="396" height="13">
<path d="M54.3335 188.667H449.651V200.667H54.3335V188.667Z" fill="white"/>
</mask>
<g mask="url(#mask3_736_45552)">
<path d="M55.0054 189.12V199.708H449.745V189.12H55.0054Z" fill="#A6411D"/>
</g>
<path d="M111.469 178.536V176L115.583 171.255H198.563V178.536H111.469Z" fill="#53636E"/>
<path d="M262.214 178.537H211.787V169.948H262.214V178.537Z" fill="#8A98A4"/>
<mask id="mask4_736_45552" style="mask-type:luminance" maskUnits="userSpaceOnUse" x="206" y="0" width="30" height="153">
<path d="M206.333 0.703125H235.667V152.667H206.333V0.703125Z" fill="white"/>
</mask>
<g mask="url(#mask4_736_45552)">
<path d="M222.776 146.724C222.516 149.719 219.875 151.932 216.906 151.677L211.38 151.193C208.406 150.938 206.188 148.292 206.443 145.313L218.495 6.28646C218.755 3.30729 221.401 1.07812 224.37 1.34375L229.886 1.82291C232.865 2.07812 235.089 4.71875 234.828 7.70833L222.776 146.724Z" fill="#8A98A4"/>
</g>
<mask id="mask5_736_45552" style="mask-type:luminance" maskUnits="userSpaceOnUse" x="206" y="0" width="19" height="152">
<path d="M206.333 0.703125H225V151.333H206.333V0.703125Z" fill="white"/>
</mask>
<g mask="url(#mask5_736_45552)">
<path d="M224.844 1.375L224.37 1.34375C221.401 1.07812 218.755 3.30729 218.495 6.28646L206.443 145.313C206.188 148.292 208.406 150.938 211.38 151.193L212.516 151.297L224.844 1.375Z" fill="#BAC4CB"/>
</g>
<path d="M423.875 163.76H336.589C333.083 163.76 330.219 166.62 330.219 170.125V172.234C330.219 175.734 333.083 178.594 336.589 178.594H423.875V176.943H421.021V165.406H423.875V163.76Z" fill="#DC212B"/>
<path d="M421.021 165.406H338.266C335.552 165.406 333.328 167.635 333.328 170.359V172C333.328 174.724 335.552 176.943 338.266 176.943H421.021V165.406Z" fill="#E3E2DD"/>
<path d="M423.87 148.932H336.589C333.078 148.932 330.219 151.792 330.219 155.292V157.406C330.219 160.896 333.078 163.76 336.589 163.76H423.87V162.109H421.021V150.578H423.87V148.932Z" fill="#3FB93C"/>
<path d="M421.021 150.578H338.266C335.552 150.578 333.318 152.802 333.318 155.531V157.161C333.318 159.891 335.552 162.109 338.266 162.109H421.021V150.578Z" fill="#E3E2DD"/>
<path d="M423.87 134.094H336.589C333.078 134.094 330.219 136.964 330.219 140.453V142.563C330.219 146.063 333.078 148.932 336.589 148.932H423.87V147.281L421.021 147.276V135.745H423.87V134.094Z" fill="#51ABE3"/>
<path d="M421.021 135.745H338.266C335.552 135.745 333.318 137.969 333.318 140.688V142.333C333.318 145.052 335.552 147.276 338.266 147.276H421.021V135.745Z" fill="#E3E2DD"/>
<path d="M423.875 119.266H336.589C333.083 119.266 330.219 122.115 330.219 125.625V127.734C330.219 131.229 333.083 134.094 336.589 134.094H423.875V132.448H421.021V120.917H423.875V119.266Z" fill="#F48517"/>
<path d="M421.021 120.917H338.266C335.552 120.917 333.328 123.135 333.328 125.859V127.505C333.328 130.229 335.552 132.448 338.266 132.448H421.021V120.917Z" fill="#E3E2DD"/>
<path d="M423.875 104.432H336.589C333.083 104.432 330.219 107.287 330.219 110.787V112.896C330.219 116.401 333.083 119.266 336.589 119.266H423.875V117.615H421.021V106.078H423.875V104.432Z" fill="#ED2360"/>
<path d="M421.021 106.078H338.266C335.552 106.078 333.328 108.302 333.328 111.021V112.661C333.328 115.391 335.552 117.615 338.266 117.615H421.021V106.078Z" fill="#E3E2DD"/>
<path d="M364.135 84.9948L359.422 89.3125L302.938 27.5313L307.656 23.2084L364.135 84.9948Z" fill="#6D7583"/>
<path d="M336.49 162.656L333.537 161.646L358.833 87.1406L361.797 88.1458L336.49 162.656Z" fill="#6D7583"/>
<path d="M342.615 164.74L339.656 163.724L364.953 89.2344L367.917 90.2292L342.615 164.74Z" fill="#6D7583"/>
<path d="M371.703 87.9323C371.703 93.4115 367.26 97.849 361.797 97.849C356.323 97.849 351.901 93.4115 351.901 87.9323C351.901 82.4584 356.323 78.0209 361.797 78.0209C367.26 78.0209 371.703 82.4584 371.703 87.9323Z" fill="#363D46"/>
<path d="M367.656 87.9323C367.656 91.1667 365.031 93.8021 361.797 93.8021C358.557 93.8021 355.943 91.1667 355.943 87.9323C355.943 84.6823 358.557 82.0677 361.797 82.0677C365.031 82.0677 367.656 84.6823 367.656 87.9323Z" fill="#22272B"/>
<path d="M380.453 178.537H300.37V169.464H380.453V178.537Z" fill="#363D46"/>
<path d="M380.453 172.052H300.37V169.464H380.453V172.052Z" fill="#464E55"/>
<path d="M375.651 169.464H305.182V160.844H375.651V169.464Z" fill="#464E55"/>
<path d="M375.651 169.463H305.182V162.927H375.651V169.463Z" fill="#363D46"/>
<path d="M358.136 160.844H322.708V154.38H358.136V160.844Z" fill="#363D46"/>
<path d="M289.021 55.4218C283.339 60.9635 274.266 60.8437 268.729 55.1562C263.198 49.4791 263.318 40.3854 269 34.8489C274.682 29.3176 283.76 29.4374 289.292 35.1145C294.812 40.802 294.698 49.8906 289.021 55.4218Z" fill="#FAF9F1"/>
<path d="M307.922 31.5208C312.057 27.5 312.135 20.8906 308.109 16.7604C304.094 12.6302 297.51 12.5468 293.37 16.5625L282.542 27.125L297.094 42.0833L307.922 31.5208Z" fill="#22272B"/>
<path d="M294.765 69.7448C306.073 58.7135 306.323 40.5885 295.302 29.2552C284.271 17.9271 266.167 17.6771 254.854 28.7187L294.765 69.7448Z" fill="#22272B"/>
<mask id="mask6_736_45552" style="mask-type:luminance" maskUnits="userSpaceOnUse" x="498" y="155" width="212" height="323">
<path d="M498.375 155.766H709.375V477.766H498.375V155.766Z" fill="white"/>
</mask>
<g mask="url(#mask6_736_45552)">
<mask id="mask7_736_45552" style="mask-type:luminance" maskUnits="userSpaceOnUse" x="498" y="155" width="213" height="323">
<path d="M710.333 155.333H498.333V478H710.333V155.333Z" fill="white"/>
</mask>
<g mask="url(#mask7_736_45552)">
<path d="M680.521 326.219C680.937 326.255 681.359 326.25 681.776 326.208C682.193 326.161 682.604 326.073 683.005 325.948C683.406 325.823 683.791 325.656 684.156 325.453C684.526 325.255 684.875 325.016 685.193 324.745C685.515 324.474 685.807 324.177 686.073 323.849C686.338 323.521 686.562 323.172 686.76 322.797C686.953 322.427 687.109 322.036 687.229 321.635C687.344 321.229 687.422 320.818 687.458 320.401L695.646 226.854C695.682 226.437 695.677 226.021 695.63 225.599C695.588 225.182 695.5 224.771 695.375 224.37C695.25 223.969 695.083 223.588 694.88 223.219C694.677 222.849 694.443 222.505 694.172 222.182C693.901 221.859 693.604 221.568 693.276 221.302C692.948 221.042 692.594 220.812 692.224 220.62C691.849 220.422 691.463 220.271 691.057 220.151C690.656 220.031 690.245 219.958 689.823 219.922C689.406 219.88 688.984 219.885 688.568 219.932C688.151 219.979 687.739 220.062 687.338 220.193C686.937 220.318 686.552 220.484 686.182 220.682C685.818 220.885 685.469 221.125 685.146 221.391C684.828 221.661 684.531 221.963 684.271 222.292C684.005 222.62 683.776 222.969 683.583 223.338C683.39 223.713 683.234 224.104 683.114 224.505C683 224.911 682.922 225.323 682.885 225.74L674.698 319.286C674.661 319.703 674.666 320.12 674.708 320.542C674.755 320.958 674.844 321.365 674.969 321.766C675.094 322.167 675.26 322.552 675.463 322.922C675.666 323.292 675.901 323.635 676.172 323.958C676.443 324.281 676.739 324.573 677.068 324.833C677.396 325.099 677.745 325.328 678.12 325.521C678.495 325.713 678.88 325.87 679.286 325.99C679.687 326.104 680.099 326.182 680.521 326.219Z" fill="#2E2E2E"/>
<path d="M661.12 268.922C663.62 233.651 668.459 201.224 676.542 166.797C678.224 159.64 686.016 155.755 692.813 158.573L693.042 158.666C698.505 160.927 701.433 166.812 700.058 172.562C692.172 205.547 687.547 236.552 685.287 270.39C684.896 276.291 680.349 281.041 674.459 281.583C674.38 281.588 674.297 281.599 674.214 281.604C666.891 282.276 660.599 276.255 661.12 268.922Z" fill="#666666"/>
<mask id="mask8_736_45552" style="mask-type:luminance" maskUnits="userSpaceOnUse" x="498" y="305" width="186" height="41">
<path d="M498.375 306H683.667V346H498.375V306Z" fill="white"/>
</mask>
<g mask="url(#mask8_736_45552)">
<path d="M663.646 307.036H518.458C517.198 307.036 515.948 307.161 514.713 307.406C513.474 307.651 512.271 308.015 511.104 308.5C509.943 308.984 508.833 309.573 507.786 310.276C506.734 310.974 505.765 311.771 504.87 312.661C503.979 313.557 503.182 314.526 502.484 315.573C501.781 316.625 501.187 317.729 500.708 318.896C500.224 320.057 499.859 321.26 499.614 322.5C499.37 323.734 499.245 324.984 499.245 326.244C499.245 327.505 499.37 328.755 499.614 329.994C499.859 331.229 500.224 332.432 500.708 333.593C501.187 334.76 501.781 335.869 502.484 336.916C503.182 337.963 503.979 338.937 504.87 339.828C505.765 340.718 506.734 341.515 507.786 342.213C508.833 342.916 509.943 343.505 511.104 343.989C512.271 344.474 513.474 344.838 514.713 345.083C515.948 345.328 517.198 345.453 518.458 345.453H663.646C664.906 345.453 666.156 345.328 667.396 345.083C668.63 344.838 669.833 344.474 671 343.989C672.167 343.505 673.271 342.916 674.323 342.213C675.37 341.515 676.338 340.718 677.234 339.828C678.125 338.937 678.922 337.963 679.62 336.916C680.323 335.869 680.917 334.76 681.396 333.593C681.88 332.432 682.245 331.229 682.489 329.994C682.739 328.755 682.859 327.505 682.859 326.244C682.859 324.984 682.739 323.734 682.489 322.5C682.245 321.26 681.88 320.057 681.396 318.896C680.917 317.729 680.323 316.625 679.62 315.573C678.922 314.526 678.125 313.557 677.234 312.661C676.338 311.771 675.37 310.974 674.323 310.276C673.271 309.573 672.167 308.984 671 308.5C669.833 308.015 668.63 307.651 667.396 307.406C666.156 307.161 664.906 307.036 663.646 307.036Z" fill="#666666"/>
</g>
<mask id="mask9_736_45552" style="mask-type:luminance" maskUnits="userSpaceOnUse" x="498" y="305" width="211" height="173">
<path d="M498.375 306H709V477.765H498.375V306Z" fill="white"/>
</mask>
<g mask="url(#mask9_736_45552)">
<path d="M499.417 469.911L533.568 323.531C535.823 313.869 544.437 307.036 554.359 307.036H653.365C663.286 307.036 671.901 313.869 674.156 323.531L708.312 469.911C709.25 473.927 706.198 477.771 702.073 477.771C699.094 477.771 696.51 475.718 695.833 472.823L662.838 331.39C661.26 324.625 655.229 319.843 648.281 319.843H559.443C552.495 319.843 546.469 324.625 544.891 331.39L511.891 472.823C511.213 475.718 508.63 477.771 505.656 477.771H505.651C501.526 477.771 498.479 473.927 499.417 469.911Z" fill="#2E2E2E"/>
</g>
</g>
</g>
</svg>
