<svg width="584" height="314" viewBox="0 0 584 314" fill="none" xmlns="http://www.w3.org/2000/svg">
<path d="M31.4406 3.5L24.9953 83.3047L0.268738 84.5938V5.14062L31.4406 3.5ZM105.857 56.3516C105.857 60.7656 105.798 65.1406 105.681 69.4766C105.603 73.7734 105.466 78.1094 105.271 82.4844L71.5211 81.8984C72.693 74.9844 73.7086 68.0898 74.568 61.2148C75.4273 54.3008 75.857 47.3281 75.857 40.2969C75.857 39.7891 75.8375 38.9688 75.7984 37.8359C75.7594 36.7031 75.6812 35.4336 75.564 34.0273C75.4469 32.582 75.2711 31.1172 75.0367 29.6328C74.8414 28.1094 74.5484 26.7227 74.1578 25.4727C73.8062 24.2227 73.357 23.207 72.8101 22.4258C72.3023 21.6055 71.6773 21.1953 70.9351 21.1953C69.607 21.1953 68.4742 21.5859 67.5367 22.3672C66.6383 23.1484 65.8765 24.1641 65.2515 25.4141C64.6656 26.625 64.1969 27.9922 63.8453 29.5156C63.4937 31.0391 63.2203 32.5625 63.025 34.0859C62.8687 35.6094 62.7515 37.0547 62.6734 38.4219C62.6344 39.75 62.6148 40.8438 62.6148 41.7031C62.4195 48.6172 62.2633 55.4922 62.1461 62.3281C62.0289 69.125 61.8726 76 61.6773 82.9531L31.7945 84.2422C32.5758 70.4531 33.318 56.7422 34.0211 43.1094C34.7633 29.4766 35.3492 15.7656 35.7789 1.97656L63.4351 0.570312L63.2008 9.94531C64.2945 8.61719 65.4664 7.36719 66.7164 6.19531C68.0055 5.02344 69.3726 4.02734 70.818 3.20703C72.2633 2.34766 73.7867 1.68359 75.3883 1.21484C77.0289 0.707031 78.7476 0.453125 80.5445 0.453125C83.8648 0.453125 86.775 1 89.275 2.09375C91.775 3.1875 93.9234 4.67188 95.7203 6.54688C97.5172 8.42188 99.0211 10.6484 100.232 13.2266C101.443 15.7656 102.42 18.4805 103.162 21.3711C103.904 24.2617 104.47 27.2891 104.861 30.4531C105.252 33.5781 105.505 36.6641 105.623 39.7109C105.779 42.7578 105.857 45.707 105.857 48.5586C105.857 51.4102 105.857 54.0078 105.857 56.3516ZM171.074 3.38281L170.488 28.2266L153.027 28.9297L150.918 83.3047L126.191 84.5938L123.965 30.2188L106.504 31.1562L107.207 3.5L171.074 3.38281ZM236.233 38.6562C236.233 42.0547 235.998 45.4531 235.53 48.8516C228.85 49.2812 222.209 49.9844 215.608 50.9609C209.006 51.8984 202.405 52.8359 195.803 53.7734C196.819 56.5859 198.401 58.832 200.549 60.5117C202.737 62.1914 205.334 63.0312 208.342 63.0312C209.905 63.0312 211.604 62.7383 213.44 62.1523C215.315 61.5664 217.17 60.8438 219.006 59.9844C220.842 59.0859 222.6 58.1289 224.28 57.1133C225.959 56.0977 227.405 55.1797 228.616 54.3594L225.803 80.9609C224.28 82.1328 222.62 83.1289 220.823 83.9492C219.065 84.7695 217.229 85.4336 215.315 85.9414C213.401 86.4492 211.467 86.8203 209.514 87.0547C207.561 87.2891 205.647 87.4062 203.772 87.4062C199.905 87.4062 196.37 86.8789 193.166 85.8242C189.963 84.7695 187.053 83.3047 184.436 81.4297C181.858 79.5156 179.592 77.2695 177.639 74.6914C175.686 72.1133 174.065 69.3008 172.776 66.2539C171.487 63.207 170.51 59.9844 169.846 56.5859C169.182 53.1875 168.85 49.75 168.85 46.2734C168.85 42.6406 169.182 39.0078 169.846 35.375C170.51 31.7422 171.506 28.2461 172.834 24.8867C174.202 21.5273 175.901 18.4219 177.932 15.5703C180.002 12.6797 182.405 10.1602 185.139 8.01172C187.873 5.86328 190.959 4.18359 194.397 2.97266C197.873 1.76172 201.702 1.15625 205.881 1.15625C209.358 1.15625 212.522 1.64453 215.373 2.62109C218.264 3.55859 220.823 4.88672 223.049 6.60547C225.315 8.28516 227.268 10.2969 228.909 12.6406C230.588 14.9844 231.955 17.5625 233.01 20.375C234.104 23.1484 234.905 26.0977 235.412 29.2227C235.959 32.3086 236.233 35.4531 236.233 38.6562ZM212.795 35.6094C212.795 34.5156 212.678 33.4023 212.444 32.2695C212.209 31.0977 211.819 30.043 211.272 29.1055C210.764 28.168 210.08 27.4062 209.221 26.8203C208.362 26.1953 207.287 25.8828 205.998 25.8828C204.436 25.8828 203.049 26.3125 201.838 27.1719C200.666 27.9922 199.651 29.0469 198.791 30.3359C197.932 31.5859 197.229 32.9531 196.682 34.4375C196.135 35.9219 195.725 37.2891 195.452 38.5391L212.795 36.8984V35.6094ZM306.372 29.5156C306.372 32.5625 306.098 35.3359 305.552 37.8359C305.044 40.2969 304.223 42.5625 303.091 44.6328C301.958 46.7031 300.493 48.6172 298.696 50.375C296.899 52.1328 294.731 53.8125 292.192 55.4141L306.137 80.2578L279.77 85.4141L270.747 60.4531L263.481 60.6875L262.427 85.0625H237.231C237.427 76.1562 237.602 67.2891 237.759 58.4609C237.954 49.6328 238.169 40.7656 238.403 31.8594C238.481 27.3672 238.559 22.9141 238.637 18.5C238.716 14.0859 238.872 9.63281 239.106 5.14062C241.841 4.125 244.536 3.28516 247.192 2.62109C249.848 1.95703 252.505 1.44922 255.161 1.09766C257.856 0.707031 260.571 0.453125 263.305 0.335938C266.079 0.179687 268.911 0.101562 271.802 0.101562C276.255 0.101562 280.552 0.726563 284.692 1.97656C288.872 3.1875 292.563 5.02344 295.766 7.48438C298.97 9.94531 301.528 13.0117 303.442 16.6836C305.395 20.3555 306.372 24.6328 306.372 29.5156ZM280.122 31.3906C280.122 29.75 279.887 28.2461 279.419 26.8789C278.989 25.5117 278.325 24.3398 277.427 23.3633C276.567 22.3477 275.473 21.5664 274.145 21.0195C272.856 20.4336 271.333 20.1406 269.575 20.1406C268.794 20.1406 268.032 20.1992 267.29 20.3164C266.548 20.3945 265.825 20.5313 265.122 20.7266L264.184 42.5234H265.591C267.27 42.5234 268.97 42.3086 270.688 41.8789C272.446 41.4492 274.009 40.7852 275.376 39.8867C276.782 38.9883 277.915 37.8359 278.774 36.4297C279.673 35.0234 280.122 33.3438 280.122 31.3906ZM379.265 3.85156L357.82 83.0703L328.757 84.7109L302.39 8.1875L330.163 5.60938L341.413 50.1406L352.312 2.09375L379.265 3.85156ZM409.267 3.5L405.166 83.3047L380.439 84.5938L378.095 5.14062L409.267 3.5ZM477.062 38.6562C477.062 42.0547 476.828 45.4531 476.359 48.8516C469.68 49.2812 463.039 49.9844 456.438 50.9609C449.836 51.8984 443.234 52.8359 436.633 53.7734C437.648 56.5859 439.23 58.832 441.379 60.5117C443.566 62.1914 446.164 63.0312 449.172 63.0312C450.734 63.0312 452.434 62.7383 454.27 62.1523C456.145 61.5664 458 60.8438 459.836 59.9844C461.672 59.0859 463.43 58.1289 465.109 57.1133C466.789 56.0977 468.234 55.1797 469.445 54.3594L466.633 80.9609C465.109 82.1328 463.449 83.1289 461.652 83.9492C459.895 84.7695 458.059 85.4336 456.145 85.9414C454.23 86.4492 452.297 86.8203 450.344 87.0547C448.391 87.2891 446.477 87.4062 444.602 87.4062C440.734 87.4062 437.199 86.8789 433.996 85.8242C430.793 84.7695 427.883 83.3047 425.266 81.4297C422.688 79.5156 420.422 77.2695 418.469 74.6914C416.516 72.1133 414.895 69.3008 413.605 66.2539C412.316 63.207 411.34 59.9844 410.676 56.5859C410.012 53.1875 409.68 49.75 409.68 46.2734C409.68 42.6406 410.012 39.0078 410.676 35.375C411.34 31.7422 412.336 28.2461 413.664 24.8867C415.031 21.5273 416.73 18.4219 418.762 15.5703C420.832 12.6797 423.234 10.1602 425.969 8.01172C428.703 5.86328 431.789 4.18359 435.227 2.97266C438.703 1.76172 442.531 1.15625 446.711 1.15625C450.188 1.15625 453.352 1.64453 456.203 2.62109C459.094 3.55859 461.652 4.88672 463.879 6.60547C466.145 8.28516 468.098 10.2969 469.738 12.6406C471.418 14.9844 472.785 17.5625 473.84 20.375C474.934 23.1484 475.734 26.0977 476.242 29.2227C476.789 32.3086 477.062 35.4531 477.062 38.6562ZM453.625 35.6094C453.625 34.5156 453.508 33.4023 453.273 32.2695C453.039 31.0977 452.648 30.043 452.102 29.1055C451.594 28.168 450.91 27.4062 450.051 26.8203C449.191 26.1953 448.117 25.8828 446.828 25.8828C445.266 25.8828 443.879 26.3125 442.668 27.1719C441.496 27.9922 440.48 29.0469 439.621 30.3359C438.762 31.5859 438.059 32.9531 437.512 34.4375C436.965 35.9219 436.555 37.2891 436.281 38.5391L453.625 36.8984V35.6094ZM583.178 4.67188L569.467 83.5391L536.186 84.2422L529.037 44.5156L521.889 81.1953L488.608 82.3672L474.78 7.01562L503.842 4.4375L509.702 50.7266L517.553 7.95312H540.405L549.545 51.3125L554.233 2.09375L583.178 4.67188ZM170.985 113.57L165.595 199.586L138.876 200.758L139.11 155.406L127.04 191.969H116.727L107.47 159.273L107.352 197.242L80.282 198.062L81.4539 117.086L111.571 115.914L123.524 154.703L139.462 113.57H170.985ZM244.64 154.117C244.64 157.672 244.23 161.109 243.409 164.43C242.589 167.711 241.398 170.797 239.835 173.688C238.312 176.578 236.437 179.234 234.21 181.656C232.023 184.039 229.542 186.09 226.769 187.809C224.034 189.527 221.046 190.875 217.804 191.852C214.562 192.789 211.124 193.258 207.491 193.258C203.976 193.258 200.616 192.809 197.413 191.91C194.249 191.012 191.28 189.762 188.507 188.16C185.734 186.52 183.214 184.566 180.948 182.301C178.722 179.996 176.808 177.457 175.206 174.684C173.644 171.871 172.413 168.863 171.515 165.66C170.655 162.457 170.226 159.117 170.226 155.641C170.226 152.242 170.636 148.922 171.456 145.68C172.277 142.398 173.448 139.312 174.972 136.422C176.534 133.531 178.409 130.875 180.597 128.453C182.784 126.031 185.226 123.941 187.921 122.184C190.655 120.426 193.605 119.059 196.769 118.082C199.933 117.105 203.273 116.617 206.788 116.617C212.452 116.617 217.609 117.496 222.257 119.254C226.945 121.012 230.929 123.531 234.21 126.812C237.53 130.055 240.089 134 241.886 138.648C243.722 143.258 244.64 148.414 244.64 154.117ZM218.624 155.641C218.624 153.961 218.37 152.34 217.862 150.777C217.394 149.176 216.691 147.77 215.753 146.559C214.816 145.309 213.644 144.312 212.237 143.57C210.87 142.789 209.288 142.398 207.491 142.398C205.655 142.398 204.015 142.73 202.57 143.395C201.124 144.059 199.874 144.977 198.82 146.148C197.804 147.281 197.023 148.629 196.476 150.191C195.929 151.715 195.655 153.336 195.655 155.055C195.655 156.695 195.89 158.336 196.359 159.977C196.827 161.617 197.53 163.102 198.468 164.43C199.405 165.758 200.558 166.832 201.925 167.652C203.331 168.473 204.952 168.883 206.788 168.883C208.624 168.883 210.265 168.531 211.71 167.828C213.195 167.086 214.445 166.109 215.46 164.898C216.476 163.648 217.257 162.223 217.804 160.621C218.351 159.02 218.624 157.359 218.624 155.641ZM312.728 152.477C312.728 157.945 312.025 162.848 310.619 167.184C309.212 171.52 307.24 175.367 304.701 178.727C302.201 182.047 299.212 184.879 295.736 187.223C292.259 189.566 288.451 191.5 284.31 193.023C280.17 194.508 275.755 195.602 271.068 196.305C266.42 197.008 261.634 197.359 256.712 197.359C254.877 197.359 253.08 197.32 251.322 197.242C249.564 197.125 247.767 196.969 245.931 196.773L247.572 120.484C251.869 119.117 256.283 118.16 260.814 117.613C265.384 117.027 269.916 116.734 274.408 116.734C279.994 116.734 285.13 117.516 289.818 119.078C294.505 120.641 298.548 122.945 301.947 125.992C305.345 129 307.982 132.73 309.857 137.184C311.771 141.598 312.728 146.695 312.728 152.477ZM272.884 174.977C275.228 174.625 277.357 173.922 279.271 172.867C281.224 171.773 282.904 170.445 284.31 168.883C285.716 167.281 286.791 165.484 287.533 163.492C288.314 161.461 288.705 159.312 288.705 157.047C288.705 154.82 288.47 152.75 288.002 150.836C287.533 148.883 286.771 147.203 285.716 145.797C284.662 144.352 283.275 143.219 281.556 142.398C279.837 141.539 277.728 141.07 275.228 140.992L272.884 174.977ZM383.863 116.5C382.105 130.25 380.602 143.941 379.352 157.574C378.102 171.168 376.91 184.859 375.777 198.648L351.754 200.406L352.809 191.383C352.027 192.281 351.109 193.062 350.055 193.727C349.039 194.391 347.945 194.938 346.773 195.367C345.602 195.758 344.391 196.051 343.141 196.246C341.891 196.402 340.699 196.461 339.566 196.422C336.91 196.383 334.41 195.875 332.066 194.898C329.723 193.883 327.574 192.555 325.621 190.914C323.668 189.234 321.91 187.301 320.348 185.113C318.785 182.887 317.457 180.562 316.363 178.141C315.309 175.68 314.488 173.18 313.902 170.641C313.355 168.102 313.082 165.641 313.082 163.258C313.082 159.742 313.141 156.109 313.258 152.359C313.414 148.57 313.668 144.781 314.02 140.992C314.371 137.203 314.82 133.453 315.367 129.742C315.953 126.031 316.676 122.477 317.535 119.078C322.301 119.312 327.086 119.527 331.891 119.723C336.695 119.918 341.48 119.977 346.246 119.898C345.348 123.297 344.449 126.715 343.551 130.152C342.691 133.551 341.91 136.988 341.207 140.465C340.504 143.902 339.938 147.359 339.508 150.836C339.078 154.312 338.863 157.828 338.863 161.383C338.863 162.203 338.902 163.375 338.98 164.898C339.059 166.422 339.254 167.926 339.566 169.41C339.918 170.895 340.426 172.203 341.09 173.336C341.793 174.43 342.77 174.977 344.02 174.977C345.504 174.977 346.832 174.352 348.004 173.102C349.176 171.812 350.211 170.094 351.109 167.945C352.008 165.797 352.77 163.316 353.395 160.504C354.059 157.691 354.605 154.762 355.035 151.715C355.504 148.629 355.875 145.523 356.148 142.398C356.422 139.273 356.617 136.344 356.734 133.609C356.891 130.836 356.988 128.355 357.027 126.168C357.105 123.98 357.145 122.281 357.145 121.07C357.145 120.289 357.125 119.527 357.086 118.785C357.047 118.043 356.988 117.281 356.91 116.5C359.449 116.578 361.969 116.637 364.469 116.676C366.969 116.715 369.488 116.734 372.027 116.734C373.98 116.734 375.934 116.734 377.887 116.734C379.879 116.695 381.871 116.617 383.863 116.5ZM436.366 167.945L433.905 193.961L384.569 197.828L386.444 114.156H416.912L412.577 167.945H436.366ZM502.11 151.656C502.11 155.055 501.876 158.453 501.407 161.852C494.727 162.281 488.087 162.984 481.485 163.961C474.884 164.898 468.282 165.836 461.68 166.773C462.696 169.586 464.278 171.832 466.427 173.512C468.614 175.191 471.212 176.031 474.22 176.031C475.782 176.031 477.481 175.738 479.317 175.152C481.192 174.566 483.048 173.844 484.884 172.984C486.72 172.086 488.477 171.129 490.157 170.113C491.837 169.098 493.282 168.18 494.493 167.359L491.68 193.961C490.157 195.133 488.497 196.129 486.7 196.949C484.942 197.77 483.106 198.434 481.192 198.941C479.278 199.449 477.345 199.82 475.391 200.055C473.438 200.289 471.524 200.406 469.649 200.406C465.782 200.406 462.247 199.879 459.044 198.824C455.841 197.77 452.93 196.305 450.313 194.43C447.735 192.516 445.47 190.27 443.516 187.691C441.563 185.113 439.942 182.301 438.653 179.254C437.364 176.207 436.388 172.984 435.723 169.586C435.059 166.188 434.727 162.75 434.727 159.273C434.727 155.641 435.059 152.008 435.723 148.375C436.388 144.742 437.384 141.246 438.712 137.887C440.079 134.527 441.778 131.422 443.809 128.57C445.88 125.68 448.282 123.16 451.016 121.012C453.751 118.863 456.837 117.184 460.274 115.973C463.751 114.762 467.579 114.156 471.759 114.156C475.235 114.156 478.399 114.645 481.251 115.621C484.141 116.559 486.7 117.887 488.927 119.605C491.192 121.285 493.145 123.297 494.786 125.641C496.466 127.984 497.833 130.562 498.888 133.375C499.981 136.148 500.782 139.098 501.29 142.223C501.837 145.309 502.11 148.453 502.11 151.656ZM478.673 148.609C478.673 147.516 478.555 146.402 478.321 145.27C478.087 144.098 477.696 143.043 477.149 142.105C476.641 141.168 475.958 140.406 475.098 139.82C474.239 139.195 473.165 138.883 471.876 138.883C470.313 138.883 468.927 139.312 467.716 140.172C466.544 140.992 465.528 142.047 464.669 143.336C463.809 144.586 463.106 145.953 462.559 147.438C462.013 148.922 461.602 150.289 461.329 151.539L478.673 149.898V148.609ZM162.344 257.977C162.344 261.766 161.777 265.125 160.645 268.055C159.512 270.984 157.949 273.562 155.957 275.789C154.004 277.977 151.699 279.832 149.043 281.355C146.387 282.84 143.535 284.07 140.488 285.047C137.48 285.984 134.355 286.688 131.113 287.156C127.871 287.586 124.688 287.82 121.562 287.859V312.82H94.2578C94.2578 308.367 94.2578 304.031 94.2578 299.812C94.2969 295.594 94.3164 291.414 94.3164 287.273C94.3555 283.094 94.375 278.895 94.375 274.676C94.4141 270.457 94.4531 266.102 94.4922 261.609C94.5703 256.844 94.5898 252.078 94.5508 247.312C94.5117 242.547 94.6094 237.742 94.8438 232.898C99.8438 231.414 104.844 230.301 109.844 229.559C114.844 228.816 120 228.445 125.312 228.445C128.32 228.445 131.328 228.699 134.336 229.207C137.344 229.676 140.215 230.438 142.949 231.492C145.723 232.547 148.281 233.875 150.625 235.477C153.008 237.039 155.059 238.914 156.777 241.102C158.496 243.289 159.844 245.789 160.82 248.602C161.836 251.414 162.344 254.539 162.344 257.977ZM136.328 259.969C136.328 257.43 135.547 255.457 133.984 254.051C132.461 252.605 130.469 251.883 128.008 251.883C127.188 251.883 126.328 251.961 125.43 252.117C124.57 252.234 123.75 252.391 122.969 252.586L122.266 269.695C122.812 269.773 123.34 269.812 123.848 269.812C124.355 269.812 124.883 269.812 125.43 269.812C126.836 269.812 128.184 269.578 129.473 269.109C130.801 268.641 131.973 267.977 132.988 267.117C134.004 266.219 134.805 265.184 135.391 264.012C136.016 262.801 136.328 261.453 136.328 259.969ZM231.78 306.961L202.717 310.711L199.202 297.469H185.842L182.913 310.711L153.03 307.781L176.35 229.734L208.928 228.094L231.78 306.961ZM197.092 279.539L192.639 259.148L188.303 279.539H197.092ZM290.669 282C290.669 287.352 289.731 291.98 287.856 295.887C286.02 299.754 283.481 302.957 280.239 305.496C277.036 307.996 273.266 309.852 268.93 311.062C264.634 312.234 260.005 312.82 255.044 312.82C253.13 312.82 251.02 312.566 248.716 312.059C246.45 311.551 244.145 310.926 241.802 310.184C239.458 309.402 237.192 308.582 235.005 307.723C232.856 306.824 230.942 305.984 229.263 305.203L231.841 282.234C235.161 284.227 238.833 285.75 242.856 286.805C246.919 287.82 250.903 288.328 254.809 288.328C255.552 288.328 256.45 288.309 257.505 288.27C258.559 288.191 259.555 288.016 260.493 287.742C261.47 287.43 262.29 286.98 262.954 286.395C263.618 285.809 263.95 284.969 263.95 283.875C263.95 283.133 263.716 282.508 263.247 282C262.778 281.453 262.173 281.023 261.43 280.711C260.688 280.359 259.848 280.105 258.911 279.949C257.973 279.754 257.055 279.617 256.157 279.539C255.259 279.461 254.419 279.422 253.638 279.422C252.856 279.422 252.231 279.422 251.763 279.422C248.403 279.422 245.337 278.895 242.563 277.84C239.829 276.785 237.466 275.301 235.473 273.387C233.52 271.434 231.997 269.09 230.903 266.355C229.809 263.582 229.263 260.516 229.263 257.156C229.263 252.547 230.18 248.426 232.016 244.793C233.891 241.121 236.372 238.016 239.458 235.477C242.583 232.898 246.157 230.926 250.18 229.559C254.204 228.191 258.364 227.508 262.661 227.508C264.575 227.508 266.548 227.586 268.579 227.742C270.61 227.859 272.622 228.094 274.614 228.445C276.645 228.797 278.618 229.246 280.532 229.793C282.446 230.34 284.263 231.023 285.981 231.844L283.755 255.633C281.098 254.734 278.305 253.992 275.376 253.406C272.485 252.781 269.653 252.469 266.88 252.469C266.372 252.469 265.708 252.488 264.888 252.527C264.106 252.527 263.266 252.586 262.368 252.703C261.509 252.781 260.63 252.918 259.731 253.113C258.833 253.309 258.032 253.582 257.329 253.934C256.626 254.246 256.059 254.676 255.63 255.223C255.2 255.77 255.005 256.414 255.044 257.156C255.083 258.016 255.395 258.68 255.981 259.148C256.606 259.617 257.388 259.969 258.325 260.203C259.302 260.398 260.356 260.496 261.489 260.496C262.661 260.496 263.813 260.477 264.946 260.438C266.079 260.359 267.134 260.301 268.11 260.262C269.087 260.184 269.888 260.164 270.513 260.203C273.638 260.398 276.45 261.062 278.95 262.195C281.45 263.328 283.559 264.832 285.278 266.707C287.036 268.582 288.364 270.828 289.263 273.445C290.2 276.023 290.669 278.875 290.669 282ZM351.55 282C351.55 287.352 350.612 291.98 348.737 295.887C346.902 299.754 344.362 302.957 341.12 305.496C337.917 307.996 334.148 309.852 329.812 311.062C325.515 312.234 320.886 312.82 315.925 312.82C314.011 312.82 311.902 312.566 309.597 312.059C307.331 311.551 305.027 310.926 302.683 310.184C300.339 309.402 298.073 308.582 295.886 307.723C293.737 306.824 291.823 305.984 290.144 305.203L292.722 282.234C296.042 284.227 299.714 285.75 303.737 286.805C307.8 287.82 311.784 288.328 315.691 288.328C316.433 288.328 317.331 288.309 318.386 288.27C319.441 288.191 320.437 288.016 321.374 287.742C322.351 287.43 323.171 286.98 323.835 286.395C324.499 285.809 324.831 284.969 324.831 283.875C324.831 283.133 324.597 282.508 324.128 282C323.659 281.453 323.054 281.023 322.312 280.711C321.57 280.359 320.73 280.105 319.792 279.949C318.855 279.754 317.937 279.617 317.038 279.539C316.14 279.461 315.3 279.422 314.519 279.422C313.737 279.422 313.112 279.422 312.644 279.422C309.284 279.422 306.218 278.895 303.445 277.84C300.71 276.785 298.347 275.301 296.355 273.387C294.402 271.434 292.878 269.09 291.784 266.355C290.691 263.582 290.144 260.516 290.144 257.156C290.144 252.547 291.062 248.426 292.898 244.793C294.773 241.121 297.253 238.016 300.339 235.477C303.464 232.898 307.038 230.926 311.062 229.559C315.085 228.191 319.245 227.508 323.542 227.508C325.456 227.508 327.429 227.586 329.46 227.742C331.491 227.859 333.503 228.094 335.495 228.445C337.527 228.797 339.499 229.246 341.413 229.793C343.327 230.34 345.144 231.023 346.862 231.844L344.636 255.633C341.98 254.734 339.187 253.992 336.257 253.406C333.366 252.781 330.534 252.469 327.761 252.469C327.253 252.469 326.589 252.488 325.769 252.527C324.987 252.527 324.148 252.586 323.249 252.703C322.39 252.781 321.511 252.918 320.612 253.113C319.714 253.309 318.913 253.582 318.21 253.934C317.507 254.246 316.941 254.676 316.511 255.223C316.081 255.77 315.886 256.414 315.925 257.156C315.964 258.016 316.277 258.68 316.862 259.148C317.487 259.617 318.269 259.969 319.206 260.203C320.183 260.398 321.237 260.496 322.37 260.496C323.542 260.496 324.695 260.477 325.827 260.438C326.96 260.359 328.015 260.301 328.991 260.262C329.968 260.184 330.769 260.164 331.394 260.203C334.519 260.398 337.331 261.062 339.831 262.195C342.331 263.328 344.441 264.832 346.159 266.707C347.917 268.582 349.245 270.828 350.144 273.445C351.081 276.023 351.55 278.875 351.55 282ZM418.349 264.656C418.349 268.055 418.115 271.453 417.646 274.852C410.966 275.281 404.326 275.984 397.724 276.961C391.123 277.898 384.521 278.836 377.92 279.773C378.935 282.586 380.517 284.832 382.666 286.512C384.853 288.191 387.451 289.031 390.459 289.031C392.021 289.031 393.72 288.738 395.556 288.152C397.431 287.566 399.287 286.844 401.123 285.984C402.959 285.086 404.716 284.129 406.396 283.113C408.076 282.098 409.521 281.18 410.732 280.359L407.92 306.961C406.396 308.133 404.736 309.129 402.939 309.949C401.181 310.77 399.345 311.434 397.431 311.941C395.517 312.449 393.584 312.82 391.63 313.055C389.677 313.289 387.763 313.406 385.888 313.406C382.021 313.406 378.486 312.879 375.283 311.824C372.08 310.77 369.17 309.305 366.552 307.43C363.974 305.516 361.709 303.27 359.755 300.691C357.802 298.113 356.181 295.301 354.892 292.254C353.603 289.207 352.627 285.984 351.962 282.586C351.298 279.188 350.966 275.75 350.966 272.273C350.966 268.641 351.298 265.008 351.962 261.375C352.627 257.742 353.623 254.246 354.951 250.887C356.318 247.527 358.017 244.422 360.048 241.57C362.119 238.68 364.521 236.16 367.255 234.012C369.99 231.863 373.076 230.184 376.513 228.973C379.99 227.762 383.818 227.156 387.998 227.156C391.474 227.156 394.638 227.645 397.49 228.621C400.38 229.559 402.939 230.887 405.166 232.605C407.431 234.285 409.384 236.297 411.025 238.641C412.705 240.984 414.072 243.562 415.127 246.375C416.22 249.148 417.021 252.098 417.529 255.223C418.076 258.309 418.349 261.453 418.349 264.656ZM394.912 261.609C394.912 260.516 394.795 259.402 394.56 258.27C394.326 257.098 393.935 256.043 393.388 255.105C392.88 254.168 392.197 253.406 391.337 252.82C390.478 252.195 389.404 251.883 388.115 251.883C386.552 251.883 385.166 252.312 383.955 253.172C382.783 253.992 381.767 255.047 380.908 256.336C380.048 257.586 379.345 258.953 378.798 260.438C378.252 261.922 377.841 263.289 377.568 264.539L394.912 262.898V261.609ZM486.203 265.477C486.203 270.945 485.5 275.848 484.094 280.184C482.688 284.52 480.715 288.367 478.176 291.727C475.676 295.047 472.688 297.879 469.211 300.223C465.734 302.566 461.926 304.5 457.785 306.023C453.645 307.508 449.23 308.602 444.543 309.305C439.895 310.008 435.109 310.359 430.188 310.359C428.352 310.359 426.555 310.32 424.797 310.242C423.039 310.125 421.242 309.969 419.406 309.773L421.047 233.484C425.344 232.117 429.758 231.16 434.289 230.613C438.859 230.027 443.391 229.734 447.883 229.734C453.469 229.734 458.605 230.516 463.293 232.078C467.98 233.641 472.023 235.945 475.422 238.992C478.82 242 481.457 245.73 483.332 250.184C485.246 254.598 486.203 259.695 486.203 265.477ZM446.359 287.977C448.703 287.625 450.832 286.922 452.746 285.867C454.699 284.773 456.379 283.445 457.785 281.883C459.191 280.281 460.266 278.484 461.008 276.492C461.789 274.461 462.18 272.312 462.18 270.047C462.18 267.82 461.945 265.75 461.477 263.836C461.008 261.883 460.246 260.203 459.191 258.797C458.137 257.352 456.75 256.219 455.031 255.398C453.312 254.539 451.203 254.07 448.703 253.992L446.359 287.977Z" fill="black"/>
</svg>
