<svg width="202" height="204" viewBox="0 0 202 204" fill="none" xmlns="http://www.w3.org/2000/svg">
<mask id="mask0_812_47833" style="mask-type:luminance" maskUnits="userSpaceOnUse" x="0" y="0" width="202" height="204">
<path d="M0 0H201.115V203.577H0V0Z" fill="white"/>
</mask>
<g mask="url(#mask0_812_47833)">
<mask id="mask1_812_47833" style="mask-type:luminance" maskUnits="userSpaceOnUse" x="0" y="0" width="202" height="204">
<path d="M100.556 0C45.0217 0 0 45.5698 0 101.786C0 158.002 45.0217 203.574 100.556 203.574C156.093 203.574 201.115 158.002 201.115 101.786C201.115 45.5698 156.093 0 100.556 0Z" fill="white"/>
</mask>
<g mask="url(#mask1_812_47833)">
<mask id="mask2_812_47833" style="mask-type:luminance" maskUnits="userSpaceOnUse" x="-1" y="-1" width="203" height="205">
<path d="M201.4 -0.0664062H-0.617188V203.577H201.4V-0.0664062Z" fill="white"/>
</mask>
<g mask="url(#mask2_812_47833)">
<mask id="mask3_812_47833" style="mask-type:luminance" maskUnits="userSpaceOnUse" x="0" y="-1" width="202" height="205">
<path d="M0 -0.000244141H201.115V203.577H0V-0.000244141Z" fill="white"/>
</mask>
<g mask="url(#mask3_812_47833)">
<mask id="mask4_812_47833" style="mask-type:luminance" maskUnits="userSpaceOnUse" x="0" y="-1" width="202" height="205">
<path d="M100.556 -0.000244141C45.0217 -0.000244141 0 45.5696 0 101.786C0 158.002 45.0217 203.574 100.556 203.574C156.093 203.574 201.115 158.002 201.115 101.786C201.115 45.5696 156.093 -0.000244141 100.556 -0.000244141Z" fill="white"/>
</mask>
<g mask="url(#mask4_812_47833)">
<path d="M0 -0.000244141H201.115V203.607H0V-0.000244141Z" fill="white"/>
</g>
</g>
</g>
</g>
</g>
<mask id="mask5_812_47833" style="mask-type:luminance" maskUnits="userSpaceOnUse" x="0" y="0" width="202" height="204">
<path d="M0 0H201.311V203.577H0V0Z" fill="white"/>
</mask>
<g mask="url(#mask5_812_47833)">
<mask id="mask6_812_47833" style="mask-type:luminance" maskUnits="userSpaceOnUse" x="0" y="0" width="202" height="204">
<path d="M100.556 0C45.019 0 0 45.5698 0 101.786C0 157.999 45.019 203.569 100.556 203.569C156.09 203.569 201.112 157.999 201.112 101.786C201.112 45.5698 156.09 0 100.556 0Z" fill="white"/>
</mask>
<g mask="url(#mask6_812_47833)">
<path d="M100.556 0C45.019 0 0 45.5698 0 101.786C0 157.999 45.019 203.569 100.556 203.569C156.09 203.569 201.112 157.999 201.112 101.786C201.112 45.5698 156.09 0 100.556 0Z" stroke="#40A64A" stroke-width="70"/>
</g>
</g>
<mask id="mask7_812_47833" style="mask-type:luminance" maskUnits="userSpaceOnUse" x="5" y="6" width="191" height="191">
<path d="M5.95703 6.75757H195.158V196.817H5.95703V6.75757Z" fill="white"/>
</mask>
<g mask="url(#mask7_812_47833)">
<mask id="mask8_812_47833" style="mask-type:luminance" maskUnits="userSpaceOnUse" x="5" y="6" width="191" height="191">
<path d="M100.556 6.75757C48.3106 6.75757 5.95703 49.3034 5.95703 101.786C5.95703 154.271 48.3106 196.817 100.556 196.817C152.804 196.817 195.158 154.271 195.158 101.786C195.158 49.3034 152.804 6.75757 100.556 6.75757Z" fill="white"/>
</mask>
<g mask="url(#mask8_812_47833)">
<mask id="mask9_812_47833" style="mask-type:luminance" maskUnits="userSpaceOnUse" x="5" y="6" width="191" height="192">
<path d="M195.748 6.31982H5.73926V197.191H195.748V6.31982Z" fill="white"/>
</mask>
<g mask="url(#mask9_812_47833)">
<mask id="mask10_812_47833" style="mask-type:luminance" maskUnits="userSpaceOnUse" x="5" y="6" width="191" height="191">
<path d="M5.95703 6.75757H195.158V196.817H5.95703V6.75757Z" fill="white"/>
</mask>
<g mask="url(#mask10_812_47833)">
<mask id="mask11_812_47833" style="mask-type:luminance" maskUnits="userSpaceOnUse" x="5" y="6" width="191" height="191">
<path d="M100.556 6.75757C48.3106 6.75757 5.95703 49.3034 5.95703 101.786C5.95703 154.271 48.3106 196.817 100.556 196.817C152.804 196.817 195.158 154.271 195.158 101.786C195.158 49.3034 152.804 6.75757 100.556 6.75757Z" fill="white"/>
</mask>
<g mask="url(#mask11_812_47833)">
<path d="M5.95703 6.75757H195.158V196.817H5.95703V6.75757Z" fill="white"/>
</g>
</g>
</g>
</g>
</g>
<mask id="mask12_812_47833" style="mask-type:luminance" maskUnits="userSpaceOnUse" x="5" y="6" width="191" height="191">
<path d="M5.95703 6.75757H195.083V196.742H5.95703V6.75757Z" fill="white"/>
</mask>
<g mask="url(#mask12_812_47833)">
<mask id="mask13_812_47833" style="mask-type:luminance" maskUnits="userSpaceOnUse" x="5" y="6" width="191" height="191">
<path d="M100.556 6.75757C48.3106 6.75757 5.95703 49.3034 5.95703 101.786C5.95703 154.271 48.3106 196.817 100.556 196.817C152.804 196.817 195.158 154.271 195.158 101.786C195.158 49.3034 152.804 6.75757 100.556 6.75757Z" fill="white"/>
</mask>
<g mask="url(#mask13_812_47833)">
<path d="M100.556 6.75757C48.3106 6.75757 5.95703 49.3034 5.95703 101.786C5.95703 154.271 48.3106 196.817 100.556 196.817C152.804 196.817 195.158 154.271 195.158 101.786C195.158 49.3034 152.804 6.75757 100.556 6.75757Z" stroke="#39CD47" stroke-width="26"/>
</g>
</g>
<mask id="mask14_812_47833" style="mask-type:luminance" maskUnits="userSpaceOnUse" x="31" y="27" width="135" height="151">
<path d="M31.168 27.7146H165.982V177.786H31.168V27.7146Z" fill="white"/>
</mask>
<g mask="url(#mask14_812_47833)">
<mask id="mask15_812_47833" style="mask-type:luminance" maskUnits="userSpaceOnUse" x="30" y="27" width="136" height="151">
<path d="M30.8926 69.2238V136.36C30.8926 159.285 49.393 177.87 72.2142 177.87H124.644C147.466 177.87 165.966 159.285 165.966 136.36V69.2238C165.966 46.299 147.466 27.7146 124.644 27.7146H72.2142C49.393 27.7146 30.8926 46.299 30.8926 69.2238Z" fill="white"/>
</mask>
<g mask="url(#mask15_812_47833)">
<path d="M127.933 46.9753C126.59 45.0905 125.809 42.9064 125.809 40.5698C125.809 33.4715 132.917 27.7146 141.677 27.7146C150.443 27.7146 157.551 33.4715 157.551 40.5698C157.551 47.671 150.443 53.4278 141.677 53.4278C138.3 53.4278 135.176 52.5658 132.605 51.1079L127.566 52.4633C127.042 52.6046 126.559 52.1196 126.7 51.5929L127.933 46.9753ZM51.857 84.5681C51.9011 84.6679 51.9453 84.7676 51.9922 84.8702H54.9059C54.9307 84.7676 54.9583 84.6679 54.9859 84.5681H91.8791C91.9481 84.7621 91.9729 84.8702 91.9729 84.8702H94.3734C94.4313 84.7676 94.481 84.6679 94.5362 84.5681H101.087C102.582 84.5681 103.799 83.3457 103.799 81.8462V43.9513C103.848 43.8987 103.882 43.8266 103.882 43.7434C103.882 43.6631 103.848 43.591 103.799 43.5383V41.7533C103.799 40.2511 102.582 39.0288 101.087 39.0288H65.9923V34.8601C65.9923 33.0003 64.4831 31.4841 62.6289 31.4841H34.5734C32.7192 31.4841 31.21 33.0003 31.21 34.8601V44.8438C31.21 46.7064 32.7192 48.2225 34.5734 48.2225H42.4482V81.8407C42.4482 83.343 43.665 84.5653 45.1604 84.5653H51.857V84.5681ZM165.652 70.9894C165.514 73.2345 165.003 76.5384 163.345 79.5152L163.317 79.5679L163.309 79.6289C163.284 79.8811 160.586 104.827 155.214 107.931C154.858 108.136 154.477 108.311 154.077 108.446L153.917 108.499L146.528 142.758C146.213 144.215 144.902 145.277 143.418 145.277H131.344V145.576H131.642V174.527H139.039C139.955 174.527 140.7 175.275 140.7 176.196C140.7 177.118 139.955 177.867 139.039 177.867H115.787C114.871 177.867 114.126 177.118 114.126 176.196C114.126 175.275 114.871 174.527 115.787 174.527H123.185V145.576H123.483V145.277H110.628L110.644 145.576H110.942C111.014 147.051 111.058 148.517 111.078 149.961C111.078 150.022 111.078 150.078 111.08 150.139C111.086 150.549 111.089 150.962 111.089 151.369C111.089 151.475 111.089 151.577 111.089 151.682C111.089 152.043 111.089 152.406 111.086 152.763C111.086 152.891 111.083 153.018 111.083 153.143C111.08 153.479 111.078 153.808 111.072 154.138C111.069 154.28 111.067 154.421 111.061 154.562C111.055 154.875 111.05 155.186 111.042 155.496C111.039 155.646 111.033 155.796 111.031 155.943C111.02 156.242 111.011 156.538 111 156.832C110.995 156.985 110.986 157.143 110.981 157.295C110.97 157.581 110.956 157.863 110.945 158.143C110.94 158.304 110.931 158.459 110.926 158.617C110.912 158.889 110.898 159.161 110.882 159.429C110.873 159.59 110.865 159.748 110.86 159.906C110.843 160.172 110.829 160.433 110.813 160.693C110.804 160.851 110.796 161.009 110.785 161.162C110.769 161.422 110.752 161.677 110.733 161.932C110.724 162.085 110.713 162.237 110.702 162.392C110.686 162.645 110.666 162.891 110.65 163.138C110.639 163.285 110.628 163.437 110.617 163.584C110.597 163.834 110.578 164.078 110.556 164.324C110.545 164.463 110.537 164.604 110.523 164.74C110.504 165.003 110.479 165.261 110.454 165.522C110.446 165.632 110.435 165.746 110.426 165.857C110.393 166.223 110.36 166.583 110.324 166.935L108.605 166.805C107.739 172.847 106.787 177.016 106.616 177.748C106.616 177.756 106.613 177.759 106.613 177.764C106.605 177.806 106.597 177.836 106.594 177.85C106.591 177.861 106.591 177.864 106.591 177.864H74.6921C74.6921 173.51 79.2116 170.322 83.3449 168.316C84.9039 167.562 86.2393 166.483 87.2878 165.189C87.9003 164.43 88.4108 163.595 88.8081 162.703C88.8219 162.67 88.8357 162.636 88.8495 162.603C89.0537 162.135 89.2247 161.655 89.3599 161.159C89.4262 160.921 89.4869 160.677 89.5365 160.43C89.611 160.07 89.6717 159.704 89.7104 159.33C89.7628 158.831 89.7821 158.321 89.7655 157.805L89.1889 140.413L89.1861 140.415C88.466 141.153 87.7486 141.871 87.0395 142.575C86.9898 142.622 86.9429 142.666 86.896 142.716C86.6863 142.921 86.4738 143.126 86.2641 143.331C86.2089 143.381 86.1565 143.437 86.1013 143.486C85.4088 144.16 84.719 144.811 84.0402 145.443C84.0237 145.46 84.0099 145.471 83.9961 145.488C83.8084 145.659 83.6236 145.831 83.4387 146.003C83.3532 146.081 83.2649 146.161 83.1821 146.242C83.0138 146.394 82.8483 146.546 82.6799 146.699C82.5751 146.793 82.473 146.887 82.3709 146.979C82.2164 147.12 82.0619 147.262 81.9046 147.4C81.7749 147.517 81.6452 147.63 81.5156 147.747C81.3114 147.932 81.1072 148.115 80.903 148.293C80.7402 148.437 80.5747 148.584 80.4146 148.725C80.3015 148.819 80.1939 148.916 80.0835 149.01C79.9318 149.144 79.7773 149.277 79.6283 149.41C79.5262 149.496 79.4241 149.581 79.3248 149.67C79.1592 149.814 78.9909 149.958 78.8253 150.1C78.7453 150.169 78.6653 150.238 78.5881 150.305C78.3425 150.51 78.0997 150.718 77.8624 150.917L76.7284 149.612C71.7287 153.445 68.07 155.782 67.6285 156.062C67.623 156.062 67.623 156.062 67.623 156.065C67.5982 156.081 67.5816 156.089 67.5816 156.089L44.8073 133.652C47.8424 130.543 53.2918 131.446 57.643 132.923C59.2792 133.481 60.9844 133.655 62.6344 133.464C64.4251 133.262 66.1496 132.627 67.6534 131.593C68.3377 131.125 68.975 130.573 69.5517 129.944L88.6563 109.026C88.7667 109.056 88.8743 109.081 88.9847 109.109L89.2054 108.868L88.7336 108.737C80.3953 106.448 72.9096 100.059 72.5951 99.7876L72.5565 99.7543L72.5096 99.7377C71.9191 99.5021 70.2939 98.9533 67.9376 98.9533C67.2864 98.9533 66.6159 98.9949 65.951 99.0808C65.2998 99.1612 64.5658 99.2027 63.7712 99.2027C60.943 99.2027 57.7534 98.6733 55.8854 98.2188C55.6178 98.155 55.4219 97.9333 55.3805 97.6561L55.3557 97.5037C55.3143 97.6201 55.2067 97.6977 55.0825 97.6977C55.0825 97.6977 55.0825 97.6977 55.0797 97.6977C55.0632 97.6977 55.0466 97.6977 55.0301 97.6949C54.8673 97.6672 54.7569 97.512 54.7845 97.3512C54.7845 97.3401 54.7873 97.3346 54.79 97.3263C54.8093 97.2265 54.8369 97.1295 54.8811 97.0408L54.8645 97.0353L54.8204 97.0214C54.641 96.9771 54.4948 96.8634 54.4037 96.6999C54.3154 96.5419 54.2961 96.359 54.3486 96.1843C54.4341 95.9044 54.6852 95.7159 54.9749 95.7159C55.0052 95.7159 55.0383 95.7187 55.0687 95.7215L55.4798 95.7824C55.317 95.7575 55.2039 95.6078 55.226 95.4415C55.2315 95.4055 55.2453 95.3695 55.2618 95.3417C55.2729 95.3223 55.2839 95.3112 55.295 95.2946C55.3032 95.2835 55.3143 95.2752 55.3225 95.2669C55.3446 95.2475 55.3639 95.2336 55.3888 95.2198C55.3915 95.217 55.3943 95.217 55.397 95.2142C55.4246 95.2031 55.4577 95.1948 55.4881 95.1893C55.5102 95.1865 55.535 95.181 55.5626 95.1865C55.6343 95.1976 55.7116 95.2087 55.7861 95.217V95.2031C55.7888 95.1339 55.7971 95.0784 55.8109 95.0313C55.8965 94.7514 56.1475 94.5629 56.4373 94.5629C56.4676 94.5629 56.5007 94.5657 56.5311 94.5684C56.8539 94.6128 57.2567 94.671 57.7092 94.7347L58.0045 94.7735C57.8389 94.7514 57.7258 94.5989 57.7479 94.4382C57.7589 94.355 57.8003 94.2857 57.8638 94.2386H57.8665C57.8969 94.2164 57.93 94.1998 57.9659 94.1887C58.0017 94.1776 58.0431 94.1721 58.0817 94.1776L58.1121 94.1804L58.4294 94.2247C58.5425 94.0141 58.755 93.8755 58.9978 93.8755C59.0171 93.8755 59.0392 93.8755 59.0585 93.8783C59.4751 93.9171 60.0187 93.9697 60.6312 94.0224L60.6975 94.0279C60.6864 94.0113 60.6726 93.9919 60.6643 93.9725C60.623 93.8894 60.6257 93.8007 60.6588 93.7231C60.6699 93.6926 60.6892 93.6621 60.7112 93.6344C60.7361 93.6066 60.7637 93.5845 60.7968 93.5678C60.8078 93.5623 60.8244 93.5623 60.8382 93.5567C60.9568 93.5179 61.0865 93.5567 61.1638 93.6538L61.1306 93.4958C61.1168 93.4265 61.1113 93.3683 61.1141 93.3128C61.1251 92.9331 61.4038 92.6088 61.7791 92.5451C62.9186 92.3511 65.1425 92.0268 67.2423 92.0268C67.5761 92.0268 67.9017 92.0351 68.2052 92.0489C71.3838 92.2236 75.9668 94.3245 76.0165 94.3467L76.0358 94.355L93.289 99.4328L93.416 99.3136C94.7293 98.0497 95.9047 96.8773 97.0443 95.7436C104.017 88.7922 107.855 84.9617 118.95 84.9284V84.3297H118.605V79.5679L118.268 79.6122C117.962 79.6538 117.741 79.6704 117.529 79.6704C117.479 79.6704 117.424 79.6704 117.374 79.6677C115.807 79.6039 114.364 78.9276 113.299 77.7635C112.236 76.6022 111.69 75.0943 111.754 73.5172L111.825 71.8958L110.865 71.1391C110.498 70.8508 110.473 70.4351 110.575 70.1468C110.675 69.8558 110.945 69.5481 111.411 69.5481H111.93L112.09 65.8839C112.09 60.9946 116.033 57.0311 120.881 57.0311C123.728 57.0311 126.399 58.4225 128.027 60.7535L128.118 60.8837H128.132C129.139 62.3389 129.669 64.0629 129.669 65.8701V84.9284H129.967C130.375 84.9284 139.66 85.0393 148.95 94.7541L149.301 95.1172L155.128 76.5994L155.092 76.5024C155.076 76.4608 153.503 72.1702 153.257 65.8202C153.238 65.3517 153.542 64.9388 153.994 64.8085L154.024 64.8002C154.115 64.7752 154.204 64.7614 154.298 64.7614C154.758 64.7614 155.158 65.0718 155.272 65.5236L156.154 68.9855L156.739 68.9578L158.274 59.1625C158.351 58.6664 158.77 58.306 159.27 58.306C159.33 58.306 159.394 58.3116 159.457 58.3254C159.973 58.4197 160.332 58.9103 160.274 59.4369L159.534 65.895L159.681 65.834L159.7 65.6677C159.711 65.5541 159.788 65.4654 159.888 65.4266C159.904 65.421 159.924 65.4155 159.94 65.4127C159.97 65.4072 160.001 65.3989 160.031 65.4016C160.05 65.4072 160.067 65.4155 160.084 65.421C160.219 65.4626 160.31 65.5929 160.293 65.737L160.291 65.7675L160.5 65.0995C160.622 64.7115 160.975 64.4509 161.383 64.4509C161.458 64.4509 161.535 64.4593 161.607 64.4787C162.054 64.5923 162.354 65.0247 162.299 65.4876L162.236 66.028L162.241 66.0197C162.269 65.8617 162.412 65.7592 162.57 65.7786C162.575 65.7786 162.583 65.7758 162.589 65.7786C162.752 65.8091 162.859 65.9643 162.829 66.1306L162.823 66.1694L162.768 66.466L163.044 66.5519C163.577 66.7238 163.955 67.2171 163.988 67.777L164.002 67.9655C164.043 67.8435 164.153 67.7576 164.289 67.7604C164.291 67.7604 164.297 67.7576 164.3 67.7576C164.465 67.7687 164.589 67.9128 164.578 68.0791L164.57 68.2233L164.542 68.578C165.274 69.1518 165.707 70.0498 165.652 70.9894ZM106.886 104.07L107.226 104.167C107.317 104.089 107.408 104.012 107.499 103.931L108.752 104.283L111.055 104.932L111.102 105.256L111.414 105.345L110.746 100.522L110.128 101.104C109.221 101.961 108.282 102.848 107.303 103.704L106.886 104.07ZM76.3973 149.526C76.4221 149.504 76.4386 149.482 76.4524 149.457C76.3945 149.498 76.3421 149.54 76.2841 149.581C76.3228 149.57 76.3614 149.554 76.3973 149.526ZM108.299 166.968C108.302 166.938 108.296 166.907 108.291 166.88C108.282 166.949 108.269 167.018 108.26 167.088C108.282 167.052 108.296 167.013 108.299 166.968Z" fill="#333333"/>
</g>
</g>
<mask id="mask16_812_47833" style="mask-type:luminance" maskUnits="userSpaceOnUse" x="72" y="53" width="14" height="21">
<path d="M72.1367 53.8601H85.5574V73.7278H72.1367V53.8601Z" fill="white"/>
</mask>
<g mask="url(#mask16_812_47833)">
<mask id="mask17_812_47833" style="mask-type:luminance" maskUnits="userSpaceOnUse" x="30" y="27" width="136" height="151">
<path d="M30.8916 69.2238V136.36C30.8916 159.285 49.392 177.87 72.2133 177.87H124.643C147.465 177.87 165.965 159.285 165.965 136.36V69.2238C165.965 46.299 147.465 27.7146 124.643 27.7146H72.2133C49.392 27.7146 30.8916 46.299 30.8916 69.2238Z" fill="white"/>
</mask>
<g mask="url(#mask17_812_47833)">
<path d="M84.7619 58.8103C84.7619 57.0919 84.2625 55.5037 83.3879 54.176C78.9428 60.0382 72.3401 60.7367 72.3401 60.7367C72.3401 60.7367 73.6728 68.2896 72.1855 73.2842C74.3515 73.2842 76.5202 73.2842 78.6917 73.2842V72.2088H78.6862C78.6779 72.2088 78.6724 72.2088 78.6641 72.2088C76.7989 72.0564 75.0165 70.9006 74.4012 70.1688C74.2936 70.0413 74.3101 69.8529 74.437 69.7448C74.5612 69.6394 74.7488 69.6561 74.8564 69.7808C75.4276 70.4626 77.0886 71.4771 78.711 71.6074C78.8766 71.6184 78.998 71.7653 78.987 71.9316C78.987 71.9344 78.9842 71.9372 78.9842 71.9372C79.1718 71.9538 79.365 71.9649 79.5664 71.9566C82.7339 71.818 85.2062 69.1239 85.0682 65.9392L84.7619 58.8103ZM77.5549 62.1475C77.1659 62.1475 76.8513 61.8315 76.8513 61.4407C76.8513 61.0499 77.1659 60.7367 77.5549 60.7367C77.944 60.7367 78.2558 61.0499 78.2558 61.4407C78.2558 61.8315 77.944 62.1475 77.5549 62.1475ZM80.7197 66.7402C80.4466 66.8178 80.1872 66.8483 79.9554 66.8483C78.9207 66.8483 78.2806 66.2413 78.2475 66.208C78.1288 66.0944 78.1261 65.9004 78.242 65.784C78.3551 65.6648 78.5427 65.662 78.6641 65.7757C78.6972 65.8062 79.4229 66.4769 80.5597 66.1582C80.717 66.1138 80.8825 66.208 80.9267 66.366C80.9708 66.5296 80.8798 66.6931 80.7197 66.7402ZM80.6783 64.5284C80.4576 64.8056 80.1265 64.9608 79.7733 64.9608C79.6078 64.9608 79.4726 64.825 79.4726 64.6614C79.4726 64.4951 79.6078 64.3593 79.7733 64.3593C79.9416 64.3593 80.1044 64.2817 80.212 64.1514C80.3196 64.0156 80.361 63.8438 80.3252 63.6719L80.1431 62.8182C80.1072 62.6547 80.212 62.4967 80.3748 62.4607C80.5349 62.4274 80.6921 62.53 80.728 62.6907L80.9129 63.5472C80.9874 63.8964 80.8991 64.2512 80.6783 64.5284ZM82.1131 62.1475C81.7241 62.1475 81.4095 61.8315 81.4095 61.4407C81.4095 61.0499 81.7241 60.7367 82.1131 60.7367C82.5022 60.7367 82.8167 61.0499 82.8167 61.4407C82.8167 61.8315 82.5022 62.1475 82.1131 62.1475Z" fill="#DE9D7C"/>
</g>
</g>
<mask id="mask18_812_47833" style="mask-type:luminance" maskUnits="userSpaceOnUse" x="53" y="56" width="113" height="45">
<path d="M53.7715 56.6985H165.982V100.691H53.7715V56.6985Z" fill="white"/>
</mask>
<g mask="url(#mask18_812_47833)">
<mask id="mask19_812_47833" style="mask-type:luminance" maskUnits="userSpaceOnUse" x="30" y="27" width="136" height="151">
<path d="M30.8926 69.2238V136.36C30.8926 159.285 49.393 177.87 72.2142 177.87H124.644C147.466 177.87 165.966 159.285 165.966 136.36V69.2238C165.966 46.299 147.466 27.7146 124.644 27.7146H72.2142C49.393 27.7146 30.8926 46.299 30.8926 69.2238Z" fill="white"/>
</mask>
<g mask="url(#mask19_812_47833)">
<path d="M129.953 78.3649V84.6429H119.076C119.029 84.6429 118.985 84.6456 118.938 84.6456H118.295V79.9282C117.978 79.9697 117.672 79.9975 117.352 79.9864C113.947 79.8478 111.306 76.943 111.447 73.5227L111.511 72.0537L110.669 71.394C109.783 70.6983 110.274 69.2654 111.403 69.2654H111.632L111.778 65.8894C111.778 60.8393 115.851 56.7483 120.864 56.7483C123.919 56.7483 126.631 58.27 128.256 60.601H117.308C117.308 60.601 115.459 63.3367 117.308 65.8478L118.284 66.4742C117.175 66.4105 116.121 66.8678 115.453 67.7104C114.882 68.4283 114.642 69.3374 114.777 70.2743C114.91 71.2028 115.395 72.0454 116.146 72.6469C116.814 73.1818 117.641 73.4728 118.469 73.4728C118.604 73.4728 118.737 73.4645 118.869 73.4479C119.035 73.4313 119.151 73.2788 119.134 73.1153C119.115 72.949 118.963 72.8326 118.803 72.8492C118.003 72.9434 117.17 72.6968 116.518 72.1757C115.887 71.6712 115.478 70.9644 115.368 70.1856C115.258 69.4178 115.453 68.6694 115.92 68.0846C116.477 67.3806 117.366 67.0064 118.304 67.0757C118.466 67.0868 118.61 66.9648 118.624 66.7985C118.627 66.7597 118.618 66.7209 118.607 66.6849L118.963 66.9122C120.384 67.8296 121.308 69.3319 121.502 71.0143C121.838 73.9274 123.422 78.3649 129.953 78.3649ZM61.2905 94.6072C61.0256 94.4769 60.8021 94.2635 60.6642 93.9891C60.6228 93.9087 60.6255 93.8172 60.6586 93.7396C60.5096 93.7285 60.3662 93.7147 60.2282 93.7008C60.2199 93.7008 60.2144 93.7008 60.2034 93.6981C60.0709 93.687 59.9385 93.6731 59.8116 93.662C59.8033 93.662 59.795 93.6593 59.7867 93.6593C59.6598 93.6482 59.5412 93.6343 59.428 93.626C59.4198 93.626 59.417 93.626 59.4115 93.626C59.2984 93.6149 59.188 93.6038 59.0887 93.5955C59.0335 93.59 58.9783 93.59 58.9203 93.5955C58.901 93.5983 58.879 93.601 58.8596 93.6038C58.8265 93.6121 58.7934 93.6149 58.7631 93.6232C58.7355 93.6288 58.7134 93.6371 58.6858 93.6482C58.661 93.6565 58.6389 93.662 58.6168 93.6731C58.5865 93.687 58.5589 93.7008 58.5313 93.7202C58.5147 93.7285 58.4982 93.7369 58.4816 93.7452C58.4513 93.7674 58.4237 93.7895 58.3933 93.8117C58.3823 93.82 58.3713 93.8283 58.363 93.8366C58.3326 93.8644 58.3023 93.8921 58.2747 93.9253C58.2692 93.9337 58.2664 93.9392 58.2609 93.9447C58.2305 93.9808 58.203 94.0168 58.1809 94.0556C58.1781 94.0584 58.1781 94.0612 58.1754 94.0639C58.1505 94.1055 58.1257 94.1526 58.1091 94.1997L58.7382 94.2829C59.5853 94.3965 60.4765 94.5185 61.2905 94.6072ZM56.2081 96.3118C58.3989 96.6167 60.7359 96.7885 62.5101 96.6527C63.9807 96.5418 65.0623 96.2203 65.3465 95.5939C65.3934 95.4858 65.3713 95.4387 65.3382 95.3971C65.2085 95.2336 64.8029 95.059 64.0414 94.9287C64.0524 94.9536 64.0635 94.9786 64.0662 95.0035C64.0856 95.1698 63.9641 95.3167 63.8014 95.3334C63.6579 95.35 63.4896 95.3555 63.3047 95.3555C63.0978 95.3555 62.8605 95.3445 62.6094 95.3278C61.525 95.2613 60.082 95.0673 58.6637 94.8788L58.0071 94.7901C57.8415 94.7707 57.7284 94.6183 57.7504 94.4547H57.7477C57.4249 94.4104 57.1241 94.3716 56.8647 94.3328C56.8427 94.33 56.8261 94.3245 56.804 94.3217C56.724 94.3106 56.6468 94.3023 56.575 94.2884C56.1087 94.2247 55.6617 94.5102 55.5265 94.962C55.51 95.0146 55.5017 95.0645 55.4962 95.1144C55.4934 95.1449 55.4907 95.1782 55.4879 95.2086C55.51 95.2059 55.5348 95.2003 55.5624 95.2059C57.2317 95.4387 60.4738 95.7935 62.3031 95.8572C62.7446 95.8711 63.106 95.8711 63.3433 95.8461C63.5116 95.8267 63.6551 95.9487 63.6717 96.1122C63.691 96.2785 63.5696 96.4254 63.4068 96.4421C63.2495 96.4587 63.0509 96.467 62.8108 96.467C62.7473 96.467 62.6728 96.4642 62.6039 96.4642C60.7055 96.4337 56.9917 96.0097 55.4769 95.799C55.3141 95.7768 55.201 95.6272 55.223 95.4609C55.1844 95.4553 55.143 95.4498 55.1071 95.4442C54.6408 95.3777 54.1938 95.6632 54.0586 96.115C53.8959 96.6444 54.2104 97.1932 54.7429 97.3318C54.7567 97.3346 54.7733 97.3401 54.7898 97.3429C54.8091 97.2431 54.8423 97.1405 54.8864 97.0408C55.1154 96.528 55.6479 96.2314 56.2081 96.3118ZM68.2161 91.7662C65.857 91.6387 63.106 92.0295 61.7264 92.2651C61.2077 92.3538 60.8269 92.7945 60.8104 93.3183C60.8076 93.3793 60.8159 93.4403 60.8242 93.4985C60.8269 93.5234 60.8297 93.5484 60.8352 93.5706C60.9732 93.5234 61.1277 93.5816 61.1967 93.7147C61.3319 93.9808 61.594 94.1498 61.8865 94.1554C64.069 94.1997 65.3851 94.4935 65.8045 95.0257C65.9894 95.2613 66.0197 95.5523 65.8873 95.8434C64.9851 97.8335 59.3811 97.3623 56.1198 96.9049C55.8245 96.8634 55.5459 97.0186 55.4217 97.2902C55.3941 97.3456 55.3748 97.4038 55.3665 97.4621C55.3444 97.609 55.2175 97.7115 55.074 97.7115C55.0933 97.8418 55.1403 97.9665 55.2092 98.0801C55.2175 98.094 55.2258 98.1106 55.2368 98.1217C55.2561 98.1522 55.2755 98.1799 55.2975 98.2049C55.3251 98.2381 55.3555 98.2686 55.3886 98.2963C55.4051 98.313 55.4272 98.3296 55.4465 98.3435C55.4879 98.3739 55.5293 98.4017 55.5707 98.4238C55.5845 98.4349 55.6038 98.4432 55.6204 98.4516C55.6811 98.4793 55.7418 98.5042 55.8052 98.5208C58.0981 99.078 62.6259 99.8097 65.9839 99.3856C66.2184 99.3551 66.4502 99.3357 66.6737 99.3136C66.7454 99.308 66.8144 99.3052 66.8834 99.2997C67.0379 99.2858 67.1896 99.2775 67.3414 99.2748C67.4159 99.272 67.4904 99.2692 67.5649 99.2692C67.7084 99.2664 67.8491 99.2637 67.9898 99.2664C68.0533 99.2664 68.1223 99.2664 68.1857 99.2664C68.3402 99.2692 68.492 99.2748 68.641 99.2803C68.6824 99.2831 68.7238 99.2831 68.7651 99.2858C68.961 99.2997 69.1459 99.3108 69.3253 99.3302C69.3308 99.3302 69.3363 99.3302 69.3418 99.333C69.5129 99.3496 69.6784 99.369 69.8357 99.3884C69.8771 99.3939 69.9157 99.4023 69.9571 99.4078C70.0785 99.4244 70.1972 99.4438 70.3158 99.4632C70.3572 99.4688 70.3986 99.4799 70.44 99.4854C70.5531 99.5048 70.6607 99.527 70.7628 99.5492C70.7959 99.5547 70.8318 99.563 70.8649 99.5686C70.9863 99.5963 71.1022 99.624 71.2125 99.6489C71.2208 99.6545 71.2319 99.6573 71.2401 99.6573C71.3643 99.685 71.4774 99.7182 71.5823 99.7487C71.6044 99.7543 71.6237 99.7626 71.6457 99.7681C71.723 99.7903 71.7975 99.8125 71.8665 99.8374C71.9023 99.8485 71.9327 99.8568 71.9658 99.8707C72.0127 99.8845 72.0596 99.9012 72.1038 99.9178C72.1396 99.9289 72.17 99.9427 72.2031 99.9538C72.2334 99.9649 72.261 99.9732 72.2886 99.9843C72.3245 99.9982 72.3576 100.009 72.3852 100.023L76.1294 94.0861C76.1349 94.0916 71.4912 91.9463 68.2161 91.7662ZM165.947 70.618C165.947 70.6069 165.947 70.593 165.944 70.5792C165.936 70.4572 165.916 70.338 165.894 70.2161C165.889 70.1994 165.886 70.1828 165.883 70.1662C165.858 70.0498 165.825 69.9306 165.787 69.8169C165.778 69.8031 165.776 69.7892 165.77 69.7754C165.729 69.659 165.682 69.5453 165.624 69.4317C165.621 69.4261 165.618 69.4206 165.616 69.415C165.37 68.9438 165.006 68.5364 164.548 68.2371L164.504 68.8607C164.49 69.0187 164.36 69.1379 164.203 69.1379C164.197 69.1379 164.189 69.1379 164.184 69.1379C164.018 69.1268 163.894 68.9827 163.905 68.8163L163.96 68.0486C163.971 67.8851 164.104 67.7686 164.266 67.7714C164.261 67.6827 164.25 67.5913 164.228 67.5053C164.222 67.4748 164.211 67.4444 164.2 67.4139C164.186 67.3584 164.167 67.303 164.148 67.2503C164.134 67.2171 164.117 67.1838 164.104 67.1533C164.079 67.1062 164.054 67.0563 164.026 67.012C164.01 66.9787 163.988 66.9482 163.968 66.9205C163.938 66.8761 163.905 66.8346 163.872 66.793C163.847 66.7653 163.825 66.7403 163.8 66.7126C163.761 66.6738 163.723 66.6378 163.681 66.6017C163.654 66.5768 163.626 66.5574 163.601 66.5352C163.552 66.4992 163.502 66.4659 163.447 66.4354C163.419 66.4216 163.397 66.4022 163.37 66.3911C163.29 66.3495 163.201 66.3135 163.116 66.283L162.804 66.1832L162.531 67.6799C162.503 67.8241 162.376 67.9266 162.236 67.9266C162.219 67.9266 162.2 67.9211 162.183 67.9183C162.02 67.8906 161.913 67.7326 161.943 67.5691L162.227 66.0335C162.258 65.8783 162.401 65.7758 162.556 65.7924L162.586 65.5374C162.658 64.9249 162.263 64.3539 161.664 64.2042C161.038 64.049 160.398 64.4065 160.202 65.0246L160.07 65.4376C160.205 65.482 160.293 65.6095 160.279 65.7536L160.155 66.829C160.139 66.9815 160.009 67.0979 159.86 67.0979C159.849 67.0979 159.835 67.0979 159.824 67.0923C159.658 67.0757 159.543 66.926 159.562 66.7597L159.683 65.6843C159.694 65.5707 159.774 65.4847 159.871 65.4459L160.552 59.4895C160.632 58.8049 160.172 58.1785 159.496 58.0482C158.773 57.9124 158.077 58.403 157.964 59.1347L156.43 68.9328L155.55 65.4681C155.368 64.7558 154.637 64.3317 153.933 64.5285L153.9 64.5368C153.315 64.7003 152.918 65.2436 152.943 65.8506C153.194 72.3281 154.797 76.6243 154.797 76.6243L163.604 79.6621C165.32 76.5744 165.814 73.1375 165.947 71.0088C165.955 70.8785 165.952 70.7455 165.947 70.618Z" fill="#9D5E52"/>
</g>
</g>
<mask id="mask20_812_47833" style="mask-type:luminance" maskUnits="userSpaceOnUse" x="30" y="31" width="127" height="116">
<path d="M30.8926 31.1543H156.193V146.103H30.8926V31.1543Z" fill="white"/>
</mask>
<g mask="url(#mask20_812_47833)">
<mask id="mask21_812_47833" style="mask-type:luminance" maskUnits="userSpaceOnUse" x="30" y="27" width="136" height="151">
<path d="M30.8926 69.2238V136.36C30.8926 159.285 49.393 177.87 72.2142 177.87H124.644C147.466 177.87 165.966 159.285 165.966 136.36V69.2238C165.966 46.299 147.466 27.7146 124.644 27.7146H72.2142C49.393 27.7146 30.8926 46.299 30.8926 69.2238Z" fill="white"/>
</mask>
<g mask="url(#mask21_812_47833)">
<path d="M91.9729 84.8703H54.9031C55.8633 80.8125 59.9138 78.5979 63.2276 77.4421C64.094 78.1461 65.1977 78.5674 66.3979 78.5674C68.1555 78.5674 69.7007 77.6666 70.6084 76.3001C70.6305 76.2641 70.6498 76.2281 70.6747 76.1921C71.3617 75.4381 71.8473 74.4292 72.1895 73.2873C74.3554 73.2873 76.5242 73.2873 78.6956 73.2873V76.3001C90.2898 78.0075 91.9729 84.8648 91.9729 84.8703ZM152.052 98.557H127.497C125.861 98.557 124.443 99.7045 124.095 101.315L120.768 116.728L116.055 138.586H108.44C106.519 138.586 104.96 140.149 104.96 142.081C104.96 144.013 106.519 145.576 108.44 145.576H143.412C145.051 145.576 146.467 144.429 146.815 142.819L154.168 108.729L155.448 102.792C155.923 100.614 154.27 98.557 152.052 98.557ZM62.6289 48.522H34.5734C32.5481 48.522 30.9092 46.8728 30.9092 44.8439V34.8602C30.9092 32.8285 32.5509 31.1821 34.5734 31.1821H62.6289C64.6513 31.1821 66.2903 32.8313 66.2903 34.8602V44.8439C66.2903 44.9104 66.2848 44.977 66.282 45.0407L67.245 48.655C67.3857 49.1844 66.9028 49.6667 66.3786 49.5254L62.6427 48.5192C62.6399 48.522 62.6344 48.522 62.6289 48.522ZM52.7509 43.2142C52.7509 43.0479 52.6157 42.912 52.453 42.912H35.3073C35.1418 42.912 35.0093 43.0479 35.0093 43.2142C35.0093 43.3777 35.1418 43.5135 35.3073 43.5135H52.453C52.6185 43.5135 52.7509 43.3777 52.7509 43.2142ZM62.1929 39.8521C62.1929 39.6885 62.0577 39.5527 61.8922 39.5527H35.3101C35.1473 39.5527 35.0121 39.6885 35.0121 39.8521C35.0121 40.0184 35.1473 40.1542 35.3101 40.1542H61.8922C62.0577 40.1542 62.1929 40.0184 62.1929 39.8521ZM62.1929 36.4927C62.1929 36.3264 62.0577 36.1906 61.8922 36.1906H35.3101C35.1473 36.1906 35.0121 36.3264 35.0121 36.4927C35.0121 36.6563 35.1473 36.7921 35.3101 36.7921H61.8922C62.0577 36.7921 62.1929 36.6563 62.1929 36.4927Z" fill="#39CD47"/>
</g>
</g>
<mask id="mask22_812_47833" style="mask-type:luminance" maskUnits="userSpaceOnUse" x="41" y="32" width="123" height="136">
<path d="M41.7637 32.5735H163.963V167.39H41.7637V32.5735Z" fill="white"/>
</mask>
<g mask="url(#mask22_812_47833)">
<mask id="mask23_812_47833" style="mask-type:luminance" maskUnits="userSpaceOnUse" x="30" y="27" width="136" height="151">
<path d="M30.8926 69.2238V136.36C30.8926 159.285 49.393 177.87 72.2142 177.87H124.644C147.466 177.87 165.966 159.285 165.966 136.36V69.2238C165.966 46.299 147.466 27.7146 124.644 27.7146H72.2142C49.393 27.7146 30.8926 46.299 30.8926 69.2238Z" fill="white"/>
</mask>
<g mask="url(#mask23_812_47833)">
<path d="M74.6314 49.6001C84.0541 49.0873 84.2886 52.8568 83.8389 53.7798C86.6339 53.0204 86.6863 58.2866 86.6091 61.1941C86.278 73.4867 100.686 73.4867 94.3735 84.8646H101.087C102.748 84.8646 104.097 83.512 104.097 81.8407V41.7506C104.097 40.082 102.748 38.7266 101.087 38.7266H66.2904V44.8438C66.2904 44.9103 66.2849 44.9768 66.2821 45.0406L67.2451 48.6549C67.3858 49.1843 66.9029 49.6666 66.3787 49.5252L62.6427 48.5191C62.6372 48.5191 62.6317 48.5191 62.6262 48.5191H42.1475V81.8379C42.1475 83.5092 43.4967 84.8618 45.1577 84.8618H51.9895C46.2228 72.439 62.4055 72.1203 64.5273 61.9342C65.275 58.3642 67.4134 49.9936 74.6314 49.6001ZM66.8284 44.0455C66.6656 44.0455 66.5304 43.9097 66.5304 43.7434C66.5304 43.5799 66.6656 43.4441 66.8284 43.4441H103.584C103.746 43.4441 103.882 43.5799 103.882 43.7434C103.882 43.9097 103.746 44.0455 103.584 44.0455H66.8284ZM108.252 166.785C108.285 166.838 108.305 166.899 108.299 166.968C108.288 167.124 108.156 167.243 108.001 167.243C107.993 167.243 107.982 167.243 107.976 167.243L88.1791 165.569C88.0163 165.552 87.8976 165.413 87.9087 165.247V165.244C87.9225 165.078 88.0632 164.953 88.2315 164.97L108.029 166.647C108.125 166.652 108.205 166.711 108.252 166.785ZM76.4277 149.102C76.4911 149.177 76.5104 149.274 76.4884 149.36C76.4773 149.421 76.447 149.482 76.3946 149.526C76.3394 149.573 76.2704 149.598 76.2014 149.598C76.1186 149.598 76.0331 149.562 75.9752 149.493L63.0097 134.373C62.9021 134.246 62.9159 134.06 63.0373 133.952C63.0373 133.952 63.0373 133.952 63.0401 133.949C63.167 133.841 63.3546 133.855 63.4622 133.982L76.4277 149.102ZM163.607 79.6593C163.607 79.6593 160.928 104.973 155.365 108.189C155.172 108.299 154.976 108.399 154.778 108.488C154.582 108.579 154.378 108.657 154.173 108.729L155.454 102.792C155.923 100.611 154.27 98.5541 152.052 98.5541H127.498C125.861 98.5541 124.443 99.7016 124.095 101.312L120.768 116.726H112.694L111.056 104.932L110.531 101.14C110.3 101.359 110.068 101.578 109.83 101.8C109.817 101.816 109.8 101.828 109.786 101.841C109.544 102.071 109.298 102.299 109.052 102.526C109.047 102.534 109.039 102.54 109.033 102.545C108.531 103.011 108.023 103.477 107.499 103.931C105.093 106.041 102.422 107.986 99.2131 109.034C97.1685 109.702 94.906 110.004 92.3537 109.746C91.1121 109.624 89.8732 109.375 88.6426 109.037H88.6399C88.3639 108.962 88.088 108.882 87.8121 108.796C87.6962 108.76 87.5803 108.721 87.4617 108.685C87.2961 108.629 87.1278 108.577 86.9623 108.518C86.8353 108.474 86.7057 108.427 86.5787 108.383C86.4242 108.33 86.2725 108.275 86.1207 108.219C85.9883 108.169 85.8614 108.119 85.7289 108.067C85.5827 108.011 85.4337 107.953 85.2874 107.895C85.155 107.842 85.0253 107.789 84.8984 107.734C84.7522 107.676 84.6087 107.612 84.4624 107.548C84.3355 107.496 84.2086 107.44 84.0817 107.382C83.9327 107.318 83.7864 107.252 83.6402 107.182C83.5188 107.127 83.4002 107.074 83.2843 107.016C83.116 106.939 82.9504 106.858 82.7849 106.778C82.6331 106.7 82.4813 106.628 82.3323 106.553C82.142 106.459 81.9543 106.362 81.7639 106.265C81.6508 106.207 81.5377 106.146 81.4246 106.085C81.2866 106.013 81.1514 105.941 81.0162 105.866C80.8976 105.805 80.7817 105.738 80.6658 105.672C80.5389 105.603 80.4147 105.531 80.2878 105.461C80.1719 105.395 80.056 105.328 79.9401 105.262C79.8187 105.195 79.7001 105.123 79.5787 105.054C79.4655 104.987 79.3552 104.921 79.2448 104.854C79.1262 104.782 79.0075 104.713 78.8916 104.641C78.784 104.574 78.6792 104.513 78.5716 104.447C78.4557 104.375 78.3398 104.303 78.2211 104.231C78.1246 104.167 78.0225 104.106 77.9259 104.045C77.7907 103.956 77.661 103.873 77.5286 103.787C77.4072 103.71 77.2858 103.632 77.1699 103.554C77.0264 103.46 76.8857 103.366 76.7477 103.274C76.6622 103.216 76.5767 103.158 76.4911 103.1C76.389 103.03 76.2842 102.964 76.1876 102.895C76.0993 102.834 76.0166 102.775 75.931 102.72C75.84 102.654 75.7462 102.59 75.6551 102.523C75.5723 102.468 75.4923 102.41 75.415 102.354C75.3295 102.29 75.2412 102.229 75.1584 102.171C75.0839 102.116 75.0094 102.06 74.9377 102.01C74.8522 101.949 74.7722 101.891 74.6949 101.833C74.6287 101.786 74.5597 101.733 74.4962 101.686C74.4135 101.625 74.3362 101.567 74.2589 101.506C74.2038 101.464 74.1486 101.423 74.0934 101.384C73.9968 101.312 73.9085 101.243 73.8175 101.173C73.765 101.135 73.7154 101.093 73.663 101.051C73.5774 100.985 73.4891 100.918 73.4119 100.857C73.3677 100.824 73.3319 100.791 73.2905 100.76C73.2353 100.716 73.1801 100.674 73.1277 100.636C73.089 100.602 73.0532 100.575 73.0145 100.544C72.9704 100.508 72.9235 100.472 72.8821 100.439C72.8518 100.417 72.8242 100.392 72.7966 100.367C72.7579 100.334 72.7193 100.306 72.6862 100.278C72.6641 100.259 72.6421 100.242 72.62 100.223C72.5896 100.198 72.5593 100.176 72.5372 100.153C72.5207 100.142 72.5069 100.131 72.4931 100.117C72.4682 100.098 72.4462 100.079 72.4324 100.065C72.4296 100.062 72.4213 100.056 72.4186 100.054C72.4048 100.04 72.3937 100.031 72.3937 100.029L76.1352 94.0917L93.2036 99.1168C102.59 90.0976 105.901 84.6845 118.939 84.6457C118.988 84.6457 119.03 84.6429 119.077 84.6429H129.956C129.956 84.6429 139.558 84.532 149.152 94.5629L154.797 76.6243L163.607 79.6593ZM137.618 37.1994C137.618 36.1018 138.049 35.0679 138.83 34.2974C139.61 33.5241 140.637 33.1139 141.738 33.1222C143.915 33.1527 145.711 34.9571 145.741 37.144C145.761 38.5742 145.054 39.8824 143.851 40.6474C142.864 41.2766 142.279 42.2827 142.279 43.3443V43.6021C142.279 43.9347 142.011 44.2035 141.68 44.2035C141.351 44.2035 141.084 43.9347 141.084 43.6021V43.3443C141.084 41.8697 141.878 40.4839 143.211 39.633C144.061 39.0925 144.56 38.1667 144.544 37.1578C144.525 35.6417 143.23 34.3418 141.721 34.3251C140.946 34.3085 140.217 34.6051 139.666 35.1539C139.117 35.6971 138.813 36.4261 138.813 37.1994C138.813 37.532 138.545 37.8009 138.217 37.8009C137.886 37.8009 137.618 37.5348 137.618 37.1994ZM142.276 47.2469V47.4159C142.276 47.7485 142.008 48.0174 141.677 48.0174C141.349 48.0174 141.081 47.7485 141.081 47.4159V47.2469C141.081 46.917 141.349 46.6454 141.677 46.6454C142.008 46.6454 142.276 46.917 142.276 47.2469ZM117.311 65.8451C115.462 63.3311 117.311 60.5982 117.311 60.5982H128.273C129.343 62.0894 129.953 63.9187 129.953 65.8867V78.3649C123.422 78.3649 121.838 73.9274 121.502 71.0116C121.309 69.3291 120.384 67.8269 118.963 66.9094L118.607 66.6822C118.572 66.5685 118.469 66.4854 118.345 66.4743C118.323 66.4715 118.304 66.4743 118.282 66.4743L117.311 65.8451ZM112.587 116.728C112.587 116.895 112.452 117.03 112.289 117.03H107.551C105.052 122.103 100.714 127.799 96.8954 132.339C94.023 135.753 91.446 138.511 90.1657 139.85C90.105 139.911 90.0277 139.944 89.9505 139.944C89.876 139.944 89.8015 139.916 89.7435 139.858C89.6276 139.745 89.6221 139.556 89.738 139.434C91.5011 137.591 95.7393 133.045 99.798 127.81C102.615 124.179 105.344 120.221 107.104 116.604C107.11 116.587 107.121 116.579 107.132 116.568C107.143 116.548 107.154 116.531 107.171 116.515C107.184 116.504 107.201 116.495 107.217 116.482C107.231 116.473 107.248 116.462 107.264 116.457C107.286 116.446 107.311 116.446 107.331 116.443C107.347 116.44 107.358 116.434 107.372 116.434H112.294C112.452 116.429 112.587 116.562 112.587 116.728Z" fill="#DEFFBD"/>
</g>
</g>
</svg>
