<svg width="1080" height="475" viewBox="0 0 1080 475" fill="none" xmlns="http://www.w3.org/2000/svg">
<path d="M539.151 310.922H513V303.963H539.151V310.922Z" fill="#ADE970"/>
<mask id="mask0_900_28950" style="mask-type:luminance" maskUnits="userSpaceOnUse" x="926" y="378" width="26" height="97">
<path d="M926.63 378.917H951.963V475H926.63V378.917Z" fill="white"/>
</mask>
<g mask="url(#mask0_900_28950)">
<path d="M939.161 475.016C944.526 475.016 948.906 470.724 949.026 465.359L950.651 389.338C950.771 383.802 946.323 379.25 940.791 379.25H937.359C931.812 379.25 927.364 383.818 927.489 389.354L929.291 465.385C929.427 470.745 933.802 475.016 939.161 475.016Z" fill="#ADE970"/>
</g>
<path d="M882.568 431.057C886.708 431.057 890.078 427.75 890.161 423.625L891.417 365.063C891.51 360.797 888.089 357.297 883.823 357.297H881.177C876.911 357.297 873.479 360.807 873.583 365.078L874.974 423.641C875.063 427.76 878.443 431.057 882.568 431.057Z" fill="#ADE970"/>
<path d="M993.13 166.208V243.687L973.854 234.151L972.468 233.458L956.51 225.573L918.323 206.677L882.505 188.958V126.495L945.536 149.13L979.854 161.448L993.13 166.208Z" fill="#ADE970"/>
<path d="M993.13 169.156V233.458H972.469L956.51 225.573V169.156H993.13Z" fill="#ADE970"/>
<path d="M973.854 234.151C966.317 212.156 975.385 176.411 979.854 161.448L945.536 149.13L904.583 196.391C904.583 196.391 910.172 200.63 918.317 206.687L973.854 234.151Z" fill="#ADE970"/>
<path d="M883.745 126.781L913.818 137.719L979.776 161.719L987.312 164.464C989.667 165.313 991.479 167.094 992.411 169.281C992.885 170.37 993.13 171.552 993.13 172.771V382.266C993.13 388.849 998.469 394.182 1005.04 394.182H1038.42C1045 394.182 1050.32 388.849 1050.32 382.266V174.922C1050.32 172.901 1049.81 170.979 1048.9 169.281C1047.54 166.766 1045.3 164.75 1042.48 163.729L1001.66 148.875L942.542 127.37C941.474 126.974 940.344 126.781 939.203 126.781H883.745Z" fill="#ADE970"/>
<path d="M992.411 169.281C992.885 170.37 993.13 171.552 993.13 172.771V382.266C993.13 388.849 998.468 394.182 1005.04 394.182H1038.42C1045 394.182 1050.32 388.849 1050.32 382.266V174.922C1050.32 172.901 1049.81 170.979 1048.9 169.281H992.411Z" fill="#ADE970"/>
<path d="M1004.34 239.797V301.338C1004.34 304.203 1003.15 306.76 1001.27 308.505C999.687 309.958 997.63 310.838 995.375 310.838H532.323C529.995 310.838 527.87 309.901 526.276 308.349C524.484 306.615 523.359 304.115 523.359 301.338V233.365H523.276L516.135 214.307C513.802 208.078 518.146 201.302 524.464 201.302H926.839C927.979 201.302 929.109 201.542 930.161 201.984L998.703 230.979C999.453 231.302 1000.15 231.724 1000.78 232.229C1002.98 233.979 1004.34 236.771 1004.34 239.797Z" fill="#ADE970"/>
<path d="M1004.34 319.693V385.333C1004.34 390.214 1000.38 394.172 995.505 394.172H532C530.917 394.172 529.87 393.969 528.901 393.609C527.823 393.203 526.833 392.604 526.01 391.828C525.797 391.63 525.588 391.417 525.385 391.188C524.599 390.307 523.984 389.25 523.599 388.078C523.318 387.214 523.167 386.292 523.167 385.333V319.693C523.167 318.734 523.318 317.823 523.599 316.953C523.739 316.531 523.911 316.12 524.104 315.724C524.12 315.693 524.135 315.641 524.161 315.599C524.354 315.234 524.573 314.88 524.812 314.552C524.974 314.333 525.14 314.104 525.328 313.896C525.484 313.703 525.656 313.526 525.833 313.354C525.859 313.333 525.88 313.307 525.906 313.281C526.76 312.474 527.771 311.833 528.901 311.411C529.87 311.047 530.917 310.844 532 310.844H995.505C997.87 310.844 1000.02 311.781 1001.6 313.281C1002.34 313.99 1002.95 314.812 1003.41 315.724C1004.01 316.922 1004.34 318.271 1004.34 319.693Z" fill="#ADE970"/>
<path d="M1001.27 308.505C1003.15 306.766 1004.34 304.203 1004.34 301.349V239.797C1004.34 236.776 1002.98 233.99 1000.78 232.234C996.458 248.828 990.937 280.349 1001.27 308.505Z" fill="#ADE970"/>
<path d="M491.739 239.797V233.365H491.656L484.047 214.307C481.557 208.078 486.177 201.302 492.922 201.302H921.739C922.963 201.302 924.167 201.542 925.286 201.984L954.177 213.448L992.146 228.531L998.333 230.979C1001.95 232.411 1004.34 235.911 1004.34 239.797H491.739Z" fill="#ADE970"/>
<path d="M992.901 228.531C989.302 230.651 982.541 233.088 973.776 234.151C958.224 236.026 937.739 229.963 937.739 229.963L957.26 213.448L992.901 228.531Z" fill="#ADE970"/>
<path d="M525.906 313.286C527.495 314.797 529.641 315.734 532 315.734H995.505C997.875 315.734 1000.02 314.807 1001.6 313.286C1000.02 311.781 997.87 310.854 995.505 310.854H532C529.635 310.854 527.495 311.781 525.906 313.286Z" fill="#ADE970"/>
<mask id="mask1_900_28950" style="mask-type:luminance" maskUnits="userSpaceOnUse" x="99" y="378" width="25" height="97">
<path d="M99.9634 378.917H123.401V475H99.9634V378.917Z" fill="white"/>
</mask>
<g mask="url(#mask1_900_28950)">
<path d="M111.557 475.083C106.187 475.083 101.802 470.792 101.693 465.427L100.057 389.401C99.9373 383.87 104.39 379.318 109.922 379.318H113.359C118.896 379.318 123.349 383.885 123.224 389.427L121.416 465.453C121.291 470.812 116.906 475.083 111.557 475.083Z" fill="#ADE970"/>
</g>
<path d="M168.146 431.13C164.015 431.13 160.635 427.818 160.547 423.687L159.291 365.125C159.198 360.87 162.62 357.365 166.885 357.365H169.536C173.802 357.365 177.229 360.88 177.13 365.146L175.739 423.708C175.646 427.833 172.276 431.13 168.146 431.13Z" fill="#ADE970"/>
<path d="M168.214 126.562V189.036L132.396 206.755L76.8594 234.219L57.5781 243.755V166.281L70.8594 161.516L105.172 149.198L168.214 126.562Z" fill="#ADE970"/>
<path d="M132.396 206.755C140.547 200.698 146.125 196.458 146.125 196.458L105.172 149.198L70.8594 161.515C75.3229 176.479 84.401 212.234 76.8594 234.219L132.396 206.755Z" fill="#ADE970"/>
<mask id="mask2_900_28950" style="mask-type:luminance" maskUnits="userSpaceOnUse" x="0" y="125" width="168" height="270">
<path d="M0 125.583H167.964V394.917H0V125.583Z" fill="white"/>
</mask>
<g mask="url(#mask2_900_28950)">
<path d="M166.964 126.849L136.896 137.797L70.9427 161.792L63.3958 164.531C61.0521 165.38 59.2344 167.161 58.2969 169.349C57.8229 170.437 57.5781 171.62 57.5781 172.838V382.333C57.5781 388.917 52.2448 394.25 45.6771 394.25H12.2969C5.71876 394.25 0.395844 388.917 0.395844 382.333V174.99C0.395844 172.963 0.901052 171.047 1.8073 169.349C3.16668 166.838 5.41668 164.818 8.22397 163.797L49.0469 148.953L108.177 127.437C109.24 127.042 110.365 126.849 111.505 126.849H166.964Z" fill="#ADE970"/>
</g>
<mask id="mask3_900_28950" style="mask-type:luminance" maskUnits="userSpaceOnUse" x="0" y="168" width="59" height="227">
<path d="M0 168.25H58.6302V394.917H0V168.25Z" fill="white"/>
</mask>
<g mask="url(#mask3_900_28950)">
<path d="M58.2969 169.349C57.8229 170.438 57.5781 171.62 57.5781 172.839V382.333C57.5781 388.917 52.2448 394.25 45.6771 394.25H12.2969C5.71876 394.25 0.395844 388.917 0.395844 382.333V174.99C0.395844 172.964 0.901052 171.047 1.8073 169.349H58.2969Z" fill="#ADE970"/>
</g>
<path d="M534.573 214.375L527.432 233.443H527.349V301.417C527.349 306.656 523.339 310.911 518.391 310.911H55.3385C53.0781 310.911 51.0208 310.026 49.4531 308.578C47.5677 306.828 46.375 304.271 46.375 301.417V239.87C46.375 236.844 47.7344 234.057 49.9323 232.302C50.5573 231.792 51.2604 231.375 52.0104 231.047L120.552 202.052C121.604 201.615 122.734 201.38 123.87 201.38H526.245C532.573 201.38 536.906 208.146 534.573 214.375Z" fill="#ADE970"/>
<path d="M527.542 319.76V385.411C527.542 387.245 526.984 388.948 526.01 390.365C525.823 390.651 525.615 390.927 525.385 391.188C524.87 391.797 524.271 392.328 523.599 392.766C523.141 393.083 522.646 393.349 522.125 393.568C521.078 394.005 519.922 394.25 518.708 394.25H55.2135C50.3281 394.25 46.375 390.286 46.375 385.411V319.76C46.375 318.339 46.7135 316.99 47.3021 315.802C47.7604 314.88 48.375 314.063 49.1146 313.354C50.6927 311.854 52.849 310.922 55.2135 310.922H518.708C519.922 310.922 521.078 311.167 522.125 311.604C523.125 312.026 524.026 312.615 524.802 313.354C524.979 313.526 525.156 313.708 525.328 313.896C525.568 314.167 525.807 314.469 526.01 314.771C526.234 315.099 526.438 315.448 526.615 315.802C527.203 316.99 527.542 318.339 527.542 319.76Z" fill="#ADE970"/>
<path d="M49.4531 308.578C47.5677 306.828 46.375 304.271 46.375 301.417V239.87C46.375 236.844 47.7344 234.057 49.9323 232.302C54.25 248.901 59.7708 280.411 49.4531 308.578Z" fill="#ADE970"/>
<path d="M534.573 214.375L527.432 233.443H527.349V239.87H46.375C46.375 235.984 48.6094 232.49 52.0104 231.047L120.552 202.052C121.604 201.615 122.734 201.38 123.87 201.38H526.245C532.573 201.38 536.906 208.146 534.573 214.375Z" fill="#ADE970"/>
<mask id="mask4_900_28950" style="mask-type:luminance" maskUnits="userSpaceOnUse" x="133" y="0" width="391" height="210">
<path d="M133.297 0H523.964V209.583H133.297V0Z" fill="white"/>
</mask>
<g mask="url(#mask4_900_28950)">
<path d="M505.839 209.016H152.125C142.359 209.016 134.443 201.099 134.443 191.333V17.7553C134.443 7.98967 142.359 0.072998 152.125 0.072998H505.839C515.604 0.072998 523.521 7.98967 523.521 17.7553V191.333C523.521 201.099 515.604 209.016 505.839 209.016Z" fill="#ADE970"/>
</g>
<mask id="mask5_900_28950" style="mask-type:luminance" maskUnits="userSpaceOnUse" x="137" y="0" width="391" height="210">
<path d="M137.297 0H527.964V209.583H137.297V0Z" fill="white"/>
</mask>
<g mask="url(#mask5_900_28950)">
<path d="M527.469 17.6719V191.25C527.469 195.016 526.297 198.505 524.281 201.38C521.083 205.948 515.792 208.927 509.792 208.927H156.047C149.297 208.927 143.427 205.146 140.443 199.578C139.12 197.099 138.38 194.266 138.38 191.25V17.6719C138.38 7.90108 146.286 -0.010376 156.047 -0.010376H509.792C519.552 -0.010376 527.469 7.90108 527.469 17.6719Z" fill="#ADE970"/>
</g>
<mask id="mask6_900_28950" style="mask-type:luminance" maskUnits="userSpaceOnUse" x="530" y="0" width="392" height="210">
<path d="M530.63 0H921.297V209.583H530.63V0Z" fill="white"/>
</mask>
<g mask="url(#mask6_900_28950)">
<path d="M549.13 209.099H902.838C912.609 209.099 920.526 201.177 920.526 191.412V17.8386C920.526 8.073 912.609 0.151123 902.838 0.151123H549.13C539.359 0.151123 531.437 8.073 531.437 17.8386V191.412C531.437 201.177 539.359 209.099 549.13 209.099Z" fill="#ADE970"/>
</g>
<mask id="mask7_900_28950" style="mask-type:luminance" maskUnits="userSpaceOnUse" x="518" y="0" width="400" height="210">
<path d="M518.63 0H917.297V209.583H518.63V0Z" fill="white"/>
</mask>
<g mask="url(#mask7_900_28950)">
<path d="M916.588 17.7552V191.333C916.588 191.943 916.557 192.547 916.494 193.141C915.567 202.052 907.896 209.016 898.557 209.016H537.765C533.703 209.016 529.942 207.693 526.927 205.448C526.364 205.037 525.823 204.589 525.307 204.099C525.166 203.969 525.021 203.833 524.885 203.688C524.776 203.568 524.661 203.458 524.552 203.344C524.489 203.276 524.281 203.047 524.244 202.995C524.088 202.828 523.942 202.667 523.823 202.516C523.734 202.406 523.64 202.307 523.573 202.198C523.422 202.021 523 201.453 522.916 201.339C522.781 201.146 522.651 200.948 522.526 200.755C522.453 200.646 522.39 200.547 522.323 200.417C522.198 200.219 521.854 199.62 521.817 199.542C521.651 199.229 521.5 198.917 521.354 198.599C521.213 198.323 521.093 198.042 520.984 197.755C520.875 197.51 520.791 197.26 520.698 197.005C520.672 196.922 520.646 196.844 520.63 196.771C520.536 196.526 520.463 196.271 520.385 196.021C520.385 196.021 520.385 196.021 520.385 196.01C520.328 195.776 520.265 195.542 520.208 195.302C520.182 195.203 520.166 195.109 520.151 195.01C520.088 194.818 520.047 194.604 520.015 194.396C520 194.26 519.974 194.125 519.958 193.979C519.937 193.896 519.932 193.802 519.922 193.714C519.89 193.542 519.869 193.38 519.854 193.214C519.823 192.943 519.802 192.682 519.786 192.406C519.781 192.323 519.781 192.229 519.781 192.146C519.76 191.875 519.755 191.604 519.755 191.333C519.755 191.333 519.755 191.26 519.76 191.125C520 186.833 523.672 117.901 523.672 94.0469C523.672 70.1928 520 20.9636 519.76 17.9063C519.755 17.8021 519.755 17.7552 519.755 17.7552C519.755 17.5 519.755 17.2552 519.771 17.0052C519.958 12.5365 521.843 8.48442 524.812 5.474C525.614 4.6615 526.489 3.9115 527.448 3.26046C530.375 1.25525 533.942 0.067749 537.765 0.067749H898.557C908.515 0.067749 916.588 7.98963 916.588 17.7552Z" fill="#ADE970"/>
</g>
<path d="M631.422 185.156C587.208 180.614 554.76 184.088 531.437 190.239C529.161 190.838 527.026 188.885 527.416 186.557C541.416 103.76 533.635 44.2811 526.682 13.2707C525.948 9.99465 521.297 9.83319 520.396 13.0624C520.041 14.3228 519.823 15.6457 519.771 17.0051C519.755 17.2551 519.755 17.4999 519.755 17.7551C519.755 17.7551 519.755 17.8019 519.76 17.9061C520 20.9634 523.672 70.1926 523.672 94.0467C523.672 117.901 520 186.833 519.76 191.125C519.755 191.26 519.755 191.333 519.755 191.333C519.755 191.604 519.823 192.943 519.854 193.213C519.869 193.38 520.182 195.203 520.208 195.302C520.265 195.542 520.672 196.922 520.698 197.005C520.791 197.26 521.651 199.229 521.817 199.542C521.843 199.599 522.974 201.338 523.411 201.979C523.515 202.13 523.625 202.265 523.75 202.39C524.39 203.047 526.448 205.094 526.927 205.448C529.942 207.693 533.703 209.015 537.765 209.015H897.932C907.593 209.015 915.536 202.052 916.494 193.14C916.557 192.547 916.588 191.943 916.588 191.333V185.765C916.588 183.573 914.474 182.031 912.375 182.667C853.604 200.536 736.297 195.917 631.422 185.156Z" fill="#ADE970"/>
<path d="M541.51 197.463C541.51 197.463 551.661 200.974 504.286 197.307C456.911 193.646 395.265 200.088 388.614 197.057C381.229 193.687 375.218 160.51 367.791 132.417C360.432 104.594 358.89 50.927 345.885 47.802L265.244 126.932V199.542C237.755 196.812 196.359 190.427 180.646 190.896C170.927 191.193 153.984 190.703 140.442 199.578C143.427 205.146 149.297 208.927 156.047 208.927H509.791C511.619 208.927 513.39 208.651 515.041 208.135H541.51V197.463Z" fill="#ADE970"/>
<path d="M136.896 137.797L70.9427 161.792C70.9063 161.698 70.8802 161.615 70.8594 161.516C68.4688 152.406 57.9167 149.625 49.0469 148.953L108.177 127.437C109.24 127.042 110.365 126.849 111.505 126.849H128.036L136.896 137.797Z" fill="#ADE970"/>
<path d="M964.156 209.823H87.3799V208.213H964.156V209.823Z" fill="#ADE970"/>
<path d="M248.89 216.422C246.63 216.422 244.172 216.411 241.5 216.411C223.745 216.396 197.219 216.385 166.963 217.474C154.114 217.948 143.943 218.891 135.396 220.026C118.187 222.313 107.62 225.344 95.2863 226.682C93.7915 226.833 92.3696 226.516 91.1717 225.833C89.0571 224.635 87.6144 222.333 87.6717 219.688C87.9269 208.12 85.5832 185.63 81.1769 161.698C80.9634 160.589 80.7551 159.458 80.5363 158.328C80.4582 157.932 80.3801 157.531 80.3071 157.135C79.8696 154.891 79.4217 152.667 78.9582 150.427V150.417C78.3436 147.495 77.703 144.563 77.0259 141.646C76.6717 140.104 76.3123 138.563 75.9373 137.036C75.5623 135.453 75.1717 133.891 74.7707 132.37C73.5519 127.682 72.2967 123.266 70.9998 119.089C62.4426 91.5 52.5155 74.401 46.9269 61.1719C44.9009 56.3802 48.7394 51.1563 53.9217 51.651C77.2134 53.901 102.062 54.0208 133.953 53.4375C155.682 53.0417 208.411 48.8698 217.974 47.3958C221.943 46.7969 225.583 49.6979 225.87 53.6979C227.167 71.6406 228.932 96.5625 233.26 127.818C235.693 145.422 251.208 190.745 255.552 207.849C256.661 212.198 253.385 216.422 248.89 216.422Z" fill="#ADE970"/>
<path d="M91.1715 225.833C89.057 224.635 87.6143 222.333 87.6715 219.688C87.9424 207.583 85.3538 183.5 80.5361 158.328V158.297C80.5361 158.297 119.859 201.109 91.1715 225.833Z" fill="#ADE970"/>
<path d="M241.5 216.411C223.744 216.396 197.218 216.385 166.963 217.474C154.114 217.948 143.942 218.891 135.396 220.026C155.953 204.563 197.073 176.167 225.557 173.052C246.286 170.781 246.218 193.958 241.5 216.411Z" fill="#ADE970"/>
<path d="M373.198 216.401C355.948 216.396 335.041 215.781 300.255 217.036C261.552 218.427 233.239 224.693 214.786 226.698C210.656 227.141 207.088 223.859 207.172 219.708C207.468 206.568 204.052 179.052 200.849 151.766C200.651 150.073 200.448 148.38 200.25 146.693C199.963 144.239 199.677 141.807 199.411 139.385C199.317 138.594 199.234 137.812 199.14 137.021C199.005 135.807 198.869 134.609 198.729 133.432C198.38 130.656 198.02 127.984 197.619 125.401C197.276 123.042 196.916 120.755 196.526 118.542C191.672 90.6978 184.354 74.0259 178.781 60.828C176.76 56.0259 180.588 50.802 185.776 51.3072C209.052 53.5572 239.052 56.302 270.942 55.7134C292.666 55.328 332.718 48.854 342.286 47.3905C346.255 46.7759 349.885 49.6822 350.182 53.6822C351.302 69.1717 352.755 89.8593 355.932 115.354C356.208 117.641 356.505 119.979 356.833 122.359C357.041 124.052 357.281 125.76 357.515 127.5C357.526 127.588 357.541 127.698 357.557 127.802C357.666 128.578 357.802 129.401 357.953 130.276C358.39 132.687 358.989 135.479 359.734 138.526C360.062 139.901 360.427 141.333 360.802 142.818C366.276 163.943 376.468 194.479 379.864 207.823C380.968 212.182 377.682 216.401 373.198 216.401Z" fill="#ADE970"/>
<path d="M207.182 219.708C207.521 204.187 202.688 168.583 199.146 137.021C194.724 97.6457 185.484 76.7134 178.781 60.828C177.141 56.9269 179.354 52.7551 183.021 51.5832C182.036 51.4947 181.042 51.4009 180.073 51.3072C174.885 50.8019 171.052 56.0259 173.073 60.828C179.786 76.7134 189.026 97.6457 193.443 137.021C196.979 168.583 201.818 204.187 201.474 219.708C201.38 223.859 204.958 227.14 209.089 226.693C209.974 226.599 210.901 226.489 211.833 226.37C209.094 225.443 207.104 222.823 207.182 219.708Z" fill="#ADE970"/>
<path d="M524.802 313.354C523.229 314.875 521.067 315.802 518.708 315.802H55.2132C52.8434 315.802 50.6924 314.875 49.1143 313.354C50.6924 311.854 52.8486 310.922 55.2132 310.922H518.708C521.078 310.922 523.229 311.849 524.802 313.354Z" fill="#ADE970"/>
<path d="M527.542 241.078H46.375V238.667H527.542V241.078Z" fill="#ADE970"/>
<path d="M1004.33 241.083H523.167V238.672H1004.33V241.083Z" fill="#ADE970"/>
<path d="M526.052 239.797V318.271C525.833 318.068 525.63 317.865 525.427 317.635C524.911 318.234 524.307 318.766 523.641 319.214V239.797H526.052Z" fill="#ADE970"/>
<path d="M526.01 313.354V391.828C525.797 391.63 525.588 391.417 525.385 391.187C524.869 391.797 524.271 392.328 523.599 392.765V313.354H526.01Z" fill="#ADE970"/>
<path d="M526.01 311.766C524.224 310.026 523.927 304.115 523.927 301.339C523.927 301.339 525.765 240.484 524.802 239.797C530.453 242.297 539.005 274.62 526.01 311.766Z" fill="#ADE970"/>
<path d="M533.198 315.734H515.495V310.922H533.198V315.734Z" fill="#ADE970"/>
<path d="M525.385 391.187C524.599 390.307 524.619 386.292 524.619 385.333V329.031C525.046 323.01 523.953 314.479 524.812 314.552C528.177 314.838 535.296 348.208 525.385 391.187Z" fill="#ADE970"/>
<path d="M1008.04 61.2602C1007.13 63.4165 1006.09 65.6717 1004.97 68.0675C1004.02 70.1144 1003.01 72.2446 1001.94 74.4946C1001.7 74.9946 1001.47 75.4842 1001.24 75.979C1000.47 77.5988 999.682 79.2654 998.88 80.9998C992.5 94.7029 985.005 112.406 979.021 137.114C971.281 169.047 966.948 204.245 967.292 219.765C967.385 223.922 963.813 227.198 959.682 226.76C941.24 224.755 926.698 218.948 888.005 217.557C853.198 216.302 823.323 216.495 806.078 216.505C801.594 216.505 798.302 212.276 799.417 207.927C803.755 190.828 819.271 145.495 821.714 127.896C825.844 98.0988 827.62 74.0571 828.911 56.3384C828.969 55.4686 829.031 54.6196 829.099 53.7863C829.188 52.479 829.635 51.2967 830.339 50.3123C831.786 48.255 834.307 47.0675 836.99 47.479C846.557 48.9477 899.281 53.1248 921.005 53.5154C952.896 54.104 977.755 53.9842 1001.05 51.729C1006.23 51.229 1010.07 56.4529 1008.04 61.2602Z" fill="#ADE970"/>
<path d="M847.922 65.9375C846.041 65.3698 836.244 60.2396 828.911 56.3385C828.968 55.4687 829.031 54.6198 829.099 53.7865C829.187 52.4792 829.635 51.2969 830.338 50.3125C837.458 52.7917 845.031 57.401 847.922 65.9375Z" fill="#ADE970"/>
<path d="M850.484 60.3592C850.484 60.3592 876.943 49.7915 871.609 74.5571C866.281 99.3123 856.552 127.042 854.687 149.13C852.557 174.396 852.656 194.015 851 207.208C848.536 226.802 832.807 226.922 825.151 220.557C817.505 214.198 821.771 218.359 821.771 218.359V147.375L850.484 60.3592Z" fill="#ADE970"/>
<path d="M1069.11 386.177C1062.49 392.073 1054.56 388.193 1051.47 365.609C1050.66 359.745 1050.18 352.63 1050.13 344.094C1050.12 342.479 1050.12 340.875 1050.11 339.287C1049.76 268.823 1050.29 230.115 1050.32 203.208C1050.32 200.349 1050.37 197.604 1050.42 194.974C1050.74 178.958 1051.34 167.667 1044.3 166.073C1027.32 162.25 990.864 150.552 989.489 187.333C987.927 229.219 932.578 243.083 919.63 230.635C919.406 230.427 919.193 230.188 918.989 229.964C915.88 226.328 909.745 224.13 902.781 222.714C902.766 222.714 902.739 222.708 902.713 222.708C902.031 222.573 901.338 222.438 900.641 222.318C900.614 222.318 900.588 222.313 900.562 222.313C880.057 218.698 854.698 221.115 877.828 213.979C878.562 213.755 879.271 213.531 879.969 213.292C879.979 213.292 879.979 213.292 879.979 213.292C884.979 211.62 889.109 209.755 892.75 207.693C903.953 201.313 910.453 193.005 922.875 182.656C924.864 180.99 927.01 179.287 929.344 177.526C935.917 172.563 944.036 167.188 954.672 161.365C964.984 155.724 980.292 138.745 1032.2 149.13C1068.71 156.427 1066.66 176.943 1068.3 216.344C1069.11 235.969 1070.73 257.01 1072.49 276.76C1073.35 286.474 1074.24 295.87 1075.09 304.646C1077.28 327.302 1079.16 345.688 1079.37 354.24C1079.7 368.38 1074.91 381.026 1069.11 386.177Z" fill="#ADE970"/>
<path d="M868.37 64.0571C868.187 64.5102 867.984 64.9738 867.791 65.4478C866.963 67.3905 866.104 69.4321 865.229 71.5623C864.578 73.1405 863.901 74.7811 863.239 76.4946C862.521 78.3123 861.797 80.2082 861.073 82.1873C856.031 96.0102 850.953 114.042 848.015 140.245C845.307 164.286 841.87 190.672 840.526 208.745C840.39 210.521 840.281 212.213 840.193 213.807C840.099 215.609 840.021 217.297 839.995 218.864C839.953 220.338 839.953 221.693 839.979 222.932C840.021 224.896 839.245 226.667 837.984 227.937C836.573 229.354 834.541 230.156 832.37 229.917C813.916 227.922 785.599 221.651 746.906 220.26C712.109 219.015 691.213 219.62 673.969 219.63C671.067 219.63 668.682 217.88 667.635 215.458C667.114 214.245 666.937 212.864 667.203 211.458C667.229 211.333 667.265 211.187 667.291 211.052C667.62 209.771 668.015 208.312 668.463 206.729C668.713 205.797 668.995 204.828 669.297 203.807C670.187 200.724 671.224 197.25 672.364 193.515L673.932 188.354C680.094 168.239 687.927 143.109 689.594 131.021C693.927 99.7655 695.682 74.8488 696.969 56.9113C697.01 56.4894 697.073 56.078 697.182 55.6873C697.474 54.5519 698.031 53.5467 698.802 52.729C700.291 51.1196 702.526 50.255 704.88 50.6144C714.437 52.0832 754.495 58.5467 776.219 58.9477C808.099 59.5311 838.099 56.7863 861.375 54.5259C866.568 54.0311 870.401 59.255 868.37 64.0571Z" fill="#ADE970"/>
<path d="M937.813 218.807C929.74 223.854 923.974 227.703 919.63 230.635C919.406 230.427 919.193 230.187 918.99 229.963C915.88 226.328 909.745 224.13 902.781 222.713C908.927 223.734 926.443 225.818 937.813 218.807Z" fill="#ADE970"/>
<path d="M1075.09 304.646C1070.26 294.828 1065.3 279.568 1062.56 256.073C1063.21 261.005 1067.56 268.989 1072.49 276.76C1073.35 286.474 1074.24 295.87 1075.09 304.646Z" fill="#ADE970"/>
<path d="M950.651 177.771C940.797 180.812 931.141 182.161 922.875 182.656C924.865 180.989 927.01 179.286 929.344 177.526C935.583 177.266 942.646 177.266 950.651 177.771Z" fill="#ADE970"/>
<path d="M1069.11 386.177C1062.49 392.073 1054.56 388.193 1051.47 365.609C1055.18 374.036 1060.78 382.214 1069.11 386.177Z" fill="#ADE970"/>
<path d="M1004.97 68.0676C1004.02 70.1145 1003.01 72.2447 1001.94 74.4947C985.318 76.6197 974.823 78.2447 974.823 78.2447L1004.97 68.0676Z" fill="#ADE970"/>
<path d="M1001.24 75.979C1000.47 77.5988 999.682 79.2655 998.88 80.9998C994.167 82.5519 987.708 83.9738 978.359 84.7082C982.469 81.0363 994.464 77.6561 1001.24 75.979Z" fill="#ADE970"/>
<path d="M867.792 65.4478C866.964 67.3905 866.104 69.4321 865.229 71.5623C853.609 75.1092 841.432 80.0988 840.875 80.3332L867.792 65.4478Z" fill="#ADE970"/>
<path d="M863.239 76.4946C862.521 78.3123 861.797 80.2082 861.073 82.1873C851.041 84.1717 841.338 86.8175 840.864 86.9425L863.239 76.4946Z" fill="#ADE970"/>
<path d="M696.708 60.6094C702.38 65.8594 707.463 73.0156 707.333 81.7188C705.417 77.4688 700.479 72.3281 696.135 68.3542L696.708 60.6094Z" fill="#ADE970"/>
<path d="M710.406 72.8853C708.849 69.4478 701.255 60.4217 697.182 55.6873C697.474 54.5519 698.031 53.5467 698.802 52.729C702.349 56.6092 707.312 63.3228 710.406 72.8853Z" fill="#ADE970"/>
<path d="M689.484 201.302C683.364 200.833 675.224 203.682 668.463 206.729C668.713 205.797 668.995 204.828 669.297 203.807C674.531 201.672 681.276 200.318 689.484 201.302Z" fill="#ADE970"/>
<path d="M839.979 222.932C840.021 224.896 839.245 226.667 837.984 227.937C831.464 221.932 824.234 213.448 824.234 213.448C824.234 213.448 833.052 214.297 839.995 218.864C839.953 220.338 839.953 221.693 839.979 222.932Z" fill="#ADE970"/>
<path d="M683.745 206.729C678.39 207.911 671.026 212.963 667.635 215.458C667.114 214.245 666.937 212.864 667.203 211.458C671.208 209.411 676.656 207.489 683.745 206.729Z" fill="#ADE970"/>
<path d="M91.0986 115.885C85.6768 124.765 80.2497 130.818 75.5882 134.911C74.7601 131.703 73.8903 128.667 73.0049 125.802C79.083 123.354 87.6403 119.474 91.0986 115.885Z" fill="#ADE970"/>
<path d="M97.3748 131.375C97.3748 131.375 87.4894 143.214 78.9582 150.417C78.3436 147.495 77.703 144.563 77.0259 141.646L97.3748 131.375Z" fill="#ADE970"/>
<path d="M219.203 120.312C210.265 122.906 203.151 124.474 197.62 125.401C197.276 123.042 196.917 120.755 196.526 118.542C201.906 119.76 210.031 121 219.203 120.312Z" fill="#ADE970"/>
<path d="M216.739 134.677C209.172 136.937 203.568 138.427 199.411 139.385C199.318 138.594 199.234 137.812 199.14 137.021C199.005 135.807 198.87 134.609 198.729 133.432C205.599 134.552 213.682 135.552 216.739 134.677Z" fill="#ADE970"/>
<path d="M213.464 150.417C208.682 150.745 204.458 151.224 200.849 151.766C200.651 150.073 200.448 148.38 200.25 146.693C204.771 146.99 209.828 147.932 213.464 150.417Z" fill="#ADE970"/>
<path d="M328.984 109.87C329.208 109.979 329.438 110.099 329.667 110.208C329.37 110.088 329.151 109.979 328.984 109.87Z" fill="#ADE970"/>
<path d="M356.833 122.359C350.411 119.922 341.625 116.13 329.682 110.213C333.443 111.734 346.896 113.958 355.932 115.354C356.208 117.64 356.505 119.979 356.833 122.359Z" fill="#ADE970"/>
<path d="M357.953 130.276C354.448 129.703 349.869 128.578 343.896 126.562C347.453 126.781 352.713 127.151 357.515 127.5L357.953 130.276Z" fill="#ADE970"/>
<path d="M360.802 142.818C356.599 143.078 349.922 142.672 339.391 140.896C342.172 138.391 352.349 138.266 359.734 138.526C360.063 139.901 360.427 141.333 360.802 142.818Z" fill="#ADE970"/>
<path d="M912.427 211.094C901.146 214.01 889.156 214.01 879.979 213.292C884.979 211.62 889.109 209.755 892.75 207.693C898.323 208.687 904.932 209.838 912.427 211.094Z" fill="#ADE970"/>
<path d="M1055.17 226.802C1053.12 249.172 1050.25 280.26 1052.71 285.651C1055.17 291.042 1052.68 312.833 1051.47 331.667C1051.29 334.542 1050.81 337.078 1050.11 339.286C1049.76 268.823 1050.29 230.115 1050.32 203.208C1050.32 200.349 1050.37 197.604 1050.42 194.974C1053.48 204.344 1056.15 216.109 1055.17 226.802Z" fill="#ADE970"/>
<mask id="mask8_900_28950" style="mask-type:luminance" maskUnits="userSpaceOnUse" x="469" y="127" width="125" height="153">
<path d="M469 127H594V280H469V127Z" fill="white"/>
</mask>
<g mask="url(#mask8_900_28950)">
<path d="M580.551 186.125V173.573C580.551 147.897 558.531 127 531.477 127C504.423 127 482.392 147.893 482.392 173.573V186.125C474.984 186.316 469.03 192.044 469.03 199.122V266.968C469.03 267.394 469.053 267.819 469.097 268.245C469.14 268.67 469.207 269.091 469.294 269.51C469.381 269.928 469.49 270.341 469.621 270.75C469.752 271.159 469.903 271.561 470.075 271.955C470.248 272.349 470.439 272.734 470.651 273.111C470.864 273.487 471.094 273.852 471.345 274.208C471.594 274.562 471.861 274.905 472.147 275.236C472.432 275.565 472.734 275.881 473.051 276.183C473.37 276.485 473.703 276.771 474.05 277.041C474.399 277.313 474.758 277.567 475.133 277.803C475.506 278.041 475.892 278.261 476.289 278.462C476.686 278.662 477.092 278.845 477.507 279.008C477.922 279.172 478.346 279.315 478.775 279.439C479.206 279.563 479.641 279.666 480.083 279.75C480.524 279.833 480.968 279.895 481.415 279.938C481.863 279.979 482.313 280 482.762 280H580.184C580.633 280 581.083 279.979 581.529 279.938C581.978 279.897 582.422 279.833 582.863 279.75C583.305 279.666 583.74 279.563 584.17 279.439C584.6 279.315 585.024 279.172 585.439 279.009C585.854 278.845 586.26 278.662 586.657 278.462C587.054 278.261 587.44 278.041 587.813 277.805C588.188 277.567 588.547 277.313 588.896 277.043C589.243 276.771 589.576 276.486 589.895 276.183C590.212 275.882 590.514 275.566 590.8 275.236C591.085 274.906 591.352 274.564 591.603 274.209C591.852 273.854 592.084 273.487 592.295 273.112C592.507 272.736 592.7 272.351 592.872 271.955C593.043 271.561 593.194 271.159 593.325 270.752C593.456 270.343 593.566 269.929 593.653 269.511C593.74 269.092 593.807 268.67 593.851 268.246C593.894 267.821 593.918 267.396 593.918 266.968V199.122C593.918 192.044 587.961 186.314 580.551 186.125ZM542.706 223.67C542.645 224.073 542.407 224.995 542.386 225.065C541.547 227.823 539.543 230.086 536.941 231.464L541.35 249.299C541.413 249.484 541.454 249.673 541.471 249.864C541.488 250.058 541.482 250.25 541.452 250.442C541.421 250.634 541.368 250.82 541.292 251C541.217 251.179 541.119 251.348 541.003 251.506C540.884 251.664 540.749 251.807 540.595 251.936C540.443 252.064 540.276 252.174 540.096 252.265C539.915 252.355 539.727 252.426 539.529 252.475C539.332 252.524 539.131 252.55 538.927 252.555H524.319C524.115 252.55 523.914 252.524 523.717 252.475C523.519 252.426 523.331 252.355 523.151 252.265C522.97 252.174 522.804 252.064 522.651 251.936C522.497 251.807 522.362 251.664 522.244 251.506C522.127 251.348 522.029 251.179 521.954 250.998C521.878 250.82 521.825 250.634 521.794 250.442C521.764 250.25 521.758 250.058 521.775 249.864C521.792 249.673 521.834 249.484 521.898 249.299L526.007 231.464C523.404 230.086 521.4 227.823 520.563 225.065C520.54 224.995 520.301 224.073 520.24 223.67C520.164 223.171 520.125 222.67 520.123 222.168C520.123 221.815 520.142 221.462 520.178 221.111C520.215 220.76 520.269 220.411 520.341 220.066C520.414 219.72 520.504 219.378 520.612 219.039C520.719 218.703 520.843 218.371 520.987 218.044C521.128 217.718 521.287 217.399 521.463 217.088C521.637 216.778 521.828 216.475 522.035 216.181C522.242 215.887 522.463 215.605 522.698 215.332C522.934 215.059 523.183 214.798 523.446 214.548C523.709 214.299 523.984 214.062 524.272 213.838C524.559 213.615 524.857 213.404 525.167 213.208C525.475 213.013 525.794 212.831 526.122 212.664C526.45 212.499 526.785 212.347 527.129 212.212C527.472 212.078 527.822 211.958 528.177 211.857C528.533 211.753 528.894 211.668 529.258 211.6C529.622 211.53 529.991 211.479 530.36 211.445C530.73 211.409 531.102 211.392 531.474 211.392C531.846 211.392 532.216 211.409 532.586 211.445C532.956 211.479 533.324 211.53 533.688 211.6C534.053 211.668 534.413 211.753 534.769 211.857C535.125 211.958 535.474 212.078 535.817 212.212C536.161 212.347 536.497 212.499 536.825 212.664C537.152 212.831 537.471 213.013 537.781 213.208C538.089 213.404 538.387 213.615 538.675 213.838C538.963 214.062 539.237 214.299 539.5 214.548C539.763 214.798 540.013 215.059 540.248 215.332C540.485 215.605 540.705 215.887 540.912 216.181C541.118 216.475 541.309 216.778 541.485 217.088C541.659 217.399 541.818 217.718 541.961 218.044C542.103 218.371 542.227 218.703 542.336 219.039C542.443 219.378 542.533 219.72 542.605 220.066C542.678 220.411 542.733 220.76 542.768 221.111C542.806 221.462 542.823 221.815 542.823 222.168C542.823 222.67 542.784 223.171 542.706 223.67ZM563.794 186.09H499.15V173.573C499.15 156.656 513.647 142.895 531.477 142.895C549.307 142.895 563.794 156.656 563.794 173.573V186.09Z" fill="#346E00"/>
</g>
</svg>
