<svg width="1159" height="349" viewBox="0 0 1159 349" fill="none" xmlns="http://www.w3.org/2000/svg">
<rect width="1159" height="349" fill="black"/>
<mask id="mask0_737_46958" style="mask-type:luminance" maskUnits="userSpaceOnUse" x="517" y="98" width="125" height="153">
<path d="M517 98H642V251H517V98Z" fill="white"/>
</mask>
<g mask="url(#mask0_737_46958)">
<path d="M628.551 157.125V144.573C628.551 118.897 606.531 98 579.477 98C552.423 98 530.392 118.893 530.392 144.573V157.125C522.984 157.316 517.03 163.044 517.03 170.122V237.968C517.03 238.394 517.053 238.819 517.097 239.245C517.14 239.67 517.207 240.091 517.294 240.51C517.381 240.928 517.49 241.341 517.621 241.75C517.752 242.159 517.903 242.561 518.075 242.955C518.248 243.349 518.439 243.734 518.651 244.111C518.864 244.487 519.094 244.852 519.345 245.208C519.594 245.562 519.861 245.905 520.147 246.236C520.432 246.565 520.734 246.881 521.051 247.183C521.37 247.485 521.703 247.771 522.05 248.041C522.399 248.313 522.758 248.567 523.133 248.803C523.506 249.041 523.892 249.261 524.289 249.462C524.686 249.662 525.092 249.845 525.507 250.008C525.922 250.172 526.346 250.315 526.775 250.439C527.206 250.563 527.641 250.666 528.083 250.75C528.524 250.833 528.968 250.895 529.415 250.938C529.863 250.979 530.313 251 530.762 251H628.184C628.633 251 629.083 250.979 629.529 250.938C629.978 250.897 630.422 250.833 630.863 250.75C631.305 250.666 631.74 250.563 632.17 250.439C632.6 250.315 633.024 250.172 633.439 250.009C633.854 249.845 634.26 249.662 634.657 249.462C635.054 249.261 635.44 249.041 635.813 248.805C636.188 248.567 636.547 248.313 636.896 248.043C637.243 247.771 637.576 247.486 637.895 247.183C638.212 246.882 638.514 246.566 638.8 246.236C639.085 245.906 639.352 245.564 639.603 245.209C639.852 244.854 640.084 244.487 640.295 244.112C640.507 243.736 640.7 243.351 640.872 242.955C641.043 242.561 641.194 242.159 641.325 241.752C641.456 241.343 641.566 240.929 641.653 240.511C641.74 240.092 641.807 239.67 641.851 239.246C641.894 238.821 641.918 238.396 641.918 237.968V170.122C641.918 163.044 635.961 157.314 628.551 157.125ZM590.706 194.67C590.645 195.073 590.407 195.995 590.386 196.065C589.547 198.823 587.543 201.086 584.941 202.464L589.35 220.299C589.413 220.484 589.454 220.673 589.471 220.864C589.488 221.058 589.482 221.25 589.452 221.442C589.421 221.634 589.368 221.82 589.292 222C589.217 222.179 589.119 222.348 589.003 222.506C588.884 222.664 588.749 222.807 588.595 222.936C588.443 223.064 588.276 223.174 588.096 223.265C587.915 223.355 587.727 223.426 587.529 223.475C587.332 223.524 587.131 223.55 586.927 223.555H572.319C572.115 223.55 571.914 223.524 571.717 223.475C571.519 223.426 571.331 223.355 571.151 223.265C570.97 223.174 570.804 223.064 570.651 222.936C570.497 222.807 570.362 222.664 570.244 222.506C570.127 222.348 570.029 222.179 569.954 221.998C569.878 221.82 569.825 221.634 569.794 221.442C569.764 221.25 569.758 221.058 569.775 220.864C569.792 220.673 569.834 220.484 569.898 220.299L574.007 202.464C571.404 201.086 569.4 198.823 568.563 196.065C568.54 195.995 568.301 195.073 568.24 194.67C568.164 194.171 568.125 193.67 568.123 193.168C568.123 192.815 568.142 192.462 568.178 192.111C568.215 191.76 568.269 191.411 568.341 191.066C568.414 190.72 568.504 190.378 568.612 190.039C568.719 189.703 568.843 189.371 568.987 189.044C569.128 188.718 569.287 188.399 569.463 188.088C569.637 187.778 569.828 187.475 570.035 187.181C570.242 186.887 570.463 186.605 570.698 186.332C570.934 186.059 571.183 185.798 571.446 185.548C571.709 185.299 571.984 185.062 572.272 184.838C572.559 184.615 572.857 184.404 573.167 184.208C573.475 184.013 573.794 183.831 574.122 183.664C574.45 183.499 574.785 183.347 575.129 183.212C575.472 183.078 575.822 182.958 576.177 182.857C576.533 182.753 576.894 182.668 577.258 182.6C577.622 182.53 577.991 182.479 578.36 182.445C578.73 182.409 579.102 182.392 579.474 182.392C579.846 182.392 580.216 182.409 580.586 182.445C580.956 182.479 581.324 182.53 581.688 182.6C582.053 182.668 582.413 182.753 582.769 182.857C583.125 182.958 583.474 183.078 583.817 183.212C584.161 183.347 584.497 183.499 584.826 183.664C585.152 183.831 585.471 184.013 585.781 184.208C586.089 184.404 586.387 184.615 586.675 184.838C586.963 185.062 587.237 185.299 587.5 185.548C587.763 185.798 588.013 186.059 588.248 186.332C588.485 186.605 588.705 186.887 588.912 187.181C589.118 187.475 589.309 187.778 589.485 188.088C589.659 188.399 589.818 188.718 589.961 189.044C590.103 189.371 590.227 189.703 590.336 190.039C590.443 190.378 590.533 190.72 590.605 191.066C590.678 191.411 590.733 191.76 590.768 192.111C590.806 192.462 590.823 192.815 590.823 193.168C590.823 193.67 590.784 194.171 590.706 194.67ZM611.794 157.09H547.15V144.573C547.15 127.656 561.647 113.895 579.477 113.895C597.307 113.895 611.794 127.656 611.794 144.573V157.09Z" fill="#A6A6A6"/>
</g>
</svg>
