<svg width="209" height="204" viewBox="0 0 209 204" fill="none" xmlns="http://www.w3.org/2000/svg">
<mask id="mask0_877_26795" style="mask-type:luminance" maskUnits="userSpaceOnUse" x="0" y="0" width="209" height="204">
<path d="M0 0H208.799V203.986H0V0Z" fill="white"/>
</mask>
<g mask="url(#mask0_877_26795)">
<mask id="mask1_877_26795" style="mask-type:luminance" maskUnits="userSpaceOnUse" x="0" y="0" width="209" height="204">
<path d="M104.4 0C46.7414 0 0 45.6573 0 101.978C0 158.298 46.7414 203.953 104.4 203.953C162.058 203.953 208.799 158.298 208.799 101.978C208.799 45.6573 162.058 0 104.4 0Z" fill="white"/>
</mask>
<g mask="url(#mask1_877_26795)">
<mask id="mask2_877_26795" style="mask-type:luminance" maskUnits="userSpaceOnUse" x="-1" y="-1" width="211" height="206">
<path d="M209.318 -0.0219727H-0.415039V204H209.318V-0.0219727Z" fill="white"/>
</mask>
<g mask="url(#mask2_877_26795)">
<mask id="mask3_877_26795" style="mask-type:luminance" maskUnits="userSpaceOnUse" x="0" y="0" width="209" height="204">
<path d="M0 0H208.799V203.986H0V0Z" fill="white"/>
</mask>
<g mask="url(#mask3_877_26795)">
<mask id="mask4_877_26795" style="mask-type:luminance" maskUnits="userSpaceOnUse" x="0" y="0" width="209" height="204">
<path d="M104.4 0C46.7414 0 0 45.6573 0 101.978C0 158.298 46.7414 203.953 104.4 203.953C162.058 203.953 208.799 158.298 208.799 101.978C208.799 45.6573 162.058 0 104.4 0Z" fill="white"/>
</mask>
<g mask="url(#mask4_877_26795)">
<path d="M0 0H208.799V203.986H0V0Z" fill="#5581D5"/>
</g>
</g>
</g>
</g>
</g>
<mask id="mask5_877_26795" style="mask-type:luminance" maskUnits="userSpaceOnUse" x="0" y="0" width="209" height="204">
<path d="M0 0H209V204H0V0Z" fill="white"/>
</mask>
<g mask="url(#mask5_877_26795)">
<mask id="mask6_877_26795" style="mask-type:luminance" maskUnits="userSpaceOnUse" x="0" y="0" width="209" height="204">
<path d="M104.397 0C46.7414 0 0 45.6573 0 101.975C0 158.295 46.7414 203.95 104.397 203.95C162.052 203.95 208.794 158.295 208.794 101.975C208.794 45.6573 162.052 0 104.397 0Z" fill="white"/>
</mask>
<g mask="url(#mask6_877_26795)">
<path d="M104.397 0C46.7414 0 0 45.6573 0 101.975C0 158.296 46.7414 203.95 104.397 203.95C162.052 203.95 208.794 158.296 208.794 101.975C208.794 45.6573 162.052 0 104.397 0Z" stroke="#4383D6" stroke-width="70"/>
</g>
</g>
<mask id="mask7_877_26795" style="mask-type:luminance" maskUnits="userSpaceOnUse" x="6" y="6" width="197" height="192">
<path d="M6.18457 6.76978H202.612V197.183H6.18457V6.76978Z" fill="white"/>
</mask>
<g mask="url(#mask7_877_26795)">
<mask id="mask8_877_26795" style="mask-type:luminance" maskUnits="userSpaceOnUse" x="6" y="6" width="197" height="192">
<path d="M104.4 6.76978C50.1559 6.76978 6.18457 49.3947 6.18457 101.978C6.18457 154.558 50.1559 197.183 104.4 197.183C158.641 197.183 202.612 154.558 202.612 101.978C202.612 49.3947 158.641 6.76978 104.4 6.76978Z" fill="white"/>
</mask>
<g mask="url(#mask8_877_26795)">
<mask id="mask9_877_26795" style="mask-type:luminance" maskUnits="userSpaceOnUse" x="6" y="6" width="197" height="192">
<path d="M202.718 6.37573H6.18457V197.602H202.718V6.37573Z" fill="white"/>
</mask>
<g mask="url(#mask9_877_26795)">
<mask id="mask10_877_26795" style="mask-type:luminance" maskUnits="userSpaceOnUse" x="6" y="6" width="197" height="192">
<path d="M6.18457 6.76978H202.612V197.183H6.18457V6.76978Z" fill="white"/>
</mask>
<g mask="url(#mask10_877_26795)">
<mask id="mask11_877_26795" style="mask-type:luminance" maskUnits="userSpaceOnUse" x="6" y="6" width="197" height="192">
<path d="M104.4 6.76978C50.1559 6.76978 6.18457 49.3947 6.18457 101.978C6.18457 154.558 50.1559 197.183 104.4 197.183C158.641 197.183 202.612 154.558 202.612 101.978C202.612 49.3947 158.641 6.76978 104.4 6.76978Z" fill="white"/>
</mask>
<g mask="url(#mask11_877_26795)">
<path d="M6.18457 6.76978H202.612V197.183H6.18457V6.76978Z" fill="white"/>
</g>
</g>
</g>
</g>
</g>
<mask id="mask12_877_26795" style="mask-type:luminance" maskUnits="userSpaceOnUse" x="6" y="6" width="197" height="192">
<path d="M6.18457 6.76978H202.535V197.108H6.18457V6.76978Z" fill="white"/>
</mask>
<g mask="url(#mask12_877_26795)">
<mask id="mask13_877_26795" style="mask-type:luminance" maskUnits="userSpaceOnUse" x="6" y="6" width="197" height="192">
<path d="M104.4 6.76978C50.1559 6.76978 6.18457 49.3947 6.18457 101.978C6.18457 154.558 50.1559 197.183 104.4 197.183C158.641 197.183 202.612 154.558 202.612 101.978C202.612 49.3947 158.641 6.76978 104.4 6.76978Z" fill="white"/>
</mask>
<g mask="url(#mask13_877_26795)">
<path d="M104.4 6.76978C50.1559 6.76978 6.18457 49.3947 6.18457 101.978C6.18457 154.558 50.1559 197.183 104.4 197.183C158.641 197.183 202.612 154.558 202.612 101.978C202.612 49.3947 158.641 6.76978 104.4 6.76978Z" stroke="#5CA3FF" stroke-width="26"/>
</g>
</g>
<mask id="mask14_877_26795" style="mask-type:luminance" maskUnits="userSpaceOnUse" x="69" y="49" width="12" height="30">
<path d="M69.251 49.3367H80.9843V78.8853H69.251V49.3367Z" fill="white"/>
</mask>
<g mask="url(#mask14_877_26795)">
<path d="M69.4883 49.3533C69.4883 49.3533 74.444 55.6318 75.4896 58.9474C76.538 62.2602 80.7747 77.0248 80.7747 77.0248L74.0201 78.8325L69.4883 49.3533Z" fill="#EFD7A5"/>
</g>
<mask id="mask15_877_26795" style="mask-type:luminance" maskUnits="userSpaceOnUse" x="41" y="49" width="106" height="30">
<path d="M41.3838 49.3367H146.984V78.8853H41.3838V49.3367Z" fill="white"/>
</mask>
<g mask="url(#mask15_877_26795)">
<path d="M77.4867 71.7904C77.4551 72.3458 77.4064 72.8373 77.4064 73.1705C77.4064 74.4868 76.2434 75.6281 75.0002 76.8166C74.6249 77.1831 74.2325 77.5636 73.8715 77.9606L73.7742 77.8635C73.757 77.8968 73.7255 77.9107 73.7083 77.944L73.6109 77.8496C73.5937 77.8801 73.5622 77.8968 73.545 77.9273L73.4476 77.8329C73.4304 77.8635 73.3989 77.8801 73.3817 77.9107L73.2843 77.8163C73.2671 77.8496 73.2327 77.8635 73.2184 77.8968L73.1182 77.7996C73.1038 77.8329 73.0695 77.8496 73.0551 77.8801L72.9549 77.7857C72.9406 77.8163 72.9062 77.8329 72.8919 77.8635L72.7916 77.769C72.7773 77.7996 72.7429 77.8163 72.7257 77.8496L72.6283 77.7524C72.6111 77.7857 72.5796 77.7996 72.5624 77.8329L72.465 77.7385L72.3992 77.8163L72.3018 77.7218L72.2846 77.7385L72.2359 77.7996L72.1385 77.7052C72.1213 77.7385 72.0898 77.7524 72.0726 77.7857L71.9752 77.6885C71.958 77.7218 71.9265 77.7385 71.9093 77.769L71.8119 77.6746C71.7947 77.7052 71.7632 77.7218 71.746 77.7524L71.6486 77.658C71.6314 77.6885 71.5971 77.7052 71.5827 77.7385L71.4825 77.6413C71.4682 77.6746 71.4338 77.6885 71.4195 77.7218L71.3192 77.6274C71.2877 77.658 71.2705 77.6746 71.2533 77.7052L71.1559 77.6108C71.1416 77.6413 71.1072 77.658 71.09 77.6885L70.9926 77.5941C70.9755 77.6274 70.9439 77.6413 70.9268 77.6746L70.8294 77.5802C70.8122 77.6108 70.7807 77.6274 70.7635 77.658L70.6661 77.5636C70.6489 77.5941 70.6174 77.6108 70.6002 77.6413L70.5028 77.5469C70.4856 77.5802 70.4541 77.5941 70.4369 77.6274L70.3395 77.5302C70.3223 77.5636 70.2908 77.5802 70.2736 77.6108L70.1762 77.5163C70.159 77.5469 70.1247 77.5636 70.1103 77.5941L70.0101 77.4997C69.9958 77.5302 69.9614 77.5469 69.9471 77.5802L69.8468 77.483C69.8325 77.5163 69.7981 77.5302 69.7838 77.5636L69.6835 77.4691C69.6692 77.4997 69.6348 77.5163 69.6176 77.5469L69.5202 77.4525C69.5031 77.483 69.4715 77.4997 69.4544 77.5302L69.357 77.4358C69.3398 77.4691 69.3083 77.483 69.2911 77.5163L69.1937 77.4192C69.1765 77.4525 69.145 77.4691 69.1278 77.4997L69.0304 77.4053C69.0132 77.4358 68.9817 77.4525 68.9645 77.483L68.8499 77.3886C68.8327 77.4192 68.8012 77.4358 68.784 77.4691L68.6695 77.372C68.6551 77.4053 68.6208 77.4192 68.6036 77.4525L68.489 77.3581C68.4747 77.3886 68.4403 77.4053 68.426 77.4358L68.3114 77.3414C68.2942 77.372 68.2598 77.3886 68.2455 77.4192L68.1309 77.3247C68.1137 77.3581 68.0822 77.372 68.065 77.4053L67.9505 77.3081C67.9333 77.3414 67.9018 77.3581 67.8846 77.3886L67.77 77.2942C67.7528 77.3247 67.7213 77.3581 67.7041 77.372L67.5895 77.2775C67.5752 77.3081 67.5408 77.3414 67.5265 77.3581L67.4119 77.2609C67.3947 77.2942 67.3603 77.3247 67.346 77.3414L67.2314 77.247C67.2143 77.2775 67.1827 77.3081 67.1656 77.3247L67.051 77.2303C67.0338 77.2609 67.0023 77.2942 66.9851 77.3081L66.8705 77.2137C66.8533 77.247 66.8218 77.2775 66.8046 77.2942L66.69 77.197C66.6757 77.2303 66.6413 77.2609 66.6242 77.2775L66.5096 77.1831C66.4952 77.2137 66.4609 77.247 66.4465 77.2609L66.332 77.1665C66.3148 77.197 66.2833 77.2303 66.2661 77.247L66.1515 77.1498C66.1343 77.1831 66.1028 77.2137 66.0856 77.2303L65.971 77.1359C65.9538 77.1665 65.9223 77.197 65.9051 77.2137L65.7906 77.1193C65.7762 77.1498 65.7419 77.1831 65.7419 77.197L65.6273 77.1026C65.6101 77.1359 65.5786 77.1665 65.5786 77.1831L65.464 77.0721C65.4468 77.1193 65.4153 77.1498 65.4153 77.1498L65.3007 77.0387C65.2835 77.0859 65.252 77.1193 65.252 77.1193L65.1374 77.0082C65.1202 77.0554 65.1031 77.0859 65.0887 77.0859L64.9742 76.9749C64.957 77.0248 64.9398 77.0554 64.9255 77.0721L64.8109 76.961C64.7937 77.0082 64.7765 77.0387 64.7593 77.0554L64.6304 76.9443C64.6132 76.9915 64.596 77.0248 64.5817 77.0387L64.4671 76.9277C64.4671 76.9443 64.4499 76.961 64.4499 76.961L64.1377 76.8499C64.1549 76.8027 66.2317 71.41 66.1515 68.8581C66.1028 66.9559 61.5051 62.1491 58.4801 58.978C57.4317 57.8839 56.5322 56.9481 55.9765 56.2983C53.7679 53.713 51.4619 51.3027 51.4304 51.2888L51.6739 51.0667C51.6739 51.0667 51.7226 51.1139 51.8057 51.2083L52.0005 51.0333C52.0005 51.0333 52.052 51.0833 52.1322 51.1777L52.3299 51.0195C52.3299 51.0195 52.3786 51.0667 52.4588 51.1611L52.6564 51.0028C52.6564 51.0028 52.7051 51.05 52.771 51.1444L52.9658 50.9861C52.9658 50.9861 53.0145 51.0333 53.0804 51.1305L53.2952 50.9722C53.2952 50.9722 53.3439 51.0195 53.407 51.0972L53.6218 50.9389C53.6218 50.9389 53.6705 50.9861 53.7364 51.0667L53.9484 50.9084C53.9484 50.9084 53.9971 50.9556 54.063 51.0333L54.2749 50.8751C54.2749 50.8751 54.3236 50.9223 54.3723 51.0028L54.5872 50.8445C54.5872 50.8445 54.6187 50.8917 54.6846 50.9722L54.8965 50.8112C54.8965 50.8112 54.9309 50.8612 54.9939 50.9389L55.2088 50.7806C55.2088 50.7806 55.2403 50.8278 55.3062 50.9084L55.5354 50.7501C55.5354 50.7501 55.5669 50.7973 55.6327 50.8751L55.8619 50.7168C55.8619 50.7168 55.8934 50.764 55.9593 50.8445L56.1885 50.6862C56.1885 50.6862 56.2229 50.7334 56.2887 50.8112L56.515 50.6529C56.515 50.6529 56.5494 50.7001 56.6153 50.7806L56.8445 50.6224C56.8445 50.6224 56.876 50.6696 56.9419 50.7501L57.171 50.589C57.171 50.589 57.2025 50.639 57.2512 50.7168L57.4804 50.5585C57.4804 50.5585 57.5148 50.6057 57.5635 50.6862L57.7926 50.5279C57.7926 50.5279 57.8242 50.5752 57.8729 50.6529L58.102 50.4946C58.102 50.4946 58.1364 50.5418 58.1851 50.6224L58.4143 50.4641C58.4143 50.4641 58.4458 50.5113 58.4945 50.589L58.7236 50.4308C58.7236 50.4308 58.758 50.4807 58.8067 50.5585L59.0531 50.4002C59.0531 50.4002 59.0846 50.4474 59.1333 50.5279L59.3796 50.3697C59.3796 50.3697 59.4111 50.4169 59.4598 50.4946L59.7062 50.353C59.7062 50.353 59.7377 50.4002 59.7893 50.4807L60.0327 50.3363C60.0327 50.3363 60.0671 50.3836 60.1158 50.4641L60.3593 50.3197C60.3593 50.3197 60.3937 50.3697 60.4424 50.4474L60.6887 50.3058C60.6887 50.3058 60.7202 50.353 60.7689 50.4308L60.8176 50.1475C60.8176 50.1475 60.852 50.1947 60.9007 50.2725L61.1442 50.1309C61.1442 50.1309 61.1786 50.1781 61.2273 50.2419L61.4736 50.0975C61.4736 50.0975 61.5051 50.1475 61.5538 50.2086L61.8002 50.067C61.8002 50.067 61.8317 50.1142 61.8804 50.1781L62.1268 50.0364C62.1268 50.0364 62.1611 50.0836 62.2098 50.1475L62.4533 50.0031C62.4533 50.0031 62.4877 50.0503 62.5364 50.1142L62.7827 49.9726C62.7827 49.9726 62.8143 50.0198 62.8458 50.0836L63.0921 49.9393C63.0921 49.9393 63.1236 49.9892 63.158 50.0503L63.4044 49.9087C63.4044 49.9087 63.4359 49.9559 63.4674 50.0198L63.7137 49.8782C63.7137 49.8782 63.7452 49.9254 63.7796 49.9892L64.026 49.8448C64.026 49.8448 64.0575 49.892 64.089 49.9559L64.3354 49.8143C64.3354 49.8143 64.3669 49.8615 64.4012 49.9254L64.6447 49.781C64.6447 49.781 64.6791 49.8282 64.7106 49.892L64.957 49.7504C64.957 49.7504 64.9885 49.7976 65.0229 49.8615L65.2663 49.7171C65.2663 49.7171 65.3007 49.7671 65.3322 49.8282L65.5786 49.6866C65.5786 49.6866 65.6101 49.7338 65.6445 49.7976L65.888 49.656C65.888 49.656 65.9223 49.7032 65.9538 49.7671L66.2002 49.6227C66.2002 49.6227 66.2317 49.6699 66.2661 49.7338L66.5268 49.5921C66.5268 49.5921 66.5611 49.6393 66.5926 49.7032L66.8533 49.5588C66.8533 49.5588 66.8877 49.606 66.9192 49.6699L67.1827 49.5283C67.1827 49.5283 67.2143 49.5755 67.2458 49.6393L67.5093 49.495C67.5093 49.495 67.5408 49.5449 67.5752 49.606L67.8359 49.4644C67.8359 49.4644 67.8674 49.5116 67.9018 49.5755L68.1624 49.4339C68.1624 49.4339 68.1968 49.4811 68.2283 49.5449L68.489 49.4005C68.489 49.4005 68.5234 49.4477 68.5549 49.5116L68.8184 49.37C68.8184 49.37 68.8499 49.4172 68.8814 49.4811L69.145 49.3367C69.145 49.3367 69.1765 49.3867 69.2109 49.4477L69.4887 49.3533C69.5546 49.4477 75.3926 59.5167 76.7676 63.2127C77.8791 66.1784 77.6356 69.6828 77.4867 71.7904ZM60.9981 64.4012C57.3171 59.7083 45.7041 53.9046 45.7041 53.9046L45.4749 54.0629L45.4434 56.6648L42.7908 55.0154L41.4502 55.1403C41.4502 55.1403 48.6976 61.7854 50.7916 63.3238C52.8856 64.8622 63.7452 73.5038 63.1408 74.6451C62.4046 76.0252 63.9257 76.7555 63.9257 76.7555C65.9882 72.9179 64.6791 69.0802 60.9981 64.4012ZM81.0531 78.1828L146.076 67.6696C146.076 67.6696 146.712 67.1614 146.42 66.5255C146.125 65.8924 143.868 65.3537 143.868 65.3537C143.868 65.3537 143.426 64.5595 143.048 64.1318C142.673 63.7042 142.246 63.7514 142.246 63.7514C142.246 63.7514 142.361 63.4654 142.232 63.2127C142.1 62.96 142.281 62.5296 142.232 62.2935C142.183 62.0714 141.84 62.0075 141.84 61.5327C141.84 61.0412 141.676 60.9134 141.413 60.6108C141.152 60.3109 141.069 60.4858 141.069 60.3109C141.069 60.1359 140.711 60.1054 140.711 59.9304C140.711 59.7555 140.482 59.5972 140.187 59.3917C139.892 59.1862 139.68 59.3917 139.68 59.3112C139.68 59.2334 139.548 58.8197 139.319 58.6447C139.09 58.4726 138.582 58.4393 138.582 58.4393C138.582 58.4393 138.273 58.1393 137.846 57.9311C137.422 57.7256 137.291 57.7728 137.21 57.5034C137.127 57.2174 136.818 56.9647 136.474 56.7592C136.13 56.5538 135.867 56.7898 135.769 56.5371C135.672 56.2844 135.509 56.3622 135.082 56.3149C134.773 55.6957 134.314 55.5707 133.824 55.2986C133.332 55.0293 133.186 55.3791 132.988 55.0459C132.776 54.7127 131.908 54.5877 131.387 54.3017C130.862 54.0157 130.487 54.2545 130.487 54.2545C130.487 54.2545 130.616 54.0934 130.487 53.5881C130.355 53.0799 129.651 52.9688 129.046 52.7467C128.442 52.5245 128.001 52.6995 128.001 52.6995C128.001 52.6995 128.001 52.5717 128.001 52.1913C128.001 51.8109 127.82 51.6859 127.476 51.3999C127.035 50.5585 126.087 50.8445 125.365 50.9084C124.663 50.9861 119.264 53.0493 110.12 56.712C100.976 60.3747 81.1018 71.9959 78.6812 73.6315C76.2606 75.2643 73.7083 77.944 73.7083 77.944L81.0531 78.1828Z" fill="#FBE1A8"/>
</g>
<path d="M84.4217 76.3512C84.4217 76.3512 89.1176 73.6365 91.7359 72.6605C94.3514 71.6873 101.387 69.2487 104.623 68.5515C107.856 67.8515 115.819 66.4059 120.728 65.723C125.635 65.0401 137.807 63.8392 139.58 63.6913C141.35 63.5461 141.433 63.4807 142.116 63.6913C142.796 63.9047 142.896 63.8222 143.365 64.5051C143.838 65.188 144 65.4953 144 65.4953L139.37 65.9336L119.331 68.4519L104.395 70.956L90.7598 74.8231L88.9383 76.041L84.4217 76.3512ZM52 51L53.5596 57.8749C53.5596 57.8749 67.34 66.9893 64.6932 77C65.7149 76.3028 68.3475 72.5154 67.9263 68.6169C67.5022 64.7327 52 51 52 51Z" fill="#EFD7A5"/>
<mask id="mask16_877_26795" style="mask-type:luminance" maskUnits="userSpaceOnUse" x="36" y="51" width="136" height="104">
<path d="M36.9844 51.8718H171.694V154.369H36.9844V51.8718Z" fill="white"/>
</mask>
<g mask="url(#mask16_877_26795)">
<path d="M37.1651 52.4939C37.1651 52.4939 36.9531 51.9385 37.3284 51.9052C37.6893 51.8746 38.7206 51.9052 38.7206 51.9052L40.2904 53.2381V53.824L63.8115 74.0118L64.3185 75.0893C64.3185 75.0893 64.3185 75.5169 64.1724 75.8973C64.138 76.0556 64.138 76.0723 64.1237 76.1528C64.1065 76.2139 64.1065 76.2472 64.0578 76.4055C64.7453 76.7054 68.7357 77.2774 70.6664 77.3246C72.5972 77.358 80.6294 77.4052 81.2339 77.1664C81.8383 76.9276 82.0016 76.8665 82.4914 76.2139C82.9841 75.5641 82.7063 75.3281 83.2276 75.2309C83.7518 75.1365 85.6511 75.4697 85.6511 75.4697L148.678 66.6698L148.955 67.2085L171.838 146.683L171.282 147.207L110.776 153.264C110.776 153.264 109.825 153.122 109.092 153.264C108.37 153.405 107.356 153.772 107.356 153.772C107.356 153.772 105.165 154.263 103.727 154.438C102.286 154.611 100.487 154.388 99.3896 154.277C98.2781 154.183 89.9021 153.516 88.8737 153.136C87.8425 152.756 87.5302 152.264 87.3498 151.537C87.1721 150.806 87.1378 150.409 86.9258 150.076C86.7138 149.743 86.7453 149.854 86.2727 149.396C85.7971 148.935 86.3042 149.14 84.7659 147.888C83.2448 146.635 63.9261 127.703 63.9261 127.703L37.1651 52.4939ZM64.3185 75.0893C64.3185 75.0893 64.3042 75.5169 64.1724 75.8973C64.1552 75.9445 64.1552 75.9612 64.1237 76.1528" fill="#4383D6"/>
</g>
<mask id="mask17_877_26795" style="mask-type:luminance" maskUnits="userSpaceOnUse" x="36" y="52" width="136" height="103">
<path d="M36.9844 52.5828H171.694V154.369H36.9844V52.5828Z" fill="white"/>
</mask>
<g mask="url(#mask17_877_26795)">
<path d="M37.248 52.73L62.0124 74.6922L86.1408 149.315L63.9259 127.703L37.248 52.73ZM111.544 153.183L171.282 147.207L148.594 67.6529L86.1236 75.3754L111.544 153.183ZM87.6132 152.186C87.891 152.994 88.315 152.867 88.8077 153.136C89.2975 153.405 94.0585 153.819 96.5105 154.089C98.9655 154.358 101.844 154.5 103.168 154.5C104.494 154.5 107.356 153.772 107.356 153.772L82.772 76.0085C82.772 76.0085 81.8553 77.1664 81.2337 77.5802C80.6121 77.9912 70.6491 78.055 70.6491 78.055C70.6491 78.055 64.3184 77.8329 63.5163 76.8971C62.7658 76.0085 62.6684 75.4698 62.6684 75.4698C62.6684 75.4698 87.3353 151.362 87.6132 152.186Z" fill="#6FA6FF"/>
</g>
<path d="M91.5742 67.4776L80.5324 72.786L78 74C78 74 82.8979 70.8629 86.2015 68.8957C87.8936 67.9025 93.5972 64.8785 99.7584 61.6311C106.363 58.1657 112.15 55.975 117.258 53.9747C119.099 53.2656 124.095 51.1549 124.915 51.1218C125.738 51.0914 126.478 50.7907 126.84 51.2653C127.249 51.8005 127.465 52.7607 127.413 52.8573C127.381 52.9345 124.72 53.6436 124.72 53.6436L121.071 55.0148L115.977 56.8579L96.5209 65.0965L95.5684 65.5545C100.861 63.35 106.858 60.8448 108.253 60.3095C110.866 59.2997 121.629 54.9348 124.228 54.0685C126.84 53.1856 127.514 52.8573 128.138 52.9042C128.763 52.9511 129.946 53.0918 130.127 53.834C130.141 54.0381 130.141 54.1485 130.127 54.212C130.078 54.1788 129.879 54.1485 129.189 54.2423C128.023 54.3996 127.2 54.5568 126.576 54.761C125.951 54.9679 123.52 55.8481 122.239 56.3061C121.284 56.6372 100.958 64.0591 91.5742 67.4776ZM130.141 54.1954C130.141 54.2257 130.141 54.2423 130.141 54.2423C130.141 54.2423 130.176 54.212 130.141 54.1954ZM134.432 56.0688C134.464 56.1323 134.481 56.1792 134.481 56.1792C134.481 56.1792 134.498 56.1323 134.432 56.0688ZM119.215 59.6611C125.592 57.6608 129.897 56.731 130.141 56.6537C130.849 56.433 131.327 56.3392 131.934 56.1019C132.541 55.8812 132.607 55.9584 133.068 55.9115C133.528 55.8646 133.594 55.8812 134.052 55.9446C134.251 55.975 134.348 56.0219 134.397 56.0688C134.366 56.0081 134.317 55.9115 134.251 55.8177C134.104 55.6439 133.724 55.3928 132.803 55.3294C131.885 55.2659 130.619 56.0081 130.619 56.0081L123.781 57.8981C123.781 57.8981 112.297 61.2697 104.901 63.3638C97.508 65.4607 90.6044 69.0364 90.6044 69.0364C90.6044 69.0364 101.073 65.113 111.606 61.8049C113.709 61.1758 117.31 60.2598 119.215 59.6611ZM113.727 61.9153L98.1814 66.9423C98.1814 66.9423 108.599 63.8383 111.92 62.9554C115.238 62.0725 129.171 58.8417 129.171 58.8417C129.171 58.8417 135.203 57.2524 135.712 57.3628C136.222 57.4566 136.584 57.567 136.682 57.6442C136.78 57.7242 137.209 57.7077 136.682 57.3628C136.156 57.0152 136.518 57.1421 135.862 56.9683C135.203 56.7944 134.348 56.9683 133.379 57.189C132.394 57.4097 113.727 61.9153 113.727 61.9153ZM141.744 61.4104C141.479 60.7178 141.35 60.5771 140.987 60.4668C140.38 60.2764 139.543 60.1991 138.21 60.4668C136.881 60.7344 133.741 61.2697 132.196 61.5538C130.651 61.8215 118.458 63.8853 116.518 64.3267C114.581 64.7682 107.433 66.2801 104.44 67.163C101.45 68.0432 95.0418 70.2808 95.0418 70.2808C95.0418 70.2808 104.095 67.6514 105.131 67.3975C106.167 67.1465 119.692 64.1363 124.866 63.4742C130.043 62.812 138.573 61.4573 140.003 61.9318C141.43 62.4036 141.695 62.3871 141.877 62.892C142.072 62.3402 142.041 62.1995 141.744 61.4104Z" fill="#EFD7A5"/>
</svg>
