<svg width="538" height="277" viewBox="0 0 538 277" fill="none" xmlns="http://www.w3.org/2000/svg">
<path d="M270.552 36.5345L273.822 58.3355L294.141 68.2049C301.514 71.7861 301.53 82.0183 294.156 85.5069L273.903 95.114L270.679 116.86C269.503 124.757 259.518 127.86 253.767 122.098L237.937 106.232L215.621 109.813C207.52 111.113 201.335 102.803 205.142 95.7526L215.638 76.3484L205.096 56.8231C201.249 49.7206 207.425 41.4826 215.525 42.8851L237.842 46.7472L253.606 31.0767C259.353 25.3994 269.334 28.6143 270.552 36.5345Z" fill="#F7C23C"/>
<path d="M265.669 35.9045L268.94 57.7055L289.258 67.5749C296.632 71.1561 296.647 81.3883 289.274 84.8769L269.021 94.484L265.796 116.23C264.62 124.127 254.635 127.23 248.884 121.468L233.054 105.602L210.738 109.183C202.637 110.483 196.452 102.173 200.259 95.1226L210.755 75.7184L200.213 56.1931C196.366 49.0906 202.542 40.8526 210.642 42.2551L232.959 46.1172L248.723 30.4467C254.47 24.7694 264.452 27.9843 265.669 35.9045Z" fill="#FFD058"/>
<g filter="url(#filter0_d_577_42499)">
<mask id="mask0_577_42499" style="mask-type:luminance" maskUnits="userSpaceOnUse" x="125" y="10" width="88" height="87">
<path d="M125.44 22.6393L199.874 10.1898L212.277 84.3463L137.844 96.7957L125.44 22.6393Z" fill="white"/>
</mask>
<g mask="url(#mask0_577_42499)">
<mask id="mask1_577_42499" style="mask-type:luminance" maskUnits="userSpaceOnUse" x="131" y="14" width="80" height="76">
<path d="M135.006 14.0256L210.406 17.9322L206.559 89.9757L131.162 86.0685L135.006 14.0256Z" fill="white"/>
</mask>
<g mask="url(#mask1_577_42499)">
<mask id="mask2_577_42499" style="mask-type:luminance" maskUnits="userSpaceOnUse" x="132" y="15" width="76" height="74">
<path d="M172.754 15.9827C187.145 16.7287 199.431 26.5674 203.254 40.4069L206.977 53.8778C209.322 62.3665 207.43 71.4691 201.887 78.3377C196.344 85.2063 187.827 89.0061 179.002 88.5484L158.815 87.5001C149.986 87.043 141.922 82.3872 137.142 74.982C132.363 67.5768 131.446 58.3309 134.684 50.1311L139.818 37.1196C145.097 23.7511 158.364 15.2367 172.754 15.9827Z" fill="white"/>
</mask>
<g mask="url(#mask2_577_42499)">
<mask id="mask3_577_42499" style="mask-type:luminance" maskUnits="userSpaceOnUse" x="125" y="10" width="88" height="87">
<path d="M199.873 10.1896L125.439 22.639L137.843 96.7955L212.276 84.346L199.873 10.1896Z" fill="white"/>
</mask>
<g mask="url(#mask3_577_42499)">
<mask id="mask4_577_42499" style="mask-type:luminance" maskUnits="userSpaceOnUse" x="131" y="14" width="80" height="76">
<path d="M135.005 14.0252L210.405 17.9319L206.558 89.9754L131.161 86.0681L135.005 14.0252Z" fill="white"/>
</mask>
<g mask="url(#mask4_577_42499)">
<mask id="mask5_577_42499" style="mask-type:luminance" maskUnits="userSpaceOnUse" x="132" y="15" width="76" height="74">
<path d="M172.753 15.9818C187.144 16.7278 199.43 26.5664 203.253 40.4059L206.976 53.8769C209.321 62.3655 207.429 71.4681 201.886 78.3367C196.343 85.2053 187.826 89.0051 179.001 88.5474L158.814 87.4991C149.985 87.042 141.921 82.3863 137.141 74.981C132.362 67.5758 131.445 58.3299 134.683 50.1302L139.817 37.1186C145.096 23.7501 158.363 15.2357 172.753 15.9818Z" fill="white"/>
</mask>
<g mask="url(#mask5_577_42499)">
<path d="M124.559 13.4835L220.856 18.4739L217.008 90.5174L120.712 85.527L124.559 13.4835Z" fill="#AD6747"/>
</g>
</g>
</g>
</g>
</g>
</g>
<mask id="mask6_577_42499" style="mask-type:luminance" maskUnits="userSpaceOnUse" x="147" y="180" width="30" height="13">
<path d="M147.61 184.926L175.088 180.33L176.318 187.685L148.84 192.28L147.61 184.926Z" fill="white"/>
</mask>
<g mask="url(#mask6_577_42499)">
<mask id="mask7_577_42499" style="mask-type:luminance" maskUnits="userSpaceOnUse" x="148" y="180" width="28" height="12">
<path d="M151.301 184.308L171.398 180.947C173.433 180.607 175.364 181.976 175.703 184.007C176.043 186.038 174.663 187.961 172.628 188.301L152.531 191.663C150.493 192.004 148.565 190.634 148.225 188.603C147.886 186.572 149.263 184.649 151.301 184.308Z" fill="white"/>
</mask>
<g mask="url(#mask7_577_42499)">
<mask id="mask8_577_42499" style="mask-type:luminance" maskUnits="userSpaceOnUse" x="147" y="180" width="30" height="13">
<path d="M175.206 180.232L147.185 184.919L148.498 192.77L176.52 188.084L175.206 180.232Z" fill="white"/>
</mask>
<g mask="url(#mask8_577_42499)">
<mask id="mask9_577_42499" style="mask-type:luminance" maskUnits="userSpaceOnUse" x="147" y="180" width="30" height="13">
<path d="M147.611 184.928L175.089 180.332L176.319 187.686L148.841 192.282L147.611 184.928Z" fill="white"/>
</mask>
<g mask="url(#mask9_577_42499)">
<mask id="mask10_577_42499" style="mask-type:luminance" maskUnits="userSpaceOnUse" x="148" y="180" width="28" height="12">
<path d="M151.302 184.31L171.398 180.949C173.434 180.608 175.365 181.977 175.704 184.009C176.044 186.04 174.664 187.963 172.629 188.303L152.532 191.664C150.494 192.005 148.566 190.636 148.226 188.605C147.887 186.573 149.263 184.651 151.302 184.31Z" fill="white"/>
</mask>
<g mask="url(#mask10_577_42499)">
<path d="M147.611 184.927L175.089 180.331L176.319 187.686L148.841 192.282L147.611 184.927Z" fill="#AD6747"/>
</g>
</g>
</g>
</g>
</g>
<mask id="mask11_577_42499" style="mask-type:luminance" maskUnits="userSpaceOnUse" x="198" y="171" width="30" height="13">
<path d="M198.499 176.416L225.977 171.82L227.207 179.174L199.729 183.77L198.499 176.416Z" fill="white"/>
</mask>
<g mask="url(#mask11_577_42499)">
<mask id="mask12_577_42499" style="mask-type:luminance" maskUnits="userSpaceOnUse" x="199" y="172" width="28" height="12">
<path d="M202.191 175.798L222.287 172.437C224.326 172.096 226.253 173.466 226.593 175.497C226.933 177.528 225.556 179.451 223.517 179.792L203.421 183.153C201.382 183.494 199.455 182.124 199.115 180.093C198.775 178.062 200.152 176.139 202.191 175.798Z" fill="white"/>
</mask>
<g mask="url(#mask12_577_42499)">
<mask id="mask13_577_42499" style="mask-type:luminance" maskUnits="userSpaceOnUse" x="197" y="171" width="31" height="14">
<path d="M225.996 171.737L197.974 176.424L199.287 184.275L227.309 179.589L225.996 171.737Z" fill="white"/>
</mask>
<g mask="url(#mask13_577_42499)">
<mask id="mask14_577_42499" style="mask-type:luminance" maskUnits="userSpaceOnUse" x="198" y="171" width="30" height="13">
<path d="M198.5 176.417L225.978 171.821L227.208 179.175L199.73 183.771L198.5 176.417Z" fill="white"/>
</mask>
<g mask="url(#mask14_577_42499)">
<mask id="mask15_577_42499" style="mask-type:luminance" maskUnits="userSpaceOnUse" x="199" y="172" width="28" height="12">
<path d="M202.191 175.8L222.287 172.438C224.326 172.097 226.253 173.467 226.593 175.498C226.933 177.529 225.556 179.452 223.517 179.793L203.421 183.154C201.382 183.495 199.455 182.125 199.115 180.094C198.775 178.063 200.152 176.141 202.191 175.8Z" fill="white"/>
</mask>
<g mask="url(#mask15_577_42499)">
<path d="M198.5 176.417L225.978 171.821L227.208 179.175L199.73 183.771L198.5 176.417Z" fill="#AD6747"/>
</g>
</g>
</g>
</g>
</g>
<mask id="mask16_577_42499" style="mask-type:luminance" maskUnits="userSpaceOnUse" x="122" y="48" width="105" height="126">
<path d="M122.7 63.0107L207.519 48.8243L226.069 159.732L141.25 173.918L122.7 63.0107Z" fill="white"/>
</mask>
<g mask="url(#mask16_577_42499)">
<mask id="mask17_577_42499" style="mask-type:luminance" maskUnits="userSpaceOnUse" x="129" y="55" width="92" height="114">
<path d="M179.655 56.1009C175.058 55.332 169.95 55.1739 165.096 55.9857C160.246 56.797 155.717 58.4197 151.665 60.6389C151.581 60.7021 151.492 60.717 151.407 60.7767C136.25 69.4706 126.995 87.2806 129.877 105.919L135.563 139.917C137.072 148.934 142.113 156.982 149.58 162.288C157.046 167.594 166.327 169.723 175.378 168.21L191.965 165.435C210.799 162.285 223.525 144.522 220.386 125.758L214.703 91.7806C211.339 73.0754 196.975 59.2193 179.655 56.1009Z" fill="white"/>
</mask>
<g mask="url(#mask17_577_42499)">
<mask id="mask18_577_42499" style="mask-type:luminance" maskUnits="userSpaceOnUse" x="122" y="48" width="105" height="127">
<path d="M208.048 48.2832L122.23 62.6367L140.908 174.308L226.725 159.954L208.048 48.2832Z" fill="white"/>
</mask>
<g mask="url(#mask18_577_42499)">
<mask id="mask19_577_42499" style="mask-type:luminance" maskUnits="userSpaceOnUse" x="122" y="48" width="105" height="126">
<path d="M122.701 63.0111L207.519 48.8246L226.07 159.732L141.251 173.919L122.701 63.0111Z" fill="white"/>
</mask>
<g mask="url(#mask19_577_42499)">
<mask id="mask20_577_42499" style="mask-type:luminance" maskUnits="userSpaceOnUse" x="129" y="55" width="92" height="114">
<path d="M179.657 56.1033C175.06 55.3344 169.952 55.1762 165.098 55.988C160.248 56.7993 155.719 58.422 151.667 60.6413C151.582 60.7044 151.494 60.7193 151.409 60.779C136.252 69.4729 126.997 87.2829 129.879 105.922L135.565 139.919C137.073 148.937 142.115 156.985 149.582 162.29C157.048 167.596 166.329 169.726 175.38 168.212L191.967 165.438C210.801 162.288 223.527 144.524 220.388 125.76L214.705 91.7829C211.341 73.0777 196.977 59.2216 179.657 56.1033Z" fill="white"/>
</mask>
<g mask="url(#mask20_577_42499)">
<path d="M226.071 159.733L141.253 173.919L122.703 63.0117L207.521 48.8253L226.071 159.733Z" fill="#AD6747"/>
</g>
</g>
</g>
</g>
</g>
<mask id="mask21_577_42499" style="mask-type:luminance" maskUnits="userSpaceOnUse" x="126" y="127" width="62" height="68">
<path d="M126.078 135.819L177.566 127.208L187.371 185.834L135.884 194.446L126.078 135.819Z" fill="white"/>
</mask>
<g mask="url(#mask21_577_42499)">
<mask id="mask22_577_42499" style="mask-type:luminance" maskUnits="userSpaceOnUse" x="129" y="130" width="53" height="61">
<path d="M161.654 190.135C170.408 188.671 177.246 181.789 178.63 173.055L181.216 156.729C182.351 149.56 179.96 142.284 174.788 137.18C169.616 132.075 162.292 129.762 155.105 130.964L148.589 132.054C141.405 133.256 135.232 137.826 132.003 144.336C128.774 150.846 128.88 158.504 132.287 164.912L140.045 179.509C144.195 187.317 152.901 191.6 161.654 190.135Z" fill="white"/>
</mask>
<g mask="url(#mask22_577_42499)">
<mask id="mask23_577_42499" style="mask-type:luminance" maskUnits="userSpaceOnUse" x="125" y="126" width="63" height="69">
<path d="M177.979 126.851L125.438 135.639L135.36 194.964L187.901 186.176L177.979 126.851Z" fill="white"/>
</mask>
<g mask="url(#mask23_577_42499)">
<mask id="mask24_577_42499" style="mask-type:luminance" maskUnits="userSpaceOnUse" x="126" y="127" width="62" height="68">
<path d="M126.08 135.818L177.568 127.207L187.373 185.833L135.886 194.445L126.08 135.818Z" fill="white"/>
</mask>
<g mask="url(#mask24_577_42499)">
<mask id="mask25_577_42499" style="mask-type:luminance" maskUnits="userSpaceOnUse" x="129" y="130" width="53" height="61">
<path d="M161.654 190.136C170.408 188.672 177.246 181.79 178.63 173.056L181.216 156.729C182.351 149.56 179.96 142.285 174.788 137.18C169.616 132.076 162.292 129.762 155.105 130.965L148.589 132.054C141.405 133.256 135.232 137.827 132.003 144.336C128.774 150.846 128.88 158.504 132.287 164.913L140.045 179.509C144.195 187.317 152.901 191.6 161.654 190.136Z" fill="white"/>
</mask>
<g mask="url(#mask25_577_42499)">
<path d="M117.577 137.242L186.072 125.786L195.878 184.412L127.383 195.868L117.577 137.242Z" fill="#AD6747"/>
</g>
</g>
</g>
</g>
</g>
<mask id="mask26_577_42499" style="mask-type:luminance" maskUnits="userSpaceOnUse" x="177" y="119" width="60" height="68">
<path d="M177.41 127.908L227.061 119.604L236.867 178.231L187.216 186.535L177.41 127.908Z" fill="white"/>
</mask>
<g mask="url(#mask26_577_42499)">
<mask id="mask27_577_42499" style="mask-type:luminance" maskUnits="userSpaceOnUse" x="180" y="123" width="51" height="60">
<path d="M212.015 182.387C220.191 181.019 226.577 174.591 227.871 166.433L230.609 149.142C231.748 141.973 229.357 134.697 224.181 129.593C219.009 124.488 211.688 122.175 204.501 123.377L199.918 124.143C192.734 125.345 186.561 129.916 183.332 136.425C180.103 142.935 180.209 150.593 183.616 157.002L191.831 172.461C195.709 179.754 203.84 183.754 212.015 182.387Z" fill="white"/>
</mask>
<g mask="url(#mask27_577_42499)">
<mask id="mask28_577_42499" style="mask-type:luminance" maskUnits="userSpaceOnUse" x="177" y="119" width="61" height="69">
<path d="M227.163 119.524L177.249 127.873L187.172 187.198L237.086 178.849L227.163 119.524Z" fill="white"/>
</mask>
<g mask="url(#mask28_577_42499)">
<mask id="mask29_577_42499" style="mask-type:luminance" maskUnits="userSpaceOnUse" x="177" y="119" width="60" height="68">
<path d="M177.41 127.909L227.061 119.605L236.867 178.231L187.216 186.535L177.41 127.909Z" fill="white"/>
</mask>
<g mask="url(#mask29_577_42499)">
<mask id="mask30_577_42499" style="mask-type:luminance" maskUnits="userSpaceOnUse" x="180" y="123" width="51" height="60">
<path d="M212.015 182.388C220.191 181.02 226.577 174.592 227.871 166.434L230.609 149.143C231.748 141.974 229.357 134.698 224.181 129.594C219.009 124.489 211.688 122.176 204.501 123.378L199.918 124.144C192.734 125.346 186.561 129.917 183.332 136.426C180.103 142.936 180.209 150.594 183.616 157.003L191.831 172.462C195.709 179.755 203.84 183.755 212.015 182.388Z" fill="white"/>
</mask>
<g mask="url(#mask30_577_42499)">
<path d="M168.907 129.331L235.565 118.182L245.371 176.808L178.713 187.957L168.907 129.331Z" fill="#AD6747"/>
</g>
</g>
</g>
</g>
</g>
<mask id="mask31_577_42499" style="mask-type:luminance" maskUnits="userSpaceOnUse" x="107" y="66" width="45" height="64">
<path d="M107.635 72.2518L141.786 66.5397L151.417 124.12L117.265 129.832L107.635 72.2518Z" fill="white"/>
</mask>
<g mask="url(#mask31_577_42499)">
<mask id="mask32_577_42499" style="mask-type:luminance" maskUnits="userSpaceOnUse" x="109" y="65" width="41" height="67">
<path d="M126.125 65.21L149.755 71.6063L133.343 131.598L109.709 125.206L126.125 65.21Z" fill="white"/>
</mask>
<g mask="url(#mask32_577_42499)">
<mask id="mask33_577_42499" style="mask-type:luminance" maskUnits="userSpaceOnUse" x="115" y="68" width="30" height="61">
<path d="M137.941 68.4107C131.415 66.647 122.453 78.6382 117.922 95.1957C113.392 111.753 115.011 126.606 121.537 128.37C128.063 130.137 137.025 118.145 141.556 101.588C146.083 85.031 144.467 70.1777 137.941 68.4107Z" fill="white"/>
</mask>
<g mask="url(#mask33_577_42499)">
<mask id="mask34_577_42499" style="mask-type:luminance" maskUnits="userSpaceOnUse" x="107" y="66" width="45" height="64">
<path d="M141.788 66.5404L107.637 72.2526L117.267 129.833L151.419 124.121L141.788 66.5404Z" fill="white"/>
</mask>
<g mask="url(#mask34_577_42499)">
<mask id="mask35_577_42499" style="mask-type:luminance" maskUnits="userSpaceOnUse" x="109" y="65" width="41" height="67">
<path d="M126.127 65.2115L149.757 71.6077L133.345 131.6L109.711 125.207L126.127 65.2115Z" fill="white"/>
</mask>
<g mask="url(#mask35_577_42499)">
<mask id="mask36_577_42499" style="mask-type:luminance" maskUnits="userSpaceOnUse" x="115" y="68" width="30" height="61">
<path d="M137.942 68.4109C131.416 66.6473 122.454 78.6385 117.923 95.1959C113.393 111.753 115.012 126.606 121.538 128.37C128.064 130.137 137.026 118.146 141.557 101.588C146.084 85.0313 144.468 70.178 137.942 68.4109Z" fill="white"/>
</mask>
<g mask="url(#mask36_577_42499)">
<path d="M126.127 65.2121L149.757 71.6083L133.345 131.6L109.711 125.208L126.127 65.2121Z" fill="#865139"/>
</g>
</g>
</g>
</g>
</g>
</g>
<mask id="mask37_577_42499" style="mask-type:luminance" maskUnits="userSpaceOnUse" x="107" y="66" width="45" height="64">
<path d="M141.239 67.3076L150.649 123.573L117.813 129.065L108.403 72.7997L141.239 67.3076Z" fill="white" stroke="white" stroke-width="1.33333"/>
</mask>
<g mask="url(#mask37_577_42499)">
<mask id="mask38_577_42499" style="mask-type:luminance" maskUnits="userSpaceOnUse" x="109" y="65" width="41" height="67">
<path d="M149.072 72.1111L132.956 131.015L110.477 124.931L126.592 66.0271L149.072 72.1111Z" fill="white" stroke="white" stroke-width="1.33333"/>
</mask>
<g mask="url(#mask38_577_42499)">
<mask id="mask39_577_42499" style="mask-type:luminance" maskUnits="userSpaceOnUse" x="109" y="65" width="41" height="68">
<path d="M148.997 72.0935L132.772 131.39L110.367 125.329L126.589 66.0323L148.997 72.0935Z" fill="white" stroke="white" stroke-width="1.33333"/>
</mask>
<g mask="url(#mask39_577_42499)">
<mask id="mask40_577_42499" style="mask-type:luminance" maskUnits="userSpaceOnUse" x="115" y="68" width="30" height="61">
<path d="M133.046 70.0865C134.778 69.0116 136.369 68.6754 137.762 69.0522C139.155 69.4287 140.355 70.5195 141.3 72.3179C142.246 74.1176 142.904 76.5674 143.226 79.5198C143.868 85.4204 143.155 93.1864 140.907 101.403C138.66 109.62 135.318 116.674 131.758 121.437C129.976 123.82 128.161 125.602 126.427 126.677C124.695 127.752 123.104 128.089 121.711 127.713C120.318 127.336 119.118 126.245 118.173 124.447C117.226 122.647 116.568 120.197 116.246 117.245C115.623 111.529 116.274 104.062 118.36 96.1307L118.567 95.3614C120.814 87.1446 124.155 80.09 127.716 75.3266C129.497 72.9434 131.312 71.162 133.046 70.0865Z" fill="white" stroke="white" stroke-width="1.33333"/>
</mask>
<g mask="url(#mask40_577_42499)">
<path d="M137.936 68.4098C131.413 66.6455 122.451 78.6333 117.923 95.1868C113.392 111.741 115.011 126.594 121.537 128.357C128.06 130.121 137.022 118.134 141.55 101.58C146.078 85.0267 144.462 70.1734 137.936 68.4098Z" stroke="#865139" stroke-width="8"/>
</g>
</g>
</g>
</g>
<mask id="mask41_577_42499" style="mask-type:luminance" maskUnits="userSpaceOnUse" x="119" y="79" width="88" height="91">
<path d="M119.018 91.8738L193.451 79.4243L206.438 157.07L132.004 169.52L119.018 91.8738Z" fill="white"/>
</mask>
<g mask="url(#mask41_577_42499)">
<mask id="mask42_577_42499" style="mask-type:luminance" maskUnits="userSpaceOnUse" x="100" y="69" width="107" height="104">
<path d="M100.549 111.986L166.778 69.2603L206.239 130.066L140.01 172.792L100.549 111.986Z" fill="white"/>
</mask>
<g mask="url(#mask42_577_42499)">
<mask id="mask43_577_42499" style="mask-type:luminance" maskUnits="userSpaceOnUse" x="126" y="88" width="75" height="80">
<path d="M148.1 89.9545L192.538 112.839C197.186 115.232 200.202 119.913 200.451 125.122C200.7 130.332 198.149 135.285 193.753 138.119L152.372 164.816C147.976 167.653 142.398 167.941 137.735 165.582C133.071 163.22 130.027 158.558 129.74 153.352L127.013 103.557C126.729 98.3949 129.244 93.4762 133.601 90.663C137.959 87.8531 143.494 87.5825 148.1 89.9545Z" fill="white"/>
</mask>
<g mask="url(#mask43_577_42499)">
<mask id="mask44_577_42499" style="mask-type:luminance" maskUnits="userSpaceOnUse" x="119" y="79" width="88" height="91">
<path d="M193.452 79.4251L119.019 91.8746L132.005 169.521L206.439 157.071L193.452 79.4251Z" fill="white"/>
</mask>
<g mask="url(#mask44_577_42499)">
<mask id="mask45_577_42499" style="mask-type:luminance" maskUnits="userSpaceOnUse" x="100" y="69" width="107" height="104">
<path d="M100.549 111.987L166.778 69.2611L206.239 130.067L140.01 172.793L100.549 111.987Z" fill="white"/>
</mask>
<g mask="url(#mask45_577_42499)">
<mask id="mask46_577_42499" style="mask-type:luminance" maskUnits="userSpaceOnUse" x="126" y="88" width="75" height="80">
<path d="M148.101 89.9551L192.539 112.84C197.187 115.233 200.203 119.913 200.452 125.123C200.701 130.333 198.15 135.286 193.754 138.119L152.373 164.817C147.977 167.654 142.399 167.942 137.736 165.583C133.072 163.221 130.028 158.559 129.741 153.352L127.014 103.558C126.73 98.3956 129.245 93.4768 133.602 90.6636C137.96 87.8537 143.495 87.5831 148.101 89.9551Z" fill="white"/>
</mask>
<g mask="url(#mask46_577_42499)">
<path d="M83.6918 105.445L167.701 51.2496L215.127 124.334L131.121 178.528L83.6918 105.445Z" fill="#AD6747"/>
</g>
</g>
</g>
</g>
</g>
</g>
<mask id="mask47_577_42499" style="mask-type:luminance" maskUnits="userSpaceOnUse" x="221" y="166" width="9" height="10">
<path d="M221.236 167.868L227.783 166.773L229.03 174.226L222.483 175.321L221.236 167.868Z" fill="white"/>
</mask>
<g mask="url(#mask47_577_42499)">
<mask id="mask48_577_42499" style="mask-type:luminance" maskUnits="userSpaceOnUse" x="221" y="167" width="8" height="8">
<path d="M225.76 174.772C226.872 174.586 227.742 173.712 227.918 172.6L228.246 170.524C228.389 169.613 228.087 168.687 227.43 168.04C226.772 167.389 225.841 167.097 224.928 167.25L224.1 167.388C223.183 167.541 222.401 168.121 221.991 168.949C221.577 169.775 221.592 170.75 222.024 171.564L223.013 173.42C223.538 174.415 224.645 174.959 225.76 174.772Z" fill="white"/>
</mask>
<g mask="url(#mask48_577_42499)">
<mask id="mask49_577_42499" style="mask-type:luminance" maskUnits="userSpaceOnUse" x="220" y="166" width="10" height="10">
<path d="M227.746 166.06L220.74 167.232L222.199 175.956L229.205 174.785L227.746 166.06Z" fill="white"/>
</mask>
<g mask="url(#mask49_577_42499)">
<mask id="mask50_577_42499" style="mask-type:luminance" maskUnits="userSpaceOnUse" x="221" y="166" width="9" height="10">
<path d="M221.237 167.867L227.784 166.772L229.031 174.225L222.484 175.32L221.237 167.867Z" fill="white"/>
</mask>
<g mask="url(#mask50_577_42499)">
<mask id="mask51_577_42499" style="mask-type:luminance" maskUnits="userSpaceOnUse" x="221" y="167" width="8" height="8">
<path d="M225.761 174.771C226.873 174.585 227.743 173.711 227.919 172.599L228.247 170.522C228.39 169.612 228.088 168.685 227.431 168.038C226.773 167.388 225.842 167.096 224.929 167.248L224.101 167.387C223.184 167.54 222.402 168.119 221.992 168.948C221.578 169.774 221.593 170.749 222.025 171.563L223.014 173.419C223.539 174.414 224.646 174.957 225.761 174.771Z" fill="white"/>
</mask>
<g mask="url(#mask51_577_42499)">
<path d="M220.157 168.045L228.866 166.589L230.113 174.042L221.404 175.498L220.157 168.045Z" fill="#AD6747"/>
</g>
</g>
</g>
</g>
</g>
<mask id="mask52_577_42499" style="mask-type:luminance" maskUnits="userSpaceOnUse" x="155" y="81" width="77" height="80">
<path d="M155.066 92.121L219.867 81.2826L231.249 149.332L166.448 160.17L155.066 92.121Z" fill="white"/>
</mask>
<g mask="url(#mask52_577_42499)">
<mask id="mask53_577_42499" style="mask-type:luminance" maskUnits="userSpaceOnUse" x="151" y="76" width="95" height="94">
<path d="M245.297 123.458L195.888 169.974L151.142 122.772L200.551 76.256L245.297 123.458Z" fill="white"/>
</mask>
<g mask="url(#mask53_577_42499)">
<mask id="mask54_577_42499" style="mask-type:luminance" maskUnits="userSpaceOnUse" x="160" y="85" width="68" height="68">
<path d="M198.926 151.575L176.524 144.812C168.881 142.507 163.053 136.317 161.23 128.568C159.403 120.82 161.857 112.685 167.666 107.215L184.132 91.7162C189.943 86.2425 198.231 84.2677 205.891 86.5214C213.547 88.7791 219.418 94.9298 221.295 102.663L226.796 125.337C228.659 133.006 226.251 141.084 220.495 146.507C214.734 151.927 206.503 153.864 198.926 151.575Z" fill="white"/>
</mask>
<g mask="url(#mask54_577_42499)">
<mask id="mask55_577_42499" style="mask-type:luminance" maskUnits="userSpaceOnUse" x="155" y="81" width="77" height="80">
<path d="M219.868 81.2837L155.067 92.1221L166.449 160.172L231.25 149.333L219.868 81.2837Z" fill="white"/>
</mask>
<g mask="url(#mask55_577_42499)">
<mask id="mask56_577_42499" style="mask-type:luminance" maskUnits="userSpaceOnUse" x="151" y="76" width="95" height="94">
<path d="M245.298 123.459L195.889 169.975L151.143 122.773L200.552 76.2569L245.298 123.459Z" fill="white"/>
</mask>
<g mask="url(#mask56_577_42499)">
<mask id="mask57_577_42499" style="mask-type:luminance" maskUnits="userSpaceOnUse" x="160" y="85" width="68" height="68">
<path d="M198.928 151.577L176.526 144.814C168.883 142.508 163.055 136.319 161.232 128.57C159.405 120.821 161.859 112.686 167.668 107.216L184.134 91.7175C189.945 86.2439 198.233 84.269 205.893 86.5228C213.549 88.7805 219.42 94.9312 221.297 102.664L226.798 125.339C228.661 133.007 226.253 141.086 220.497 146.508C214.736 151.928 206.505 153.865 198.928 151.577Z" fill="white"/>
</mask>
<g mask="url(#mask57_577_42499)">
<path d="M272.194 128.535L199.447 197.024L139.475 133.76L212.222 65.2704L272.194 128.535Z" fill="#AD6747"/>
</g>
</g>
</g>
</g>
</g>
</g>
<mask id="mask58_577_42499" style="mask-type:luminance" maskUnits="userSpaceOnUse" x="193" y="49" width="44" height="65">
<path d="M193.889 55.1364L226.289 49.7172L236.066 108.17L203.665 113.589L193.889 55.1364Z" fill="white"/>
</mask>
<g mask="url(#mask58_577_42499)">
<mask id="mask59_577_42499" style="mask-type:luminance" maskUnits="userSpaceOnUse" x="188" y="48" width="54" height="67">
<path d="M241.05 102.01L219.971 114.465L188.201 61.0044L209.283 48.5485L241.05 102.01Z" fill="white"/>
</mask>
<g mask="url(#mask59_577_42499)">
<mask id="mask60_577_42499" style="mask-type:luminance" maskUnits="userSpaceOnUse" x="195" y="54" width="39" height="55">
<path d="M230.511 108.239C236.332 104.799 233.943 90.0508 225.174 75.2974C216.408 60.5434 204.582 51.3706 198.761 54.8105C192.939 58.2469 195.325 72.9959 204.095 87.7528C212.864 102.506 224.69 111.679 230.511 108.239Z" fill="white"/>
</mask>
<g mask="url(#mask60_577_42499)">
<mask id="mask61_577_42499" style="mask-type:luminance" maskUnits="userSpaceOnUse" x="193" y="49" width="44" height="65">
<path d="M226.29 49.719L193.89 55.1382L203.666 113.591L236.067 108.172L226.29 49.719Z" fill="white"/>
</mask>
<g mask="url(#mask61_577_42499)">
<mask id="mask62_577_42499" style="mask-type:luminance" maskUnits="userSpaceOnUse" x="188" y="48" width="54" height="67">
<path d="M241.05 102.01L219.971 114.466L188.201 61.0053L209.283 48.5493L241.05 102.01Z" fill="white"/>
</mask>
<g mask="url(#mask62_577_42499)">
<mask id="mask63_577_42499" style="mask-type:luminance" maskUnits="userSpaceOnUse" x="195" y="54" width="39" height="55">
<path d="M230.512 108.241C236.333 104.801 233.944 90.0527 225.175 75.2992C216.409 60.5452 204.583 51.3724 198.762 54.8123C192.94 58.2488 195.326 72.9978 204.096 87.7546C212.865 102.508 224.691 111.681 230.512 108.241Z" fill="white"/>
</mask>
<g mask="url(#mask63_577_42499)">
<path d="M241.05 102.011L219.971 114.467L188.201 61.0064L209.283 48.5504L241.05 102.011Z" fill="#865139"/>
</g>
</g>
</g>
</g>
</g>
</g>
<mask id="mask64_577_42499" style="mask-type:luminance" maskUnits="userSpaceOnUse" x="193" y="49" width="44" height="65">
<path d="M225.741 50.485L235.298 107.622L204.213 112.821L194.657 55.6842L225.741 50.485Z" fill="white" stroke="white" stroke-width="1.33333"/>
</mask>
<g mask="url(#mask64_577_42499)">
<mask id="mask65_577_42499" style="mask-type:luminance" maskUnits="userSpaceOnUse" x="187" y="48" width="55" height="67">
<path d="M240.134 101.774L220.082 113.624L188.889 61.1345L208.943 49.2871L240.134 101.774Z" fill="white" stroke="white" stroke-width="1.33333"/>
</mask>
<g mask="url(#mask65_577_42499)">
<mask id="mask66_577_42499" style="mask-type:luminance" maskUnits="userSpaceOnUse" x="187" y="48" width="55" height="67">
<path d="M240.134 101.775L220.148 113.585L188.746 60.7418L208.736 48.9338L240.134 101.775Z" fill="white" stroke="white" stroke-width="1.33333"/>
</mask>
<g mask="url(#mask66_577_42499)">
<mask id="mask67_577_42499" style="mask-type:luminance" maskUnits="userSpaceOnUse" x="195" y="54" width="39" height="55">
<path d="M199.104 55.3877C200.347 54.653 201.971 54.5547 203.927 55.1295C205.884 55.7047 208.108 56.9387 210.459 58.762C215.157 62.4061 220.254 68.3172 224.605 75.6391C228.955 82.9608 231.707 90.2562 232.656 96.1149C233.131 99.0464 233.148 101.583 232.714 103.57C232.281 105.555 231.414 106.926 230.171 107.66C228.929 108.394 227.306 108.494 225.35 107.919C223.394 107.344 221.17 106.111 218.82 104.288C214.122 100.644 209.026 94.734 204.675 87.4123C200.324 80.0889 197.573 72.7933 196.623 66.9347C196.148 64.0031 196.13 61.466 196.563 59.4791C196.996 57.4939 197.862 56.1221 199.104 55.3877Z" fill="white" stroke="white" stroke-width="1.33333"/>
</mask>
<g mask="url(#mask67_577_42499)">
<path d="M230.508 108.234C236.33 104.798 233.94 90.0494 225.175 75.2988C216.41 60.5482 204.584 51.3754 198.763 54.8153C192.946 58.2546 195.334 72.9997 204.1 87.7537C212.865 102.504 224.691 111.674 230.508 108.234Z" stroke="#865139" stroke-width="8"/>
</g>
</g>
</g>
</g>
<mask id="mask68_577_42499" style="mask-type:luminance" maskUnits="userSpaceOnUse" x="134" y="39" width="92" height="97">
<path d="M134.052 52.5884L211.988 39.553L225.85 122.434L147.914 135.469L134.052 52.5884Z" fill="white"/>
</mask>
<g mask="url(#mask68_577_42499)">
<mask id="mask69_577_42499" style="mask-type:luminance" maskUnits="userSpaceOnUse" x="136" y="38" width="114" height="113">
<path d="M249.786 91.4074L191.176 150.932L136.872 97.8389L195.481 38.3143L249.786 91.4074Z" fill="white"/>
</mask>
<g mask="url(#mask69_577_42499)">
<mask id="mask70_577_42499" style="mask-type:luminance" maskUnits="userSpaceOnUse" x="141" y="43" width="83" height="82">
<path d="M209.254 123.932L150.553 108.607C146.556 107.562 143.42 104.479 142.324 100.511C141.231 96.5419 142.338 92.2895 145.232 89.3496L187.226 46.7012C190.12 43.7579 194.367 42.5747 198.369 43.5903C202.372 44.6059 205.529 47.6722 206.652 51.6322L223.143 109.824C224.257 113.75 223.17 117.975 220.3 120.89C217.433 123.804 213.214 124.965 209.254 123.932Z" fill="white"/>
</mask>
<g mask="url(#mask70_577_42499)">
<mask id="mask71_577_42499" style="mask-type:luminance" maskUnits="userSpaceOnUse" x="134" y="39" width="92" height="97">
<path d="M211.987 39.5533L134.051 52.5886L147.913 135.469L225.849 122.434L211.987 39.5533Z" fill="white"/>
</mask>
<g mask="url(#mask71_577_42499)">
<mask id="mask72_577_42499" style="mask-type:luminance" maskUnits="userSpaceOnUse" x="134" y="39" width="92" height="97">
<path d="M134.058 52.6244L211.994 39.589L225.85 122.436L147.914 135.471L134.058 52.6244Z" fill="white"/>
</mask>
<g mask="url(#mask72_577_42499)">
<mask id="mask73_577_42499" style="mask-type:luminance" maskUnits="userSpaceOnUse" x="136" y="38" width="114" height="113">
<path d="M249.788 91.408L191.178 150.933L136.874 97.8395L195.483 38.3149L249.788 91.408Z" fill="white"/>
</mask>
<g mask="url(#mask73_577_42499)">
<mask id="mask74_577_42499" style="mask-type:luminance" maskUnits="userSpaceOnUse" x="141" y="43" width="83" height="82">
<path d="M209.255 123.932L150.553 108.607C146.557 107.563 143.421 104.479 142.325 100.511C141.232 96.5422 142.339 92.2898 145.233 89.3499L187.227 46.7015C190.121 43.7582 194.367 42.5749 198.37 43.5905C202.373 44.6061 205.53 47.6724 206.653 51.6324L223.144 109.824C224.258 113.75 223.171 117.975 220.301 120.89C217.434 123.804 213.215 124.965 209.255 123.932Z" fill="white"/>
</mask>
<g mask="url(#mask74_577_42499)">
<path d="M263.566 93.4332L193.475 164.617L131.134 103.669L201.225 32.4847L263.566 93.4332Z" fill="#AD6747"/>
</g>
</g>
</g>
</g>
</g>
</g>
</g>
<mask id="mask75_577_42499" style="mask-type:luminance" maskUnits="userSpaceOnUse" x="118" y="40" width="85" height="85">
<path d="M118.727 52.4609L190.533 40.4508L202.498 111.99L130.692 124L118.727 52.4609Z" fill="white"/>
</mask>
<g mask="url(#mask75_577_42499)">
<mask id="mask76_577_42499" style="mask-type:luminance" maskUnits="userSpaceOnUse" x="105" y="40" width="101" height="99">
<path d="M164.83 138.87L105.662 96.8273L145.941 40.5892L205.106 82.6327L164.83 138.87Z" fill="white"/>
</mask>
<g mask="url(#mask76_577_42499)">
<mask id="mask77_577_42499" style="mask-type:luminance" maskUnits="userSpaceOnUse" x="127" y="47" width="71" height="74">
<path d="M128.081 101.495L132.171 64.2193C132.875 57.7745 136.961 52.1796 142.899 49.5258C148.837 46.8686 155.741 47.5496 161.033 51.3133L189.921 71.8382C195.216 75.6013 198.105 81.8794 197.519 88.3394C196.929 94.7965 192.95 100.461 187.062 103.226L153.006 119.204C147.258 121.903 140.501 121.299 135.333 117.627C130.165 113.954 127.393 107.786 128.081 101.495Z" fill="white"/>
</mask>
<g mask="url(#mask77_577_42499)">
<mask id="mask78_577_42499" style="mask-type:luminance" maskUnits="userSpaceOnUse" x="118" y="40" width="85" height="84">
<path d="M190.532 40.448L118.726 52.4581L130.691 123.997L202.497 111.987L190.532 40.448Z" fill="white"/>
</mask>
<g mask="url(#mask78_577_42499)">
<mask id="mask79_577_42499" style="mask-type:luminance" maskUnits="userSpaceOnUse" x="105" y="40" width="101" height="99">
<path d="M164.829 138.868L105.661 96.8246L145.94 40.5865L205.105 82.63L164.829 138.868Z" fill="white"/>
</mask>
<g mask="url(#mask79_577_42499)">
<mask id="mask80_577_42499" style="mask-type:luminance" maskUnits="userSpaceOnUse" x="127" y="47" width="71" height="74">
<path d="M128.08 101.493L132.17 64.2172C132.874 57.7724 136.96 52.1775 142.898 49.5237C148.836 46.8665 155.74 47.5475 161.032 51.3112L189.92 71.8361C195.215 75.5992 198.104 81.8773 197.518 88.3373C196.928 94.7944 192.949 100.459 187.061 103.224L153.005 119.202C147.257 121.901 140.5 121.297 135.332 117.624C130.164 113.952 127.392 107.784 128.08 101.493Z" fill="white"/>
</mask>
<g mask="url(#mask80_577_42499)">
<path d="M164.587 160.852L84.8658 104.202L135.661 33.281L215.383 89.9317L164.587 160.852Z" fill="#AD6747"/>
</g>
</g>
</g>
</g>
</g>
</g>
<mask id="mask81_577_42499" style="mask-type:luminance" maskUnits="userSpaceOnUse" x="137" y="14" width="18" height="17">
<path d="M137.993 16.9513L152.004 14.6079L154.339 28.5667L140.328 30.9102L137.993 16.9513Z" fill="white"/>
</mask>
<g mask="url(#mask81_577_42499)">
<mask id="mask82_577_42499" style="mask-type:luminance" maskUnits="userSpaceOnUse" x="137" y="13" width="18" height="19">
<path d="M137.081 20.0116L149.007 13.8479L154.921 25.2359L142.994 31.3996L137.081 20.0116Z" fill="white"/>
</mask>
<g mask="url(#mask82_577_42499)">
<mask id="mask83_577_42499" style="mask-type:luminance" maskUnits="userSpaceOnUse" x="139" y="16" width="15" height="14">
<path d="M143.05 16.9261C145.329 15.7497 148.104 16.1543 149.938 17.9354L151.726 19.6649C152.854 20.7583 153.387 22.3228 153.154 23.8717C152.924 25.4235 151.961 26.7687 150.566 27.489L147.371 29.1408C145.973 29.8617 144.314 29.8693 142.913 29.1648C141.511 28.4569 140.535 27.1208 140.291 25.5747L139.905 23.1204C139.508 20.5979 140.775 18.1019 143.05 16.9261Z" fill="white"/>
</mask>
<g mask="url(#mask83_577_42499)">
<mask id="mask84_577_42499" style="mask-type:luminance" maskUnits="userSpaceOnUse" x="137" y="14" width="18" height="17">
<path d="M152.004 14.6083L137.993 16.9518L140.328 30.9106L154.339 28.5672L152.004 14.6083Z" fill="white"/>
</mask>
<g mask="url(#mask84_577_42499)">
<mask id="mask85_577_42499" style="mask-type:luminance" maskUnits="userSpaceOnUse" x="138" y="14" width="17" height="17">
<path d="M138.694 16.8344L152.004 14.6082L154.339 28.5671L141.029 30.7932L138.694 16.8344Z" fill="white"/>
</mask>
<g mask="url(#mask85_577_42499)">
<mask id="mask86_577_42499" style="mask-type:luminance" maskUnits="userSpaceOnUse" x="137" y="13" width="18" height="19">
<path d="M137.08 20.0132L149.006 13.8495L154.92 25.2374L142.993 31.4012L137.08 20.0132Z" fill="white"/>
</mask>
<g mask="url(#mask86_577_42499)">
<mask id="mask87_577_42499" style="mask-type:luminance" maskUnits="userSpaceOnUse" x="139" y="16" width="15" height="14">
<path d="M143.049 16.9261C145.328 15.7497 148.103 16.1543 149.937 17.9354L151.725 19.6649C152.853 20.7583 153.386 22.3228 153.153 23.8717C152.923 25.4235 151.96 26.7687 150.565 27.489L147.37 29.1408C145.972 29.8617 144.314 29.8693 142.912 29.1648C141.51 28.4569 140.534 27.1208 140.29 25.5747L139.904 23.1204C139.507 20.5979 140.774 18.1019 143.049 16.9261Z" fill="white"/>
</mask>
<g mask="url(#mask87_577_42499)">
<path d="M135.426 20.8646L150.658 12.9956L156.575 24.383L141.344 32.2554L135.426 20.8646Z" fill="#865139"/>
</g>
</g>
</g>
</g>
</g>
</g>
</g>
<path d="M222.995 109.342C231.867 143.36 232.305 166.769 224.311 179.565" stroke="#AD6747" stroke-width="4"/>
<path d="M202.18 33.7943C213.133 73.5285 220.098 98.7956 223.076 109.596" stroke="#AD6747" stroke-width="4"/>
<path d="M143.412 29.3829C128.794 59.2759 124.237 100.648 129.742 153.492" stroke="#AD6747" stroke-width="4"/>
<path d="M129.747 153.495C135.01 173.886 142.341 185.846 151.744 189.374" stroke="#AD6747" stroke-width="4"/>
<mask id="mask88_577_42499" style="mask-type:luminance" maskUnits="userSpaceOnUse" x="141" y="49" width="12" height="11">
<path d="M141.933 51.2704L151.565 49.6593L152.878 57.5111L143.246 59.1222L141.933 51.2704Z" fill="white"/>
</mask>
<g mask="url(#mask88_577_42499)">
<mask id="mask89_577_42499" style="mask-type:luminance" maskUnits="userSpaceOnUse" x="142" y="51" width="10" height="7">
<path d="M151.654 51.0102L151.838 57.429L143.182 57.6891L142.997 51.267L151.654 51.0102Z" fill="white"/>
</mask>
<g mask="url(#mask89_577_42499)">
<mask id="mask90_577_42499" style="mask-type:luminance" maskUnits="userSpaceOnUse" x="143" y="51" width="9" height="7">
<path d="M151.744 54.2205C151.694 52.4458 149.719 51.0665 147.333 51.1398C144.95 51.2091 143.055 52.7031 143.105 54.4778C143.159 56.2485 145.134 57.6278 147.517 57.5585C149.903 57.4887 151.794 55.9918 151.744 54.2205Z" fill="white"/>
</mask>
<g mask="url(#mask90_577_42499)">
<mask id="mask91_577_42499" style="mask-type:luminance" maskUnits="userSpaceOnUse" x="141" y="49" width="12" height="11">
<path d="M151.565 49.6588L141.933 51.2699L143.246 59.1218L152.878 57.5106L151.565 49.6588Z" fill="white"/>
</mask>
<g mask="url(#mask91_577_42499)">
<mask id="mask92_577_42499" style="mask-type:luminance" maskUnits="userSpaceOnUse" x="142" y="49" width="11" height="10">
<path d="M142.323 51.4562L151.361 49.9446L152.551 57.0638L143.514 58.5753L142.323 51.4562Z" fill="white"/>
</mask>
<g mask="url(#mask92_577_42499)">
<mask id="mask93_577_42499" style="mask-type:luminance" maskUnits="userSpaceOnUse" x="142" y="51" width="10" height="7">
<path d="M151.655 51.0098L151.839 57.4285L143.183 57.6887L142.998 51.2665L151.655 51.0098Z" fill="white"/>
</mask>
<g mask="url(#mask93_577_42499)">
<mask id="mask94_577_42499" style="mask-type:luminance" maskUnits="userSpaceOnUse" x="143" y="51" width="9" height="7">
<path d="M151.745 54.2222C151.695 52.4475 149.72 51.0683 147.334 51.1415C144.951 51.2108 143.056 52.7048 143.106 54.4795C143.16 56.2502 145.135 57.6295 147.518 57.5603C149.904 57.4904 151.795 55.9935 151.745 54.2222Z" fill="white"/>
</mask>
<g mask="url(#mask94_577_42499)">
<path d="M151.655 51.0116L151.839 57.4303L143.207 57.6899L143.023 51.2677L151.655 51.0116Z" fill="#F6827C"/>
</g>
</g>
</g>
</g>
</g>
</g>
</g>
<mask id="mask95_577_42499" style="mask-type:luminance" maskUnits="userSpaceOnUse" x="145" y="42" width="12" height="15">
<path d="M145.289 44.4301L154.922 42.8189L156.964 55.0329L147.332 56.6441L145.289 44.4301Z" fill="white"/>
</mask>
<g mask="url(#mask95_577_42499)">
<mask id="mask96_577_42499" style="mask-type:luminance" maskUnits="userSpaceOnUse" x="146" y="43" width="10" height="13">
<path d="M146.959 44.1377L155.241 43.891L155.558 54.9782L147.276 55.2249L146.959 44.1377Z" fill="white"/>
</mask>
<g mask="url(#mask96_577_42499)">
<mask id="mask97_577_42499" style="mask-type:luminance" maskUnits="userSpaceOnUse" x="147" y="44" width="9" height="12">
<path d="M151.096 44.0122C148.812 44.0824 147.026 46.6126 147.115 49.6666C147.204 52.7206 149.129 55.1452 151.413 55.0749C153.702 55.0075 155.483 52.4779 155.397 49.4199C155.308 46.3659 153.384 43.9447 151.096 44.0122Z" fill="white"/>
</mask>
<g mask="url(#mask97_577_42499)">
<mask id="mask98_577_42499" style="mask-type:luminance" maskUnits="userSpaceOnUse" x="145" y="42" width="12" height="15">
<path d="M154.921 42.8186L145.288 44.4297L147.331 56.6437L156.963 55.0326L154.921 42.8186Z" fill="white"/>
</mask>
<g mask="url(#mask98_577_42499)">
<mask id="mask99_577_42499" style="mask-type:luminance" maskUnits="userSpaceOnUse" x="145" y="42" width="12" height="15">
<path d="M145.685 44.4332L154.931 42.8868L156.892 54.6134L147.646 56.1599L145.685 44.4332Z" fill="white"/>
</mask>
<g mask="url(#mask99_577_42499)">
<mask id="mask100_577_42499" style="mask-type:luminance" maskUnits="userSpaceOnUse" x="146" y="43" width="10" height="13">
<path d="M146.958 44.1357L155.24 43.8891L155.557 54.9763L147.275 55.2229L146.958 44.1357Z" fill="white"/>
</mask>
<g mask="url(#mask100_577_42499)">
<mask id="mask101_577_42499" style="mask-type:luminance" maskUnits="userSpaceOnUse" x="147" y="44" width="9" height="12">
<path d="M151.096 44.0109C148.812 44.0812 147.026 46.6114 147.115 49.6654C147.204 52.7194 149.129 55.144 151.413 55.0737C153.702 55.0063 155.483 52.4767 155.397 49.4187C155.308 46.3647 153.384 43.9435 151.096 44.0109Z" fill="white"/>
</mask>
<g mask="url(#mask101_577_42499)">
<path d="M146.957 44.1352L155.239 43.8885L155.555 54.9445L147.273 55.1912L146.957 44.1352Z" fill="#402300"/>
</g>
</g>
</g>
</g>
</g>
</g>
</g>
<mask id="mask102_577_42499" style="mask-type:luminance" maskUnits="userSpaceOnUse" x="191" y="48" width="11" height="10">
<path d="M191.263 50.1941L200.02 48.7294L201.187 55.7089L192.43 57.1735L191.263 50.1941Z" fill="white"/>
</mask>
<g mask="url(#mask102_577_42499)">
<mask id="mask103_577_42499" style="mask-type:luminance" maskUnits="userSpaceOnUse" x="191" y="49" width="10" height="8">
<path d="M200.335 49.5631L200.519 55.9853L191.86 56.2426L191.675 49.8205L200.335 49.5631Z" fill="white"/>
</mask>
<g mask="url(#mask103_577_42499)">
<mask id="mask104_577_42499" style="mask-type:luminance" maskUnits="userSpaceOnUse" x="191" y="49" width="10" height="8">
<path d="M200.427 52.7744C200.376 51.0031 198.401 49.6204 196.015 49.6937C193.629 49.7635 191.737 51.257 191.788 53.0317C191.838 54.8029 193.813 56.1822 196.199 56.1124C198.586 56.0425 200.477 54.5457 200.427 52.7744Z" fill="white"/>
</mask>
<g mask="url(#mask104_577_42499)">
<mask id="mask105_577_42499" style="mask-type:luminance" maskUnits="userSpaceOnUse" x="191" y="48" width="11" height="10">
<path d="M200.021 48.7288L191.264 50.1935L192.431 57.1729L201.188 55.7083L200.021 48.7288Z" fill="white"/>
</mask>
<g mask="url(#mask105_577_42499)">
<mask id="mask106_577_42499" style="mask-type:luminance" maskUnits="userSpaceOnUse" x="191" y="49" width="10" height="8">
<path d="M200.336 49.5625L200.52 55.9847L191.86 56.242L191.676 49.8199L200.336 49.5625Z" fill="white"/>
</mask>
<g mask="url(#mask106_577_42499)">
<mask id="mask107_577_42499" style="mask-type:luminance" maskUnits="userSpaceOnUse" x="191" y="49" width="10" height="8">
<path d="M200.426 52.7739C200.375 51.0026 198.4 49.6199 196.014 49.6932C193.628 49.763 191.736 51.2565 191.787 53.0312C191.837 54.8025 193.812 56.1818 196.198 56.1119C198.585 56.0421 200.476 54.5452 200.426 52.7739Z" fill="white"/>
</mask>
<g mask="url(#mask107_577_42499)">
<path d="M200.336 49.5609L200.521 55.983L191.889 56.2392L191.704 49.817L200.336 49.5609Z" fill="#F6827C"/>
</g>
</g>
</g>
</g>
</g>
</g>
<mask id="mask108_577_42499" style="mask-type:luminance" maskUnits="userSpaceOnUse" x="186" y="41" width="12" height="15">
<path d="M186.446 42.9272L195.203 41.4626L197.246 53.6766L188.489 55.1413L186.446 42.9272Z" fill="white"/>
</mask>
<g mask="url(#mask108_577_42499)">
<mask id="mask109_577_42499" style="mask-type:luminance" maskUnits="userSpaceOnUse" x="187" y="42" width="10" height="13">
<path d="M187.718 42.9247L195.997 42.6786L196.315 53.7658L188.036 54.0119L187.718 42.9247Z" fill="white"/>
</mask>
<g mask="url(#mask109_577_42499)">
<mask id="mask110_577_42499" style="mask-type:luminance" maskUnits="userSpaceOnUse" x="187" y="42" width="10" height="12">
<path d="M191.859 42.8036C189.574 42.8705 187.789 45.4007 187.877 48.4547C187.963 51.5126 189.891 53.9333 192.176 53.8664C194.464 53.7956 196.245 51.266 196.157 48.212C196.071 45.154 194.147 42.7328 191.859 42.8036Z" fill="white"/>
</mask>
<g mask="url(#mask110_577_42499)">
<mask id="mask111_577_42499" style="mask-type:luminance" maskUnits="userSpaceOnUse" x="186" y="41" width="12" height="15">
<path d="M195.203 41.4615L186.446 42.9261L188.489 55.1402L197.246 53.6755L195.203 41.4615Z" fill="white"/>
</mask>
<g mask="url(#mask111_577_42499)">
<mask id="mask112_577_42499" style="mask-type:luminance" maskUnits="userSpaceOnUse" x="186" y="41" width="12" height="14">
<path d="M186.528 43.1991L195.251 41.7402L197.212 53.4668L188.49 54.9258L186.528 43.1991Z" fill="white"/>
</mask>
<g mask="url(#mask112_577_42499)">
<mask id="mask113_577_42499" style="mask-type:luminance" maskUnits="userSpaceOnUse" x="187" y="42" width="10" height="13">
<path d="M187.718 42.9242L195.997 42.6781L196.315 53.7653L188.036 54.0114L187.718 42.9242Z" fill="white"/>
</mask>
<g mask="url(#mask113_577_42499)">
<mask id="mask114_577_42499" style="mask-type:luminance" maskUnits="userSpaceOnUse" x="187" y="42" width="10" height="12">
<path d="M191.859 42.802C189.574 42.8689 187.789 45.3991 187.877 48.4531C187.963 51.511 189.891 53.9317 192.176 53.8648C194.464 53.794 196.245 51.2644 196.157 48.2104C196.071 45.1524 194.147 42.7312 191.859 42.802Z" fill="white"/>
</mask>
<g mask="url(#mask114_577_42499)">
<path d="M187.719 42.9241L195.997 42.6781L196.317 53.7335L188.035 53.9801L187.719 42.9241Z" fill="#402300"/>
</g>
</g>
</g>
</g>
</g>
</g>
</g>
<mask id="mask115_577_42499" style="mask-type:luminance" maskUnits="userSpaceOnUse" x="155" y="37" width="34" height="38">
<path d="M155.651 41.8013L182.798 37.2609L188.197 69.5407L161.05 74.0811L155.651 41.8013Z" fill="white"/>
</mask>
<g mask="url(#mask115_577_42499)">
<mask id="mask116_577_42499" style="mask-type:luminance" maskUnits="userSpaceOnUse" x="158" y="39" width="28" height="34">
<path d="M158.08 40.1967L184.669 39.407L185.589 71.4865L159.004 72.2756L158.08 40.1967Z" fill="white"/>
</mask>
<g mask="url(#mask116_577_42499)">
<mask id="mask117_577_42499" style="mask-type:luminance" maskUnits="userSpaceOnUse" x="158" y="39" width="28" height="33">
<path d="M171.375 39.8043C164.031 40.0237 158.286 47.364 158.54 56.1988C158.794 65.0336 164.952 72.0191 172.293 71.8002C179.634 71.5848 185.383 64.2439 185.129 55.4091C184.874 46.5709 178.716 39.5854 171.375 39.8043Z" fill="white"/>
</mask>
<g mask="url(#mask117_577_42499)">
<mask id="mask118_577_42499" style="mask-type:luminance" maskUnits="userSpaceOnUse" x="155" y="37" width="34" height="38">
<path d="M182.798 37.2632L155.651 41.8036L161.05 74.0835L188.197 69.5431L182.798 37.2632Z" fill="white"/>
</mask>
<g mask="url(#mask118_577_42499)">
<mask id="mask119_577_42499" style="mask-type:luminance" maskUnits="userSpaceOnUse" x="158" y="39" width="28" height="34">
<path d="M158.081 40.1983L184.67 39.4086L185.59 71.4881L159.005 72.2772L158.081 40.1983Z" fill="white"/>
</mask>
<g mask="url(#mask119_577_42499)">
<mask id="mask120_577_42499" style="mask-type:luminance" maskUnits="userSpaceOnUse" x="158" y="39" width="28" height="33">
<path d="M171.376 39.8057C164.032 40.0251 158.287 47.3655 158.541 56.2003C158.795 65.0351 164.953 72.0206 172.294 71.8017C179.635 71.5863 185.384 64.2453 185.13 55.4106C184.875 46.5724 178.717 39.5869 171.376 39.8057Z" fill="white"/>
</mask>
<g mask="url(#mask120_577_42499)">
<path d="M158.08 40.2002L184.669 39.4105L185.587 71.3889L159.001 72.178L158.08 40.2002Z" fill="#E2B282"/>
</g>
</g>
</g>
</g>
</g>
</g>
<mask id="mask121_577_42499" style="mask-type:luminance" maskUnits="userSpaceOnUse" x="166" y="43" width="13" height="13">
<path d="M166.16 45.4236L176.668 43.666L178.419 54.1352L167.911 55.8927L166.16 45.4236Z" fill="white"/>
</mask>
<g mask="url(#mask121_577_42499)">
<mask id="mask122_577_42499" style="mask-type:luminance" maskUnits="userSpaceOnUse" x="166" y="45" width="11" height="10">
<path d="M166.74 45.97L176.551 45.6778L176.806 54.5194L166.995 54.8116L166.74 45.97Z" fill="white"/>
</mask>
<g mask="url(#mask122_577_42499)">
<mask id="mask123_577_42499" style="mask-type:luminance" maskUnits="userSpaceOnUse" x="166" y="45" width="11" height="10">
<path d="M172.865 54.0414L176.416 47.4115C176.612 47.0494 176.595 46.6108 176.378 46.2617C176.161 45.9092 175.772 45.7046 175.358 45.7141L167.916 45.9359C167.503 45.9489 167.127 46.18 166.931 46.5421C166.735 46.9042 166.745 47.3439 166.962 47.6931L170.885 54.0994C171.098 54.4457 171.481 54.6549 171.89 54.6425C172.299 54.6301 172.672 54.3996 172.865 54.0414Z" fill="white"/>
</mask>
<g mask="url(#mask123_577_42499)">
<mask id="mask124_577_42499" style="mask-type:luminance" maskUnits="userSpaceOnUse" x="166" y="43" width="13" height="13">
<path d="M176.668 43.6647L166.16 45.4222L167.911 55.8914L178.419 54.1338L176.668 43.6647Z" fill="white"/>
</mask>
<g mask="url(#mask124_577_42499)">
<mask id="mask125_577_42499" style="mask-type:luminance" maskUnits="userSpaceOnUse" x="166" y="44" width="12" height="12">
<path d="M166.456 45.9125L176.335 44.2602L177.946 53.891L168.067 55.5433L166.456 45.9125Z" fill="white"/>
</mask>
<g mask="url(#mask125_577_42499)">
<mask id="mask126_577_42499" style="mask-type:luminance" maskUnits="userSpaceOnUse" x="166" y="45" width="11" height="10">
<path d="M166.741 45.9694L176.552 45.6772L176.807 54.5188L166.996 54.811L166.741 45.9694Z" fill="white"/>
</mask>
<g mask="url(#mask126_577_42499)">
<mask id="mask127_577_42499" style="mask-type:luminance" maskUnits="userSpaceOnUse" x="166" y="45" width="11" height="10">
<path d="M172.866 54.0403L176.417 47.4104C176.613 47.0483 176.596 46.6097 176.379 46.2606C176.162 45.9081 175.772 45.7035 175.359 45.713L167.917 45.9348C167.504 45.9478 167.128 46.1789 166.932 46.541C166.736 46.9031 166.746 47.3428 166.963 47.692L170.886 54.0983C171.098 54.4446 171.482 54.6538 171.891 54.6414C172.3 54.629 172.673 54.3985 172.866 54.0403Z" fill="white"/>
</mask>
<g mask="url(#mask127_577_42499)">
<path d="M165.922 45.9935L177.374 45.6511L177.66 55.6226L166.208 55.965L165.922 45.9935Z" fill="#402300"/>
</g>
</g>
</g>
</g>
</g>
</g>
</g>
<mask id="mask128_577_42499" style="mask-type:luminance" maskUnits="userSpaceOnUse" x="168" y="49" width="8" height="11">
<path d="M168.787 50.3655L174.041 49.4867L175.5 58.211L170.246 59.0898L168.787 50.3655Z" fill="white"/>
</mask>
<g mask="url(#mask128_577_42499)">
<mask id="mask129_577_42499" style="mask-type:luminance" maskUnits="userSpaceOnUse" x="170" y="50" width="4" height="8">
<path d="M170.11 50.4648L173.437 50.3638L173.644 57.6335L170.316 57.7311L170.11 50.4648Z" fill="white"/>
</mask>
<g mask="url(#mask129_577_42499)">
<mask id="mask130_577_42499" style="mask-type:luminance" maskUnits="userSpaceOnUse" x="168" y="49" width="8" height="11">
<path d="M174.042 49.4874L168.788 50.3662L170.247 59.0905L175.501 58.2117L174.042 49.4874Z" fill="white"/>
</mask>
<g mask="url(#mask130_577_42499)">
<mask id="mask131_577_42499" style="mask-type:luminance" maskUnits="userSpaceOnUse" x="168" y="49" width="7" height="10">
<path d="M168.946 50.4484L173.359 49.7103L174.689 57.6644L170.277 58.4025L168.946 50.4484Z" fill="white"/>
</mask>
<g mask="url(#mask131_577_42499)">
<mask id="mask132_577_42499" style="mask-type:luminance" maskUnits="userSpaceOnUse" x="170" y="50" width="4" height="8">
<path d="M170.111 50.4652L173.438 50.3641L173.644 57.6339L170.317 57.7315L170.111 50.4652Z" fill="white"/>
</mask>
<g mask="url(#mask132_577_42499)">
<path d="M170.111 50.4652L173.438 50.3641L173.644 57.6339L170.317 57.7315L170.111 50.4652Z" fill="#402300"/>
</g>
</g>
</g>
</g>
</g>
<path d="M152.901 21.462C168.212 12.2478 182.295 13.823 195.149 26.1875" stroke="#AD6747" stroke-width="4"/>
<mask id="mask133_577_42499" style="mask-type:luminance" maskUnits="userSpaceOnUse" x="193" y="20" width="17" height="18">
<path d="M193.015 22.9962L207.026 20.6528L209.506 35.4841L195.495 37.8275L193.015 22.9962Z" fill="white"/>
</mask>
<g mask="url(#mask133_577_42499)">
<mask id="mask134_577_42499" style="mask-type:luminance" maskUnits="userSpaceOnUse" x="192" y="19" width="19" height="19">
<path d="M199.978 19.4898L210.565 27.7068L202.645 37.8317L192.058 29.6147L199.978 19.4898Z" fill="white"/>
</mask>
<g mask="url(#mask134_577_42499)">
<mask id="mask135_577_42499" style="mask-type:luminance" maskUnits="userSpaceOnUse" x="194" y="22" width="14" height="14">
<path d="M205.281 23.6008C207.302 25.1721 208.088 27.8537 207.228 30.2606L206.396 32.6033C205.87 34.0821 204.664 35.2192 203.155 35.6572C201.646 36.0987 200.016 35.7899 198.779 34.8267L195.943 32.6281C194.702 31.6655 194.005 30.1671 194.063 28.6019C194.125 27.0362 194.935 25.5939 196.245 24.7232L198.321 23.346C200.458 21.9306 203.26 22.033 205.281 23.6008Z" fill="white"/>
</mask>
<g mask="url(#mask135_577_42499)">
<mask id="mask136_577_42499" style="mask-type:luminance" maskUnits="userSpaceOnUse" x="193" y="20" width="17" height="18">
<path d="M207.028 20.6541L193.017 22.9976L195.497 37.8288L209.508 35.4854L207.028 20.6541Z" fill="white"/>
</mask>
<g mask="url(#mask136_577_42499)">
<mask id="mask137_577_42499" style="mask-type:luminance" maskUnits="userSpaceOnUse" x="193" y="20" width="17" height="18">
<path d="M193.018 22.998L206.96 20.6661L209.336 34.8703L195.393 37.2023L193.018 22.998Z" fill="white"/>
</mask>
<g mask="url(#mask137_577_42499)">
<mask id="mask138_577_42499" style="mask-type:luminance" maskUnits="userSpaceOnUse" x="192" y="19" width="19" height="19">
<path d="M199.981 19.4916L210.568 27.7086L202.648 37.8335L192.061 29.6165L199.981 19.4916Z" fill="white"/>
</mask>
<g mask="url(#mask138_577_42499)">
<mask id="mask139_577_42499" style="mask-type:luminance" maskUnits="userSpaceOnUse" x="194" y="22" width="14" height="14">
<path d="M205.283 23.6045C207.304 25.1757 208.09 27.8574 207.23 30.2643L206.398 32.607C205.872 34.0858 204.666 35.2228 203.157 35.6609C201.648 36.1024 200.018 35.7936 198.781 34.8304L195.945 32.6318C194.704 31.6692 194.007 30.1708 194.065 28.6056C194.127 27.0398 194.937 25.5976 196.247 24.7269L198.323 23.3496C200.46 21.9342 203.262 22.0366 205.283 23.6045Z" fill="white"/>
</mask>
<g mask="url(#mask139_577_42499)">
<path d="M198.514 18.3528L212.036 28.8501L204.115 38.975L190.594 28.4777L198.514 18.3528Z" fill="#865139"/>
</g>
</g>
</g>
</g>
</g>
</g>
</g>
<path d="M187.531 165.468C192.007 171.333 196.487 177.198 200.967 183.063" stroke="#AD6747" stroke-width="4"/>
<path d="M180.389 164.888C178.451 172.072 176.515 179.255 174.577 186.438" stroke="#AD6747" stroke-width="4"/>
<mask id="mask140_577_42499" style="mask-type:luminance" maskUnits="userSpaceOnUse" x="169" y="160" width="29" height="10">
<path d="M196.625 161.644L197.066 164.278L170.208 168.77L169.768 166.136L196.625 161.644Z" fill="white" stroke="white" stroke-width="1.33333"/>
</mask>
<g mask="url(#mask140_577_42499)">
<mask id="mask141_577_42499" style="mask-type:luminance" maskUnits="userSpaceOnUse" x="169" y="161" width="29" height="8">
<path d="M170.626 166.01C179.165 165.074 185.08 163.951 189.11 163.16C191.149 162.76 192.675 162.451 193.822 162.29C193.955 162.271 194.082 162.254 194.202 162.24C194.164 162.293 194.129 162.347 194.096 162.401C193.971 162.604 193.829 162.899 193.837 163.226L193.837 163.226C193.842 163.558 194.02 163.848 194.146 164.025C194.257 164.179 194.392 164.33 194.534 164.47L193.369 164.748C191.248 165.234 186.222 166.142 181.366 166.803C178.939 167.133 176.567 167.4 174.63 167.523C173.661 167.584 172.81 167.609 172.121 167.589C171.414 167.568 170.939 167.501 170.684 167.412L170.681 167.411L170.464 167.322C170.039 167.12 169.923 166.862 169.908 166.77C169.915 166.757 169.925 166.742 169.937 166.723C170.003 166.623 170.11 166.497 170.242 166.364C170.37 166.235 170.502 166.116 170.605 166.029C170.612 166.022 170.619 166.016 170.626 166.01ZM196.09 162.345C196.292 162.464 196.48 162.644 196.622 162.851C196.767 163.061 196.823 163.234 196.84 163.33C196.839 163.335 196.839 163.342 196.838 163.348C196.834 163.367 196.828 163.385 196.823 163.404C196.814 163.419 196.805 163.438 196.79 163.46C196.728 163.547 196.636 163.648 196.525 163.746C196.413 163.843 196.297 163.923 196.199 163.976C196.17 163.991 196.145 163.998 196.127 164.006C196.096 163.992 196.052 163.972 195.996 163.938C195.865 163.858 195.713 163.744 195.57 163.615C195.426 163.485 195.308 163.355 195.23 163.247C195.211 163.221 195.199 163.198 195.188 163.181C195.198 163.162 195.209 163.135 195.23 163.102C195.297 162.992 195.405 162.861 195.538 162.732C195.671 162.604 195.812 162.496 195.935 162.423C196.016 162.374 196.067 162.353 196.09 162.345Z" fill="white" stroke="white" stroke-width="1.33333"/>
</mask>
<g mask="url(#mask141_577_42499)">
<mask id="mask142_577_42499" style="mask-type:luminance" maskUnits="userSpaceOnUse" x="168" y="160" width="30" height="11">
<path d="M196.549 161.191L197.204 165.11L169.622 169.724L168.966 165.805L196.549 161.191Z" fill="white" stroke="white" stroke-width="1.33333"/>
</mask>
<g mask="url(#mask142_577_42499)">
<mask id="mask143_577_42499" style="mask-type:luminance" maskUnits="userSpaceOnUse" x="169" y="160" width="29" height="10">
<path d="M196.625 161.644L197.066 164.278L170.208 168.77L169.768 166.136L196.625 161.644Z" fill="white" stroke="white" stroke-width="1.33333"/>
</mask>
<g mask="url(#mask143_577_42499)">
<mask id="mask144_577_42499" style="mask-type:luminance" maskUnits="userSpaceOnUse" x="169" y="161" width="29" height="8">
<path d="M170.626 166.01C179.165 165.074 185.08 163.951 189.11 163.16C191.149 162.76 192.675 162.451 193.822 162.29C193.955 162.271 194.082 162.254 194.202 162.24C194.164 162.293 194.129 162.347 194.096 162.402C193.971 162.604 193.829 162.899 193.837 163.226L193.837 163.226C193.842 163.558 194.02 163.848 194.146 164.025C194.257 164.179 194.392 164.33 194.534 164.47L193.369 164.748C191.248 165.234 186.222 166.142 181.366 166.803C178.939 167.133 176.567 167.4 174.63 167.523C173.661 167.584 172.81 167.609 172.121 167.589C171.414 167.568 170.939 167.502 170.684 167.413L170.681 167.411L170.464 167.323C170.039 167.12 169.923 166.862 169.908 166.77C169.915 166.757 169.925 166.742 169.937 166.724C170.003 166.623 170.11 166.498 170.242 166.365C170.37 166.235 170.502 166.117 170.605 166.029C170.612 166.022 170.619 166.016 170.626 166.01ZM196.09 162.345C196.292 162.464 196.48 162.644 196.622 162.851C196.767 163.061 196.823 163.234 196.84 163.33C196.839 163.336 196.839 163.342 196.838 163.348C196.834 163.367 196.828 163.385 196.823 163.404C196.814 163.419 196.805 163.438 196.79 163.46C196.728 163.547 196.636 163.648 196.525 163.746C196.413 163.843 196.297 163.923 196.199 163.976C196.17 163.991 196.145 163.999 196.127 164.007C196.096 163.992 196.052 163.972 195.996 163.938C195.865 163.858 195.713 163.744 195.57 163.615C195.426 163.486 195.308 163.355 195.23 163.247C195.211 163.221 195.199 163.198 195.188 163.181C195.198 163.162 195.209 163.135 195.23 163.102C195.297 162.992 195.405 162.861 195.538 162.733C195.671 162.605 195.812 162.496 195.935 162.423C196.016 162.374 196.067 162.353 196.09 162.345Z" fill="white" stroke="white" stroke-width="1.33333"/>
</mask>
<g mask="url(#mask144_577_42499)">
<path d="M196.55 161.192L197.205 165.111L169.623 169.724L168.967 165.805L196.55 161.192Z" fill="#865139" stroke="#865139" stroke-width="1.33333"/>
</g>
</g>
</g>
</g>
</g>
<mask id="mask145_577_42499" style="mask-type:luminance" maskUnits="userSpaceOnUse" x="199" y="177" width="29" height="9">
<path d="M199.017 181.93L227.199 177.216L227.86 181.166L199.677 185.88L199.017 181.93Z" fill="white"/>
</mask>
<g mask="url(#mask145_577_42499)">
<mask id="mask146_577_42499" style="mask-type:luminance" maskUnits="userSpaceOnUse" x="199" y="177" width="29" height="8">
<path d="M200.376 181.708C217.616 179.834 224.195 177.185 226.219 177.992C227.017 178.328 227.578 179.243 227.532 179.79C227.479 180.269 226.592 181.023 226.119 181.035C225.639 180.979 224.533 180.022 224.521 179.555C224.502 179.018 225.551 178.037 226.089 178.014C226.547 177.937 227.346 178.676 227.488 179.125C227.622 179.505 227.522 180.128 227.183 180.521C226.603 181.088 225.289 181.307 223.536 181.737C219.246 182.721 203.353 185.379 200.486 184.38C199.698 184.109 199.271 183.575 199.26 183.107C199.183 182.647 200.376 181.708 200.376 181.708Z" fill="white"/>
</mask>
<g mask="url(#mask146_577_42499)">
<mask id="mask147_577_42499" style="mask-type:luminance" maskUnits="userSpaceOnUse" x="198" y="176" width="31" height="11">
<path d="M227.746 176.822L198.849 181.656L199.578 186.018L228.476 181.184L227.746 176.822Z" fill="white"/>
</mask>
<g mask="url(#mask147_577_42499)">
<mask id="mask148_577_42499" style="mask-type:luminance" maskUnits="userSpaceOnUse" x="199" y="177" width="29" height="9">
<path d="M199.017 181.93L227.199 177.217L227.86 181.166L199.677 185.88L199.017 181.93Z" fill="white"/>
</mask>
<g mask="url(#mask148_577_42499)">
<mask id="mask149_577_42499" style="mask-type:luminance" maskUnits="userSpaceOnUse" x="199" y="177" width="29" height="8">
<path d="M200.375 181.708C217.615 179.834 224.194 177.185 226.218 177.992C227.016 178.328 227.577 179.243 227.531 179.79C227.478 180.269 226.591 181.023 226.118 181.036C225.638 180.979 224.532 180.022 224.52 179.555C224.501 179.018 225.55 178.037 226.088 178.014C226.546 177.937 227.345 178.676 227.487 179.125C227.621 179.506 227.521 180.128 227.182 180.521C226.602 181.088 225.288 181.308 223.535 181.737C219.245 182.721 203.352 185.379 200.485 184.381C199.697 184.109 199.27 183.575 199.259 183.107C199.182 182.647 200.375 181.708 200.375 181.708Z" fill="white"/>
</mask>
<g mask="url(#mask149_577_42499)">
<path d="M227.745 176.824L198.848 181.657L199.577 186.019L228.475 181.186L227.745 176.824Z" fill="#865139"/>
</g>
</g>
</g>
</g>
</g>
<mask id="mask150_577_42499" style="mask-type:luminance" maskUnits="userSpaceOnUse" x="147" y="184" width="30" height="10">
<path d="M147.22 189.052L175.402 184.338L176.063 188.288L147.88 193.002L147.22 189.052Z" fill="white"/>
</mask>
<g mask="url(#mask150_577_42499)">
<mask id="mask151_577_42499" style="mask-type:luminance" maskUnits="userSpaceOnUse" x="147" y="184" width="29" height="8">
<path d="M148.579 188.832C165.819 186.957 172.395 184.309 174.422 185.116C175.22 185.451 175.777 186.367 175.735 186.914C175.681 187.392 174.795 188.146 174.322 188.159C173.842 188.103 172.736 187.146 172.724 186.678C172.702 186.142 173.754 185.161 174.292 185.137C174.75 185.061 175.549 185.799 175.691 186.249C175.821 186.63 175.725 187.252 175.386 187.645C174.806 188.211 173.492 188.431 171.739 188.861C167.448 189.845 151.556 192.503 148.689 191.504C147.898 191.233 147.471 190.699 147.463 190.231C147.386 189.771 148.579 188.832 148.579 188.832Z" fill="white"/>
</mask>
<g mask="url(#mask151_577_42499)">
<mask id="mask152_577_42499" style="mask-type:luminance" maskUnits="userSpaceOnUse" x="146" y="183" width="31" height="11">
<path d="M175.788 183.72L146.891 188.553L147.766 193.788L176.664 188.955L175.788 183.72Z" fill="white"/>
</mask>
<g mask="url(#mask152_577_42499)">
<mask id="mask153_577_42499" style="mask-type:luminance" maskUnits="userSpaceOnUse" x="147" y="184" width="30" height="10">
<path d="M147.22 189.052L175.402 184.338L176.063 188.288L147.88 193.002L147.22 189.052Z" fill="white"/>
</mask>
<g mask="url(#mask153_577_42499)">
<mask id="mask154_577_42499" style="mask-type:luminance" maskUnits="userSpaceOnUse" x="147" y="184" width="29" height="8">
<path d="M148.579 188.832C165.819 186.957 172.395 184.309 174.422 185.115C175.22 185.451 175.777 186.367 175.735 186.913C175.681 187.392 174.795 188.146 174.322 188.159C173.842 188.102 172.736 187.145 172.724 186.678C172.702 186.142 173.754 185.16 174.292 185.137C174.75 185.06 175.549 185.799 175.691 186.248C175.821 186.629 175.725 187.252 175.386 187.644C174.806 188.211 173.492 188.431 171.739 188.861C167.448 189.844 151.556 192.503 148.689 191.504C147.898 191.233 147.471 190.699 147.463 190.23C147.386 189.77 148.579 188.832 148.579 188.832Z" fill="white"/>
</mask>
<g mask="url(#mask154_577_42499)">
<path d="M175.787 183.719L146.89 188.553L147.765 193.787L176.663 188.954L175.787 183.719Z" fill="#865139"/>
</g>
</g>
</g>
</g>
</g>
</g>
<mask id="mask155_577_42499" style="mask-type:luminance" maskUnits="userSpaceOnUse" x="0" y="81" width="538" height="196">
<path d="M537.957 81H0V277H537.957V81Z" fill="white"/>
</mask>
<g mask="url(#mask155_577_42499)">
<mask id="mask156_577_42499" style="mask-type:luminance" maskUnits="userSpaceOnUse" x="0" y="81" width="538" height="196">
<path d="M0.418945 81.8063H537.375V276.256H0.418945V81.8063Z" fill="white"/>
</mask>
<g mask="url(#mask156_577_42499)">
<mask id="mask157_577_42499" style="mask-type:luminance" maskUnits="userSpaceOnUse" x="0" y="81" width="538" height="196">
<path d="M537.957 81.6951H0V276.305H537.957V81.6951Z" fill="white"/>
</mask>
<g mask="url(#mask157_577_42499)">
<mask id="mask158_577_42499" style="mask-type:luminance" maskUnits="userSpaceOnUse" x="9" y="81" width="529" height="187">
<path d="M9.03516 81.8063H537.373V267.964H9.03516V81.8063Z" fill="white"/>
</mask>
<g mask="url(#mask158_577_42499)">
<mask id="mask159_577_42499" style="mask-type:luminance" maskUnits="userSpaceOnUse" x="-380" y="-283" width="1298" height="924">
<path d="M917.531 -282.192H-379.572V640.192H917.531V-282.192Z" fill="black" fill-opacity="0.1"/>
</mask>
<g mask="url(#mask159_577_42499)">
<mask id="mask160_577_42499" style="mask-type:luminance" maskUnits="userSpaceOnUse" x="9" y="81" width="529" height="187">
<path d="M537.957 81.6949H9.03516V267.964H537.957V81.6949Z" fill="white"/>
</mask>
<g mask="url(#mask160_577_42499)">
<mask id="mask161_577_42499" style="mask-type:luminance" maskUnits="userSpaceOnUse" x="9" y="81" width="529" height="187">
<path d="M9.42383 81.8062H537.263V267.269H9.42383V81.8062Z" fill="white"/>
</mask>
<g mask="url(#mask161_577_42499)">
<path d="M266.611 81.8036C204.115 81.8036 141.654 86.7584 80.9605 96.5324C40.9879 102.967 11.0145 136.939 9.69497 177.309C9.65425 178.503 9.62438 179.738 9.60809 180.982C9.27144 203.839 17.9295 225.399 33.9778 241.681C41.7969 249.617 50.9383 255.853 61.1493 260.221C71.7052 264.736 82.8963 267.028 94.4078 267.028C96.7916 267.028 99.2079 266.925 101.594 266.726C161.091 261.75 220.242 259.225 277.4 259.225C334.559 259.225 390.137 261.696 444.423 266.566C446.992 266.797 449.595 266.911 452.156 266.911C476.46 266.911 499.66 256.404 515.811 238.086C523.644 229.2 529.427 219.013 533 207.814C536.738 196.096 537.843 183.892 536.279 171.545C536.214 171.031 536.146 170.526 536.081 170.024C533.6 151.809 525.487 135.245 512.613 122.113C499.747 108.989 483.351 100.54 465.198 97.6835C398.315 87.1467 331.502 81.8063 266.619 81.8063L266.611 81.8036Z" fill="black"/>
</g>
</g>
</g>
</g>
<mask id="mask162_577_42499" style="mask-type:luminance" maskUnits="userSpaceOnUse" x="0" y="90" width="529" height="187">
<path d="M0.418945 90.7305H528.228V276.191H0.418945V90.7305Z" fill="white"/>
</mask>
<g mask="url(#mask162_577_42499)">
<path d="M257.445 90.9695C194.949 90.9695 132.485 95.9243 71.7945 105.698C31.8191 112.135 1.84572 146.108 0.526242 186.474C0.485518 187.669 0.458368 188.907 0.442078 190.148C0.10542 213.008 8.7635 234.565 24.809 250.849C32.6309 258.783 41.7723 265.022 51.9833 269.387C62.5392 273.902 73.7276 276.194 85.2418 276.194C87.6256 276.194 90.0419 276.093 92.4257 275.892C151.925 270.919 211.073 268.394 268.234 268.394C325.393 268.394 380.969 270.861 435.257 275.732C437.826 275.963 440.427 276.08 442.99 276.08C467.294 276.08 490.494 265.57 506.642 247.255C514.475 238.366 520.261 228.179 523.834 216.98C527.569 205.262 528.674 193.058 527.111 180.711C527.048 180.197 526.98 179.695 526.912 179.19C524.431 160.978 516.319 144.411 503.444 131.282C490.581 118.157 474.182 109.706 456.032 106.849C389.149 96.3153 322.336 90.9722 257.453 90.9722L257.445 90.9695Z" fill="#FFFDFF"/>
</g>
<path d="M453.874 120.514C325.374 100.276 198.688 99.2828 73.994 119.357C40.5427 124.747 15.4644 153.067 14.3567 186.928C14.3187 188.065 14.2916 189.206 14.2753 190.351C13.6644 232.309 49.4533 265.603 91.2695 262.108C209.626 252.207 324.774 251.933 436.49 261.951C481.6 265.996 519.064 227.381 513.381 182.445C513.324 181.978 513.262 181.514 513.199 181.05C508.97 149.993 484.836 125.393 453.877 120.514H453.874Z" fill="#FFD058"/>
</g>
</g>
<path d="M68.628 217.743C72.9421 216.947 75.9367 216.027 77.6092 214.984C79.2816 213.942 80.1015 212.079 80.0744 209.391L79.868 207.914C79.4038 205.389 78.3286 203.777 76.6426 203.082C74.9539 202.387 72.8525 202.221 70.333 202.582C67.8135 202.938 65.9782 203.201 64.827 203.375C64.1809 203.492 63.6813 203.57 63.3284 203.614C62.9808 203.657 62.7528 203.668 62.6442 203.646C62.5356 203.625 62.465 203.554 62.4379 203.429C62.3727 202.604 62.0197 200.361 61.3844 196.696C60.7546 193.025 60.2143 189.982 59.7663 187.563C59.3238 185.138 59.0061 183.184 58.8106 181.698L58.4523 179.744C58.3871 179.174 58.3165 178.707 58.2459 178.343C58.1808 177.973 58.1482 177.664 58.1482 177.409L57.9853 176.551L58.0396 176.54C57.7925 175.411 57.3581 174.243 56.7364 173.032C56.1119 171.816 55.1834 170.833 53.9454 170.078C52.7128 169.318 50.9806 169.144 48.7435 169.557C46.7534 169.926 45.2792 170.662 44.3235 171.762C43.3678 172.856 42.7868 174.086 42.575 175.454C42.366 176.817 42.3741 178.109 42.5968 179.331L49.0476 214.289C49.4304 216.369 50.4648 217.884 52.1535 218.839C53.8476 219.79 55.4902 220.118 57.0839 219.828L68.628 217.743Z" fill="#FFFDFF"/>
<path d="M97.5133 213.288C99.2726 213.027 101.331 212.674 103.693 212.224C105.4 211.936 107.293 211.624 109.372 211.29C111.457 210.95 113.173 210.041 114.52 208.564C115.867 207.081 116.372 205.214 116.04 202.96C115.698 200.718 114.829 198.926 113.434 197.584C112.044 196.246 110.428 195.592 108.59 195.619C104.868 196.178 101.939 196.596 99.8047 196.879C99.5142 196.873 99.3187 196.754 99.2183 196.52C99.1232 196.289 99.0472 195.966 98.9902 195.554C98.9251 195.141 98.9169 194.848 98.9685 194.674C99.0255 194.5 99.2346 194.367 99.5984 194.272C99.9595 194.172 100.568 194.041 101.423 193.881L104.225 193.316C104.76 193.238 105.509 193.126 106.473 192.98C107.434 192.836 108.384 192.545 109.318 192.111C111.43 191.128 112.19 188.647 111.599 184.672C111.338 182.956 110.817 181.74 110.035 181.023C108.732 179.88 106.831 179.497 104.333 179.872C101.632 180.279 99.8481 180.518 98.9794 180.589C98.1106 180.654 97.5811 180.597 97.3938 180.415C97.2038 180.236 97.0789 179.942 97.0137 179.535L96.9811 179.285L96.7639 178.319C96.7259 178.037 96.8834 177.825 97.2309 177.678C98.0563 177.556 99.2508 177.314 100.815 176.951C102.883 176.473 104.719 176.114 106.321 175.875C108.159 175.593 109.454 174.92 110.209 173.855C111.381 172.169 111.789 170.16 111.436 167.828C111.11 165.656 110.385 164.027 109.264 162.941C107.135 161.008 104.105 160.335 100.174 160.921L85.4479 163.137C81.56 163.978 79.6351 165.922 79.6704 168.969C79.6867 169.628 79.9582 171.7 80.4849 175.18C80.7673 177.065 81.0686 178.987 81.3863 180.947C81.6985 182.902 81.9673 184.558 82.1899 185.91C82.4152 187.265 82.5483 187.938 82.5917 187.93L84.4053 200.451C85.0406 204.665 85.7411 207.771 86.5013 209.769C87.2615 211.767 88.4669 212.978 90.1176 213.396C91.7684 213.817 94.2336 213.782 97.5133 213.288Z" fill="#FFFDFF"/>
<path d="M127.029 208.226C128.663 208.039 130.04 207.368 131.156 206.217C132.277 205.066 133.135 203.608 133.729 201.841C133.778 201.588 133.876 201.368 134.023 201.178C134.167 200.991 134.753 200.839 135.782 200.722L140.343 200.266L145.469 199.691C146.46 199.576 147.19 199.97 147.663 200.874C148.632 202.346 149.794 203.391 151.149 204.013C152.509 204.629 153.847 204.86 155.167 204.708C156.397 204.572 157.491 204.154 158.447 203.459C159.408 202.764 160.119 201.83 160.575 200.657C160.879 199.753 160.982 198.865 160.89 197.996C160.765 196.927 160.206 195.45 159.207 193.566C157.817 190.894 155.406 185.82 151.974 178.34C149.547 173.165 147.446 168.813 145.665 165.286C143.889 161.762 142.396 159.378 141.179 158.14C139.464 156.636 137.596 155.998 135.576 156.229C133.852 156.425 132.367 157.261 131.123 158.738C130.906 159.007 130.71 159.297 130.537 159.607C130.189 160.236 129.619 161.99 128.832 164.863C128.433 166.152 125.335 177.523 119.536 198.974C119.248 200.081 119.164 201.173 119.286 202.243C119.432 203.562 119.888 204.838 120.654 206.076C121.314 207.083 122.039 207.7 122.837 207.922C123.632 208.148 124.385 208.259 125.096 208.259L125.595 208.27C126.095 208.292 126.573 208.275 127.029 208.226ZM138.921 187.755C138.225 187.837 137.867 187.793 137.845 187.625C138.011 187.191 138.239 186.626 138.53 185.931C138.825 185.236 139.045 184.606 139.192 184.041C139.314 184.028 139.42 184.039 139.507 184.074C139.955 185.024 140.37 185.787 140.756 186.365C141.065 186.786 141.228 187.079 141.245 187.245C141.258 187.332 141.223 187.381 141.136 187.386L138.921 187.755Z" fill="#FFFDFF"/>
<path d="M173.113 203.95C182.475 203.234 189.211 199.932 193.324 194.046C196.878 189.007 198.395 182.877 197.874 175.649C197.562 171.566 196.435 167.694 194.497 164.029C192.555 160.359 189.667 157.47 185.83 155.363C182 153.251 177.088 152.382 171.093 152.757C168.949 152.925 167.089 153.97 165.511 155.895C163.942 157.823 163.174 160.065 163.209 162.628C163.326 165.742 163.671 171.053 164.241 178.56L164.936 186.651C165.349 192.01 165.598 195.018 165.685 195.675C165.908 196.908 166.361 198.17 167.043 199.465C167.721 200.755 168.596 201.849 169.66 202.745C170.724 203.641 171.875 204.043 173.113 203.95ZM179.662 183.154C179.537 183.162 179.477 183.143 179.477 183.099C179.469 182.608 179.206 178.959 178.685 172.152C178.72 172.022 178.799 171.954 178.923 171.946C179.211 171.924 179.629 172.082 180.172 172.413C180.721 172.747 181.231 173.309 181.704 174.096C182.173 174.886 182.464 176.005 182.572 177.452C182.681 178.815 182.54 179.915 182.149 180.754C181.763 181.595 181.305 182.198 180.77 182.567C180.232 182.936 179.863 183.132 179.662 183.154Z" fill="#FFFDFF"/>
<path d="M217.366 201.324C219.139 201.251 221.224 201.12 223.621 200.933C225.359 200.824 227.275 200.716 229.377 200.607C231.484 200.499 233.286 199.782 234.785 198.457C236.284 197.126 236.982 195.324 236.881 193.049C236.786 190.784 236.121 188.908 234.883 187.423C233.645 185.941 232.108 185.115 230.278 184.947C226.513 185.107 223.559 185.208 221.417 185.251C221.126 185.224 220.944 185.088 220.874 184.849C220.8 184.605 220.754 184.274 220.732 183.861C220.716 183.443 220.746 183.15 220.819 182.981C220.89 182.816 221.112 182.705 221.482 182.645C221.851 182.58 222.465 182.512 223.328 182.438L226.184 182.189C226.719 182.167 227.471 182.14 228.443 182.102C229.42 182.058 230.398 181.871 231.375 181.537C233.574 180.793 234.592 178.409 234.427 174.391C234.353 172.654 233.971 171.388 233.276 170.59C232.103 169.309 230.251 168.722 227.726 168.831C224.995 168.948 223.198 168.994 222.329 168.972C221.465 168.95 220.95 168.842 220.776 168.646C220.602 168.445 220.507 168.136 220.493 167.723L220.483 167.473L220.374 166.485C220.366 166.197 220.542 166.002 220.906 165.899C221.731 165.863 222.942 165.752 224.544 165.562C226.651 165.31 228.511 165.147 230.126 165.073C231.986 164.995 233.352 164.463 234.22 163.477C235.559 161.929 236.181 159.975 236.088 157.613C235.993 155.427 235.442 153.736 234.438 152.541C232.532 150.385 229.594 149.389 225.619 149.555L210.741 150.184C206.788 150.597 204.665 152.321 204.377 155.354C204.318 156.022 204.366 158.109 204.518 161.62C204.597 163.526 204.687 165.464 204.79 167.441C204.899 169.417 204.988 171.09 205.061 172.458C205.14 173.827 205.203 174.511 205.246 174.511L205.713 187.152C205.887 191.417 206.245 194.585 206.788 196.654C207.337 198.717 208.409 200.048 210.003 200.64C211.594 201.24 214.048 201.468 217.366 201.324Z" fill="#FFFDFF"/>
<path d="M252.022 199.376C253.426 199.36 254.753 198.966 256.008 198.192C257.267 197.418 258.267 196.245 259.005 194.674C259.657 192.762 259.977 191 259.972 189.385L259.961 188.646C259.961 188.025 259.977 187.506 260.015 187.093L260.33 186.974C260.786 187.756 262.013 189.382 264.011 191.85C266.14 194.521 267.742 196.332 268.822 197.28C270.443 198.474 272.04 199.066 273.612 199.061C275.436 199.045 277.035 198.385 278.412 197.074C279.786 195.765 280.47 194.239 280.464 192.502C280.456 191.467 280.141 190.389 279.519 189.265C277.383 186.306 275.775 184.188 274.698 182.912C273.487 181.473 272.884 180.523 272.884 180.067C272.884 179.779 273.264 179.323 274.024 178.699C274.785 178.077 275.841 176.977 277.195 175.397C279.416 172.443 280.519 169.185 280.497 165.623C280.475 161.947 279.221 158.472 276.739 155.198C274.263 151.918 270.495 149.779 265.434 148.779C262.985 148.418 260.542 148.245 258.104 148.258C256.619 148.266 255.131 148.318 253.64 148.41C251.908 148.505 250.331 148.907 248.905 149.616C247.485 150.327 246.334 151.337 245.452 152.646C244.567 153.957 244.13 155.605 244.138 157.587V178.069C244.143 179.35 244.16 180.273 244.181 180.838C244.208 181.397 244.225 181.853 244.225 182.206C244.225 182.554 244.236 183.007 244.257 183.564C244.284 184.123 244.314 186.656 244.344 191.166C244.344 191.456 244.404 191.836 244.529 192.306C244.659 192.778 244.768 193.202 244.855 193.577C245.36 195.561 246.299 197.027 247.667 197.975C249.036 198.917 250.485 199.381 252.022 199.376ZM261.416 171.694C260.995 171.623 260.781 170.613 260.775 168.664C260.753 165.688 260.971 164.198 261.427 164.19H261.557C262.135 164.19 262.654 164.632 263.11 165.515C263.572 166.4 263.805 167.192 263.805 167.893C263.811 168.849 263.599 169.704 263.164 170.456C262.735 171.202 262.154 171.615 261.416 171.694Z" fill="#FFFDFF"/>
<path d="M304.887 199.253C307.45 199.332 309.649 199.191 311.489 198.83C315.334 197.925 318.247 196.079 320.232 193.291C322.222 190.497 323.267 187.446 323.37 184.136C323.449 181.655 323.001 179.225 322.024 176.849C321.046 174.476 319.529 172.451 317.473 170.778C317.153 170.518 316.911 170.306 316.746 170.138C316.585 169.964 316.509 169.774 316.518 169.562C316.523 169.318 316.659 168.948 316.919 168.454C317.815 166.551 318.293 164.648 318.353 162.742C318.445 159.804 317.628 157.146 315.899 154.771C314.166 152.398 311.707 150.704 308.514 149.688C306.912 149.227 305.326 148.969 303.757 148.917C302.677 148.882 301.599 148.89 300.521 148.939C299.44 148.991 298.306 149.02 297.111 149.026C295.083 149.042 293.31 149.512 291.79 150.438C290.269 151.366 289.292 152.854 288.857 154.901C288.662 155.938 288.396 161.021 288.065 170.148L287.869 174.308L287.37 191.792C287.296 194.154 287.864 195.903 289.075 197.038C290.283 198.175 291.632 198.767 293.125 198.819L304.887 199.253ZM303.703 185.928C303.491 185.928 303.391 185.803 303.399 185.548L303.518 179.955C303.532 179.42 303.564 179.01 303.616 178.728C303.665 178.44 303.814 178.299 304.061 178.304C304.849 178.369 305.479 178.766 305.951 179.488C306.429 180.205 306.651 181.06 306.624 182.051C306.594 182.841 306.369 183.59 305.951 184.299C305.538 185.01 304.868 185.534 303.942 185.874L303.703 185.928ZM304.05 166.999L304.235 161.363C305.56 161.406 306.19 162.381 306.125 164.284C306.108 164.944 305.964 165.566 305.69 166.152C305.421 166.738 304.876 167.021 304.05 166.999Z" fill="#FFFDFF"/>
<path d="M344.981 202.692C341.598 202.458 338.596 201.101 335.967 198.619C333.339 196.138 331.319 192.907 329.908 188.932C328.501 184.957 327.964 180.619 328.289 175.911C328.607 171.249 329.737 167.036 331.678 163.27C333.616 159.507 336.057 156.578 338.997 154.484C341.935 152.386 345.095 151.452 348.478 151.682C351.866 151.916 354.875 153.273 357.503 155.755C360.131 158.231 362.134 161.467 363.519 165.464C364.909 169.455 365.444 173.78 365.126 178.441C364.801 183.149 363.677 187.376 361.76 191.126C359.84 194.87 357.41 197.791 354.473 199.89C351.532 201.988 348.369 202.922 344.981 202.692ZM346.491 182.514C347.112 182.557 347.664 182.112 348.141 181.178C348.619 180.239 348.904 179.06 348.999 177.649C349.092 176.297 348.969 175.107 348.63 174.087C348.288 173.066 347.807 172.534 347.186 172.49C346.605 172.447 346.062 172.908 345.557 173.869C345.057 174.833 344.759 175.992 344.666 177.344C344.571 178.756 344.704 179.962 345.068 180.961C345.437 181.955 345.91 182.47 346.491 182.514Z" fill="#FFFDFF"/>
<path d="M372.878 204.091C374.521 204.265 376.011 203.912 377.353 203.038C378.691 202.164 379.842 200.926 380.806 199.324C380.906 199.085 381.048 198.895 381.23 198.748C381.417 198.596 382.025 198.574 383.054 198.683L387.615 199.237L392.741 199.78C393.732 199.883 394.359 200.426 394.62 201.409C395.242 203.051 396.151 204.322 397.346 205.221C398.54 206.125 399.795 206.646 401.114 206.785C402.344 206.915 403.503 206.744 404.589 206.274C405.675 205.81 406.569 205.058 407.272 204.015C407.763 203.19 408.056 202.348 408.151 201.485C408.265 200.415 408.043 198.846 407.478 196.783C406.702 193.88 405.453 188.404 403.731 180.351C402.485 174.778 401.377 170.075 400.408 166.244C399.444 162.416 398.502 159.766 397.585 158.295C396.238 156.449 394.557 155.417 392.546 155.2C390.813 155.021 389.179 155.512 387.637 156.677C387.368 156.902 387.118 157.144 386.888 157.404C386.41 157.942 385.47 159.53 384.075 162.172C383.407 163.345 377.909 173.765 367.579 193.427C367.057 194.448 366.74 195.496 366.623 196.565C366.487 197.885 366.653 199.234 367.123 200.616C367.552 201.74 368.124 202.495 368.849 202.886C369.58 203.277 370.288 203.551 370.978 203.711L371.467 203.82C371.958 203.956 372.428 204.048 372.878 204.091ZM388.94 186.715C388.245 186.645 387.908 186.525 387.93 186.357C388.175 185.966 388.519 185.464 388.962 184.847C389.402 184.226 389.755 183.658 390.015 183.142C390.137 183.151 390.235 183.183 390.308 183.24C390.539 184.261 390.786 185.095 391.047 185.738C391.248 186.224 391.343 186.55 391.329 186.715C391.313 186.802 391.264 186.843 391.177 186.835L388.94 186.715Z" fill="#FFFDFF"/>
<path d="M419.827 209.466C421.217 209.667 422.591 209.477 423.954 208.891C425.314 208.31 426.476 207.3 427.44 205.85C428.374 204.064 428.955 202.369 429.188 200.768L429.286 200.04C429.378 199.426 429.473 198.916 429.568 198.509L429.883 198.433C430.231 199.274 431.208 201.069 432.816 203.819C434.523 206.773 435.837 208.799 436.758 209.901C438.183 211.326 439.674 212.152 441.232 212.377C443.035 212.638 444.71 212.219 446.26 211.128C447.816 210.034 448.72 208.63 448.975 206.914C449.119 205.888 448.97 204.772 448.53 203.57C446.857 200.328 445.587 197.993 444.718 196.565C443.732 194.966 443.274 193.942 443.339 193.492C443.374 193.204 443.817 192.807 444.664 192.308C445.511 191.803 446.722 190.869 448.302 189.506C450.935 186.916 452.51 183.859 453.026 180.34C453.547 176.699 452.825 173.075 450.865 169.469C448.902 165.858 445.492 163.181 440.635 161.444C438.281 160.714 435.894 160.173 433.478 159.826C432.006 159.617 430.53 159.446 429.047 159.315C427.31 159.15 425.683 159.313 424.171 159.804C422.664 160.29 421.375 161.115 420.305 162.28C419.241 163.439 418.567 165 418.285 166.961L415.212 187.214C415.03 188.482 414.91 189.395 414.853 189.951C414.793 190.51 414.739 190.961 414.69 191.309C414.639 191.656 414.584 192.11 414.527 192.666C414.468 193.225 414.115 195.734 413.463 200.192C413.425 200.483 413.433 200.874 413.485 201.365C413.534 201.851 413.574 202.285 413.604 202.668C413.813 204.696 414.522 206.282 415.733 207.425C416.949 208.56 418.312 209.241 419.827 209.466ZM433.25 183.5C432.851 183.365 432.788 182.333 433.065 180.405C433.492 177.46 433.929 176.018 434.379 176.083L434.51 176.094C435.08 176.181 435.525 176.697 435.845 177.636C436.171 178.578 436.283 179.395 436.182 180.09C436.044 181.041 435.707 181.855 435.172 182.534C434.635 183.207 433.994 183.53 433.25 183.5Z" fill="#FFFDFF"/>
<path d="M461.228 216.498C470.465 218.184 477.825 216.71 483.307 212.078C488.025 208.111 491.055 202.57 492.396 195.451C493.135 191.42 493.029 187.382 492.081 183.343C491.139 179.303 489.084 175.773 485.913 172.754C482.747 169.735 478.224 167.647 472.338 166.488C470.215 166.097 468.149 166.635 466.137 168.095C464.131 169.559 462.814 171.535 462.184 174.025C461.511 177.06 460.495 182.278 459.143 189.685L457.742 197.688C456.778 202.983 456.257 205.958 456.178 206.615C456.075 207.862 456.189 209.197 456.515 210.623C456.846 212.051 457.411 213.327 458.209 214.456C459.005 215.591 460.012 216.273 461.228 216.498ZM472.881 198.069C472.756 198.047 472.699 198.014 472.707 197.971C472.829 197.493 473.503 193.896 474.727 187.176C474.792 187.067 474.885 187.024 475.01 187.046C475.292 187.097 475.653 187.355 476.096 187.817C476.544 188.273 476.894 188.944 477.149 189.826C477.41 190.711 477.41 191.865 477.149 193.29C476.902 194.637 476.481 195.669 475.889 196.385C475.303 197.097 474.705 197.564 474.097 197.786C473.489 198.012 473.082 198.107 472.881 198.069Z" fill="#FFFDFF"/>
</g>
<defs>
<filter id="filter0_d_577_42499" x="115.354" y="13.5605" width="128.34" height="178.164" filterUnits="userSpaceOnUse" color-interpolation-filters="sRGB">
<feFlood flood-opacity="0" result="BackgroundImageFix"/>
<feColorMatrix in="SourceAlpha" type="matrix" values="0 0 0 0 0 0 0 0 0 0 0 0 0 0 0 0 0 0 127 0" result="hardAlpha"/>
<feOffset dx="10"/>
<feComposite in2="hardAlpha" operator="out"/>
<feColorMatrix type="matrix" values="0 0 0 0 0 0 0 0 0 0 0 0 0 0 0 0 0 0 0.1 0"/>
<feBlend mode="normal" in2="BackgroundImageFix" result="effect1_dropShadow_577_42499"/>
<feBlend mode="normal" in="SourceGraphic" in2="effect1_dropShadow_577_42499" result="shape"/>
</filter>
</defs>
</svg>
