<svg width="117" height="56" viewBox="0 0 117 56" fill="none" xmlns="http://www.w3.org/2000/svg">
<mask id="mask0_380_6567" style="mask-type:luminance" maskUnits="userSpaceOnUse" x="0" y="6" width="62" height="44">
<path d="M61.4746 6.67225H0V49.3747H61.4746V6.67225Z" fill="white"/>
</mask>
<g mask="url(#mask0_380_6567)">
<mask id="mask1_380_6567" style="mask-type:luminance" maskUnits="userSpaceOnUse" x="7" y="8" width="48" height="41">
<path d="M7.18338 8.0458H54.8541V48.9707H7.18338V8.0458Z" fill="white"/>
</mask>
<g mask="url(#mask1_380_6567)">
<mask id="mask2_380_6567" style="mask-type:luminance" maskUnits="userSpaceOnUse" x="7" y="8" width="48" height="41">
<path d="M30.9542 8.0458C21.8135 8.0458 13.6309 13.7719 10.4239 22.4094L8.15941 28.5082C6.43199 33.1606 7.07235 38.3707 9.87651 42.4522C12.6807 46.5337 17.2871 48.9707 22.2086 48.9707H39.6972C44.6186 48.9707 49.2277 46.5337 52.0293 42.4522C54.8334 38.3707 55.4764 33.1606 53.7489 28.5082L51.4844 22.4094C48.2749 13.7719 40.0948 8.0458 30.9542 8.0458Z" fill="white"/>
</mask>
<g mask="url(#mask2_380_6567)">
<mask id="mask3_380_6567" style="mask-type:luminance" maskUnits="userSpaceOnUse" x="6" y="8" width="49" height="42">
<path d="M54.8645 8.00671H6.61023V49.3747H54.8645V8.00671Z" fill="white"/>
</mask>
<g mask="url(#mask3_380_6567)">
<mask id="mask4_380_6567" style="mask-type:luminance" maskUnits="userSpaceOnUse" x="7" y="8" width="48" height="41">
<path d="M7.18344 8.0458H54.8541V48.9707H7.18344V8.0458Z" fill="white"/>
</mask>
<g mask="url(#mask4_380_6567)">
<mask id="mask5_380_6567" style="mask-type:luminance" maskUnits="userSpaceOnUse" x="7" y="8" width="48" height="41">
<path d="M30.9542 8.0458C21.8136 8.0458 13.6309 13.7719 10.424 22.4094L8.15947 28.5082C6.43205 33.1606 7.07241 38.3707 9.87657 42.4522C12.6807 46.5337 17.2872 48.9707 22.2087 48.9707H39.6972C44.6187 48.9707 49.2277 46.5337 52.0293 42.4522C54.8335 38.3707 55.4764 33.1606 53.749 28.5082L51.4845 22.4094C48.2749 13.7719 40.0949 8.0458 30.9542 8.0458Z" fill="white"/>
</mask>
<g mask="url(#mask5_380_6567)">
<path d="M61.3456 48.9707H0.532028V8.0458H61.3456V48.9707Z" fill="#B5745A"/>
</g>
</g>
</g>
</g>
</g>
<mask id="mask6_380_6567" style="mask-type:luminance" maskUnits="userSpaceOnUse" x="5" y="8" width="14" height="13">
<path d="M5.05316 8.05102H18.2348V20.5719H5.05316V8.05102Z" fill="white"/>
</mask>
<g mask="url(#mask6_380_6567)">
<mask id="mask7_380_6567" style="mask-type:luminance" maskUnits="userSpaceOnUse" x="5" y="8" width="14" height="13">
<path d="M11.6246 8.05102C7.99675 8.05102 5.05316 10.8528 5.05316 14.3115C5.05316 17.7701 7.99675 20.5719 11.6246 20.5719C15.255 20.5719 18.196 17.7701 18.196 14.3115C18.196 10.8528 15.255 8.05102 11.6246 8.05102Z" fill="white"/>
</mask>
<g mask="url(#mask7_380_6567)">
<mask id="mask8_380_6567" style="mask-type:luminance" maskUnits="userSpaceOnUse" x="4" y="8" width="15" height="13">
<path d="M18.5085 8.00671H4.62711V20.684H18.5085V8.00671Z" fill="white"/>
</mask>
<g mask="url(#mask8_380_6567)">
<mask id="mask9_380_6567" style="mask-type:luminance" maskUnits="userSpaceOnUse" x="5" y="8" width="14" height="13">
<path d="M5.05319 8.05102H18.2348V20.5719H5.05319V8.05102Z" fill="white"/>
</mask>
<g mask="url(#mask9_380_6567)">
<mask id="mask10_380_6567" style="mask-type:luminance" maskUnits="userSpaceOnUse" x="5" y="8" width="14" height="13">
<path d="M11.6246 8.05102C7.99678 8.05102 5.05319 10.8528 5.05319 14.3115C5.05319 17.7701 7.99678 20.5719 11.6246 20.5719C15.2551 20.5719 18.1961 17.7701 18.1961 14.3115C18.1961 10.8528 15.2551 8.05102 11.6246 8.05102Z" fill="white"/>
</mask>
<g mask="url(#mask10_380_6567)">
<path d="M5.05319 8.05102H18.1857V20.5719H5.05319V8.05102Z" fill="#AD6747"/>
</g>
</g>
</g>
</g>
</g>
<mask id="mask11_380_6567" style="mask-type:luminance" maskUnits="userSpaceOnUse" x="42" y="7" width="14" height="13">
<path d="M42.7931 7.09188H55.9747V19.6128H42.7931V7.09188Z" fill="white"/>
</mask>
<g mask="url(#mask11_380_6567)">
<mask id="mask12_380_6567" style="mask-type:luminance" maskUnits="userSpaceOnUse" x="42" y="7" width="14" height="13">
<path d="M49.3645 7.09188C45.7367 7.09188 42.7931 9.8937 42.7931 13.3523C42.7931 16.811 45.7367 19.6128 49.3645 19.6128C52.9949 19.6128 55.9359 16.811 55.9359 13.3523C55.9359 9.8937 52.9949 7.09188 49.3645 7.09188Z" fill="white"/>
</mask>
<g mask="url(#mask12_380_6567)">
<mask id="mask13_380_6567" style="mask-type:luminance" maskUnits="userSpaceOnUse" x="42" y="6" width="15" height="15">
<path d="M56.1863 6.67226H42.305V20.0168H56.1863V6.67226Z" fill="white"/>
</mask>
<g mask="url(#mask13_380_6567)">
<mask id="mask14_380_6567" style="mask-type:luminance" maskUnits="userSpaceOnUse" x="42" y="7" width="14" height="13">
<path d="M42.793 7.09188H55.9746V19.6128H42.793V7.09188Z" fill="white"/>
</mask>
<g mask="url(#mask14_380_6567)">
<mask id="mask15_380_6567" style="mask-type:luminance" maskUnits="userSpaceOnUse" x="42" y="7" width="14" height="13">
<path d="M49.3644 7.09188C45.7366 7.09188 42.793 9.89371 42.793 13.3523C42.793 16.811 45.7366 19.6128 49.3644 19.6128C52.9949 19.6128 55.9359 16.811 55.9359 13.3523C55.9359 9.89371 52.9949 7.09188 49.3644 7.09188Z" fill="white"/>
</mask>
<g mask="url(#mask15_380_6567)">
<path d="M42.793 7.09188H55.9255V19.6128H42.793V7.09188Z" fill="#AD6747"/>
</g>
</g>
</g>
</g>
</g>
<mask id="mask16_380_6567" style="mask-type:luminance" maskUnits="userSpaceOnUse" x="7" y="11" width="48" height="38">
<path d="M7.14464 11.2646H54.8256V48.7127H7.14464V11.2646Z" fill="white"/>
</mask>
<g mask="url(#mask16_380_6567)">
<mask id="mask17_380_6567" style="mask-type:luminance" maskUnits="userSpaceOnUse" x="7" y="11" width="48" height="38">
<path d="M30.9543 11.2646C21.7621 11.2646 13.4813 16.8709 9.99545 25.4588L8.15957 29.9886C6.45797 34.1744 6.93824 38.9415 9.43513 42.6998C11.9346 46.4582 16.1228 48.7127 20.6053 48.7127H41.3008C45.7833 48.7127 49.9715 46.4582 52.4709 42.6998C54.9678 38.9415 55.4481 34.1744 53.7491 29.9886L51.9106 25.4588C48.4248 16.8709 40.1466 11.2646 30.9543 11.2646Z" fill="white"/>
</mask>
<g mask="url(#mask17_380_6567)">
<mask id="mask18_380_6567" style="mask-type:luminance" maskUnits="userSpaceOnUse" x="6" y="10" width="49" height="40">
<path d="M54.8644 10.6756H6.61015V49.3747H54.8644V10.6756Z" fill="white"/>
</mask>
<g mask="url(#mask18_380_6567)">
<mask id="mask19_380_6567" style="mask-type:luminance" maskUnits="userSpaceOnUse" x="7" y="11" width="48" height="38">
<path d="M7.14467 11.2646H54.8257V48.7127H7.14467V11.2646Z" fill="white"/>
</mask>
<g mask="url(#mask19_380_6567)">
<mask id="mask20_380_6567" style="mask-type:luminance" maskUnits="userSpaceOnUse" x="7" y="11" width="48" height="38">
<path d="M30.9543 11.2646C21.762 11.2646 13.4812 16.8709 9.99537 25.4588L8.1595 29.9886C6.4579 34.1744 6.93817 38.9415 9.43505 42.6998C11.9345 46.4582 16.1227 48.7127 20.6052 48.7127H41.3007C45.7832 48.7127 49.9714 46.4582 52.4709 42.6998C54.9678 38.9415 55.448 34.1744 53.749 29.9886L51.9106 25.4588C48.4247 16.8709 40.1465 11.2646 30.9543 11.2646Z" fill="white"/>
</mask>
<g mask="url(#mask20_380_6567)">
<path d="M61.3455 48.7127H0.624908V11.2646H61.3455V48.7127Z" fill="#AD6747"/>
</g>
</g>
</g>
</g>
</g>
<mask id="mask21_380_6567" style="mask-type:luminance" maskUnits="userSpaceOnUse" x="13" y="31" width="6" height="5">
<path d="M13.0215 31.7271H18.4155V35.78H13.0215V31.7271Z" fill="white"/>
</mask>
<g mask="url(#mask21_380_6567)">
<mask id="mask22_380_6567" style="mask-type:luminance" maskUnits="userSpaceOnUse" x="13" y="31" width="6" height="5">
<path d="M18.4155 33.7548C18.4155 32.6341 17.2123 31.7271 15.725 31.7271C14.2377 31.7271 13.0319 32.6341 13.0319 33.7548C13.0319 34.8729 14.2377 35.7799 15.725 35.7799C17.2123 35.7799 18.4155 34.8729 18.4155 33.7548Z" fill="white"/>
</mask>
<g mask="url(#mask22_380_6567)">
<mask id="mask23_380_6567" style="mask-type:luminance" maskUnits="userSpaceOnUse" x="12" y="31" width="7" height="6">
<path d="M18.5084 31.3596H12.5593V36.0302H18.5084V31.3596Z" fill="white"/>
</mask>
<g mask="url(#mask23_380_6567)">
<mask id="mask24_380_6567" style="mask-type:luminance" maskUnits="userSpaceOnUse" x="13" y="31" width="6" height="5">
<path d="M13.0215 31.7271H18.4155V35.7799H13.0215V31.7271Z" fill="white"/>
</mask>
<g mask="url(#mask24_380_6567)">
<mask id="mask25_380_6567" style="mask-type:luminance" maskUnits="userSpaceOnUse" x="13" y="31" width="6" height="5">
<path d="M18.4155 33.7548C18.4155 32.6341 17.2122 31.7271 15.7249 31.7271C14.2377 31.7271 13.0318 32.6341 13.0318 33.7548C13.0318 34.8729 14.2377 35.7799 15.7249 35.7799C17.2122 35.7799 18.4155 34.8729 18.4155 33.7548Z" fill="white"/>
</mask>
<g mask="url(#mask25_380_6567)">
<path d="M18.4156 31.7271V35.7799H13.0371V31.7271H18.4156Z" fill="#F6827C"/>
</g>
</g>
</g>
</g>
</g>
<mask id="mask26_380_6567" style="mask-type:luminance" maskUnits="userSpaceOnUse" x="15" y="27" width="6" height="8">
<path d="M15.6165 27.3041H20.7782V34.3022H15.6165V27.3041Z" fill="white"/>
</mask>
<g mask="url(#mask26_380_6567)">
<mask id="mask27_380_6567" style="mask-type:luminance" maskUnits="userSpaceOnUse" x="15" y="27" width="6" height="8">
<path d="M18.1961 27.3041C16.7733 27.3041 15.6165 28.8653 15.6165 30.794C15.6165 32.7227 16.7733 34.2865 18.1961 34.2865C19.6214 34.2865 20.7782 32.7227 20.7782 30.794C20.7782 28.8653 19.6214 27.3041 18.1961 27.3041Z" fill="white"/>
</mask>
<g mask="url(#mask27_380_6567)">
<mask id="mask28_380_6567" style="mask-type:luminance" maskUnits="userSpaceOnUse" x="15" y="26" width="7" height="9">
<path d="M21.1526 26.689H15.2034V34.6957H21.1526V26.689Z" fill="white"/>
</mask>
<g mask="url(#mask28_380_6567)">
<mask id="mask29_380_6567" style="mask-type:luminance" maskUnits="userSpaceOnUse" x="15" y="27" width="6" height="8">
<path d="M15.6166 27.3041H20.7782V34.3021H15.6166V27.3041Z" fill="white"/>
</mask>
<g mask="url(#mask29_380_6567)">
<mask id="mask30_380_6567" style="mask-type:luminance" maskUnits="userSpaceOnUse" x="15" y="27" width="6" height="8">
<path d="M18.1961 27.3041C16.7734 27.3041 15.6166 28.8653 15.6166 30.794C15.6166 32.7227 16.7734 34.2865 18.1961 34.2865C19.6214 34.2865 20.7782 32.7227 20.7782 30.794C20.7782 28.8653 19.6214 27.3041 18.1961 27.3041Z" fill="white"/>
</mask>
<g mask="url(#mask30_380_6567)">
<path d="M15.6166 27.3041H20.7782V34.2813H15.6166V27.3041Z" fill="#402300"/>
</g>
</g>
</g>
</g>
</g>
<mask id="mask31_380_6567" style="mask-type:luminance" maskUnits="userSpaceOnUse" x="43" y="31" width="6" height="5">
<path d="M43.3611 31.7271H48.7551V35.78H43.3611V31.7271Z" fill="white"/>
</mask>
<g mask="url(#mask31_380_6567)">
<mask id="mask32_380_6567" style="mask-type:luminance" maskUnits="userSpaceOnUse" x="43" y="31" width="6" height="5">
<path d="M48.7552 33.7548C48.7552 32.6341 47.5494 31.7271 46.0647 31.7271C44.5774 31.7271 43.3716 32.6341 43.3716 33.7548C43.3716 34.8729 44.5774 35.78 46.0647 35.78C47.5494 35.78 48.7552 34.8729 48.7552 33.7548Z" fill="white"/>
</mask>
<g mask="url(#mask32_380_6567)">
<mask id="mask33_380_6567" style="mask-type:luminance" maskUnits="userSpaceOnUse" x="42" y="31" width="7" height="6">
<path d="M48.9154 31.3596H42.9662V36.0302H48.9154V31.3596Z" fill="white"/>
</mask>
<g mask="url(#mask33_380_6567)">
<mask id="mask34_380_6567" style="mask-type:luminance" maskUnits="userSpaceOnUse" x="43" y="31" width="6" height="5">
<path d="M43.3613 31.7271H48.7553V35.7799H43.3613V31.7271Z" fill="white"/>
</mask>
<g mask="url(#mask34_380_6567)">
<mask id="mask35_380_6567" style="mask-type:luminance" maskUnits="userSpaceOnUse" x="43" y="31" width="6" height="5">
<path d="M48.7555 33.7548C48.7555 32.6341 47.5496 31.7271 46.0649 31.7271C44.5776 31.7271 43.3718 32.6341 43.3718 33.7548C43.3718 34.8729 44.5776 35.7799 46.0649 35.7799C47.5496 35.7799 48.7555 34.8729 48.7555 33.7548Z" fill="white"/>
</mask>
<g mask="url(#mask35_380_6567)">
<path d="M48.7553 31.7271V35.7799H43.3768V31.7271H48.7553Z" fill="#F6827C"/>
</g>
</g>
</g>
</g>
</g>
<mask id="mask36_380_6567" style="mask-type:luminance" maskUnits="userSpaceOnUse" x="41" y="27" width="6" height="8">
<path d="M41.0191 27.3041H46.1782V34.3022H41.0191V27.3041Z" fill="white"/>
</mask>
<g mask="url(#mask36_380_6567)">
<mask id="mask37_380_6567" style="mask-type:luminance" maskUnits="userSpaceOnUse" x="41" y="27" width="6" height="8">
<path d="M43.5986 27.3041C42.1733 27.3041 41.0191 28.8653 41.0191 30.794C41.0191 32.7227 42.1733 34.2865 43.5986 34.2865C45.024 34.2865 46.1782 32.7227 46.1782 30.794C46.1782 28.8653 45.024 27.3041 43.5986 27.3041Z" fill="white"/>
</mask>
<g mask="url(#mask37_380_6567)">
<mask id="mask38_380_6567" style="mask-type:luminance" maskUnits="userSpaceOnUse" x="40" y="26" width="7" height="9">
<path d="M46.2711 26.689H40.983V34.6957H46.2711V26.689Z" fill="white"/>
</mask>
<g mask="url(#mask38_380_6567)">
<mask id="mask39_380_6567" style="mask-type:luminance" maskUnits="userSpaceOnUse" x="41" y="27" width="6" height="8">
<path d="M41.0191 27.3041H46.1781V34.3021H41.0191V27.3041Z" fill="white"/>
</mask>
<g mask="url(#mask39_380_6567)">
<mask id="mask40_380_6567" style="mask-type:luminance" maskUnits="userSpaceOnUse" x="41" y="27" width="6" height="8">
<path d="M43.5986 27.3041C42.1733 27.3041 41.0191 28.8653 41.0191 30.794C41.0191 32.7227 42.1733 34.2865 43.5986 34.2865C45.0239 34.2865 46.1781 32.7227 46.1781 30.794C46.1781 28.8653 45.0239 27.3041 43.5986 27.3041Z" fill="white"/>
</mask>
<g mask="url(#mask40_380_6567)">
<path d="M41.0191 27.3041H46.1781V34.2813H41.0191V27.3041Z" fill="#402300"/>
</g>
</g>
</g>
</g>
</g>
<mask id="mask41_380_6567" style="mask-type:luminance" maskUnits="userSpaceOnUse" x="22" y="25" width="18" height="21">
<path d="M22.614 25.0262H39.1833V45.2801H22.614V25.0262Z" fill="white"/>
</mask>
<g mask="url(#mask41_380_6567)">
<mask id="mask42_380_6567" style="mask-type:luminance" maskUnits="userSpaceOnUse" x="22" y="25" width="18" height="21">
<path d="M30.8974 25.0262C26.3219 25.0262 22.614 29.5482 22.614 35.1258C22.614 40.7033 26.3219 45.2254 30.8974 45.2254C35.4729 45.2254 39.1833 40.7033 39.1833 35.1258C39.1833 29.5482 35.4729 25.0262 30.8974 25.0262Z" fill="white"/>
</mask>
<g mask="url(#mask42_380_6567)">
<mask id="mask43_380_6567" style="mask-type:luminance" maskUnits="userSpaceOnUse" x="22" y="24" width="18" height="22">
<path d="M39.661 24.6873H22.4745V45.3713H39.661V24.6873Z" fill="white"/>
</mask>
<g mask="url(#mask43_380_6567)">
<mask id="mask44_380_6567" style="mask-type:luminance" maskUnits="userSpaceOnUse" x="22" y="25" width="18" height="21">
<path d="M22.614 25.0262H39.1833V45.2384H22.614V25.0262Z" fill="white"/>
</mask>
<g mask="url(#mask44_380_6567)">
<mask id="mask45_380_6567" style="mask-type:luminance" maskUnits="userSpaceOnUse" x="22" y="25" width="18" height="21">
<path d="M30.8974 25.0262C26.3219 25.0262 22.614 29.5482 22.614 35.1258C22.614 40.7034 26.3219 45.2254 30.8974 45.2254C35.4728 45.2254 39.1833 40.7034 39.1833 35.1258C39.1833 29.5482 35.4728 25.0262 30.8974 25.0262Z" fill="white"/>
</mask>
<g mask="url(#mask45_380_6567)">
<path d="M22.614 25.0262H39.1833V45.2149H22.614V25.0262Z" fill="#E2B282"/>
</g>
</g>
</g>
</g>
</g>
<mask id="mask46_380_6567" style="mask-type:luminance" maskUnits="userSpaceOnUse" x="28" y="28" width="6" height="7">
<path d="M28.0002 28.8314H33.8951V34.2657H28.0002V28.8314Z" fill="white"/>
</mask>
<g mask="url(#mask46_380_6567)">
<mask id="mask47_380_6567" style="mask-type:luminance" maskUnits="userSpaceOnUse" x="28" y="28" width="6" height="7">
<path d="M31.6929 33.8226L33.7792 30.1346C33.9315 29.8661 33.9315 29.5351 33.7766 29.2641C33.6217 28.9956 33.3376 28.8314 33.0304 28.8314H28.8784C28.5711 28.8314 28.2845 28.9956 28.1321 29.2641C27.9772 29.5351 27.9746 29.8661 28.127 30.1346L30.2159 33.8226C30.3682 34.091 30.6497 34.2552 30.9544 34.2552C31.2591 34.2552 31.5405 34.091 31.6929 33.8226Z" fill="white"/>
</mask>
<g mask="url(#mask47_380_6567)">
<mask id="mask48_380_6567" style="mask-type:luminance" maskUnits="userSpaceOnUse" x="27" y="28" width="8" height="7">
<path d="M34.3728 28.6907H27.7627V34.6957H34.3728V28.6907Z" fill="white"/>
</mask>
<g mask="url(#mask48_380_6567)">
<mask id="mask49_380_6567" style="mask-type:luminance" maskUnits="userSpaceOnUse" x="28" y="28" width="6" height="7">
<path d="M28.0002 28.8314H33.8951V34.2657H28.0002V28.8314Z" fill="white"/>
</mask>
<g mask="url(#mask49_380_6567)">
<mask id="mask50_380_6567" style="mask-type:luminance" maskUnits="userSpaceOnUse" x="28" y="28" width="6" height="7">
<path d="M31.6926 33.8226L33.7789 30.1346C33.9313 29.8661 33.9313 29.5351 33.7763 29.2641C33.6214 28.9956 33.3374 28.8314 33.0301 28.8314H28.8781C28.5708 28.8314 28.2842 28.9956 28.1319 29.2641C27.9769 29.5351 27.9744 29.8661 28.1267 30.1346L30.2156 33.8226C30.368 34.091 30.6494 34.2552 30.9541 34.2552C31.2588 34.2552 31.5402 34.091 31.6926 33.8226Z" fill="white"/>
</mask>
<g mask="url(#mask50_380_6567)">
<path d="M27.3908 28.8314H34.5277V35.1258H27.3908V28.8314Z" fill="#402300"/>
</g>
</g>
</g>
</g>
</g>
<mask id="mask51_380_6567" style="mask-type:luminance" maskUnits="userSpaceOnUse" x="29" y="31" width="3" height="6">
<path d="M29.9162 31.7271H31.9896V36.3169H29.9162V31.7271Z" fill="white"/>
</mask>
<g mask="url(#mask51_380_6567)">
<mask id="mask52_380_6567" style="mask-type:luminance" maskUnits="userSpaceOnUse" x="29" y="31" width="4" height="6">
<path d="M32.3898 31.3596H29.7457V36.6974H32.3898V31.3596Z" fill="white"/>
</mask>
<g mask="url(#mask52_380_6567)">
<mask id="mask53_380_6567" style="mask-type:luminance" maskUnits="userSpaceOnUse" x="29" y="31" width="3" height="6">
<path d="M29.9161 31.7271H31.9895V36.3169H29.9161V31.7271Z" fill="white"/>
</mask>
<g mask="url(#mask53_380_6567)">
<path d="M29.9161 31.7271H31.9895V36.3143H29.9161V31.7271Z" fill="#402300"/>
</g>
</g>
</g>
<mask id="mask54_380_6567" style="mask-type:luminance" maskUnits="userSpaceOnUse" x="7" y="10" width="8" height="8">
<path d="M7.65591 10.8607H14.9219V17.7623H7.65591V10.8607Z" fill="white"/>
</mask>
<g mask="url(#mask54_380_6567)">
<mask id="mask55_380_6567" style="mask-type:luminance" maskUnits="userSpaceOnUse" x="7" y="10" width="8" height="8">
<path d="M11.2786 10.8607C9.27747 10.8607 7.65591 12.4062 7.65591 14.3115C7.65591 16.2167 9.27747 17.7623 11.2786 17.7623C13.2797 17.7623 14.9013 16.2167 14.9013 14.3115C14.9013 12.4062 13.2797 10.8607 11.2786 10.8607Z" fill="white"/>
</mask>
<g mask="url(#mask55_380_6567)">
<mask id="mask56_380_6567" style="mask-type:luminance" maskUnits="userSpaceOnUse" x="7" y="10" width="9" height="9">
<path d="M15.2034 10.6756H7.27119V18.0151H15.2034V10.6756Z" fill="white"/>
</mask>
<g mask="url(#mask56_380_6567)">
<mask id="mask57_380_6567" style="mask-type:luminance" maskUnits="userSpaceOnUse" x="7" y="10" width="8" height="8">
<path d="M7.65593 10.8607H14.922V17.7623H7.65593V10.8607Z" fill="white"/>
</mask>
<g mask="url(#mask57_380_6567)">
<mask id="mask58_380_6567" style="mask-type:luminance" maskUnits="userSpaceOnUse" x="7" y="10" width="8" height="8">
<path d="M11.2786 10.8607C9.27749 10.8607 7.65593 12.4062 7.65593 14.3115C7.65593 16.2167 9.27749 17.7623 11.2786 17.7623C13.2797 17.7623 14.9013 16.2167 14.9013 14.3115C14.9013 12.4062 13.2797 10.8607 11.2786 10.8607Z" fill="white"/>
</mask>
<g mask="url(#mask58_380_6567)">
<path d="M7.65593 10.8607H14.8961V17.7623H7.65593V10.8607Z" fill="#643E2D"/>
</g>
</g>
</g>
</g>
</g>
<mask id="mask59_380_6567" style="mask-type:luminance" maskUnits="userSpaceOnUse" x="45" y="9" width="9" height="8">
<path d="M45.7419 9.90152H53.0079V16.8031H45.7419V9.90152Z" fill="white"/>
</mask>
<g mask="url(#mask59_380_6567)">
<mask id="mask60_380_6567" style="mask-type:luminance" maskUnits="userSpaceOnUse" x="45" y="9" width="8" height="8">
<path d="M49.3645 9.90152C47.366 9.90152 45.7419 11.4471 45.7419 13.3523C45.7419 15.2576 47.366 16.8031 49.3645 16.8031C51.3657 16.8031 52.9872 15.2576 52.9872 13.3523C52.9872 11.4471 51.3657 9.90152 49.3645 9.90152Z" fill="white"/>
</mask>
<g mask="url(#mask60_380_6567)">
<mask id="mask61_380_6567" style="mask-type:luminance" maskUnits="userSpaceOnUse" x="45" y="9" width="9" height="9">
<path d="M53.5424 9.34115H45.6102V17.3479H53.5424V9.34115Z" fill="white"/>
</mask>
<g mask="url(#mask61_380_6567)">
<mask id="mask62_380_6567" style="mask-type:luminance" maskUnits="userSpaceOnUse" x="45" y="9" width="9" height="8">
<path d="M45.7419 9.90152H53.0079V16.8031H45.7419V9.90152Z" fill="white"/>
</mask>
<g mask="url(#mask62_380_6567)">
<mask id="mask63_380_6567" style="mask-type:luminance" maskUnits="userSpaceOnUse" x="45" y="9" width="8" height="8">
<path d="M49.3645 9.90152C47.366 9.90152 45.7419 11.4471 45.7419 13.3523C45.7419 15.2576 47.366 16.8031 49.3645 16.8031C51.3657 16.8031 52.9872 15.2576 52.9872 13.3523C52.9872 11.4471 51.3657 9.90152 49.3645 9.90152Z" fill="white"/>
</mask>
<g mask="url(#mask63_380_6567)">
<path d="M45.7419 9.90152H52.9821V16.8031H45.7419V9.90152Z" fill="#643E2D"/>
</g>
</g>
</g>
</g>
</g>
</g>
<mask id="mask64_380_6567" style="mask-type:luminance" maskUnits="userSpaceOnUse" x="55" y="0" width="62" height="47">
<path d="M117 0H55.5254V46.7058H117V0Z" fill="white"/>
</mask>
<g mask="url(#mask64_380_6567)">
<path d="M57.4996 10.0423H64.5332C66.4259 10.0423 67.7996 10.5115 68.6542 11.4498C69.5063 12.3828 69.935 13.905 69.935 16.0161V17.1733C69.935 19.6754 69.0493 21.1715 67.2806 21.6562C68.3676 21.9429 69.1319 22.6023 69.5735 23.6371C70.0202 24.6744 70.2448 26.0427 70.2448 27.7447C70.2448 30.5335 69.8317 32.642 69.0054 34.0729C68.1791 35.5064 66.6867 36.2205 64.5332 36.2205H57.4996V10.0423ZM63.6243 19.8839C64.071 19.8839 64.3731 19.7171 64.5332 19.3835C64.6985 19.0499 64.7811 18.5781 64.7811 17.9656V15.3489C64.7811 14.494 64.4041 14.0666 63.6553 14.0666H62.5708V19.8839H63.6243ZM63.0872 31.6229C64.4351 31.6229 65.1116 30.9739 65.1116 29.6734V26.4102C65.1116 25.6179 64.9928 25.021 64.7604 24.617C64.5255 24.2079 64.1201 24.0019 63.5417 24.0019H62.5708V31.5916L63.0872 31.6229Z" fill="black"/>
<path d="M71.9615 36.2205V10.0423H82.3519V15.0987H77.2497V20.1863H82.135V25.1279H77.2497V31.1329H82.6824V36.2205H71.9615Z" fill="black"/>
<path d="M83.7085 36.2205L86.208 10.0423H94.9974L97.4762 36.2205H92.5496L92.1881 31.9878H89.0483L88.7488 36.2205H83.7085ZM89.4408 27.8072H91.7956L90.6492 14.494H90.4116L89.4408 27.8072Z" fill="black"/>
<path d="M99.0436 10.0423H107.017C108.282 10.0423 109.264 10.3343 109.961 10.9181C110.655 11.4967 111.123 12.3099 111.365 13.3576C111.605 14.4002 111.727 15.7346 111.727 17.361C111.727 18.8414 111.533 19.9986 111.148 20.8326C110.769 21.6667 110.105 22.2453 109.155 22.5632C109.94 22.7301 110.508 23.1314 110.859 23.7622C111.216 24.3877 111.396 25.24 111.396 26.3164L111.334 36.2205H106.263V25.9828C106.263 25.253 106.121 24.7891 105.84 24.5858C105.556 24.3773 105.044 24.273 104.301 24.273V36.2205H99.0436V10.0423ZM105.561 19.738C106.289 19.738 106.656 18.9456 106.656 17.361C106.656 16.6677 106.625 16.149 106.563 15.8076C106.501 15.4609 106.387 15.2212 106.222 15.0882C106.062 14.9579 105.834 14.8902 105.54 14.8902H104.332V19.738H105.561Z" fill="black"/>
</g>
<path d="M57.5886 55.1433V36.9406H61.2035V52.047H64.9217V55.1433H57.5886Z" fill="black"/>
<mask id="mask65_380_6567" style="mask-type:luminance" maskUnits="userSpaceOnUse" x="66" y="37" width="7" height="19">
<path d="M66.3987 37.2578H72.3478V56H66.3987V37.2578Z" fill="white"/>
</mask>
<g mask="url(#mask65_380_6567)">
<path d="M68.5109 40.2498L66.4065 52.127C66.3781 52.3172 66.4298 52.5101 66.5485 52.6587L68.9835 55.7654C69.2313 56.0782 69.7013 56.0782 69.9492 55.7654L72.3841 52.6587C72.5029 52.5101 72.5545 52.3172 72.5261 52.127L70.4217 40.2472C70.4191 40.2186 70.4217 40.1899 70.4294 40.1638L71.9709 37.4793C72.0148 37.375 71.94 37.2578 71.8264 37.2578H67.0185C66.9049 37.2578 66.8274 37.3776 66.8739 37.4845L68.5006 40.1612C68.5109 40.1873 68.5135 40.2186 68.5109 40.2498Z" fill="black"/>
</g>
<path d="M74.9886 55.1433V36.9406H78.7069L80.3697 45.6458V36.9406H83.8504V55.1433H80.3284L78.521 46.0315V55.1433H74.9886Z" fill="black"/>
<path d="M90.6563 55.3101C89.3549 55.3101 88.3841 54.8488 87.7437 53.9235C87.1085 53.0009 86.7935 51.5987 86.7935 49.7221V41.8718C86.7935 40.1907 87.1653 38.9188 87.909 38.0561C88.6526 37.196 89.7577 36.7633 91.2244 36.7633C92.4147 36.7633 93.3365 37.0083 93.9924 37.4931C94.6534 37.9727 95.1078 38.6712 95.3557 39.5886C95.6088 40.506 95.7379 41.6841 95.7379 43.1228H92.2159V41.4965C92.2159 41.0586 92.1539 40.7224 92.03 40.4852C91.9112 40.2428 91.6995 40.1203 91.3896 40.1203C90.7079 40.1203 90.3671 40.5738 90.3671 41.4756V50.2851C90.3671 50.8428 90.4342 51.2625 90.5737 51.5465C90.7105 51.8254 90.9558 51.9636 91.307 51.9636C91.6582 51.9636 91.9009 51.8254 92.0403 51.5465C92.1849 51.2625 92.2572 50.8428 92.2572 50.2851V47.6787H91.2863V44.5407H95.6966V55.1433H94.2506L93.6412 53.6212C92.9931 54.7471 91.999 55.3101 90.6563 55.3101Z" fill="black"/>
<path d="M102.921 55.3101C101.468 55.3101 100.363 54.8618 99.606 53.9652C98.8469 53.0686 98.4699 51.8072 98.4699 50.1808V41.5173C98.4699 39.9483 98.8469 38.7624 99.606 37.9623C100.363 37.1647 101.468 36.7633 102.921 36.7633C104.373 36.7633 105.478 37.1647 106.237 37.9623C106.993 38.7624 107.373 39.9483 107.373 41.5173V50.1808C107.373 51.8228 106.993 53.0869 106.237 53.9757C105.478 54.867 104.373 55.3101 102.921 55.3101ZM102.921 51.9636C103.244 51.9636 103.461 51.8254 103.572 51.5465C103.681 51.2625 103.737 50.8663 103.737 50.358V41.4548C103.737 41.0586 103.686 40.7406 103.582 40.4956C103.479 40.2454 103.265 40.1203 102.942 40.1203C102.343 40.1203 102.044 40.579 102.044 41.4965V50.3789C102.044 50.9002 102.105 51.2963 102.229 51.5674C102.353 51.8332 102.583 51.9636 102.921 51.9636Z" fill="black"/>
</svg>
