<svg width="1440" height="726" viewBox="0 0 1440 726" fill="none" xmlns="http://www.w3.org/2000/svg">
<g clip-path="url(#clip0_467_39211)">
<rect width="1440" height="726" fill="white"/>
<rect x="-3" y="-149" width="1443" height="1026" fill="white"/>
<rect x="678" width="762" height="1024" fill="#4F9CF9"/>
<ellipse cx="1085.5" cy="475.5" rx="286.5" ry="281.5" fill="#4F9CF9"/>
<ellipse cx="1116.7" cy="419.913" rx="266.5" ry="288" fill="white" fill-opacity="0.7"/>
<mask id="mask0_467_39211" style="mask-type:luminance" maskUnits="userSpaceOnUse" x="1206" y="12" width="174" height="146">
<path d="M1292.59 12.7965L1379.79 125.716L1294.13 157.197L1206.93 44.2782L1292.59 12.7965Z" fill="white"/>
</mask>
<g mask="url(#mask0_467_39211)">
<path d="M1369.44 129.282C1369.77 129.104 1369.92 128.841 1369.88 128.497C1369.52 121.976 1368.24 115.431 1366.04 108.869C1365.55 107.41 1362.77 107.757 1363.25 109.188C1365.04 114.538 1366.19 119.881 1366.71 125.218C1360.99 120.266 1354.93 115.581 1348.52 111.167C1341.26 106.183 1333.66 101.581 1325.72 97.3645C1317.8 93.1739 1309.64 89.4085 1301.22 86.0611C1292.84 82.7225 1284.3 79.8564 1275.59 77.4542C1267.02 75.0794 1258.39 73.1956 1249.68 71.7906C1257.91 67.4694 1266.13 63.1513 1274.35 58.8399C1274.58 58.7445 1274.76 58.6013 1274.87 58.4116C1274.98 58.2235 1275.01 58.0127 1274.96 57.7859C1274.91 57.5592 1274.78 57.3463 1274.57 57.1541C1274.37 56.9655 1274.12 56.8254 1273.83 56.7373L1223.58 46.67L1215.04 44.9537C1227.3 42.4322 1239.21 39.3305 1250.74 35.6413C1254.45 34.4597 1258.11 33.2167 1261.73 31.9094C1263.29 31.334 1261.68 29.249 1260.12 29.8244C1247.42 34.3981 1234.23 38.2323 1220.55 41.3255C1216.64 42.1953 1212.71 43.0116 1208.74 43.7706C1208.44 43.8139 1208.19 43.9279 1208 44.1072C1207.82 44.2902 1207.73 44.5072 1207.74 44.7582C1207.76 45.0112 1207.88 45.2462 1208.09 45.4683C1208.31 45.6852 1208.58 45.8455 1208.9 45.9403C1225.64 49.3027 1242.39 52.6601 1259.14 56.0122L1269.98 58.1993C1261.67 62.5586 1253.38 66.9169 1245.1 71.2722C1244.02 71.8335 1244.44 73.2183 1245.99 73.4459C1254.7 74.7035 1263.36 76.463 1271.96 78.7297C1284.91 82.1425 1297.47 86.564 1309.65 91.9977C1321.83 97.4314 1333.33 103.742 1344.14 110.933C1351.35 115.738 1358.14 120.883 1364.51 126.368L1365.86 127.541L1348.52 130.121C1346.77 130.385 1347.66 132.63 1349.43 132.372L1368.88 129.481C1369.09 129.451 1369.28 129.386 1369.44 129.282Z" fill="white"/>
</g>
<ellipse cx="948.201" cy="504.413" rx="229" ry="249.5" fill="white" fill-opacity="0.7"/>
<mask id="mask1_467_39211" style="mask-type:luminance" maskUnits="userSpaceOnUse" x="738" y="80" width="113" height="92">
<path d="M738.167 80.6261H850.149V171.562H738.167V80.6261Z" fill="white"/>
</mask>
<g mask="url(#mask1_467_39211)">
<path d="M769.31 80.9795C758.201 84.7879 749.455 91.8341 744.229 99.909C738.511 108.741 735.499 120.236 743.024 129.002C746.364 132.9 751.59 135.959 757.837 136.829C765.145 137.842 772.428 136.145 778.986 133.859C782.04 132.795 785.116 131.626 787.896 130.202C790.628 128.804 793.159 127.061 794.507 124.778C795.902 122.418 796.187 119.669 794.459 117.352C793.582 116.171 792.113 115.131 790.305 114.786C788.255 114.397 786.21 114.91 784.334 115.496C781.057 116.521 778.188 118.105 775.461 119.77C772.956 121.3 770.599 122.965 768.448 124.771C764.062 128.451 760.5 132.682 758.455 137.357C756.331 142.205 755.918 147.536 757.615 152.489C759.174 157.035 762.64 161.209 767.645 164.144C772.533 167.009 778.637 168.806 784.963 168.608C792.197 168.379 798.771 165.852 804.785 163.088C810.477 160.475 816.163 157.645 820.703 153.976C825.21 150.335 829.243 145.404 828.386 140.288C828.143 138.84 827.705 136.91 825.469 136.448C823.498 136.044 821.844 137.073 820.396 137.888C817.801 139.352 815.281 140.913 813.172 142.764C811.037 144.632 809.288 146.736 808.4 149.104C807.565 151.329 807.57 153.677 808.252 155.921C809.6 160.355 813.589 164.221 818.562 166.834C824.19 169.792 831.267 170.996 838.068 171.345C841.371 171.516 844.679 171.473 847.976 171.322C849.012 171.271 850.011 170.685 849.964 169.862C849.916 169.113 849.086 168.352 847.976 168.406C844.748 168.554 841.508 168.597 838.279 168.441C837.455 168.399 836.63 168.348 835.811 168.278C835.642 168.263 835.473 168.251 835.304 168.236C835.225 168.228 834.786 168.185 835.114 168.216C834.643 168.17 834.168 168.115 833.697 168.057C832.154 167.867 830.627 167.614 829.126 167.292C828.344 167.125 827.573 166.939 826.812 166.733C826.495 166.644 826.183 166.555 825.866 166.461C825.253 166.283 826.199 166.574 825.591 166.376C825.342 166.298 825.094 166.217 824.851 166.131C823.514 165.673 822.219 165.149 821.004 164.54C820.708 164.392 820.422 164.237 820.137 164.085C819.667 163.833 820.428 164.264 819.979 163.992C819.836 163.911 819.698 163.829 819.561 163.748C819.011 163.41 818.483 163.061 817.976 162.692C817.511 162.354 817.061 162.005 816.633 161.644C816.396 161.446 816.174 161.24 815.946 161.038C815.587 160.716 816.079 161.174 815.878 160.972C815.751 160.848 815.629 160.727 815.508 160.603C814.683 159.761 813.959 158.864 813.357 157.928C813.294 157.831 813.235 157.73 813.172 157.633C813.135 157.567 812.982 157.303 813.13 157.571C812.998 157.334 812.871 157.094 812.755 156.853C812.522 156.375 812.326 155.886 812.163 155.393C812.078 155.145 812.009 154.9 811.946 154.652C811.914 154.528 811.888 154.403 811.856 154.279C811.793 153.996 811.846 154.232 811.856 154.291C811.761 153.747 811.713 153.204 811.713 152.656C811.719 152.19 811.761 151.728 811.83 151.266C811.888 150.847 811.745 151.565 811.851 151.15C811.883 151.026 811.909 150.898 811.946 150.773C812.009 150.517 812.094 150.265 812.184 150.013C812.358 149.523 812.58 149.054 812.823 148.58C813.035 148.165 812.659 148.832 812.908 148.429C812.982 148.304 813.061 148.18 813.14 148.06C813.325 147.773 813.526 147.493 813.737 147.217C814.07 146.779 814.43 146.356 814.816 145.948C815.011 145.738 815.212 145.536 815.418 145.334C815.629 145.125 815.127 145.595 815.508 145.253C815.661 145.109 815.82 144.966 815.983 144.826C817.896 143.145 820.153 141.689 822.505 140.35C822.198 140.524 822.69 140.245 822.705 140.237C822.859 140.152 823.007 140.066 823.16 139.985C823.408 139.845 823.657 139.705 823.916 139.573C824.074 139.492 824.238 139.426 824.402 139.348C824.772 139.162 824.19 139.333 824.618 139.274C825.062 139.216 824.508 139.274 824.418 139.259C824.175 139.22 824.011 139.123 823.916 138.975C824.011 139.107 824.032 139.127 823.984 139.034C823.852 138.867 824.074 139.236 824.074 139.236C824.132 139.379 824.185 139.519 824.233 139.663C824.328 139.95 824.407 140.237 824.46 140.528C824.407 140.229 824.481 140.703 824.481 140.719C824.492 140.816 824.502 140.913 824.508 141.01C824.534 141.351 824.534 141.693 824.513 142.031C824.497 142.326 824.465 142.617 824.412 142.908C824.455 142.671 824.407 142.92 824.397 142.959C824.36 143.102 824.328 143.25 824.291 143.393C824.132 143.98 823.921 144.554 823.662 145.121C823.181 146.177 822.594 147.081 821.717 148.157C821.347 148.615 820.951 149.065 820.533 149.5C820.312 149.741 820.079 149.974 819.846 150.207C819.841 150.207 819.45 150.583 819.677 150.37C819.556 150.482 819.434 150.595 819.307 150.707C818.319 151.608 817.246 152.458 816.121 153.266C815.032 154.046 813.891 154.784 812.718 155.49C812.411 155.677 812.099 155.859 811.787 156.042C811.787 156.038 811.275 156.337 811.56 156.174C811.402 156.263 811.243 156.348 811.085 156.438C810.45 156.791 809.8 157.136 809.15 157.478C806.561 158.829 803.882 160.098 801.16 161.302C799.77 161.919 798.354 162.513 796.901 163.057C796.182 163.328 795.453 163.589 794.713 163.837C794.554 163.887 794.39 163.938 794.232 163.992C793.603 164.198 794.565 163.895 793.931 164.085C793.476 164.225 793.022 164.353 792.562 164.478C791.061 164.881 789.523 165.211 787.954 165.433C787.547 165.491 787.135 165.545 786.722 165.584C787.103 165.549 786.421 165.607 786.427 165.607C786.252 165.623 786.078 165.634 785.903 165.646C785.111 165.697 784.307 165.712 783.509 165.7C782.859 165.689 782.22 165.646 781.57 165.6C780.989 165.557 781.977 165.65 781.401 165.584C781.226 165.565 781.052 165.545 780.878 165.522C780.534 165.479 780.185 165.429 779.842 165.37C778.468 165.149 777.115 164.835 775.815 164.431C776.153 164.536 775.868 164.446 775.804 164.427C775.641 164.369 775.482 164.318 775.318 164.264C775.001 164.155 774.684 164.039 774.367 163.919C773.738 163.678 773.12 163.418 772.523 163.142C771.968 162.886 771.429 162.614 770.9 162.331C770.758 162.253 770.615 162.175 770.472 162.094C770.81 162.288 770.345 162.016 770.314 162.001C769.991 161.807 769.674 161.609 769.362 161.407C768.337 160.739 767.381 160.013 766.504 159.24C766.393 159.14 766.276 159.039 766.165 158.934C766.139 158.91 765.785 158.569 766.038 158.817C765.859 158.643 765.684 158.464 765.51 158.285C765.066 157.823 764.649 157.346 764.258 156.857C763.497 155.898 762.899 154.955 762.466 154.104C761.911 153.025 761.478 151.911 761.155 150.777C761.081 150.513 761.013 150.249 760.949 149.981C760.918 149.834 760.881 149.69 760.854 149.543C760.849 149.535 760.759 149.054 760.812 149.345C760.706 148.759 760.638 148.168 760.59 147.578C760.505 146.437 760.521 145.296 760.638 144.162C760.669 143.863 760.706 143.568 760.749 143.269C760.77 143.122 760.796 142.974 760.823 142.827C760.902 142.341 760.754 143.106 760.86 142.625C760.981 142.035 761.118 141.445 761.288 140.862C761.615 139.744 762.033 138.645 762.54 137.566C762.799 137.015 763.079 136.475 763.38 135.94C763.528 135.668 763.438 135.835 763.407 135.893C763.481 135.761 763.56 135.629 763.639 135.497C763.824 135.194 764.014 134.891 764.215 134.592C764.865 133.606 765.584 132.644 766.361 131.712C767.175 130.737 768.052 129.79 768.987 128.874C769.104 128.758 769.22 128.645 769.341 128.532C769.162 128.703 769.362 128.513 769.389 128.486C769.632 128.261 769.875 128.039 770.123 127.818C770.62 127.372 771.128 126.937 771.651 126.51C773.691 124.829 775.915 123.268 778.272 121.828C778.574 121.645 778.875 121.463 779.181 121.284C779.34 121.187 779.509 121.094 779.667 120.997C780.196 120.69 779.535 121.075 779.847 120.896C780.534 120.508 781.242 120.131 781.966 119.774C783.287 119.126 784.677 118.52 786.152 118.074C785.829 118.171 786.464 117.988 786.448 117.992C786.643 117.938 786.839 117.884 787.04 117.837C787.367 117.752 787.705 117.678 788.049 117.623C788.054 117.62 788.72 117.55 788.345 117.577C788.551 117.561 788.757 117.565 788.963 117.561C789.455 117.561 788.783 117.48 789.254 117.596C789.37 117.62 789.486 117.647 789.603 117.678C789.407 117.616 789.418 117.623 789.624 117.697C789.751 117.759 789.883 117.81 790.01 117.872C790.274 118.008 789.729 117.647 790.11 117.938C790.237 118.035 790.369 118.136 790.501 118.229C790.892 118.512 790.348 118.023 790.649 118.361C790.85 118.59 791.024 118.819 791.199 119.06C791.236 119.103 791.347 119.316 791.22 119.075C791.304 119.238 791.384 119.405 791.452 119.572C791.553 119.825 791.627 120.085 791.679 120.345C791.611 120.007 791.685 120.438 791.69 120.481C791.695 120.57 791.701 120.659 791.706 120.749C791.716 121.016 791.701 121.284 791.669 121.548C791.664 121.587 791.579 122.022 791.653 121.696C791.611 121.874 791.568 122.053 791.51 122.228C791.442 122.449 791.362 122.67 791.267 122.884C791.214 123.016 791.151 123.144 791.088 123.272C791.077 123.295 790.839 123.711 791.008 123.431C790.707 123.932 790.342 124.409 789.925 124.86C789.819 124.972 789.708 125.085 789.592 125.194C789.819 124.976 789.423 125.345 789.418 125.349C789.212 125.531 788.995 125.71 788.768 125.881C788.186 126.331 787.552 126.739 786.902 127.135C786.87 127.158 786.611 127.306 786.844 127.174C786.691 127.263 786.532 127.348 786.374 127.434C786.057 127.605 785.734 127.768 785.407 127.927C784.751 128.249 784.08 128.556 783.398 128.847C777.733 131.285 771.952 133.401 765.388 134.084C765.769 134.045 765.098 134.107 765.098 134.107C764.892 134.127 764.686 134.142 764.485 134.154C764.141 134.177 763.798 134.193 763.46 134.208C762.64 134.235 761.821 134.235 761.002 134.2C760.595 134.181 760.188 134.154 759.781 134.119C759.126 134.068 760.151 134.173 759.501 134.092C759.295 134.064 759.094 134.041 758.894 134.014C758.08 133.901 757.271 133.75 756.484 133.56C756.167 133.486 755.855 133.405 755.543 133.315C755.406 133.276 755.268 133.238 755.136 133.195C755.548 133.323 755.015 133.152 754.967 133.137C754.338 132.923 753.72 132.682 753.123 132.422C752.526 132.158 751.95 131.867 751.389 131.564C751.083 131.397 751.316 131.522 751.374 131.557C751.236 131.479 751.104 131.397 750.967 131.316C750.655 131.126 750.348 130.924 750.052 130.722C749.577 130.4 749.128 130.062 748.694 129.713C748.462 129.522 748.229 129.324 748.007 129.126C747.891 129.025 747.785 128.924 747.674 128.824C747.41 128.583 747.822 128.983 747.553 128.707C746.723 127.861 745.962 126.991 745.312 126.059C745.18 125.865 745.048 125.671 744.921 125.473C744.847 125.357 744.773 125.24 744.704 125.12C744.683 125.089 744.456 124.689 744.62 124.988C744.356 124.51 744.107 124.021 743.896 123.528C743.658 122.985 743.452 122.433 743.283 121.882C743.188 121.591 743.108 121.3 743.029 121.005C742.992 120.846 742.95 120.686 742.913 120.527C742.902 120.465 742.791 119.945 742.823 120.112C742.591 118.877 742.517 117.623 742.543 116.381C742.559 115.752 742.601 115.127 742.67 114.506C742.739 113.858 742.844 113.167 742.939 112.697C743.42 110.321 744.229 107.98 745.275 105.709C745.724 104.746 746.211 103.791 746.75 102.852C746.586 103.143 746.818 102.739 746.839 102.712C746.908 102.588 746.982 102.467 747.056 102.347C747.178 102.141 747.304 101.939 747.431 101.741C747.759 101.217 748.108 100.697 748.467 100.185C749.746 98.3523 751.21 96.5859 752.843 94.9126C753.033 94.7146 753.229 94.5167 753.429 94.3225C753.535 94.2138 753.646 94.109 753.752 94.0042C753.773 93.9809 754.143 93.6354 753.884 93.88C754.328 93.4607 754.782 93.0492 755.247 92.6454C756.156 91.8535 757.107 91.0887 758.101 90.355C759.094 89.6212 760.125 88.9185 761.192 88.2508C761.695 87.9363 762.207 87.6335 762.72 87.3346C763.185 87.0629 762.413 87.5015 762.889 87.2414C763.032 87.1599 763.174 87.0823 763.317 87.0046C763.602 86.8455 763.893 86.6902 764.189 86.5388C766.435 85.3702 768.823 84.3492 771.318 83.4951C772.264 83.1729 772.576 82.1208 772.031 81.4997C771.402 80.7892 770.324 80.634 769.31 80.9795Z" fill="white"/>
</g>
<g filter="url(#filter0_d_467_39211)">
<mask id="mask2_467_39211" style="mask-type:luminance" maskUnits="userSpaceOnUse" x="793" y="280" width="523" height="493">
<path d="M793.593 324.546L1274.81 280.822L1315.51 728.818L834.298 772.542L793.593 324.546Z" fill="white"/>
</mask>
<g mask="url(#mask2_467_39211)">
<mask id="mask3_467_39211" style="mask-type:luminance" maskUnits="userSpaceOnUse" x="797" y="277" width="541" height="484">
<path d="M859.067 277.04L1337.98 331.399L1276.12 760.089L797.235 705.727L859.067 277.04Z" fill="white"/>
</mask>
<g mask="url(#mask3_467_39211)">
<mask id="mask4_467_39211" style="mask-type:luminance" maskUnits="userSpaceOnUse" x="820" y="302" width="481" height="440">
<path d="M1098.83 304.264C1190.23 314.641 1263.5 378.457 1280.72 462.686L1297.49 544.672C1308.05 596.334 1291.26 649.92 1252.35 688.661C1213.44 727.402 1157.15 746.592 1101.09 740.226L972.875 725.659C916.799 719.296 867.771 688.171 841.121 641.977C814.47 595.784 813.41 540.186 838.313 492.546L877.8 416.949C918.391 339.279 1007.42 293.887 1098.83 304.264Z" fill="white"/>
</mask>
<g mask="url(#mask4_467_39211)">
<mask id="mask5_467_39211" style="mask-type:luminance" maskUnits="userSpaceOnUse" x="793" y="280" width="523" height="493">
<path d="M1274.81 280.822L793.593 324.546L834.299 772.543L1315.51 728.819L1274.81 280.822Z" fill="white"/>
</mask>
<g mask="url(#mask5_467_39211)">
<mask id="mask6_467_39211" style="mask-type:luminance" maskUnits="userSpaceOnUse" x="797" y="277" width="541" height="484">
<path d="M859.067 277.04L1337.98 331.4L1276.12 760.089L797.235 705.728L859.067 277.04Z" fill="white"/>
</mask>
<g mask="url(#mask6_467_39211)">
<mask id="mask7_467_39211" style="mask-type:luminance" maskUnits="userSpaceOnUse" x="820" y="302" width="481" height="440">
<path d="M1098.83 304.265C1190.23 314.642 1263.5 378.458 1280.72 462.686L1297.49 544.672C1308.05 596.335 1291.26 649.921 1252.35 688.662C1213.44 727.403 1157.15 746.592 1101.09 740.227L972.875 725.66C916.799 719.296 867.772 688.172 841.121 641.978C814.47 595.784 813.41 540.187 838.313 492.547L877.8 416.949C918.392 339.279 1007.42 293.887 1098.83 304.265Z" fill="white"/>
</mask>
<g mask="url(#mask7_467_39211)">
<path d="M792.718 269.514L1404.35 338.945L1342.5 767.635L730.864 698.204L792.718 269.514Z" fill="#AD6747"/>
</g>
</g>
</g>
</g>
</g>
</g>
<mask id="mask8_467_39211" style="mask-type:luminance" maskUnits="userSpaceOnUse" x="755" y="514" width="610" height="721">
<path d="M755.196 564.53L1303.55 514.706L1364.43 1184.72L816.075 1234.55L755.196 564.53Z" fill="white"/>
</mask>
<g mask="url(#mask8_467_39211)">
<mask id="mask9_467_39211" style="mask-type:luminance" maskUnits="userSpaceOnUse" x="777" y="538" width="570" height="678">
<path d="M1122.06 546.703C1093.13 540.218 1060.63 537.172 1029.25 540.023C997.895 542.872 968.171 550.701 941.173 562.287C940.603 562.63 940.028 562.682 939.455 563.004C838.274 608.69 770.021 711.25 778.749 823.755L797.411 1029.14C802.361 1083.62 830.351 1133.76 875.228 1168.52C920.104 1203.28 978.197 1219.82 1036.71 1214.5L1143.95 1204.76C1265.71 1193.69 1356.08 1092.84 1345.78 979.481L1327.13 774.218C1315.36 661.119 1230.91 572.453 1122.06 546.703Z" fill="white"/>
</mask>
<g mask="url(#mask9_467_39211)">
<mask id="mask10_467_39211" style="mask-type:luminance" maskUnits="userSpaceOnUse" x="752" y="511" width="617" height="726">
<path d="M1307.2 511.697L752.389 562.108L813.687 1236.74L1368.5 1186.33L1307.2 511.697Z" fill="white"/>
</mask>
<g mask="url(#mask10_467_39211)">
<mask id="mask11_467_39211" style="mask-type:luminance" maskUnits="userSpaceOnUse" x="755" y="514" width="610" height="721">
<path d="M755.196 564.531L1303.55 514.706L1364.43 1184.72L816.075 1234.55L755.196 564.531Z" fill="white"/>
</mask>
<g mask="url(#mask11_467_39211)">
<mask id="mask12_467_39211" style="mask-type:luminance" maskUnits="userSpaceOnUse" x="777" y="538" width="570" height="678">
<path d="M1122.06 546.703C1093.13 540.219 1060.63 537.172 1029.25 540.024C997.895 542.873 968.171 550.701 941.173 562.288C940.603 562.63 940.028 562.682 939.455 563.004C838.274 608.69 770.021 711.251 778.749 823.755L797.411 1029.14C802.361 1083.62 830.351 1133.76 875.228 1168.52C920.104 1203.28 978.197 1219.82 1036.71 1214.5L1143.95 1204.76C1265.71 1193.69 1356.08 1092.84 1345.78 979.482L1327.13 774.219C1315.36 661.119 1230.91 572.454 1122.06 546.703Z" fill="white"/>
</mask>
<g mask="url(#mask12_467_39211)">
<path d="M1364.43 1184.72L816.075 1234.55L755.196 564.531L1303.55 514.707L1364.43 1184.72Z" fill="#AD6747"/>
</g>
</g>
</g>
</g>
</g>
<mask id="mask13_467_39211" style="mask-type:luminance" maskUnits="userSpaceOnUse" x="654" y="593" width="253" height="369">
<path d="M654.317 613.531L875.109 593.47L906.716 941.326L685.924 961.387L654.317 613.531Z" fill="white"/>
</mask>
<g mask="url(#mask13_467_39211)">
<mask id="mask14_467_39211" style="mask-type:luminance" maskUnits="userSpaceOnUse" x="640" y="579" width="284" height="400">
<path d="M775.896 579.09L923.309 627.015L787.554 978.557L640.12 930.655L775.896 579.09Z" fill="white"/>
</mask>
<g mask="url(#mask14_467_39211)">
<mask id="mask15_467_39211" style="mask-type:luminance" maskUnits="userSpaceOnUse" x="681" y="601" width="201" height="356">
<path d="M849.602 603.053C808.891 589.834 745.518 657.763 708.045 754.787C670.572 851.81 673.207 941.183 713.919 954.402C754.632 967.641 818.005 899.713 855.478 802.689C892.929 705.667 890.316 616.292 849.602 603.053Z" fill="white"/>
</mask>
<g mask="url(#mask15_467_39211)">
<mask id="mask16_467_39211" style="mask-type:luminance" maskUnits="userSpaceOnUse" x="654" y="593" width="253" height="369">
<path d="M875.109 593.471L654.317 613.532L685.924 961.388L906.716 941.327L875.109 593.471Z" fill="white"/>
</mask>
<g mask="url(#mask16_467_39211)">
<mask id="mask17_467_39211" style="mask-type:luminance" maskUnits="userSpaceOnUse" x="640" y="579" width="284" height="400">
<path d="M775.896 579.09L923.309 627.015L787.554 978.558L640.12 930.655L775.896 579.09Z" fill="white"/>
</mask>
<g mask="url(#mask17_467_39211)">
<mask id="mask18_467_39211" style="mask-type:luminance" maskUnits="userSpaceOnUse" x="681" y="601" width="201" height="356">
<path d="M849.603 603.053C808.891 589.835 745.518 657.763 708.045 754.787C670.572 851.811 673.207 941.184 713.919 954.402C754.633 967.641 818.005 899.713 855.478 802.689C892.93 705.668 890.316 616.293 849.603 603.053Z" fill="white"/>
</mask>
<g mask="url(#mask18_467_39211)">
<path d="M775.896 579.091L923.309 627.016L787.554 978.558L640.12 930.656L775.896 579.091Z" fill="#865139"/>
</g>
</g>
</g>
</g>
</g>
</g>
<mask id="mask19_467_39211" style="mask-type:luminance" maskUnits="userSpaceOnUse" x="654" y="593" width="253" height="369">
<path d="M874.505 594.194L905.992 940.722L686.528 960.663L655.041 614.135L874.505 594.194Z" fill="white" stroke="white" stroke-width="1.33333"/>
</mask>
<g mask="url(#mask19_467_39211)">
<mask id="mask20_467_39211" style="mask-type:luminance" maskUnits="userSpaceOnUse" x="639" y="579" width="286" height="401">
<path d="M923.283 627.708L787.557 979.166L640.563 931.377L776.29 579.918L923.283 627.708Z" fill="white" stroke="white" stroke-width="1.33333"/>
</mask>
<g mask="url(#mask20_467_39211)">
<mask id="mask21_467_39211" style="mask-type:luminance" maskUnits="userSpaceOnUse" x="638" y="579" width="286" height="404">
<path d="M922.824 627.562L786.192 981.324L639.66 933.701L776.269 579.941L922.824 627.562Z" fill="white" stroke="white" stroke-width="1.33333"/>
</mask>
<g mask="url(#mask21_467_39211)">
<mask id="mask22_467_39211" style="mask-type:luminance" maskUnits="userSpaceOnUse" x="681" y="601" width="201" height="355">
<path d="M815.864 608.136C828.017 602.161 839.421 600.455 849.374 603.689C859.325 606.92 867.002 614.816 872.334 626.455C877.669 638.1 880.633 653.446 881.162 671.453C882.219 707.464 873.534 753.969 854.831 802.409C836.128 850.849 810.961 891.998 785.42 919.372C772.648 933.06 759.805 943.281 747.653 949.257C735.69 955.139 724.451 956.884 714.609 953.852L714.141 953.704C704.191 950.473 696.513 942.576 691.179 930.938C685.842 919.293 682.876 903.947 682.346 885.94C681.286 849.929 689.971 803.425 708.685 754.983C727.388 706.544 752.554 665.395 778.096 638.02C790.867 624.332 803.711 614.112 815.864 608.136Z" fill="white" stroke="white" stroke-width="1.33333"/>
</mask>
<g mask="url(#mask22_467_39211)">
<path d="M849.58 603.055C808.891 589.835 745.516 657.743 708.063 754.744C670.588 851.747 673.224 941.12 713.935 954.338C754.625 967.559 817.999 899.651 855.452 802.65C892.905 705.649 890.292 616.274 849.58 603.055Z" stroke="#865139" stroke-width="8"/>
</g>
</g>
</g>
</g>
<mask id="mask23_467_39211" style="mask-type:luminance" maskUnits="userSpaceOnUse" x="716" y="691" width="525" height="514">
<path d="M716.762 735.395L1197.98 691.671L1240.6 1160.75L759.384 1204.47L716.762 735.395Z" fill="white"/>
</mask>
<g mask="url(#mask23_467_39211)">
<mask id="mask24_467_39211" style="mask-type:luminance" maskUnits="userSpaceOnUse" x="588" y="619" width="666" height="609">
<path d="M588.542 847.909L1033.11 619.986L1253.32 999.383L808.75 1227.31L588.542 847.909Z" fill="white"/>
</mask>
<g mask="url(#mask24_467_39211)">
<mask id="mask25_467_39211" style="mask-type:luminance" maskUnits="userSpaceOnUse" x="753" y="723" width="467" height="473">
<path d="M903.257 735.907L1174.85 890.87C1203.25 907.075 1220.07 936.269 1218.96 967.487C1217.85 998.704 1199.01 1027.23 1169.5 1042.35L891.732 1184.77C862.226 1199.9 826.498 1199.33 797.975 1183.32C769.45 1167.29 752.447 1138.2 753.312 1106.99L761.708 808.469C762.575 777.523 781.16 749.181 810.41 734.172C839.662 719.184 875.108 719.845 903.257 735.907Z" fill="white"/>
</mask>
<g mask="url(#mask25_467_39211)">
<mask id="mask26_467_39211" style="mask-type:luminance" maskUnits="userSpaceOnUse" x="716" y="691" width="525" height="514">
<path d="M1197.98 691.671L716.761 735.396L759.383 1204.47L1240.6 1160.75L1197.98 691.671Z" fill="white"/>
</mask>
<g mask="url(#mask26_467_39211)">
<mask id="mask27_467_39211" style="mask-type:luminance" maskUnits="userSpaceOnUse" x="588" y="619" width="666" height="609">
<path d="M588.541 847.909L1033.11 619.987L1253.32 999.384L808.749 1227.31L588.541 847.909Z" fill="white"/>
</mask>
<g mask="url(#mask27_467_39211)">
<mask id="mask28_467_39211" style="mask-type:luminance" maskUnits="userSpaceOnUse" x="753" y="723" width="467" height="473">
<path d="M903.256 735.908L1174.85 890.871C1203.25 907.076 1220.07 936.27 1218.95 967.487C1217.84 998.704 1199.01 1027.24 1169.5 1042.35L891.731 1184.77C862.225 1199.9 826.497 1199.33 797.974 1183.32C769.449 1167.3 752.446 1138.2 753.311 1106.99L761.706 808.469C762.574 777.523 781.158 749.181 810.409 734.173C839.661 719.184 875.107 719.846 903.256 735.908Z" fill="white"/>
</mask>
<g mask="url(#mask28_467_39211)">
<path d="M484.402 801.906L1048.32 512.801L1312.97 968.805L749.074 1257.91L484.402 801.906Z" fill="#AD6747"/>
</g>
</g>
</g>
</g>
</g>
</g>
<mask id="mask29_467_39211" style="mask-type:luminance" maskUnits="userSpaceOnUse" x="946" y="713" width="457" height="450">
<path d="M946.568 751.712L1365.51 713.647L1402.86 1124.75L983.921 1162.82L946.568 751.712Z" fill="white"/>
</mask>
<g mask="url(#mask29_467_39211)">
<mask id="mask30_467_39211" style="mask-type:luminance" maskUnits="userSpaceOnUse" x="905" y="675" width="601" height="559">
<path d="M1505.87 975.999L1166.62 1233.48L905.661 933.159L1244.91 675.678L1505.87 975.999Z" fill="white"/>
</mask>
<g mask="url(#mask30_467_39211)">
<mask id="mask31_467_39211" style="mask-type:luminance" maskUnits="userSpaceOnUse" x="965" y="730" width="424" height="404">
<path d="M1195.53 1124.84L1056.14 1075.23C1008.59 1058.32 974.619 1018.96 967.001 971.926C959.361 924.897 979.23 877.32 1019.11 847.043L1132.17 761.253C1172.07 730.954 1225.96 722.57 1273.64 739.182C1321.31 755.816 1355.57 794.967 1363.54 841.924L1386.89 979.608C1394.8 1026.18 1375.25 1073.43 1335.73 1103.45C1296.18 1133.45 1242.67 1141.63 1195.53 1124.84Z" fill="white"/>
</mask>
<g mask="url(#mask31_467_39211)">
</g>
</g>
</g>
<mask id="mask32_467_39211" style="mask-type:luminance" maskUnits="userSpaceOnUse" x="1213" y="527" width="242" height="373">
<path d="M1213.35 546.794L1422.82 527.761L1454.91 880.888L1245.44 899.921L1213.35 546.794Z" fill="white"/>
</mask>
<g mask="url(#mask32_467_39211)">
<mask id="mask33_467_39211" style="mask-type:luminance" maskUnits="userSpaceOnUse" x="1174" y="513" width="316" height="399">
<path d="M1489.88 846.138L1348.98 911.852L1174.03 579.491L1314.95 513.774L1489.88 846.138Z" fill="white"/>
</mask>
<g mask="url(#mask33_467_39211)">
<mask id="mask34_467_39211" style="mask-type:luminance" maskUnits="userSpaceOnUse" x="1219" y="543" width="226" height="340">
<path d="M1419.44 879.005C1458.35 860.856 1450.75 771.789 1402.46 680.067C1354.19 588.343 1283.51 528.692 1244.6 546.841C1205.68 564.97 1213.26 654.039 1261.56 745.782C1309.85 837.504 1380.53 897.154 1419.44 879.005Z" fill="white"/>
</mask>
<g mask="url(#mask34_467_39211)">
<mask id="mask35_467_39211" style="mask-type:luminance" maskUnits="userSpaceOnUse" x="1213" y="527" width="242" height="373">
<path d="M1422.82 527.762L1213.35 546.795L1245.44 899.921L1454.91 880.888L1422.82 527.762Z" fill="white"/>
</mask>
<g mask="url(#mask35_467_39211)">
<mask id="mask36_467_39211" style="mask-type:luminance" maskUnits="userSpaceOnUse" x="1174" y="513" width="316" height="399">
<path d="M1489.88 846.138L1348.98 911.853L1174.03 579.492L1314.95 513.775L1489.88 846.138Z" fill="white"/>
</mask>
<g mask="url(#mask36_467_39211)">
<mask id="mask37_467_39211" style="mask-type:luminance" maskUnits="userSpaceOnUse" x="1219" y="543" width="226" height="340">
<path d="M1419.44 879.005C1458.35 860.856 1450.75 771.789 1402.46 680.067C1354.19 588.343 1283.51 528.693 1244.6 546.842C1205.69 564.97 1213.27 654.039 1261.56 745.782C1309.85 837.504 1380.53 897.154 1419.44 879.005Z" fill="white"/>
</mask>
<g mask="url(#mask37_467_39211)">
<path d="M1489.88 846.138L1348.98 911.853L1174.03 579.492L1314.95 513.775L1489.88 846.138Z" fill="#865139"/>
</g>
</g>
</g>
</g>
</g>
</g>
<mask id="mask38_467_39211" style="mask-type:luminance" maskUnits="userSpaceOnUse" x="1213" y="527" width="242" height="373">
<path d="M1422.22 528.486L1454.18 880.285L1246.04 899.197L1214.08 547.398L1422.22 528.486Z" fill="white" stroke="white" stroke-width="1.33333"/>
</mask>
<g mask="url(#mask38_467_39211)">
<mask id="mask39_467_39211" style="mask-type:luminance" maskUnits="userSpaceOnUse" x="1172" y="512" width="318" height="401">
<path d="M1488.96 845.829L1348.46 911.364L1173.56 579.095L1314.07 513.579L1488.96 845.829Z" fill="white" stroke="white" stroke-width="1.33333"/>
</mask>
<g mask="url(#mask39_467_39211)">
<mask id="mask40_467_39211" style="mask-type:luminance" maskUnits="userSpaceOnUse" x="1171" y="510" width="319" height="403">
<path d="M1488.96 845.829L1348.91 911.158L1172.85 576.688L1312.93 511.378L1488.96 845.829Z" fill="white" stroke="white" stroke-width="1.33333"/>
</mask>
<g mask="url(#mask40_467_39211)">
<mask id="mask41_467_39211" style="mask-type:luminance" maskUnits="userSpaceOnUse" x="1219" y="543" width="226" height="340">
<path d="M1244.9 547.483C1254.42 543.043 1265.94 543.333 1278.7 547.77C1291.45 552.207 1305.37 560.776 1319.61 572.797C1348.1 596.837 1377.79 634.601 1401.89 680.395C1425.99 726.189 1439.93 771.295 1442.99 807.18C1444.52 825.125 1443.33 840.727 1439.36 852.947C1435.45 864.969 1428.88 873.671 1419.6 878.168L1419.16 878.379C1409.64 882.818 1398.13 882.53 1385.38 878.095C1372.63 873.659 1358.71 865.093 1344.47 853.075C1315.98 829.04 1286.3 791.28 1262.19 745.487C1238.09 699.682 1224.16 654.576 1221.09 618.69C1219.56 600.746 1220.75 585.143 1224.72 572.923C1228.68 560.709 1235.4 551.92 1244.9 547.484L1244.9 547.483Z" fill="white" stroke="white" stroke-width="1.33333"/>
</mask>
<g mask="url(#mask41_467_39211)">
<path d="M1419.44 878.982C1458.35 860.854 1450.75 771.787 1402.48 680.083C1354.21 588.38 1283.53 528.729 1244.62 546.879C1205.73 565.026 1213.33 654.072 1261.6 745.796C1309.87 837.5 1380.55 897.129 1419.44 878.982Z" stroke="#865139" stroke-width="8"/>
</g>
</g>
</g>
</g>
<mask id="mask42_467_39211" style="mask-type:luminance" maskUnits="userSpaceOnUse" x="832" y="461" width="551" height="547">
<path d="M833 506.957L1336.86 461.175L1382.35 961.877L878.495 1007.66L833 506.957Z" fill="white"/>
</mask>
<g mask="url(#mask42_467_39211)">
<mask id="mask43_467_39211" style="mask-type:luminance" maskUnits="userSpaceOnUse" x="827" y="446" width="725" height="672">
<path d="M1551.1 786.416L1146.44 1117.8L827.559 778.364L1232.22 446.976L1551.1 786.416Z" fill="white"/>
</mask>
<g mask="url(#mask43_467_39211)">
<mask id="mask44_467_39211" style="mask-type:luminance" maskUnits="userSpaceOnUse" x="859" y="476" width="514" height="492">
<path d="M1275.72 963.989L909.234 848.308C884.281 840.424 865.879 820.716 860.942 796.566C856.027 772.414 865.288 747.473 885.274 731.105L1175.21 493.672C1195.2 477.284 1222.9 471.965 1247.9 479.678C1272.91 487.39 1291.46 507.003 1296.57 531.116L1371.62 885.445C1376.69 909.354 1367.57 934.138 1347.75 950.365C1327.95 966.591 1300.44 971.789 1275.72 963.989Z" fill="white"/>
</mask>
<g mask="url(#mask44_467_39211)">
<mask id="mask45_467_39211" style="mask-type:luminance" maskUnits="userSpaceOnUse" x="832" y="461" width="551" height="547">
<path d="M1336.86 461.174L833 506.956L878.494 1007.66L1382.35 961.876L1336.86 461.174Z" fill="white"/>
</mask>
<g mask="url(#mask45_467_39211)">
<mask id="mask46_467_39211" style="mask-type:luminance" maskUnits="userSpaceOnUse" x="833" y="461" width="550" height="547">
<path d="M833.018 507.162L1336.88 461.38L1382.35 961.876L878.494 1007.66L833.018 507.162Z" fill="white"/>
</mask>
<g mask="url(#mask46_467_39211)">
<mask id="mask47_467_39211" style="mask-type:luminance" maskUnits="userSpaceOnUse" x="827" y="446" width="725" height="672">
<path d="M1551.1 786.416L1146.44 1117.8L827.559 778.364L1232.22 446.976L1551.1 786.416Z" fill="white"/>
</mask>
<g mask="url(#mask47_467_39211)">
<mask id="mask48_467_39211" style="mask-type:luminance" maskUnits="userSpaceOnUse" x="859" y="476" width="514" height="492">
<path d="M1275.72 963.989L909.234 848.308C884.281 840.424 865.879 820.716 860.942 796.566C856.027 772.414 865.288 747.472 885.273 731.105L1175.21 493.672C1195.2 477.284 1222.9 471.965 1247.9 479.678C1272.91 487.39 1291.46 507.003 1296.57 531.116L1371.62 885.445C1376.69 909.354 1367.57 934.137 1347.75 950.365C1327.95 966.591 1300.44 971.789 1275.72 963.989Z" fill="white"/>
</mask>
<g mask="url(#mask48_467_39211)">
<path d="M1637.93 804.183L1153.99 1200.48L787.92 810.819L1271.86 414.521L1637.93 804.183Z" fill="#AD6747"/>
</g>
</g>
</g>
</g>
</g>
</g>
</g>
<mask id="mask49_467_39211" style="mask-type:luminance" maskUnits="userSpaceOnUse" x="735" y="457" width="504" height="476">
<path d="M735.32 499.89L1199.55 457.709L1238.82 889.894L774.589 932.075L735.32 499.89Z" fill="white"/>
</mask>
<g mask="url(#mask49_467_39211)">
<mask id="mask50_467_39211" style="mask-type:luminance" maskUnits="userSpaceOnUse" x="629" y="440" width="642" height="595">
<path d="M984.633 1034.94L629.005 759.498L915.052 440.196L1270.66 715.643L984.633 1034.94Z" fill="white"/>
</mask>
<g mask="url(#mask50_467_39211)">
<mask id="mask51_467_39211" style="mask-type:luminance" maskUnits="userSpaceOnUse" x="767" y="485" width="455" height="435">
<path d="M769.594 796.605L814.983 575.663C822.817 537.463 851.774 505.729 891.025 492.323C930.275 478.897 973.958 485.805 1005.76 510.461L1179.39 644.931C1211.22 669.585 1226.4 708.269 1219.31 746.61C1212.2 784.931 1183.89 817.126 1144.9 831.213L919.404 912.627C881.344 926.382 838.555 919.994 807.494 895.935C776.433 871.875 761.945 833.897 769.594 796.605Z" fill="white"/>
</mask>
<g mask="url(#mask51_467_39211)">
<mask id="mask52_467_39211" style="mask-type:luminance" maskUnits="userSpaceOnUse" x="735" y="457" width="504" height="476">
<path d="M1199.55 457.709L735.32 499.89L774.589 932.075L1238.82 889.894L1199.55 457.709Z" fill="white"/>
</mask>
<g mask="url(#mask52_467_39211)">
<mask id="mask53_467_39211" style="mask-type:luminance" maskUnits="userSpaceOnUse" x="629" y="440" width="642" height="595">
<path d="M984.633 1034.94L629.006 759.498L915.052 440.196L1270.66 715.644L984.633 1034.94Z" fill="white"/>
</mask>
<g mask="url(#mask53_467_39211)">
<mask id="mask54_467_39211" style="mask-type:luminance" maskUnits="userSpaceOnUse" x="767" y="485" width="455" height="435">
<path d="M769.594 796.606L814.983 575.664C822.817 537.463 851.774 505.729 891.025 492.323C930.275 478.897 973.958 485.805 1005.76 510.461L1179.39 644.932C1211.22 669.586 1226.4 708.27 1219.31 746.61C1212.2 784.932 1183.89 817.126 1144.9 831.214L919.404 912.628C881.344 926.382 838.555 919.995 807.494 895.935C776.433 871.876 761.945 833.897 769.594 796.606Z" fill="white"/>
</mask>
<g mask="url(#mask54_467_39211)">
<path d="M971.715 1166.15L492.562 795L853.288 392.336L1332.44 763.482L971.715 1166.15Z" fill="#AD6747"/>
</g>
</g>
</g>
</g>
</g>
</g>
<path d="M1277.29 422.746C1326.58 664.562 1357.92 818.334 1371.31 884.061" stroke="#AD6747" stroke-width="14"/>
<path d="M904.728 372.217C796.007 544.735 745.51 789.95 753.255 1107.82" stroke="#AD6747" stroke-width="14" stroke-linecap="round" stroke-linejoin="round"/>
<mask id="mask55_467_39211" style="mask-type:luminance" maskUnits="userSpaceOnUse" x="876" y="287" width="99" height="94">
<path d="M876.597 295.747L967.179 287.517L974.841 371.846L884.26 380.076L876.597 295.747Z" fill="white"/>
</mask>
<g mask="url(#mask55_467_39211)">
<mask id="mask56_467_39211" style="mask-type:luminance" maskUnits="userSpaceOnUse" x="869" y="281" width="112" height="104">
<path d="M869.193 313.649L948.459 281.744L980.279 352.191L901.013 384.096L869.193 313.649Z" fill="white"/>
</mask>
<g mask="url(#mask56_467_39211)">
<mask id="mask57_467_39211" style="mask-type:luminance" maskUnits="userSpaceOnUse" x="885" y="294" width="86" height="81">
<path d="M908.858 297.673C924.002 291.585 941.494 295.143 952.273 306.536L962.777 317.6C969.411 324.595 971.996 334.158 969.707 343.312C967.441 352.486 960.598 360.124 951.327 363.851L930.097 372.402C920.803 376.132 910.221 375.495 901.648 370.711C893.073 365.906 887.54 357.525 886.781 348.19L885.59 333.373C884.363 318.145 893.736 303.759 908.858 297.673Z" fill="white"/>
</mask>
<g mask="url(#mask57_467_39211)">
<mask id="mask58_467_39211" style="mask-type:luminance" maskUnits="userSpaceOnUse" x="876" y="287" width="99" height="94">
<path d="M967.179 287.517L876.598 295.747L884.26 380.076L974.841 371.845L967.179 287.517Z" fill="white"/>
</mask>
<g mask="url(#mask58_467_39211)">
<mask id="mask59_467_39211" style="mask-type:luminance" maskUnits="userSpaceOnUse" x="881" y="287" width="94" height="93">
<path d="M881.13 295.335L967.178 287.516L974.84 371.845L888.793 379.664L881.13 295.335Z" fill="white"/>
</mask>
<g mask="url(#mask59_467_39211)">
<mask id="mask60_467_39211" style="mask-type:luminance" maskUnits="userSpaceOnUse" x="869" y="281" width="112" height="104">
<path d="M869.194 313.648L948.46 281.744L980.28 352.191L901.013 384.095L869.194 313.648Z" fill="white"/>
</mask>
<g mask="url(#mask60_467_39211)">
<mask id="mask61_467_39211" style="mask-type:luminance" maskUnits="userSpaceOnUse" x="885" y="294" width="86" height="81">
<path d="M908.858 297.672C924.002 291.584 941.495 295.143 952.274 306.535L962.778 317.599C969.411 324.594 971.997 334.157 969.707 343.312C967.441 352.485 960.599 360.123 951.327 363.851L930.097 372.402C920.804 376.132 910.221 375.495 901.648 370.71C893.073 365.906 887.54 357.524 886.781 348.19L885.591 333.373C884.363 318.144 893.736 303.758 908.858 297.672Z" fill="white"/>
</mask>
<g mask="url(#mask61_467_39211)">
<path d="M858.201 318.051L959.431 277.322L991.272 347.767L890.045 388.517L858.201 318.051Z" fill="#865139"/>
</g>
</g>
</g>
</g>
</g>
</g>
</g>
<mask id="mask62_467_39211" style="mask-type:luminance" maskUnits="userSpaceOnUse" x="883" y="496" width="68" height="54">
<path d="M883.952 502.327L946.227 496.668L950.537 544.103L888.262 549.762L883.952 502.327Z" fill="white"/>
</mask>
<g mask="url(#mask62_467_39211)">
<mask id="mask63_467_39211" style="mask-type:luminance" maskUnits="userSpaceOnUse" x="888" y="502" width="59" height="42">
<path d="M946.094 504.777L943.943 543.188L888.597 541.179L890.746 502.748L946.094 504.777Z" fill="white"/>
</mask>
<g mask="url(#mask63_467_39211)">
<mask id="mask64_467_39211" style="mask-type:luminance" maskUnits="userSpaceOnUse" x="889" y="503" width="57" height="40">
<path d="M945.008 523.993C945.604 513.373 933.722 504.323 918.466 503.779C903.23 503.212 890.369 511.355 889.773 521.975C889.198 532.572 901.079 541.623 916.315 542.19C931.573 542.755 944.411 534.593 945.008 523.993Z" fill="white"/>
</mask>
<g mask="url(#mask64_467_39211)">
<mask id="mask65_467_39211" style="mask-type:luminance" maskUnits="userSpaceOnUse" x="883" y="496" width="68" height="54">
<path d="M946.226 496.669L883.952 502.328L888.262 549.763L950.536 544.104L946.226 496.669Z" fill="white"/>
</mask>
<g mask="url(#mask65_467_39211)">
<mask id="mask66_467_39211" style="mask-type:luminance" maskUnits="userSpaceOnUse" x="886" y="498" width="63" height="49">
<path d="M886.342 503.605L944.769 498.297L948.677 541.305L890.25 546.614L886.342 503.605Z" fill="white"/>
</mask>
<g mask="url(#mask66_467_39211)">
<mask id="mask67_467_39211" style="mask-type:luminance" maskUnits="userSpaceOnUse" x="888" y="502" width="59" height="42">
<path d="M946.094 504.778L943.943 543.189L888.597 541.181L890.746 502.749L946.094 504.778Z" fill="white"/>
</mask>
<g mask="url(#mask67_467_39211)">
<mask id="mask68_467_39211" style="mask-type:luminance" maskUnits="userSpaceOnUse" x="889" y="503" width="57" height="40">
<path d="M945.008 523.995C945.604 513.375 933.722 504.325 918.466 503.78C903.23 503.213 890.369 511.357 889.773 521.977C889.197 532.574 901.079 541.624 916.315 542.191C931.573 542.756 944.41 534.594 945.008 523.995Z" fill="white"/>
</mask>
<g mask="url(#mask68_467_39211)">
<path d="M946.093 504.779L943.942 543.19L888.753 541.188L890.902 502.757L946.093 504.779Z" fill="#F6827C"/>
</g>
</g>
</g>
</g>
</g>
</g>
</g>
<mask id="mask69_467_39211" style="mask-type:luminance" maskUnits="userSpaceOnUse" x="908" y="457" width="70" height="80">
<path d="M908.906 462.862L971.18 457.203L977.885 530.991L915.61 536.649L908.906 462.862Z" fill="white"/>
</mask>
<g mask="url(#mask69_467_39211)">
<mask id="mask70_467_39211" style="mask-type:luminance" maskUnits="userSpaceOnUse" x="915" y="461" width="58" height="70">
<path d="M919.712 461.797L972.665 463.732L968.95 530.08L915.997 528.145L919.712 461.797Z" fill="white"/>
</mask>
<g mask="url(#mask70_467_39211)">
<mask id="mask71_467_39211" style="mask-type:luminance" maskUnits="userSpaceOnUse" x="917" y="462" width="54" height="67">
<path d="M946.177 462.755C931.569 462.235 918.873 476.611 917.858 494.888C916.843 513.164 927.863 528.437 942.47 528.957C957.102 529.496 969.776 515.121 970.811 496.823C971.826 478.546 960.808 463.294 946.177 462.755Z" fill="white"/>
</mask>
<g mask="url(#mask71_467_39211)">
<mask id="mask72_467_39211" style="mask-type:luminance" maskUnits="userSpaceOnUse" x="908" y="457" width="70" height="80">
<path d="M971.181 457.203L908.906 462.861L915.611 536.649L977.885 530.991L971.181 457.203Z" fill="white"/>
</mask>
<g mask="url(#mask72_467_39211)">
<mask id="mask73_467_39211" style="mask-type:luminance" maskUnits="userSpaceOnUse" x="911" y="457" width="67" height="77">
<path d="M911.443 463.046L971.219 457.615L977.656 528.458L917.88 533.89L911.443 463.046Z" fill="white"/>
</mask>
<g mask="url(#mask73_467_39211)">
<mask id="mask74_467_39211" style="mask-type:luminance" maskUnits="userSpaceOnUse" x="915" y="461" width="58" height="70">
<path d="M919.714 461.797L972.667 463.732L968.952 530.08L915.999 528.145L919.714 461.797Z" fill="white"/>
</mask>
<g mask="url(#mask74_467_39211)">
<mask id="mask75_467_39211" style="mask-type:luminance" maskUnits="userSpaceOnUse" x="917" y="462" width="54" height="67">
<path d="M946.179 462.755C931.571 462.235 918.875 476.611 917.86 494.888C916.845 513.164 927.865 528.437 942.472 528.957C957.104 529.496 969.778 515.121 970.813 496.822C971.828 478.546 960.81 463.294 946.179 462.755Z" fill="white"/>
</mask>
<g mask="url(#mask75_467_39211)">
<path d="M919.714 461.797L972.667 463.732L968.957 529.893L916.003 527.958L919.714 461.797Z" fill="#402300"/>
</g>
</g>
</g>
</g>
</g>
</g>
</g>
<mask id="mask76_467_39211" style="mask-type:luminance" maskUnits="userSpaceOnUse" x="1199" y="511" width="61" height="48">
<path d="M1199.16 516.2L1255.77 511.056L1259.6 553.22L1202.99 558.364L1199.16 516.2Z" fill="white"/>
</mask>
<g mask="url(#mask76_467_39211)">
<mask id="mask77_467_39211" style="mask-type:luminance" maskUnits="userSpaceOnUse" x="1199" y="514" width="59" height="41">
<path d="M1257.35 516.164L1255.2 554.596L1199.83 552.569L1201.98 514.137L1257.35 516.164Z" fill="white"/>
</mask>
<g mask="url(#mask77_467_39211)">
<mask id="mask78_467_39211" style="mask-type:luminance" maskUnits="userSpaceOnUse" x="1201" y="515" width="56" height="39">
<path d="M1256.26 535.381C1256.86 524.781 1244.98 515.71 1229.72 515.166C1214.46 514.601 1201.63 522.743 1201.03 533.363C1200.43 543.962 1212.31 553.012 1227.57 553.577C1242.83 554.142 1255.67 545.98 1256.26 535.381Z" fill="white"/>
</mask>
<g mask="url(#mask78_467_39211)">
<mask id="mask79_467_39211" style="mask-type:luminance" maskUnits="userSpaceOnUse" x="1199" y="511" width="61" height="48">
<path d="M1255.77 511.055L1199.16 516.199L1202.99 558.364L1259.6 553.22L1255.77 511.055Z" fill="white"/>
</mask>
<g mask="url(#mask79_467_39211)">
<mask id="mask80_467_39211" style="mask-type:luminance" maskUnits="userSpaceOnUse" x="1199" y="514" width="59" height="41">
<path d="M1257.35 516.164L1255.2 554.595L1199.83 552.569L1201.98 514.137L1257.35 516.164Z" fill="white"/>
</mask>
<g mask="url(#mask80_467_39211)">
<mask id="mask81_467_39211" style="mask-type:luminance" maskUnits="userSpaceOnUse" x="1201" y="515" width="56" height="39">
<path d="M1256.26 535.381C1256.86 524.781 1244.98 515.71 1229.72 515.166C1214.46 514.601 1201.62 522.743 1201.03 533.363C1200.43 543.962 1212.31 553.012 1227.57 553.577C1242.83 554.142 1255.67 545.98 1256.26 535.381Z" fill="white"/>
</mask>
<g mask="url(#mask81_467_39211)">
<path d="M1257.35 516.164L1255.2 554.596L1200.01 552.574L1202.16 514.142L1257.35 516.164Z" fill="#F6827C"/>
</g>
</g>
</g>
</g>
</g>
</g>
<mask id="mask82_467_39211" style="mask-type:luminance" maskUnits="userSpaceOnUse" x="1172" y="465" width="64" height="80">
<path d="M1172.2 470.822L1228.81 465.678L1235.52 539.466L1178.91 544.61L1172.2 470.822Z" fill="white"/>
</mask>
<g mask="url(#mask82_467_39211)">
<mask id="mask83_467_39211" style="mask-type:luminance" maskUnits="userSpaceOnUse" x="1176" y="471" width="58" height="69">
<path d="M1180.32 471.33L1233.25 473.267L1229.53 539.615L1176.6 537.678L1180.32 471.33Z" fill="white"/>
</mask>
<g mask="url(#mask83_467_39211)">
<mask id="mask84_467_39211" style="mask-type:luminance" maskUnits="userSpaceOnUse" x="1178" y="472" width="54" height="67">
<path d="M1206.79 472.31C1192.18 471.769 1179.48 486.145 1178.46 504.422C1177.43 522.72 1188.47 537.971 1203.08 538.512C1217.71 539.03 1230.38 524.655 1231.4 506.379C1232.43 488.08 1221.41 472.828 1206.79 472.31Z" fill="white"/>
</mask>
<g mask="url(#mask84_467_39211)">
<mask id="mask85_467_39211" style="mask-type:luminance" maskUnits="userSpaceOnUse" x="1172" y="465" width="64" height="80">
<path d="M1228.82 465.679L1172.2 470.823L1178.91 544.611L1235.52 539.467L1228.82 465.679Z" fill="white"/>
</mask>
<g mask="url(#mask85_467_39211)">
<mask id="mask86_467_39211" style="mask-type:luminance" maskUnits="userSpaceOnUse" x="1172" y="467" width="64" height="77">
<path d="M1172.58 472.491L1228.97 467.367L1235.4 538.211L1179.01 543.335L1172.58 472.491Z" fill="white"/>
</mask>
<g mask="url(#mask86_467_39211)">
<mask id="mask87_467_39211" style="mask-type:luminance" maskUnits="userSpaceOnUse" x="1176" y="471" width="58" height="69">
<path d="M1180.32 471.332L1233.25 473.269L1229.53 539.617L1176.6 537.68L1180.32 471.332Z" fill="white"/>
</mask>
<g mask="url(#mask87_467_39211)">
<mask id="mask88_467_39211" style="mask-type:luminance" maskUnits="userSpaceOnUse" x="1178" y="472" width="54" height="67">
<path d="M1206.79 472.31C1192.18 471.769 1179.48 486.145 1178.46 504.422C1177.43 522.72 1188.47 537.971 1203.08 538.512C1217.71 539.03 1230.38 524.655 1231.4 506.379C1232.43 488.08 1221.41 472.828 1206.79 472.31Z" fill="white"/>
</mask>
<g mask="url(#mask88_467_39211)">
<path d="M1180.32 471.331L1233.25 473.268L1229.56 539.427L1176.61 537.492L1180.32 471.331Z" fill="#402300"/>
</g>
</g>
</g>
</g>
</g>
</g>
</g>
<mask id="mask89_467_39211" style="mask-type:luminance" maskUnits="userSpaceOnUse" x="976" y="435" width="194" height="212">
<path d="M976.363 451.418L1151.86 435.472L1169.58 630.482L994.082 646.429L976.363 451.418Z" fill="white"/>
</mask>
<g mask="url(#mask89_467_39211)">
<mask id="mask90_467_39211" style="mask-type:luminance" maskUnits="userSpaceOnUse" x="981" y="442" width="182" height="200">
<path d="M992.685 442.836L1162.69 449.061L1151.95 641.032L981.967 634.805L992.685 442.836Z" fill="white"/>
</mask>
<g mask="url(#mask90_467_39211)">
<mask id="mask91_467_39211" style="mask-type:luminance" maskUnits="userSpaceOnUse" x="987" y="445" width="171" height="193">
<path d="M1077.7 445.948C1030.74 444.236 990.293 485.712 987.337 538.581C984.382 591.45 1020.04 635.705 1066.98 637.418C1113.91 639.153 1154.38 597.675 1157.34 544.806C1160.29 491.916 1124.63 447.661 1077.7 445.948Z" fill="white"/>
</mask>
<g mask="url(#mask91_467_39211)">
<mask id="mask92_467_39211" style="mask-type:luminance" maskUnits="userSpaceOnUse" x="976" y="435" width="194" height="212">
<path d="M1151.86 435.472L976.363 451.418L994.082 646.428L1169.58 630.482L1151.86 435.472Z" fill="white"/>
</mask>
<g mask="url(#mask92_467_39211)">
<mask id="mask93_467_39211" style="mask-type:luminance" maskUnits="userSpaceOnUse" x="981" y="442" width="182" height="200">
<path d="M992.686 442.836L1162.69 449.061L1151.95 641.031L981.967 634.805L992.686 442.836Z" fill="white"/>
</mask>
<g mask="url(#mask93_467_39211)">
<mask id="mask94_467_39211" style="mask-type:luminance" maskUnits="userSpaceOnUse" x="987" y="445" width="171" height="193">
<path d="M1077.7 445.947C1030.74 444.236 990.293 485.711 987.337 538.581C984.382 591.45 1020.04 635.704 1066.98 637.418C1113.91 639.152 1154.38 597.675 1157.34 544.805C1160.29 491.915 1124.63 447.661 1077.7 445.947Z" fill="white"/>
</mask>
<g mask="url(#mask94_467_39211)">
<path d="M992.685 442.836L1162.69 449.06L1151.98 640.426L982.001 634.199L992.685 442.836Z" fill="#E2B282"/>
</g>
</g>
</g>
</g>
</g>
</g>
<mask id="mask95_467_39211" style="mask-type:luminance" maskUnits="userSpaceOnUse" x="1041" y="471" width="75" height="70">
<path d="M1041.51 477.383L1109.45 471.21L1115.19 534.457L1047.26 540.63L1041.51 477.383Z" fill="white"/>
</mask>
<g mask="url(#mask95_467_39211)">
<mask id="mask96_467_39211" style="mask-type:luminance" maskUnits="userSpaceOnUse" x="1041" y="480" width="67" height="57">
<path d="M1044.93 480.892L1107.66 483.184L1104.71 536.094L1041.98 533.802L1044.93 480.892Z" fill="white"/>
</mask>
<g mask="url(#mask96_467_39211)">
<mask id="mask97_467_39211" style="mask-type:luminance" maskUnits="userSpaceOnUse" x="1044" y="481" width="64" height="54">
<path d="M1079.82 531.61L1105.9 493.474C1107.33 491.392 1107.45 488.766 1106.25 486.591C1105.05 484.397 1102.67 483.014 1100.03 482.901L1052.45 481.164C1049.81 481.071 1047.29 482.297 1045.85 484.379C1044.41 486.461 1044.25 489.091 1045.45 491.265L1067.15 531.141C1068.33 533.297 1070.67 534.704 1073.28 534.798C1075.9 534.892 1078.4 533.669 1079.82 531.61Z" fill="white"/>
</mask>
<g mask="url(#mask97_467_39211)">
<mask id="mask98_467_39211" style="mask-type:luminance" maskUnits="userSpaceOnUse" x="1041" y="471" width="75" height="70">
<path d="M1109.45 471.21L1041.51 477.382L1047.26 540.629L1115.19 534.456L1109.45 471.21Z" fill="white"/>
</mask>
<g mask="url(#mask98_467_39211)">
<mask id="mask99_467_39211" style="mask-type:luminance" maskUnits="userSpaceOnUse" x="1043" y="474" width="70" height="65">
<path d="M1043.15 480.43L1107.01 474.627L1112.3 532.809L1048.43 538.612L1043.15 480.43Z" fill="white"/>
</mask>
<g mask="url(#mask99_467_39211)">
<mask id="mask100_467_39211" style="mask-type:luminance" maskUnits="userSpaceOnUse" x="1041" y="480" width="67" height="57">
<path d="M1044.93 480.891L1107.66 483.183L1104.71 536.093L1041.98 533.801L1044.93 480.891Z" fill="white"/>
</mask>
<g mask="url(#mask100_467_39211)">
<mask id="mask101_467_39211" style="mask-type:luminance" maskUnits="userSpaceOnUse" x="1044" y="481" width="64" height="54">
<path d="M1079.82 531.609L1105.89 493.473C1107.33 491.391 1107.45 488.765 1106.25 486.591C1105.05 484.396 1102.67 483.013 1100.03 482.901L1052.44 481.163C1049.81 481.07 1047.29 482.296 1045.85 484.378C1044.41 486.46 1044.25 489.09 1045.45 491.264L1067.15 531.14C1068.33 533.296 1070.67 534.703 1073.28 534.797C1075.9 534.891 1078.4 533.668 1079.82 531.609Z" fill="white"/>
</mask>
<g mask="url(#mask101_467_39211)">
<path d="M1039.69 480.702L1112.91 483.369L1109.57 543.041L1036.35 540.374L1039.69 480.702Z" fill="#402300"/>
</g>
</g>
</g>
</g>
</g>
</g>
</g>
<mask id="mask102_467_39211" style="mask-type:luminance" maskUnits="userSpaceOnUse" x="1055" y="504" width="40" height="57">
<path d="M1055.71 507.978L1089.68 504.891L1094.46 557.597L1060.5 560.683L1055.71 507.978Z" fill="white"/>
</mask>
<g mask="url(#mask102_467_39211)">
<mask id="mask103_467_39211" style="mask-type:luminance" maskUnits="userSpaceOnUse" x="1061" y="509" width="25" height="45">
<path d="M1064.08 509.105L1085.36 509.871L1082.91 553.374L1061.63 552.588L1064.08 509.105Z" fill="white"/>
</mask>
<g mask="url(#mask103_467_39211)">
<mask id="mask104_467_39211" style="mask-type:luminance" maskUnits="userSpaceOnUse" x="1055" y="504" width="40" height="57">
<path d="M1089.68 504.891L1055.71 507.977L1060.5 560.683L1094.46 557.596L1089.68 504.891Z" fill="white"/>
</mask>
<g mask="url(#mask104_467_39211)">
<mask id="mask105_467_39211" style="mask-type:luminance" maskUnits="userSpaceOnUse" x="1056" y="505" width="34" height="52">
<path d="M1056.67 508.533L1085.2 505.941L1089.57 553.993L1061.04 556.585L1056.67 508.533Z" fill="white"/>
</mask>
<g mask="url(#mask105_467_39211)">
<mask id="mask106_467_39211" style="mask-type:luminance" maskUnits="userSpaceOnUse" x="1061" y="509" width="25" height="45">
<path d="M1064.08 509.105L1085.36 509.871L1082.91 553.373L1061.63 552.587L1064.08 509.105Z" fill="white"/>
</mask>
<g mask="url(#mask106_467_39211)">
<path d="M1064.08 509.105L1085.36 509.871L1082.91 553.373L1061.63 552.587L1064.08 509.105Z" fill="#402300"/>
</g>
</g>
</g>
</g>
</g>
<path d="M969.348 328.816C1071.78 280.086 1160.79 295.288 1236.38 374.423" stroke="#AD6747" stroke-width="12"/>
<mask id="mask107_467_39211" style="mask-type:luminance" maskUnits="userSpaceOnUse" x="1224" y="346" width="100" height="99">
<path d="M1224.42 354.482L1315 346.252L1323.14 435.851L1232.56 444.082L1224.42 354.482Z" fill="white"/>
</mask>
<g mask="url(#mask107_467_39211)">
<mask id="mask108_467_39211" style="mask-type:luminance" maskUnits="userSpaceOnUse" x="1214" y="336" width="120" height="112">
<path d="M1270.65 336.395L1333.92 389.827L1278.16 447.038L1214.88 393.606L1270.65 336.395Z" fill="white"/>
</mask>
<g mask="url(#mask108_467_39211)">
<mask id="mask109_467_39211" style="mask-type:luminance" maskUnits="userSpaceOnUse" x="1227" y="354" width="88" height="81">
<path d="M1302.33 363.137C1314.41 373.353 1318.03 389.693 1311.3 403.714L1304.78 417.363C1300.66 425.978 1292.38 432.273 1282.53 434.269C1272.68 436.285 1262.44 433.769 1255.05 427.508L1238.09 413.21C1230.68 406.95 1227.01 397.714 1228.19 388.39C1229.39 379.064 1235.31 370.784 1244.12 366.123L1258.07 358.752C1272.44 351.178 1290.26 352.942 1302.33 363.137Z" fill="white"/>
</mask>
<g mask="url(#mask109_467_39211)">
<mask id="mask110_467_39211" style="mask-type:luminance" maskUnits="userSpaceOnUse" x="1224" y="346" width="100" height="99">
<path d="M1315 346.252L1224.42 354.483L1232.56 444.082L1323.14 435.852L1315 346.252Z" fill="white"/>
</mask>
<g mask="url(#mask110_467_39211)">
<mask id="mask111_467_39211" style="mask-type:luminance" maskUnits="userSpaceOnUse" x="1224" y="346" width="99" height="95">
<path d="M1224.42 354.483L1314.56 346.292L1322.35 432.104L1232.22 440.294L1224.42 354.483Z" fill="white"/>
</mask>
<g mask="url(#mask111_467_39211)">
<mask id="mask112_467_39211" style="mask-type:luminance" maskUnits="userSpaceOnUse" x="1214" y="336" width="120" height="112">
<path d="M1270.65 336.395L1333.92 389.827L1278.16 447.038L1214.88 393.606L1270.65 336.395Z" fill="white"/>
</mask>
<g mask="url(#mask112_467_39211)">
<mask id="mask113_467_39211" style="mask-type:luminance" maskUnits="userSpaceOnUse" x="1227" y="354" width="88" height="81">
<path d="M1302.33 363.138C1314.41 373.353 1318.03 389.693 1311.3 403.714L1304.78 417.363C1300.66 425.979 1292.38 432.273 1282.53 434.269C1272.68 436.285 1262.44 433.769 1255.05 427.508L1238.09 413.21C1230.68 406.95 1227.01 397.714 1228.19 388.39C1229.4 379.064 1235.31 370.784 1244.12 366.123L1258.07 358.752C1272.44 351.178 1290.26 352.942 1302.33 363.138Z" fill="white"/>
</mask>
<g mask="url(#mask113_467_39211)">
<path d="M1261.88 328.992L1342.69 397.25L1286.93 454.461L1206.12 386.203L1261.88 328.992Z" fill="#865139"/>
</g>
</g>
</g>
</g>
</g>
</g>
</g>
</g>
</g>
<defs>
<filter id="filter0_d_467_39211" x="627" y="238.933" width="876.154" height="1132.84" filterUnits="userSpaceOnUse" color-interpolation-filters="sRGB">
<feFlood flood-opacity="0" result="BackgroundImageFix"/>
<feColorMatrix in="SourceAlpha" type="matrix" values="0 0 0 0 0 0 0 0 0 0 0 0 0 0 0 0 0 0 127 0" result="hardAlpha"/>
<feOffset dx="10" dy="-4"/>
<feComposite in2="hardAlpha" operator="out"/>
<feColorMatrix type="matrix" values="0 0 0 0 0 0 0 0 0 0 0 0 0 0 0 0 0 0 0.08 0"/>
<feBlend mode="normal" in2="BackgroundImageFix" result="effect1_dropShadow_467_39211"/>
<feBlend mode="normal" in="SourceGraphic" in2="effect1_dropShadow_467_39211" result="shape"/>
</filter>
<clipPath id="clip0_467_39211">
<rect width="1440" height="726" fill="white"/>
</clipPath>
</defs>
</svg>
