<svg width="202" height="204" viewBox="0 0 202 204" fill="none" xmlns="http://www.w3.org/2000/svg">
<mask id="mask0_812_47834" style="mask-type:luminance" maskUnits="userSpaceOnUse" x="0" y="0" width="202" height="204">
<path d="M0 0H201.118V203.608H0V0Z" fill="white"/>
</mask>
<g mask="url(#mask0_812_47834)">
<mask id="mask1_812_47834" style="mask-type:luminance" maskUnits="userSpaceOnUse" x="0" y="0" width="202" height="204">
<path d="M100.559 0C45.0218 0 0 45.5698 0 101.786C0 158.002 45.0218 203.574 100.559 203.574C156.096 203.574 201.118 158.002 201.118 101.786C201.118 45.5698 156.096 0 100.559 0Z" fill="white"/>
</mask>
<g mask="url(#mask1_812_47834)">
<mask id="mask2_812_47834" style="mask-type:luminance" maskUnits="userSpaceOnUse" x="-1" y="-1" width="203" height="205">
<path d="M201.653 -0.363037H-0.364258V203.99H201.653V-0.363037Z" fill="white"/>
</mask>
<g mask="url(#mask2_812_47834)">
<mask id="mask3_812_47834" style="mask-type:luminance" maskUnits="userSpaceOnUse" x="0" y="0" width="202" height="204">
<path d="M0 0H201.118V203.608H0V0Z" fill="white"/>
</mask>
<g mask="url(#mask3_812_47834)">
<mask id="mask4_812_47834" style="mask-type:luminance" maskUnits="userSpaceOnUse" x="0" y="0" width="202" height="204">
<path d="M100.559 0C45.0218 0 0 45.5698 0 101.786C0 158.002 45.0218 203.574 100.559 203.574C156.096 203.574 201.118 158.002 201.118 101.786C201.118 45.5698 156.096 0 100.559 0Z" fill="white"/>
</mask>
<g mask="url(#mask4_812_47834)">
<path d="M0 0H201.118V203.608H0V0Z" fill="white"/>
</g>
</g>
</g>
</g>
</g>
<mask id="mask5_812_47834" style="mask-type:luminance" maskUnits="userSpaceOnUse" x="0" y="0" width="202" height="204">
<path d="M0 0H201.311V203.821H0V0Z" fill="white"/>
</mask>
<g mask="url(#mask5_812_47834)">
<mask id="mask6_812_47834" style="mask-type:luminance" maskUnits="userSpaceOnUse" x="0" y="0" width="202" height="204">
<path d="M100.556 0C45.019 0 0 45.5698 0 101.786C0 157.999 45.019 203.569 100.556 203.569C156.09 203.569 201.112 157.999 201.112 101.786C201.112 45.5698 156.09 0 100.556 0Z" fill="white"/>
</mask>
<g mask="url(#mask6_812_47834)">
<path d="M100.556 0C45.019 0 0 45.5698 0 101.786C0 157.999 45.019 203.569 100.556 203.569C156.09 203.569 201.112 157.999 201.112 101.786C201.112 45.5698 156.09 0 100.556 0Z" stroke="#FCC64D" stroke-width="70"/>
</g>
</g>
<mask id="mask7_812_47834" style="mask-type:luminance" maskUnits="userSpaceOnUse" x="5" y="6" width="191" height="191">
<path d="M5.95703 6.75757H195.158V196.817H5.95703V6.75757Z" fill="white"/>
</mask>
<g mask="url(#mask7_812_47834)">
<mask id="mask8_812_47834" style="mask-type:luminance" maskUnits="userSpaceOnUse" x="5" y="6" width="191" height="191">
<path d="M100.559 6.75757C48.3106 6.75757 5.95703 49.3034 5.95703 101.786C5.95703 154.268 48.3106 196.817 100.559 196.817C152.804 196.817 195.158 154.268 195.158 101.786C195.158 49.3034 152.804 6.75757 100.559 6.75757Z" fill="white"/>
</mask>
<g mask="url(#mask8_812_47834)">
<mask id="mask9_812_47834" style="mask-type:luminance" maskUnits="userSpaceOnUse" x="5" y="6" width="191" height="191">
<path d="M195.296 6.73267H5.28711V196.895H195.296V6.73267Z" fill="white"/>
</mask>
<g mask="url(#mask9_812_47834)">
<mask id="mask10_812_47834" style="mask-type:luminance" maskUnits="userSpaceOnUse" x="5" y="6" width="191" height="191">
<path d="M5.95703 6.75732H195.158V196.817H5.95703V6.75732Z" fill="white"/>
</mask>
<g mask="url(#mask10_812_47834)">
<mask id="mask11_812_47834" style="mask-type:luminance" maskUnits="userSpaceOnUse" x="5" y="6" width="191" height="191">
<path d="M100.559 6.75732C48.3106 6.75732 5.95703 49.3032 5.95703 101.786C5.95703 154.268 48.3106 196.817 100.559 196.817C152.804 196.817 195.158 154.268 195.158 101.786C195.158 49.3032 152.804 6.75732 100.559 6.75732Z" fill="white"/>
</mask>
<g mask="url(#mask11_812_47834)">
<path d="M5.95703 6.75732H195.158V196.817H5.95703V6.75732Z" fill="white"/>
</g>
</g>
</g>
</g>
</g>
<mask id="mask12_812_47834" style="mask-type:luminance" maskUnits="userSpaceOnUse" x="5" y="6" width="191" height="191">
<path d="M5.95703 6.75757H195.083V196.742H5.95703V6.75757Z" fill="white"/>
</mask>
<g mask="url(#mask12_812_47834)">
<mask id="mask13_812_47834" style="mask-type:luminance" maskUnits="userSpaceOnUse" x="5" y="6" width="191" height="191">
<path d="M100.559 6.75757C48.3106 6.75757 5.95703 49.3034 5.95703 101.786C5.95703 154.268 48.3106 196.817 100.559 196.817C152.804 196.817 195.158 154.268 195.158 101.786C195.158 49.3034 152.804 6.75757 100.559 6.75757Z" fill="white"/>
</mask>
<g mask="url(#mask13_812_47834)">
<path d="M100.559 6.75757C48.3106 6.75757 5.95703 49.3034 5.95703 101.786C5.95703 154.268 48.3106 196.817 100.559 196.817C152.804 196.817 195.158 154.268 195.158 101.786C195.158 49.3034 152.804 6.75757 100.559 6.75757Z" stroke="#FFDE32" stroke-width="26"/>
</g>
</g>
<mask id="mask14_812_47834" style="mask-type:luminance" maskUnits="userSpaceOnUse" x="35" y="32" width="136" height="141">
<path d="M35.8926 32.2766H170.453V172.639H35.8926V32.2766Z" fill="white"/>
</mask>
<g mask="url(#mask14_812_47834)">
<mask id="mask15_812_47834" style="mask-type:luminance" maskUnits="userSpaceOnUse" x="35" y="32" width="136" height="141">
<path d="M35.8926 67.2697V137.369C35.8926 156.766 51.5455 172.492 70.8571 172.492H135.56C154.869 172.492 170.525 156.766 170.525 137.369V67.2697C170.525 47.8704 154.869 32.1465 135.56 32.1465H70.8571C51.5455 32.1465 35.8926 47.8704 35.8926 67.2697Z" fill="white"/>
</mask>
<g mask="url(#mask15_812_47834)">
<path d="M123.373 60.1467C123.351 59.961 123.321 59.7781 123.288 59.5924L131.993 58.1871L146.782 55.8007C146.804 55.9891 146.835 56.1721 146.868 56.3578L142.685 57.0313L123.373 60.1467ZM68.7304 117.912C68.7497 117.48 68.7717 117.047 68.8048 116.618C68.8076 116.568 68.8131 116.521 68.8186 116.468C68.8518 116.074 68.8931 115.678 68.9373 115.284C68.9483 115.196 68.9566 115.107 68.9676 115.016C69.0173 114.594 69.0752 114.17 69.1442 113.749C69.1553 113.68 69.1663 113.61 69.1773 113.538C69.238 113.159 69.3043 112.776 69.3815 112.396C69.3953 112.33 69.4064 112.261 69.4201 112.194C69.5029 111.773 69.594 111.357 69.6933 110.941C69.7099 110.866 69.7292 110.794 69.7485 110.719C69.8451 110.326 69.9444 109.932 70.052 109.547C70.0603 109.511 70.0686 109.478 70.0824 109.447C70.1982 109.031 70.3252 108.619 70.4548 108.208C70.4769 108.139 70.499 108.064 70.5238 107.995C70.7942 107.169 71.0922 106.351 71.415 105.553C71.4399 105.492 71.4647 105.431 71.4895 105.367C71.8262 104.558 72.1849 103.762 72.5739 102.978C72.596 102.931 72.6181 102.887 72.6429 102.839C72.8415 102.446 73.043 102.058 73.2554 101.673C73.2665 101.653 73.2747 101.637 73.2858 101.617C73.4927 101.237 73.7079 100.866 73.9287 100.497C73.9452 100.47 73.959 100.445 73.9756 100.417C74.2018 100.037 74.4336 99.6659 74.6737 99.2944C74.693 99.264 74.7123 99.2335 74.7344 99.203C74.9744 98.8316 75.22 98.4685 75.4738 98.1054C75.4159 97.8615 75.3607 97.6203 75.3027 97.3847C74.4833 98.5211 73.7217 99.7074 73.0292 100.933C73.0154 100.955 73.0016 100.98 72.9905 101.005C72.8388 101.271 72.6898 101.54 72.5491 101.811C72.5187 101.872 72.4884 101.93 72.4553 101.989C72.3311 102.23 72.2042 102.474 72.0855 102.718C72.0524 102.79 72.0165 102.859 71.9807 102.928C71.862 103.175 71.7434 103.422 71.6303 103.671C71.6027 103.732 71.5723 103.796 71.5447 103.857C71.404 104.162 71.266 104.475 71.1364 104.785L64.506 101.831L63.0933 101.199C63.0216 101.373 62.9471 101.54 62.8643 101.711L70.9212 105.304C70.8108 105.575 70.7032 105.85 70.5983 106.127C70.5983 106.13 70.5956 106.135 70.5956 106.138C70.4907 106.412 70.3914 106.687 70.2921 106.961C70.2893 106.969 70.2865 106.98 70.2838 106.989C70.19 107.258 70.0989 107.529 70.0079 107.801C70.0023 107.817 69.9968 107.834 69.9941 107.851C69.9085 108.117 69.823 108.383 69.743 108.652C69.7347 108.677 69.7292 108.699 69.7209 108.724C69.6436 108.984 69.5664 109.245 69.4974 109.505C69.4891 109.541 69.4781 109.578 69.4698 109.611C69.4008 109.863 69.3319 110.118 69.2712 110.373C69.2601 110.417 69.2491 110.462 69.238 110.509C69.1773 110.756 69.1166 111.002 69.0615 111.249C69.0477 111.304 69.0366 111.36 69.0256 111.418C68.9732 111.656 68.9235 111.895 68.8738 112.133C68.86 112.205 68.8462 112.274 68.8352 112.344C68.7911 112.571 68.7497 112.801 68.711 113.028C68.6972 113.111 68.6834 113.197 68.6696 113.281C68.631 113.5 68.5951 113.716 68.5648 113.935C68.551 114.032 68.5372 114.131 68.5234 114.228C68.4958 114.434 68.4655 114.641 68.4406 114.849C68.4268 114.963 68.4158 115.079 68.3992 115.19C68.3772 115.384 68.3551 115.578 68.3358 115.77C68.322 115.903 68.3137 116.038 68.2999 116.169C68.2834 116.346 68.2668 116.523 68.2558 116.701C68.2447 116.859 68.2365 117.017 68.2254 117.169C68.2171 117.327 68.2033 117.485 68.1978 117.64C68.1895 117.834 68.1813 118.028 68.1758 118.223C68.1702 118.344 68.162 118.466 68.1592 118.588C68.1509 118.907 68.1482 119.226 68.1482 119.545C68.1482 119.947 68.1564 120.346 68.1702 120.739C68.173 120.856 68.1785 120.967 68.184 121.083C68.1951 121.388 68.2116 121.69 68.2309 121.995C68.2365 122.097 68.242 122.197 68.2503 122.3C68.2778 122.691 68.311 123.081 68.3496 123.467C68.3551 123.533 68.3634 123.594 68.3717 123.655C68.4103 123.988 68.4489 124.315 68.4931 124.642C68.5069 124.753 68.5234 124.864 68.54 124.974C68.5841 125.293 68.6338 125.612 68.6917 125.931C68.7028 126 68.7138 126.069 68.7248 126.139C68.7911 126.521 68.8656 126.904 68.9456 127.28C68.9621 127.364 68.9814 127.444 68.998 127.524C69.0642 127.832 69.136 128.137 69.2077 128.442C69.2298 128.542 69.2546 128.636 69.2767 128.733C69.3705 129.102 69.4643 129.467 69.5664 129.833C69.5691 129.839 69.5691 129.844 69.5691 129.847C69.6768 130.224 69.7899 130.598 69.9085 130.972C69.9334 131.056 69.9609 131.136 69.9885 131.222C70.0879 131.524 70.1872 131.823 70.2921 132.12C70.3224 132.198 70.3472 132.272 70.3748 132.347C70.5045 132.719 70.6452 133.082 70.7859 133.448C70.7887 133.456 70.7942 133.467 70.797 133.475C70.9349 133.825 71.0812 134.168 71.2274 134.509C71.2605 134.59 71.2964 134.667 71.3295 134.742C71.4647 135.052 71.6027 135.36 71.7461 135.662C71.771 135.707 71.7903 135.754 71.8124 135.798C71.9807 136.153 72.1545 136.505 72.3339 136.851C72.3532 136.89 72.3752 136.929 72.3973 136.973C72.5574 137.275 72.7201 137.577 72.8829 137.877C72.9216 137.946 72.9602 138.015 72.9988 138.082C73.1837 138.414 73.3741 138.744 73.57 139.069H73.8017V138.359C73.2002 137.331 72.6429 136.269 72.1407 135.177C72.1352 135.166 72.1324 135.158 72.1269 135.147C71.7958 134.426 71.484 133.691 71.1971 132.949C71.1916 132.932 71.1833 132.913 71.1778 132.896C71.0481 132.55 70.9184 132.203 70.7942 131.851C70.7832 131.815 70.7694 131.782 70.7556 131.746C70.5018 131.011 70.27 130.266 70.0603 129.509C70.0465 129.456 70.0327 129.404 70.0189 129.351C69.9334 129.029 69.8506 128.705 69.7706 128.381C69.754 128.314 69.7375 128.245 69.7209 128.179C69.5443 127.436 69.3898 126.685 69.2574 125.925C69.2436 125.839 69.2298 125.753 69.216 125.67C69.1663 125.371 69.1194 125.071 69.078 124.772C69.0642 124.678 69.0504 124.581 69.0394 124.489C68.94 123.738 68.86 122.976 68.8076 122.211C68.7993 122.106 68.7938 121.995 68.7883 121.889C68.7717 121.604 68.7552 121.319 68.7441 121.03C68.7386 120.919 68.7359 120.806 68.7304 120.695C68.7193 120.31 68.711 119.927 68.711 119.539C68.711 119.096 68.7221 118.652 68.7359 118.214C68.7221 118.114 68.7276 118.015 68.7304 117.912ZM46.345 69.4763C50.1003 68.5894 52.7243 65.2661 52.7243 61.3857C52.7243 56.8012 49.0132 53.0733 44.4495 53.0733C39.883 53.0733 36.1719 56.8012 36.1719 61.3857C36.1719 65.9729 39.883 69.7008 44.4467 69.7008C44.8992 69.7008 45.36 69.662 45.818 69.5872L46.0829 69.5401L46.345 69.4763ZM62.6022 101.592L62.7208 101.346L62.8257 101.091C63.4575 99.5772 63.7748 97.9751 63.7748 96.3232C63.7748 92.0104 61.5923 88.0745 57.9391 85.799L57.7074 85.6548L57.8453 85.4192C57.9281 85.4691 58.0081 85.5135 58.0854 85.5634L75.4959 55.8505C75.4159 55.8062 75.3359 55.7563 75.2558 55.7092L75.3966 55.4736L75.6339 55.6066C77.4604 56.6377 79.5409 57.181 81.6461 57.181C83.2189 57.181 84.7585 56.8844 86.2181 56.2968L86.472 56.197L86.7203 56.0834C91.1212 54.0822 93.9659 49.6585 93.9659 44.8108C93.9604 37.9785 88.4337 32.4268 81.6434 32.4268C74.8502 32.4268 69.3236 37.9785 69.3236 44.8025C69.3236 49.1125 71.5061 53.0483 75.162 55.3239L75.3938 55.468L75.2531 55.7036C75.1731 55.6565 75.0903 55.6094 75.013 55.5595L73.6417 57.8961L57.6025 85.2723C57.6853 85.3167 57.7626 85.3666 57.8426 85.4137L57.7046 85.6493L57.4673 85.5162C55.638 84.4852 53.5603 83.9419 51.455 83.9419C50.7432 83.9419 50.0147 84.0057 49.2891 84.1359L49.0214 84.183L48.9663 83.9142C49.0601 83.8948 49.1484 83.8754 49.2422 83.8588L46.4112 69.7452C46.3202 69.7673 46.2291 69.7812 46.1381 69.8006C46.0443 69.8228 45.956 69.8422 45.8622 69.8588L47.995 80.4856L48.6959 83.9696C48.7869 83.9502 48.878 83.9336 48.969 83.9142L49.0242 84.183L48.7538 84.2412C43.1802 85.4968 39.1352 90.5746 39.1352 96.3176C39.1352 103.139 44.6619 108.691 51.455 108.691C56.2036 108.696 60.5769 105.908 62.6022 101.592ZM157.913 80.031C157.706 80.031 157.502 80.0366 157.3 80.0476L157.025 80.0615L157.005 79.7899C157.099 79.7816 157.19 79.7732 157.287 79.7705L156.142 63.2704C156.048 63.2787 155.954 63.2815 155.863 63.2871C155.769 63.2926 155.678 63.3009 155.581 63.3037L156.227 72.5973L156.727 79.8065C156.82 79.7982 156.911 79.7926 157.005 79.7871L157.025 80.0615L156.754 80.0864C150.394 80.6851 145.596 85.9819 145.596 92.404C145.596 94.6158 146.184 96.7888 147.301 98.6847L147.439 98.9203L147.207 99.0644C147.158 98.9868 147.108 98.9064 147.061 98.826L142.343 101.761L139.766 103.366C139.647 103.114 139.523 102.862 139.399 102.612C139.393 102.598 139.385 102.584 139.379 102.571C139.255 102.327 139.134 102.086 139.004 101.847C138.993 101.828 138.985 101.806 138.974 101.786C138.85 101.551 138.72 101.315 138.588 101.079C138.577 101.057 138.566 101.038 138.552 101.016C138.422 100.783 138.287 100.55 138.152 100.32C138.141 100.301 138.13 100.281 138.116 100.262C137.978 100.029 137.837 99.7989 137.696 99.5688C137.685 99.5522 137.677 99.5356 137.666 99.519C137.52 99.2861 137.371 99.0561 137.225 98.8288C137.216 98.8177 137.208 98.8066 137.202 98.7928C137.048 98.5599 136.893 98.3271 136.736 98.0998C136.731 98.0943 136.728 98.0888 136.725 98.0832C136.562 97.8476 136.397 97.6176 136.234 97.3847C136.176 97.6231 136.121 97.8642 136.063 98.1054C136.317 98.4657 136.562 98.8316 136.802 99.203C136.822 99.2335 136.841 99.264 136.863 99.2944C137.103 99.6659 137.335 100.037 137.561 100.417C137.578 100.442 137.592 100.47 137.608 100.495C137.829 100.866 138.041 101.237 138.251 101.614C138.262 101.634 138.273 101.65 138.281 101.67C138.491 102.052 138.695 102.443 138.894 102.837C138.916 102.884 138.938 102.928 138.963 102.975C139.352 103.76 139.711 104.552 140.047 105.365C140.072 105.428 140.097 105.489 140.122 105.55C140.445 106.351 140.743 107.166 141.013 107.992C141.035 108.064 141.06 108.136 141.082 108.208C141.212 108.619 141.339 109.029 141.454 109.447C141.463 109.481 141.474 109.514 141.485 109.55C141.592 109.935 141.692 110.329 141.788 110.722C141.808 110.797 141.824 110.869 141.843 110.944C141.94 111.36 142.034 111.775 142.117 112.197C142.13 112.263 142.141 112.333 142.155 112.399C142.23 112.779 142.299 113.161 142.359 113.541C142.37 113.613 142.381 113.68 142.393 113.749C142.462 114.17 142.517 114.594 142.569 115.016C142.58 115.107 142.588 115.196 142.599 115.287C142.644 115.681 142.685 116.074 142.718 116.468C142.721 116.521 142.726 116.571 142.732 116.62C142.765 117.05 142.79 117.482 142.806 117.915C142.812 118.017 142.815 118.117 142.817 118.22C142.834 118.658 142.842 119.098 142.842 119.545C142.842 119.933 142.834 120.315 142.823 120.7C142.82 120.811 142.815 120.925 142.809 121.036C142.798 121.324 142.784 121.61 142.765 121.895C142.759 122 142.751 122.111 142.746 122.217C142.693 122.982 142.613 123.741 142.514 124.495C142.5 124.589 142.489 124.686 142.475 124.78C142.434 125.08 142.387 125.379 142.337 125.678C142.324 125.762 142.31 125.848 142.296 125.933C142.164 126.693 142.012 127.444 141.832 128.187C141.816 128.253 141.799 128.323 141.783 128.389C141.703 128.713 141.62 129.038 141.534 129.356C141.521 129.406 141.507 129.459 141.493 129.514C141.283 130.268 141.052 131.014 140.798 131.748C140.784 131.785 140.773 131.821 140.759 131.857C140.635 132.209 140.511 132.555 140.376 132.899C140.37 132.915 140.362 132.935 140.356 132.951C140.069 133.697 139.757 134.429 139.426 135.149C139.421 135.16 139.415 135.172 139.413 135.18C138.908 136.272 138.356 137.331 137.752 138.362V139.446C138.199 138.725 138.621 137.988 139.018 137.236C139.021 137.231 139.024 137.228 139.026 137.223C139.617 136.108 140.152 134.961 140.629 133.783C140.64 133.755 140.651 133.728 140.663 133.703C140.972 132.938 141.258 132.159 141.518 131.366C141.532 131.319 141.548 131.275 141.562 131.227C141.681 130.862 141.794 130.493 141.901 130.121C141.91 130.094 141.918 130.066 141.926 130.041C142.042 129.642 142.15 129.24 142.255 128.838C142.266 128.799 142.274 128.758 142.282 128.719C142.368 128.37 142.453 128.012 142.53 127.657C142.547 127.58 142.564 127.502 142.58 127.425C142.748 126.64 142.886 125.845 143.005 125.044C143.019 124.949 143.033 124.852 143.044 124.755C143.088 124.426 143.129 124.096 143.168 123.766C143.176 123.686 143.187 123.608 143.195 123.53C143.237 123.131 143.273 122.732 143.3 122.333C143.306 122.247 143.311 122.161 143.317 122.078C143.339 121.751 143.355 121.427 143.369 121.102C143.375 120.989 143.378 120.878 143.386 120.764C143.4 120.362 143.408 119.955 143.408 119.547C143.408 119.209 143.402 118.871 143.394 118.538C143.391 118.43 143.386 118.322 143.383 118.217C143.372 117.99 143.364 117.76 143.353 117.532C143.347 117.405 143.336 117.283 143.328 117.155C143.314 116.948 143.303 116.74 143.286 116.532C143.275 116.401 143.264 116.271 143.253 116.141C143.237 115.939 143.218 115.736 143.195 115.537C143.182 115.404 143.165 115.273 143.151 115.146C143.126 114.946 143.102 114.744 143.077 114.544C143.06 114.417 143.041 114.289 143.024 114.162C142.997 113.96 142.966 113.76 142.936 113.558C142.917 113.436 142.895 113.311 142.873 113.189C142.84 112.984 142.804 112.779 142.765 112.577C142.743 112.46 142.721 112.344 142.699 112.227C142.655 112.017 142.613 111.806 142.569 111.598C142.547 111.49 142.522 111.382 142.5 111.274C142.453 111.055 142.398 110.839 142.346 110.62C142.324 110.523 142.299 110.426 142.277 110.329C142.219 110.099 142.158 109.869 142.095 109.638C142.072 109.558 142.05 109.475 142.028 109.395C141.959 109.142 141.885 108.893 141.81 108.641C141.794 108.585 141.777 108.524 141.761 108.469C141.67 108.178 141.579 107.887 141.482 107.599C141.476 107.582 141.474 107.565 141.468 107.551C141.049 106.299 140.566 105.073 140.022 103.882L142.321 102.451L147.373 99.3083C147.323 99.2307 147.276 99.1475 147.227 99.0699L147.458 98.923L147.605 99.1531C149.892 102.679 153.752 104.785 157.93 104.785C164.723 104.785 170.249 99.2335 170.249 92.4095C170.249 85.5883 164.709 80.031 157.913 80.031ZM152.64 171.337C152.687 171.514 152.651 171.694 152.544 171.841C152.433 171.983 152.265 172.069 152.088 172.069C152.039 172.069 151.983 172.063 151.934 172.049L147.389 170.827H113.446C111.158 170.827 109.299 168.962 109.299 166.664V166.043H75.747C75.4021 166.043 75.0765 165.938 74.8089 165.757L74.8061 165.76C74.7537 165.81 74.6874 165.835 74.6157 165.835C74.5412 165.835 74.4667 165.802 74.4115 165.744C74.315 165.641 74.3177 165.483 74.406 165.378C74.1908 165.089 74.0584 164.737 74.0584 164.352V159.735H50.1582L50.103 159.743L45.5945 160.957C45.5449 160.971 45.4924 160.976 45.4428 160.976C45.2662 160.976 45.0951 160.89 44.9875 160.746C44.8744 160.602 44.8413 160.425 44.8882 160.245L46.0636 155.837L46.0553 155.713C46.0525 155.666 46.0498 155.619 46.0498 155.569V143.512C46.0498 141.214 47.9095 139.346 50.1941 139.346H74.039L74.0639 139.39V126.46L73.7852 126.269L73.6279 126.163C73.501 126.075 73.4679 125.903 73.5534 125.773C73.639 125.645 73.8128 125.609 73.9425 125.698L74.0335 125.759L74.2818 125.928L81.9717 120.698L81.9248 120.506C81.3233 118.125 81.144 116.146 81.0943 115.531L81.6737 115.304L81.6434 115.315C81.6103 115.326 81.5799 115.332 81.544 115.332C81.4337 115.332 81.3288 115.262 81.2847 115.154C81.2847 115.151 81.2819 115.151 81.2819 115.149C81.2295 115.002 81.3012 114.844 81.4475 114.786L81.5634 114.741V114.738L80.9619 114.977C80.5397 113.888 80.1258 112.762 79.7285 111.631C78.1916 107.271 76.8507 102.698 75.7359 98.0389L75.5952 97.4429L75.5649 97.3182C74.0859 90.9627 73.5672 86.6914 73.5617 86.6471L73.5562 86.6083L73.5424 86.5723C71.4702 81.6053 69.8837 76.1645 69.296 74.0552C69.2187 73.7697 69.3291 73.4704 69.5747 73.3041C69.6878 73.2292 69.8175 73.1904 69.9527 73.1904C70.1844 73.1904 70.3969 73.3041 70.5211 73.4981L72.3035 76.2116L72.814 76.0286L72.2235 70.3577C72.1711 69.8394 72.5132 69.3654 73.0209 69.2546L73.2058 69.2158C73.2251 69.1049 73.3078 69.0107 73.4237 68.9885C73.5369 68.9663 73.6445 69.0162 73.7079 69.1077L73.8073 69.0827L73.6803 68.3953C73.6031 67.9934 73.8431 67.6054 74.2377 67.4973C74.3067 67.4779 74.3757 67.4696 74.4474 67.4696C74.8171 67.4696 75.14 67.7357 75.2089 68.0988L76.4533 74.4543L77.0052 74.4016L77.0438 69.4902C77.0466 69.0772 77.3694 68.7363 77.7777 68.7085C77.7943 68.7085 77.8109 68.7058 77.8302 68.7058C78.2578 68.7058 78.6 69.0411 78.6138 69.4708L78.8428 76.9489C78.8566 77.3618 79.0773 77.7277 79.4084 77.9439C79.4608 77.9079 79.494 77.8857 79.5022 77.8802C79.6292 77.797 79.803 77.8303 79.8858 77.9605C79.9216 78.016 79.9327 78.0742 79.9299 78.1296C79.9741 78.1352 80.021 78.1407 80.0651 78.1407C80.5287 78.1407 80.9619 77.8691 81.166 77.4505L82.2476 75.2221C82.3801 74.9532 82.656 74.7786 82.954 74.7786C83.0423 74.7786 83.1278 74.7925 83.2106 74.823C83.5941 74.9588 83.8121 75.3579 83.7155 75.7542C83.6134 76.1866 83.5196 76.5969 83.4258 76.9904C82.7664 79.8065 82.2918 81.8437 80.9812 85.5994L80.9508 85.6853L80.9784 85.774C80.9784 85.774 81.5082 87.5063 82.2504 89.915L82.3718 90.3058L82.6063 90.1201C82.576 90.0258 82.5484 89.926 82.5153 89.8346C82.7774 89.6267 83.0423 89.4244 83.3072 89.2248C83.3596 89.186 83.4148 89.1472 83.4672 89.1084C83.6741 88.9532 83.8838 88.8007 84.0963 88.6511C84.1763 88.5928 84.2618 88.5346 84.3446 88.4764C84.5322 88.3489 84.7171 88.2187 84.9047 88.0912C84.9986 88.0302 85.0896 87.9692 85.1834 87.911C85.3655 87.789 85.5504 87.6726 85.7353 87.5535C85.8291 87.4952 85.9256 87.437 86.0167 87.3788C86.2071 87.2597 86.4002 87.1432 86.5906 87.0268C86.6817 86.9742 86.77 86.9215 86.861 86.8661C87.0679 86.7441 87.2804 86.6222 87.4956 86.5057C87.5701 86.4669 87.6419 86.4254 87.7136 86.381C87.984 86.2341 88.2544 86.0872 88.5303 85.9459C88.5469 85.9375 88.5607 85.9265 88.5772 85.9181C89.176 85.6077 89.7858 85.3139 90.4038 85.0367C90.4562 85.0146 90.5059 84.9924 90.5556 84.973C90.8094 84.8593 91.0633 84.7485 91.3199 84.6404C91.3916 84.6099 91.4633 84.5822 91.5351 84.5545C91.7724 84.4547 92.0124 84.3604 92.2552 84.2662C92.3325 84.2329 92.4125 84.2052 92.4898 84.1747C92.7298 84.0833 92.9726 83.9946 93.2154 83.9086C93.2899 83.8837 93.3644 83.856 93.4389 83.831C93.6955 83.7396 93.9549 83.6536 94.2143 83.5705C94.2722 83.5511 94.3329 83.5317 94.3908 83.5123C94.6971 83.4153 95.0061 83.3238 95.3152 83.2323C95.3262 83.2296 95.34 83.224 95.351 83.2213C96.0243 83.0272 96.703 82.8526 97.3901 82.6946L86.3147 56.5573C86.4885 56.488 86.6596 56.416 86.8279 56.3411L97.9447 82.5754C98.8828 82.3759 99.8347 82.2096 100.798 82.0821C100.806 82.0821 100.817 82.0765 100.825 82.0765C101.126 82.0377 101.427 82.0017 101.733 81.9684C101.758 81.9657 101.783 81.9629 101.808 81.9601C102.092 81.9296 102.376 81.9047 102.666 81.8825C102.71 81.8797 102.751 81.8742 102.795 81.8714C103.063 81.8493 103.333 81.8299 103.604 81.816C103.664 81.8132 103.725 81.8077 103.783 81.8049C104.043 81.791 104.302 81.7827 104.564 81.7744C104.636 81.7716 104.705 81.7689 104.774 81.7661C105.105 81.7578 105.433 81.7522 105.764 81.7522C106.192 81.7522 106.617 81.7606 107.039 81.7772C107.138 81.78 107.24 81.7855 107.34 81.7883C107.754 81.8049 108.17 81.8271 108.579 81.8603C108.584 81.8603 108.587 81.8603 108.592 81.8603C109.031 81.8936 109.467 81.9352 109.903 81.9823C109.964 81.9878 110.024 81.9962 110.088 82.0045C110.513 82.0544 110.938 82.1098 111.36 82.1735L112.257 76.4139L113.3 69.687C113.391 69.7036 113.484 69.7147 113.576 69.7285L113.617 69.4597L113.352 69.4098C109.451 68.6725 106.62 65.2384 106.62 61.2415C106.62 56.6571 110.333 52.9264 114.897 52.9264C118.854 52.9264 122.27 55.7563 123.017 59.6533L123.07 59.9194L123.103 60.1911C123.147 60.5486 123.169 60.9006 123.169 61.2388C123.169 65.8232 119.458 69.5511 114.894 69.5511C114.566 69.5511 114.238 69.5317 113.885 69.4874L113.617 69.4541L113.576 69.723C113.667 69.7369 113.76 69.7535 113.851 69.7646L112.505 78.4484L111.912 82.2539C113.501 82.5172 115.057 82.8831 116.575 83.3404C116.583 83.3432 116.591 83.346 116.6 83.3488C117.717 83.6869 118.815 84.0777 119.889 84.5156C119.927 84.5295 119.963 84.5461 119.999 84.56C120.327 84.693 120.656 84.8344 120.978 84.9785C121 84.9896 121.023 84.9979 121.047 85.009C121.737 85.3167 122.419 85.6465 123.086 85.9985C123.136 86.0262 123.189 86.0512 123.238 86.0789C123.514 86.2258 123.785 86.3699 124.055 86.5224C124.121 86.5584 124.185 86.5944 124.254 86.6332C124.546 86.7995 124.836 86.9714 125.123 87.146C125.145 87.1599 125.167 87.1737 125.194 87.1876C125.509 87.3816 125.821 87.5756 126.13 87.7752C126.182 87.8084 126.229 87.8389 126.279 87.875C126.527 88.0357 126.775 88.2048 127.021 88.3739C127.104 88.4293 127.184 88.4847 127.264 88.543C127.49 88.7037 127.714 88.8645 127.937 89.0252C128.006 89.0779 128.081 89.1306 128.15 89.1805C128.439 89.3966 128.726 89.6156 129.01 89.8401C128.98 89.9316 128.95 90.0314 128.919 90.1256L129.154 90.3113L129.275 89.9205C130.018 87.5119 130.547 85.7796 130.547 85.7796L130.575 85.6936L130.545 85.6049C129.231 81.8493 128.757 79.8148 128.1 76.996C128.006 76.6024 127.912 76.1922 127.807 75.7598C127.714 75.3634 127.932 74.9615 128.315 74.8285C128.398 74.8008 128.483 74.7841 128.572 74.7841C128.87 74.7841 129.146 74.9588 129.278 75.2276L130.36 77.4561C130.564 77.8774 130.997 78.1462 131.461 78.1462C131.505 78.1462 131.552 78.1379 131.596 78.1352C131.593 78.077 131.601 78.0187 131.637 77.9661C131.723 77.8386 131.897 77.8025 132.023 77.8857C132.032 77.8912 132.068 77.9162 132.115 77.9495C132.448 77.736 132.672 77.3702 132.683 76.9544L132.912 69.4763C132.926 69.0467 133.268 68.7113 133.696 68.7113C133.712 68.7113 133.729 68.7113 133.748 68.7141C134.156 68.739 134.479 69.0855 134.482 69.4957L134.521 74.4072L135.072 74.4599L136.317 68.1043C136.389 67.7412 136.711 67.4751 137.078 67.4751C137.147 67.4751 137.219 67.4834 137.288 67.5028C137.683 67.6109 137.92 67.9962 137.845 68.4009L137.718 69.091L137.818 69.1132C137.881 69.0217 137.989 68.9719 138.099 68.994C138.218 69.0162 138.301 69.1104 138.32 69.2213L138.505 69.2601C139.013 69.371 139.357 69.8449 139.299 70.3633L138.712 76.0342L139.222 76.2171L141.005 73.5036C141.129 73.3096 141.344 73.196 141.573 73.196C141.708 73.196 141.838 73.2348 141.951 73.3096C142.197 73.4759 142.307 73.778 142.23 74.0607C141.642 76.17 140.055 81.6081 137.983 86.5778L137.97 86.6138L137.964 86.6554C137.958 86.697 137.44 90.971 135.961 97.3238L135.93 97.4485L135.79 98.0444C134.678 102.701 133.337 107.277 131.797 111.637C131.4 112.768 130.986 113.89 130.564 114.982L130.109 114.802L130.106 114.811C130.233 114.874 130.293 115.018 130.244 115.154C130.244 115.154 130.244 115.157 130.241 115.157C130.194 115.265 130.092 115.334 129.982 115.334C129.946 115.334 129.913 115.329 129.882 115.318L129.858 115.307L130.426 115.534C130.379 116.152 130.194 118.137 129.601 120.509L129.554 120.7L137.247 125.933L137.495 125.764L137.586 125.703C137.716 125.615 137.89 125.651 137.975 125.778C138.061 125.908 138.027 126.08 137.901 126.169L137.743 126.274L137.465 126.466V150.449H147.34C149.627 150.449 151.484 152.315 151.484 154.612V166.669C151.484 166.716 151.481 166.764 151.479 166.813L151.47 166.938L152.64 171.337ZM90.0672 111.568L90.3293 111.471C90.4093 111.443 90.4921 111.454 90.5611 111.493C90.6163 111.523 90.6632 111.57 90.688 111.634C90.699 111.667 90.7046 111.703 90.7046 111.737L90.9474 111.64C91.5709 112.061 92.1918 112.549 92.7878 113.087L92.9505 113.233L94.4405 112.222L94.3081 111.994C93.6541 110.889 93.6183 109.758 94.2087 109.04C94.5757 108.599 95.1551 108.358 95.8449 108.358C96.3719 108.358 96.9431 108.497 97.4922 108.757L97.8923 108.948V108.569C97.8591 108.577 97.826 108.588 97.7984 108.596C97.7377 108.563 97.677 108.533 97.6108 108.502V105.963C97.6108 105.808 97.6163 105.653 97.6246 105.5C97.6301 105.45 97.6357 105.401 97.6384 105.353C97.6467 105.251 97.655 105.146 97.666 105.043C97.6715 104.988 97.6798 104.929 97.6881 104.874C97.7019 104.78 97.7157 104.683 97.7295 104.588C97.7377 104.533 97.7488 104.478 97.7598 104.419C97.7791 104.322 97.7984 104.228 97.8205 104.131C97.8316 104.081 97.8426 104.031 97.8536 103.981C97.884 103.865 97.9171 103.751 97.9502 103.635C97.9585 103.607 97.964 103.58 97.975 103.552C98.0192 103.408 98.0661 103.272 98.1185 103.131C98.1323 103.097 98.1461 103.061 98.1599 103.028C98.1985 102.923 98.2399 102.823 98.2813 102.72C98.3006 102.673 98.3227 102.629 98.342 102.584C98.3834 102.496 98.4248 102.407 98.4689 102.321C98.491 102.271 98.5158 102.224 98.5407 102.18C98.5848 102.094 98.6345 102.008 98.6814 101.925C98.7062 101.883 98.7283 101.839 98.7531 101.795C98.8083 101.703 98.869 101.612 98.927 101.517C98.9463 101.487 98.9656 101.456 98.9849 101.426C99.0677 101.301 99.1505 101.185 99.2387 101.066C99.247 101.057 99.2525 101.046 99.2608 101.038C99.3436 100.933 99.4236 100.827 99.5064 100.727C99.534 100.694 99.5643 100.664 99.5919 100.63C99.6581 100.55 99.7244 100.475 99.7961 100.403C99.8292 100.364 99.8623 100.328 99.8954 100.295C99.9617 100.226 100.033 100.156 100.102 100.087C100.138 100.054 100.171 100.021 100.207 99.9874C100.284 99.9181 100.362 99.846 100.439 99.7795C100.469 99.7546 100.5 99.7268 100.533 99.7019C100.643 99.6077 100.756 99.519 100.869 99.433C100.754 99.2889 100.643 99.1392 100.538 98.9896C100.53 98.9785 100.522 98.9674 100.516 98.9563C100.414 98.8094 100.323 98.657 100.232 98.5073C100.221 98.4851 100.207 98.4657 100.196 98.4408C100.111 98.2911 100.033 98.1331 99.9561 97.9779C99.9479 97.9557 99.9368 97.9335 99.9285 97.9141C99.854 97.7506 99.7823 97.5815 99.7188 97.4097C99.7188 97.4097 99.7188 97.4097 99.7188 97.4069C99.6581 97.2351 99.6057 97.0632 99.5561 96.8858C99.5505 96.8637 99.5395 96.8415 99.534 96.8221C99.4898 96.653 99.4512 96.4784 99.4209 96.3065C99.4153 96.2733 99.4098 96.24 99.4043 96.2095C99.3739 96.0349 99.3519 95.8603 99.3353 95.6829C99.3326 95.6552 99.3326 95.6275 99.3298 95.5997C99.316 95.4113 99.3022 95.2228 99.3022 95.0315C99.3022 91.1955 102.398 88.0856 106.217 88.0856C110.035 88.0856 113.131 91.1955 113.131 95.0315C113.131 95.1507 113.129 95.2699 113.123 95.3863C113.12 95.4334 113.115 95.4833 113.112 95.5305C113.106 95.5998 113.104 95.669 113.095 95.7356C113.09 95.7965 113.082 95.8575 113.073 95.9185C113.068 95.9712 113.062 96.0266 113.054 96.082C113.043 96.1513 113.029 96.2206 113.018 96.2899C113.01 96.3315 113.004 96.3758 112.996 96.4174C112.98 96.4922 112.963 96.5698 112.941 96.6447C112.933 96.6779 112.927 96.714 112.916 96.7472C112.897 96.8304 112.872 96.9108 112.85 96.9911C112.842 97.0216 112.836 97.0466 112.828 97.0743C112.8 97.1602 112.773 97.2489 112.742 97.3348C112.737 97.3542 112.731 97.3736 112.723 97.3903C112.687 97.479 112.654 97.5704 112.618 97.6591C112.613 97.673 112.607 97.6869 112.602 97.7007C112.563 97.795 112.521 97.8864 112.477 97.9779C112.472 97.9862 112.469 97.9973 112.466 98.0056C112.422 98.0998 112.375 98.1913 112.328 98.2855C112.326 98.2911 112.323 98.2966 112.32 98.2994C112.27 98.3936 112.215 98.4906 112.16 98.5821L112.157 98.5849C111.876 99.0561 111.542 99.494 111.161 99.882C111.272 99.9846 111.382 100.084 111.484 100.192C112.952 101.667 113.865 103.707 113.865 105.966V108.502C113.771 108.502 113.68 108.499 113.587 108.497V108.946L113.987 108.757C114.536 108.494 115.104 108.358 115.634 108.358C116.324 108.358 116.903 108.599 117.267 109.04C117.858 109.747 117.827 110.872 117.185 111.975L117.055 112.202L118.572 113.233L118.735 113.087C119.37 112.516 120.029 112 120.694 111.559L120.54 111.606L120.65 111.066L120.785 111.465C121.472 110.243 122.082 109.148 122.59 108.211C123.768 106.055 124.494 104.633 124.745 103.99C125.343 102.451 127.076 96.9523 128.428 92.6118L129.14 90.3113L128.991 90.1894C128.964 90.1672 128.936 90.145 128.906 90.1228C128.875 90.2171 128.848 90.3113 128.817 90.4083C128.635 90.2614 128.45 90.1201 128.265 89.9759C128.238 89.9538 128.21 89.9344 128.183 89.9122C128.003 89.7736 127.827 89.6433 127.647 89.5075C127.617 89.4853 127.587 89.4632 127.556 89.441C127.374 89.3079 127.187 89.1721 126.999 89.0391C126.988 89.0308 126.977 89.0225 126.966 89.0169C126.168 88.457 125.343 87.9249 124.502 87.426C124.469 87.4066 124.433 87.3871 124.4 87.365C124.22 87.2597 124.038 87.1571 123.854 87.0518C123.801 87.0213 123.749 86.9908 123.691 86.9631C123.517 86.8633 123.338 86.7663 123.158 86.672C123.1 86.6388 123.045 86.6083 122.984 86.5778C122.805 86.4836 122.623 86.3866 122.441 86.2951C122.397 86.2729 122.353 86.2507 122.311 86.2286C121.701 85.9209 121.083 85.6327 120.46 85.3582C120.41 85.3361 120.358 85.3139 120.305 85.2917C120.137 85.2197 119.969 85.1476 119.8 85.0783C119.712 85.0423 119.621 85.0062 119.533 84.9674C119.373 84.9037 119.215 84.8427 119.055 84.7817C118.956 84.7429 118.851 84.7014 118.752 84.6626C118.594 84.6043 118.44 84.5461 118.285 84.4907C118.175 84.4491 118.07 84.4131 117.96 84.3743C117.808 84.3216 117.654 84.269 117.499 84.2135C117.386 84.1747 117.273 84.1387 117.157 84.1027C116.931 84.0306 116.704 83.9558 116.475 83.8865C116.302 83.8338 116.131 83.7811 115.957 83.7285C115.821 83.6897 115.689 83.6536 115.551 83.6176C115.413 83.5788 115.272 83.54 115.134 83.5012C114.999 83.4652 114.861 83.4319 114.729 83.3986C114.585 83.3626 114.445 83.3294 114.298 83.2933C114.166 83.2601 114.034 83.2296 113.898 83.1991C113.752 83.1658 113.6 83.1326 113.451 83.1021C113.322 83.0744 113.192 83.0439 113.062 83.0189C112.9 82.9857 112.739 82.9552 112.577 82.9275C112.455 82.9053 112.339 82.8831 112.218 82.8609C112.014 82.8249 111.807 82.7889 111.6 82.7556C111.52 82.7445 111.445 82.7307 111.368 82.7168C111.089 82.6752 110.808 82.6364 110.524 82.6004C110.427 82.5865 110.331 82.5782 110.229 82.5616C110.035 82.5394 109.848 82.5172 109.655 82.4951C109.539 82.484 109.426 82.4729 109.313 82.4618C109.136 82.4452 108.954 82.4285 108.775 82.4147C108.659 82.4064 108.54 82.3953 108.424 82.387C108.242 82.3731 108.057 82.362 107.875 82.3537C107.765 82.3482 107.649 82.3399 107.538 82.3343C107.34 82.326 107.138 82.3149 106.937 82.3094C106.84 82.3066 106.747 82.301 106.647 82.301C106.352 82.2927 106.057 82.29 105.756 82.29C105.458 82.29 105.163 82.2955 104.868 82.301C104.768 82.3038 104.674 82.3066 104.578 82.3094C104.376 82.3149 104.178 82.326 103.976 82.3343C103.866 82.3399 103.75 82.3454 103.64 82.3537C103.455 82.3648 103.273 82.3759 103.091 82.387C102.975 82.3953 102.856 82.4036 102.74 82.4147C102.558 82.4285 102.379 82.4452 102.202 82.4618C102.086 82.4729 101.973 82.484 101.86 82.4951C101.667 82.5145 101.476 82.5366 101.286 82.5616C101.187 82.5754 101.09 82.5865 100.991 82.6004C100.707 82.6364 100.425 82.6752 100.147 82.7168C100.069 82.7279 99.992 82.7417 99.9175 82.7528C99.7106 82.7861 99.5036 82.8221 99.2967 82.8582C99.178 82.8803 99.0594 82.9025 98.9408 82.9247C98.778 82.9552 98.6179 82.9857 98.4551 83.0162C98.3255 83.0411 98.1985 83.0716 98.0661 83.0993C97.9171 83.1298 97.7653 83.1631 97.6163 83.1963C97.4839 83.2268 97.3515 83.2573 97.219 83.2906C97.0728 83.3238 96.9321 83.3598 96.7858 83.3959C96.6506 83.4291 96.5154 83.4624 96.3802 83.4984C96.2395 83.5372 96.0988 83.576 95.9608 83.6148C95.8256 83.6509 95.6904 83.6869 95.558 83.7257C95.3731 83.7811 95.191 83.8366 95.0089 83.892C94.7909 83.9585 94.573 84.0278 94.355 84.0999C94.2391 84.1359 94.126 84.172 94.0101 84.2108C93.8583 84.2662 93.7038 84.3189 93.5493 84.3715C93.4417 84.4103 93.3368 84.4464 93.2265 84.4852C93.0692 84.5434 92.9147 84.6016 92.7602 84.6598C92.6608 84.6986 92.556 84.7402 92.4566 84.779C92.2966 84.8399 92.1393 84.9009 91.9793 84.9647C91.891 85.0035 91.8 85.0395 91.7117 85.0755C91.5406 85.1448 91.3723 85.2169 91.2067 85.289C91.1543 85.3111 91.1019 85.3333 91.0522 85.3555C90.4259 85.6271 89.8106 85.9154 89.2036 86.223C89.1594 86.2452 89.1153 86.2674 89.0739 86.2895C88.8918 86.381 88.7097 86.478 88.5303 86.5723C88.4696 86.6028 88.4144 86.6332 88.3565 86.6665C88.1771 86.7607 87.9978 86.8577 87.824 86.9575C87.7688 86.988 87.7136 87.0185 87.6612 87.049C87.4791 87.1543 87.2942 87.2569 87.1176 87.3622C87.0817 87.3844 87.0486 87.4038 87.0155 87.4232C86.174 87.9221 85.349 88.4515 84.5516 89.0141C84.5405 89.0225 84.5295 89.028 84.5212 89.0363C84.3336 89.1694 84.146 89.3052 83.9611 89.4382C83.9307 89.4604 83.9032 89.4798 83.8728 89.502C83.6907 89.6378 83.5141 89.7708 83.3348 89.9066C83.3072 89.926 83.2823 89.9482 83.252 89.9676C83.0699 90.1117 82.885 90.2531 82.7029 90.4C82.6726 90.303 82.645 90.2088 82.6146 90.1145C82.587 90.1367 82.5567 90.1561 82.5263 90.1783L82.3801 90.3002C82.3801 90.3002 82.8657 91.8635 83.0919 92.6007C84.4384 96.9413 86.1767 102.44 86.7755 103.976C87.0266 104.622 87.7522 106.044 88.9304 108.2C89.405 109.07 89.943 110.043 90.5776 111.168L89.8547 111.457L90.0672 111.568ZM163.544 54.7197C163.544 50.1353 159.831 46.4045 155.267 46.4045C150.703 46.4045 146.992 50.1353 146.992 54.7197C146.992 55.0551 147.014 55.4098 147.058 55.7674L147.091 56.0362L147.141 56.3023C147.889 60.2021 151.307 63.0293 155.264 63.0293C155.361 63.0293 155.457 63.0265 155.57 63.021L155.844 63.0099V63.0127L156.111 62.9849C160.347 62.5581 163.544 59.0048 163.544 54.7197Z" fill="#333333"/>
</g>
</g>
<mask id="mask16_812_47834" style="mask-type:luminance" maskUnits="userSpaceOnUse" x="68" y="67" width="76" height="62">
<path d="M68.8594 67.0454H143.026V128.777H68.8594V67.0454Z" fill="white"/>
</mask>
<g mask="url(#mask16_812_47834)">
<mask id="mask17_812_47834" style="mask-type:luminance" maskUnits="userSpaceOnUse" x="35" y="32" width="136" height="141">
<path d="M35.8926 67.2697V137.369C35.8926 156.766 51.5455 172.492 70.8571 172.492H135.56C154.869 172.492 170.525 156.766 170.525 137.369V67.2697C170.525 47.8704 154.869 32.1465 135.56 32.1465H70.8571C51.5455 32.1465 35.8926 47.8704 35.8926 67.2697Z" fill="white"/>
</mask>
<g mask="url(#mask17_812_47834)">
<path d="M142.098 73.0765C141.654 72.7799 141.058 72.9019 140.766 73.3481L138.983 76.0616L139.574 70.3907C139.643 69.7283 139.204 69.124 138.556 68.9854L138.031 68.8746L138.109 68.4533C138.211 67.9128 137.882 67.3806 137.353 67.2365C136.759 67.0702 136.152 67.4499 136.034 68.0541L134.789 74.4097L134.751 69.4982C134.748 68.9383 134.315 68.4754 133.755 68.4394C133.156 68.4006 132.643 68.869 132.623 69.4733L132.394 76.9514C132.381 77.4004 132.055 77.7801 131.613 77.8577C131.2 77.9325 130.786 77.7191 130.598 77.3394L129.516 75.1109C129.279 74.6203 128.716 74.3931 128.209 74.5677C127.693 74.7478 127.397 75.2939 127.522 75.8316C128.349 79.3267 128.763 81.4027 130.267 85.7044C130.267 85.7044 130.259 85.7266 130.248 85.7654C130.239 85.7876 130.231 85.8181 130.22 85.8541C130.201 85.904 130.184 85.9678 130.162 86.0398C129.974 86.6579 129.544 88.0632 128.992 89.8426C128.934 90.0311 128.876 90.2223 128.816 90.4164C128.813 90.4247 128.81 90.433 128.807 90.4385C128.708 90.7573 128.606 91.0843 128.501 91.4197C128.496 91.4364 128.493 91.4502 128.487 91.4696C128.38 91.8161 128.269 92.1709 128.159 92.534C126.757 97.0435 125.066 102.396 124.481 103.892C124.205 104.591 123.397 106.151 122.34 108.083L132.047 111.739C132.146 111.462 132.243 111.182 132.336 110.905C132.361 110.833 132.389 110.761 132.414 110.689C132.496 110.442 132.579 110.198 132.662 109.954C132.673 109.924 132.684 109.89 132.695 109.857C132.786 109.586 132.877 109.314 132.965 109.042C132.988 108.976 133.007 108.909 133.029 108.846C133.106 108.613 133.181 108.38 133.252 108.15C133.266 108.105 133.28 108.058 133.294 108.014C133.382 107.745 133.465 107.479 133.545 107.216C133.564 107.16 133.584 107.099 133.6 107.044C133.669 106.817 133.738 106.589 133.81 106.362C133.824 106.315 133.837 106.268 133.851 106.223C133.931 105.957 134.008 105.694 134.088 105.431C134.099 105.389 134.113 105.348 134.124 105.309C134.193 105.073 134.26 104.84 134.329 104.608C134.34 104.566 134.353 104.522 134.364 104.48C134.442 104.211 134.516 103.948 134.591 103.685C134.593 103.671 134.599 103.657 134.602 103.643C134.671 103.391 134.74 103.141 134.811 102.895C134.82 102.861 134.831 102.825 134.839 102.792C134.982 102.263 135.123 101.744 135.258 101.234C135.264 101.212 135.269 101.187 135.278 101.165C135.413 100.647 135.543 100.14 135.667 99.6379C135.669 99.624 135.672 99.6129 135.675 99.5991C135.802 99.0918 135.923 98.5957 136.039 98.1106C136.097 97.8667 136.152 97.6256 136.21 97.39C136.21 97.39 136.21 97.39 136.21 97.3872C136.301 96.9853 136.392 96.5945 136.478 96.2092C136.478 96.2065 136.481 96.2009 136.481 96.1982C136.519 96.018 136.561 95.8434 136.597 95.666C136.602 95.6466 136.605 95.6272 136.61 95.6078C136.649 95.4332 136.688 95.2613 136.723 95.095C136.723 95.0895 136.726 95.0812 136.726 95.0728C136.842 94.5296 136.952 94.0057 137.052 93.5068C137.055 93.4985 137.055 93.493 137.057 93.4846C137.09 93.3239 137.121 93.1659 137.151 93.0079C137.151 93.0024 137.157 92.9968 137.157 92.9941C137.284 92.3455 137.399 91.7385 137.502 91.1758C137.502 91.173 137.502 91.1703 137.502 91.1675C137.628 90.4635 137.739 89.8343 137.83 89.2827V89.28C137.888 88.9501 137.935 88.648 137.976 88.3791V88.3764C137.99 88.2877 138.001 88.2073 138.015 88.1269C138.015 88.1214 138.018 88.1131 138.018 88.1075C138.053 87.8608 138.087 87.6446 138.114 87.4589C138.114 87.4562 138.114 87.4534 138.114 87.4506C138.122 87.3952 138.128 87.3425 138.136 87.2926C138.139 87.2815 138.139 87.2732 138.142 87.2621C138.147 87.2206 138.153 87.1818 138.158 87.143C138.158 87.1346 138.161 87.1236 138.161 87.1125C138.18 86.9794 138.191 86.8741 138.202 86.8048C138.202 86.7993 138.202 86.7937 138.205 86.791C138.208 86.7743 138.211 86.7577 138.211 86.7466C138.211 86.7438 138.211 86.7383 138.213 86.7355C138.213 86.7272 138.216 86.7217 138.216 86.7161C138.219 86.7023 138.219 86.6912 138.219 86.6912C139.403 83.8474 140.435 80.8318 141.204 78.401C141.42 77.7247 141.613 77.0955 141.784 76.5245C141.853 76.2972 141.916 76.081 141.98 75.8732C142.195 75.147 142.361 74.5538 142.476 74.1408C142.603 73.7362 142.446 73.3065 142.098 73.0765ZM131.63 77.963C131.716 77.8355 131.889 77.7995 132.016 77.8827C132.099 77.9381 134.064 79.2574 134.836 81.594C134.883 81.7409 134.806 81.9016 134.66 81.9488C134.632 81.9571 134.602 81.9626 134.574 81.9626C134.455 81.9626 134.348 81.8878 134.309 81.7686C133.6 79.6205 131.732 78.3622 131.713 78.3483C131.58 78.2679 131.544 78.0933 131.63 77.963ZM137.17 75.4186C137.143 75.5516 137.027 75.6459 136.895 75.6459C136.878 75.6459 136.861 75.6431 136.842 75.6403C136.693 75.6126 136.591 75.4629 136.619 75.3105L137.766 69.2127C137.794 69.0603 137.943 68.9605 138.092 68.9882C138.244 69.0159 138.343 69.1656 138.316 69.3153L137.17 75.4186ZM83.3579 92.5284C83.1289 91.7939 82.9082 91.0816 82.7012 90.4108C82.6405 90.214 82.5826 90.0255 82.5219 89.8371C82.4778 89.6902 82.4336 89.5488 82.3895 89.4047C82.3867 89.3964 82.3839 89.3881 82.3812 89.3797C82.3398 89.2439 82.3012 89.1164 82.2598 88.9862C82.257 88.9723 82.2515 88.9612 82.2487 88.9473C82.1687 88.6813 82.0915 88.429 82.0142 88.1879C82.0059 88.1574 81.9977 88.1297 81.9866 88.0964C81.9673 88.0327 81.948 87.9662 81.9287 87.9052C81.9121 87.8497 81.8956 87.7943 81.879 87.7444C81.6859 87.1152 81.5286 86.6052 81.421 86.2505C81.4099 86.2117 81.3962 86.1701 81.3879 86.1368C81.363 86.0509 81.3382 85.9761 81.3161 85.9123C81.3079 85.8874 81.3023 85.8652 81.2941 85.8458C81.283 85.8098 81.2747 85.782 81.2665 85.7571C81.2554 85.7183 81.2472 85.6961 81.2472 85.6961C82.7482 81.3944 83.1648 79.3184 83.9926 75.8205C84.1167 75.2856 83.8215 74.7395 83.3055 74.5594C82.7978 74.3847 82.2349 74.6148 81.9977 75.0998L80.9161 77.3311C80.7312 77.7108 80.3145 77.9215 79.8979 77.8494C79.4592 77.7718 79.1336 77.3921 79.1198 76.943L78.8908 69.4649C78.8715 68.8607 78.3583 68.3923 77.7595 68.4311C77.1994 68.4671 76.7662 68.93 76.7607 69.4899L76.7248 74.4014L75.4804 68.0458C75.3618 67.4416 74.7548 67.0619 74.1615 67.2282C73.6318 67.3723 73.3034 67.9045 73.4028 68.445L73.4828 68.8663L72.9585 68.9771C72.3101 69.1185 71.8742 69.7227 71.9404 70.3824L72.5309 76.0533L70.7484 73.3398C70.456 72.8936 69.8572 72.7716 69.4157 73.0682C69.0681 73.301 68.9108 73.7278 69.0212 74.127C69.1371 74.5427 69.3054 75.1387 69.5178 75.8621C69.5785 76.07 69.6447 76.2861 69.7137 76.5134C69.8848 77.0844 70.0807 77.7136 70.2904 78.3899C71.063 80.8207 72.0922 83.8363 73.2786 86.6801C73.2786 86.6801 73.2786 86.6884 73.2814 86.705C73.2814 86.7106 73.2814 86.7161 73.2841 86.7244C73.2841 86.7272 73.2841 86.7327 73.2869 86.7355C73.2896 86.7494 73.2896 86.7632 73.2924 86.7799C73.2924 86.7854 73.2924 86.791 73.2952 86.7937C73.2979 86.8104 73.3007 86.8325 73.3034 86.8519C73.3034 86.8602 73.3062 86.8686 73.3062 86.8796C73.3145 86.9434 73.3228 87.0155 73.3365 87.1042C73.3365 87.1125 73.3393 87.1208 73.3393 87.1319C73.3448 87.1707 73.3503 87.2123 73.3559 87.2538C73.3586 87.2649 73.3586 87.2732 73.3614 87.2843C73.3669 87.3342 73.3752 87.3869 73.3835 87.4423C73.3835 87.4451 73.3835 87.4478 73.3835 87.4506C73.4083 87.6363 73.4442 87.8497 73.48 88.0964C73.48 88.1047 73.4828 88.1131 73.4828 88.1186C73.4938 88.199 73.5076 88.2794 73.5214 88.3681C73.5214 88.3681 73.5214 88.3681 73.5214 88.3708C73.5628 88.6425 73.6097 88.9418 73.6649 89.2689C73.6649 89.2716 73.6649 89.2772 73.6677 89.28C73.687 89.3881 73.7063 89.4989 73.7256 89.6126C73.7256 89.6153 73.7256 89.6153 73.7256 89.6181C73.8029 90.0838 73.8911 90.5965 73.996 91.1564C73.996 91.162 73.9988 91.1675 73.9988 91.173C74.1008 91.7329 74.2167 92.3372 74.3437 92.983C74.3464 92.9913 74.3464 92.9968 74.3492 93.0051C74.3795 93.1604 74.4126 93.3128 74.4457 93.4708C74.4485 93.4791 74.4485 93.4902 74.4513 93.4985C74.5506 93.9974 74.661 94.5185 74.7768 95.059C74.7796 95.0701 74.7824 95.0812 74.7824 95.0922C74.8182 95.2558 74.8541 95.4249 74.8927 95.5967C74.8983 95.6161 74.901 95.6355 74.9065 95.6549C74.9452 95.8295 74.981 96.0014 75.0224 96.1788C75.0252 96.1871 75.0252 96.1954 75.0279 96.2037C75.1162 96.5862 75.2045 96.977 75.2956 97.3761C75.2956 97.3761 75.2956 97.3761 75.2956 97.3789C75.3535 97.6173 75.4087 97.8584 75.4666 98.0996C75.5825 98.5846 75.7039 99.0835 75.8336 99.5907C75.8364 99.6018 75.8391 99.6129 75.8419 99.6268C75.9661 100.123 76.0957 100.633 76.2309 101.148C76.2392 101.176 76.2447 101.201 76.253 101.229C76.3882 101.736 76.5262 102.252 76.6697 102.775C76.6807 102.814 76.689 102.85 76.7 102.886C76.7662 103.133 76.838 103.38 76.9069 103.629C76.9125 103.646 76.9152 103.66 76.9207 103.673C76.9952 103.934 77.0725 104.2 77.147 104.466C77.158 104.508 77.1718 104.552 77.1829 104.594C77.2491 104.827 77.3208 105.062 77.3898 105.3C77.4008 105.337 77.4119 105.375 77.4229 105.411C77.5002 105.677 77.5829 105.944 77.663 106.212C77.6768 106.257 77.6906 106.301 77.7044 106.345C77.7761 106.575 77.8451 106.806 77.9168 107.036C77.9334 107.091 77.9499 107.146 77.9665 107.202C78.052 107.468 78.1348 107.734 78.2203 108.003C78.2369 108.044 78.2507 108.092 78.2645 108.136C78.339 108.369 78.4135 108.602 78.4907 108.834C78.5128 108.898 78.5321 108.962 78.5542 109.026C78.6425 109.3 78.7335 109.572 78.8246 109.843C78.8356 109.874 78.8467 109.904 78.8549 109.935C78.935 110.179 79.0205 110.425 79.106 110.672C79.1309 110.747 79.1557 110.819 79.1805 110.888C79.2771 111.165 79.3737 111.443 79.473 111.723L89.1798 108.064C88.1258 106.132 87.3119 104.574 87.0387 103.876C86.451 102.387 84.7596 97.038 83.3579 92.5284ZM76.6862 81.594C77.456 79.2574 79.4233 77.9381 79.5061 77.8827C79.633 77.7995 79.8069 77.8328 79.8896 77.963C79.9752 78.0933 79.9421 78.2679 79.8124 78.3538C79.7931 78.3649 77.9251 79.6233 77.216 81.7741C77.1773 81.8933 77.0697 81.9682 76.9511 81.9682C76.9235 81.9682 76.8931 81.9626 76.8656 81.9543C76.7166 81.9016 76.6393 81.7409 76.6862 81.594ZM73.2069 69.318C73.1765 69.1684 73.2758 69.0187 73.4276 68.991C73.5794 68.9633 73.7284 69.0603 73.7559 69.2155L74.9038 75.3133C74.9314 75.4657 74.832 75.6154 74.6803 75.6431C74.6637 75.6459 74.6444 75.6486 74.6251 75.6486C74.4954 75.6486 74.3768 75.5544 74.3519 75.4214L73.2069 69.318ZM117.939 109.918C117.933 109.888 117.928 109.854 117.922 109.824C117.911 109.768 117.9 109.71 117.884 109.655C117.878 109.63 117.87 109.605 117.864 109.58C117.842 109.5 117.815 109.425 117.784 109.353C117.776 109.336 117.768 109.319 117.76 109.3C117.729 109.239 117.699 109.181 117.666 109.123C117.655 109.103 117.641 109.084 117.63 109.062C117.586 108.99 117.539 108.92 117.481 108.857C117.426 108.787 117.368 108.726 117.304 108.671C117.285 108.651 117.26 108.635 117.241 108.618C117.197 108.579 117.15 108.541 117.103 108.507C117.078 108.491 117.053 108.471 117.026 108.457C116.979 108.427 116.929 108.396 116.877 108.369C116.852 108.355 116.83 108.341 116.802 108.33C116.728 108.291 116.653 108.261 116.576 108.233C116.543 108.222 116.51 108.214 116.477 108.202C116.427 108.186 116.38 108.172 116.33 108.161C116.286 108.15 116.242 108.141 116.198 108.133C116.159 108.125 116.118 108.119 116.076 108.111C116.024 108.103 115.974 108.097 115.925 108.092C115.894 108.089 115.864 108.086 115.831 108.086C115.624 108.072 115.409 108.078 115.188 108.105C115.177 108.108 115.163 108.108 115.152 108.111C115.072 108.122 114.995 108.136 114.918 108.15C114.909 108.153 114.901 108.153 114.893 108.155C114.551 108.225 114.206 108.344 113.864 108.505V108.502C109.159 108.507 106.568 105.284 105.92 104.358C105.892 104.375 105.865 104.389 105.834 104.397C105.978 105.07 106.182 106.692 104.8 106.858C103.05 107.072 102.504 104.106 102.504 104.106C101.511 107.199 98.9722 108.266 97.794 108.599C97.7333 108.566 97.6726 108.535 97.6064 108.505C97.267 108.344 96.9221 108.225 96.58 108.155C96.5717 108.153 96.5607 108.153 96.5524 108.15C96.4751 108.133 96.3951 108.122 96.3179 108.111C96.3041 108.108 96.293 108.108 96.2792 108.105C96.0585 108.078 95.8433 108.072 95.6336 108.086C95.6032 108.089 95.5701 108.089 95.5398 108.092C95.4901 108.097 95.4377 108.103 95.388 108.111C95.3466 108.117 95.308 108.125 95.2666 108.133C95.2197 108.141 95.1756 108.15 95.1342 108.161C95.0845 108.175 95.0348 108.189 94.9824 108.205C94.9521 108.216 94.919 108.225 94.8886 108.236C94.8113 108.263 94.7341 108.297 94.6623 108.333C94.6375 108.344 94.6127 108.36 94.5879 108.372C94.5382 108.399 94.483 108.427 94.4361 108.46C94.4113 108.477 94.3864 108.493 94.3616 108.51C94.3147 108.543 94.265 108.582 94.2209 108.621C94.2016 108.638 94.1795 108.654 94.1602 108.674C94.0995 108.732 94.0388 108.79 93.9808 108.859C93.9284 108.923 93.8787 108.992 93.8346 109.064C93.8208 109.084 93.8098 109.106 93.7987 109.125C93.7628 109.181 93.7325 109.239 93.7077 109.3C93.6994 109.319 93.6884 109.336 93.6828 109.356C93.6525 109.428 93.6249 109.502 93.6028 109.583C93.5945 109.608 93.589 109.633 93.5835 109.66C93.5697 109.713 93.5559 109.771 93.5449 109.827C93.5394 109.86 93.5338 109.893 93.5283 109.926C93.52 109.985 93.5145 110.046 93.5118 110.104C93.509 110.159 93.5062 110.215 93.5062 110.273C93.5062 110.317 93.5062 110.362 93.5062 110.406C93.509 110.456 93.5118 110.506 93.5173 110.556C93.52 110.589 93.5256 110.619 93.5283 110.653C93.5559 110.844 93.5945 111.038 93.6525 111.232C93.658 111.246 93.6608 111.26 93.6663 111.274C93.7573 111.565 93.8898 111.856 94.0581 112.138C94.3368 112.61 94.712 113.064 95.1838 113.46C95.9564 114.106 96.8311 114.48 97.645 114.577L97.6643 114.472C97.8713 116.215 98.6245 117.793 99.7475 119.02V124.522L105.752 128.48L111.756 124.522V119.386C110.161 121.033 108.022 121.939 105.732 121.939C103.577 121.939 101.527 121.121 99.96 119.636C99.8496 119.528 99.8441 119.35 99.949 119.239C99.949 119.237 99.9517 119.237 99.9545 119.237C100.062 119.126 100.233 119.123 100.346 119.228C101.809 120.617 103.721 121.379 105.732 121.379C107.882 121.379 109.888 120.523 111.38 118.973C111.485 118.862 111.659 118.857 111.772 118.962C112.865 117.745 113.596 116.191 113.803 114.478L113.822 114.577C114.636 114.48 115.511 114.106 116.281 113.46C116.758 113.059 117.141 112.598 117.42 112.119C117.462 112.05 117.497 111.98 117.536 111.908C117.539 111.9 117.544 111.894 117.547 111.886C117.649 111.684 117.735 111.476 117.801 111.271C117.806 111.251 117.812 111.232 117.82 111.213C117.84 111.149 117.856 111.085 117.873 111.024C117.875 111.013 117.875 111.005 117.878 110.994C117.903 110.88 117.922 110.769 117.936 110.658C117.942 110.622 117.944 110.586 117.947 110.55C117.953 110.503 117.955 110.453 117.955 110.409C117.958 110.362 117.958 110.315 117.958 110.267C117.958 110.218 117.958 110.173 117.955 110.129C117.955 110.054 117.95 109.985 117.939 109.918ZM97.5678 111.614C97.5209 111.614 97.474 111.603 97.4298 111.576L95.4763 110.428C95.3411 110.351 95.297 110.179 95.3742 110.046C95.4515 109.91 95.6225 109.865 95.7577 109.943L97.7113 111.091C97.8437 111.168 97.8906 111.34 97.8106 111.476C97.7582 111.565 97.6644 111.614 97.5678 111.614ZM103.415 110.689C103.003 110.689 102.67 110.356 102.67 109.94C102.67 109.527 103.001 109.192 103.415 109.192C103.826 109.192 104.159 109.527 104.159 109.94C104.159 110.356 103.823 110.689 103.415 110.689ZM106.753 115.511C106.463 115.595 106.196 115.628 105.95 115.628C104.871 115.628 104.206 114.993 104.173 114.963C104.06 114.857 104.057 114.677 104.168 114.569C104.273 114.455 104.452 114.453 104.56 114.561C104.598 114.6 105.379 115.323 106.604 114.977C106.753 114.935 106.905 115.021 106.946 115.171C106.988 115.317 106.899 115.47 106.753 115.511ZM106.69 113.186C106.461 113.469 106.124 113.632 105.76 113.632C105.608 113.632 105.481 113.505 105.481 113.35C105.481 113.197 105.608 113.07 105.76 113.07C105.953 113.07 106.135 112.984 106.256 112.831C106.375 112.682 106.422 112.488 106.383 112.296L106.19 111.39C106.157 111.24 106.256 111.091 106.405 111.057C106.557 111.024 106.703 111.121 106.739 111.274L106.93 112.18C107.004 112.537 106.916 112.906 106.69 113.186ZM108.238 110.689C107.826 110.689 107.493 110.356 107.493 109.94C107.493 109.527 107.824 109.192 108.238 109.192C108.651 109.192 108.983 109.527 108.983 109.94C108.983 110.356 108.651 110.689 108.238 110.689ZM116.005 110.431L114.051 111.578C114.007 111.603 113.96 111.617 113.91 111.617C113.817 111.617 113.723 111.567 113.67 111.479C113.593 111.343 113.637 111.171 113.773 111.093L115.726 109.946C115.861 109.868 116.03 109.913 116.11 110.048C116.184 110.181 116.14 110.353 116.005 110.431Z" fill="#DE9D7C"/>
</g>
</g>
<mask id="mask18_812_47834" style="mask-type:luminance" maskUnits="userSpaceOnUse" x="38" y="32" width="127" height="135">
<path d="M38.4844 32.1465H164.215V166.384H38.4844V32.1465Z" fill="white"/>
</mask>
<g mask="url(#mask18_812_47834)">
<mask id="mask19_812_47834" style="mask-type:luminance" maskUnits="userSpaceOnUse" x="35" y="32" width="136" height="141">
<path d="M35.8916 67.2697V137.369C35.8916 156.766 51.5445 172.492 70.8561 172.492H135.559C154.868 172.492 170.524 156.766 170.524 137.369V67.2697C170.524 47.8704 154.868 32.1465 135.559 32.1465H70.8561C51.5445 32.1465 35.8916 47.8704 35.8916 67.2697Z" fill="white"/>
</mask>
<g mask="url(#mask19_812_47834)">
<path d="M94.0653 112.135C94.3439 112.607 94.7192 113.061 95.191 113.458C95.9636 114.103 96.8382 114.478 97.6522 114.575L97.6715 114.469C97.8785 116.213 98.6317 117.79 99.7547 119.018V124.517H99.7519C99.7519 124.517 98.1737 117.571 92.9726 112.881L93.5134 112.515L94.0653 112.135ZM118.545 112.876L118.263 112.687L117.425 112.116C117.146 112.596 116.762 113.056 116.285 113.458C115.515 114.103 114.641 114.478 113.827 114.575L113.807 114.475C113.603 116.191 112.869 117.743 111.777 118.959C111.779 118.959 111.779 118.962 111.782 118.962C111.892 119.068 111.895 119.248 111.788 119.356C111.779 119.364 111.771 119.37 111.765 119.378V124.511C111.771 124.483 113.355 117.557 118.545 112.876ZM98.7255 142.893L89.725 136.768L88.4448 131.102C86.3119 129.919 84.7695 128.012 83.6576 125.93C82.7139 124.162 82.0821 122.272 81.6544 120.578L74.0335 125.761L74.2818 125.93L89.3857 136.202C89.5153 136.291 89.5485 136.463 89.4602 136.593C89.4077 136.673 89.3194 136.718 89.2284 136.718C89.176 136.718 89.1208 136.698 89.0739 136.668L73.7824 126.268V139.068H84.0797C86.5216 139.068 88.5027 141.061 88.5027 143.514V152.339L98.7255 142.893ZM122.289 136.718C122.201 136.718 122.112 136.673 122.057 136.593C121.972 136.463 122.005 136.291 122.135 136.202L137.238 125.93L137.487 125.761L129.863 120.575C129.435 122.266 128.803 124.162 127.86 125.93C126.745 128.012 125.206 129.919 123.073 131.102L121.784 136.776L112.897 142.824C112.911 142.832 112.924 142.838 112.935 142.849L120.849 150.158H137.735V126.266L122.444 136.665C122.399 136.698 122.344 136.718 122.289 136.718ZM112.483 143.109L107.745 146.336C106.542 147.145 104.975 147.145 103.778 146.336L99.1891 143.212C99.178 143.229 99.167 143.248 99.1532 143.262L88.5055 153.099V155.566C88.5055 158.018 86.5244 160.009 84.0825 160.009H81.0253L74.8061 165.754C74.7537 165.804 74.6874 165.829 74.6157 165.829C74.5412 165.829 74.4667 165.796 74.4115 165.738C74.3067 165.624 74.3122 165.447 74.4281 165.344L80.2003 160.009H73.7824V164.346C73.7824 165.438 74.6626 166.323 75.747 166.323H109.02V154.604C109.02 152.151 111.001 150.158 113.446 150.158H120.026L112.563 143.262C112.516 143.22 112.494 143.165 112.483 143.109ZM64.0259 95.5523C64.0397 95.8073 64.0508 96.0623 64.0508 96.3201C64.0508 96.5363 64.0452 96.7497 64.0342 96.9659C64.0287 97.0878 64.0176 97.207 64.0066 97.3262C63.9983 97.4177 63.9956 97.5119 63.9845 97.6034C63.968 97.7697 63.9459 97.9332 63.9238 98.0995C63.9183 98.1411 63.9128 98.1854 63.9073 98.2325C63.8797 98.4183 63.8438 98.6067 63.8052 98.7952C63.8024 98.8118 63.7997 98.8312 63.7969 98.8479C63.6341 99.6655 63.3913 100.45 63.0768 101.201C63.005 101.376 62.9305 101.542 62.8477 101.714C62.8008 101.819 62.7484 101.919 62.6988 102.021C62.6712 102.077 62.6436 102.13 62.616 102.182C62.5636 102.282 62.5111 102.382 62.4587 102.479C62.4339 102.523 62.4063 102.568 62.3814 102.612C62.2794 102.795 62.169 102.972 62.0559 103.152C62.0283 103.197 62.0007 103.241 61.9703 103.288C61.9069 103.38 61.8462 103.468 61.7855 103.563C61.7496 103.612 61.7137 103.662 61.6751 103.712C61.6116 103.804 61.5482 103.89 61.4847 103.978C61.4682 104.003 61.4461 104.025 61.4268 104.05C61.2943 104.225 61.1564 104.391 61.0156 104.56C60.9687 104.613 60.9246 104.666 60.8777 104.721C60.8115 104.796 60.7452 104.871 60.6735 104.948C60.6238 105.004 60.5714 105.057 60.519 105.112C60.4114 105.226 60.3038 105.334 60.1906 105.442C60.1244 105.506 60.0582 105.569 59.9892 105.633C59.923 105.697 59.854 105.758 59.785 105.819C59.7188 105.874 59.6554 105.932 59.5891 105.988C59.5202 106.046 59.4512 106.101 59.3822 106.162C59.2939 106.232 59.2056 106.301 59.1173 106.37C59.0235 106.442 58.9325 106.512 58.8414 106.578C58.7531 106.642 58.6676 106.706 58.582 106.764C58.5131 106.808 58.4468 106.855 58.3806 106.902C58.2896 106.961 58.2013 107.016 58.113 107.072C58.0495 107.113 57.9916 107.152 57.9281 107.188C57.7846 107.271 57.6439 107.357 57.4977 107.435C57.4425 107.465 57.3845 107.496 57.3238 107.526C57.2218 107.582 57.1141 107.637 57.0093 107.69C56.9486 107.72 56.8824 107.751 56.8217 107.781C56.6975 107.842 56.5678 107.9 56.4409 107.956C56.4023 107.972 56.3664 107.989 56.3278 108.003C56.165 108.069 56.005 108.136 55.8394 108.197C55.7842 108.219 55.7263 108.238 55.6656 108.258C55.5442 108.302 55.42 108.347 55.2958 108.385C55.2434 108.402 55.1855 108.421 55.1303 108.438C54.9565 108.491 54.7854 108.541 54.6116 108.588C54.5784 108.596 54.5426 108.604 54.5095 108.613C54.3605 108.649 54.2115 108.685 54.0625 108.715C54.0045 108.726 53.9466 108.737 53.8914 108.748C53.7424 108.776 53.5962 108.807 53.4472 108.829C53.4086 108.834 53.3699 108.843 53.3313 108.848C53.1464 108.876 52.9588 108.898 52.7712 108.918C52.7243 108.923 52.6774 108.926 52.6305 108.931C52.4815 108.945 52.3325 108.956 52.1862 108.965C52.131 108.967 52.0759 108.97 52.0207 108.973C51.8275 108.981 51.6371 108.987 51.4412 108.987C44.4826 108.987 38.8428 103.321 38.8428 96.3339C38.8428 96.1288 38.8483 95.9237 38.8593 95.7214C38.8621 95.6548 38.8676 95.5911 38.8731 95.5218C38.8814 95.3888 38.8897 95.2502 38.9035 95.1171C38.9118 95.0368 38.92 94.9619 38.9283 94.8871C38.9449 94.7624 38.9587 94.6404 38.978 94.5184C38.989 94.4408 39 94.3605 39.0138 94.2801C39.0332 94.1637 39.0525 94.0445 39.0773 93.9281C39.0911 93.8477 39.1077 93.7701 39.1242 93.6925C39.149 93.5705 39.1794 93.4541 39.207 93.3321C39.2235 93.2601 39.2401 93.188 39.2594 93.1132C39.2953 92.9774 39.3339 92.8416 39.3725 92.7113C39.3891 92.6558 39.4029 92.6032 39.4194 92.5505C39.4746 92.3704 39.5353 92.193 39.5988 92.0156C39.6236 91.9435 39.6512 91.8742 39.6816 91.8049C39.723 91.6941 39.7643 91.5887 39.8085 91.4806C39.8416 91.3975 39.8775 91.3171 39.9161 91.2367C39.9575 91.1425 39.9961 91.051 40.0403 90.9568C40.0789 90.8709 40.1203 90.7877 40.1644 90.7018C40.2058 90.6186 40.2472 90.5355 40.2913 90.4496C40.3355 90.3636 40.3852 90.2777 40.4321 90.189C40.4735 90.1114 40.5176 90.0366 40.5618 89.959C40.6169 89.8703 40.6666 89.7816 40.719 89.6929C40.7604 89.6264 40.8018 89.5626 40.8432 89.4933C41.0722 89.1358 41.3178 88.7893 41.5854 88.4595C41.613 88.4262 41.6378 88.3929 41.6627 88.3597C41.7427 88.2571 41.831 88.1601 41.9138 88.0576C41.9496 88.016 41.9827 87.9744 42.0186 87.9356C42.1069 87.8358 42.1924 87.7416 42.2807 87.6501C42.3194 87.6086 42.3552 87.5725 42.3911 87.5337C42.4821 87.4395 42.5787 87.3425 42.6725 87.251C42.7029 87.2205 42.736 87.19 42.7719 87.1595C42.874 87.0597 42.976 86.9627 43.0837 86.8685C43.1002 86.8546 43.1168 86.8408 43.1333 86.8269C43.7707 86.267 44.4632 85.7709 45.2 85.3441C45.211 85.3385 45.222 85.3302 45.2331 85.3247C45.3738 85.2443 45.52 85.1639 45.669 85.0891C45.6801 85.0835 45.6883 85.078 45.6994 85.0724C46.632 84.5929 47.6308 84.2243 48.6793 83.9887C48.8614 83.9471 49.0435 83.9111 49.2256 83.8806C49.3994 83.8501 49.576 83.8224 49.7526 83.8002C49.7719 83.7974 49.7885 83.7947 49.8078 83.7919C49.9678 83.7697 50.1251 83.7503 50.2879 83.7365C50.3514 83.7309 50.4148 83.7281 50.4783 83.7226C50.5997 83.7143 50.7239 83.7032 50.8453 83.6977C51.0412 83.6893 51.2398 83.6838 51.4385 83.6838C51.6923 83.6838 51.9434 83.6921 52.1945 83.7087C52.2662 83.7143 52.338 83.7198 52.4152 83.7254C52.6001 83.7392 52.7795 83.7559 52.9616 83.7808C53.0333 83.7891 53.1078 83.7974 53.1795 83.8085C53.3892 83.8362 53.5989 83.8723 53.8031 83.9111C53.8362 83.9166 53.8721 83.9222 53.9052 83.9305C54.1591 83.9804 54.4101 84.0414 54.6557 84.1051C54.6667 84.1079 54.6805 84.1134 54.6916 84.1162C54.9233 84.1772 55.1524 84.2465 55.3786 84.3241C55.4145 84.3352 55.4504 84.349 55.489 84.3601C55.707 84.4349 55.9222 84.5153 56.1374 84.6012C56.1539 84.6068 56.1705 84.6151 56.1898 84.6206C56.6699 84.8174 57.1362 85.0447 57.586 85.2969C57.7488 85.3884 57.9116 85.4826 58.0661 85.5797C58.2785 85.7127 58.4855 85.8485 58.6869 85.9954C58.7117 86.012 58.7366 86.0287 58.7586 86.0481C58.9573 86.1922 59.1504 86.3363 59.3381 86.4888C59.3436 86.4943 59.3491 86.4971 59.3546 86.5026C59.7492 86.8242 60.1244 87.1706 60.4748 87.5337C60.5024 87.5587 60.5245 87.5836 60.5493 87.6086C60.6983 87.7693 60.8473 87.9356 60.9936 88.1019C61.0156 88.1269 61.0377 88.1518 61.057 88.1768C61.3771 88.5565 61.6779 88.9612 61.9538 89.3797C61.9758 89.4157 61.9979 89.4517 62.0228 89.4878C62.1331 89.6596 62.2407 89.837 62.3401 90.0116C62.3676 90.0615 62.3952 90.1086 62.4228 90.1558C62.5304 90.3526 62.6353 90.5549 62.7374 90.7572C62.7457 90.7739 62.7539 90.7905 62.7622 90.8099C62.8698 91.0344 62.9719 91.2617 63.0685 91.4945C63.0878 91.5388 63.1044 91.5832 63.1209 91.6275C63.1954 91.8105 63.2644 91.9962 63.3278 92.1819C63.3499 92.2512 63.3748 92.3177 63.3968 92.3842C63.4548 92.5672 63.51 92.7501 63.5624 92.9386C63.5789 92.994 63.5955 93.0494 63.612 93.1049C63.6755 93.3432 63.7307 93.5871 63.7776 93.8311C63.7859 93.8726 63.7914 93.9142 63.7997 93.9558C63.8383 94.1609 63.8742 94.366 63.9018 94.5711C63.9128 94.6515 63.9211 94.7291 63.9321 94.8067C63.9542 94.9869 63.9707 95.1698 63.9845 95.3555C64.0149 95.4026 64.0204 95.4775 64.0259 95.5523ZM60.0113 104.48C58.9932 101.999 56.921 100.098 54.3936 99.2886C55.6325 98.4016 56.3802 96.9686 56.3802 95.4137C56.3802 92.7861 54.2529 90.6491 51.6399 90.6491C49.0242 90.6491 46.8969 92.7861 46.8969 95.4137C46.8969 96.9686 47.6446 98.4016 48.8835 99.2886C46.2512 100.131 44.1349 102.138 43.1554 104.757C43.103 104.901 43.1747 105.062 43.3182 105.117C43.3513 105.129 43.3816 105.134 43.4148 105.134C43.5279 105.134 43.6355 105.065 43.6769 104.954C44.6674 102.304 46.8969 100.322 49.6367 99.6572C49.7499 99.6267 49.8354 99.5325 49.8492 99.4188C49.863 99.3024 49.805 99.1916 49.7002 99.1334C48.3151 98.4044 47.4515 96.977 47.4515 95.4109C47.4515 93.091 49.3305 91.2062 51.6371 91.2062C53.9438 91.2062 55.8201 93.0938 55.8201 95.4109C55.8201 96.977 54.9565 98.4044 53.5713 99.1334C53.4665 99.1888 53.4086 99.3024 53.4223 99.4188C53.4361 99.5325 53.5189 99.6267 53.6348 99.6572C56.2671 100.295 58.4579 102.177 59.4926 104.691C59.5533 104.835 59.7161 104.901 59.8595 104.843C60.0003 104.785 60.072 104.621 60.0113 104.48ZM74.315 55.0935C74.1163 54.9522 73.9259 54.8053 73.7383 54.6556C73.7328 54.6473 73.7272 54.6445 73.7217 54.639C73.3244 54.3175 72.9492 53.9738 72.5987 53.6079C72.5739 53.5829 72.5518 53.558 72.527 53.5331C72.3725 53.3723 72.2235 53.2088 72.0828 53.0397C72.0607 53.0147 72.0414 52.9898 72.0193 52.9621C71.6965 52.5824 71.3957 52.1777 71.1226 51.7592C71.0977 51.7231 71.0757 51.6871 71.0536 51.6511C70.9405 51.4792 70.8356 51.3074 70.7335 51.1272C70.7059 51.0801 70.6783 51.0302 70.6535 50.9831C70.5431 50.7863 70.4383 50.5867 70.339 50.3844C70.3307 50.3678 70.3224 50.3511 70.3114 50.3317C70.2038 50.1072 70.1044 49.8799 70.0051 49.6471C69.9858 49.6028 69.9692 49.5556 69.9527 49.5113C69.8809 49.3284 69.8092 49.1454 69.7457 48.957C69.7237 48.8904 69.7016 48.8211 69.6795 48.7546C69.6216 48.5717 69.5636 48.3887 69.5112 48.203C69.4946 48.1448 69.4781 48.0894 69.4643 48.034C69.4008 47.7956 69.3429 47.5517 69.296 47.3078C69.2877 47.2662 69.2822 47.2274 69.2739 47.1831C69.2353 46.9807 69.2022 46.7756 69.1746 46.5705C69.1635 46.4929 69.1553 46.4125 69.1442 46.3349C69.1222 46.1547 69.1028 45.9718 69.089 45.7889C69.0835 45.7113 69.0752 45.6364 69.0725 45.5616C69.0587 45.3094 69.0477 45.0544 69.0477 44.7966C69.0394 37.8146 74.6819 32.1465 81.6406 32.1465C88.5993 32.1465 94.2363 37.8146 94.2363 44.8021C94.2363 44.9962 94.2308 45.1902 94.2225 45.3842C94.2198 45.4396 94.217 45.4951 94.2143 45.5533C94.206 45.6974 94.1949 45.8443 94.1811 45.9912C94.1756 46.0439 94.1729 46.0938 94.1673 46.1464C94.148 46.3349 94.126 46.5234 94.0984 46.7063C94.0928 46.7423 94.0873 46.7756 94.0818 46.8089C94.057 46.9641 94.0266 47.1165 93.999 47.269C93.988 47.33 93.9742 47.3882 93.9632 47.4519C93.9356 47.585 93.9052 47.7208 93.8721 47.8538C93.8583 47.9037 93.8473 47.9591 93.8335 48.009C93.7866 48.1836 93.7369 48.3527 93.6872 48.5246C93.6707 48.58 93.6514 48.6354 93.6348 48.6909C93.5962 48.8101 93.5576 48.932 93.5134 49.0484C93.4886 49.1177 93.4665 49.1842 93.4417 49.2508C93.4003 49.3672 93.3534 49.4808 93.3065 49.5917C93.2844 49.6499 93.2623 49.7081 93.2375 49.7635C93.174 49.9187 93.1051 50.0684 93.0333 50.2181C93.0002 50.2901 92.9643 50.365 92.9285 50.437C92.8843 50.523 92.8402 50.6117 92.7933 50.6976C92.7519 50.7752 92.7132 50.8528 92.6719 50.9304C92.625 51.0136 92.5753 51.0967 92.5284 51.1799C92.4511 51.3157 92.3739 51.446 92.2883 51.5762C92.2442 51.6427 92.2028 51.712 92.1587 51.7813C92.1007 51.8673 92.0428 51.9504 91.9821 52.0391C91.9434 52.0945 91.9048 52.15 91.8634 52.2026C91.8 52.2941 91.7365 52.38 91.6703 52.4659C91.651 52.4964 91.6261 52.5214 91.6068 52.5491C91.4633 52.7376 91.3116 52.9205 91.1543 53.1007C91.1295 53.1284 91.1046 53.1589 91.0798 53.1866C90.997 53.2808 90.9115 53.3723 90.8287 53.4665C90.8039 53.4915 90.7791 53.5192 90.7542 53.5441C90.47 53.8435 90.1693 54.129 89.8575 54.3978C89.8464 54.4061 89.8354 54.42 89.8271 54.4283C89.7168 54.5198 89.6092 54.6113 89.4988 54.7027C89.496 54.7027 89.496 54.7055 89.4933 54.7055C89.1456 54.9827 88.7869 55.2404 88.4117 55.4816C88.4117 55.4816 88.4117 55.4816 88.4089 55.4816C87.9095 55.8003 87.3853 56.0858 86.8362 56.338C86.6679 56.4129 86.4968 56.4877 86.323 56.5542C86.1436 56.6291 85.9615 56.6956 85.7766 56.7593C85.5945 56.8259 85.4097 56.8841 85.2248 56.9395C85.2165 56.9423 85.211 56.9423 85.2027 56.945C85.0234 56.9977 84.8413 57.0448 84.6592 57.0919C84.6399 57.0975 84.6178 57.1003 84.5985 57.1058C84.4274 57.1474 84.2591 57.1834 84.0853 57.2194C84.0466 57.2278 84.008 57.2333 83.9666 57.2416C83.8121 57.2693 83.6548 57.2998 83.5003 57.3248C83.4341 57.3331 83.3679 57.3414 83.3016 57.3497C83.1664 57.3663 83.034 57.3857 82.896 57.3996C82.794 57.4107 82.6863 57.4162 82.5815 57.4245C82.4794 57.4329 82.3801 57.4412 82.278 57.4467C82.071 57.4578 81.8613 57.4634 81.6489 57.4634C81.395 57.4634 81.144 57.455 80.8929 57.4384C80.8184 57.4329 80.7466 57.4273 80.6721 57.4218C80.4873 57.4079 80.3052 57.3913 80.1231 57.3691C80.0513 57.3608 79.9796 57.3525 79.9078 57.3414C79.6981 57.3137 79.4884 57.2749 79.2815 57.2361C79.2484 57.2305 79.2153 57.225 79.1767 57.2167C78.9228 57.1668 78.6717 57.1086 78.4262 57.0421C78.4151 57.0393 78.4013 57.0337 78.3903 57.031C78.1585 56.97 77.9295 56.9007 77.7032 56.8259C77.6674 56.812 77.6315 56.7981 77.5956 56.7871C77.3777 56.7122 77.1597 56.6346 76.9472 56.5459C76.9307 56.5404 76.9141 56.5321 76.8976 56.5265C76.4175 56.3297 75.9484 56.1052 75.4986 55.8502C75.3359 55.7587 75.1758 55.6673 75.0185 55.5675C74.8061 55.4372 74.5992 55.2986 74.4005 55.1545C74.3646 55.1323 74.3398 55.1129 74.315 55.0935ZM73.8624 53.4333C74.853 50.7835 77.0824 48.8045 79.8223 48.1365C79.9354 48.1088 80.021 48.0146 80.0348 47.8982C80.0486 47.7845 79.9906 47.6736 79.8858 47.6154C78.5006 46.8865 77.637 45.459 77.637 43.893C77.637 41.5731 79.516 39.6883 81.8227 39.6883C84.1294 39.6883 86.0057 41.5759 86.0057 43.893C86.0057 45.459 85.142 46.8865 83.7569 47.6154C83.6521 47.6681 83.5941 47.7845 83.6079 47.8982C83.6217 48.0146 83.7045 48.1088 83.8204 48.1365C86.4526 48.7768 88.6434 50.6588 89.6781 53.1727C89.7388 53.3169 89.8989 53.3834 90.0451 53.3252C90.1858 53.267 90.2548 53.1007 90.1941 52.9565C89.1732 50.4786 87.1038 48.5772 84.5764 47.7679C85.8153 46.8782 86.563 45.4452 86.563 43.893C86.563 41.2654 84.4357 39.1284 81.8227 39.1284C79.207 39.1284 77.0797 41.2654 77.0797 43.893C77.0797 45.448 77.8274 46.8809 79.0663 47.7679C76.434 48.6077 74.3177 50.6172 73.3382 53.2365C73.2858 53.3806 73.3575 53.5414 73.501 53.5968C73.5341 53.6079 73.5645 53.6134 73.5976 53.6134C73.7162 53.6162 73.8211 53.5469 73.8624 53.4333ZM163.82 54.7194C163.82 54.8607 163.818 55.0048 163.809 55.149C163.807 55.1961 163.801 55.2432 163.798 55.2903C163.793 55.3846 163.787 55.4788 163.776 55.5703C163.771 55.6285 163.762 55.6839 163.757 55.7393C163.746 55.8225 163.735 55.9084 163.724 55.9888C163.716 56.047 163.705 56.108 163.696 56.1634C163.682 56.241 163.669 56.3214 163.655 56.4018C163.644 56.46 163.63 56.5182 163.616 56.5792C163.6 56.654 163.583 56.7288 163.564 56.8037C163.55 56.8647 163.533 56.9229 163.517 56.9811C163.495 57.0531 163.476 57.128 163.453 57.2C163.437 57.2582 163.418 57.3192 163.398 57.3774C163.376 57.4467 163.351 57.5188 163.327 57.5909C163.307 57.6491 163.285 57.7045 163.26 57.7627C163.235 57.8348 163.208 57.9041 163.18 57.9706C163.158 58.0288 163.133 58.0842 163.111 58.1397C163.081 58.2062 163.051 58.2755 163.017 58.3448C162.993 58.4002 162.968 58.4529 162.94 58.5111C162.907 58.5776 162.874 58.6413 162.841 58.7079C162.813 58.7633 162.786 58.816 162.755 58.8686C162.719 58.9324 162.684 59.0017 162.645 59.0654C162.615 59.1153 162.587 59.1652 162.557 59.2151C162.515 59.2816 162.474 59.3453 162.433 59.4091C162.402 59.4562 162.372 59.5061 162.339 59.5532C162.292 59.6197 162.245 59.6835 162.198 59.75C162.168 59.7944 162.137 59.8359 162.104 59.8803C162.049 59.9524 161.994 60.0216 161.941 60.0882C161.914 60.1242 161.886 60.1602 161.859 60.1963C161.773 60.296 161.69 60.3931 161.605 60.4901C161.602 60.4928 161.599 60.4956 161.599 60.4984C161.508 60.5954 161.417 60.6952 161.323 60.7866C161.293 60.8171 161.26 60.8476 161.227 60.8781C161.163 60.9419 161.1 61.0028 161.036 61.061C160.998 61.0971 160.956 61.1303 160.918 61.1691C160.857 61.2218 160.796 61.2745 160.736 61.3244C160.691 61.3604 160.647 61.3964 160.603 61.4325C160.545 61.4796 160.485 61.5267 160.427 61.5738C160.377 61.6098 160.33 61.6459 160.283 61.6791C160.222 61.7235 160.164 61.7651 160.101 61.8066C160.051 61.8399 160.002 61.8759 159.952 61.9092C159.889 61.948 159.828 61.9896 159.767 62.0284C159.715 62.0589 159.662 62.0921 159.61 62.1254C159.549 62.1614 159.486 62.1974 159.419 62.2335C159.367 62.264 159.312 62.2917 159.259 62.3194C159.196 62.3554 159.13 62.3887 159.064 62.422C159.008 62.4497 158.953 62.4746 158.895 62.5023C158.829 62.5328 158.763 62.5633 158.694 62.5938C158.639 62.6187 158.583 62.6437 158.526 62.6659C158.454 62.6936 158.388 62.7213 158.319 62.7462C158.263 62.7684 158.203 62.7906 158.147 62.81C158.079 62.8377 158.007 62.8627 157.932 62.8848C157.874 62.9042 157.819 62.9236 157.761 62.9403C157.684 62.9624 157.612 62.9818 157.538 63.004C157.48 63.0206 157.422 63.0345 157.367 63.0511C157.289 63.0733 157.207 63.0899 157.129 63.1093C157.074 63.1204 157.019 63.1343 156.964 63.1454C156.878 63.162 156.787 63.1786 156.699 63.1925C156.652 63.2008 156.605 63.2091 156.558 63.2174C156.431 63.2368 156.304 63.2507 156.177 63.2646C156.166 63.2646 156.153 63.2673 156.142 63.2701C155.957 63.2895 155.769 63.2978 155.581 63.3061C155.477 63.3089 155.375 63.3172 155.267 63.3172C155.129 63.3172 154.988 63.3144 154.85 63.3034C154.803 63.3006 154.759 63.2978 154.715 63.295C154.621 63.2895 154.53 63.284 154.442 63.2756C154.387 63.2701 154.334 63.2646 154.282 63.259C154.199 63.2507 154.116 63.2396 154.036 63.2285C153.981 63.2202 153.926 63.2119 153.868 63.2036C153.791 63.1897 153.713 63.1759 153.633 63.162C153.578 63.1509 153.523 63.1398 153.468 63.1287C153.388 63.1121 153.313 63.0955 153.236 63.0761C153.181 63.0595 153.126 63.0484 153.073 63.0345C152.996 63.0151 152.916 62.9902 152.839 62.968C152.789 62.9541 152.739 62.9403 152.687 62.9236C152.602 62.8959 152.516 62.8682 152.43 62.8377C152.392 62.8211 152.35 62.8072 152.312 62.7934C152.19 62.749 152.072 62.7019 151.953 62.652C151.906 62.6326 151.862 62.6104 151.818 62.5883C151.743 62.555 151.669 62.5245 151.6 62.4912C151.545 62.4663 151.49 62.4386 151.434 62.4109C151.374 62.3804 151.313 62.3471 151.25 62.3139C151.194 62.2834 151.136 62.2529 151.081 62.2196C151.023 62.1891 150.968 62.1559 150.913 62.1254C150.855 62.0893 150.797 62.0533 150.739 62.0173C150.687 61.984 150.637 61.9535 150.587 61.9203C150.527 61.8815 150.469 61.8427 150.413 61.8011C150.367 61.7678 150.32 61.7346 150.273 61.7013C150.215 61.6597 150.157 61.6154 150.099 61.571C150.058 61.5405 150.016 61.5101 149.978 61.4768C149.917 61.4297 149.856 61.377 149.793 61.3271C149.776 61.3133 149.762 61.2994 149.749 61.2883C149.586 61.1525 149.428 61.0084 149.277 60.8559C149.268 60.8476 149.263 60.8421 149.255 60.8338C149.188 60.77 149.128 60.7035 149.061 60.6342C149.037 60.6093 149.015 60.5843 148.99 60.5594C148.929 60.4956 148.871 60.4291 148.813 60.3598C148.788 60.3321 148.763 60.3016 148.739 60.2739C148.683 60.2074 148.626 60.1353 148.57 60.0688C148.548 60.041 148.526 60.0106 148.501 59.9828C148.446 59.908 148.391 59.8359 148.339 59.7639C148.319 59.7389 148.3 59.7112 148.283 59.6835C148.228 59.6059 148.176 59.5283 148.121 59.4451C148.11 59.4257 148.099 59.4091 148.085 59.3897C147.77 58.9019 147.505 58.3808 147.293 57.832C147.287 57.8181 147.282 57.8043 147.276 57.7904C147.24 57.6906 147.202 57.5909 147.169 57.4883C147.16 57.4661 147.155 57.4467 147.147 57.4245C147.113 57.3275 147.083 57.225 147.056 57.1252C147.05 57.103 147.042 57.0809 147.036 57.0587C147.009 56.9561 146.981 56.8536 146.953 56.7482C146.948 56.7316 146.945 56.7122 146.942 56.6956C146.918 56.5875 146.893 56.4738 146.871 56.363C146.835 56.18 146.807 55.9943 146.785 55.8059C146.763 55.6396 146.749 55.4705 146.738 55.3014C146.738 55.2848 146.735 55.2709 146.735 55.2543C146.722 55.0769 146.716 54.9023 146.716 54.7249C146.716 49.9769 150.546 46.1298 155.272 46.1298C159.999 46.1298 163.82 49.9742 163.82 54.7194ZM161.161 60.2268C160.479 58.572 159.116 57.2887 157.452 56.7039C158.236 56.0775 158.702 55.1323 158.702 54.1013C158.702 52.2692 157.218 50.7752 155.394 50.7752C153.567 50.7752 152.083 52.2692 152.083 54.1013C152.083 55.1268 152.549 56.0775 153.33 56.7039C151.592 57.3137 150.201 58.6663 149.547 60.4152C149.495 60.5621 149.566 60.7229 149.71 60.7783C149.743 60.7894 149.773 60.795 149.806 60.795C149.92 60.795 150.027 60.7257 150.069 60.612C150.731 58.8409 152.221 57.516 154.056 57.0725C154.169 57.0421 154.254 56.9478 154.268 56.8342C154.282 56.7178 154.224 56.6069 154.119 56.5487C153.209 56.0692 152.64 55.1323 152.64 54.0985C152.64 52.574 153.874 51.3351 155.394 51.3351C156.911 51.3351 158.145 52.574 158.145 54.0985C158.145 55.1323 157.579 56.0692 156.666 56.5487C156.564 56.6041 156.503 56.7178 156.517 56.8342C156.531 56.9478 156.616 57.0421 156.729 57.0725C158.492 57.4966 159.955 58.7577 160.647 60.4402C160.705 60.5815 160.871 60.6481 161.012 60.5898C161.15 60.5316 161.218 60.3681 161.161 60.2268Z" fill="#FCC64D"/>
</g>
</g>
<mask id="mask20_812_47834" style="mask-type:luminance" maskUnits="userSpaceOnUse" x="79" y="107" width="75" height="66">
<path d="M79.4551 107.49H153.622V172.639H79.4551V107.49Z" fill="white"/>
</mask>
<g mask="url(#mask20_812_47834)">
<mask id="mask21_812_47834" style="mask-type:luminance" maskUnits="userSpaceOnUse" x="35" y="32" width="136" height="141">
<path d="M35.8926 67.2697V137.369C35.8926 156.766 51.5455 172.492 70.8571 172.492H135.56C154.869 172.492 170.525 156.766 170.525 137.369V67.2697C170.525 47.8704 154.869 32.1465 135.56 32.1465H70.8571C51.5455 32.1465 35.8926 47.8704 35.8926 67.2697Z" fill="white"/>
</mask>
<g mask="url(#mask21_812_47834)">
<path d="M112.547 142.866C112.638 142.766 112.79 142.755 112.901 142.824L121.788 136.776L123.076 131.102C125.209 129.919 126.752 128.012 127.864 125.93C128.807 124.162 129.442 122.266 129.867 120.575C129.911 120.395 129.955 120.215 129.999 120.041C129.999 120.038 129.999 120.038 129.999 120.035C130.493 117.909 130.653 116.185 130.7 115.581C130.703 115.534 130.706 115.492 130.708 115.459C130.708 115.453 130.708 115.451 130.708 115.445C130.711 115.417 130.711 115.392 130.714 115.378C130.714 115.376 130.714 115.373 130.714 115.37C130.714 115.359 130.714 115.348 130.714 115.348L130.234 115.16C130.187 115.268 130.085 115.337 129.974 115.337C129.939 115.337 129.905 115.331 129.875 115.32L121.076 111.978C120.933 111.919 120.858 111.761 120.916 111.615C120.933 111.57 120.96 111.537 120.993 111.506C121.068 111.437 121.175 111.412 121.272 111.454L130.071 114.794C130.217 114.852 130.289 115.01 130.234 115.157C130.234 115.157 130.234 115.16 130.231 115.16L130.714 115.351C131.186 114.131 131.63 112.926 132.049 111.736L122.343 108.081C121.791 109.084 121.178 110.19 120.538 111.329H120.541H120.535C120.342 111.459 120.157 111.59 119.97 111.725C119.868 111.797 119.771 111.872 119.672 111.95C119.594 112.005 119.523 112.061 119.448 112.119C119.316 112.224 119.189 112.327 119.062 112.435C119.031 112.46 119.004 112.485 118.974 112.51C118.827 112.632 118.681 112.759 118.54 112.887C113.348 117.565 111.767 124.492 111.756 124.52V124.525L105.752 128.483L99.7475 124.525V124.522H99.7447C99.7447 124.522 98.1665 117.576 92.9654 112.889C92.8219 112.759 92.6784 112.634 92.5322 112.51C92.5019 112.485 92.4743 112.46 92.4439 112.435C92.317 112.327 92.1901 112.224 92.0576 112.119C91.9859 112.061 91.9114 112.005 91.8341 111.95C91.7376 111.872 91.641 111.8 91.5389 111.728C91.354 111.592 91.1664 111.462 90.9733 111.332L90.5539 111.498C90.6091 111.529 90.656 111.576 90.6808 111.639C90.7332 111.786 90.6587 111.947 90.5152 112.003L81.6362 115.326C81.603 115.337 81.5699 115.342 81.5368 115.342C81.4265 115.342 81.3216 115.273 81.2775 115.165L80.8801 115.323L80.8388 115.34L80.8663 115.331L81.2802 115.165C81.2802 115.162 81.2775 115.162 81.2775 115.16C81.225 115.013 81.2968 114.855 81.443 114.796L90.3221 111.476C90.4021 111.448 90.4849 111.459 90.5539 111.498L90.9733 111.332C90.3331 110.193 89.7178 109.089 89.1688 108.083L79.4619 111.739C79.8786 112.928 80.3255 114.137 80.7974 115.354C80.7974 115.354 80.7974 115.362 80.7974 115.373C80.7974 115.376 80.7974 115.378 80.7974 115.381C80.7974 115.398 80.8001 115.42 80.8029 115.448C80.8029 115.453 80.8029 115.459 80.8029 115.462C80.8056 115.495 80.8084 115.536 80.8112 115.584V115.586C80.8553 116.193 81.0209 117.915 81.512 120.038C81.512 120.041 81.512 120.043 81.5148 120.046C81.5561 120.223 81.6003 120.404 81.6472 120.581C82.0749 122.275 82.7067 124.165 83.6504 125.933C84.7651 128.015 86.3047 129.922 88.4376 131.105L89.7151 136.771L98.7183 142.896L98.768 142.852C98.8839 142.749 99.0577 142.755 99.1625 142.868C99.2508 142.968 99.2536 143.107 99.1846 143.215L103.773 146.339C104.968 147.148 106.538 147.148 107.741 146.339L112.476 143.112C112.465 143.026 112.484 142.932 112.547 142.866ZM105.437 129.068C105.346 129.129 103.787 130.143 101.971 130.143C101.185 130.143 100.355 129.955 99.5709 129.42C98.4728 128.672 97.8299 127.74 97.6588 126.651C97.347 124.691 98.6769 122.948 98.7321 122.876C98.8287 122.754 98.9998 122.732 99.1239 122.826C99.2453 122.92 99.2674 123.098 99.1736 123.217C99.1625 123.236 97.9375 124.849 98.2106 126.565C98.3596 127.496 98.9225 128.3 99.8855 128.954C102.181 130.518 105.103 128.616 105.133 128.6C105.26 128.514 105.434 128.55 105.52 128.677C105.603 128.81 105.567 128.982 105.437 129.068ZM109.51 130.143C107.691 130.143 106.135 129.129 106.044 129.068C105.914 128.982 105.878 128.81 105.964 128.68C106.049 128.552 106.221 128.514 106.353 128.602C106.381 128.622 109.305 130.523 111.601 128.957C112.564 128.303 113.127 127.496 113.276 126.568C113.549 124.852 112.324 123.239 112.313 123.22C112.216 123.098 112.241 122.923 112.363 122.829C112.487 122.732 112.658 122.757 112.754 122.879C112.81 122.951 114.137 124.697 113.828 126.657C113.654 127.746 113.014 128.677 111.916 129.426C111.126 129.955 110.293 130.143 109.51 130.143ZM152.909 171.265L151.744 166.899C151.75 166.822 151.756 166.741 151.756 166.661V154.604C151.756 152.151 149.774 150.158 147.333 150.158H113.447C111.002 150.158 109.021 152.151 109.021 154.604V166.661C109.021 169.114 111.002 171.104 113.447 171.104H147.333C147.338 171.104 147.346 171.104 147.352 171.104L151.86 172.318C152.498 172.487 153.08 171.905 152.909 171.265ZM135.043 164.973H114.335C114.184 164.973 114.057 164.845 114.057 164.693C114.057 164.538 114.184 164.413 114.335 164.413H135.043C135.195 164.413 135.322 164.538 135.322 164.693C135.322 164.845 135.198 164.973 135.043 164.973ZM146.441 160.912H114.335C114.184 160.912 114.057 160.788 114.057 160.632C114.057 160.477 114.184 160.352 114.335 160.352H146.441C146.596 160.352 146.72 160.477 146.72 160.632C146.72 160.788 146.599 160.912 146.441 160.912ZM146.441 156.854H114.335C114.184 156.854 114.057 156.73 114.057 156.575C114.057 156.419 114.184 156.295 114.335 156.295H146.441C146.596 156.295 146.72 156.419 146.72 156.575C146.72 156.73 146.599 156.854 146.441 156.854Z" fill="#997C34"/>
</g>
</g>
<mask id="mask22_812_47834" style="mask-type:luminance" maskUnits="userSpaceOnUse" x="35" y="52" width="136" height="110">
<path d="M35.8926 52.1443H170.453V161.416H35.8926V52.1443Z" fill="white"/>
</mask>
<g mask="url(#mask22_812_47834)">
<mask id="mask23_812_47834" style="mask-type:luminance" maskUnits="userSpaceOnUse" x="35" y="32" width="136" height="141">
<path d="M35.8926 67.2697V137.369C35.8926 156.766 51.5455 172.492 70.8571 172.492H135.56C154.869 172.492 170.525 156.766 170.525 137.369V67.2697C170.525 47.8704 154.869 32.1465 135.56 32.1465H70.8571C51.5455 32.1465 35.8926 47.8704 35.8926 67.2697Z" fill="white"/>
</mask>
<g mask="url(#mask23_812_47834)">
<path d="M157.912 79.7506C157.7 79.7506 157.49 79.7562 157.286 79.7673C157.098 79.7756 156.914 79.7922 156.726 79.8088C156.544 79.8255 156.364 79.8476 156.185 79.8726C156.163 79.8754 156.141 79.8781 156.119 79.8809C155.951 79.9059 155.785 79.9363 155.619 79.9668C155.584 79.9724 155.55 79.9779 155.517 79.9862C155.363 80.0167 155.206 80.05 155.048 80.086C155.007 80.0943 154.968 80.1054 154.927 80.1137C154.775 80.1498 154.626 80.1913 154.48 80.2329C154.436 80.2468 154.389 80.2579 154.345 80.2717C154.201 80.3133 154.058 80.3576 153.917 80.4075C153.87 80.4242 153.826 80.438 153.779 80.4547C153.638 80.5018 153.503 80.5517 153.365 80.6043C153.318 80.6237 153.271 80.6431 153.224 80.6625C153.089 80.7152 152.954 80.7706 152.824 80.8288C152.778 80.851 152.731 80.8704 152.681 80.8954C152.551 80.9536 152.422 81.0145 152.295 81.0783C152.248 81.1005 152.201 81.1282 152.157 81.1504C152.03 81.2169 151.903 81.2834 151.779 81.3527C151.732 81.3804 151.69 81.4054 151.646 81.4303C151.519 81.5024 151.395 81.5744 151.271 81.652C151.23 81.677 151.191 81.7047 151.152 81.7296C151.028 81.8073 150.904 81.8904 150.783 81.9736C150.749 81.9985 150.716 82.0207 150.681 82.0456C150.554 82.1343 150.432 82.223 150.308 82.3145C150.283 82.3339 150.261 82.3533 150.239 82.3727C149.668 82.8162 149.133 83.304 148.641 83.8361C148.633 83.8445 148.622 83.8556 148.614 83.8639C148.523 83.9636 148.437 84.069 148.346 84.1688C148.308 84.2159 148.266 84.263 148.228 84.3101C148.15 84.4016 148.076 84.4986 148.004 84.5901C147.957 84.651 147.905 84.7092 147.861 84.773C147.794 84.8617 147.731 84.9504 147.662 85.0446C147.612 85.1139 147.563 85.1832 147.516 85.2553C147.455 85.344 147.397 85.4327 147.339 85.5241C147.289 85.599 147.243 85.6738 147.193 85.7542C147.138 85.8429 147.088 85.9343 147.036 86.023C146.989 86.1034 146.939 86.1866 146.892 86.2697C146.842 86.3584 146.798 86.4499 146.751 86.5386C146.705 86.6245 146.66 86.7132 146.616 86.7991C146.572 86.8878 146.531 86.9793 146.487 87.068C146.445 87.1622 146.404 87.2509 146.365 87.3424C146.327 87.4338 146.288 87.5225 146.249 87.6112C146.211 87.7082 146.175 87.8025 146.136 87.9023C146.103 87.991 146.07 88.0797 146.037 88.1739C145.998 88.2737 145.965 88.3735 145.935 88.4732C145.904 88.5619 145.877 88.6562 145.849 88.7449C145.819 88.8502 145.791 88.9527 145.758 89.0581C145.733 89.1495 145.708 89.2382 145.686 89.3325C145.659 89.4406 145.637 89.5514 145.612 89.6595C145.593 89.7482 145.573 89.8397 145.554 89.9284C145.529 90.0448 145.51 90.1584 145.49 90.2748C145.477 90.3608 145.46 90.4467 145.446 90.5382C145.43 90.6601 145.416 90.7848 145.399 90.904C145.391 90.9872 145.377 91.0703 145.369 91.1507C145.355 91.2893 145.347 91.4279 145.339 91.5665C145.333 91.6358 145.328 91.7051 145.325 91.7771C145.314 91.9878 145.308 92.1984 145.308 92.4091C145.308 92.6752 145.319 92.9385 145.336 93.199C145.341 93.2711 145.347 93.3431 145.353 93.4207C145.369 93.6175 145.388 93.8171 145.413 94.0139C145.421 94.0776 145.43 94.1469 145.438 94.2107C145.513 94.7318 145.617 95.2418 145.753 95.7407C145.764 95.785 145.78 95.8321 145.794 95.8765C145.857 96.101 145.924 96.3227 145.998 96.5417C146.006 96.5667 146.017 96.5944 146.029 96.6193C146.205 97.1265 146.415 97.6171 146.652 98.0939C146.66 98.1105 146.669 98.1244 146.674 98.1382C146.796 98.3738 146.92 98.6066 147.055 98.8339C147.149 98.9947 147.248 99.1527 147.35 99.3106C147.77 99.9565 148.244 100.558 148.768 101.115C148.777 101.126 148.788 101.134 148.796 101.146C148.967 101.323 149.146 101.5 149.326 101.672C149.326 101.672 149.326 101.672 149.329 101.675C149.698 102.019 150.093 102.346 150.498 102.645C150.515 102.656 150.532 102.667 150.548 102.681C150.727 102.814 150.912 102.936 151.1 103.058C151.133 103.08 151.166 103.1 151.199 103.122C151.39 103.241 151.586 103.36 151.784 103.468C151.801 103.477 151.815 103.485 151.831 103.496C152.052 103.621 152.278 103.734 152.507 103.845C152.513 103.848 152.518 103.851 152.526 103.853C152.736 103.951 152.943 104.045 153.158 104.133C153.216 104.156 153.269 104.178 153.324 104.197C153.498 104.266 153.671 104.33 153.848 104.391C153.909 104.411 153.969 104.433 154.03 104.452C154.234 104.521 154.439 104.58 154.645 104.635C154.673 104.643 154.701 104.652 154.728 104.66C154.966 104.724 155.203 104.776 155.446 104.826C155.504 104.837 155.564 104.846 155.625 104.857C155.804 104.89 155.986 104.921 156.171 104.948C156.251 104.959 156.334 104.97 156.411 104.979C156.585 104.998 156.759 105.015 156.936 105.029C157.01 105.034 157.087 105.043 157.162 105.045C157.41 105.059 157.659 105.07 157.912 105.07C164.871 105.07 170.511 99.4021 170.511 92.4146C170.511 85.4271 164.871 79.7506 157.912 79.7506ZM166.32 100.929C166.179 100.988 166.016 100.921 165.955 100.777C164.918 98.2629 162.73 96.3809 160.095 95.7407C159.985 95.713 159.896 95.6187 159.882 95.5023C159.869 95.3887 159.929 95.275 160.031 95.2196C161.419 94.4906 162.28 93.0632 162.28 91.4972C162.28 89.1772 160.407 87.2925 158.097 87.2925C155.788 87.2925 153.912 89.18 153.912 91.4972C153.912 93.0632 154.775 94.4906 156.163 95.2196C156.265 95.2723 156.326 95.3887 156.309 95.5023C156.295 95.6187 156.213 95.713 156.1 95.7407C153.357 96.4059 151.13 98.3849 150.14 101.037C150.098 101.151 149.991 101.22 149.878 101.22C149.842 101.22 149.809 101.215 149.778 101.204C149.635 101.151 149.56 100.988 149.618 100.841C150.598 98.2214 152.709 96.2146 155.344 95.3748C154.105 94.4879 153.357 93.0549 153.357 91.5C153.357 88.8724 155.484 86.7354 158.1 86.7354C160.716 86.7354 162.843 88.8724 162.843 91.5C162.843 93.0549 162.095 94.4879 160.854 95.3748C163.381 96.1842 165.453 98.0856 166.474 100.563C166.529 100.708 166.463 100.871 166.32 100.929ZM123.422 60.6535C123.411 60.4844 123.395 60.3154 123.376 60.1491C123.353 59.9633 123.323 59.7804 123.29 59.5947C123.268 59.4838 123.243 59.373 123.216 59.2649C123.213 59.2482 123.207 59.2288 123.204 59.2094C123.18 59.1069 123.152 59.0043 123.124 58.9018C123.119 58.8796 123.111 58.8574 123.105 58.8353C123.078 58.7327 123.047 58.6357 123.011 58.5359C123.003 58.5137 122.998 58.4916 122.989 58.4694C122.956 58.3696 122.92 58.2698 122.884 58.17C122.879 58.1562 122.873 58.1423 122.868 58.1285C122.655 57.5797 122.391 57.0586 122.076 56.568C122.065 56.5486 122.048 56.5292 122.037 56.5126C121.985 56.4322 121.932 56.3546 121.877 56.2742C121.858 56.2465 121.839 56.2215 121.819 56.1938C121.767 56.1217 121.712 56.0469 121.659 55.9748C121.637 55.9471 121.615 55.9166 121.593 55.8889C121.535 55.8169 121.48 55.7503 121.425 55.681C121.4 55.6533 121.375 55.6228 121.35 55.5923C121.29 55.5258 121.232 55.4593 121.174 55.3956C121.152 55.3678 121.127 55.3429 121.099 55.3179C121.036 55.2514 120.972 55.1849 120.909 55.1184C120.901 55.1101 120.895 55.1045 120.887 55.0962C120.735 54.9493 120.575 54.8024 120.415 54.6666C120.401 54.6527 120.382 54.6361 120.368 54.625C120.307 54.5751 120.247 54.528 120.186 54.4781C120.147 54.4476 120.106 54.4144 120.065 54.3811C120.007 54.3368 119.949 54.2952 119.888 54.2536C119.841 54.2203 119.797 54.1871 119.75 54.1511C119.692 54.1122 119.634 54.0734 119.576 54.0346C119.526 54.0014 119.477 53.9681 119.422 53.9376C119.366 53.8988 119.308 53.8656 119.251 53.8295C119.195 53.7963 119.137 53.7658 119.085 53.7353C119.03 53.7048 118.972 53.6688 118.914 53.6383C118.853 53.605 118.793 53.5745 118.735 53.544C118.677 53.5163 118.624 53.4886 118.569 53.4637C118.497 53.4276 118.423 53.3944 118.351 53.3639C118.304 53.3445 118.26 53.3223 118.213 53.3029C118.097 53.253 117.976 53.2031 117.857 53.1588C117.819 53.1449 117.777 53.1311 117.736 53.1172C117.653 53.0867 117.567 53.059 117.479 53.0313C117.429 53.0146 117.38 53.0008 117.33 52.9869C117.25 52.962 117.176 52.9398 117.098 52.9176C117.046 52.9038 116.988 52.8899 116.936 52.8788C116.861 52.8594 116.781 52.8428 116.704 52.8262C116.649 52.8151 116.593 52.804 116.536 52.7929C116.458 52.7791 116.381 52.7652 116.301 52.7513C116.246 52.743 116.191 52.7347 116.135 52.7264C116.053 52.7125 115.97 52.7014 115.89 52.6931C115.837 52.6876 115.782 52.6793 115.73 52.6765C115.639 52.6682 115.548 52.6626 115.457 52.6571C115.413 52.6543 115.366 52.6488 115.319 52.6488C115.184 52.6432 115.043 52.6377 114.905 52.6377C110.178 52.6377 106.349 56.4848 106.349 61.2328C106.349 61.3714 106.351 61.5127 106.36 61.6513C106.362 61.6957 106.365 61.7428 106.368 61.7871C106.373 61.8814 106.379 61.9728 106.387 62.0615C106.393 62.117 106.398 62.1696 106.404 62.2223C106.412 62.3054 106.423 62.3886 106.434 62.469C106.442 62.5244 106.451 62.5798 106.459 62.6381C106.473 62.7157 106.487 62.7933 106.503 62.8736C106.514 62.9291 106.525 62.9845 106.536 63.04C106.553 63.1176 106.569 63.1952 106.589 63.27C106.602 63.3282 106.616 63.3836 106.63 63.4363C106.649 63.5111 106.671 63.5888 106.693 63.6636C106.71 63.7163 106.724 63.7689 106.743 63.8243C106.768 63.9047 106.796 63.9823 106.823 64.0627C106.84 64.1098 106.854 64.1542 106.87 64.2013C106.914 64.3233 106.961 64.4424 107.011 64.5616C107.03 64.6087 107.052 64.6559 107.074 64.7002C107.105 64.775 107.138 64.8471 107.171 64.9164C107.198 64.9746 107.229 65.0328 107.259 65.091C107.289 65.1492 107.317 65.2074 107.347 65.2684C107.378 65.3294 107.411 65.3876 107.444 65.4458C107.477 65.5012 107.505 65.5539 107.538 65.6066C107.574 65.6675 107.61 65.7285 107.648 65.7895C107.678 65.8366 107.712 65.8865 107.742 65.9336C107.781 65.9974 107.822 66.0584 107.863 66.1193C107.894 66.1609 107.924 66.208 107.957 66.2496C108.001 66.3134 108.048 66.3743 108.092 66.4353C108.12 66.4741 108.148 66.5074 108.178 66.5434C108.23 66.6099 108.283 66.6764 108.335 66.743C108.349 66.7596 108.363 66.7735 108.377 66.7901C108.595 67.0479 108.826 67.2918 109.072 67.5218C109.08 67.5301 109.086 67.5357 109.094 67.544C109.171 67.6133 109.246 67.6826 109.323 67.7491C109.342 67.7657 109.359 67.7796 109.381 67.7962C109.455 67.86 109.533 67.9237 109.61 67.9847C109.629 68.0013 109.651 68.018 109.671 68.0318C109.748 68.0928 109.828 68.1538 109.911 68.212C109.93 68.2258 109.949 68.2397 109.966 68.2536C110.049 68.3118 110.137 68.3755 110.222 68.4309C110.234 68.4393 110.247 68.4476 110.261 68.4559C110.865 68.8495 111.517 69.1654 112.212 69.3955C112.215 69.3955 112.217 69.3983 112.22 69.3983C112.333 69.4343 112.444 69.4676 112.56 69.5008C112.568 69.5036 112.579 69.5064 112.587 69.5091C112.697 69.5396 112.813 69.5729 112.926 69.5978C112.935 69.6006 112.943 69.6006 112.951 69.6034C113.07 69.6311 113.186 69.656 113.307 69.6782C113.489 69.7115 113.671 69.7392 113.859 69.7614C114.022 69.7808 114.187 69.7946 114.35 69.8057C114.361 69.8057 114.375 69.8113 114.386 69.8113C114.557 69.8223 114.728 69.8279 114.902 69.8279C119.626 69.8279 123.456 65.9807 123.456 61.2328C123.456 61.0526 123.45 60.8752 123.439 60.7034C123.422 60.6868 123.422 60.6701 123.422 60.6535ZM120.633 67.1033C120.489 67.1643 120.327 67.095 120.266 66.9536C119.573 65.274 118.108 64.0128 116.351 63.586C116.238 63.5583 116.152 63.4613 116.138 63.3476C116.124 63.2312 116.182 63.1203 116.284 63.0621C117.198 62.5826 117.766 61.6458 117.766 60.6119C117.766 59.0875 116.53 57.8485 115.012 57.8485C113.495 57.8485 112.262 59.0875 112.262 60.6119C112.262 61.6458 112.827 62.5798 113.74 63.0621C113.843 63.1176 113.9 63.2312 113.887 63.3476C113.873 63.4613 113.79 63.5583 113.674 63.586C111.842 64.0295 110.355 65.3543 109.693 67.1255C109.651 67.2391 109.544 67.3084 109.431 67.3084C109.397 67.3084 109.362 67.3029 109.331 67.2918C109.188 67.2391 109.113 67.0756 109.171 66.9314C109.822 65.1769 111.216 63.8271 112.951 63.2173C112.17 62.5937 111.701 61.6458 111.701 60.6147C111.701 58.7826 113.186 57.2886 115.012 57.2886C116.839 57.2886 118.323 58.7826 118.323 60.6147C118.323 61.643 117.857 62.5937 117.074 63.2173C118.74 63.8049 120.1 65.0855 120.782 66.7402C120.84 66.8816 120.774 67.0451 120.633 67.1033ZM45.1938 69.9443C45.4201 69.9249 45.6408 69.8972 45.8615 69.8611C46.0464 69.8307 46.2285 69.7919 46.4106 69.7503C47.2329 69.5563 48.0082 69.2431 48.7228 68.8273C48.7283 68.8245 48.7311 68.8218 48.7366 68.819C48.836 68.7635 48.9298 68.7053 49.0263 68.6444C49.0346 68.6388 49.0401 68.6361 49.0484 68.6305C49.5285 68.3201 49.9755 67.9653 50.3839 67.5689C50.3977 67.5551 50.4115 67.544 50.4252 67.5301C50.4942 67.4664 50.5577 67.3971 50.6239 67.3306C50.646 67.3056 50.6681 67.2835 50.6929 67.2585C50.7508 67.1948 50.8115 67.1282 50.8667 67.0617C50.8916 67.034 50.9191 67.0035 50.944 66.9758C50.9992 66.9093 51.0543 66.8427 51.1068 66.779C51.1316 66.7485 51.1564 66.718 51.1813 66.6875C51.2337 66.6182 51.2861 66.5489 51.3385 66.4824C51.3523 66.463 51.3661 66.4381 51.3827 66.4187C51.4848 66.2801 51.5813 66.136 51.6752 65.9918C51.6972 65.953 51.7221 65.917 51.7441 65.881C51.78 65.8228 51.8159 65.7618 51.849 65.698C51.8821 65.6481 51.9097 65.5982 51.9373 65.5456C51.9704 65.4874 52.0007 65.4264 52.0311 65.3682C52.0587 65.3128 52.089 65.2573 52.1194 65.1991C52.147 65.1409 52.1746 65.0855 52.2022 65.0273C52.2298 64.9635 52.2574 64.9025 52.2849 64.8416C52.3098 64.7861 52.3346 64.7279 52.3594 64.6725C52.387 64.6032 52.4146 64.5339 52.4422 64.4618C52.4615 64.412 52.4808 64.3621 52.5002 64.3094C52.536 64.2068 52.5691 64.1071 52.605 64.0017C52.616 63.9657 52.6271 63.9297 52.6381 63.8909C52.6712 63.78 52.7016 63.6719 52.7292 63.5638C52.7402 63.5167 52.7512 63.4696 52.7623 63.4252C52.7816 63.3421 52.8009 63.2561 52.8202 63.173C52.834 63.1231 52.8423 63.0677 52.8533 63.0178C52.8699 62.9374 52.8837 62.857 52.8947 62.7739C52.903 62.7212 52.9113 62.6685 52.9196 62.6159C52.9306 62.53 52.9416 62.4496 52.9499 62.3664C52.9554 62.311 52.9609 62.2611 52.9665 62.2084C52.9747 62.1197 52.9803 62.0255 52.9858 61.934C52.9885 61.8897 52.9913 61.8426 52.9941 61.7982C52.9996 61.6624 53.0051 61.5238 53.0051 61.3852C53.0051 56.6401 49.1753 52.7929 44.4516 52.7929C39.7251 52.7929 35.8926 56.6401 35.8926 61.3852C35.8926 66.1332 39.7223 69.9803 44.4461 69.9803C44.6723 69.9803 44.8958 69.9692 45.1166 69.9526C45.1414 69.9498 45.169 69.9471 45.1938 69.9443ZM41.8221 60.7699C41.8221 61.801 42.3877 62.7406 43.301 63.2201C43.4031 63.2728 43.461 63.3892 43.4472 63.5028C43.4335 63.6192 43.3507 63.7135 43.2348 63.7412C41.4027 64.1874 39.9155 65.5123 39.2533 67.2835C39.2119 67.3943 39.1043 67.4664 38.9912 67.4664C38.958 67.4664 38.9222 67.4608 38.8918 67.4498C38.7483 67.3943 38.6738 67.2336 38.7318 67.0867C39.383 65.3349 40.7736 63.9823 42.5119 63.3753C41.731 62.7489 41.262 61.801 41.262 60.7727C41.262 58.9378 42.7464 57.4466 44.573 57.4466C46.3996 57.4466 47.884 58.9378 47.884 60.7727C47.884 61.7982 47.4177 62.7489 46.6341 63.3753C48.3007 63.9602 49.6609 65.2435 50.3397 66.8954C50.3977 67.0395 50.3314 67.2058 50.188 67.264C50.0472 67.3223 49.8817 67.2557 49.8237 67.1116C49.1312 65.4319 47.6688 64.1736 45.9084 63.744C45.7953 63.7163 45.7098 63.622 45.696 63.5056C45.6822 63.392 45.7401 63.2783 45.8422 63.2229C46.7555 62.7434 47.3239 61.8038 47.3239 60.7727C47.3239 59.2482 46.0878 58.0065 44.5702 58.0065C43.0527 58.0065 41.8221 59.2455 41.8221 60.7699ZM84.0819 139.065H50.1935C47.7516 139.065 45.7705 141.058 45.7705 143.511V155.568C45.7705 155.649 45.7788 155.729 45.7815 155.807L44.6171 160.172C44.4461 160.812 45.0283 161.394 45.6656 161.223L50.1742 160.008C50.1797 160.008 50.188 160.008 50.1935 160.008H84.0819C86.5238 160.008 88.5049 158.018 88.5049 155.565V143.508C88.5049 141.058 86.5265 139.065 84.0819 139.065ZM70.6115 153.877H49.9038C49.752 153.877 49.6251 153.75 49.6251 153.598C49.6251 153.442 49.752 153.318 49.9038 153.318H70.6115C70.7633 153.318 70.8902 153.442 70.8902 153.598C70.8902 153.75 70.7633 153.877 70.6115 153.877ZM82.0097 149.82H49.9038C49.752 149.82 49.6251 149.692 49.6251 149.54C49.6251 149.385 49.752 149.26 49.9038 149.26H82.0097C82.1642 149.26 82.2884 149.385 82.2884 149.54C82.2884 149.692 82.1642 149.82 82.0097 149.82ZM82.0097 145.759H49.9038C49.752 145.759 49.6251 145.634 49.6251 145.479C49.6251 145.324 49.752 145.199 49.9038 145.199H82.0097C82.1642 145.199 82.2884 145.324 82.2884 145.479C82.2884 145.634 82.1642 145.759 82.0097 145.759Z" fill="#FFDE32"/>
</g>
</g>
</svg>
