<svg width="700" height="312" viewBox="0 0 700 312" fill="none" xmlns="http://www.w3.org/2000/svg">
<path d="M78.9357 1.84375L74.7873 79.9727L44.5959 82.7383L28.4631 40.9082L25.9279 83.5449H0.000183105L2.0744 1.84375L30.883 0.460938L50.8185 41.9453L51.7404 2.76562L78.9357 1.84375ZM145.601 37.9121C145.601 41.2539 145.371 44.5957 144.91 47.9375C138.341 48.36 131.811 49.0514 125.32 50.0117C118.828 50.9336 112.337 51.8555 105.845 52.7773C106.844 55.543 108.4 57.7516 110.512 59.4033C112.663 61.055 115.218 61.8809 118.175 61.8809C119.712 61.8809 121.383 61.5928 123.188 61.0166C125.032 60.4404 126.856 59.7298 128.662 58.8848C130.467 58.0013 132.196 57.0602 133.847 56.0615C135.499 55.0628 136.92 54.1602 138.111 53.3535L135.345 79.5117C133.847 80.6641 132.215 81.6436 130.448 82.4502C128.719 83.2568 126.914 83.9098 125.032 84.4092C123.15 84.9085 121.248 85.2734 119.328 85.5039C117.407 85.7344 115.525 85.8496 113.681 85.8496C109.878 85.8496 106.402 85.3311 103.252 84.2939C100.103 83.2568 97.2411 81.8164 94.6675 79.9727C92.1324 78.0905 89.9045 75.8818 87.9839 73.3467C86.0634 70.8115 84.4693 68.0459 83.2017 65.0498C81.9341 62.0537 80.9738 58.8848 80.3208 55.543C79.6679 52.2012 79.3414 48.821 79.3414 45.4023C79.3414 41.8301 79.6679 38.2578 80.3208 34.6855C80.9738 31.1133 81.9533 27.6755 83.2593 24.3721C84.6037 21.0687 86.2746 18.015 88.272 15.2109C90.3078 12.3685 92.6701 9.89095 95.3589 7.77832C98.0477 5.66569 101.082 4.014 104.462 2.82324C107.881 1.63249 111.645 1.03711 115.755 1.03711C119.174 1.03711 122.285 1.51725 125.089 2.47754C127.932 3.39941 130.448 4.7054 132.637 6.39551C134.865 8.0472 136.786 10.0254 138.399 12.3301C140.051 14.6348 141.395 17.1699 142.432 19.9355C143.508 22.6628 144.295 25.5628 144.794 28.6357C145.332 31.6702 145.601 34.7624 145.601 37.9121ZM122.554 34.916C122.554 33.8405 122.439 32.7458 122.209 31.6318C121.978 30.4795 121.594 29.4424 121.056 28.5205C120.557 27.5986 119.885 26.8496 119.04 26.2734C118.195 25.6589 117.138 25.3516 115.871 25.3516C114.334 25.3516 112.971 25.7741 111.78 26.6191C110.627 27.4258 109.629 28.4629 108.784 29.7305C107.939 30.9596 107.247 32.304 106.71 33.7637C106.172 35.2233 105.768 36.5677 105.5 37.7969L122.554 36.1836V34.916ZM208.06 3.22656L207.484 27.6562L190.314 28.3477L188.24 81.8164L163.926 83.084L161.736 29.6152L144.566 30.5371L145.258 3.3418L208.06 3.22656ZM313.041 4.49414L299.559 82.0469L266.832 82.7383L259.803 43.6738L252.774 79.7422L220.047 80.8945L206.449 6.79883L235.028 4.26367L240.789 49.7812L248.51 7.7207H270.981L279.969 50.3574L284.578 1.95898L313.041 4.49414ZM383.394 40.332C383.394 43.8275 382.991 47.2077 382.184 50.4727C381.378 53.6992 380.206 56.7337 378.67 59.5762C377.172 62.4186 375.328 65.0306 373.138 67.4121C370.987 69.7552 368.548 71.7718 365.821 73.4619C363.132 75.152 360.194 76.4772 357.005 77.4375C353.817 78.3594 350.437 78.8203 346.865 78.8203C343.408 78.8203 340.104 78.3786 336.955 77.4951C333.843 76.6117 330.924 75.3825 328.197 73.8076C325.47 72.1943 322.992 70.2738 320.764 68.0459C318.575 65.7796 316.693 63.2829 315.118 60.5557C313.581 57.79 312.371 54.8324 311.488 51.6826C310.643 48.5329 310.22 45.2487 310.22 41.8301C310.22 38.4883 310.624 35.2233 311.43 32.0352C312.237 28.8086 313.389 25.7741 314.887 22.9316C316.424 20.0892 318.268 17.4772 320.419 15.0957C322.57 12.7142 324.97 10.6592 327.621 8.93066C330.31 7.20215 333.21 5.85775 336.321 4.89746C339.432 3.93717 342.716 3.45703 346.173 3.45703C351.743 3.45703 356.813 4.32129 361.384 6.0498C365.994 7.77832 369.912 10.2559 373.138 13.4824C376.403 16.6706 378.919 20.5501 380.686 25.1211C382.491 29.6536 383.394 34.724 383.394 40.332ZM357.812 41.8301C357.812 40.1784 357.562 38.5843 357.063 37.0479C356.602 35.473 355.911 34.0902 354.989 32.8994C354.067 31.6702 352.915 30.6908 351.532 29.9609C350.187 29.1927 348.632 28.8086 346.865 28.8086C345.06 28.8086 343.446 29.1351 342.025 29.7881C340.604 30.4411 339.375 31.3438 338.338 32.4961C337.339 33.61 336.571 34.9352 336.033 36.4717C335.495 37.9697 335.226 39.5638 335.226 41.2539C335.226 42.8672 335.457 44.4805 335.918 46.0938C336.379 47.707 337.07 49.1667 337.992 50.4727C338.914 51.7786 340.047 52.835 341.391 53.6416C342.774 54.4482 344.368 54.8516 346.173 54.8516C347.979 54.8516 349.592 54.5059 351.013 53.8145C352.473 53.0846 353.702 52.1243 354.701 50.9336C355.7 49.7044 356.468 48.3024 357.005 46.7275C357.543 45.1527 357.812 43.5202 357.812 41.8301ZM452.595 28.9238C452.595 31.9199 452.326 34.6471 451.788 37.1055C451.289 39.5254 450.482 41.7533 449.368 43.7891C448.254 45.8249 446.814 47.707 445.047 49.4355C443.28 51.1641 441.148 52.8158 438.651 54.3906L452.364 78.8203L426.437 83.8906L417.563 59.3457L410.419 59.5762L409.382 83.5449H384.606C384.799 74.7871 384.971 66.0677 385.125 57.3867C385.317 48.7057 385.528 39.9863 385.759 31.2285C385.836 26.8112 385.912 22.4323 385.989 18.0918C386.066 13.7513 386.22 9.3724 386.45 4.95508C389.139 3.95638 391.789 3.13053 394.401 2.47754C397.013 1.82454 399.625 1.3252 402.237 0.979492C404.888 0.595378 407.557 0.345703 410.246 0.230469C412.973 0.0768229 415.758 0 418.601 0C422.979 0 427.205 0.614583 431.276 1.84375C435.386 3.03451 439.016 4.83984 442.166 7.25977C445.316 9.67969 447.832 12.695 449.714 16.3057C451.634 19.9163 452.595 24.1224 452.595 28.9238ZM426.782 30.7676C426.782 29.1543 426.552 27.6755 426.091 26.3311C425.668 24.9867 425.015 23.8343 424.132 22.874C423.287 21.8753 422.211 21.1071 420.905 20.5693C419.638 19.9932 418.14 19.7051 416.411 19.7051C415.643 19.7051 414.894 19.7627 414.164 19.8779C413.434 19.9548 412.724 20.0892 412.032 20.2812L411.11 41.7148H412.493C414.145 41.7148 415.816 41.5036 417.506 41.0811C419.234 40.6585 420.771 40.0055 422.115 39.1221C423.498 38.2386 424.612 37.1055 425.457 35.7227C426.34 34.3398 426.782 32.6882 426.782 30.7676ZM525.079 10.0254L499.613 40.332L523.005 79.9727L496.271 84.6973L478.755 60.959L477.833 83.5449L453.865 84.4668L455.708 1.95898L482.558 3.45703L480.484 27.1953L497.193 3.11133L525.079 10.0254ZM553.084 3.3418L549.05 81.8164L524.736 83.084L522.431 4.95508L553.084 3.3418ZM626.951 55.3125C626.951 59.653 626.894 63.9551 626.778 68.2188C626.702 72.444 626.567 76.7077 626.375 81.0098L593.188 80.4336C594.34 73.6348 595.339 66.8551 596.184 60.0947C597.029 53.2959 597.451 46.4395 597.451 39.5254C597.451 39.026 597.432 38.2194 597.394 37.1055C597.355 35.9915 597.278 34.7432 597.163 33.3604C597.048 31.9391 596.875 30.4987 596.645 29.0391C596.453 27.541 596.164 26.1774 595.78 24.9482C595.435 23.7191 594.993 22.7204 594.455 21.9521C593.956 21.1455 593.341 20.7422 592.611 20.7422C591.305 20.7422 590.191 21.1263 589.27 21.8945C588.386 22.6628 587.637 23.6615 587.023 24.8906C586.446 26.0814 585.985 27.4258 585.64 28.9238C585.294 30.4219 585.025 31.9199 584.833 33.418C584.679 34.916 584.564 36.3372 584.487 37.6816C584.449 38.9876 584.43 40.0632 584.43 40.9082C584.238 47.707 584.084 54.4674 583.969 61.1895C583.854 67.873 583.7 74.6335 583.508 81.4707L554.123 82.7383C554.891 69.179 555.621 55.6966 556.313 42.291C557.042 28.8854 557.619 15.403 558.041 1.84375L585.236 0.460938L585.006 9.67969C586.081 8.3737 587.234 7.14453 588.463 5.99219C589.731 4.83984 591.075 3.86035 592.496 3.05371C593.917 2.20866 595.415 1.55566 596.99 1.09473C598.604 0.595378 600.294 0.345703 602.061 0.345703C605.326 0.345703 608.187 0.883464 610.646 1.95898C613.104 3.03451 615.217 4.49414 616.983 6.33789C618.75 8.18164 620.229 10.3711 621.42 12.9062C622.611 15.403 623.571 18.0726 624.301 20.915C625.031 23.7575 625.588 26.7344 625.972 29.8457C626.356 32.9186 626.606 35.9531 626.721 38.9492C626.874 41.9453 626.951 44.8454 626.951 47.6494C626.951 50.4535 626.951 53.0078 626.951 55.3125ZM699.724 71.5605C697.919 73.8268 695.691 75.805 693.04 77.4951C690.39 79.1852 687.548 80.5872 684.513 81.7012C681.479 82.8151 678.367 83.6602 675.179 84.2363C671.991 84.7741 668.956 85.043 666.076 85.043C660.506 85.043 655.378 84.1019 650.692 82.2197C646.006 80.3376 641.953 77.7256 638.535 74.3838C635.154 71.0036 632.504 66.9896 630.583 62.3418C628.663 57.694 627.703 52.6237 627.703 47.1309C627.703 42.944 628.183 38.8724 629.143 34.916C630.103 30.9596 631.467 27.2529 633.234 23.7959C635.039 20.3389 637.229 17.1699 639.802 14.2891C642.376 11.4082 645.295 8.93066 648.56 6.85645C651.825 4.78223 655.397 3.18815 659.277 2.07422C663.195 0.921875 667.343 0.345703 671.722 0.345703C673.374 0.345703 675.141 0.422526 677.023 0.576172C678.905 0.691406 680.768 0.921875 682.612 1.26758C684.494 1.57487 686.318 2.0166 688.085 2.59277C689.852 3.16895 691.466 3.87956 692.925 4.72461L691.312 26.7344C689.161 25.9277 686.933 25.39 684.628 25.1211C682.362 24.8138 680.134 24.6602 677.945 24.6602C674.872 24.6602 671.991 25.0827 669.302 25.9277C666.652 26.7344 664.328 27.9443 662.331 29.5576C660.372 31.1709 658.816 33.1875 657.664 35.6074C656.511 38.0273 655.935 40.8314 655.935 44.0195C655.935 46.0169 656.204 47.9567 656.742 49.8389C657.279 51.6826 658.086 53.3343 659.162 54.7939C660.275 56.2152 661.639 57.3675 663.252 58.251C664.904 59.1344 666.805 59.5762 668.956 59.5762C670.416 59.5762 671.914 59.3841 673.451 59C675.025 58.6159 676.37 57.9629 677.484 57.041L677.714 52.5469L663.886 52.3164L664.578 35.0312C670.301 34.8392 676.024 34.6855 681.747 34.5703C687.471 34.4167 693.233 34.2246 699.033 33.9941L699.724 71.5605ZM232.202 113.461L226.901 198.043L200.628 199.195L200.858 154.6L188.989 190.553H178.849L169.745 158.402L169.63 195.738L143.011 196.545L144.163 116.918L173.778 115.766L185.532 153.908L201.204 113.461H232.202ZM304.629 153.332C304.629 156.827 304.226 160.208 303.419 163.473C302.613 166.699 301.441 169.734 299.905 172.576C298.407 175.419 296.563 178.031 294.373 180.412C292.222 182.755 289.783 184.772 287.056 186.462C284.367 188.152 281.429 189.477 278.241 190.438C275.052 191.359 271.672 191.82 268.1 191.82C264.643 191.82 261.339 191.379 258.19 190.495C255.078 189.612 252.159 188.382 249.432 186.808C246.705 185.194 244.227 183.274 241.999 181.046C239.81 178.78 237.928 176.283 236.353 173.556C234.816 170.79 233.606 167.832 232.723 164.683C231.878 161.533 231.455 158.249 231.455 154.83C231.455 151.488 231.859 148.223 232.665 145.035C233.472 141.809 234.624 138.774 236.122 135.932C237.659 133.089 239.503 130.477 241.654 128.096C243.805 125.714 246.205 123.659 248.856 121.931C251.545 120.202 254.445 118.858 257.556 117.897C260.667 116.937 263.951 116.457 267.408 116.457C272.978 116.457 278.048 117.321 282.619 119.05C287.229 120.778 291.147 123.256 294.373 126.482C297.638 129.671 300.154 133.55 301.921 138.121C303.727 142.654 304.629 147.724 304.629 153.332ZM279.047 154.83C279.047 153.178 278.797 151.584 278.298 150.048C277.837 148.473 277.146 147.09 276.224 145.899C275.302 144.67 274.15 143.691 272.767 142.961C271.422 142.193 269.867 141.809 268.1 141.809C266.295 141.809 264.681 142.135 263.26 142.788C261.839 143.441 260.61 144.344 259.573 145.496C258.574 146.61 257.806 147.935 257.268 149.472C256.73 150.97 256.461 152.564 256.461 154.254C256.461 155.867 256.692 157.48 257.153 159.094C257.614 160.707 258.305 162.167 259.227 163.473C260.149 164.779 261.282 165.835 262.626 166.642C264.009 167.448 265.603 167.852 267.408 167.852C269.214 167.852 270.827 167.506 272.248 166.814C273.708 166.085 274.937 165.124 275.936 163.934C276.935 162.704 277.703 161.302 278.241 159.728C278.778 158.153 279.047 156.52 279.047 154.83ZM371.583 151.719C371.583 157.096 370.891 161.917 369.508 166.181C368.126 170.444 366.186 174.228 363.689 177.531C361.231 180.796 358.292 183.581 354.874 185.886C351.455 188.19 347.71 190.092 343.638 191.59C339.567 193.049 335.226 194.125 330.617 194.816C326.046 195.508 321.34 195.854 316.501 195.854C314.695 195.854 312.928 195.815 311.2 195.738C309.471 195.623 307.704 195.469 305.899 195.277L307.512 120.26C311.738 118.915 316.078 117.974 320.534 117.437C325.028 116.86 329.484 116.572 333.901 116.572C339.394 116.572 344.445 117.34 349.054 118.877C353.664 120.413 357.639 122.68 360.981 125.676C364.323 128.633 366.916 132.302 368.759 136.681C370.642 141.021 371.583 146.034 371.583 151.719ZM332.403 173.844C334.708 173.498 336.801 172.807 338.683 171.77C340.604 170.694 342.255 169.388 343.638 167.852C345.021 166.277 346.077 164.51 346.807 162.551C347.575 160.553 347.96 158.441 347.96 156.213C347.96 154.023 347.729 151.988 347.268 150.105C346.807 148.185 346.058 146.533 345.021 145.15C343.984 143.729 342.62 142.615 340.93 141.809C339.24 140.964 337.166 140.503 334.708 140.426L332.403 173.844ZM441.532 116.342C439.804 129.863 438.325 143.326 437.096 156.731C435.867 170.099 434.695 183.562 433.581 197.121L409.958 198.85L410.995 189.977C410.227 190.86 409.324 191.628 408.287 192.281C407.288 192.934 406.213 193.472 405.061 193.895C403.908 194.279 402.717 194.567 401.488 194.759C400.259 194.912 399.088 194.97 397.974 194.932C395.362 194.893 392.903 194.394 390.599 193.434C388.294 192.435 386.181 191.129 384.261 189.516C382.34 187.864 380.612 185.963 379.075 183.812C377.539 181.622 376.233 179.337 375.157 176.955C374.12 174.535 373.313 172.077 372.737 169.58C372.2 167.083 371.931 164.663 371.931 162.32C371.931 158.863 371.988 155.291 372.104 151.604C372.257 147.878 372.507 144.152 372.853 140.426C373.198 136.7 373.64 133.012 374.178 129.363C374.754 125.714 375.465 122.219 376.31 118.877C380.996 119.107 385.701 119.319 390.426 119.511C395.15 119.703 399.856 119.76 404.542 119.684C403.659 123.025 402.775 126.386 401.892 129.767C401.047 133.108 400.278 136.489 399.587 139.907C398.896 143.287 398.339 146.687 397.916 150.105C397.493 153.524 397.282 156.981 397.282 160.477C397.282 161.283 397.321 162.436 397.397 163.934C397.474 165.432 397.666 166.91 397.974 168.37C398.319 169.83 398.819 171.117 399.472 172.23C400.163 173.306 401.123 173.844 402.353 173.844C403.812 173.844 405.118 173.229 406.271 172C407.423 170.732 408.441 169.042 409.324 166.93C410.208 164.817 410.957 162.378 411.571 159.612C412.224 156.847 412.762 153.966 413.185 150.97C413.646 147.935 414.01 144.882 414.279 141.809C414.548 138.736 414.74 135.855 414.855 133.166C415.009 130.439 415.105 128 415.144 125.849C415.22 123.698 415.259 122.027 415.259 120.836C415.259 120.068 415.24 119.319 415.201 118.589C415.163 117.859 415.105 117.11 415.028 116.342C417.525 116.419 420.003 116.476 422.461 116.515C424.919 116.553 427.397 116.572 429.894 116.572C431.814 116.572 433.735 116.572 435.655 116.572C437.614 116.534 439.573 116.457 441.532 116.342ZM493.16 166.93L490.74 192.512L442.226 196.314L444.07 114.037H474.031L469.767 166.93H493.16ZM557.808 150.912C557.808 154.254 557.578 157.596 557.117 160.938C550.549 161.36 544.019 162.051 537.527 163.012C531.036 163.934 524.544 164.855 518.052 165.777C519.051 168.543 520.607 170.752 522.719 172.403C524.871 174.055 527.425 174.881 530.383 174.881C531.919 174.881 533.59 174.593 535.395 174.017C537.239 173.44 539.064 172.73 540.869 171.885C542.674 171.001 544.403 170.06 546.054 169.062C547.706 168.063 549.127 167.16 550.318 166.354L547.552 192.512C546.054 193.664 544.422 194.644 542.655 195.45C540.927 196.257 539.121 196.91 537.239 197.409C535.357 197.909 533.455 198.273 531.535 198.504C529.614 198.734 527.732 198.85 525.888 198.85C522.086 198.85 518.609 198.331 515.46 197.294C512.31 196.257 509.448 194.816 506.875 192.973C504.34 191.09 502.112 188.882 500.191 186.347C498.271 183.812 496.677 181.046 495.409 178.05C494.141 175.054 493.181 171.885 492.528 168.543C491.875 165.201 491.549 161.821 491.549 158.402C491.549 154.83 491.875 151.258 492.528 147.686C493.181 144.113 494.161 140.675 495.467 137.372C496.811 134.069 498.482 131.015 500.479 128.211C502.515 125.368 504.877 122.891 507.566 120.778C510.255 118.666 513.289 117.014 516.67 115.823C520.088 114.632 523.853 114.037 527.963 114.037C531.381 114.037 534.493 114.517 537.297 115.478C540.139 116.399 542.655 117.705 544.844 119.396C547.072 121.047 548.993 123.025 550.606 125.33C552.258 127.635 553.602 130.17 554.639 132.936C555.715 135.663 556.502 138.563 557.002 141.636C557.539 144.67 557.808 147.762 557.808 150.912ZM534.761 147.916C534.761 146.84 534.646 145.746 534.416 144.632C534.185 143.479 533.801 142.442 533.263 141.521C532.764 140.599 532.092 139.85 531.247 139.273C530.402 138.659 529.345 138.352 528.078 138.352C526.541 138.352 525.178 138.774 523.987 139.619C522.835 140.426 521.836 141.463 520.991 142.73C520.146 143.96 519.455 145.304 518.917 146.764C518.379 148.223 517.976 149.568 517.707 150.797L534.761 149.184V147.916ZM223.705 257.344C223.705 261.07 223.148 264.373 222.034 267.254C220.92 270.135 219.383 272.67 217.424 274.859C215.504 277.01 213.238 278.835 210.626 280.333C208.014 281.793 205.21 283.003 202.213 283.963C199.256 284.885 196.183 285.576 192.995 286.037C189.807 286.46 186.676 286.69 183.603 286.729V311.273H156.754C156.754 306.895 156.754 302.631 156.754 298.482C156.792 294.334 156.811 290.224 156.811 286.152C156.85 282.042 156.869 277.913 156.869 273.765C156.907 269.616 156.946 265.333 156.984 260.916C157.061 256.23 157.08 251.544 157.042 246.857C157.003 242.171 157.099 237.447 157.33 232.684C162.246 231.224 167.163 230.129 172.08 229.399C176.996 228.67 182.067 228.305 187.291 228.305C190.248 228.305 193.206 228.554 196.164 229.054C199.121 229.515 201.945 230.264 204.633 231.301C207.361 232.338 209.877 233.644 212.181 235.219C214.524 236.755 216.541 238.599 218.231 240.75C219.921 242.901 221.246 245.359 222.207 248.125C223.205 250.891 223.705 253.964 223.705 257.344ZM198.123 259.303C198.123 256.806 197.354 254.866 195.818 253.483C194.32 252.062 192.361 251.352 189.941 251.352C189.134 251.352 188.289 251.428 187.406 251.582C186.561 251.697 185.754 251.851 184.986 252.043L184.295 268.867C184.832 268.944 185.351 268.982 185.85 268.982C186.35 268.982 186.868 268.982 187.406 268.982C188.789 268.982 190.114 268.752 191.381 268.291C192.687 267.83 193.84 267.177 194.838 266.332C195.837 265.449 196.625 264.431 197.201 263.278C197.815 262.088 198.123 260.762 198.123 259.303ZM291.983 305.512L263.405 309.199L259.948 296.178H246.811L243.931 309.199L214.546 306.318L237.477 229.572L269.513 227.959L291.983 305.512ZM257.874 278.547L253.495 258.496L249.231 278.547H257.874ZM349.891 280.967C349.891 286.229 348.969 290.781 347.125 294.622C345.32 298.425 342.823 301.575 339.635 304.071C336.485 306.53 332.779 308.354 328.515 309.545C324.29 310.697 319.738 311.273 314.86 311.273C312.978 311.273 310.903 311.024 308.637 310.524C306.409 310.025 304.143 309.41 301.838 308.681C299.534 307.912 297.306 307.106 295.155 306.261C293.042 305.377 291.16 304.551 289.508 303.783L292.043 281.197C295.308 283.156 298.919 284.654 302.875 285.691C306.87 286.69 310.788 287.189 314.629 287.189C315.359 287.189 316.242 287.17 317.28 287.132C318.317 287.055 319.296 286.882 320.218 286.613C321.178 286.306 321.985 285.864 322.638 285.288C323.291 284.712 323.617 283.886 323.617 282.811C323.617 282.081 323.387 281.466 322.926 280.967C322.465 280.429 321.87 280.007 321.14 279.699C320.41 279.354 319.584 279.104 318.662 278.95C317.741 278.758 316.838 278.624 315.954 278.547C315.071 278.47 314.245 278.432 313.477 278.432C312.709 278.432 312.094 278.432 311.633 278.432C308.33 278.432 305.314 277.913 302.587 276.876C299.898 275.839 297.575 274.379 295.616 272.497C293.695 270.576 292.197 268.272 291.121 265.583C290.046 262.856 289.508 259.84 289.508 256.537C289.508 252.005 290.411 247.952 292.216 244.38C294.06 240.769 296.499 237.715 299.534 235.219C302.606 232.684 306.121 230.744 310.077 229.399C314.034 228.055 318.125 227.383 322.35 227.383C324.232 227.383 326.172 227.46 328.169 227.613C330.167 227.729 332.145 227.959 334.104 228.305C336.101 228.65 338.041 229.092 339.923 229.63C341.805 230.168 343.591 230.84 345.282 231.646L343.092 255.039C340.48 254.156 337.734 253.426 334.853 252.85C332.01 252.235 329.226 251.928 326.498 251.928C325.999 251.928 325.346 251.947 324.539 251.985C323.771 251.985 322.945 252.043 322.062 252.158C321.217 252.235 320.353 252.369 319.469 252.562C318.586 252.754 317.798 253.022 317.107 253.368C316.415 253.675 315.858 254.098 315.436 254.636C315.013 255.174 314.821 255.807 314.86 256.537C314.898 257.382 315.205 258.035 315.782 258.496C316.396 258.957 317.164 259.303 318.086 259.533C319.047 259.725 320.084 259.821 321.198 259.821C322.35 259.821 323.483 259.802 324.597 259.764C325.711 259.687 326.748 259.629 327.708 259.591C328.669 259.514 329.456 259.495 330.071 259.533C333.144 259.725 335.909 260.378 338.367 261.492C340.826 262.606 342.9 264.085 344.59 265.929C346.319 267.772 347.625 269.981 348.508 272.555C349.43 275.09 349.891 277.894 349.891 280.967ZM409.758 280.967C409.758 286.229 408.836 290.781 406.992 294.622C405.187 298.425 402.69 301.575 399.502 304.071C396.352 306.53 392.645 308.354 388.382 309.545C384.156 310.697 379.605 311.273 374.726 311.273C372.844 311.273 370.77 311.024 368.504 310.524C366.276 310.025 364.009 309.41 361.705 308.681C359.4 307.912 357.172 307.106 355.021 306.261C352.909 305.377 351.026 304.551 349.375 303.783L351.91 281.197C355.175 283.156 358.786 284.654 362.742 285.691C366.737 286.69 370.655 287.189 374.496 287.189C375.226 287.189 376.109 287.17 377.146 287.132C378.183 287.055 379.163 286.882 380.085 286.613C381.045 286.306 381.852 285.864 382.505 285.288C383.158 284.712 383.484 283.886 383.484 282.811C383.484 282.081 383.254 281.466 382.793 280.967C382.332 280.429 381.736 280.007 381.007 279.699C380.277 279.354 379.451 279.104 378.529 278.95C377.607 278.758 376.704 278.624 375.821 278.547C374.938 278.47 374.112 278.432 373.343 278.432C372.575 278.432 371.961 278.432 371.5 278.432C368.196 278.432 365.181 277.913 362.454 276.876C359.765 275.839 357.441 274.379 355.482 272.497C353.562 270.576 352.063 268.272 350.988 265.583C349.912 262.856 349.375 259.84 349.375 256.537C349.375 252.005 350.277 247.952 352.083 244.38C353.926 240.769 356.366 237.715 359.4 235.219C362.473 232.684 365.988 230.744 369.944 229.399C373.9 228.055 377.991 227.383 382.216 227.383C384.099 227.383 386.038 227.46 388.036 227.613C390.033 227.729 392.011 227.959 393.97 228.305C395.968 228.65 397.908 229.092 399.79 229.63C401.672 230.168 403.458 230.84 405.148 231.646L402.959 255.039C400.347 254.156 397.6 253.426 394.719 252.85C391.877 252.235 389.092 251.928 386.365 251.928C385.866 251.928 385.213 251.947 384.406 251.985C383.638 251.985 382.812 252.043 381.928 252.158C381.083 252.235 380.219 252.369 379.336 252.562C378.452 252.754 377.665 253.022 376.973 253.368C376.282 253.675 375.725 254.098 375.302 254.636C374.88 255.174 374.688 255.807 374.726 256.537C374.765 257.382 375.072 258.035 375.648 258.496C376.263 258.957 377.031 259.303 377.953 259.533C378.913 259.725 379.95 259.821 381.064 259.821C382.216 259.821 383.35 259.802 384.464 259.764C385.577 259.687 386.615 259.629 387.575 259.591C388.535 259.514 389.323 259.495 389.937 259.533C393.01 259.725 395.776 260.378 398.234 261.492C400.692 262.606 402.767 264.085 404.457 265.929C406.185 267.772 407.491 269.981 408.375 272.555C409.297 275.09 409.758 277.894 409.758 280.967ZM475.443 263.912C475.443 267.254 475.213 270.596 474.752 273.938C468.184 274.36 461.654 275.051 455.162 276.012C448.671 276.934 442.179 277.855 435.688 278.777C436.686 281.543 438.242 283.752 440.355 285.403C442.506 287.055 445.06 287.881 448.018 287.881C449.554 287.881 451.225 287.593 453.03 287.017C454.874 286.44 456.699 285.73 458.504 284.885C460.309 284.001 462.038 283.06 463.689 282.062C465.341 281.063 466.762 280.16 467.953 279.354L465.188 305.512C463.689 306.664 462.057 307.644 460.29 308.45C458.562 309.257 456.756 309.91 454.874 310.409C452.992 310.909 451.091 311.273 449.17 311.504C447.249 311.734 445.367 311.85 443.523 311.85C439.721 311.85 436.244 311.331 433.095 310.294C429.945 309.257 427.083 307.816 424.51 305.973C421.975 304.09 419.747 301.882 417.826 299.347C415.906 296.812 414.312 294.046 413.044 291.05C411.776 288.054 410.816 284.885 410.163 281.543C409.51 278.201 409.184 274.821 409.184 271.402C409.184 267.83 409.51 264.258 410.163 260.686C410.816 257.113 411.796 253.675 413.102 250.372C414.446 247.069 416.117 244.015 418.114 241.211C420.15 238.368 422.512 235.891 425.201 233.778C427.89 231.666 430.925 230.014 434.305 228.823C437.723 227.632 441.488 227.037 445.598 227.037C449.016 227.037 452.128 227.517 454.932 228.478C457.774 229.399 460.29 230.705 462.48 232.396C464.707 234.047 466.628 236.025 468.241 238.33C469.893 240.635 471.237 243.17 472.274 245.936C473.35 248.663 474.137 251.563 474.637 254.636C475.175 257.67 475.443 260.762 475.443 263.912ZM452.397 260.916C452.397 259.84 452.281 258.746 452.051 257.632C451.82 256.479 451.436 255.442 450.898 254.521C450.399 253.599 449.727 252.85 448.882 252.273C448.037 251.659 446.98 251.352 445.713 251.352C444.176 251.352 442.813 251.774 441.622 252.619C440.47 253.426 439.471 254.463 438.626 255.73C437.781 256.96 437.09 258.304 436.552 259.764C436.014 261.223 435.611 262.568 435.342 263.797L452.397 262.184V260.916ZM542.166 264.719C542.166 270.096 541.475 274.917 540.092 279.181C538.709 283.444 536.77 287.228 534.273 290.531C531.815 293.796 528.876 296.581 525.457 298.886C522.039 301.19 518.294 303.092 514.222 304.59C510.15 306.049 505.81 307.125 501.201 307.816C496.63 308.508 491.924 308.854 487.084 308.854C485.279 308.854 483.512 308.815 481.784 308.738C480.055 308.623 478.288 308.469 476.483 308.277L478.096 233.26C482.321 231.915 486.662 230.974 491.118 230.437C495.612 229.86 500.067 229.572 504.485 229.572C509.978 229.572 515.029 230.34 519.638 231.877C524.247 233.413 528.223 235.68 531.565 238.676C534.907 241.633 537.499 245.302 539.343 249.681C541.225 254.021 542.166 259.034 542.166 264.719ZM502.987 286.844C505.291 286.498 507.385 285.807 509.267 284.77C511.188 283.694 512.839 282.388 514.222 280.852C515.605 279.277 516.661 277.51 517.391 275.551C518.159 273.553 518.543 271.441 518.543 269.213C518.543 267.023 518.313 264.988 517.852 263.105C517.391 261.185 516.642 259.533 515.605 258.15C514.568 256.729 513.204 255.615 511.514 254.809C509.824 253.964 507.75 253.503 505.291 253.426L502.987 286.844Z" fill="black"/>
</svg>
