<svg width="423" height="298" viewBox="0 0 423 298" fill="none" xmlns="http://www.w3.org/2000/svg">
<path d="M43.5364 223.601L71.9948 117.585C69.5573 117.179 67.1406 116.71 64.8125 116.168L38.6927 222.371C38.3125 223.944 39.5052 225.455 41.1198 225.455C42.2552 225.455 43.2448 224.694 43.5364 223.601Z" fill="black"/>
<path d="M187.516 219.809L169.563 114.908C167.609 115.345 165.37 115.767 162.781 116.168L182.719 220.679C182.938 221.83 183.943 222.658 185.115 222.658C186.625 222.658 187.771 221.293 187.516 219.809Z" fill="black"/>
<path d="M114.844 211.449L116.771 120.757C115.432 120.824 114.13 120.876 112.87 120.908C111.656 120.939 110.484 120.955 109.354 120.949V234.168C109.354 235.543 110.474 236.663 111.849 236.663C113.208 236.663 114.318 235.58 114.344 234.22L114.844 211.449Z" fill="black"/>
<path d="M106.375 17.814C113.599 36.9911 125.552 82.7775 130.823 92.8713C136.094 102.97 163.927 100.444 172.646 100.897C176.24 101.085 179.214 102.569 181.229 104.439C184.094 107.095 185.031 110.528 183.099 112.085C180.922 113.835 177.766 115.83 169.927 117.585C167.974 118.022 165.734 118.444 163.146 118.845C160.406 119.272 157.281 119.668 153.698 120.033C141.417 121.283 130.016 122.611 120.354 123.257C119.13 123.34 117.938 123.408 116.771 123.465C115.432 123.533 114.13 123.585 112.87 123.616C111.662 123.647 110.484 123.663 109.354 123.658C107.229 123.647 105.245 123.564 103.427 123.403C97.6824 122.892 83.9324 122.439 70.9584 120.267C68.5157 119.856 66.099 119.387 63.7709 118.845C53.5365 116.465 44.9688 112.679 43.0417 106.491C38.3595 91.4129 41.6147 29.7619 43.0417 15.7931C44.474 1.82438 59.1251 0.022299 74.6876 0.022299C90.2553 0.022299 99.1459 -1.36833 106.375 17.814Z" fill="black"/>
<path d="M114.912 114.048C129.146 117.585 167.995 112.08 181.229 104.439C184.094 107.095 185.031 110.527 183.099 112.08C180.922 113.835 177.766 115.83 169.927 117.585C167.974 118.022 165.734 118.444 163.146 118.845C160.406 119.267 157.281 119.668 153.698 120.033C141.417 121.283 130.016 122.611 120.354 123.257C119.13 123.335 117.938 123.408 116.771 123.465C115.432 123.533 114.13 123.585 112.87 123.616C111.662 123.647 110.484 123.663 109.354 123.658C107.229 123.647 105.245 123.564 103.427 123.402C97.6824 122.892 83.9324 122.439 70.9584 120.267C68.5157 119.856 66.099 119.387 63.7709 118.845C53.5365 116.465 44.9688 112.679 43.0417 106.491C38.3595 91.4129 41.6147 29.7618 43.0417 15.7931C43.0417 15.7931 43.7292 32.7306 45.1772 51.0691C46.6251 69.4077 48.3126 99.6577 54.5834 106.491C60.8595 113.324 100.672 110.507 114.912 114.048Z" fill="black"/>
<path d="M106.375 17.814C113.599 36.9911 125.552 82.7775 130.823 92.8713C136.094 102.97 163.927 100.444 172.646 100.897C176.24 101.085 179.214 102.569 181.229 104.439C184.094 107.095 185.031 110.528 183.099 112.085C180.922 113.835 177.766 115.83 169.927 117.585C167.974 118.022 165.734 118.444 163.146 118.845C160.406 119.272 157.281 119.668 153.698 120.033C141.417 121.283 130.016 122.611 120.354 123.257C119.13 123.34 117.938 123.408 116.771 123.465C115.432 123.533 114.13 123.585 112.87 123.616C111.662 123.647 110.484 123.663 109.354 123.658C107.229 123.647 105.245 123.564 103.427 123.403C97.6824 122.892 83.9324 122.439 70.9584 120.267C68.5157 119.856 66.099 119.387 63.7709 118.845C53.5365 116.465 44.9688 112.679 43.0417 106.491C38.3595 91.4129 41.6147 29.7619 43.0417 15.7931C44.474 1.82438 59.1251 0.022299 74.6876 0.022299C90.2553 0.022299 99.1459 -1.36833 106.375 17.814Z" fill="black"/>
<path d="M378.693 223.601L350.229 117.585C352.672 117.179 355.088 116.71 357.417 116.168L383.531 222.371C383.911 223.944 382.724 225.455 381.104 225.455C379.974 225.455 378.979 224.694 378.693 223.601Z" fill="black"/>
<path d="M234.713 219.809L252.667 114.908C254.614 115.345 256.854 115.767 259.443 116.168L239.51 220.679C239.286 221.83 238.281 222.658 237.114 222.658C235.604 222.658 234.458 221.293 234.713 219.809Z" fill="black"/>
<path d="M307.386 211.449L305.458 120.757C306.797 120.824 308.099 120.876 309.354 120.908C310.568 120.939 311.74 120.955 312.875 120.949V234.168C312.875 235.543 311.755 236.663 310.38 236.663C309.021 236.663 307.912 235.58 307.88 234.22L307.386 211.449Z" fill="black"/>
<path d="M315.854 17.814C308.625 36.9911 296.677 82.7775 291.406 92.8713C286.135 102.97 258.302 100.444 249.583 100.897C245.984 101.085 243.015 102.569 241 104.439C238.13 107.095 237.193 110.528 239.13 112.085C241.307 113.835 244.463 115.83 252.302 117.585C254.255 118.022 256.495 118.444 259.078 118.845C261.818 119.272 264.948 119.668 268.531 120.033C280.812 121.283 292.213 122.611 301.875 123.257C303.094 123.34 304.292 123.408 305.458 123.465C306.797 123.533 308.099 123.585 309.354 123.616C310.568 123.647 311.739 123.663 312.875 123.658C315 123.647 316.979 123.564 318.802 123.403C324.542 122.892 338.297 122.439 351.271 120.267C353.713 119.856 356.125 119.387 358.458 118.845C368.693 116.465 377.26 112.679 379.182 106.491C383.87 91.4129 380.614 29.7619 379.182 15.7931C377.755 1.82438 363.104 0.022299 347.536 0.022299C331.974 0.022299 323.078 -1.36833 315.854 17.814Z" fill="black"/>
<path d="M315.854 17.814C308.625 36.9911 296.677 82.7775 291.406 92.8713C286.135 102.97 258.302 100.444 249.583 100.897C245.984 101.085 243.015 102.569 241 104.439C238.13 107.095 237.193 110.528 239.13 112.085C241.307 113.835 244.463 115.83 252.302 117.585C254.255 118.022 256.495 118.444 259.078 118.845C261.818 119.272 264.948 119.668 268.531 120.033C280.812 121.283 292.213 122.611 301.875 123.257C303.094 123.34 304.292 123.408 305.458 123.465C306.797 123.533 308.099 123.585 309.354 123.616C310.568 123.647 311.739 123.663 312.875 123.658C315 123.647 316.979 123.564 318.802 123.403C324.542 122.892 338.297 122.439 351.271 120.267C353.713 119.856 356.125 119.387 358.458 118.845C368.693 116.465 377.26 112.679 379.182 106.491C383.87 91.4129 380.614 29.7619 379.182 15.7931C377.755 1.82438 363.104 0.022299 347.536 0.022299C331.974 0.022299 323.078 -1.36833 315.854 17.814Z" fill="black"/>
<path d="M307.318 114.048C293.083 117.585 254.229 112.08 241 104.439C238.13 107.095 237.193 110.527 239.13 112.08C241.307 113.835 244.463 115.83 252.302 117.585C254.255 118.022 256.495 118.444 259.078 118.845C261.818 119.267 264.948 119.668 268.531 120.033C280.812 121.283 292.213 122.611 301.875 123.257C303.094 123.335 304.292 123.408 305.458 123.465C306.797 123.533 308.099 123.585 309.354 123.616C310.568 123.647 311.739 123.663 312.875 123.658C315 123.647 316.979 123.564 318.802 123.402C324.542 122.892 338.297 122.439 351.271 120.267C353.713 119.856 356.125 119.387 358.458 118.845C368.693 116.465 377.26 112.679 379.182 106.491C383.87 91.4129 380.614 29.7618 379.182 15.7931C379.182 15.7931 378.5 32.7306 377.052 51.0691C375.604 69.4077 373.917 99.6577 367.64 106.491C361.37 113.324 321.552 110.507 307.318 114.048Z" fill="black"/>
<path d="M211.115 236.772C193.724 236.772 138.521 244.705 138.521 250.418V253.439C138.521 259.152 171.021 263.788 211.115 263.788C251.214 263.788 283.714 259.152 283.714 253.439V250.418C283.714 244.705 228.511 236.772 211.115 236.772Z" fill="black"/>
<path d="M283.714 250.418C283.714 256.132 251.214 260.767 211.115 260.767C171.021 260.767 138.521 256.132 138.521 250.418V253.439C138.521 259.153 171.021 263.788 211.115 263.788C251.214 263.788 283.714 259.153 283.714 253.439V250.418Z" fill="black"/>
<path d="M203.141 150.929C202.396 94.7046 196.698 61.465 196.698 61.465H225.537C225.537 61.465 219.839 94.7046 219.094 150.929C218.344 207.147 221.516 238.663 233.927 242.746C243.74 246.142 224.333 250.283 211.115 250.283C197.901 250.283 178.495 246.142 188.307 242.746C200.719 238.663 203.891 207.147 203.141 150.929Z" fill="black"/>
<path fill-rule="evenodd" clip-rule="evenodd" d="M225.537 61.465H211.115V250.283C224.333 250.283 243.74 246.142 233.927 242.746C221.516 238.663 218.344 207.147 219.094 150.929C219.839 94.7046 225.537 61.465 225.537 61.465Z" fill="black"/>
<path d="M211.115 40.9858C134.229 40.9858 71.896 46.3765 71.896 53.0223V56.5327C71.896 63.1838 134.229 68.5692 211.115 68.5692C288.005 68.5692 350.339 63.1838 350.339 56.5327V53.0223C350.339 46.3765 288.005 40.9858 211.115 40.9858Z" fill="black"/>
<path d="M350.339 53.1056C350.339 59.7566 288.005 65.142 211.115 65.142C134.229 65.142 71.896 59.7566 71.896 53.1056V56.6212C71.896 63.267 134.229 68.6577 211.115 68.6577C288.005 68.6577 350.339 63.267 350.339 56.6212V53.1056Z" fill="black"/>
<path d="M160.469 143.397L179.328 272.303C179.583 274.033 178.245 275.58 176.495 275.58C175.094 275.58 173.901 274.569 173.672 273.184L152.693 144.751C155.625 144.283 158.203 143.835 160.469 143.397Z" fill="black"/>
<mask id="mask0_831_48926" style="mask-type:luminance" maskUnits="userSpaceOnUse" x="83" y="149" width="20" height="149">
<path d="M83.5884 149.793H102.255V297.616H83.5884V149.793Z" fill="white"/>
</mask>
<g mask="url(#mask0_831_48926)">
<path d="M92.4684 151.361C95.4684 151.267 98.458 151.137 101.442 150.97L100.557 162.199L93.7913 247.882L89.807 294.522C89.682 296.085 88.3799 297.288 86.8122 297.288C85.083 297.288 83.7132 295.835 83.8122 294.111L92.4684 151.361Z" fill="black"/>
</g>
<mask id="mask1_831_48926" style="mask-type:luminance" maskUnits="userSpaceOnUse" x="0" y="139" width="45" height="141">
<path d="M0 139.126H44.9219V279.126H0V139.126Z" fill="white"/>
</mask>
<g mask="url(#mask1_831_48926)">
<path d="M43.8595 143.397L5.41161 276.543C5.10432 277.611 4.13036 278.35 3.01578 278.35C1.38557 278.35 0.192859 276.803 0.609526 275.225L36.5679 139.694C38.9272 141.048 41.3752 142.288 43.8595 143.397Z" fill="black"/>
</g>
<path d="M150.719 130.423C169.255 131.611 176.698 132.647 176.875 138.147C176.984 141.444 176.156 143.804 160.812 146.762C158.547 147.199 155.969 147.647 153.036 148.116C151.646 148.335 150.172 148.564 148.614 148.793C131.927 151.252 116.417 153.127 100.896 153.996C97.9114 154.163 94.9218 154.298 91.9218 154.387C85.1718 154.59 78.3697 154.59 71.4322 154.35C62.4322 154.043 52.1249 151.585 42.5051 147.278C40.0207 146.163 37.578 144.929 35.2135 143.574C20.2968 135.022 8.57803 121.778 8.70303 105.194C8.88532 81.1578 7.62491 49.6994 7.02595 34.8244V34.8088C6.89574 31.5224 6.79678 29.0484 6.74991 27.6421C6.67178 25.1317 6.64574 22.2151 7.15095 19.4338C8.21345 13.6109 11.6197 8.38173 21.8072 8.67339C33.927 9.01714 40.2187 9.92339 50.5155 11.4078C53.0103 11.7671 55.7395 12.1578 58.8437 12.5849C73.5155 14.6057 78.2812 25.9494 86.2499 44.9338C86.9218 46.5432 87.6197 48.2046 88.3489 49.9234C91.3645 57.0171 94.4426 66.788 97.3645 77.0901C99.953 86.2099 102.422 95.7515 104.614 104.225C106.786 112.632 108.693 119.996 110.172 124.85C110.172 124.85 132.177 129.241 150.719 130.423Z" fill="black"/>
<path d="M176.875 138.147C172.255 134.882 158.49 136.475 141.37 140.522C124.25 144.574 115.682 138.892 111.672 129.241C111.24 128.194 110.734 126.705 110.172 124.85C110.172 124.85 132.177 129.241 150.719 130.423C169.255 131.611 176.698 132.647 176.875 138.147Z" fill="black"/>
<path d="M7.15088 19.4338C8.21338 13.6109 11.6196 8.38173 21.8071 8.67339C33.9269 9.01714 40.2186 9.92339 50.5155 11.4078C53.0103 11.7671 55.7394 12.1578 58.8436 12.5849C73.5155 14.6057 78.2811 25.9494 86.2498 44.9338C86.9217 46.5432 87.6196 48.2046 88.3488 49.9234C91.3644 57.0171 94.4425 66.788 97.3644 77.0901C97.3644 77.0901 79.1248 25.2724 64.3957 19.4338C49.6665 13.5953 23.3123 11.814 17.2811 12.5849C11.2498 13.3557 7.15088 19.4338 7.15088 19.4338Z" fill="black"/>
<path d="M262.484 143.397L243.625 272.303C243.37 274.033 244.708 275.58 246.453 275.58C247.854 275.58 249.052 274.569 249.281 273.184L270.26 144.751C267.323 144.283 264.75 143.835 262.484 143.397Z" fill="black"/>
<mask id="mask2_831_48926" style="mask-type:luminance" maskUnits="userSpaceOnUse" x="320" y="149" width="20" height="149">
<path d="M320.922 149.793H339.589V297.616H320.922V149.793Z" fill="white"/>
</mask>
<g mask="url(#mask2_831_48926)">
<path d="M330.479 151.361C327.484 151.267 324.495 151.137 321.51 150.97L322.396 162.199L329.156 247.882L333.146 294.522C333.271 296.085 334.573 297.288 336.14 297.288C337.87 297.288 339.239 295.835 339.14 294.111L330.479 151.361Z" fill="black"/>
</g>
<mask id="mask3_831_48926" style="mask-type:luminance" maskUnits="userSpaceOnUse" x="378" y="139" width="45" height="141">
<path d="M378.255 139.126H423V279.126H378.255V139.126Z" fill="white"/>
</mask>
<g mask="url(#mask3_831_48926)">
<path d="M379.089 143.397L417.542 276.543C417.849 277.611 418.823 278.35 419.938 278.35C421.568 278.35 422.761 276.803 422.344 275.225L386.386 139.694C384.021 141.048 381.578 142.288 379.089 143.397Z" fill="black"/>
</g>
<path d="M272.235 130.423C253.698 131.611 246.255 132.647 246.073 138.147C245.969 141.444 246.797 143.804 262.141 146.762C264.401 147.199 266.979 147.647 269.917 148.116C271.307 148.335 272.781 148.564 274.334 148.793C291.026 151.252 306.531 153.127 322.057 153.996C325.042 154.163 328.031 154.298 331.026 154.387C337.781 154.59 344.578 154.59 351.521 154.35C360.521 154.043 370.823 151.585 380.443 147.278C382.932 146.163 385.375 144.929 387.74 143.574C402.656 135.022 414.375 121.778 414.25 105.194C414.068 81.1578 415.328 49.6994 415.927 34.8244V34.8088C416.057 31.5224 416.156 29.0484 416.203 27.6421C416.281 25.1317 416.307 22.2151 415.802 19.4338C414.74 13.6109 411.334 8.38173 401.146 8.67339C389.026 9.01714 382.735 9.92339 372.438 11.4078C369.943 11.7671 367.214 12.1578 364.11 12.5849C349.432 14.6057 344.672 25.9494 336.703 44.9338C336.026 46.5432 335.328 48.2046 334.599 49.9234C331.589 57.0171 328.511 66.788 325.584 77.0901C322.995 86.2099 320.531 95.7515 318.339 104.225C316.167 112.632 314.261 119.996 312.781 124.85C312.781 124.85 290.771 129.241 272.235 130.423Z" fill="black"/>
<path d="M246.073 138.147C250.693 134.882 264.458 136.475 281.578 140.522C298.698 144.574 307.271 138.892 311.276 129.241C311.713 128.194 312.213 126.705 312.781 124.85C312.781 124.85 290.771 129.241 272.234 130.423C253.698 131.611 246.255 132.647 246.073 138.147Z" fill="black"/>
<path d="M415.802 19.4338C414.74 13.6109 411.333 8.38173 401.146 8.67339C389.026 9.01714 382.735 9.92339 372.438 11.4078C369.943 11.7671 367.214 12.1578 364.11 12.5849C349.432 14.6057 344.672 25.9494 336.703 44.9338C336.031 46.5432 335.328 48.2046 334.599 49.9234C331.589 57.0171 328.511 66.788 325.583 77.0901C325.583 77.0901 343.828 25.2724 358.557 19.4338C373.287 13.5953 399.641 11.814 405.672 12.5849C411.698 13.3557 415.802 19.4338 415.802 19.4338Z" fill="black"/>
</svg>
