<svg width="864" height="499" viewBox="0 0 864 499" fill="none" xmlns="http://www.w3.org/2000/svg">
<path d="M422.406 313.953H263.359V294.099C263.359 293.318 263.427 292.542 263.563 291.771C263.703 291.005 263.906 290.25 264.172 289.516C264.443 288.781 264.771 288.078 265.167 287.401C265.557 286.724 266.005 286.089 266.51 285.49C267.016 284.896 267.568 284.349 268.172 283.849C268.771 283.349 269.411 282.906 270.094 282.516C270.771 282.13 271.479 281.807 272.219 281.542C272.953 281.281 273.708 281.083 274.479 280.953C297.365 277.104 320.411 275.198 343.62 275.234C366.828 275.276 389.87 277.26 412.74 281.193C413.411 281.302 414.063 281.474 414.703 281.703C415.339 281.927 415.953 282.214 416.542 282.547C417.13 282.88 417.688 283.266 418.208 283.698C418.729 284.13 419.208 284.609 419.646 285.125C420.083 285.641 420.474 286.193 420.813 286.776C421.156 287.365 421.443 287.974 421.677 288.609C421.911 289.245 422.089 289.896 422.208 290.563C422.328 291.229 422.385 291.906 422.391 292.583L422.406 313.953Z" fill="#AEA82E"/>
<path d="M417.485 292.583H268.298C268.912 231.26 265.173 167.078 256.652 100.297C255.188 88.8177 263.449 78.75 274.381 78.75H415.631C424.261 78.75 430.766 86.7708 429.48 95.8385C420.35 160.125 415.855 226.078 417.485 292.583Z" fill="#AEA82E"/>
<path d="M612.933 313.953H453.886V294.099C453.886 293.318 453.953 292.542 454.089 291.771C454.224 291.005 454.427 290.25 454.698 289.516C454.964 288.781 455.297 288.078 455.688 287.401C456.084 286.724 456.532 286.089 457.037 285.49C457.542 284.896 458.094 284.344 458.698 283.844C459.297 283.344 459.938 282.901 460.62 282.516C461.297 282.13 462.006 281.807 462.745 281.542C463.479 281.281 464.235 281.083 465.006 280.953C487.891 277.104 510.938 275.198 534.146 275.234C557.354 275.276 580.396 277.26 603.266 281.193C603.938 281.302 604.589 281.474 605.229 281.703C605.865 281.927 606.479 282.208 607.068 282.547C607.657 282.88 608.214 283.266 608.735 283.698C609.256 284.13 609.74 284.604 610.177 285.12C610.615 285.641 611.006 286.193 611.344 286.776C611.688 287.359 611.974 287.974 612.209 288.609C612.443 289.245 612.62 289.896 612.74 290.563C612.86 291.229 612.917 291.901 612.917 292.583L612.933 313.953Z" fill="#AEA82E"/>
<path d="M608.011 292.583H458.823C459.438 231.26 455.693 167.078 447.172 100.297C445.714 88.8177 453.969 78.75 464.901 78.75H606.146C614.782 78.75 621.287 86.7708 619.995 95.8385C610.881 160.125 606.381 226.078 608.011 292.583Z" fill="#AEA82E"/>
<path d="M266.823 297.005H418.943C419.422 297.005 419.901 297.052 420.375 297.146C420.849 297.24 421.313 297.38 421.756 297.563C422.203 297.75 422.631 297.974 423.032 298.245C423.433 298.511 423.802 298.818 424.146 299.156C424.49 299.5 424.792 299.87 425.063 300.276C425.328 300.677 425.558 301.099 425.74 301.547C425.927 301.995 426.068 302.453 426.162 302.927C426.256 303.401 426.302 303.88 426.302 304.365V311.245C426.302 311.724 426.256 312.203 426.162 312.677C426.068 313.151 425.927 313.615 425.74 314.057C425.558 314.505 425.328 314.927 425.063 315.333C424.792 315.735 424.49 316.104 424.146 316.448C423.802 316.787 423.433 317.094 423.032 317.36C422.631 317.63 422.203 317.86 421.756 318.042C421.313 318.229 420.849 318.365 420.375 318.458C419.901 318.557 419.422 318.604 418.943 318.604H266.823C266.339 318.604 265.86 318.557 265.386 318.458C264.912 318.365 264.453 318.229 264.006 318.042C263.558 317.86 263.136 317.63 262.735 317.36C262.334 317.094 261.959 316.787 261.62 316.448C261.276 316.104 260.969 315.735 260.703 315.333C260.433 314.927 260.209 314.505 260.021 314.057C259.839 313.615 259.698 313.151 259.604 312.677C259.511 312.203 259.464 311.724 259.464 311.245V304.365C259.464 303.88 259.511 303.401 259.604 302.927C259.698 302.453 259.839 301.995 260.021 301.547C260.209 301.099 260.433 300.677 260.703 300.276C260.969 299.87 261.276 299.5 261.62 299.156C261.959 298.818 262.334 298.511 262.735 298.245C263.136 297.974 263.558 297.75 264.006 297.563C264.453 297.38 264.912 297.24 265.386 297.146C265.86 297.052 266.339 297.005 266.823 297.005Z" fill="#324D22"/>
<mask id="mask0_837_28607" style="mask-type:luminance" maskUnits="userSpaceOnUse" x="269" y="308" width="26" height="191">
<path d="M269.219 308.537H294.552V498.412H269.219V308.537Z" fill="white"/>
</mask>
<g mask="url(#mask0_837_28607)">
<path d="M289.39 498.318H273.896L269.505 309.141H293.781L289.39 498.318Z" fill="#324D22"/>
</g>
<mask id="mask1_837_28607" style="mask-type:luminance" maskUnits="userSpaceOnUse" x="398" y="308" width="26" height="191">
<path d="M398.553 308.537H423.886V498.412H398.553V308.537Z" fill="white"/>
</mask>
<g mask="url(#mask1_837_28607)">
<path d="M418.823 498.318H403.323L398.933 309.141H423.209L418.823 498.318Z" fill="#324D22"/>
</g>
<path d="M269.505 283.771C269.281 283.771 269.089 283.698 268.922 283.547C268.75 283.401 268.656 283.214 268.625 282.995C268.599 282.771 268.646 282.568 268.776 282.38C268.901 282.198 269.073 282.078 269.292 282.026C281.302 279 293.453 276.724 305.745 275.198C318.042 273.672 330.38 272.912 342.766 272.912C355.151 272.912 367.495 273.672 379.787 275.198C392.078 276.724 404.229 279 416.24 282.026C416.479 282.083 416.662 282.224 416.781 282.432C416.906 282.641 416.938 282.865 416.88 283.104C416.818 283.339 416.682 283.521 416.469 283.646C416.261 283.771 416.037 283.802 415.797 283.745C334.568 263.287 272.943 283.771 269.505 283.771Z" fill="#230B1E"/>
<path d="M457.35 297.005H609.469C609.949 297.005 610.428 297.052 610.902 297.146C611.376 297.24 611.839 297.38 612.282 297.563C612.73 297.75 613.157 297.974 613.558 298.245C613.959 298.511 614.329 298.818 614.673 299.156C615.011 299.5 615.318 299.87 615.589 300.276C615.855 300.677 616.084 301.099 616.266 301.547C616.454 301.995 616.594 302.453 616.688 302.927C616.782 303.401 616.829 303.88 616.829 304.365V311.245C616.829 311.724 616.782 312.203 616.688 312.677C616.594 313.151 616.454 313.615 616.266 314.057C616.084 314.505 615.855 314.927 615.589 315.333C615.318 315.735 615.011 316.104 614.673 316.448C614.329 316.787 613.959 317.094 613.558 317.36C613.157 317.63 612.73 317.86 612.282 318.042C611.839 318.229 611.376 318.365 610.902 318.458C610.428 318.557 609.949 318.604 609.469 318.604H457.35C456.865 318.604 456.386 318.557 455.912 318.458C455.438 318.365 454.98 318.229 454.532 318.042C454.084 317.86 453.662 317.63 453.261 317.36C452.86 317.094 452.485 316.787 452.146 316.448C451.803 316.104 451.495 315.735 451.23 315.333C450.959 314.927 450.735 314.505 450.548 314.057C450.365 313.615 450.225 313.151 450.131 312.677C450.037 312.203 449.99 311.724 449.99 311.245V304.365C449.99 303.88 450.037 303.401 450.131 302.927C450.225 302.453 450.365 301.995 450.548 301.547C450.735 301.099 450.959 300.677 451.23 300.276C451.495 299.87 451.803 299.5 452.146 299.156C452.485 298.818 452.86 298.511 453.261 298.245C453.662 297.974 454.084 297.75 454.532 297.563C454.98 297.38 455.438 297.24 455.912 297.146C456.386 297.052 456.865 297.005 457.35 297.005Z" fill="#324D22"/>
<mask id="mask2_837_28607" style="mask-type:luminance" maskUnits="userSpaceOnUse" x="459" y="308" width="27" height="191">
<path d="M459.886 308.537H485.219V498.412H459.886V308.537Z" fill="white"/>
</mask>
<g mask="url(#mask2_837_28607)">
<path d="M479.917 498.318H464.422L460.031 309.141H484.307L479.917 498.318Z" fill="#324D22"/>
</g>
<mask id="mask3_837_28607" style="mask-type:luminance" maskUnits="userSpaceOnUse" x="577" y="308" width="26" height="191">
<path d="M577.219 308.537H602.552V498.412H577.219V308.537Z" fill="white"/>
</mask>
<g mask="url(#mask3_837_28607)">
<path d="M598.162 498.318H582.667L578.276 309.141H602.552L598.162 498.318Z" fill="#324D22"/>
</g>
<path d="M460.031 283.771C459.807 283.771 459.609 283.693 459.443 283.547C459.276 283.396 459.177 283.214 459.151 282.99C459.125 282.771 459.177 282.568 459.302 282.38C459.427 282.198 459.599 282.078 459.818 282.026C471.828 278.995 483.979 276.724 496.271 275.198C508.568 273.672 520.906 272.912 533.292 272.912C545.677 272.912 558.021 273.672 570.313 275.198C582.604 276.724 594.755 278.995 606.766 282.026C607.005 282.083 607.188 282.224 607.307 282.432C607.432 282.641 607.464 282.865 607.406 283.104C607.344 283.339 607.208 283.521 606.995 283.646C606.786 283.771 606.563 283.802 606.323 283.745C525.068 263.281 463.474 283.771 460.031 283.771Z" fill="#230B1E"/>
<mask id="mask4_837_28607" style="mask-type:luminance" maskUnits="userSpaceOnUse" x="209" y="203" width="58" height="296">
<path d="M209.219 203.203H266.552V498.411H209.219V203.203Z" fill="white"/>
</mask>
<g mask="url(#mask4_837_28607)">
<path d="M220.552 498.318L209.839 498.161C221.573 400.031 233.308 301.901 245.037 203.776L265.386 206.828L220.552 498.318Z" fill="#AC5247"/>
</g>
<path d="M30.2344 497.552L44.1198 497.49C62.7031 438.26 75.9375 377.854 83.8229 316.281L63.2344 312.562C59.1719 375.464 48.1719 437.125 30.2344 497.552Z" fill="#324D22"/>
<mask id="mask5_837_28607" style="mask-type:luminance" maskUnits="userSpaceOnUse" x="181" y="308" width="22" height="191">
<path d="M181.219 308.537H202.552V498.412H181.219V308.537Z" fill="white"/>
</mask>
<g mask="url(#mask5_837_28607)">
<path d="M183.765 498.318H197.369L202.364 309.135H181.536C182.281 372.198 183.021 435.261 183.765 498.318Z" fill="#324D22"/>
</g>
<path d="M57.3079 294.469L78.136 289.255C77.4537 257.073 74.0266 225.188 67.8495 193.594C61.6776 162 52.8443 131.172 41.3547 101.099C41.0058 100.182 40.6099 99.2762 40.1776 98.396C39.7454 97.5106 39.2766 96.646 38.7662 95.8023C38.2506 94.9585 37.7037 94.146 37.1204 93.3491C36.5318 92.5575 35.912 91.7971 35.261 91.0575C34.6047 90.3231 33.9172 89.62 33.1985 88.9429C32.4797 88.271 31.7297 87.6304 30.9537 87.0262C30.1776 86.4168 29.3756 85.8491 28.5474 85.3179C27.7193 84.7814 26.8651 84.2918 25.9954 83.8335C25.1204 83.3804 24.2297 82.9637 23.3183 82.5887C22.4068 82.2137 21.4797 81.8804 20.537 81.5887C19.5943 81.2971 18.6464 81.0523 17.6829 80.8491C16.7141 80.646 15.7454 80.4846 14.7662 80.3648C13.787 80.2502 12.8079 80.1773 11.8235 80.1512C10.8391 80.1252 9.85473 80.146 8.87035 80.2033C7.88598 80.2658 6.90681 80.3752 5.93285 80.5262C4.95889 80.6773 3.99535 80.87 3.04223 81.1096C2.75056 81.1825 2.46931 81.2866 2.20369 81.4221C1.93285 81.5627 1.68285 81.7241 1.45369 81.9168C1.21931 82.1096 1.01618 82.3231 0.833893 82.5627C0.646392 82.8023 0.495352 83.0575 0.370352 83.3283C0.245352 83.5991 0.146392 83.8856 0.0891018 84.1773C0.0266018 84.4741 -0.0046492 84.771 0.000560134 85.0679C0.00576813 85.37 0.0422275 85.6668 0.115143 85.9585C0.182851 86.2502 0.287018 86.5314 0.422435 86.8023C8.42764 103 15.636 119.542 22.0526 136.432C28.4745 153.318 34.0683 170.479 38.8443 187.901C43.6151 205.328 47.5422 222.943 50.6308 240.745C53.7141 258.547 55.9381 276.453 57.3079 294.469Z" fill="#AEA82E"/>
<path d="M57.0264 306.026H209.802C209.802 292.687 200.964 282.687 189.688 280.01C178.766 277.417 167.719 275.583 156.547 274.516C145.37 273.448 134.177 273.156 122.964 273.641C111.745 274.12 100.62 275.375 89.5785 277.396C78.5368 279.417 67.6878 282.193 57.0264 285.713V306.026Z" fill="#AEA82E"/>
<path d="M209.474 318.599H57.3545C56.8753 318.599 56.3962 318.552 55.9222 318.458C55.4482 318.365 54.9847 318.224 54.542 318.036C54.0941 317.854 53.667 317.625 53.266 317.359C52.8649 317.089 52.4951 316.786 52.1514 316.443C51.8128 316.099 51.5055 315.729 51.2347 315.328C50.9691 314.927 50.7399 314.5 50.5576 314.057C50.3701 313.609 50.2295 313.146 50.1357 312.672C50.042 312.198 49.9951 311.724 49.9951 311.24V304.359C49.9951 303.875 50.042 303.396 50.1357 302.922C50.2295 302.448 50.3701 301.99 50.5576 301.542C50.7399 301.094 50.9691 300.672 51.2347 300.271C51.5055 299.87 51.8128 299.495 52.1514 299.156C52.4951 298.812 52.8649 298.505 53.266 298.24C53.667 297.969 54.0941 297.745 54.542 297.557C54.9847 297.375 55.4482 297.234 55.9222 297.141C56.3962 297.047 56.8753 297 57.3545 297H209.474C209.959 297 210.438 297.047 210.912 297.141C211.386 297.234 211.844 297.375 212.292 297.557C212.74 297.745 213.162 297.969 213.563 298.24C213.964 298.505 214.339 298.812 214.677 299.156C215.021 299.495 215.328 299.87 215.594 300.271C215.865 300.672 216.089 301.094 216.276 301.542C216.459 301.99 216.599 302.448 216.693 302.922C216.787 303.396 216.834 303.875 216.834 304.359V311.24C216.834 311.724 216.787 312.198 216.693 312.672C216.599 313.146 216.459 313.609 216.276 314.057C216.089 314.5 215.865 314.927 215.594 315.328C215.328 315.729 215.021 316.099 214.677 316.443C214.339 316.786 213.964 317.089 213.563 317.359C213.162 317.625 212.74 317.854 212.292 318.036C211.844 318.224 211.386 318.365 210.912 318.458C210.438 318.552 209.959 318.599 209.474 318.599Z" fill="#324D22"/>
<path d="M28.4482 154.141C41.4066 205.104 48.3493 256.875 49.2764 309.453C49.2868 310.057 49.3545 310.656 49.4847 311.245C49.6097 311.839 49.792 312.411 50.0316 312.964C50.2712 313.521 50.5576 314.047 50.9014 314.547C51.2399 315.047 51.6253 315.51 52.0576 315.932C52.4899 316.354 52.9587 316.734 53.4639 317.068C53.9691 317.401 54.5003 317.682 55.0576 317.911C55.6201 318.135 56.193 318.313 56.7868 318.427C57.3805 318.542 57.9795 318.604 58.5837 318.604H64.0003C64.0003 318.604 57.2087 199.089 28.4482 154.141Z" fill="#324D22"/>
<mask id="mask6_837_28607" style="mask-type:luminance" maskUnits="userSpaceOnUse" x="601" y="203" width="61" height="296">
<path d="M601.219 203.203H661.219V498.411H601.219V203.203Z" fill="white"/>
</mask>
<g mask="url(#mask6_837_28607)">
<path d="M649.062 498.318L660.427 498.161C647.979 400.031 635.536 301.901 623.088 203.776L601.505 206.828L649.062 498.318Z" fill="#AC5247"/>
</g>
<path d="M833.464 497.552L819.578 497.49C800.995 438.26 787.76 377.854 779.875 316.281L800.464 312.562C804.526 375.464 815.526 437.125 833.464 497.552Z" fill="#324D22"/>
<mask id="mask7_837_28607" style="mask-type:luminance" maskUnits="userSpaceOnUse" x="661" y="308" width="22" height="191">
<path d="M661.219 308.537H682.552V498.412H661.219V308.537Z" fill="white"/>
</mask>
<g mask="url(#mask7_837_28607)">
<path d="M679.938 498.318H666.334L661.339 309.135H682.167C681.422 372.198 680.683 435.261 679.938 498.318Z" fill="#324D22"/>
</g>
<mask id="mask8_837_28607" style="mask-type:luminance" maskUnits="userSpaceOnUse" x="785" y="79" width="79" height="217">
<path d="M785.219 79.2031H863.87V295.203H785.219V79.2031Z" fill="white"/>
</mask>
<g mask="url(#mask8_837_28607)">
<path d="M806.391 294.469L785.562 289.255C786.245 257.073 789.672 225.188 795.849 193.594C802.021 162 810.854 131.172 822.344 101.099C822.698 100.182 823.089 99.276 823.521 98.3958C823.953 97.5104 824.427 96.6458 824.938 95.8021C825.448 94.9583 825.995 94.1458 826.578 93.349C827.167 92.5573 827.786 91.7969 828.443 91.0573C829.094 90.3229 829.781 89.6198 830.5 88.9427C831.219 88.2708 831.969 87.6302 832.745 87.026C833.521 86.4167 834.323 85.849 835.151 85.3177C835.979 84.7812 836.833 84.2917 837.703 83.8333C838.578 83.3802 839.474 82.9635 840.38 82.5885C841.292 82.2135 842.219 81.8802 843.161 81.5885C844.104 81.2969 845.057 81.0521 846.021 80.849C846.984 80.6458 847.953 80.4844 848.932 80.3698C849.911 80.25 850.891 80.1771 851.875 80.151C852.865 80.125 853.844 80.1458 854.828 80.2031C855.813 80.2656 856.792 80.375 857.766 80.526C858.74 80.6771 859.703 80.8698 860.656 81.1094C860.948 81.1823 861.229 81.2865 861.5 81.4219C861.766 81.5625 862.016 81.724 862.245 81.9167C862.479 82.1094 862.688 82.3229 862.87 82.5625C863.052 82.8021 863.203 83.0573 863.333 83.3281C863.458 83.599 863.552 83.8854 863.615 84.1771C863.677 84.474 863.703 84.7708 863.698 85.0677C863.693 85.3698 863.656 85.6667 863.583 85.9583C863.516 86.25 863.411 86.5312 863.276 86.8021C855.276 103 848.063 119.542 841.646 136.432C835.229 153.318 829.63 170.479 824.859 187.901C820.083 205.328 816.156 222.943 813.073 240.745C809.984 258.547 807.76 276.453 806.391 294.469Z" fill="#AEA82E"/>
</g>
<path d="M806.673 306.026H653.896C653.896 292.687 662.761 282.687 674.011 280.01C684.933 277.417 695.98 275.583 707.152 274.516C718.329 273.448 729.521 273.156 740.74 273.641C751.954 274.12 763.079 275.375 774.12 277.396C785.162 279.417 796.011 282.193 806.673 285.713V306.026Z" fill="#AEA82E"/>
<path d="M654.225 297.005H806.344C806.829 297.005 807.303 297.052 807.777 297.146C808.251 297.24 808.714 297.38 809.162 297.563C809.605 297.75 810.032 297.974 810.433 298.245C810.834 298.511 811.204 298.818 811.548 299.156C811.891 299.5 812.193 299.87 812.464 300.276C812.73 300.677 812.959 301.099 813.141 301.547C813.329 301.995 813.469 302.453 813.563 302.927C813.657 303.401 813.704 303.88 813.704 304.365V311.245C813.704 311.724 813.657 312.203 813.563 312.677C813.469 313.151 813.329 313.615 813.141 314.057C812.959 314.505 812.73 314.927 812.464 315.333C812.193 315.735 811.891 316.104 811.548 316.448C811.204 316.787 810.834 317.094 810.433 317.36C810.032 317.63 809.605 317.86 809.162 318.042C808.714 318.229 808.251 318.365 807.777 318.458C807.303 318.557 806.829 318.604 806.344 318.604H654.225C653.74 318.604 653.261 318.557 652.787 318.458C652.313 318.365 651.855 318.229 651.407 318.042C650.959 317.86 650.537 317.63 650.136 317.36C649.735 317.094 649.36 316.787 649.021 316.448C648.678 316.104 648.37 315.735 648.105 315.333C647.834 314.927 647.61 314.505 647.423 314.057C647.24 313.615 647.1 313.151 647.006 312.677C646.912 312.203 646.865 311.724 646.865 311.245V304.365C646.865 303.88 646.912 303.401 647.006 302.927C647.1 302.453 647.24 301.995 647.423 301.547C647.61 301.099 647.834 300.677 648.105 300.276C648.37 299.87 648.678 299.5 649.021 299.156C649.36 298.818 649.735 298.511 650.136 298.245C650.537 297.974 650.959 297.75 651.407 297.563C651.855 297.38 652.313 297.24 652.787 297.146C653.261 297.052 653.74 297.005 654.225 297.005Z" fill="#324D22"/>
<path d="M835.25 154.141C822.292 205.104 815.349 256.875 814.422 309.453C814.412 310.057 814.344 310.656 814.214 311.245C814.089 311.839 813.907 312.411 813.667 312.964C813.433 313.521 813.141 314.047 812.802 314.547C812.459 315.047 812.073 315.51 811.641 315.932C811.209 316.354 810.74 316.734 810.24 317.068C809.735 317.401 809.198 317.682 808.641 317.911C808.084 318.135 807.506 318.313 806.912 318.427C806.318 318.542 805.719 318.604 805.115 318.604H799.698C799.698 318.604 806.49 199.089 835.25 154.141Z" fill="#324D22"/>
<path d="M193.094 200.724H676.286V225.193H193.094V200.724Z" fill="#F3AF28"/>
<mask id="mask9_837_28607" style="mask-type:luminance" maskUnits="userSpaceOnUse" x="158" y="203" width="58" height="296">
<path d="M158.553 203.203H215.886V498.411H158.553V203.203Z" fill="white"/>
</mask>
<g mask="url(#mask9_837_28607)">
<path d="M169.808 498.318L159.095 498.161C170.824 400.031 182.558 301.901 194.293 203.776L214.642 206.828L169.808 498.318Z" fill="#F3AF28"/>
</g>
<mask id="mask10_837_28607" style="mask-type:luminance" maskUnits="userSpaceOnUse" x="651" y="203" width="61" height="296">
<path d="M651.886 203.203H711.886V498.411H651.886V203.203Z" fill="white"/>
</mask>
<g mask="url(#mask10_837_28607)">
<path d="M700.224 498.318L711.589 498.161C699.141 400.031 686.698 301.901 674.25 203.776L652.667 206.828L700.224 498.318Z" fill="#F3AF28"/>
</g>
<path d="M732.985 200.724C732.985 200.995 732.865 201.266 732.62 201.536C732.381 201.802 732.016 202.073 731.537 202.344C731.052 202.615 730.448 202.88 729.724 203.151C729 203.417 728.162 203.682 727.198 203.948C726.235 204.214 725.157 204.479 723.959 204.74C722.761 205.005 721.448 205.266 720.016 205.521C718.589 205.781 717.042 206.036 715.381 206.292C713.719 206.547 711.948 206.802 710.063 207.052C708.177 207.302 706.177 207.547 704.073 207.792C701.964 208.036 699.75 208.276 697.427 208.516C695.105 208.755 692.677 208.99 690.141 209.224C687.61 209.453 684.974 209.682 682.235 209.911C679.495 210.135 676.662 210.354 673.724 210.573C670.787 210.792 667.756 211.005 664.631 211.214C661.506 211.422 658.287 211.625 654.974 211.828C651.667 212.026 648.271 212.224 644.787 212.417C641.297 212.604 637.73 212.792 634.078 212.974C630.427 213.156 626.698 213.333 622.886 213.505C619.078 213.677 615.193 213.844 611.235 214.005C607.276 214.167 603.25 214.323 599.151 214.469C595.052 214.62 590.891 214.766 586.662 214.906C582.438 215.042 578.151 215.177 573.802 215.307C569.459 215.432 565.058 215.552 560.599 215.672C556.146 215.786 551.641 215.896 547.089 216C542.537 216.104 537.938 216.198 533.297 216.292C528.657 216.38 523.98 216.469 519.266 216.547C514.547 216.625 509.802 216.698 505.021 216.76C500.24 216.828 495.433 216.885 490.599 216.938C485.766 216.995 480.912 217.036 476.037 217.078C471.162 217.12 466.271 217.151 461.365 217.177C456.464 217.203 451.547 217.224 446.625 217.24C441.703 217.25 436.776 217.255 431.849 217.255C426.922 217.255 421.995 217.25 417.073 217.24C412.151 217.224 407.24 217.203 402.334 217.177C397.427 217.151 392.537 217.12 387.662 217.078C382.787 217.036 377.933 216.995 373.099 216.938C368.266 216.885 363.459 216.828 358.677 216.76C353.901 216.698 349.151 216.625 344.433 216.547C339.719 216.469 335.042 216.38 330.401 216.292C325.761 216.198 321.162 216.104 316.61 216C312.058 215.896 307.552 215.786 303.099 215.672C298.641 215.552 294.24 215.432 289.896 215.307C285.547 215.177 281.261 215.042 277.037 214.906C272.808 214.766 268.646 214.62 264.547 214.469C260.448 214.323 256.422 214.167 252.464 214.005C248.506 213.844 244.62 213.677 240.813 213.505C237 213.333 233.271 213.156 229.62 212.974C225.969 212.792 222.401 212.604 218.917 212.417C215.433 212.224 212.032 212.026 208.724 211.828C205.412 211.625 202.198 211.422 199.068 211.214C195.943 211.005 192.912 210.792 189.974 210.573C187.042 210.354 184.203 210.135 181.464 209.911C178.729 209.682 176.089 209.453 173.558 209.224C171.026 208.99 168.594 208.755 166.271 208.516C163.948 208.276 161.735 208.036 159.625 207.792C157.521 207.547 155.521 207.302 153.636 207.052C151.75 206.802 149.979 206.547 148.318 206.292C146.657 206.036 145.115 205.781 143.683 205.521C142.25 205.266 140.938 205.005 139.74 204.74C138.542 204.479 137.464 204.214 136.5 203.948C135.542 203.682 134.698 203.417 133.974 203.151C133.25 202.88 132.646 202.615 132.167 202.344C131.683 202.073 131.318 201.802 131.078 201.536C130.834 201.266 130.714 200.995 130.714 200.724C130.714 200.453 130.834 200.182 131.078 199.911C131.318 199.641 131.683 199.37 132.167 199.104C132.646 198.833 133.25 198.563 133.974 198.297C134.698 198.031 135.542 197.76 136.5 197.495C137.464 197.229 138.542 196.969 139.74 196.703C140.938 196.443 142.25 196.182 143.683 195.922C145.115 195.661 146.657 195.406 148.318 195.151C149.979 194.896 151.75 194.646 153.636 194.396C155.521 194.146 157.521 193.896 159.625 193.651C161.735 193.406 163.948 193.167 166.271 192.927C168.594 192.688 171.026 192.453 173.558 192.224C176.089 191.99 178.729 191.76 181.464 191.536C184.203 191.313 187.042 191.089 189.974 190.875C192.912 190.656 195.943 190.443 199.068 190.234C202.198 190.026 205.412 189.818 208.724 189.62C212.032 189.417 215.433 189.224 218.917 189.031C222.401 188.839 225.969 188.651 229.62 188.469C233.271 188.292 237 188.115 240.813 187.943C244.62 187.771 248.506 187.604 252.464 187.443C256.422 187.281 260.448 187.125 264.547 186.974C268.646 186.823 272.808 186.677 277.037 186.542C281.261 186.401 285.547 186.266 289.896 186.141C294.24 186.01 298.641 185.891 303.099 185.776C307.552 185.661 312.058 185.552 316.61 185.448C321.162 185.344 325.761 185.245 330.401 185.156C335.042 185.062 339.719 184.979 344.433 184.901C349.151 184.823 353.901 184.75 358.677 184.682C363.459 184.62 368.266 184.557 373.099 184.505C377.933 184.453 382.787 184.406 387.662 184.365C392.537 184.328 397.427 184.292 402.334 184.266C407.24 184.24 412.151 184.219 417.073 184.208C421.995 184.193 426.922 184.188 431.849 184.188C436.776 184.188 441.703 184.193 446.625 184.208C451.547 184.219 456.464 184.24 461.365 184.266C466.271 184.292 471.162 184.328 476.037 184.365C480.912 184.406 485.766 184.453 490.599 184.505C495.433 184.557 500.24 184.62 505.021 184.682C509.802 184.75 514.547 184.823 519.266 184.901C523.98 184.979 528.657 185.062 533.297 185.156C537.938 185.245 542.537 185.344 547.089 185.448C551.641 185.552 556.146 185.661 560.599 185.776C565.058 185.891 569.459 186.01 573.802 186.141C578.151 186.266 582.438 186.401 586.662 186.542C590.891 186.677 595.052 186.823 599.151 186.974C603.25 187.125 607.276 187.281 611.235 187.443C615.193 187.604 619.078 187.771 622.886 187.943C626.698 188.115 630.427 188.292 634.078 188.469C637.73 188.651 641.297 188.839 644.787 189.031C648.271 189.224 651.667 189.417 654.974 189.62C658.287 189.818 661.506 190.026 664.631 190.234C667.756 190.443 670.787 190.656 673.724 190.875C676.662 191.089 679.495 191.313 682.235 191.536C684.974 191.76 687.61 191.99 690.141 192.224C692.677 192.453 695.105 192.688 697.427 192.927C699.75 193.167 701.964 193.406 704.073 193.651C706.177 193.896 708.177 194.146 710.063 194.396C711.948 194.646 713.719 194.896 715.381 195.151C717.042 195.406 718.589 195.661 720.016 195.922C721.448 196.182 722.761 196.443 723.959 196.703C725.157 196.969 726.235 197.229 727.198 197.495C728.162 197.76 729 198.031 729.724 198.297C730.448 198.563 731.052 198.833 731.537 199.104C732.016 199.37 732.381 199.641 732.62 199.911C732.865 200.182 732.985 200.453 732.985 200.724Z" fill="#F3AF28"/>
<path d="M130.714 187.302H732.985V200.724H130.714V187.302Z" fill="#F3AF28"/>
<path d="M732.985 187.302C732.985 187.573 732.865 187.844 732.62 188.115C732.381 188.385 732.016 188.656 731.537 188.922C731.052 189.193 730.448 189.458 729.724 189.729C729 189.995 728.162 190.26 727.198 190.526C726.235 190.792 725.157 191.057 723.959 191.318C722.761 191.583 721.448 191.844 720.016 192.104C718.589 192.359 717.042 192.62 715.381 192.875C713.719 193.13 711.948 193.38 710.063 193.63C708.177 193.88 706.177 194.125 704.073 194.37C701.964 194.615 699.75 194.859 697.427 195.099C695.105 195.333 692.677 195.573 690.141 195.802C687.61 196.036 684.974 196.266 682.235 196.49C679.495 196.714 676.662 196.932 673.724 197.151C670.787 197.37 667.756 197.583 664.631 197.792C661.506 198 658.287 198.208 654.974 198.406C651.667 198.609 648.271 198.802 644.787 198.995C641.297 199.188 637.73 199.37 634.078 199.552C630.427 199.734 626.698 199.911 622.886 200.083C619.078 200.255 615.193 200.422 611.235 200.583C607.276 200.745 603.25 200.901 599.151 201.052C595.052 201.203 590.891 201.344 586.662 201.484C582.438 201.625 578.151 201.755 573.802 201.885C569.459 202.01 565.058 202.135 560.599 202.25C556.146 202.365 551.641 202.474 547.089 202.578C542.537 202.682 537.938 202.781 533.297 202.87C528.657 202.964 523.98 203.047 519.266 203.125C514.547 203.203 509.802 203.276 505.021 203.344C500.24 203.406 495.433 203.469 490.599 203.521C485.766 203.573 480.912 203.62 476.037 203.656C471.162 203.698 466.271 203.729 461.365 203.76C456.464 203.786 451.547 203.802 446.625 203.818C441.703 203.828 436.776 203.839 431.849 203.839C426.922 203.839 421.995 203.828 417.073 203.818C412.151 203.802 407.24 203.786 402.334 203.76C397.427 203.729 392.537 203.698 387.662 203.656C382.787 203.62 377.933 203.573 373.099 203.521C368.266 203.469 363.459 203.406 358.677 203.344C353.901 203.276 349.151 203.203 344.433 203.125C339.719 203.047 335.042 202.964 330.401 202.87C325.761 202.781 321.162 202.682 316.61 202.578C312.058 202.474 307.552 202.365 303.099 202.25C298.641 202.135 294.24 202.01 289.896 201.885C285.547 201.755 281.261 201.625 277.037 201.484C272.808 201.344 268.646 201.203 264.547 201.052C260.448 200.901 256.422 200.745 252.464 200.583C248.506 200.422 244.62 200.255 240.813 200.083C237 199.911 233.271 199.734 229.62 199.552C225.969 199.37 222.401 199.188 218.917 198.995C215.433 198.802 212.032 198.609 208.724 198.406C205.412 198.208 202.198 198 199.068 197.792C195.943 197.583 192.912 197.37 189.974 197.151C187.042 196.937 184.203 196.714 181.464 196.49C178.729 196.266 176.089 196.036 173.558 195.802C171.026 195.573 168.594 195.333 166.271 195.099C163.948 194.859 161.735 194.615 159.625 194.37C157.521 194.125 155.521 193.88 153.636 193.63C151.75 193.38 149.979 193.13 148.318 192.875C146.657 192.62 145.115 192.359 143.683 192.104C142.25 191.844 140.938 191.583 139.74 191.318C138.542 191.057 137.464 190.792 136.5 190.526C135.542 190.26 134.698 189.995 133.974 189.729C133.25 189.458 132.646 189.193 132.167 188.922C131.683 188.656 131.318 188.385 131.078 188.115C130.834 187.844 130.714 187.573 130.714 187.302C130.714 187.031 130.834 186.76 131.078 186.49C131.318 186.219 131.683 185.953 132.167 185.682C132.646 185.411 133.25 185.146 133.974 184.875C134.698 184.609 135.542 184.344 136.5 184.078C137.464 183.813 138.542 183.547 139.74 183.286C140.938 183.021 142.25 182.76 143.683 182.505C145.115 182.245 146.657 181.984 148.318 181.734C149.979 181.479 151.75 181.224 153.636 180.974C155.521 180.724 157.521 180.479 159.625 180.234C161.735 179.99 163.948 179.745 166.271 179.51C168.594 179.271 171.026 179.036 173.558 178.802C176.089 178.568 178.729 178.344 181.464 178.115C184.203 177.891 187.042 177.672 189.974 177.453C192.912 177.234 195.943 177.021 199.068 176.813C202.198 176.604 205.412 176.401 208.724 176.198C212.032 176 215.433 175.802 218.917 175.609C222.401 175.417 225.969 175.234 229.62 175.052C233.271 174.87 237 174.693 240.813 174.521C244.62 174.349 248.506 174.182 252.464 174.021C256.422 173.859 260.448 173.703 264.547 173.552C268.646 173.406 272.808 173.26 277.037 173.12C281.261 172.979 285.547 172.849 289.896 172.719C294.24 172.594 298.641 172.469 303.099 172.354C307.552 172.24 312.058 172.13 316.61 172.026C321.162 171.922 325.761 171.823 330.401 171.734C335.042 171.641 339.719 171.557 344.433 171.479C349.151 171.401 353.901 171.328 358.677 171.266C363.459 171.198 368.266 171.141 373.099 171.083C377.933 171.031 382.787 170.984 387.662 170.948C392.537 170.906 397.427 170.875 402.334 170.849C407.24 170.823 412.151 170.802 417.073 170.786C421.995 170.776 426.922 170.766 431.849 170.766C436.776 170.766 441.703 170.776 446.625 170.786C451.547 170.802 456.464 170.823 461.365 170.849C466.271 170.875 471.162 170.906 476.037 170.948C480.912 170.984 485.766 171.031 490.599 171.083C495.433 171.141 500.24 171.198 505.021 171.266C509.802 171.328 514.547 171.401 519.266 171.479C523.98 171.557 528.657 171.641 533.297 171.734C537.938 171.823 542.537 171.922 547.089 172.026C551.641 172.13 556.146 172.24 560.599 172.354C565.058 172.469 569.459 172.594 573.802 172.719C578.151 172.849 582.438 172.979 586.662 173.12C590.891 173.26 595.052 173.406 599.151 173.552C603.25 173.703 607.276 173.859 611.235 174.021C615.193 174.182 619.078 174.349 622.886 174.521C626.698 174.693 630.427 174.87 634.078 175.052C637.73 175.234 641.297 175.417 644.787 175.609C648.271 175.802 651.667 176 654.974 176.198C658.287 176.401 661.506 176.604 664.631 176.813C667.756 177.021 670.787 177.234 673.724 177.453C676.662 177.672 679.495 177.891 682.235 178.115C684.974 178.344 687.61 178.568 690.141 178.802C692.677 179.036 695.105 179.271 697.427 179.51C699.75 179.745 701.964 179.99 704.073 180.234C706.177 180.479 708.177 180.724 710.063 180.974C711.948 181.224 713.719 181.479 715.381 181.734C717.042 181.984 718.589 182.245 720.016 182.505C721.448 182.76 722.761 183.021 723.959 183.286C725.157 183.547 726.235 183.813 727.198 184.078C728.162 184.344 729 184.609 729.724 184.875C730.448 185.146 731.052 185.411 731.537 185.682C732.016 185.953 732.381 186.219 732.62 186.49C732.865 186.76 732.985 187.031 732.985 187.302Z" fill="#F9D692"/>
<path d="M481.615 182.266C481.615 182.536 481.542 182.807 481.391 183.073C481.245 183.344 481.021 183.609 480.725 183.875C480.428 184.141 480.063 184.406 479.62 184.661C479.183 184.922 478.673 185.177 478.089 185.427C477.511 185.677 476.86 185.922 476.146 186.161C475.433 186.401 474.652 186.63 473.808 186.854C472.969 187.078 472.063 187.297 471.105 187.505C470.141 187.714 469.126 187.917 468.053 188.109C466.98 188.297 465.855 188.479 464.683 188.651C463.511 188.823 462.292 188.984 461.032 189.135C459.771 189.286 458.469 189.427 457.136 189.552C455.798 189.682 454.428 189.797 453.027 189.901C451.626 190 450.199 190.094 448.745 190.172C447.292 190.25 445.824 190.318 444.339 190.37C442.85 190.422 441.35 190.464 439.839 190.49C438.334 190.516 436.818 190.526 435.303 190.526C433.787 190.526 432.271 190.516 430.761 190.49C429.251 190.464 427.756 190.422 426.266 190.37C424.777 190.318 423.308 190.25 421.86 190.172C420.407 190.094 418.98 190 417.579 189.901C416.178 189.797 414.808 189.682 413.469 189.552C412.131 189.427 410.834 189.286 409.574 189.135C408.313 188.984 407.094 188.823 405.923 188.651C404.751 188.479 403.626 188.297 402.553 188.109C401.48 187.917 400.464 187.714 399.501 187.505C398.537 187.297 397.636 187.078 396.792 186.854C395.954 186.63 395.173 186.401 394.459 186.161C393.74 185.922 393.094 185.677 392.516 185.427C391.933 185.177 391.423 184.922 390.985 184.661C390.542 184.406 390.173 184.141 389.881 183.875C389.584 183.609 389.36 183.344 389.214 183.073C389.063 182.807 388.99 182.536 388.99 182.266C388.99 181.995 389.063 181.724 389.214 181.453C389.36 181.188 389.584 180.917 389.881 180.651C390.173 180.385 390.542 180.125 390.985 179.865C391.423 179.609 391.933 179.354 392.516 179.104C393.094 178.854 393.74 178.609 394.459 178.37C395.173 178.13 395.954 177.901 396.792 177.672C397.636 177.448 398.537 177.234 399.501 177.021C400.464 176.813 401.48 176.615 402.553 176.422C403.626 176.229 404.751 176.047 405.923 175.875C407.094 175.708 408.313 175.547 409.574 175.396C410.834 175.245 412.131 175.104 413.469 174.979C414.808 174.849 416.178 174.734 417.579 174.63C418.98 174.526 420.407 174.437 421.86 174.359C423.308 174.281 424.777 174.214 426.266 174.161C427.756 174.109 429.251 174.068 430.761 174.042C432.271 174.016 433.787 174 435.303 174C436.818 174 438.334 174.016 439.839 174.042C441.35 174.068 442.85 174.109 444.339 174.161C445.824 174.214 447.292 174.281 448.745 174.359C450.199 174.437 451.626 174.526 453.027 174.63C454.428 174.734 455.798 174.849 457.136 174.979C458.469 175.104 459.771 175.245 461.032 175.396C462.292 175.547 463.511 175.708 464.683 175.875C465.855 176.047 466.98 176.229 468.053 176.422C469.126 176.615 470.141 176.813 471.105 177.021C472.063 177.234 472.969 177.448 473.808 177.672C474.652 177.901 475.433 178.13 476.146 178.37C476.86 178.609 477.511 178.854 478.089 179.104C478.673 179.354 479.183 179.609 479.62 179.865C480.063 180.125 480.428 180.385 480.725 180.651C481.021 180.917 481.245 181.188 481.391 181.453C481.542 181.724 481.615 181.995 481.615 182.266Z" fill="#F3AF28"/>
<path d="M424.318 76.5471C424.318 76.5471 419.886 65.469 409.745 60.5471C399.605 55.6252 399.5 50.4273 394.933 45.5887C390.365 40.7554 383.662 41.495 386.167 44.5679C388.672 47.6408 387.938 50.7137 396.75 62.6617C405.568 74.6096 410.808 71.8804 416.896 76.5471C422.985 81.2138 427.167 84.719 424.318 76.5471Z" fill="#F9D692"/>
<path d="M434.511 157.208C434.266 157.208 434.052 157.125 433.881 156.948C433.709 156.776 433.62 156.568 433.62 156.323C433.443 113.214 425.891 83.2606 419.584 65.7189C412.755 46.7189 405.875 37.8074 405.813 37.7085C405.672 37.5158 405.62 37.3022 405.651 37.0679C405.688 36.8335 405.797 36.6408 405.985 36.4949C406.172 36.3491 406.386 36.2866 406.62 36.3126C406.86 36.3335 407.052 36.4376 407.209 36.6199C407.49 36.9845 414.297 45.7866 421.214 65.0106C427.589 82.6981 435.219 112.891 435.396 156.318C435.407 156.568 435.328 156.781 435.151 156.958C434.974 157.136 434.761 157.219 434.511 157.208Z" fill="#324D22"/>
<path d="M429.558 94.1094C429.558 94.1094 424.771 78.0104 432.37 71.1875C439.964 64.3646 439.876 47.6562 443.938 44.5521C448.001 41.4427 444.797 57.5208 445.907 67.7656C447.016 78.0104 436.001 82.8281 434.126 87.6614C432.245 92.4948 430.563 98.8021 429.558 94.1094Z" fill="#F3AF28"/>
<path d="M448.963 65.0677C448.963 65.0677 452.156 53.5886 461.682 47.5625C471.203 41.5365 470.75 36.375 474.74 31.0677C478.734 25.7604 485.49 25.75 483.344 29.0834C481.193 32.4167 482.266 35.3854 474.812 48.2344C467.359 61.0834 461.854 58.9271 456.318 64.2448C450.786 69.5625 447.016 73.5052 448.963 65.0677Z" fill="#F9D692"/>
<path d="M447.625 146.37C447.396 146.37 447.198 146.297 447.031 146.141C446.859 145.99 446.766 145.802 446.74 145.573C442.13 102.396 446.391 71.547 450.771 53.2657C455.542 33.3959 461.328 23.9012 461.568 23.5053C461.693 23.297 461.88 23.1616 462.115 23.1043C462.354 23.0522 462.578 23.0887 462.786 23.2137C462.995 23.3439 463.13 23.5262 463.187 23.7657C463.245 24.0053 463.208 24.2241 463.078 24.4376C462.844 24.8178 439.745 63.3699 448.5 145.391C448.526 145.651 448.453 145.875 448.281 146.073C448.104 146.266 447.885 146.365 447.625 146.37Z" fill="#324D22"/>
<path d="M445.672 83.1044C445.672 83.1044 448.657 66.5731 440.355 60.6304C432.047 54.6825 430.303 38.0679 425.922 35.4429C421.537 32.8231 426.49 48.4325 426.521 58.7346C426.553 69.0314 438.047 72.6356 440.422 77.2137C442.803 81.7867 445.193 87.87 445.672 83.1044Z" fill="#F9D692"/>
<path d="M476.376 5.00535C476.949 5.58868 477.459 6.21889 477.907 6.90118C478.157 7.2866 479.845 9.92723 479.761 12.0053C479.647 14.9897 474.001 13.9949 472.48 19.4116C470.798 25.4376 468.178 29.7189 462.423 28.9324C456.668 28.146 453.079 23.172 453.709 17.4793C454.339 11.7866 458.793 7.01577 460.834 3.18243C462.871 -0.650901 465.449 -1.10923 466.199 3.04702C466.949 7.19806 465.694 5.73452 470.246 3.40118C474.798 1.06264 478.147 0.2866 476.376 5.00535Z" fill="#AC5247"/>
<mask id="mask11_837_28607" style="mask-type:luminance" maskUnits="userSpaceOnUse" x="459" y="0" width="21" height="16">
<path d="M459.886 0H479.886V15.2031H459.886V0Z" fill="white"/>
</mask>
<g mask="url(#mask11_837_28607)">
<mask id="mask12_837_28607" style="mask-type:luminance" maskUnits="userSpaceOnUse" x="453" y="0" width="27" height="30">
<path d="M476.375 5.00523C476.948 5.58856 477.458 6.21877 477.906 6.90106C478.156 7.28648 479.844 9.9271 479.76 12.0052C479.646 14.9896 474 13.9948 472.479 19.4115C470.797 25.4375 468.177 29.7188 462.422 28.9323C456.667 28.1459 453.078 23.1719 453.708 17.4792C454.338 11.7865 458.792 7.01564 460.833 3.18231C462.87 -0.651023 465.448 -1.10936 466.198 3.04689C466.948 7.19794 465.693 5.73439 470.245 3.40106C474.797 1.06252 478.146 0.286478 476.375 5.00523Z" fill="white"/>
</mask>
<g mask="url(#mask12_837_28607)">
<path d="M477.568 14.349C477.568 14.349 479.432 11.6407 476.24 9.89067C473.047 8.14067 469.896 7.22921 467.115 10.474C464.339 13.7188 464.755 9.70837 461.526 12.7448C458.302 15.7865 463.776 8.26567 464.74 3.78129C465.703 -0.703085 461.745 -0.781209 461.745 -0.781209L479.167 -3.22913L484.693 4.87504L486.063 12.599L477.568 14.349Z" fill="#741B31"/>
</g>
</g>
<path d="M390.86 17.2292C390.287 17.8126 389.777 18.4428 389.329 19.1251C389.079 19.5105 387.391 22.1511 387.475 24.2292C387.594 27.2084 393.235 26.2188 394.761 31.6355C396.438 37.6615 399.058 41.9428 404.813 41.1563C410.568 40.3699 414.157 35.3959 413.527 29.7032C412.897 24.0105 408.443 19.2396 406.407 15.4063C404.376 11.573 401.787 11.1146 401.037 15.2709C400.287 19.4219 401.542 17.9584 396.99 15.6251C392.443 13.2865 389.089 12.5105 390.86 17.2292Z" fill="#AC5247"/>
<mask id="mask13_837_28607" style="mask-type:luminance" maskUnits="userSpaceOnUse" x="387" y="11" width="21" height="17">
<path d="M387.094 11.9636H407.885V27.2032H387.094V11.9636Z" fill="white"/>
</mask>
<g mask="url(#mask13_837_28607)">
<mask id="mask14_837_28607" style="mask-type:luminance" maskUnits="userSpaceOnUse" x="387" y="12" width="27" height="30">
<path d="M390.859 17.2292C390.286 17.8126 389.776 18.4428 389.328 19.1251C389.078 19.5105 387.39 22.1511 387.474 24.2292C387.593 27.2084 393.234 26.2188 394.76 31.6355C396.437 37.6615 399.057 41.9428 404.812 41.1563C410.567 40.3699 414.156 35.3959 413.526 29.7032C412.896 24.0105 408.442 19.2396 406.406 15.4063C404.375 11.573 401.786 11.1146 401.036 15.2709C400.286 19.4219 401.541 17.9584 396.989 15.6251C392.442 13.2865 389.088 12.5105 390.859 17.2292Z" fill="white"/>
</mask>
<g mask="url(#mask14_837_28607)">
<path d="M389.672 26.5834C389.672 26.5834 387.807 23.8751 391 22.1251C394.198 20.3751 397.344 19.4688 400.125 22.7084C402.901 25.948 402.484 21.9428 405.714 24.9845C408.937 28.0261 403.464 20.5001 402.5 16.0157C401.536 11.5313 405.495 11.4532 405.495 11.4532L388.073 9.0105L382.536 17.0938L381.172 24.8126L389.672 26.5834Z" fill="#741B31"/>
</g>
</g>
<path d="M463.802 177.958L455.604 118.109L460.354 101.719H414.594L419.344 118.109L411.073 178.51C411.005 178.979 410.99 179.448 411.026 179.922C411.062 180.391 411.146 180.854 411.281 181.307C411.417 181.766 411.599 182.198 411.828 182.615C412.057 183.026 412.328 183.411 412.635 183.771C412.948 184.125 413.292 184.448 413.672 184.729C414.052 185.01 414.458 185.25 414.891 185.448C415.323 185.646 415.771 185.792 416.234 185.891C416.698 185.99 417.167 186.042 417.635 186.042H456.76C457.266 186.042 457.771 185.99 458.266 185.88C458.766 185.776 459.245 185.62 459.708 185.406C460.172 185.198 460.604 184.943 461.016 184.635C461.422 184.333 461.792 183.99 462.125 183.609C462.458 183.224 462.75 182.807 462.995 182.365C463.24 181.917 463.432 181.453 463.578 180.964C463.724 180.479 463.812 179.979 463.849 179.474C463.891 178.969 463.87 178.464 463.802 177.958Z" fill="white"/>
<mask id="mask15_837_28607" style="mask-type:luminance" maskUnits="userSpaceOnUse" x="410" y="101" width="29" height="86">
<path d="M410.578 101.458H438.552V186.083H410.578V101.458Z" fill="white"/>
</mask>
<g mask="url(#mask15_837_28607)">
<mask id="mask16_837_28607" style="mask-type:luminance" maskUnits="userSpaceOnUse" x="411" y="101" width="53" height="86">
<path d="M463.802 177.959L455.604 118.11L460.354 101.719H414.594L419.344 118.11L411.073 178.511C410.938 179.459 411.011 180.391 411.282 181.307C411.558 182.229 412.006 183.047 412.636 183.771C413.266 184.495 414.021 185.052 414.891 185.448C415.766 185.844 416.677 186.042 417.636 186.042H456.761C457.787 186.042 458.771 185.834 459.709 185.406C460.646 184.985 461.448 184.386 462.125 183.61C462.802 182.834 463.287 181.953 463.578 180.964C463.87 179.979 463.943 178.979 463.802 177.959Z" fill="white"/>
</mask>
<g mask="url(#mask16_837_28607)">
<path d="M416.714 96.3491C416.714 96.3491 420.985 112.453 424.798 114.333C428.615 116.208 435.282 116.495 437.438 117.401C439.594 118.307 427.646 117.12 424.459 125.938C421.271 134.761 419.391 170.61 420.417 177.38C421.438 184.146 434.188 187.735 434.188 187.735L423.719 190.13L407.209 187.505L411.021 119.906L408.537 98.5106L416.714 96.3491Z" fill="#F9D692"/>
</g>
</g>
</svg>
