<svg width="291" height="61" viewBox="0 0 291 61" fill="none" xmlns="http://www.w3.org/2000/svg">
<path d="M66.1142 26.792C65.7942 26.664 65.4635 26.5253 65.1222 26.376C64.8022 26.2267 64.4929 26.0027 64.1942 25.704C63.9169 25.4267 63.6715 25.032 63.4582 24.52C63.2449 23.9013 63.0955 23.2933 63.0102 22.696C62.9462 22.0987 62.9249 21.4053 62.9462 20.616C62.9462 19.5067 63.0209 18.5467 63.1702 17.736C63.3409 16.904 63.5969 16.0613 63.9382 15.208C63.9809 15.144 64.0555 14.9627 64.1622 14.664C64.2902 14.344 64.4289 14.0027 64.5782 13.64C64.7489 13.2773 64.8769 13 64.9622 12.808C65.1329 12.4453 65.3889 11.9653 65.7302 11.368C66.0929 10.7493 66.4769 10.152 66.8822 9.576C67.5009 8.65867 68.0129 7.93333 68.4182 7.4C68.8235 6.86667 69.2075 6.41867 69.5702 6.056C69.9329 5.69333 70.3382 5.352 70.7862 5.032C71.2555 4.69067 71.8529 4.27467 72.5782 3.784C73.0475 3.44267 73.5595 3.26133 74.1142 3.24C74.6902 3.21867 75.2235 3.34667 75.7142 3.624C76.2049 3.88 76.5675 4.264 76.8022 4.776C77.0369 5.224 77.1542 5.768 77.1542 6.408C77.1542 7.02667 77.0582 7.688 76.8662 8.392C76.6742 9.07467 76.4075 9.72533 76.0662 10.344C75.7249 10.9627 75.3302 11.4747 74.8822 11.88C74.6049 12.136 74.3489 12.232 74.1142 12.168C73.9009 12.104 73.6449 11.9333 73.3462 11.656C73.1542 11.2933 73.0475 11.08 73.0262 11.016C73.0262 10.952 73.0689 10.9093 73.1542 10.888C73.2822 10.7387 73.4529 10.4827 73.6662 10.12C73.8795 9.75733 74.0929 9.37333 74.3062 8.968C74.5195 8.54133 74.6689 8.2 74.7542 7.944C74.9249 7.048 75.0422 6.41867 75.1062 6.056C75.1702 5.672 75.1062 5.384 74.9142 5.192C74.8289 5.10667 74.7009 5.07467 74.5302 5.096C74.3809 5.11733 74.1249 5.224 73.7622 5.416C73.2715 5.62933 72.6315 6.10933 71.8422 6.856C71.0529 7.58133 70.3275 8.392 69.6662 9.288C68.8129 10.4187 68.0982 11.4213 67.5222 12.296C66.9462 13.1707 66.5089 14.0667 66.2102 14.984C66.1675 15.0693 66.0929 15.2293 65.9862 15.464C65.9009 15.6987 65.8582 15.816 65.8582 15.816C65.8795 15.9013 65.8475 16.1147 65.7622 16.456C65.6769 16.776 65.5809 17.0533 65.4742 17.288C65.2395 18.2693 65.1009 19.2933 65.0582 20.36C65.0155 21.4053 65.0689 22.3333 65.2182 23.144C65.3889 23.9547 65.6342 24.52 65.9542 24.84C66.2315 25.032 66.6049 25.096 67.0742 25.032C67.5649 24.968 68.1195 24.8187 68.7382 24.584C69.3569 24.3493 69.9862 24.0933 70.6262 23.816C71.1382 23.6027 71.6075 23.368 72.0342 23.112C72.4609 22.856 72.7809 22.632 72.9942 22.44C73.1649 22.312 73.3782 22.184 73.6342 22.056C73.9115 21.9067 74.1462 21.832 74.3382 21.832C74.6369 21.7253 74.8075 21.6827 74.8502 21.704C74.8929 21.7253 74.9142 21.8213 74.9142 21.992C74.9142 22.2907 74.7435 22.6213 74.4022 22.984C74.0822 23.3467 73.6662 23.6773 73.1542 23.976C72.9835 24.1467 72.7595 24.328 72.4822 24.52C72.2049 24.712 71.9169 24.8613 71.6182 24.968C71.1702 25.3093 70.6155 25.64 69.9542 25.96C69.2929 26.28 68.6209 26.5253 67.9382 26.696C67.2769 26.8667 66.6689 26.8987 66.1142 26.792ZM78.0362 25C77.6309 25.1067 77.3002 25.0213 77.0442 24.744C76.8095 24.4667 76.6709 24.04 76.6282 23.464C76.5855 22.888 76.6495 22.2053 76.8202 21.416C76.9269 21.16 77.0122 20.9147 77.0762 20.68C77.1402 20.424 77.1722 20.2213 77.1722 20.072C77.2149 19.8587 77.3002 19.5493 77.4282 19.144C77.5562 18.7173 77.6949 18.28 77.8442 17.832C77.9935 17.384 78.1322 16.9893 78.2602 16.648C78.4095 16.2853 78.5055 16.0613 78.5482 15.976C78.6335 15.976 78.7082 15.9013 78.7722 15.752C78.8362 15.6027 78.8682 15.4533 78.8682 15.304C78.8682 15.1333 78.9002 14.9413 78.9642 14.728C79.0495 14.5147 79.1349 14.3653 79.2202 14.28C79.2202 14.1733 79.2415 14.056 79.2842 13.928C79.3482 13.7787 79.3802 13.6613 79.3802 13.576C79.3802 13.4907 79.4015 13.4053 79.4442 13.32C79.5082 13.2347 79.5402 13.1493 79.5402 13.064C79.6895 12.7867 79.8815 12.3493 80.1162 11.752C80.3722 11.1333 80.6389 10.4507 80.9162 9.704C81.2149 8.95733 81.4922 8.22133 81.7482 7.496C82.0042 6.77067 82.2069 6.16267 82.3562 5.672C82.5269 5.16 82.6122 4.85067 82.6122 4.744C82.6122 4.57333 82.6549 4.44533 82.7402 4.36C82.8255 4.27467 82.9535 4.232 83.1242 4.232C83.1882 4.168 83.2629 4.12533 83.3482 4.104C83.4549 4.08267 83.5509 4.072 83.6362 4.072C83.6362 4.072 83.6789 4.11467 83.7642 4.2C83.8495 4.28533 83.9775 4.41333 84.1482 4.584C84.3189 4.73333 84.4149 4.904 84.4362 5.096C84.4789 5.288 84.5002 5.512 84.5002 5.768C84.5002 6.04533 84.4682 6.29067 84.4042 6.504C84.3402 6.71733 84.2122 7.02667 84.0202 7.432C83.8282 7.83733 83.5295 8.46667 83.1242 9.32C82.9535 9.74667 82.7722 10.152 82.5802 10.536C82.3882 10.8987 82.2922 11.1227 82.2922 11.208C82.2922 11.2933 82.2495 11.4213 82.1642 11.592C82.1002 11.7627 82.0255 11.976 81.9402 12.232C81.8549 12.4027 81.7375 12.6587 81.5882 13C81.4389 13.32 81.2789 13.672 81.1082 14.056C80.9589 14.4187 80.8309 14.7387 80.7242 15.016C80.6175 15.272 80.5642 15.4213 80.5642 15.464C80.5642 15.5493 80.5535 15.6347 80.5322 15.72C80.5322 15.8053 80.4895 15.8907 80.4042 15.976C80.3189 15.976 80.2655 16.04 80.2442 16.168C80.2442 16.2747 80.2442 16.328 80.2442 16.328C80.2442 16.5413 80.0735 17.1067 79.7322 18.024C79.3909 19.1973 79.0709 20.2747 78.7722 21.256C78.4949 22.2373 78.3562 23.0267 78.3562 23.624C78.3562 24.136 78.3455 24.4773 78.3242 24.648C78.3029 24.7973 78.2069 24.9147 78.0362 25ZM82.1944 23.976C82.0238 23.8053 81.8958 23.592 81.8104 23.336C81.7464 23.08 81.7251 22.824 81.7464 22.568C81.7678 22.312 81.8211 22.0987 81.9064 21.928C81.9064 21.7573 81.9278 21.6293 81.9704 21.544C82.0344 21.4373 82.0558 21.3413 82.0344 21.256C82.0131 21.1707 82.0344 21.0213 82.0984 20.808C82.1624 20.5947 82.2264 20.392 82.2904 20.2C82.4398 19.8587 82.5998 19.4533 82.7704 18.984C82.9411 18.4933 83.1011 18.0133 83.2504 17.544C83.3998 17.0747 83.5278 16.6693 83.6344 16.328C83.7411 15.9867 83.8051 15.7733 83.8264 15.688C83.8264 15.432 83.9971 15.2933 84.3384 15.272C84.5944 15.1867 84.7864 15.1867 84.9144 15.272C85.0424 15.336 85.2131 15.5387 85.4264 15.88C85.5971 16.0507 85.6611 16.3067 85.6184 16.648C85.5758 16.9893 85.4371 17.416 85.2024 17.928C85.1171 18.0987 85.0104 18.344 84.8824 18.664C84.7758 18.984 84.7011 19.272 84.6584 19.528C84.5731 19.6987 84.4664 19.944 84.3384 20.264C84.2318 20.5627 84.1358 20.8507 84.0504 21.128C84.0078 21.2347 83.9651 21.3947 83.9224 21.608C83.8798 21.8 83.8264 22.0133 83.7624 22.248C83.6984 22.4613 83.6131 22.6533 83.5064 22.824C83.3144 23.6987 83.1331 24.2107 82.9624 24.36C82.8131 24.5093 82.5571 24.3813 82.1944 23.976ZM85.2984 10.984C85.1918 10.8773 85.0958 10.728 85.0104 10.536C84.9251 10.3227 84.8718 10.1307 84.8504 9.96C84.8291 9.768 84.8504 9.672 84.9144 9.672C85.0851 9.65067 85.2878 9.46933 85.5224 9.128C85.7571 8.78667 85.8531 8.488 85.8104 8.232C85.8104 8.14667 85.8424 8.072 85.9064 8.008C85.9704 7.92267 86.0451 7.86933 86.1304 7.848C86.3864 7.67733 86.6318 7.656 86.8664 7.784C87.1224 7.89067 87.3571 8.11467 87.5704 8.456C87.7624 8.86133 87.8158 9.20267 87.7304 9.48C87.6451 9.736 87.4104 10.0987 87.0264 10.568C86.7064 10.9947 86.4078 11.2293 86.1304 11.272C85.8744 11.3147 85.5971 11.2187 85.2984 10.984ZM90.5312 24.264C90.0619 24.264 89.7099 24.2427 89.4752 24.2C89.2405 24.1573 89.0592 24.0933 88.9312 24.008C88.8032 23.9227 88.6539 23.8053 88.4832 23.656C88.3979 23.4853 88.2912 23.304 88.1632 23.112C88.0352 22.92 87.9285 22.7813 87.8432 22.696C87.7579 22.376 87.7152 21.96 87.7152 21.448C87.7365 20.936 87.8005 20.3813 87.9072 19.784C88.0352 19.1867 88.2059 18.632 88.4192 18.12C88.5045 17.9493 88.5792 17.7787 88.6432 17.608C88.7072 17.4373 88.7392 17.352 88.7392 17.352C88.7392 17.2453 88.8672 16.9893 89.1232 16.584C89.4005 16.1787 89.6992 15.752 90.0192 15.304C90.3605 14.856 90.6379 14.536 90.8512 14.344C91.0005 14.1733 91.2245 13.992 91.5232 13.8C91.8432 13.608 92.1205 13.4693 92.3552 13.384C92.5899 13.2987 92.8245 13.224 93.0592 13.16C93.3152 13.096 93.6032 13.064 93.9232 13.064C94.2219 13.064 94.4992 13.128 94.7552 13.256C95.0112 13.384 95.2565 13.608 95.4912 13.928C95.8752 14.312 96.0885 14.696 96.1312 15.08C96.1952 15.4427 96.1845 15.816 96.0992 16.2C95.9925 16.6267 95.8539 16.9573 95.6832 17.192C95.5125 17.4053 95.3205 17.5013 95.1072 17.48C94.8939 17.4587 94.6485 17.2987 94.3712 17C94.2859 16.8293 94.2432 16.6907 94.2432 16.584C94.2432 16.456 94.2859 16.2747 94.3712 16.04C94.4565 15.7413 94.4565 15.432 94.3712 15.112C94.2859 14.792 94.1472 14.632 93.9552 14.632C93.6779 14.632 93.3685 14.76 93.0272 15.016C92.7072 15.2507 92.3765 15.5493 92.0352 15.912C91.8859 16.0827 91.6725 16.3493 91.3952 16.712C91.1392 17.0533 90.8832 17.4373 90.6272 17.864C90.3712 18.2693 90.1579 18.664 89.9872 19.048C89.7525 19.752 89.5605 20.3173 89.4112 20.744C89.2832 21.1707 89.2192 21.384 89.2192 21.384C89.2192 21.4693 89.2405 21.5547 89.2832 21.64C89.3472 21.704 89.3792 21.7787 89.3792 21.864C89.3792 22.12 89.5285 22.3227 89.8272 22.472C90.0619 22.6213 90.3392 22.7067 90.6592 22.728C90.9792 22.728 91.3739 22.6213 91.8432 22.408C92.1845 22.2373 92.5045 22.0133 92.8032 21.736C93.1232 21.4587 93.4539 21.2133 93.7952 21C94.0299 20.8507 94.2112 20.7227 94.3392 20.616C94.4885 20.5093 94.5632 20.4987 94.5632 20.584C94.5632 20.6693 94.5952 20.712 94.6592 20.712C94.7232 20.712 94.7979 20.6693 94.8832 20.584C95.0112 20.4133 95.1499 20.3067 95.2992 20.264C95.4485 20.2 95.5765 20.1787 95.6832 20.2C95.8112 20.2 95.8752 20.232 95.8752 20.296C95.8325 20.488 95.8752 20.648 96.0032 20.776C96.0032 20.8613 95.9712 20.9787 95.9072 21.128C95.8645 21.256 95.8005 21.3627 95.7152 21.448C95.6085 21.5973 95.4485 21.768 95.2352 21.96C95.0432 22.152 94.8619 22.3227 94.6912 22.472C94.5205 22.6 94.4352 22.664 94.4352 22.664C94.3499 22.6427 94.2645 22.664 94.1792 22.728C94.1152 22.792 94.0405 22.8667 93.9552 22.952C93.7845 23.1013 93.6245 23.2187 93.4752 23.304C93.3259 23.368 93.2085 23.4 93.1232 23.4C92.9739 23.4853 92.8565 23.5387 92.7712 23.56C92.7072 23.5813 92.6752 23.6347 92.6752 23.72C92.4619 23.9333 92.1952 24.0827 91.8752 24.168C91.5765 24.232 91.1285 24.264 90.5312 24.264ZM106.006 25.064C105.921 25.1493 105.686 25.1813 105.302 25.16C104.939 25.1387 104.598 25.0533 104.278 24.904C104.235 24.84 104.161 24.776 104.054 24.712C103.947 24.6267 103.841 24.5307 103.734 24.424C103.649 24.3173 103.574 24.2213 103.51 24.136C103.467 24.072 103.361 23.9547 103.19 23.784C103.019 23.592 102.849 23.4107 102.678 23.24C102.507 23.0693 102.39 22.952 102.326 22.888C102.241 22.7173 102.07 22.504 101.814 22.248C101.558 21.9707 101.313 21.7147 101.078 21.48C100.929 21.2667 100.779 21.0853 100.63 20.936C100.481 20.7867 100.353 20.68 100.246 20.616C100.139 20.5307 100.054 20.488 99.9899 20.488C99.9899 20.488 99.9473 20.6267 99.8619 20.904C99.7979 21.16 99.7019 21.4907 99.5739 21.896C99.4673 22.28 99.3499 22.6747 99.2219 23.08C99.1153 23.464 99.0299 23.7733 98.9659 24.008C98.8166 24.3067 98.6886 24.5093 98.5819 24.616C98.4753 24.7227 98.3366 24.776 98.1659 24.776C97.9313 24.776 97.7179 24.6693 97.5259 24.456C97.3553 24.2427 97.2699 23.9333 97.2699 23.528C97.1846 23.2293 97.2913 22.5787 97.5899 21.576C97.8886 20.5733 98.3473 19.2933 98.9659 17.736C99.0513 17.416 99.1579 17.0853 99.2859 16.744C99.4139 16.3813 99.5206 16.0827 99.6059 15.848C99.8193 15.144 100.043 14.4933 100.278 13.896C100.534 13.2773 100.801 12.6587 101.078 12.04C101.355 11.4 101.643 10.7173 101.942 9.992C102.134 9.608 102.273 9.33067 102.358 9.16C102.443 8.968 102.539 8.776 102.646 8.584C102.753 8.37067 102.913 8.06133 103.126 7.656C103.595 6.78133 103.969 6.09867 104.246 5.608C104.523 5.11733 104.737 4.75467 104.886 4.52C105.035 4.28533 105.163 4.11467 105.27 4.008C105.377 3.90133 105.505 3.82667 105.654 3.784C105.803 3.74133 105.953 3.74133 106.102 3.784C106.251 3.80533 106.379 3.88 106.486 4.008C106.657 4.17867 106.753 4.36 106.774 4.552C106.817 4.72267 106.774 4.95733 106.646 5.256C106.539 5.55467 106.326 5.97067 106.006 6.504C105.835 6.888 105.697 7.16533 105.59 7.336C105.483 7.50667 105.377 7.67733 105.27 7.848C105.163 8.01867 104.993 8.31733 104.758 8.744C104.715 8.872 104.651 9.01067 104.566 9.16C104.481 9.30933 104.385 9.384 104.278 9.384C104.278 9.448 104.246 9.576 104.182 9.768C104.118 9.96 104.043 10.1413 103.958 10.312C103.894 10.5467 103.787 10.8027 103.638 11.08C103.51 11.336 103.414 11.5493 103.35 11.72C103.243 11.976 103.073 12.328 102.838 12.776C102.625 13.224 102.411 13.6613 102.198 14.088C102.006 14.4933 101.889 14.8133 101.846 15.048C101.846 15.1333 101.91 15.1227 102.038 15.016C102.166 14.9093 102.305 14.8133 102.454 14.728C102.774 14.472 103.137 14.216 103.542 13.96C103.969 13.6827 104.374 13.448 104.758 13.256C105.163 13.0427 105.494 12.9147 105.75 12.872C106.07 12.7867 106.326 12.744 106.518 12.744C106.731 12.744 106.945 12.7867 107.158 12.872C107.329 12.9573 107.467 13.0747 107.574 13.224C107.702 13.3733 107.809 13.544 107.894 13.736C108.001 13.928 108.075 14.1627 108.118 14.44C108.118 14.632 108.043 14.952 107.894 15.4C107.745 15.848 107.563 16.2853 107.35 16.712C107.137 17.1173 106.923 17.4053 106.71 17.576C106.561 17.64 106.443 17.704 106.358 17.768C106.273 17.832 106.23 17.864 106.23 17.864C106.23 17.9493 106.187 18.056 106.102 18.184C106.038 18.312 105.921 18.4187 105.75 18.504C105.665 18.5893 105.569 18.696 105.462 18.824C105.355 18.952 105.302 19.048 105.302 19.112C105.302 19.112 105.302 19.144 105.302 19.208C105.302 19.2507 105.302 19.272 105.302 19.272C105.217 19.272 105.089 19.336 104.918 19.464C104.769 19.592 104.577 19.7413 104.342 19.912C104.107 20.1467 103.937 20.2747 103.83 20.296C103.745 20.3173 103.617 20.36 103.446 20.424C103.403 20.4667 103.35 20.4987 103.286 20.52C103.243 20.5413 103.19 20.5627 103.126 20.584C103.083 20.6053 103.041 20.6267 102.998 20.648C102.977 20.6693 102.966 20.7013 102.966 20.744C102.966 20.8293 103.062 21.0107 103.254 21.288C103.467 21.544 103.713 21.832 103.99 22.152C104.289 22.472 104.566 22.7707 104.822 23.048C105.099 23.304 105.302 23.4747 105.43 23.56C105.643 23.6453 105.793 23.7947 105.878 24.008C105.985 24.2 106.049 24.4027 106.07 24.616C106.091 24.808 106.07 24.9573 106.006 25.064ZM102.166 19.4C102.273 19.3147 102.497 19.144 102.838 18.888C103.179 18.6107 103.553 18.312 103.958 17.992C104.363 17.6507 104.726 17.3307 105.046 17.032C105.387 16.712 105.622 16.4773 105.75 16.328C105.899 16.1787 106.049 15.9227 106.198 15.56C106.347 15.1973 106.369 14.9093 106.262 14.696C106.241 14.6107 106.049 14.6533 105.686 14.824C105.323 14.9947 104.907 15.1973 104.438 15.432C104.075 15.6453 103.649 15.9227 103.158 16.264C102.689 16.6053 102.241 16.968 101.814 17.352C101.409 17.736 101.099 18.1093 100.886 18.472C100.843 18.6213 100.886 18.792 101.014 18.984C101.142 19.176 101.313 19.3253 101.526 19.432C101.739 19.5173 101.953 19.5067 102.166 19.4ZM117.059 23.272C116.91 23.2933 116.75 23.2933 116.579 23.272C116.43 23.2293 116.281 23.1547 116.131 23.048C115.961 22.8773 115.843 22.7493 115.779 22.664C115.715 22.5573 115.694 22.3973 115.715 22.184C115.758 21.9707 115.833 21.64 115.939 21.192C116.046 20.8507 116.174 20.3813 116.323 19.784C116.473 19.1653 116.633 18.5573 116.803 17.96C116.867 17.6187 116.953 17.2667 117.059 16.904C117.187 16.5413 117.315 16.2107 117.443 15.912C117.571 15.592 117.667 15.3467 117.731 15.176C117.902 14.5787 118.062 14.056 118.211 13.608C118.382 13.16 118.585 12.648 118.819 12.072C119.054 11.4747 119.342 10.6853 119.683 9.704C120.153 8.424 120.505 7.45333 120.739 6.792C120.995 6.10933 121.177 5.61867 121.283 5.32C121.411 5 121.497 4.75467 121.539 4.584C121.539 4.41333 121.582 4.28533 121.667 4.2C121.774 4.11467 121.902 4.072 122.051 4.072C122.35 4.072 122.585 4.22133 122.755 4.52C122.947 4.79733 123.065 5.13867 123.107 5.544C123.15 5.928 123.086 6.29067 122.915 6.632C122.574 7.4 122.211 8.31733 121.827 9.384C121.443 10.4293 121.07 11.464 120.707 12.488C120.345 13.4907 120.003 14.344 119.683 15.048C119.683 15.1333 119.651 15.2827 119.587 15.496C119.523 15.7093 119.449 15.9013 119.363 16.072C119.278 16.2427 119.193 16.4027 119.107 16.552C119.043 16.7013 119.011 16.776 119.011 16.776C119.011 16.8613 118.979 17.0213 118.915 17.256C118.851 17.4907 118.766 17.7787 118.659 18.12C118.574 18.376 118.467 18.7067 118.339 19.112C118.233 19.5173 118.158 19.8587 118.115 20.136C118.222 19.944 118.446 19.656 118.787 19.272C119.129 18.888 119.449 18.5573 119.747 18.28C120.089 17.9813 120.473 17.6507 120.899 17.288C121.326 16.9253 121.667 16.6587 121.923 16.488C122.179 16.3173 122.403 16.168 122.595 16.04C122.809 15.8907 122.915 15.816 122.915 15.816C122.915 15.7307 122.947 15.688 123.011 15.688C123.097 15.6667 123.182 15.656 123.267 15.656C123.353 15.656 123.395 15.6453 123.395 15.624C123.417 15.6027 123.427 15.5493 123.427 15.464C123.427 15.3573 123.545 15.2613 123.779 15.176C124.035 15.0907 124.323 15.0267 124.643 14.984C124.985 14.92 125.262 14.888 125.475 14.888C125.731 14.888 125.934 14.9413 126.083 15.048C126.233 15.1547 126.425 15.3893 126.659 15.752C126.915 16.0933 127.075 16.5093 127.139 17C127.225 17.4693 127.182 17.96 127.011 18.472C127.011 18.6427 126.979 18.888 126.915 19.208C126.873 19.5067 126.851 19.8267 126.851 20.168L126.659 21.192H127.171C127.342 21.192 127.502 21.224 127.651 21.288C127.801 21.3307 127.875 21.352 127.875 21.352C127.961 21.4373 128.046 21.5227 128.131 21.608C128.217 21.672 128.302 21.704 128.387 21.704C128.643 21.704 128.739 21.8107 128.675 22.024C128.611 22.216 128.451 22.3973 128.195 22.568C127.683 22.9093 127.214 23.08 126.787 23.08C126.382 23.08 126.009 22.9093 125.667 22.568C125.326 22.2053 125.113 21.8 125.027 21.352C124.942 20.904 124.985 20.3387 125.155 19.656C125.241 18.7173 125.283 18.0347 125.283 17.608C125.305 17.16 125.198 16.936 124.963 16.936C124.75 16.936 124.377 17.0853 123.843 17.384C123.31 17.6613 122.713 18.0453 122.051 18.536C121.39 19.0267 120.739 19.5707 120.099 20.168C119.459 20.7653 118.926 21.384 118.499 22.024C118.243 22.344 117.998 22.632 117.763 22.888C117.529 23.1227 117.294 23.2507 117.059 23.272ZM133.183 25.096C132.245 25.096 131.477 24.744 130.879 24.04C130.282 23.3147 129.994 22.4187 130.015 21.352C130.058 20.584 130.207 19.7627 130.463 18.888C130.741 17.992 131.103 17.1387 131.551 16.328C131.999 15.496 132.49 14.7707 133.023 14.152C133.557 13.5333 134.111 13.096 134.687 12.84C134.901 12.7333 135.125 12.648 135.359 12.584C135.615 12.52 135.871 12.488 136.127 12.488C136.362 12.488 136.607 12.5307 136.863 12.616C137.119 12.68 137.333 12.7547 137.503 12.84C137.866 12.9893 138.143 13.1707 138.335 13.384C138.527 13.5973 138.698 13.928 138.847 14.376C138.911 14.7813 138.943 15.0693 138.943 15.24C138.943 15.4107 138.89 15.6667 138.783 16.008C138.527 16.776 138.197 17.4373 137.791 17.992C137.386 18.5467 136.842 19.016 136.159 19.4C135.989 19.5067 135.786 19.592 135.551 19.656C135.338 19.6987 135.114 19.72 134.879 19.72C134.453 19.72 134.037 19.6453 133.631 19.496C133.247 19.3253 132.938 19.08 132.703 18.76L132.479 18.504L132.383 18.76C132.17 19.336 131.999 19.8693 131.871 20.36C131.765 20.8507 131.711 21.2987 131.711 21.704C131.711 21.96 131.733 22.2053 131.775 22.44C131.839 22.6747 131.925 22.8773 132.031 23.048C132.117 23.176 132.255 23.272 132.447 23.336C132.661 23.3787 132.885 23.4 133.119 23.4C133.269 23.4 133.418 23.4 133.567 23.4C133.738 23.3787 133.898 23.336 134.047 23.272C134.41 23.144 134.698 23.0053 134.911 22.856C135.146 22.7067 135.381 22.5467 135.615 22.376L135.743 22.312H135.711C135.967 22.184 136.191 22.056 136.383 21.928C136.597 21.8 136.703 21.736 136.703 21.736C136.789 21.736 136.874 21.6827 136.959 21.576C137.13 21.4907 137.343 21.5227 137.599 21.672C137.877 21.8213 138.015 22.0133 138.015 22.248C137.994 22.3547 137.898 22.5253 137.727 22.76C137.557 22.9733 137.365 23.176 137.151 23.368C136.959 23.56 136.799 23.6667 136.671 23.688C136.65 23.7093 136.575 23.752 136.447 23.816C136.319 23.8587 136.234 23.9013 136.191 23.944H136.223C136.031 24.2 135.839 24.328 135.647 24.328H135.391C135.306 24.4773 135.029 24.648 134.559 24.84C134.09 25.0107 133.631 25.096 133.183 25.096ZM134.623 18.056C135.007 18.056 135.338 17.9493 135.615 17.736C135.914 17.5013 136.17 17.2453 136.383 16.968C136.81 16.392 137.055 15.8373 137.119 15.304C137.205 14.7493 137.141 14.3653 136.927 14.152C136.799 14.088 136.682 14.056 136.575 14.056C136.49 14.0347 136.309 14.0667 136.031 14.152C135.839 14.1947 135.573 14.3547 135.231 14.632C134.89 14.9093 134.549 15.2187 134.207 15.56C133.887 15.9013 133.642 16.1893 133.471 16.424L133.055 17.096C133.226 17.032 133.386 17 133.535 17C133.706 16.9787 133.802 16.9893 133.823 17.032C133.823 17.224 133.855 17.4053 133.919 17.576C134.005 17.7253 134.101 17.8427 134.207 17.928C134.335 18.0133 134.474 18.056 134.623 18.056ZM141.829 24.008C141.765 24.0293 141.659 24.0187 141.509 23.976C141.36 23.9333 141.211 23.88 141.061 23.816C140.912 23.752 140.816 23.6987 140.773 23.656C140.688 23.5707 140.603 23.4427 140.517 23.272C140.453 23.1013 140.453 22.856 140.517 22.536C140.581 22.1947 140.795 21.7573 141.157 21.224C141.264 21.0107 141.392 20.6907 141.541 20.264C141.691 19.8373 141.84 19.3893 141.989 18.92C142.16 18.4293 142.309 17.992 142.437 17.608C142.587 17.224 142.693 16.9573 142.757 16.808C142.8 16.4453 142.779 16.1893 142.693 16.04C142.629 15.8693 142.448 15.7733 142.149 15.752C141.936 15.752 141.765 15.7307 141.637 15.688C141.531 15.6453 141.477 15.432 141.477 15.048C141.52 14.7493 141.595 14.5467 141.701 14.44C141.829 14.312 142 14.1733 142.213 14.024C142.427 13.9173 142.64 13.8427 142.853 13.8C143.088 13.7573 143.312 13.7467 143.525 13.768C143.739 13.7893 143.909 13.864 144.037 13.992C144.187 14.0773 144.283 14.2693 144.325 14.568C144.368 14.8453 144.389 15.1333 144.389 15.432C144.411 15.7307 144.432 15.9547 144.453 16.104C144.667 15.9333 144.955 15.6987 145.317 15.4C145.701 15.08 146.032 14.7813 146.309 14.504C146.651 14.2693 147.056 14.0347 147.525 13.8C147.995 13.544 148.336 13.416 148.549 13.416C148.784 13.416 149.019 13.48 149.253 13.608C149.488 13.7147 149.648 13.8533 149.733 14.024C149.947 14.3867 150.043 14.7067 150.021 14.984C150.021 15.2613 149.904 15.5493 149.669 15.848C149.456 16.1253 149.189 16.3173 148.869 16.424C148.571 16.5307 148.379 16.584 148.293 16.584C148.165 16.584 148.005 16.488 147.813 16.296C147.621 16.104 147.515 15.944 147.493 15.816C147.493 15.752 147.355 15.816 147.077 16.008C146.821 16.1787 146.533 16.4027 146.213 16.68C145.893 16.936 145.627 17.1707 145.413 17.384C145.051 17.832 144.667 18.44 144.261 19.208C143.856 19.976 143.376 20.904 142.821 21.992C142.565 22.5253 142.384 22.984 142.277 23.368C142.171 23.7307 142.021 23.944 141.829 24.008ZM153.009 24.232C152.177 23.8907 151.633 23.4213 151.377 22.824C151.142 22.2053 151.099 21.256 151.249 19.976C151.291 19.3147 151.313 18.8773 151.313 18.664C151.313 18.4507 151.195 18.2373 150.961 18.024C150.897 17.9387 150.779 17.8213 150.609 17.672C150.459 17.5227 150.395 17.3947 150.417 17.288C150.395 17.1387 150.406 16.9787 150.449 16.808C150.491 16.616 150.555 16.52 150.641 16.52C150.726 16.52 150.811 16.4987 150.897 16.456C151.003 16.4133 151.099 16.4133 151.185 16.456C151.27 16.456 151.366 16.4667 151.473 16.488C151.579 16.5093 151.633 16.5627 151.633 16.648C151.718 16.7973 151.857 16.8187 152.049 16.712C152.241 16.584 152.443 16.3067 152.657 15.88C152.87 15.5387 153.147 15.1973 153.489 14.856C153.851 14.5147 154.203 14.2053 154.545 13.928C154.907 13.6293 155.206 13.416 155.441 13.288C155.547 13.2453 155.707 13.192 155.921 13.128C156.134 13.064 156.358 13.0107 156.593 12.968C156.849 12.9253 157.062 12.9147 157.233 12.936C157.617 12.9573 157.937 13.064 158.193 13.256C158.47 13.448 158.726 13.672 158.961 13.928C159.238 14.12 159.409 14.376 159.473 14.696C159.558 15.016 159.579 15.3573 159.537 15.72C159.494 16.0827 159.398 16.4133 159.249 16.712C159.185 16.9253 159.003 17.1813 158.705 17.48C158.406 17.7787 158.065 18.0667 157.681 18.344C157.297 18.6213 156.945 18.824 156.625 18.952C156.347 19.016 155.985 19.0693 155.537 19.112C155.11 19.1547 154.705 19.176 154.321 19.176C153.958 19.1547 153.713 19.112 153.585 19.048C153.435 18.9627 153.318 19.08 153.233 19.4C153.147 19.72 153.083 20.1787 153.041 20.776C152.998 21.2453 152.998 21.5867 153.041 21.8C153.083 22.0133 153.126 22.1627 153.169 22.248C153.318 22.3973 153.521 22.5893 153.777 22.824C154.054 23.0373 154.438 23.0693 154.929 22.92C155.334 22.8133 155.729 22.536 156.113 22.088C156.518 21.64 156.891 21.2773 157.233 21C157.318 20.8507 157.457 20.7653 157.649 20.744C157.862 20.7013 158.086 20.712 158.321 20.776C158.555 20.9253 158.651 21.1067 158.609 21.32C158.587 21.512 158.481 21.8107 158.289 22.216C158.225 22.3653 158.075 22.5573 157.841 22.792C157.627 23.0053 157.382 23.2293 157.105 23.464C156.849 23.6773 156.614 23.848 156.401 23.976C155.761 24.3173 155.163 24.4987 154.609 24.52C154.054 24.52 153.521 24.424 153.009 24.232ZM154.897 17.736C155.366 17.6293 155.739 17.5547 156.017 17.512C156.294 17.4693 156.561 17.352 156.817 17.16C157.073 16.9467 157.393 16.552 157.777 15.976C157.862 15.7413 157.883 15.5067 157.841 15.272C157.819 15.0373 157.766 14.8773 157.681 14.792C157.489 14.5787 157.254 14.5147 156.977 14.6C156.721 14.664 156.475 14.7813 156.241 14.952C156.091 15.016 155.867 15.176 155.569 15.432C155.291 15.6667 155.014 15.944 154.737 16.264C154.459 16.5627 154.235 16.84 154.065 17.096C153.894 17.352 153.851 17.5013 153.937 17.544C153.894 17.6293 154.011 17.6827 154.289 17.704C154.587 17.7253 154.79 17.736 154.897 17.736ZM170.525 26.6C169.821 26.4933 169.341 26.2267 169.085 25.8C168.85 25.3947 168.797 24.7653 168.925 23.912C169.053 23.5067 169.128 23.144 169.149 22.824C169.192 22.4827 169.288 22.2693 169.437 22.184C169.437 22.184 169.448 22.152 169.469 22.088C169.512 22.024 169.501 21.96 169.437 21.896C169.437 21.6187 169.533 21.2347 169.725 20.744C169.768 20.616 169.821 20.4667 169.885 20.296C169.97 20.104 170.013 20.008 170.013 20.008C169.906 19.8373 169.906 19.6987 170.013 19.592C170.12 19.4853 170.226 19.3893 170.333 19.304C170.461 19.1973 170.472 19.08 170.365 18.952C170.322 18.8667 170.376 18.6747 170.525 18.376C170.674 18.056 170.845 17.7253 171.037 17.384C171.229 17.0427 171.357 16.776 171.421 16.584C171.421 16.5413 171.474 16.392 171.581 16.136C171.688 15.88 171.816 15.5813 171.965 15.24C172.114 14.8987 172.253 14.5893 172.381 14.312C172.53 14.0347 172.626 13.8533 172.669 13.768C172.882 13.6613 172.797 13.5867 172.413 13.544C172.029 13.5013 171.624 13.4907 171.197 13.512C170.536 13.4907 170.002 13.4587 169.597 13.416C169.213 13.3733 168.893 13.2773 168.637 13.128C168.381 12.8293 168.285 12.616 168.349 12.488C168.434 12.3387 168.69 12.2533 169.117 12.232C169.394 12.2107 169.608 12.2 169.757 12.2C169.928 12.2 170.141 12.1893 170.397 12.168C170.674 12.1253 171.101 12.072 171.677 12.008L173.309 11.88L173.405 11.336C173.576 11.0587 173.714 10.8133 173.821 10.6C173.949 10.3653 174.056 10.1307 174.141 9.896C174.226 9.66133 174.29 9.416 174.333 9.16C174.333 9.16 174.429 8.98933 174.621 8.648C174.813 8.28533 174.93 7.912 174.973 7.528C175.229 7.10133 175.453 6.71733 175.645 6.376C175.837 6.01333 175.954 5.78933 175.997 5.704C176.232 5.512 176.392 5.416 176.477 5.416C176.584 5.416 176.797 5.52267 177.117 5.736C177.309 5.84267 177.48 5.97067 177.629 6.12C177.778 6.26933 177.874 6.42933 177.917 6.6C177.96 6.74933 177.896 6.89867 177.725 7.048C177.682 7.13333 177.618 7.29333 177.533 7.528C177.448 7.74133 177.384 7.92267 177.341 8.072C177.213 8.22133 177.053 8.46667 176.861 8.808C176.69 9.128 176.573 9.45867 176.509 9.8C176.338 10.1627 176.178 10.4933 176.029 10.792C175.88 11.0693 175.762 11.208 175.677 11.208C175.72 11.4213 175.848 11.528 176.061 11.528C176.274 11.5067 176.626 11.4853 177.117 11.464C177.522 11.4213 177.8 11.3787 177.949 11.336C178.12 11.272 178.312 11.2933 178.525 11.4C178.632 11.5493 178.717 11.72 178.781 11.912C178.845 12.104 178.856 12.2853 178.813 12.456C178.792 12.6053 178.706 12.712 178.557 12.776C178.45 12.776 178.226 12.84 177.885 12.968C177.565 13.0747 177.16 13.1387 176.669 13.16L174.973 13.32L174.429 14.408C174.28 14.6853 174.152 14.9413 174.045 15.176C173.938 15.3893 173.864 15.5173 173.821 15.56C173.821 15.688 173.746 15.88 173.597 16.136C173.469 16.392 173.33 16.6693 173.181 16.968C173.053 17.3307 172.904 17.6613 172.733 17.96C172.584 18.2587 172.509 18.408 172.509 18.408C172.424 18.408 172.381 18.472 172.381 18.6C172.488 18.856 172.456 19.048 172.285 19.176C172.178 19.24 172.082 19.336 171.997 19.464C171.933 19.5707 171.901 19.624 171.901 19.624C171.986 19.7093 171.997 19.816 171.933 19.944C171.89 20.072 171.826 20.2107 171.741 20.36C171.741 20.5307 171.688 20.776 171.581 21.096C171.496 21.416 171.4 21.7147 171.293 21.992C171.314 22.376 171.336 22.6213 171.357 22.728C171.378 22.8347 171.432 22.8773 171.517 22.856C171.624 22.8773 171.72 22.8773 171.805 22.856C171.89 22.8347 171.976 22.824 172.061 22.824C172.36 22.696 172.2 23.4427 171.581 25.064C171.24 25.5973 171.005 25.9813 170.877 26.216C170.749 26.472 170.632 26.6 170.525 26.6ZM179.807 24.52C179.529 24.52 179.305 24.4667 179.135 24.36C178.985 24.2533 178.793 24.104 178.559 23.912C178.153 23.4853 177.865 23.08 177.695 22.696C177.524 22.2907 177.471 21.9067 177.535 21.544C177.599 21.3733 177.62 21.2133 177.599 21.064C177.599 20.8933 177.599 20.808 177.599 20.808C177.492 20.7013 177.46 20.6373 177.503 20.616C177.545 20.5733 177.588 20.5093 177.631 20.424C177.759 20.424 177.801 20.3067 177.759 20.072C177.716 19.9013 177.801 19.528 178.015 18.952C178.228 18.376 178.495 17.832 178.815 17.32C178.943 17.1067 179.135 16.8293 179.391 16.488C179.647 16.1253 179.924 15.7733 180.223 15.432C180.543 15.0693 180.831 14.7813 181.087 14.568C181.62 14.12 182.089 13.7893 182.495 13.576C182.9 13.3627 183.337 13.2027 183.807 13.096C184.276 12.9893 184.596 12.936 184.767 12.936C184.959 12.936 185.215 13.1067 185.535 13.448C186.025 13.6613 186.377 13.9173 186.591 14.216C186.825 14.5147 186.975 14.952 187.039 15.528C187.103 16.168 187.049 16.904 186.879 17.736C186.729 18.5467 186.228 19.56 185.375 20.776C184.841 21.544 184.351 22.12 183.903 22.504C183.455 22.8667 182.921 23.2293 182.303 23.592C181.855 23.8907 181.449 24.1147 181.087 24.264C180.724 24.392 180.297 24.4773 179.807 24.52ZM182.879 21.128C183.391 20.552 183.796 20.008 184.095 19.496C184.415 18.984 184.713 18.3333 184.991 17.544C185.076 17.3093 185.129 17.0213 185.151 16.68C185.172 16.3173 185.161 15.9867 185.119 15.688C185.097 15.368 185.023 15.1867 184.895 15.144C184.639 14.9947 184.329 14.952 183.967 15.016C183.604 15.0587 183.209 15.2613 182.783 15.624C182.121 16.1787 181.545 16.872 181.055 17.704C180.564 18.5147 180.084 19.4427 179.615 20.488C179.295 21.256 179.22 21.8747 179.391 22.344C179.583 22.792 179.977 22.952 180.575 22.824C181.193 22.6747 181.961 22.1093 182.879 21.128ZM198.902 24.456C198.475 24.4133 198.209 24.36 198.102 24.296C198.017 24.232 197.91 24.0613 197.782 23.784C197.611 23.592 197.505 23.4427 197.462 23.336C197.441 23.2293 197.441 23.1333 197.462 23.048C197.569 23.048 197.665 23.048 197.75 23.048C197.835 23.0267 197.889 22.984 197.91 22.92C197.91 22.856 197.942 22.8133 198.006 22.792C198.091 22.7707 198.177 22.7707 198.262 22.792C198.667 22.8133 199.179 22.6853 199.798 22.408C200.438 22.1093 201.121 21.704 201.846 21.192C202.593 20.6587 203.318 20.072 204.022 19.432C204.577 18.7067 204.982 18.1413 205.238 17.736C205.494 17.3093 205.643 16.968 205.686 16.712C205.729 16.4347 205.697 16.2 205.59 16.008C205.505 15.8373 205.195 15.7733 204.662 15.816C204.129 15.8373 203.531 16.0613 202.87 16.488C201.953 17.064 201.217 17.5973 200.662 18.088C200.107 18.5787 199.595 19.1333 199.126 19.752C198.955 19.9653 198.785 20.2213 198.614 20.52C198.465 20.8187 198.337 21.0747 198.23 21.288C198.123 21.5013 198.07 21.608 198.07 21.608C198.07 21.6933 197.942 21.8 197.686 21.928C197.451 22.056 197.249 22.12 197.078 22.12C196.993 22.0773 196.875 22.0027 196.726 21.896C196.598 21.768 196.513 21.608 196.47 21.416C196.321 21.3093 196.214 21.224 196.15 21.16C196.086 21.096 196.043 21.0213 196.022 20.936C196.001 20.808 196.033 20.6053 196.118 20.328C196.203 20.0507 196.321 19.6133 196.47 19.016C196.598 18.4613 196.737 17.8853 196.886 17.288C197.057 16.6907 197.217 16.1787 197.366 15.752C197.515 15.3253 197.622 15.0907 197.686 15.048C197.686 15.048 197.729 14.952 197.814 14.76C197.899 14.568 197.942 14.344 197.942 14.088C197.985 13.832 198.049 13.608 198.134 13.416C198.241 13.224 198.294 13.0853 198.294 13C198.379 12.936 198.507 12.68 198.678 12.232C198.849 11.784 199.062 11.1973 199.318 10.472C199.318 10.408 199.393 10.2053 199.542 9.864C199.691 9.50133 199.873 9.08533 200.086 8.616C200.299 8.12533 200.513 7.624 200.726 7.112C200.961 6.57867 201.153 6.10933 201.302 5.704C201.558 5.34133 201.75 5.01067 201.878 4.712C202.027 4.392 202.177 4.2 202.326 4.136C202.433 4.11467 202.561 4.12533 202.71 4.168C202.881 4.18933 203.041 4.24267 203.19 4.328C203.361 4.41333 203.499 4.54133 203.606 4.712C203.67 4.81867 203.713 4.91467 203.734 5C203.755 5.08533 203.723 5.24533 203.638 5.48C203.553 5.69333 203.382 6.06667 203.126 6.6C202.891 7.112 202.539 7.85867 202.07 8.84C201.473 10.12 200.982 11.2613 200.598 12.264C200.214 13.2667 199.894 14.152 199.638 14.92C199.382 15.688 199.147 16.3493 198.934 16.904L198.774 17.608L199.574 16.84C199.894 16.6053 200.246 16.3173 200.63 15.976C201.014 15.6347 201.355 15.336 201.654 15.08C201.825 14.952 202.049 14.824 202.326 14.696C202.625 14.5467 202.913 14.4187 203.19 14.312C203.467 14.2053 203.67 14.1413 203.798 14.12C203.862 14.0987 204.022 14.0667 204.278 14.024C204.534 13.9813 204.843 13.96 205.206 13.96C205.675 13.96 206.049 14.0667 206.326 14.28C206.625 14.4933 206.913 14.8347 207.19 15.304C207.425 15.752 207.521 16.264 207.478 16.84C207.435 17.3947 207.265 17.9173 206.966 18.408C206.859 18.4933 206.753 18.6107 206.646 18.76C206.539 18.888 206.486 18.9947 206.486 19.08C206.465 19.2293 206.273 19.5387 205.91 20.008C205.547 20.456 205.185 20.8827 204.822 21.288C204.438 21.6933 203.969 22.0987 203.414 22.504C202.859 22.888 202.305 23.24 201.75 23.56C201.217 23.8587 200.758 24.072 200.374 24.2C200.203 24.2213 199.958 24.264 199.638 24.328C199.318 24.3707 199.073 24.4133 198.902 24.456ZM211.688 25.096C210.75 25.096 209.982 24.744 209.384 24.04C208.787 23.3147 208.499 22.4187 208.52 21.352C208.563 20.584 208.712 19.7627 208.968 18.888C209.246 17.992 209.608 17.1387 210.056 16.328C210.504 15.496 210.995 14.7707 211.528 14.152C212.062 13.5333 212.616 13.096 213.192 12.84C213.406 12.7333 213.63 12.648 213.864 12.584C214.12 12.52 214.376 12.488 214.632 12.488C214.867 12.488 215.112 12.5307 215.368 12.616C215.624 12.68 215.838 12.7547 216.008 12.84C216.371 12.9893 216.648 13.1707 216.84 13.384C217.032 13.5973 217.203 13.928 217.352 14.376C217.416 14.7813 217.448 15.0693 217.448 15.24C217.448 15.4107 217.395 15.6667 217.288 16.008C217.032 16.776 216.702 17.4373 216.296 17.992C215.891 18.5467 215.347 19.016 214.664 19.4C214.494 19.5067 214.291 19.592 214.056 19.656C213.843 19.6987 213.619 19.72 213.384 19.72C212.958 19.72 212.542 19.6453 212.136 19.496C211.752 19.3253 211.443 19.08 211.208 18.76L210.984 18.504L210.888 18.76C210.675 19.336 210.504 19.8693 210.376 20.36C210.27 20.8507 210.216 21.2987 210.216 21.704C210.216 21.96 210.238 22.2053 210.28 22.44C210.344 22.6747 210.43 22.8773 210.536 23.048C210.622 23.176 210.76 23.272 210.952 23.336C211.166 23.3787 211.39 23.4 211.624 23.4C211.774 23.4 211.923 23.4 212.072 23.4C212.243 23.3787 212.403 23.336 212.552 23.272C212.915 23.144 213.203 23.0053 213.416 22.856C213.651 22.7067 213.886 22.5467 214.12 22.376L214.248 22.312H214.216C214.472 22.184 214.696 22.056 214.888 21.928C215.102 21.8 215.208 21.736 215.208 21.736C215.294 21.736 215.379 21.6827 215.464 21.576C215.635 21.4907 215.848 21.5227 216.104 21.672C216.382 21.8213 216.52 22.0133 216.52 22.248C216.499 22.3547 216.403 22.5253 216.232 22.76C216.062 22.9733 215.87 23.176 215.656 23.368C215.464 23.56 215.304 23.6667 215.176 23.688C215.155 23.7093 215.08 23.752 214.952 23.816C214.824 23.8587 214.739 23.9013 214.696 23.944H214.728C214.536 24.2 214.344 24.328 214.152 24.328H213.896C213.811 24.4773 213.534 24.648 213.064 24.84C212.595 25.0107 212.136 25.096 211.688 25.096ZM213.128 18.056C213.512 18.056 213.843 17.9493 214.12 17.736C214.419 17.5013 214.675 17.2453 214.888 16.968C215.315 16.392 215.56 15.8373 215.624 15.304C215.71 14.7493 215.646 14.3653 215.432 14.152C215.304 14.088 215.187 14.056 215.08 14.056C214.995 14.0347 214.814 14.0667 214.536 14.152C214.344 14.1947 214.078 14.3547 213.736 14.632C213.395 14.9093 213.054 15.2187 212.712 15.56C212.392 15.9013 212.147 16.1893 211.976 16.424L211.56 17.096C211.731 17.032 211.891 17 212.04 17C212.211 16.9787 212.307 16.9893 212.328 17.032C212.328 17.224 212.36 17.4053 212.424 17.576C212.51 17.7253 212.606 17.8427 212.712 17.928C212.84 18.0133 212.979 18.056 213.128 18.056ZM221.134 31.016C220.9 31.0373 220.537 30.984 220.046 30.856C219.577 30.728 219.225 30.6107 218.99 30.504C218.713 30.2907 218.436 30.0027 218.158 29.64C217.881 29.2773 217.657 28.904 217.486 28.52C217.337 28.1573 217.273 27.88 217.294 27.688C217.316 27.5173 217.476 27.4853 217.774 27.592C218.094 27.6987 218.308 27.8373 218.414 28.008C218.606 28.2427 218.83 28.4667 219.086 28.68C219.342 28.8933 219.598 29.0533 219.854 29.16C220.11 29.288 220.313 29.3413 220.462 29.32C220.996 29.2347 221.433 28.968 221.774 28.52C222.137 28.0933 222.457 27.5493 222.734 26.888C222.905 26.4187 223.033 26.024 223.118 25.704C223.225 25.4053 223.321 25.064 223.406 24.68C223.513 24.296 223.641 23.7627 223.79 23.08C223.982 22.312 224.11 21.768 224.174 21.448C224.26 21.1067 224.302 20.8827 224.302 20.776C224.302 20.6693 224.27 20.5947 224.206 20.552C224.206 20.552 224.068 20.6267 223.79 20.776C223.513 20.9253 223.204 21.0853 222.862 21.256C222.542 21.4267 222.297 21.5653 222.126 21.672C221.529 21.864 220.942 21.9813 220.366 22.024C219.79 22.0667 219.342 22.0347 219.022 21.928C218.873 21.864 218.713 21.7147 218.542 21.48C218.393 21.2453 218.265 20.9893 218.158 20.712C218.073 20.4133 218.041 20.1573 218.062 19.944C218.084 19.7733 218.18 19.5173 218.35 19.176C218.521 18.8347 218.713 18.472 218.926 18.088C219.161 17.704 219.364 17.384 219.534 17.128C219.726 16.8507 219.844 16.712 219.886 16.712C219.972 16.712 220.014 16.68 220.014 16.616C220.036 16.552 220.046 16.4773 220.046 16.392C220.068 16.3067 220.228 16.1253 220.526 15.848C220.846 15.5493 221.273 15.1867 221.806 14.76C222.553 14.0773 223.225 13.5547 223.822 13.192C224.42 12.8293 224.974 12.6267 225.486 12.584C225.636 12.6053 225.774 12.616 225.902 12.616C226.052 12.616 226.126 12.616 226.126 12.616C226.126 12.616 226.19 12.6587 226.318 12.744C226.468 12.808 226.66 12.8933 226.894 13C227.214 13.128 227.502 13.352 227.758 13.672C228.014 13.9707 228.217 14.3227 228.366 14.728C228.537 15.112 228.633 15.496 228.654 15.88C228.633 16.3493 228.526 16.808 228.334 17.256C228.164 17.704 227.993 17.9173 227.822 17.896C227.652 17.8747 227.438 17.9493 227.182 18.12C226.948 18.2907 226.83 18.4187 226.83 18.504C226.83 18.5893 226.798 18.696 226.734 18.824C226.692 18.952 226.553 19.1547 226.318 19.432C226.297 19.5387 226.233 19.8267 226.126 20.296C226.041 20.744 225.934 21.256 225.806 21.832C225.678 22.408 225.561 22.9307 225.454 23.4C225.369 23.848 225.316 24.136 225.294 24.264C225.273 24.3493 225.22 24.5413 225.134 24.84C225.07 25.1173 224.974 25.4373 224.846 25.8C224.74 26.1627 224.622 26.504 224.494 26.824C224.409 27.4427 224.292 27.9013 224.142 28.2C224.014 28.52 223.801 28.8613 223.502 29.224C223.182 29.7573 222.798 30.1733 222.35 30.472C221.902 30.792 221.497 30.9733 221.134 31.016ZM219.822 20.264C219.865 20.4773 220.153 20.552 220.686 20.488C221.22 20.4027 221.753 20.2213 222.286 19.944C222.756 19.7093 223.182 19.5173 223.566 19.368C223.95 19.2187 224.217 19.0053 224.366 18.728C224.494 18.5147 224.601 18.3013 224.686 18.088C224.772 17.8747 224.878 17.5653 225.006 17.16C225.028 17.0747 225.081 16.9787 225.166 16.872C225.273 16.744 225.369 16.6693 225.454 16.648C225.54 16.6267 225.625 16.6267 225.71 16.648C225.817 16.6693 225.945 16.712 226.094 16.776C226.201 16.7333 226.276 16.6267 226.318 16.456C226.382 16.2853 226.393 16.0933 226.35 15.88C226.329 15.7307 226.222 15.528 226.03 15.272C225.838 15.016 225.593 14.8133 225.294 14.664C224.974 14.4933 224.601 14.6 224.174 14.984C223.748 15.368 223.225 15.8373 222.606 16.392C222.116 16.84 221.646 17.3093 221.198 17.8C220.75 18.2907 220.388 18.7493 220.11 19.176C219.854 19.6027 219.758 19.9653 219.822 20.264ZM229.725 23.432C229.64 23.432 229.533 23.4107 229.405 23.368C229.299 23.304 229.245 23.272 229.245 23.272C229.245 23.1867 229.213 23.08 229.149 22.952C229.107 22.824 229.085 22.7173 229.085 22.632C228.936 22.5467 228.851 22.4613 228.829 22.376C228.808 22.2693 228.84 22.0987 228.925 21.864C229.053 21.6507 229.224 21.3093 229.437 20.84C229.651 20.3493 229.875 19.8267 230.109 19.272C230.344 18.696 230.568 18.1307 230.781 17.576C230.995 17.0213 231.176 16.552 231.325 16.168C231.475 15.7627 231.56 15.5173 231.581 15.432C231.581 15.3467 231.613 15.24 231.677 15.112C231.741 14.984 231.816 14.8773 231.901 14.792C232.072 14.6427 232.253 14.632 232.445 14.76C232.637 14.8667 232.797 15.0587 232.925 15.336C233.075 15.592 233.149 15.88 233.149 16.2C233.149 16.3493 233.043 16.7333 232.829 17.352C232.616 17.9493 232.328 18.664 231.965 19.496C231.624 20.328 231.24 21.1707 230.813 22.024C230.493 22.6427 230.291 23.0373 230.205 23.208C230.12 23.3573 229.96 23.432 229.725 23.432ZM234.429 11.304C234.173 11.304 233.896 11.208 233.597 11.016C233.32 10.8027 233.075 10.5467 232.861 10.248C232.669 9.928 232.573 9.608 232.573 9.288C232.573 9.18133 232.637 9.032 232.765 8.84C232.893 8.648 233.021 8.456 233.149 8.264C233.277 8.072 233.341 7.95467 233.341 7.912C233.512 7.912 233.64 7.92267 233.725 7.944C233.832 7.944 233.96 7.98667 234.109 8.072C234.344 8.60533 234.632 9.04267 234.973 9.384C235.336 9.72533 235.517 10.0133 235.517 10.248C235.517 10.7173 235.475 11.016 235.389 11.144C235.304 11.2507 234.984 11.304 234.429 11.304ZM235.982 23.592C235.897 23.592 235.769 23.5387 235.598 23.432C235.449 23.304 235.332 23.1973 235.246 23.112C235.097 22.9413 235.001 22.7707 234.958 22.6C234.937 22.4293 234.926 22.0453 234.926 21.448C234.926 20.7653 235.065 20.0293 235.342 19.24C235.62 18.4293 236.089 17.2987 236.75 15.848L237.806 13.608C237.892 13.4373 237.966 13.3093 238.03 13.224C238.116 13.1387 238.19 13.0533 238.254 12.968C238.34 12.968 238.414 12.968 238.478 12.968C238.542 12.968 238.574 12.968 238.574 12.968C238.745 12.968 238.916 13.0747 239.086 13.288C239.257 13.48 239.385 13.6933 239.47 13.928C239.47 14.2053 239.428 14.4933 239.342 14.792C239.278 15.0907 239.022 15.5387 238.574 16.136C238.425 16.3707 238.222 16.7653 237.966 17.32C237.732 17.8747 237.572 18.3547 237.486 18.76C237.465 18.7813 237.422 18.8773 237.358 19.048C237.294 19.1973 237.22 19.368 237.134 19.56C237.07 19.752 236.996 19.9333 236.91 20.104L236.75 20.808L238.894 18.6C239.897 17.5973 240.708 16.8827 241.326 16.456C241.945 16.0293 242.436 15.848 242.798 15.912C243.161 15.976 243.47 16.264 243.726 16.776C243.876 17.0107 243.982 17.224 244.046 17.416C244.132 17.5867 244.185 17.8213 244.206 18.12C244.228 18.4187 244.206 18.8667 244.142 19.464V21.448C244.462 21.3627 244.718 21.288 244.91 21.224C245.102 21.1387 245.305 21.0533 245.518 20.968C245.71 20.8827 245.934 20.808 246.19 20.744C246.446 20.6587 246.766 20.6053 247.15 20.584C247.129 20.8613 247.033 21.16 246.862 21.48C246.692 21.7787 246.478 22.0667 246.222 22.344C245.966 22.6213 245.678 22.8453 245.358 23.016C245.06 23.1867 244.761 23.272 244.462 23.272C244.185 23.272 243.876 23.1333 243.534 22.856C243.193 22.5787 242.948 22.2693 242.798 21.928C242.713 21.6933 242.66 21.4373 242.638 21.16C242.638 20.8827 242.638 20.3707 242.638 19.624V18.44C242.638 18.0987 242.532 18.0027 242.318 18.152C242.126 18.28 241.966 18.3973 241.838 18.504C241.518 18.7813 241.177 19.1013 240.814 19.464C240.473 19.8267 240.121 20.2 239.758 20.584C238.777 21.608 237.956 22.3653 237.294 22.856C236.654 23.3467 236.217 23.592 235.982 23.592ZM257.85 24.776C257.616 24.7333 257.37 24.616 257.114 24.424C256.88 24.2107 256.666 23.976 256.474 23.72C256.304 23.4427 256.186 23.1973 256.122 22.984C256.122 22.9413 256.09 22.888 256.026 22.824C255.984 22.76 255.962 22.728 255.962 22.728C255.877 22.664 255.824 22.3867 255.802 21.896C255.802 21.384 255.834 20.8187 255.898 20.2C255.962 19.5813 256.037 19.0907 256.122 18.728C256.229 18.3867 256.389 17.928 256.602 17.352C256.816 16.7547 256.997 16.2213 257.146 15.752L258.01 13.896L256.73 13.544C256.581 13.5013 256.453 13.416 256.346 13.288C256.261 13.16 256.218 13.0533 256.218 12.968C256.218 12.7973 256.314 12.5947 256.506 12.36C256.698 12.104 256.837 11.976 256.922 11.976C257.029 11.9973 257.221 12.008 257.498 12.008C257.797 12.008 258.085 11.9973 258.362 11.976C258.64 11.9547 258.81 11.9333 258.874 11.912C258.96 11.8693 259.045 11.816 259.13 11.752C259.216 11.6667 259.28 11.5493 259.322 11.4C259.429 11.1653 259.525 10.952 259.61 10.76C259.696 10.5467 259.813 10.312 259.962 10.056C260.112 9.77867 260.229 9.544 260.314 9.352C260.421 9.16 260.581 8.89333 260.794 8.552C260.901 8.40267 261.018 8.22133 261.146 8.008C261.274 7.79467 261.434 7.61333 261.626 7.464C261.818 7.29333 262.01 7.21867 262.202 7.24C262.416 7.24 262.682 7.37867 263.002 7.656C263.173 7.86933 263.269 8.02933 263.29 8.136C263.312 8.24267 263.226 8.44533 263.034 8.744C262.864 9.10667 262.661 9.46933 262.426 9.832C262.213 10.1947 262.01 10.5573 261.818 10.92C261.477 11.3893 261.413 11.656 261.626 11.72C261.84 11.784 262.437 11.7413 263.418 11.592C264.037 11.4853 264.485 11.5173 264.762 11.688C265.04 11.8373 265.2 12.0933 265.242 12.456C265.306 12.968 265.253 13.2773 265.082 13.384C264.912 13.4907 264.421 13.544 263.61 13.544C263.098 13.6293 262.661 13.6827 262.298 13.704C261.936 13.704 261.669 13.704 261.498 13.704C261.221 13.7253 261.04 13.736 260.954 13.736C260.869 13.736 260.741 13.7573 260.57 13.8C260.4 13.8427 260.272 13.9173 260.186 14.024C260.122 14.1093 260.048 14.2373 259.962 14.408C259.877 14.4933 259.749 14.7173 259.578 15.08C259.408 15.4427 259.194 15.8373 258.938 16.264C258.64 17.16 258.384 18.056 258.17 18.952C257.957 19.8267 257.786 20.68 257.658 21.512C257.573 22.0453 257.584 22.4187 257.69 22.632C257.797 22.824 258.074 22.9413 258.522 22.984C258.757 23.0053 259.13 23.0053 259.642 22.984C260.176 22.9413 260.592 22.8773 260.89 22.792C261.125 22.6853 261.37 22.5787 261.626 22.472C261.882 22.344 262.117 22.216 262.33 22.088C262.522 21.9813 262.714 21.8747 262.906 21.768C263.098 21.64 263.194 21.576 263.194 21.576C263.301 21.4053 263.418 21.352 263.546 21.416C263.674 21.48 263.781 21.64 263.866 21.896C263.866 22.152 263.813 22.4187 263.706 22.696C263.6 22.9733 263.205 23.304 262.522 23.688C261.562 24.2853 260.677 24.648 259.866 24.776C259.077 24.8827 258.405 24.8827 257.85 24.776ZM275.356 24.008C274.823 24.264 274.343 24.3387 273.916 24.232C273.49 24.104 273.148 23.816 272.892 23.368C272.658 22.92 272.54 22.3547 272.54 21.672C272.54 21.4373 272.572 21.0853 272.636 20.616C272.722 20.1467 272.818 19.656 272.924 19.144C273.031 18.6107 273.148 18.152 273.276 17.768C273.34 17.576 273.383 17.4267 273.404 17.32C273.447 17.2133 273.426 17.16 273.34 17.16C273.255 17.16 273.148 17.2133 273.02 17.32C272.914 17.4267 272.828 17.512 272.764 17.576C272.295 17.96 271.804 18.4293 271.292 18.984C270.802 19.5387 270.343 20.104 269.916 20.68C269.49 21.2347 269.138 21.7467 268.86 22.216C268.604 22.6853 268.476 23.0267 268.476 23.24C268.476 23.56 268.316 23.784 267.996 23.912C267.676 24.04 267.399 24.0293 267.164 23.88C266.759 23.6453 266.503 23.368 266.396 23.048C266.311 22.7067 266.3 22.1413 266.364 21.352C266.428 20.3493 266.514 19.4533 266.62 18.664C266.727 17.8747 266.898 17.0213 267.132 16.104C267.388 15.1653 267.719 14.024 268.124 12.68C268.402 11.9333 268.658 11.2293 268.892 10.568C269.127 9.88533 269.33 9.30933 269.5 8.84C269.692 8.37067 269.81 8.08267 269.852 7.976C269.959 7.86933 270.098 7.61333 270.268 7.208C270.439 6.78133 270.588 6.35467 270.716 5.928C270.866 5.50133 270.94 5.24533 270.94 5.16C270.94 4.98933 270.972 4.84 271.036 4.712C271.1 4.56267 271.175 4.44533 271.26 4.36C271.346 4.27467 271.42 4.2 271.484 4.136C271.548 4.072 271.58 4.04 271.58 4.04C271.687 4.04 271.815 4.072 271.964 4.136C272.135 4.2 272.295 4.296 272.444 4.424C272.594 4.53067 272.69 4.66933 272.732 4.84C272.882 5.13866 272.956 5.448 272.956 5.768C272.956 6.06667 272.86 6.44 272.668 6.888C272.498 7.336 272.199 7.95467 271.772 8.744C271.431 9.40533 271.122 10.088 270.844 10.792C270.567 11.496 270.3 12.232 270.044 13C269.938 13.32 269.788 13.768 269.596 14.344C269.426 14.92 269.244 15.5173 269.052 16.136C268.882 16.7547 268.732 17.3093 268.604 17.8C268.498 18.2693 268.444 18.568 268.444 18.696C268.444 18.8453 268.53 18.92 268.7 18.92C268.871 18.8987 269.042 18.7707 269.212 18.536C269.298 18.3653 269.479 18.152 269.756 17.896C270.034 17.64 270.258 17.4373 270.428 17.288C270.599 17.1387 270.834 16.9253 271.132 16.648C271.431 16.3707 271.751 16.0933 272.092 15.816C272.434 15.5173 272.754 15.272 273.052 15.08C273.351 14.8667 273.586 14.76 273.756 14.76C274.034 14.76 274.29 14.8667 274.524 15.08C274.759 15.272 274.919 15.4853 275.004 15.72C275.068 15.784 275.132 15.8693 275.196 15.976C275.26 16.0613 275.303 16.1253 275.324 16.168C275.431 16.2533 275.431 16.6267 275.324 17.288C275.239 17.928 275.026 18.76 274.684 19.784C274.492 20.5733 274.332 21.2453 274.204 21.8C274.098 22.3333 274.13 22.6 274.3 22.6C274.3 22.6 274.407 22.536 274.62 22.408C274.855 22.28 275.1 22.1413 275.356 21.992C275.975 21.5867 276.508 21.352 276.956 21.288C277.426 21.2027 277.66 21.2773 277.66 21.512C277.66 21.5973 277.628 21.6827 277.564 21.768C277.5 21.832 277.468 21.9067 277.468 21.992C277.468 21.992 277.468 22.0027 277.468 22.024C277.468 22.024 277.468 22.0667 277.468 22.152C277.468 22.1947 277.33 22.3653 277.052 22.664C276.775 22.9413 276.466 23.2293 276.124 23.528C275.804 23.8053 275.548 23.9653 275.356 24.008ZM284.799 23.88C284.351 24.264 283.829 24.488 283.231 24.552C282.655 24.616 282.09 24.5307 281.535 24.296C280.981 24.04 280.522 23.656 280.159 23.144C279.797 22.6747 279.562 22.1413 279.455 21.544C279.349 20.9253 279.338 20.1253 279.423 19.144C279.487 18.312 279.754 17.48 280.223 16.648C280.693 15.7947 281.258 15.0373 281.919 14.376C282.602 13.7147 283.274 13.256 283.935 13C284.255 12.7867 284.522 12.6907 284.735 12.712C284.97 12.712 285.322 12.7333 285.791 12.776C286.282 12.84 286.645 12.936 286.879 13.064C287.135 13.192 287.338 13.3627 287.487 13.576C287.807 13.896 288.021 14.216 288.127 14.536C288.234 14.8347 288.287 15.1333 288.287 15.432C288.202 15.9013 287.882 16.4773 287.327 17.16C286.794 17.8213 286.09 18.3653 285.215 18.792C284.746 18.9413 284.234 19.0053 283.679 18.984C283.125 18.9627 282.666 18.824 282.303 18.568C281.898 18.3973 281.631 18.4293 281.503 18.664C281.375 18.8773 281.258 19.4107 281.151 20.264C281.066 21.0747 281.13 21.672 281.343 22.056C281.557 22.4187 281.845 22.632 282.207 22.696C282.634 22.7813 282.965 22.8453 283.199 22.888C283.455 22.9093 283.765 22.8133 284.127 22.6C284.469 22.3867 284.682 22.2693 284.767 22.248C284.853 22.2053 284.917 22.1627 284.959 22.12C285.023 22.056 285.162 21.9173 285.375 21.704C285.525 21.5547 285.642 21.448 285.727 21.384C285.813 21.2987 285.909 21.256 286.015 21.256C286.122 21.256 286.218 21.3093 286.303 21.416C286.389 21.5013 286.474 21.5653 286.559 21.608C286.773 21.608 286.815 21.736 286.687 21.992C286.581 22.248 286.357 22.5573 286.015 22.92C285.674 23.2613 285.269 23.5813 284.799 23.88ZM284.767 17.096C285.002 16.9893 285.247 16.84 285.503 16.648C285.759 16.4347 285.973 16.2107 286.143 15.976C286.335 15.72 286.431 15.5067 286.431 15.336C286.431 15.0373 286.293 14.792 286.015 14.6C285.738 14.3867 285.322 14.3547 284.767 14.504C284.533 14.568 284.266 14.728 283.967 14.984C283.669 15.2187 283.381 15.4853 283.103 15.784C282.847 16.0827 282.634 16.3493 282.463 16.584C282.314 16.8187 282.261 16.9573 282.303 17C282.367 17.1067 282.549 17.192 282.847 17.256C283.146 17.2987 283.477 17.3093 283.839 17.288C284.223 17.2667 284.533 17.2027 284.767 17.096ZM137.023 58.952C136.703 59.2293 136.319 59.4 135.871 59.464C135.401 59.5493 134.953 59.5173 134.527 59.368C134.079 59.2187 133.695 58.952 133.375 58.568C133.247 58.2693 133.225 58.024 133.311 57.832C133.396 57.6613 133.545 57.544 133.759 57.48C133.972 57.4373 134.207 57.48 134.463 57.608C134.676 57.6933 135.028 57.704 135.519 57.64C135.988 57.5973 136.361 57.3947 136.639 57.032C136.809 56.84 137.012 56.5093 137.247 56.04C137.503 55.5707 137.759 55.048 138.015 54.472C138.271 53.9173 138.516 53.384 138.751 52.872C138.985 52.36 139.167 51.9547 139.295 51.656C139.401 51.3787 139.497 51.112 139.583 50.856C139.668 50.6 139.711 50.4293 139.711 50.344C139.796 50.2373 139.881 50.056 139.967 49.8C140.052 49.544 140.137 49.2453 140.223 48.904C140.287 48.8613 140.34 48.8187 140.383 48.776C140.425 48.712 140.404 48.6373 140.319 48.552L140.991 46.12C141.119 45.544 141.257 45.0533 141.407 44.648C141.556 44.2427 141.631 43.9973 141.631 43.912C141.652 43.8267 141.673 43.656 141.695 43.4C141.737 43.144 141.823 42.9093 141.951 42.696C141.972 42.376 142.015 42.0987 142.079 41.864C142.164 41.608 142.207 41.4373 142.207 41.352C142.292 41.288 142.441 41.2987 142.655 41.384C142.868 41.448 143.049 41.5653 143.199 41.736C143.348 41.928 143.444 42.088 143.487 42.216C143.551 42.344 143.551 42.5893 143.487 42.952C143.444 43.2933 143.337 43.912 143.167 44.808C143.145 44.936 143.081 45.192 142.975 45.576C142.889 45.96 142.772 46.3973 142.623 46.888C142.495 47.3573 142.367 47.8267 142.239 48.296C142.111 48.744 141.993 49.1067 141.887 49.384C141.801 49.704 141.716 50.0027 141.631 50.28C141.545 50.5573 141.492 50.7707 141.471 50.92C141.385 51.0693 141.268 51.3253 141.119 51.688C140.991 52.0293 140.863 52.36 140.735 52.68C140.607 52.9787 140.511 53.1813 140.447 53.288C140.425 53.3733 140.383 53.448 140.319 53.512C140.276 53.5973 140.255 53.6827 140.255 53.768C140.233 53.832 140.137 54.088 139.967 54.536C139.796 55.0053 139.529 55.56 139.167 56.2C139.06 56.456 138.868 56.776 138.591 57.16C138.313 57.544 138.025 57.896 137.727 58.216C137.449 58.5573 137.215 58.8027 137.023 58.952ZM144.351 37.896C144.116 37.9173 143.871 37.896 143.615 37.832C143.359 37.768 143.156 37.6827 143.007 37.576C142.644 37.2773 142.495 36.9467 142.559 36.584C142.623 36.2213 142.815 35.8907 143.135 35.592C143.476 35.2933 143.849 35.112 144.255 35.048C144.425 35.0267 144.596 35.0587 144.767 35.144C144.937 35.2293 145.087 35.3573 145.215 35.528C145.364 35.6773 145.449 35.8907 145.471 36.168C145.513 36.5733 145.439 36.904 145.247 37.16C145.076 37.416 144.777 37.6613 144.351 37.896ZM148.418 51.784C147.97 51.8693 147.682 51.9013 147.554 51.88C147.447 51.8373 147.277 51.7093 147.042 51.496C146.701 51.3253 146.413 51.112 146.178 50.856C145.965 50.6 145.805 50.3333 145.698 50.056C145.613 49.7573 145.581 49.512 145.602 49.32C145.666 48.5733 145.847 47.7733 146.146 46.92C146.445 46.0667 146.807 45.2453 147.234 44.456C147.661 43.6667 148.119 42.9947 148.61 42.44C149.122 41.864 149.613 41.4907 150.082 41.32C150.509 41.1493 150.914 41.0853 151.298 41.128C151.682 41.1707 151.959 41.3733 152.13 41.736C152.45 42.3547 152.375 42.7493 151.906 42.92C151.842 42.92 151.767 42.952 151.682 43.016C151.597 43.0587 151.554 43.1227 151.554 43.208C151.639 43.2507 151.874 43.2613 152.258 43.24C152.642 43.1973 153.026 43.1333 153.41 43.048C153.815 42.9413 154.082 42.8347 154.21 42.728C154.338 42.664 154.434 42.632 154.498 42.632C154.562 42.632 154.722 42.6533 154.978 42.696C155.341 42.8027 155.522 42.9307 155.522 43.08C155.522 43.1653 155.554 43.2507 155.618 43.336C155.682 43.4 155.757 43.432 155.842 43.432C155.991 43.4533 155.97 43.5493 155.778 43.72C155.607 43.8907 155.309 44.1253 154.882 44.424C154.477 44.68 154.221 44.8507 154.114 44.936C154.029 45 154.018 45.1493 154.082 45.384C154.253 45.7893 154.263 46.2587 154.114 46.792C153.965 47.3253 153.698 47.8693 153.314 48.424C152.93 48.9787 152.461 49.5013 151.906 49.992C151.373 50.4613 150.797 50.8667 150.178 51.208C149.581 51.528 148.994 51.72 148.418 51.784ZM147.874 50.376C147.959 50.376 148.109 50.3333 148.322 50.248C148.535 50.1413 148.706 50.056 148.834 49.992C148.919 49.9067 149.026 49.8107 149.154 49.704C149.303 49.576 149.421 49.5013 149.506 49.48C149.591 49.48 149.698 49.448 149.826 49.384C149.954 49.2987 150.135 49.1387 150.37 48.904C150.605 48.648 150.914 48.2747 151.298 47.784C151.725 47.3147 152.055 46.888 152.29 46.504C152.525 46.0987 152.589 45.7253 152.482 45.384C152.461 45.2987 152.397 45.2453 152.29 45.224C152.205 45.2027 152.087 45.1493 151.938 45.064C151.725 45.064 151.522 45.0107 151.33 44.904C151.159 44.776 150.957 44.616 150.722 44.424L150.21 43.784L149.666 44.328C149.325 44.6693 148.962 45.1813 148.578 45.864C148.215 46.5253 147.906 47.208 147.65 47.912C147.394 48.5947 147.245 49.1387 147.202 49.544C147.181 49.864 147.234 50.0773 147.362 50.184C147.49 50.2907 147.661 50.3547 147.874 50.376ZM157.939 51.368C157.534 51.0053 157.225 50.632 157.011 50.248C156.819 49.864 156.67 49.256 156.563 48.424C156.521 48.04 156.563 47.5387 156.691 46.92C156.819 46.28 157.001 45.608 157.235 44.904C157.47 44.2 157.737 43.56 158.035 42.984C158.334 42.3867 158.633 41.9387 158.931 41.64C159.187 41.32 159.39 41.1493 159.539 41.128C159.71 41.0853 160.009 41.16 160.435 41.352C160.67 41.6293 160.787 41.928 160.787 42.248C160.787 42.568 160.659 42.9307 160.403 43.336C159.977 43.912 159.603 44.6373 159.283 45.512C158.985 46.3653 158.782 47.1333 158.675 47.816C158.462 48.5413 158.366 49.032 158.387 49.288C158.409 49.544 158.601 49.7147 158.963 49.8C159.369 49.8853 159.849 49.736 160.403 49.352C160.958 48.9467 161.502 48.392 162.035 47.688C162.569 46.9627 162.995 46.1733 163.315 45.32C163.443 45.0213 163.539 44.6693 163.603 44.264C163.689 43.8587 163.774 43.56 163.859 43.368C163.966 42.9413 164.115 42.632 164.307 42.44C164.499 42.2267 164.702 42.1093 164.915 42.088C165.129 42.0453 165.31 42.088 165.459 42.216C165.651 42.3013 165.769 42.408 165.811 42.536C165.854 42.6427 165.854 42.9413 165.811 43.432C165.811 44.2213 165.641 44.8933 165.299 45.448C164.958 46.0027 164.67 46.5893 164.435 47.208C164.243 47.656 163.955 48.1573 163.571 48.712C163.209 49.2667 162.803 49.768 162.355 50.216C161.929 50.664 161.513 50.9733 161.107 51.144C160.51 51.528 159.977 51.72 159.507 51.72C159.059 51.6987 158.537 51.5813 157.939 51.368ZM167.511 51.88C167.319 51.7307 167.18 51.5813 167.095 51.432C167.031 51.2827 167.031 50.9947 167.095 50.568C167.159 49.9707 167.244 49.448 167.351 49C167.458 48.5307 167.586 47.9973 167.735 47.4C167.778 47.144 167.895 46.7067 168.087 46.088C168.3 45.4693 168.556 44.7973 168.855 44.072C169.154 43.3467 169.452 42.664 169.751 42.024C170.05 41.3627 170.306 40.872 170.519 40.552C170.69 40.424 170.892 40.3707 171.127 40.392C171.383 40.4133 171.596 40.5093 171.767 40.68C172.002 40.872 172.034 41.2133 171.863 41.704C171.714 42.1733 171.394 42.92 170.903 43.944C170.647 44.52 170.455 44.9573 170.327 45.256C170.199 45.5333 170.146 45.704 170.167 45.768C170.188 45.8107 170.284 45.7787 170.455 45.672C170.583 45.4373 170.818 45.1707 171.159 44.872C171.5 44.552 171.863 44.2427 172.247 43.944C172.631 43.6453 172.994 43.3787 173.335 43.144C173.676 42.9093 173.911 42.76 174.039 42.696C174.21 42.5893 174.402 42.504 174.615 42.44C174.85 42.3547 175.01 42.2907 175.095 42.248C175.586 42.0133 176.087 41.928 176.599 41.992C177.111 42.056 177.431 42.248 177.559 42.568C177.58 42.7387 177.644 42.8667 177.751 42.952C177.879 43.0373 177.943 43.08 177.943 43.08C178.028 43.08 178.071 43.112 178.071 43.176C178.092 43.24 178.103 43.272 178.103 43.272C178.103 43.4213 177.986 43.5173 177.751 43.56C177.538 43.5813 177.26 43.6027 176.919 43.624C176.642 43.6453 176.396 43.6987 176.183 43.784C175.97 43.8693 175.714 43.976 175.415 44.104C174.604 44.5733 173.826 45.032 173.079 45.48C172.354 45.928 171.65 46.5253 170.967 47.272C170.818 47.4427 170.668 47.6453 170.519 47.88C170.37 48.1147 170.21 48.3707 170.039 48.648C169.932 48.7547 169.826 48.9893 169.719 49.352C169.612 49.7147 169.516 50.0667 169.431 50.408C169.367 50.728 169.335 50.92 169.335 50.984C169.335 50.984 169.303 51.0907 169.239 51.304C169.175 51.496 169.068 51.688 168.919 51.88C168.663 52.2213 168.45 52.392 168.279 52.392C168.108 52.392 167.852 52.2213 167.511 51.88ZM187.714 52.616C187.501 52.616 187.277 52.4987 187.042 52.264C186.829 52.0293 186.637 51.7413 186.466 51.4C186.317 51.0373 186.242 50.696 186.242 50.376C186.242 50.056 186.317 49.4587 186.466 48.584C186.637 47.7093 186.84 46.824 187.074 45.928C187.245 45.3733 187.298 45.0533 187.234 44.968C187.17 44.8827 186.882 45 186.37 45.32C186.072 45.4693 185.805 45.6293 185.57 45.8C185.336 45.9493 185.133 46.12 184.962 46.312C184.856 46.3973 184.696 46.536 184.482 46.728C184.269 46.92 184.045 47.1013 183.81 47.272C183.533 47.4853 183.181 47.784 182.754 48.168C182.328 48.552 181.901 48.936 181.474 49.32C181.069 49.704 180.76 50.0027 180.546 50.216C180.504 50.3013 180.44 50.376 180.354 50.44C180.269 50.504 180.173 50.5467 180.066 50.568C179.96 50.568 179.842 50.5467 179.714 50.504C179.48 50.44 179.256 50.3013 179.042 50.088C178.85 49.8747 178.754 49.6293 178.754 49.352C178.754 49.1387 178.84 48.776 179.01 48.264C179.181 47.7307 179.405 47.0907 179.682 46.344C179.981 45.5973 180.322 44.808 180.706 43.976C180.77 43.8693 180.824 43.7413 180.866 43.592C180.909 43.4213 180.941 43.24 180.962 43.048C181.005 42.856 181.026 42.6747 181.026 42.504C181.026 42.3973 181.037 42.2907 181.058 42.184C181.101 42.056 181.144 41.9387 181.186 41.832C181.25 41.704 181.304 41.6187 181.346 41.576C181.432 41.4053 181.581 41.3627 181.794 41.448C182.008 41.512 182.189 41.6613 182.338 41.896C182.658 42.1947 182.818 42.568 182.818 43.016C182.84 43.464 182.733 44.0187 182.498 44.68C182.413 44.8293 182.338 44.9787 182.274 45.128C182.232 45.256 182.189 45.3733 182.146 45.48C182.104 45.5653 182.072 45.64 182.05 45.704C182.029 45.7467 182.018 45.768 182.018 45.768C182.104 45.768 182.296 45.672 182.594 45.48C182.893 45.288 183.245 45.0747 183.65 44.84C183.97 44.6053 184.248 44.392 184.482 44.2C184.738 43.9867 184.952 43.8267 185.122 43.72C185.293 43.592 185.4 43.528 185.442 43.528C185.528 43.528 185.634 43.496 185.762 43.432C185.89 43.368 185.997 43.2933 186.082 43.208C186.168 43.1227 186.232 43.08 186.274 43.08C186.338 43.0587 186.37 43.048 186.37 43.048C186.37 43.048 186.413 43.048 186.498 43.048C186.584 43.0267 186.669 42.9733 186.754 42.888C186.925 42.76 187.149 42.728 187.426 42.792C187.704 42.8347 187.96 42.9413 188.194 43.112C188.429 43.2827 188.546 43.4747 188.546 43.688C188.546 43.7733 188.568 43.848 188.61 43.912C188.674 43.9547 188.706 43.976 188.706 43.976C188.877 43.976 188.984 44.2427 189.026 44.776C189.09 45.3093 189.037 45.8213 188.866 46.312C188.866 46.632 188.802 47.016 188.674 47.464C188.568 47.912 188.472 48.3387 188.386 48.744C188.216 49.2773 188.098 49.7467 188.034 50.152C187.97 50.5573 187.96 50.8987 188.002 51.176C188.045 51.4533 188.12 51.6773 188.226 51.848C188.312 51.9973 188.312 52.168 188.226 52.36C188.141 52.5307 187.97 52.616 187.714 52.616ZM197.193 51.88C196.745 52.264 196.222 52.488 195.625 52.552C195.049 52.616 194.483 52.5307 193.929 52.296C193.374 52.04 192.915 51.656 192.553 51.144C192.19 50.6747 191.955 50.1413 191.849 49.544C191.742 48.9253 191.731 48.1253 191.817 47.144C191.881 46.312 192.147 45.48 192.617 44.648C193.086 43.7947 193.651 43.0373 194.313 42.376C194.995 41.7147 195.667 41.256 196.329 41C196.649 40.7867 196.915 40.6907 197.129 40.712C197.363 40.712 197.715 40.7333 198.185 40.776C198.675 40.84 199.038 40.936 199.273 41.064C199.529 41.192 199.731 41.3627 199.881 41.576C200.201 41.896 200.414 42.216 200.521 42.536C200.627 42.8347 200.681 43.1333 200.681 43.432C200.595 43.9013 200.275 44.4773 199.721 45.16C199.187 45.8213 198.483 46.3653 197.609 46.792C197.139 46.9413 196.627 47.0053 196.073 46.984C195.518 46.9627 195.059 46.824 194.697 46.568C194.291 46.3973 194.025 46.4293 193.897 46.664C193.769 46.8773 193.651 47.4107 193.545 48.264C193.459 49.0747 193.523 49.672 193.737 50.056C193.95 50.4187 194.238 50.632 194.601 50.696C195.027 50.7813 195.358 50.8453 195.593 50.888C195.849 50.9093 196.158 50.8133 196.521 50.6C196.862 50.3867 197.075 50.2693 197.161 50.248C197.246 50.2053 197.31 50.1627 197.353 50.12C197.417 50.056 197.555 49.9173 197.769 49.704C197.918 49.5547 198.035 49.448 198.121 49.384C198.206 49.2987 198.302 49.256 198.409 49.256C198.515 49.256 198.611 49.3093 198.697 49.416C198.782 49.5013 198.867 49.5653 198.953 49.608C199.166 49.608 199.209 49.736 199.081 49.992C198.974 50.248 198.75 50.5573 198.409 50.92C198.067 51.2613 197.662 51.5813 197.193 51.88ZM197.161 45.096C197.395 44.9893 197.641 44.84 197.897 44.648C198.153 44.4347 198.366 44.2107 198.537 43.976C198.729 43.72 198.825 43.5067 198.825 43.336C198.825 43.0373 198.686 42.792 198.409 42.6C198.131 42.3867 197.715 42.3547 197.161 42.504C196.926 42.568 196.659 42.728 196.361 42.984C196.062 43.2187 195.774 43.4853 195.497 43.784C195.241 44.0827 195.027 44.3493 194.857 44.584C194.707 44.8187 194.654 44.9573 194.697 45C194.761 45.1067 194.942 45.192 195.241 45.256C195.539 45.2987 195.87 45.3093 196.233 45.288C196.617 45.2667 196.926 45.2027 197.161 45.096ZM203.567 60.36C203.545 60.4027 203.449 60.36 203.279 60.232C203.129 60.104 202.98 59.944 202.831 59.752C202.681 59.5813 202.617 59.432 202.639 59.304C202.553 59.0053 202.564 58.632 202.671 58.184C202.799 57.7573 203.065 57.1173 203.471 56.264C203.684 55.9227 203.876 55.5173 204.047 55.048C204.239 54.5787 204.452 54.1093 204.687 53.64C204.793 53.448 205.028 53.032 205.391 52.392C205.753 51.752 206.137 51.0267 206.543 50.216C206.969 49.4053 207.321 48.6373 207.599 47.912C207.044 48.488 206.532 49.0747 206.063 49.672C205.593 50.248 205.156 50.7173 204.751 51.08C204.367 51.4427 204.004 51.6133 203.663 51.592C203.385 51.528 203.087 51.432 202.767 51.304C202.468 51.1547 202.265 50.8987 202.159 50.536C202.073 50.0667 202.041 49.4693 202.063 48.744C202.105 48.0187 202.244 46.92 202.479 45.448C202.649 44.7227 202.745 44.168 202.767 43.784C202.809 43.3787 202.799 43.08 202.735 42.888C202.671 42.696 202.553 42.5253 202.383 42.376C202.105 42.12 201.956 41.896 201.935 41.704C201.935 41.4907 202.084 41.3093 202.383 41.16C202.831 41.0533 203.151 41.0213 203.343 41.064C203.535 41.0853 203.769 41.256 204.047 41.576C204.217 41.8533 204.367 42.12 204.495 42.376C204.644 42.6107 204.719 43.0267 204.719 43.624C204.719 43.88 204.676 44.2213 204.591 44.648C204.527 45.0747 204.463 45.48 204.399 45.864C204.356 46.2267 204.324 46.4827 204.303 46.632C204.089 47.4213 203.951 48.104 203.887 48.68C203.844 49.256 203.876 49.544 203.983 49.544C204.409 49.2027 204.815 48.8187 205.199 48.392C205.604 47.944 206.02 47.4427 206.447 46.888C206.895 46.312 207.385 45.6613 207.919 44.936C208.111 44.5733 208.303 44.2213 208.495 43.88C208.687 43.5387 208.847 43.1867 208.975 42.824C209.103 42.5467 209.231 42.3227 209.359 42.152C209.487 41.9813 209.593 41.8853 209.679 41.864C209.785 41.8213 209.913 41.832 210.063 41.896C210.233 41.96 210.383 42.0347 210.511 42.12C210.66 42.184 210.735 42.2373 210.735 42.28C210.756 42.3013 210.809 42.3227 210.895 42.344C210.98 42.3653 211.065 42.3867 211.151 42.408C211.257 42.408 211.311 42.44 211.311 42.504C211.311 42.5467 211.257 42.6853 211.151 42.92C211.065 43.1547 210.959 43.4213 210.831 43.72C210.724 43.9973 210.628 44.2533 210.543 44.488C210.457 44.7013 210.425 44.8293 210.447 44.872C210.489 44.9147 210.457 45.0747 210.351 45.352C210.244 45.608 210.116 45.896 209.967 46.216C209.839 46.536 209.721 46.824 209.615 47.08C209.401 47.784 209.156 48.488 208.879 49.192C208.601 49.8747 208.271 50.5573 207.887 51.24C207.759 51.496 207.567 51.8907 207.311 52.424C207.076 52.9573 206.841 53.48 206.607 53.992C206.393 54.5253 206.223 54.9307 206.095 55.208C206.009 55.3787 205.881 55.6453 205.711 56.008C205.561 56.392 205.391 56.808 205.199 57.256C205.028 57.704 204.857 58.12 204.687 58.504C204.516 58.9093 204.388 59.2187 204.303 59.432C204.26 59.8373 204.164 60.136 204.015 60.328C203.929 60.328 203.833 60.328 203.727 60.328C203.62 60.3493 203.567 60.36 203.567 60.36Z" fill="#4F9CF9"/>
<path d="M41.4999 26.2499C41.9141 26.25 42.2499 26.5858 42.2499 27C42.2498 27.4142 41.914 27.75 41.4998 27.7499L41.4999 26.9999L41.4999 26.2499ZM23.5013 31.1019L23.2392 30.3992L23.5013 31.1019ZM4.17298 49.7297C3.76998 49.8254 3.36569 49.5763 3.26999 49.1733L1.71041 42.6059C1.6147 42.2029 1.86382 41.7986 2.26683 41.7029C2.66983 41.6072 3.07412 41.8563 3.16982 42.2594L4.55611 48.097L10.3938 46.7107C10.7968 46.615 11.2011 46.8641 11.2968 47.2671C11.3925 47.6701 11.1433 48.0744 10.7403 48.1701L4.17298 49.7297ZM41.4999 26.9999C41.4998 27.7499 41.5 27.7499 41.5001 27.7499C41.5002 27.7499 41.5003 27.7499 41.5003 27.7499C41.5004 27.7499 41.5004 27.7499 41.5002 27.7499C41.5 27.7499 41.4993 27.7499 41.4981 27.75C41.4959 27.75 41.4919 27.75 41.4863 27.75C41.4751 27.7501 41.4571 27.7504 41.4325 27.7508C41.3832 27.7517 41.3074 27.7536 41.2059 27.7574C41.0027 27.765 40.6963 27.7805 40.2924 27.8117C39.4848 27.8742 38.2875 27.9999 36.7474 28.2526C33.6671 28.758 29.2149 29.7716 23.7634 31.8047L23.5013 31.1019L23.2392 30.3992C28.7887 28.3297 33.3357 27.2923 36.5045 26.7724C38.0888 26.5124 39.3286 26.3818 40.1767 26.3162C40.6008 26.2834 40.9271 26.2668 41.1495 26.2585C41.2608 26.2543 41.3461 26.2522 41.4047 26.2511C41.434 26.2505 41.4567 26.2502 41.4726 26.2501C41.4805 26.25 41.4868 26.25 41.4914 26.25C41.4936 26.25 41.4955 26.25 41.4969 26.2499C41.4976 26.2499 41.4982 26.2499 41.4987 26.2499C41.499 26.2499 41.4993 26.2499 41.4994 26.2499C41.4997 26.2499 41.4999 26.2499 41.4999 26.9999ZM23.5013 31.1019L23.7634 31.8047C18.4374 33.7909 13.6616 38.1536 10.1872 42.086C8.458 44.0432 7.06774 45.8746 6.11028 47.2161C5.63179 47.8865 5.262 48.4337 5.01265 48.812C4.88799 49.0011 4.79347 49.1479 4.73057 49.2468C4.69911 49.2962 4.67557 49.3336 4.66011 49.3583C4.65239 49.3706 4.64668 49.3798 4.64303 49.3857C4.6412 49.3886 4.63988 49.3907 4.63907 49.392C4.63867 49.3927 4.6384 49.3931 4.63825 49.3934C4.63818 49.3935 4.63817 49.3935 4.63813 49.3936C4.63816 49.3935 4.63821 49.3934 3.9997 49C3.36118 48.6066 3.3613 48.6064 3.36145 48.6061C3.36155 48.606 3.36173 48.6057 3.36192 48.6054C3.36229 48.6048 3.36279 48.6039 3.36343 48.6029C3.36469 48.6009 3.36647 48.598 3.36878 48.5943C3.37337 48.5869 3.38003 48.5762 3.38872 48.5623C3.4061 48.5346 3.43163 48.494 3.46513 48.4414C3.53212 48.3361 3.63098 48.1826 3.76024 47.9865C4.01875 47.5943 4.39902 47.0317 4.88936 46.3447C5.86956 44.9713 7.29203 43.0974 9.06311 41.0928C12.5893 37.1018 17.5643 32.5156 23.2392 30.3992L23.5013 31.1019Z" fill="#4F9CF9"/>
</svg>
