<svg width="732" height="219" viewBox="0 0 732 219" fill="none" xmlns="http://www.w3.org/2000/svg">
<path d="M116.237 4.25L101.612 90.875L66.1125 91.625L58.4875 46.75L50.8625 88.375L15.3625 89.625L0.612488 4.25L31.6125 1.5L37.8625 53.375L46.2375 1.5H70.6125L80.3625 54L85.3625 1.5L116.237 4.25ZM185.052 40.5C185.052 44.125 184.802 47.75 184.302 51.375C177.177 51.8333 170.094 52.5833 163.052 53.625C156.011 54.625 148.969 55.625 141.927 56.625C143.011 59.625 144.698 62.0208 146.99 63.8125C149.323 65.6042 152.094 66.5 155.302 66.5C156.969 66.5 158.782 66.1875 160.74 65.5625C162.74 64.9375 164.719 64.1667 166.677 63.25C168.636 62.2917 170.511 61.2708 172.302 60.1875C174.094 59.1042 175.636 58.125 176.927 57.25L173.927 85.625C172.302 86.875 170.532 87.9375 168.615 88.8125C166.74 89.6875 164.782 90.3958 162.74 90.9375C160.698 91.4792 158.636 91.875 156.552 92.125C154.469 92.375 152.427 92.5 150.427 92.5C146.302 92.5 142.532 91.9375 139.115 90.8125C135.698 89.6875 132.594 88.125 129.802 86.125C127.052 84.0833 124.636 81.6875 122.552 78.9375C120.469 76.1875 118.74 73.1875 117.365 69.9375C115.99 66.6875 114.948 63.25 114.24 59.625C113.532 56 113.177 52.3333 113.177 48.625C113.177 44.75 113.532 40.875 114.24 37C114.948 33.125 116.011 29.3958 117.427 25.8125C118.886 22.2292 120.698 18.9167 122.865 15.875C125.073 12.7917 127.636 10.1042 130.552 7.8125C133.469 5.52083 136.761 3.72917 140.427 2.4375C144.136 1.14583 148.219 0.5 152.677 0.5C156.386 0.5 159.761 1.02083 162.802 2.0625C165.886 3.0625 168.615 4.47917 170.99 6.3125C173.407 8.10417 175.49 10.25 177.24 12.75C179.032 15.25 180.49 18 181.615 21C182.782 23.9583 183.636 27.1042 184.177 30.4375C184.761 33.7292 185.052 37.0833 185.052 40.5ZM160.052 37.25C160.052 36.0833 159.927 34.8958 159.677 33.6875C159.427 32.4375 159.011 31.3125 158.427 30.3125C157.886 29.3125 157.157 28.5 156.24 27.875C155.323 27.2083 154.177 26.875 152.802 26.875C151.136 26.875 149.657 27.3333 148.365 28.25C147.115 29.125 146.032 30.25 145.115 31.625C144.198 32.9583 143.448 34.4167 142.865 36C142.282 37.5833 141.844 39.0417 141.552 40.375L160.052 38.625V37.25ZM241.43 57.875L238.805 85.625L186.18 89.75L188.18 0.5H220.68L216.055 57.875H241.43ZM301.432 5.625L299.182 32C297.974 31.6667 296.787 31.4375 295.62 31.3125C294.453 31.1875 293.266 31.125 292.057 31.125C289.099 31.125 286.266 31.5 283.557 32.25C280.891 33 278.516 34.1458 276.432 35.6875C274.391 37.2292 272.745 39.1875 271.495 41.5625C270.287 43.8958 269.682 46.6667 269.682 49.875C269.682 52.2083 270.016 54.25 270.682 56C271.391 57.7083 272.37 59.1458 273.62 60.3125C274.912 61.4375 276.453 62.2917 278.245 62.875C280.078 63.4583 282.099 63.75 284.307 63.75C285.849 63.75 287.432 63.6042 289.057 63.3125C290.682 62.9792 292.307 62.5417 293.932 62C295.557 61.4583 297.12 60.8333 298.62 60.125C300.12 59.4167 301.516 58.6667 302.807 57.875L301.807 87.25C300.182 88.0833 298.432 88.8333 296.557 89.5C294.682 90.125 292.745 90.6667 290.745 91.125C288.787 91.625 286.807 92 284.807 92.25C282.849 92.5 280.974 92.625 279.182 92.625C273.266 92.625 267.87 91.5208 262.995 89.3125C258.162 87.1042 253.995 84.1042 250.495 80.3125C247.037 76.4792 244.349 72.0417 242.432 67C240.516 61.9583 239.557 56.5833 239.557 50.875C239.557 44.0417 240.516 37.6667 242.432 31.75C244.391 25.8333 247.245 20.7083 250.995 16.375C254.787 12 259.453 8.58333 264.995 6.125C270.578 3.625 276.974 2.375 284.182 2.375C287.057 2.375 289.974 2.60417 292.932 3.0625C295.891 3.52083 298.724 4.375 301.432 5.625ZM380.997 43.125C380.997 46.9167 380.56 50.5833 379.685 54.125C378.81 57.625 377.539 60.9167 375.872 64C374.247 67.0833 372.247 69.9167 369.872 72.5C367.539 75.0417 364.893 77.2292 361.935 79.0625C359.018 80.8958 355.831 82.3333 352.372 83.375C348.914 84.375 345.247 84.875 341.372 84.875C337.622 84.875 334.039 84.3958 330.622 83.4375C327.247 82.4792 324.081 81.1458 321.122 79.4375C318.164 77.6875 315.477 75.6042 313.06 73.1875C310.685 70.7292 308.643 68.0208 306.935 65.0625C305.268 62.0625 303.956 58.8542 302.997 55.4375C302.081 52.0208 301.622 48.4583 301.622 44.75C301.622 41.125 302.06 37.5833 302.935 34.125C303.81 30.625 305.06 27.3333 306.685 24.25C308.352 21.1667 310.352 18.3333 312.685 15.75C315.018 13.1667 317.622 10.9375 320.497 9.0625C323.414 7.1875 326.56 5.72917 329.935 4.6875C333.31 3.64583 336.872 3.125 340.622 3.125C346.664 3.125 352.164 4.0625 357.122 5.9375C362.122 7.8125 366.372 10.5 369.872 14C373.414 17.4583 376.143 21.6667 378.06 26.625C380.018 31.5417 380.997 37.0417 380.997 43.125ZM353.247 44.75C353.247 42.9583 352.977 41.2292 352.435 39.5625C351.935 37.8542 351.185 36.3542 350.185 35.0625C349.185 33.7292 347.935 32.6667 346.435 31.875C344.977 31.0417 343.289 30.625 341.372 30.625C339.414 30.625 337.664 30.9792 336.122 31.6875C334.581 32.3958 333.247 33.375 332.122 34.625C331.039 35.8333 330.206 37.2708 329.622 38.9375C329.039 40.5625 328.747 42.2917 328.747 44.125C328.747 45.875 328.997 47.625 329.497 49.375C329.997 51.125 330.747 52.7083 331.747 54.125C332.747 55.5417 333.977 56.6875 335.435 57.5625C336.935 58.4375 338.664 58.875 340.622 58.875C342.581 58.875 344.331 58.5 345.872 57.75C347.456 56.9583 348.789 55.9167 349.872 54.625C350.956 53.2917 351.789 51.7708 352.372 50.0625C352.956 48.3542 353.247 46.5833 353.247 44.75ZM490.938 48.625C490.938 54.5833 490.75 60.5208 490.375 66.4375C490 72.3542 489.562 78.2917 489.062 84.25L456.938 85.75C457.896 78.5 458.75 71.25 459.5 64C460.292 56.7083 460.688 49.4167 460.688 42.125C460.688 41.6667 460.667 40.875 460.625 39.75C460.583 38.5833 460.5 37.2708 460.375 35.8125C460.292 34.3542 460.146 32.8542 459.938 31.3125C459.771 29.7292 459.521 28.2917 459.188 27C458.896 25.6667 458.521 24.5833 458.062 23.75C457.604 22.9167 457.062 22.5 456.438 22.5C454.979 22.5 453.833 23.0625 453 24.1875C452.167 25.2708 451.542 26.5833 451.125 28.125C450.75 29.6667 450.521 31.25 450.438 32.875C450.354 34.4583 450.312 35.75 450.312 36.75C450.312 38.5 450.354 40.25 450.438 42C450.521 43.75 450.562 45.5417 450.562 47.375C450.562 53.8333 450.396 60.2708 450.062 66.6875C449.771 73.1042 449.396 79.5417 448.938 86L419.312 87.125C420.271 79.875 421.104 72.6458 421.812 65.4375C422.562 58.1875 422.938 50.9167 422.938 43.625C422.938 43.1667 422.917 42.3333 422.875 41.125C422.833 39.9167 422.75 38.5625 422.625 37.0625C422.542 35.5625 422.396 34 422.188 32.375C421.979 30.75 421.708 29.2708 421.375 27.9375C421.083 26.5625 420.708 25.4375 420.25 24.5625C419.792 23.6875 419.229 23.25 418.562 23.25C417.521 23.25 416.646 23.6667 415.938 24.5C415.229 25.2917 414.646 26.3333 414.188 27.625C413.771 28.9167 413.438 30.3542 413.188 31.9375C412.979 33.4792 412.812 35 412.688 36.5C412.604 38 412.542 39.3958 412.5 40.6875C412.5 41.9375 412.479 42.875 412.438 43.5L411.062 89.125H379.562C380.229 82.0833 380.896 75.0208 381.562 67.9375C382.271 60.8542 382.875 53.7917 383.375 46.75C383.917 39.6667 384.354 32.5833 384.688 25.5C385.021 18.4167 385.188 11.3333 385.188 4.25L414.938 3L414.812 10.25C415.729 9.08333 416.771 7.91667 417.938 6.75C419.104 5.54167 420.333 4.47917 421.625 3.5625C422.958 2.60417 424.354 1.83333 425.812 1.25C427.312 0.666667 428.854 0.375 430.438 0.375C432.479 0.375 434.312 0.541667 435.938 0.875C437.562 1.16667 439.021 1.6875 440.312 2.4375C441.646 3.1875 442.812 4.22917 443.812 5.5625C444.812 6.85417 445.688 8.5 446.438 10.5C447.771 9.04167 449.104 7.6875 450.438 6.4375C451.812 5.1875 453.25 4.125 454.75 3.25C456.25 2.33333 457.875 1.625 459.625 1.125C461.375 0.625 463.312 0.375 465.438 0.375C469.479 0.375 472.917 1.16667 475.75 2.75C478.583 4.29167 480.938 6.35417 482.812 8.9375C484.729 11.5208 486.208 14.4792 487.25 17.8125C488.333 21.1458 489.146 24.6042 489.688 28.1875C490.229 31.7708 490.562 35.3333 490.688 38.875C490.854 42.4167 490.938 45.6667 490.938 48.625ZM563.878 40.5C563.878 44.125 563.628 47.75 563.128 51.375C556.003 51.8333 548.919 52.5833 541.878 53.625C534.836 54.625 527.794 55.625 520.753 56.625C521.836 59.625 523.523 62.0208 525.815 63.8125C528.148 65.6042 530.919 66.5 534.128 66.5C535.794 66.5 537.607 66.1875 539.565 65.5625C541.565 64.9375 543.544 64.1667 545.503 63.25C547.461 62.2917 549.336 61.2708 551.128 60.1875C552.919 59.1042 554.461 58.125 555.753 57.25L552.753 85.625C551.128 86.875 549.357 87.9375 547.44 88.8125C545.565 89.6875 543.607 90.3958 541.565 90.9375C539.523 91.4792 537.461 91.875 535.378 92.125C533.294 92.375 531.253 92.5 529.253 92.5C525.128 92.5 521.357 91.9375 517.94 90.8125C514.523 89.6875 511.419 88.125 508.628 86.125C505.878 84.0833 503.461 81.6875 501.378 78.9375C499.294 76.1875 497.565 73.1875 496.19 69.9375C494.815 66.6875 493.773 63.25 493.065 59.625C492.357 56 492.003 52.3333 492.003 48.625C492.003 44.75 492.357 40.875 493.065 37C493.773 33.125 494.836 29.3958 496.253 25.8125C497.711 22.2292 499.523 18.9167 501.69 15.875C503.898 12.7917 506.461 10.1042 509.378 7.8125C512.294 5.52083 515.586 3.72917 519.253 2.4375C522.961 1.14583 527.044 0.5 531.503 0.5C535.211 0.5 538.586 1.02083 541.628 2.0625C544.711 3.0625 547.44 4.47917 549.815 6.3125C552.232 8.10417 554.315 10.25 556.065 12.75C557.857 15.25 559.315 18 560.44 21C561.607 23.9583 562.461 27.1042 563.003 30.4375C563.586 33.7292 563.878 37.0833 563.878 40.5ZM538.878 37.25C538.878 36.0833 538.753 34.8958 538.503 33.6875C538.253 32.4375 537.836 31.3125 537.253 30.3125C536.711 29.3125 535.982 28.5 535.065 27.875C534.148 27.2083 533.003 26.875 531.628 26.875C529.961 26.875 528.482 27.3333 527.19 28.25C525.94 29.125 524.857 30.25 523.94 31.625C523.023 32.9583 522.273 34.4167 521.69 36C521.107 37.5833 520.669 39.0417 520.378 40.375L538.878 38.625V37.25ZM654.07 2.875L653.445 29.375L634.82 30.125L632.57 88.125L606.195 89.5L603.82 31.5L585.195 32.5L585.945 3L654.07 2.875ZM731.073 43.125C731.073 46.9167 730.635 50.5833 729.76 54.125C728.885 57.625 727.614 60.9167 725.948 64C724.323 67.0833 722.323 69.9167 719.948 72.5C717.614 75.0417 714.968 77.2292 712.01 79.0625C709.093 80.8958 705.906 82.3333 702.448 83.375C698.989 84.375 695.323 84.875 691.448 84.875C687.698 84.875 684.114 84.3958 680.698 83.4375C677.323 82.4792 674.156 81.1458 671.198 79.4375C668.239 77.6875 665.552 75.6042 663.135 73.1875C660.76 70.7292 658.718 68.0208 657.01 65.0625C655.343 62.0625 654.031 58.8542 653.073 55.4375C652.156 52.0208 651.698 48.4583 651.698 44.75C651.698 41.125 652.135 37.5833 653.01 34.125C653.885 30.625 655.135 27.3333 656.76 24.25C658.427 21.1667 660.427 18.3333 662.76 15.75C665.093 13.1667 667.698 10.9375 670.573 9.0625C673.489 7.1875 676.635 5.72917 680.01 4.6875C683.385 3.64583 686.948 3.125 690.698 3.125C696.739 3.125 702.239 4.0625 707.198 5.9375C712.198 7.8125 716.448 10.5 719.948 14C723.489 17.4583 726.218 21.6667 728.135 26.625C730.093 31.5417 731.073 37.0417 731.073 43.125ZM703.323 44.75C703.323 42.9583 703.052 41.2292 702.51 39.5625C702.01 37.8542 701.26 36.3542 700.26 35.0625C699.26 33.7292 698.01 32.6667 696.51 31.875C695.052 31.0417 693.364 30.625 691.448 30.625C689.489 30.625 687.739 30.9792 686.198 31.6875C684.656 32.3958 683.323 33.375 682.198 34.625C681.114 35.8333 680.281 37.2708 679.698 38.9375C679.114 40.5625 678.823 42.2917 678.823 44.125C678.823 45.875 679.073 47.625 679.573 49.375C680.073 51.125 680.823 52.7083 681.823 54.125C682.823 55.5417 684.052 56.6875 685.51 57.5625C687.01 58.4375 688.739 58.875 690.698 58.875C692.656 58.875 694.406 58.5 695.948 57.75C697.531 56.9583 698.864 55.9167 699.948 54.625C701.031 53.2917 701.864 51.7708 702.448 50.0625C703.031 48.3542 703.323 46.5833 703.323 44.75ZM129.177 194.75C129.177 198.208 128.532 201.188 127.24 203.688C125.99 206.188 124.302 208.312 122.177 210.062C120.052 211.812 117.594 213.25 114.802 214.375C112.052 215.458 109.177 216.312 106.177 216.938C103.177 217.562 100.157 217.979 97.115 218.188C94.115 218.396 91.3025 218.5 88.6775 218.5C86.0942 218.5 83.4067 218.396 80.615 218.188C77.865 218.021 75.115 217.708 72.365 217.25C69.615 216.792 66.9067 216.188 64.24 215.438C61.5733 214.646 59.0525 213.667 56.6775 212.5L56.5525 132C58.8858 131.042 61.365 130.188 63.99 129.438C66.615 128.646 69.2817 128 71.99 127.5C74.74 126.958 77.4692 126.562 80.1775 126.312C82.8858 126.021 85.5108 125.875 88.0525 125.875C91.0108 125.875 93.99 126.062 96.99 126.438C100.032 126.812 102.948 127.438 105.74 128.312C108.532 129.188 111.136 130.333 113.552 131.75C115.969 133.125 118.073 134.833 119.865 136.875C121.698 138.917 123.115 141.292 124.115 144C125.157 146.708 125.677 149.833 125.677 153.375C125.677 155.708 125.344 157.896 124.677 159.938C124.011 161.979 123.052 163.812 121.802 165.438C120.552 167.062 119.032 168.458 117.24 169.625C115.448 170.75 113.427 171.583 111.177 172.125C113.886 172.833 116.344 173.875 118.552 175.25C120.802 176.625 122.698 178.292 124.24 180.25C125.823 182.208 127.032 184.417 127.865 186.875C128.74 189.333 129.177 191.958 129.177 194.75ZM97.4275 159.125C97.4275 157.917 97.1775 156.896 96.6775 156.062C96.1775 155.188 95.5525 154.479 94.8025 153.938C94.0942 153.396 93.3025 153 92.4275 152.75C91.5942 152.5 90.8442 152.375 90.1775 152.375C89.3442 152.375 88.5317 152.5 87.74 152.75C86.9483 153 86.1775 153.292 85.4275 153.625L85.0525 167.5C86.0108 167.5 87.1983 167.417 88.615 167.25C90.0317 167.083 91.3858 166.729 92.6775 166.188C94.0108 165.604 95.1358 164.771 96.0525 163.688C96.9692 162.562 97.4275 161.042 97.4275 159.125ZM88.5525 179.5C87.3442 179.5 86.1775 179.625 85.0525 179.875L84.8025 194.125C85.4275 194.25 86.0317 194.375 86.615 194.5C87.24 194.583 87.8442 194.625 88.4275 194.625C89.3025 194.625 90.2608 194.542 91.3025 194.375C92.3442 194.167 93.3233 193.792 94.24 193.25C95.1567 192.667 95.9067 191.896 96.49 190.938C97.115 189.979 97.4275 188.708 97.4275 187.125C97.4275 185.542 97.115 184.25 96.49 183.25C95.9067 182.25 95.1775 181.479 94.3025 180.938C93.4275 180.354 92.4692 179.979 91.4275 179.812C90.3858 179.604 89.4275 179.5 88.5525 179.5ZM198.492 166.5C198.492 170.125 198.242 173.75 197.742 177.375C190.617 177.833 183.534 178.583 176.492 179.625C169.451 180.625 162.409 181.625 155.367 182.625C156.451 185.625 158.138 188.021 160.43 189.812C162.763 191.604 165.534 192.5 168.742 192.5C170.409 192.5 172.222 192.188 174.18 191.562C176.18 190.938 178.159 190.167 180.117 189.25C182.076 188.292 183.951 187.271 185.742 186.188C187.534 185.104 189.076 184.125 190.367 183.25L187.367 211.625C185.742 212.875 183.972 213.938 182.055 214.812C180.18 215.688 178.222 216.396 176.18 216.938C174.138 217.479 172.076 217.875 169.992 218.125C167.909 218.375 165.867 218.5 163.867 218.5C159.742 218.5 155.972 217.938 152.555 216.812C149.138 215.688 146.034 214.125 143.242 212.125C140.492 210.083 138.076 207.688 135.992 204.938C133.909 202.188 132.18 199.188 130.805 195.938C129.43 192.688 128.388 189.25 127.68 185.625C126.972 182 126.617 178.333 126.617 174.625C126.617 170.75 126.972 166.875 127.68 163C128.388 159.125 129.451 155.396 130.867 151.812C132.326 148.229 134.138 144.917 136.305 141.875C138.513 138.792 141.076 136.104 143.992 133.812C146.909 131.521 150.201 129.729 153.867 128.438C157.576 127.146 161.659 126.5 166.117 126.5C169.826 126.5 173.201 127.021 176.242 128.062C179.326 129.062 182.055 130.479 184.43 132.312C186.847 134.104 188.93 136.25 190.68 138.75C192.472 141.25 193.93 144 195.055 147C196.222 149.958 197.076 153.104 197.617 156.438C198.201 159.729 198.492 163.083 198.492 166.5ZM173.492 163.25C173.492 162.083 173.367 160.896 173.117 159.688C172.867 158.438 172.451 157.312 171.867 156.312C171.326 155.312 170.597 154.5 169.68 153.875C168.763 153.208 167.617 152.875 166.242 152.875C164.576 152.875 163.097 153.333 161.805 154.25C160.555 155.125 159.472 156.25 158.555 157.625C157.638 158.958 156.888 160.417 156.305 162C155.722 163.583 155.284 165.042 154.992 166.375L173.492 164.625V163.25ZM275.37 211.625L244.37 215.625L240.62 201.5H226.37L223.245 215.625L191.37 212.5L216.245 129.25L250.995 127.5L275.37 211.625ZM238.37 182.375L233.62 160.625L228.995 182.375H238.37ZM347.372 156.75C347.372 160 347.081 162.958 346.497 165.625C345.956 168.25 345.081 170.667 343.872 172.875C342.664 175.083 341.102 177.125 339.185 179C337.268 180.875 334.956 182.667 332.247 184.375L347.122 210.875L318.997 216.375L309.372 189.75L301.622 190L300.497 216H273.622C273.831 206.5 274.018 197.042 274.185 187.625C274.393 178.208 274.622 168.75 274.872 159.25C274.956 154.458 275.039 149.708 275.122 145C275.206 140.292 275.372 135.542 275.622 130.75C278.539 129.667 281.414 128.771 284.247 128.062C287.081 127.354 289.914 126.812 292.747 126.438C295.622 126.021 298.518 125.75 301.435 125.625C304.393 125.458 307.414 125.375 310.497 125.375C315.247 125.375 319.831 126.042 324.247 127.375C328.706 128.667 332.643 130.625 336.06 133.25C339.477 135.875 342.206 139.146 344.247 143.062C346.331 146.979 347.372 151.542 347.372 156.75ZM319.372 158.75C319.372 157 319.122 155.396 318.622 153.938C318.164 152.479 317.456 151.229 316.497 150.188C315.581 149.104 314.414 148.271 312.997 147.688C311.622 147.062 309.997 146.75 308.122 146.75C307.289 146.75 306.477 146.812 305.685 146.938C304.893 147.021 304.122 147.167 303.372 147.375L302.372 170.625H303.872C305.664 170.625 307.477 170.396 309.31 169.938C311.185 169.479 312.852 168.771 314.31 167.812C315.81 166.854 317.018 165.625 317.935 164.125C318.893 162.625 319.372 160.833 319.372 158.75ZM404 183.875L401.375 211.625L348.75 215.75L350.75 126.5H383.25L378.625 183.875H404ZM437.003 129L432.628 214.125L406.253 215.5L403.753 130.75L437.003 129ZM517.13 185.375C517.13 190.083 517.068 194.75 516.943 199.375C516.859 203.958 516.713 208.583 516.505 213.25L480.505 212.625C481.755 205.25 482.838 197.896 483.755 190.562C484.672 183.188 485.13 175.75 485.13 168.25C485.13 167.708 485.109 166.833 485.068 165.625C485.026 164.417 484.943 163.062 484.818 161.562C484.693 160.021 484.505 158.458 484.255 156.875C484.047 155.25 483.734 153.771 483.318 152.438C482.943 151.104 482.463 150.021 481.88 149.188C481.338 148.312 480.672 147.875 479.88 147.875C478.463 147.875 477.255 148.292 476.255 149.125C475.297 149.958 474.484 151.042 473.818 152.375C473.193 153.667 472.693 155.125 472.318 156.75C471.943 158.375 471.651 160 471.443 161.625C471.276 163.25 471.151 164.792 471.068 166.25C471.026 167.667 471.005 168.833 471.005 169.75C470.797 177.125 470.63 184.458 470.505 191.75C470.38 199 470.213 206.333 470.005 213.75L438.13 215.125C438.963 200.417 439.755 185.792 440.505 171.25C441.297 156.708 441.922 142.083 442.38 127.375L471.88 125.875L471.63 135.875C472.797 134.458 474.047 133.125 475.38 131.875C476.755 130.625 478.213 129.562 479.755 128.688C481.297 127.771 482.922 127.062 484.63 126.562C486.38 126.021 488.213 125.75 490.13 125.75C493.672 125.75 496.776 126.333 499.443 127.5C502.109 128.667 504.401 130.25 506.318 132.25C508.234 134.25 509.838 136.625 511.13 139.375C512.422 142.083 513.463 144.979 514.255 148.062C515.047 151.146 515.651 154.375 516.068 157.75C516.484 161.083 516.755 164.375 516.88 167.625C517.047 170.875 517.13 174.021 517.13 177.062C517.13 180.104 517.13 182.875 517.13 185.375ZM596.07 203C594.112 205.458 591.695 207.604 588.82 209.438C585.945 211.271 582.862 212.792 579.57 214C576.278 215.208 572.903 216.125 569.445 216.75C565.987 217.333 562.695 217.625 559.57 217.625C553.528 217.625 547.966 216.604 542.882 214.562C537.799 212.521 533.403 209.688 529.695 206.062C526.028 202.396 523.153 198.042 521.07 193C518.987 187.958 517.945 182.458 517.945 176.5C517.945 171.958 518.466 167.542 519.507 163.25C520.549 158.958 522.028 154.938 523.945 151.188C525.903 147.438 528.278 144 531.07 140.875C533.862 137.75 537.028 135.062 540.57 132.812C544.112 130.562 547.987 128.833 552.195 127.625C556.445 126.375 560.945 125.75 565.695 125.75C567.487 125.75 569.403 125.833 571.445 126C573.487 126.125 575.507 126.375 577.507 126.75C579.549 127.083 581.528 127.562 583.445 128.188C585.362 128.812 587.112 129.583 588.695 130.5L586.945 154.375C584.612 153.5 582.195 152.917 579.695 152.625C577.237 152.292 574.82 152.125 572.445 152.125C569.112 152.125 565.987 152.583 563.07 153.5C560.195 154.375 557.674 155.688 555.507 157.438C553.382 159.188 551.695 161.375 550.445 164C549.195 166.625 548.57 169.667 548.57 173.125C548.57 175.292 548.862 177.396 549.445 179.438C550.028 181.438 550.903 183.229 552.07 184.812C553.278 186.354 554.757 187.604 556.507 188.562C558.299 189.521 560.362 190 562.695 190C564.278 190 565.903 189.792 567.57 189.375C569.278 188.958 570.737 188.25 571.945 187.25L572.195 182.375L557.195 182.125L557.945 163.375C564.153 163.167 570.362 163 576.57 162.875C582.778 162.708 589.028 162.5 595.32 162.25L596.07 203ZM675.573 169.125C675.573 172.917 675.135 176.583 674.26 180.125C673.385 183.625 672.114 186.917 670.448 190C668.823 193.083 666.823 195.917 664.448 198.5C662.114 201.042 659.468 203.229 656.51 205.062C653.593 206.896 650.406 208.333 646.948 209.375C643.489 210.375 639.823 210.875 635.948 210.875C632.198 210.875 628.614 210.396 625.198 209.438C621.823 208.479 618.656 207.146 615.698 205.438C612.739 203.688 610.052 201.604 607.635 199.188C605.26 196.729 603.218 194.021 601.51 191.062C599.843 188.062 598.531 184.854 597.573 181.438C596.656 178.021 596.198 174.458 596.198 170.75C596.198 167.125 596.635 163.583 597.51 160.125C598.385 156.625 599.635 153.333 601.26 150.25C602.927 147.167 604.927 144.333 607.26 141.75C609.593 139.167 612.198 136.938 615.073 135.062C617.989 133.188 621.135 131.729 624.51 130.688C627.885 129.646 631.448 129.125 635.198 129.125C641.239 129.125 646.739 130.062 651.698 131.938C656.698 133.812 660.948 136.5 664.448 140C667.989 143.458 670.718 147.667 672.635 152.625C674.593 157.542 675.573 163.042 675.573 169.125ZM647.823 170.75C647.823 168.958 647.552 167.229 647.01 165.562C646.51 163.854 645.76 162.354 644.76 161.062C643.76 159.729 642.51 158.667 641.01 157.875C639.552 157.042 637.864 156.625 635.948 156.625C633.989 156.625 632.239 156.979 630.698 157.688C629.156 158.396 627.823 159.375 626.698 160.625C625.614 161.833 624.781 163.271 624.198 164.938C623.614 166.562 623.323 168.292 623.323 170.125C623.323 171.875 623.573 173.625 624.073 175.375C624.573 177.125 625.323 178.708 626.323 180.125C627.323 181.542 628.552 182.688 630.01 183.562C631.51 184.438 633.239 184.875 635.198 184.875C637.156 184.875 638.906 184.5 640.448 183.75C642.031 182.958 643.364 181.917 644.448 180.625C645.531 179.292 646.364 177.771 646.948 176.062C647.531 174.354 647.823 172.583 647.823 170.75Z" fill="black"/>
</svg>
